<?xml version="1.0" encoding="UTF-8" standalone="no"?>
<!DOCTYPE svg PUBLIC "-//W3C//DTD SVG 1.1//EN"
 "http://www.w3.org/Graphics/SVG/1.1/DTD/svg11.dtd">
<!-- Generated by graphviz version 2.43.0 (0)
 -->
<!-- Title: WolfstagInteractive.ConvoCore.BaseAction Pages: 1 -->
<svg width="536pt" height="312pt"
 viewBox="0.00 0.00 536.00 312.00" xmlns="http://www.w3.org/2000/svg" xmlns:xlink="http://www.w3.org/1999/xlink">
<g id="graph0" class="graph" transform="scale(1 1) rotate(0) translate(4 308)">
<title>WolfstagInteractive.ConvoCore.BaseAction</title>
<!-- Node1 -->
<g id="Node000001" class="node">
<title>Node1</title>
<g id="a_Node000001"><a xlink:title=" ">
<polygon fill="#999999" stroke="#666666" points="279,-161 133,-161 133,-131 279,-131 279,-161"/>
<text text-anchor="start" x="141" y="-149" font-family="Helvetica,sans-Serif" font-size="10.00">WolfstagInteractive.Convo</text>
<text text-anchor="middle" x="206" y="-138" font-family="Helvetica,sans-Serif" font-size="10.00">Core.BaseAction</text>
</a>
</g>
</g>
<!-- Node3 -->
<g id="Node000003" class="node">
<title>Node3</title>
<g id="a_Node000003"><a xlink:href="classConvoCore_1_1ConvoCoreAction__ActionGroup.html" target="_top" xlink:title=" ">
<polygon fill="white" stroke="#bfbfbf" points="500,-304 343,-304 343,-274 500,-274 500,-304"/>
<text text-anchor="start" x="351" y="-292" font-family="Helvetica,sans-Serif" font-size="10.00">ConvoCore.ConvoCoreAction</text>
<text text-anchor="middle" x="421.5" y="-281" font-family="Helvetica,sans-Serif" font-size="10.00">_ActionGroup</text>
</a>
</g>
</g>
<!-- Node1&#45;&gt;Node3 -->
<g id="edge2_Node000001_Node000003" class="edge">
<title>Node1&#45;&gt;Node3</title>
<g id="a_edge2_Node000001_Node000003"><a xlink:title=" ">
<path fill="none" stroke="#63b8ff" d="M221.87,-169.69C240.3,-197.02 274.31,-241.23 315,-265 323.6,-270.02 333.15,-273.99 342.91,-277.13"/>
<polygon fill="#63b8ff" stroke="#63b8ff" points="224.65,-167.55 216.23,-161.13 218.8,-171.4 224.65,-167.55"/>
</a>
</g>
</g>
<!-- Node4 -->
<g id="Node000004" class="node">
<title>Node4</title>
<g id="a_Node000004"><a xlink:href="classWolfstagInteractive_1_1ConvoCore_1_1ConvoCoreAction__EnableDisableGameObject.html" target="_top" xlink:title=" ">
<polygon fill="white" stroke="#bfbfbf" points="522,-255.5 321,-255.5 321,-214.5 522,-214.5 522,-255.5"/>
<text text-anchor="start" x="329" y="-243.5" font-family="Helvetica,sans-Serif" font-size="10.00">WolfstagInteractive.Convo</text>
<text text-anchor="start" x="329" y="-232.5" font-family="Helvetica,sans-Serif" font-size="10.00">Core.ConvoCoreAction_EnableDisable</text>
<text text-anchor="middle" x="421.5" y="-221.5" font-family="Helvetica,sans-Serif" font-size="10.00">GameObject</text>
</a>
</g>
</g>
<!-- Node1&#45;&gt;Node4 -->
<g id="edge3_Node000001_Node000004" class="edge">
<title>Node1&#45;&gt;Node4</title>
<g id="a_edge3_Node000001_Node000004"><a xlink:title=" ">
<path fill="none" stroke="#63b8ff" d="M239.01,-166.45C259.98,-179.17 288.36,-195.12 315,-206 322.39,-209.02 330.19,-211.82 338.07,-214.41"/>
<polygon fill="#63b8ff" stroke="#63b8ff" points="240.56,-163.29 230.21,-161.04 236.89,-169.26 240.56,-163.29"/>
</a>
</g>
</g>
<!-- Node5 -->
<g id="Node000005" class="node">
<title>Node5</title>
<g id="a_Node000005"><a xlink:href="classWolfstagInteractive_1_1ConvoCore_1_1ConvoCoreAction__FadeInOutSpriteRenderer.html" target="_top" xlink:title=" ">
<polygon fill="white" stroke="#bfbfbf" points="511.5,-196.5 331.5,-196.5 331.5,-155.5 511.5,-155.5 511.5,-196.5"/>
<text text-anchor="start" x="339.5" y="-184.5" font-family="Helvetica,sans-Serif" font-size="10.00">WolfstagInteractive.Convo</text>
<text text-anchor="start" x="339.5" y="-173.5" font-family="Helvetica,sans-Serif" font-size="10.00">Core.ConvoCoreAction_FadeInOut</text>
<text text-anchor="middle" x="421.5" y="-162.5" font-family="Helvetica,sans-Serif" font-size="10.00">SpriteRenderer</text>
</a>
</g>
</g>
<!-- Node1&#45;&gt;Node5 -->
<g id="edge4_Node000001_Node000005" class="edge">
<title>Node1&#45;&gt;Node5</title>
<g id="a_edge4_Node000001_Node000005"><a xlink:title=" ">
<path fill="none" stroke="#63b8ff" d="M289.19,-157.55C302.96,-159.48 317.31,-161.5 331.25,-163.46"/>
<polygon fill="#63b8ff" stroke="#63b8ff" points="289.67,-154.08 279.28,-156.16 288.7,-161.01 289.67,-154.08"/>
</a>
</g>
</g>
<!-- Node6 -->
<g id="Node000006" class="node">
<title>Node6</title>
<g id="a_Node000006"><a xlink:href="classWolfstagInteractive_1_1ConvoCore_1_1ConvoCoreAction__InstantiatePrefab.html" target="_top" xlink:title=" ">
<polygon fill="white" stroke="#bfbfbf" points="513.5,-137.5 329.5,-137.5 329.5,-96.5 513.5,-96.5 513.5,-137.5"/>
<text text-anchor="start" x="337.5" y="-125.5" font-family="Helvetica,sans-Serif" font-size="10.00">WolfstagInteractive.Convo</text>
<text text-anchor="start" x="337.5" y="-114.5" font-family="Helvetica,sans-Serif" font-size="10.00">Core.ConvoCoreAction_Instantiate</text>
<text text-anchor="middle" x="421.5" y="-103.5" font-family="Helvetica,sans-Serif" font-size="10.00">Prefab</text>
</a>
</g>
</g>
<!-- Node1&#45;&gt;Node6 -->
<g id="edge5_Node000001_Node000006" class="edge">
<title>Node1&#45;&gt;Node6</title>
<g id="a_edge5_Node000001_Node000006"><a xlink:title=" ">
<path fill="none" stroke="#63b8ff" d="M289.22,-134.83C302.36,-133.05 316.03,-131.19 329.37,-129.38"/>
<polygon fill="#63b8ff" stroke="#63b8ff" points="288.72,-131.37 279.28,-136.18 289.66,-138.3 288.72,-131.37"/>
</a>
</g>
</g>
<!-- Node7 -->
<g id="Node000007" class="node">
<title>Node7</title>
<g id="a_Node000007"><a xlink:href="classWolfstagInteractive_1_1ConvoCore_1_1ConvoCoreAction__ModifyTransform.html" target="_top" xlink:title=" ">
<polygon fill="white" stroke="#bfbfbf" points="528,-78 315,-78 315,-48 528,-48 528,-78"/>
<text text-anchor="start" x="323" y="-66" font-family="Helvetica,sans-Serif" font-size="10.00">WolfstagInteractive.Convo</text>
<text text-anchor="middle" x="421.5" y="-55" font-family="Helvetica,sans-Serif" font-size="10.00">Core.ConvoCoreAction_ModifyTransform</text>
</a>
</g>
</g>
<!-- Node1&#45;&gt;Node7 -->
<g id="edge6_Node000001_Node000007" class="edge">
<title>Node1&#45;&gt;Node7</title>
<g id="a_edge6_Node000001_Node000007"><a xlink:title=" ">
<path fill="none" stroke="#63b8ff" d="M238.89,-125.52C259.83,-112.86 288.19,-97.15 315,-87 323.87,-83.64 333.35,-80.67 342.85,-78.08"/>
<polygon fill="#63b8ff" stroke="#63b8ff" points="236.81,-122.69 230.12,-130.91 240.47,-128.66 236.81,-122.69"/>
</a>
</g>
</g>
<!-- Node8 -->
<g id="Node000008" class="node">
<title>Node8</title>
<g id="a_Node000008"><a xlink:href="classWolfstagInteractive_1_1ConvoCore_1_1ConvoCoreAction__PlayAudioClip.html" target="_top" xlink:title=" ">
<polygon fill="white" stroke="#bfbfbf" points="521,-30 322,-30 322,0 521,0 521,-30"/>
<text text-anchor="start" x="330" y="-18" font-family="Helvetica,sans-Serif" font-size="10.00">WolfstagInteractive.Convo</text>
<text text-anchor="middle" x="421.5" y="-7" font-family="Helvetica,sans-Serif" font-size="10.00">Core.ConvoCoreAction_PlayAudioClip</text>
</a>
</g>
</g>
<!-- Node1&#45;&gt;Node8 -->
<g id="edge7_Node000001_Node000008" class="edge">
<title>Node1&#45;&gt;Node8</title>
<g id="a_edge7_Node000001_Node000008"><a xlink:title=" ">
<path fill="none" stroke="#63b8ff" d="M223.91,-122.82C243.16,-98.16 276.92,-59.91 315,-39 321.26,-35.56 327.98,-32.62 334.89,-30.1"/>
<polygon fill="#63b8ff" stroke="#63b8ff" points="221.01,-120.85 217.72,-130.92 226.57,-125.09 221.01,-120.85"/>
</a>
</g>
</g>
<!-- Node2 -->
<g id="Node000002" class="node">
<title>Node2</title>
<g id="a_Node000002"><a xlink:title=" ">
<polygon fill="white" stroke="#bfbfbf" points="97,-155.5 0,-155.5 0,-136.5 97,-136.5 97,-155.5"/>
<text text-anchor="middle" x="48.5" y="-143.5" font-family="Helvetica,sans-Serif" font-size="10.00">ScriptableObject</text>
</a>
</g>
</g>
<!-- Node2&#45;&gt;Node1 -->
<g id="edge1_Node000001_Node000002" class="edge">
<title>Node2&#45;&gt;Node1</title>
<g id="a_edge1_Node000001_Node000002"><a xlink:title=" ">
<path fill="none" stroke="#63b8ff" d="M107.06,-146C115.47,-146 124.22,-146 132.88,-146"/>
<polygon fill="#63b8ff" stroke="#63b8ff" points="107,-142.5 97,-146 107,-149.5 107,-142.5"/>
</a>
</g>
</g>
</g>
</svg>
