<?xml version="1.0" encoding="UTF-8" standalone="no"?>
<!DOCTYPE svg PUBLIC "-//W3C//DTD SVG 1.1//EN"
 "http://www.w3.org/Graphics/SVG/1.1/DTD/svg11.dtd">
<!-- Generated by graphviz version 2.43.0 (0)
 -->
<!-- Title: WolfstagInteractive.ConvoCore.ConvoCore Pages: 1 -->
<svg width="989pt" height="279pt"
 viewBox="0.00 0.00 989.00 279.02" xmlns="http://www.w3.org/2000/svg" xmlns:xlink="http://www.w3.org/1999/xlink">
<g id="graph0" class="graph" transform="scale(1 1) rotate(0) translate(4 275.02)">
<title>WolfstagInteractive.ConvoCore.ConvoCore</title>
<!-- Node1 -->
<g id="Node000001" class="node">
<title>Node1</title>
<g id="a_Node000001"><a xlink:title=" ">
<polygon fill="#999999" stroke="#666666" points="981,-236 835,-236 835,-206 981,-206 981,-236"/>
<text text-anchor="start" x="843" y="-224" font-family="Helvetica,sans-Serif" font-size="10.00">WolfstagInteractive.Convo</text>
<text text-anchor="middle" x="908" y="-213" font-family="Helvetica,sans-Serif" font-size="10.00">Core.ConvoCore</text>
</a>
</g>
</g>
<!-- Node2 -->
<g id="Node000002" class="node">
<title>Node2</title>
<g id="a_Node000002"><a xlink:title=" ">
<polygon fill="white" stroke="#bfbfbf" points="93,-156.5 0,-156.5 0,-137.5 93,-137.5 93,-156.5"/>
<text text-anchor="middle" x="46.5" y="-144.5" font-family="Helvetica,sans-Serif" font-size="10.00">MonoBehaviour</text>
</a>
</g>
</g>
<!-- Node2&#45;&gt;Node1 -->
<g id="edge1_Node000001_Node000002" class="edge">
<title>Node2&#45;&gt;Node1</title>
<g id="a_edge1_Node000001_Node000002"><a xlink:title=" ">
<path fill="none" stroke="#63b8ff" d="M59.67,-164.92C73.94,-184.17 99.54,-213.64 130,-226 372.6,-324.37 457.22,-229.11 719,-230 762.56,-230.14 773.5,-232.17 817,-230 822.8,-229.71 828.81,-229.31 834.84,-228.85"/>
<polygon fill="#63b8ff" stroke="#63b8ff" points="62.43,-162.76 53.77,-156.66 56.73,-166.83 62.43,-162.76"/>
</a>
</g>
</g>
<!-- Node5 -->
<g id="Node000005" class="node">
<title>Node5</title>
<g id="a_Node000005"><a xlink:href="classWolfstagInteractive_1_1ConvoCore_1_1ConvoCoreUIFoundation.html" target="_top" xlink:title="Used as a basis of any UI that can be assigned in the inspector that includes all the base functions ...">
<polygon fill="white" stroke="#666666" points="689.5,-140 529.5,-140 529.5,-110 689.5,-110 689.5,-140"/>
<text text-anchor="start" x="537.5" y="-128" font-family="Helvetica,sans-Serif" font-size="10.00">WolfstagInteractive.Convo</text>
<text text-anchor="middle" x="609.5" y="-117" font-family="Helvetica,sans-Serif" font-size="10.00">Core.ConvoCoreUIFoundation</text>
</a>
</g>
</g>
<!-- Node2&#45;&gt;Node5 -->
<g id="edge5_Node000005_Node000002" class="edge">
<title>Node2&#45;&gt;Node5</title>
<g id="a_edge5_Node000005_Node000002"><a xlink:title=" ">
<path fill="none" stroke="#63b8ff" d="M103.27,-149.35C188.86,-152.26 357.65,-155.25 500,-141 509.57,-140.04 519.58,-138.84 529.5,-137.52"/>
<polygon fill="#63b8ff" stroke="#63b8ff" points="103.37,-145.85 93.25,-148.99 103.12,-152.85 103.37,-145.85"/>
</a>
</g>
</g>
<!-- Node7 -->
<g id="Node000007" class="node">
<title>Node7</title>
<g id="a_Node000007"><a xlink:href="classWolfstagInteractive_1_1ConvoCore_1_1ConvoCore.html" target="_top" xlink:title=" ">
<polygon fill="white" stroke="#bfbfbf" points="981,-117 835,-117 835,-87 981,-87 981,-117"/>
<text text-anchor="start" x="843" y="-105" font-family="Helvetica,sans-Serif" font-size="10.00">WolfstagInteractive.Convo</text>
<text text-anchor="middle" x="908" y="-94" font-family="Helvetica,sans-Serif" font-size="10.00">Core.ConvoCore</text>
</a>
</g>
</g>
<!-- Node2&#45;&gt;Node7 -->
<g id="edge8_Node000007_Node000002" class="edge">
<title>Node2&#45;&gt;Node7</title>
<g id="a_edge8_Node000007_Node000002"><a xlink:title=" ">
<path fill="none" stroke="#63b8ff" d="M57.22,-128.44C70.29,-105.75 95.88,-68.45 130,-53 389.49,64.52 748.33,-44.66 867.08,-86.93"/>
<polygon fill="#63b8ff" stroke="#63b8ff" points="54.02,-126.99 52.25,-137.44 60.15,-130.37 54.02,-126.99"/>
</a>
</g>
</g>
<!-- Node8 -->
<g id="Node000008" class="node">
<title>Node8</title>
<g id="a_Node000008"><a xlink:href="classWolfstagInteractive_1_1ConvoCore_1_1ConvoCorePrefabRepresentationSpawner.html" target="_top" xlink:title=" ">
<polygon fill="white" stroke="#bfbfbf" points="331,-103.5 130,-103.5 130,-62.5 331,-62.5 331,-103.5"/>
<text text-anchor="start" x="138" y="-91.5" font-family="Helvetica,sans-Serif" font-size="10.00">WolfstagInteractive.Convo</text>
<text text-anchor="start" x="138" y="-80.5" font-family="Helvetica,sans-Serif" font-size="10.00">Core.ConvoCorePrefabRepresentation</text>
<text text-anchor="middle" x="230.5" y="-69.5" font-family="Helvetica,sans-Serif" font-size="10.00">Spawner</text>
</a>
</g>
</g>
<!-- Node2&#45;&gt;Node8 -->
<g id="edge12_Node000008_Node000002" class="edge">
<title>Node2&#45;&gt;Node8</title>
<g id="a_edge12_Node000008_Node000002"><a xlink:title=" ">
<path fill="none" stroke="#63b8ff" d="M78.51,-133.37C93.86,-126.84 112.76,-119.13 130,-113 139.09,-109.76 148.73,-106.57 158.29,-103.54"/>
<polygon fill="#63b8ff" stroke="#63b8ff" points="76.8,-130.3 68.99,-137.46 79.56,-136.73 76.8,-130.3"/>
</a>
</g>
</g>
<!-- Node3 -->
<g id="Node000003" class="node">
<title>Node3</title>
<g id="a_Node000003"><a xlink:href="classWolfstagInteractive_1_1ConvoCore_1_1ConvoCoreConversationData.html" target="_top" xlink:title=" ">
<polygon fill="white" stroke="#bfbfbf" points="701,-219 518,-219 518,-189 701,-189 701,-219"/>
<text text-anchor="start" x="526" y="-207" font-family="Helvetica,sans-Serif" font-size="10.00">WolfstagInteractive.Convo</text>
<text text-anchor="middle" x="609.5" y="-196" font-family="Helvetica,sans-Serif" font-size="10.00">Core.ConvoCoreConversationData</text>
</a>
</g>
</g>
<!-- Node3&#45;&gt;Node1 -->
<g id="edge2_Node000001_Node000003" class="edge">
<title>Node3&#45;&gt;Node1</title>
<g id="a_edge2_Node000001_Node000003"><a xlink:title=" ">
<path fill="none" stroke="#9a32cd" stroke-dasharray="5,2" d="M711.26,-209.77C751.82,-212.1 797.69,-214.73 834.82,-216.86"/>
<polygon fill="#9a32cd" stroke="#9a32cd" points="711.25,-206.27 701.07,-209.19 710.85,-213.26 711.25,-206.27"/>
</a>
</g>
<text text-anchor="middle" x="768" y="-218" font-family="Helvetica,sans-Serif" font-size="10.00" fill="grey"> ConversationData</text>
</g>
<!-- Node3&#45;&gt;Node7 -->
<g id="edge9_Node000007_Node000003" class="edge">
<title>Node3&#45;&gt;Node7</title>
<g id="a_edge9_Node000007_Node000003"><a xlink:title=" ">
<path fill="none" stroke="#9a32cd" stroke-dasharray="5,2" d="M711.18,-193.72C745.66,-187.94 783.87,-178.95 817,-165 844.95,-153.22 872.9,-131.77 890.07,-117.21"/>
<polygon fill="#9a32cd" stroke="#9a32cd" points="710.4,-190.3 701.09,-195.34 711.51,-197.21 710.4,-190.3"/>
</a>
</g>
<text text-anchor="middle" x="768" y="-194" font-family="Helvetica,sans-Serif" font-size="10.00" fill="grey"> ConversationData</text>
</g>
<!-- Node4 -->
<g id="Node000004" class="node">
<title>Node4</title>
<g id="a_Node000004"><a xlink:title=" ">
<polygon fill="white" stroke="#bfbfbf" points="279,-216.5 182,-216.5 182,-197.5 279,-197.5 279,-216.5"/>
<text text-anchor="middle" x="230.5" y="-204.5" font-family="Helvetica,sans-Serif" font-size="10.00">ScriptableObject</text>
</a>
</g>
</g>
<!-- Node4&#45;&gt;Node3 -->
<g id="edge3_Node000003_Node000004" class="edge">
<title>Node4&#45;&gt;Node3</title>
<g id="a_edge3_Node000003_Node000004"><a xlink:title=" ">
<path fill="none" stroke="#63b8ff" d="M289.45,-206.53C350.35,-206.05 446.99,-205.28 517.97,-204.72"/>
<polygon fill="#63b8ff" stroke="#63b8ff" points="289.22,-203.04 279.25,-206.62 289.27,-210.04 289.22,-203.04"/>
</a>
</g>
</g>
<!-- Node5&#45;&gt;Node1 -->
<g id="edge4_Node000001_Node000005" class="edge">
<title>Node5&#45;&gt;Node1</title>
<g id="a_edge4_Node000001_Node000005"><a xlink:title=" ">
<path fill="none" stroke="#9a32cd" stroke-dasharray="5,2" d="M699.59,-133.1C745.36,-138.14 795.86,-145.31 817,-154 846.55,-166.13 875.18,-190.22 891.93,-205.96"/>
<polygon fill="#9a32cd" stroke="#9a32cd" points="699.92,-129.62 689.61,-132.03 699.17,-136.58 699.92,-129.62"/>
</a>
</g>
<text text-anchor="middle" x="768" y="-157" font-family="Helvetica,sans-Serif" font-size="10.00" fill="grey"> ConversationUI</text>
</g>
<!-- Node5&#45;&gt;Node7 -->
<g id="edge10_Node000007_Node000005" class="edge">
<title>Node5&#45;&gt;Node7</title>
<g id="a_edge10_Node000007_Node000005"><a xlink:title=" ">
<path fill="none" stroke="#9a32cd" stroke-dasharray="5,2" d="M699.79,-118.07C742.95,-114.72 794.08,-110.76 834.75,-107.6"/>
<polygon fill="#9a32cd" stroke="#9a32cd" points="699.27,-114.6 689.57,-118.86 699.81,-121.58 699.27,-114.6"/>
</a>
</g>
<text text-anchor="middle" x="768" y="-119" font-family="Helvetica,sans-Serif" font-size="10.00" fill="grey"> ConversationUI</text>
</g>
<!-- Node6 -->
<g id="Node000006" class="node">
<title>Node6</title>
<g id="a_Node000006"><a xlink:href="interfaceWolfstagInteractive_1_1ConvoCore_1_1IUIFoundation.html" target="_top" xlink:title=" ">
<polygon fill="white" stroke="#bfbfbf" points="272.5,-140.5 188.5,-140.5 188.5,-121.5 272.5,-121.5 272.5,-140.5"/>
<text text-anchor="middle" x="230.5" y="-128.5" font-family="Helvetica,sans-Serif" font-size="10.00">IUIFoundation</text>
</a>
</g>
</g>
<!-- Node6&#45;&gt;Node5 -->
<g id="edge6_Node000005_Node000006" class="edge">
<title>Node6&#45;&gt;Node5</title>
<g id="a_edge6_Node000005_Node000006"><a xlink:title=" ">
<path fill="none" stroke="#63b8ff" d="M282.73,-130.18C346.25,-129.17 455.18,-127.44 529.44,-126.25"/>
<polygon fill="#63b8ff" stroke="#63b8ff" points="282.51,-126.68 272.56,-130.34 282.62,-133.68 282.51,-126.68"/>
</a>
</g>
</g>
<!-- Node7&#45;&gt;Node5 -->
<g id="edge7_Node000005_Node000007" class="edge">
<title>Node7&#45;&gt;Node5</title>
<g id="a_edge7_Node000005_Node000007"><a xlink:title=" ">
<path fill="none" stroke="#9a32cd" stroke-dasharray="5,2" d="M824.69,-85.87C791.67,-81.77 753.36,-80.01 719,-86 692.77,-90.57 664.51,-100.91 643.41,-109.8"/>
<polygon fill="#9a32cd" stroke="#9a32cd" points="824.38,-89.36 834.75,-87.21 825.3,-82.42 824.38,-89.36"/>
</a>
</g>
<text text-anchor="middle" x="768" y="-89" font-family="Helvetica,sans-Serif" font-size="10.00" fill="grey"> ConvoCoreInstance</text>
</g>
<!-- Node8&#45;&gt;Node5 -->
<g id="edge11_Node000005_Node000008" class="edge">
<title>Node8&#45;&gt;Node5</title>
<g id="a_edge11_Node000005_Node000008"><a xlink:title=" ">
<path fill="none" stroke="#9a32cd" stroke-dasharray="5,2" d="M341.26,-93.83C389.92,-98.79 447.85,-104.91 500,-111 509.53,-112.11 519.52,-113.32 529.42,-114.56"/>
<polygon fill="#9a32cd" stroke="#9a32cd" points="341.32,-90.32 331.02,-92.79 340.62,-97.28 341.32,-90.32"/>
</a>
</g>
<text text-anchor="middle" x="424.5" y="-114" font-family="Helvetica,sans-Serif" font-size="10.00" fill="grey"> PrefabRepresentationSpawner</text>
</g>
</g>
</svg>
