<?xml version="1.0" encoding="UTF-8" standalone="no"?>
<!DOCTYPE svg PUBLIC "-//W3C//DTD SVG 1.1//EN"
 "http://www.w3.org/Graphics/SVG/1.1/DTD/svg11.dtd">
<!-- Generated by graphviz version 2.43.0 (0)
 -->
<!-- Title: WolfstagInteractive.ConvoCore.ConvoCoreAction_EnableDisableGameObject Pages: 1 -->
<svg width="263pt" height="182pt"
 viewBox="0.00 0.00 262.50 182.00" xmlns="http://www.w3.org/2000/svg" xmlns:xlink="http://www.w3.org/1999/xlink">
<g id="graph0" class="graph" transform="scale(1 1) rotate(0) translate(4 178)">
<title>WolfstagInteractive.ConvoCore.ConvoCoreAction_EnableDisableGameObject</title>
<!-- Node1 -->
<g id="Node000001" class="node">
<title>Node1</title>
<g id="a_Node000001"><a xlink:title=" ">
<polygon fill="#999999" stroke="#666666" points="214,-41 13,-41 13,0 214,0 214,-41"/>
<text text-anchor="start" x="21" y="-29" font-family="Helvetica,sans-Serif" font-size="10.00">WolfstagInteractive.Convo</text>
<text text-anchor="start" x="21" y="-18" font-family="Helvetica,sans-Serif" font-size="10.00">Core.ConvoCoreAction_EnableDisable</text>
<text text-anchor="middle" x="113.5" y="-7" font-family="Helvetica,sans-Serif" font-size="10.00">GameObject</text>
</a>
</g>
</g>
<!-- Node2 -->
<g id="Node000002" class="node">
<title>Node2</title>
<g id="a_Node000002"><a xlink:href="classWolfstagInteractive_1_1ConvoCore_1_1BaseAction.html" target="_top" xlink:title=" ">
<polygon fill="white" stroke="#bfbfbf" points="84,-112.5 13,-112.5 13,-93.5 84,-93.5 84,-112.5"/>
<text text-anchor="middle" x="48.5" y="-100.5" font-family="Helvetica,sans-Serif" font-size="10.00">BaseAction</text>
</a>
</g>
</g>
<!-- Node2&#45;&gt;Node1 -->
<g id="edge1_Node000001_Node000002" class="edge">
<title>Node2&#45;&gt;Node1</title>
<g id="a_edge1_Node000001_Node000002"><a xlink:title=" ">
<path fill="none" stroke="#63b8ff" d="M61.92,-85.37C72.33,-72.48 86.78,-54.59 97.74,-41.02"/>
<polygon fill="#63b8ff" stroke="#63b8ff" points="59.02,-83.41 55.46,-93.39 64.46,-87.8 59.02,-83.41"/>
</a>
</g>
</g>
<!-- Node3 -->
<g id="Node000003" class="node">
<title>Node3</title>
<g id="a_Node000003"><a xlink:title=" ">
<polygon fill="white" stroke="#bfbfbf" points="97,-174 0,-174 0,-155 97,-155 97,-174"/>
<text text-anchor="middle" x="48.5" y="-162" font-family="Helvetica,sans-Serif" font-size="10.00">ScriptableObject</text>
</a>
</g>
</g>
<!-- Node3&#45;&gt;Node2 -->
<g id="edge2_Node000002_Node000003" class="edge">
<title>Node3&#45;&gt;Node2</title>
<g id="a_edge2_Node000002_Node000003"><a xlink:title=" ">
<path fill="none" stroke="#63b8ff" d="M48.5,-144.82C48.5,-134 48.5,-120.9 48.5,-112.51"/>
<polygon fill="#63b8ff" stroke="#63b8ff" points="45,-144.98 48.5,-154.98 52,-144.98 45,-144.98"/>
</a>
</g>
</g>
<!-- Node4 -->
<g id="Node000004" class="node">
<title>Node4</title>
<g id="a_Node000004"><a xlink:href="classWolfstagInteractive_1_1ConvoCore_1_1GameObjectReference.html" target="_top" xlink:title=" ">
<polygon fill="white" stroke="#bfbfbf" points="254.5,-118 102.5,-118 102.5,-88 254.5,-88 254.5,-118"/>
<text text-anchor="start" x="110.5" y="-106" font-family="Helvetica,sans-Serif" font-size="10.00">WolfstagInteractive.Convo</text>
<text text-anchor="middle" x="178.5" y="-95" font-family="Helvetica,sans-Serif" font-size="10.00">Core.GameObjectReference</text>
</a>
</g>
</g>
<!-- Node4&#45;&gt;Node1 -->
<g id="edge3_Node000001_Node000004" class="edge">
<title>Node4&#45;&gt;Node1</title>
<g id="a_edge3_Node000001_Node000004"><a xlink:title=" ">
<path fill="none" stroke="#9a32cd" stroke-dasharray="5,2" d="M160.8,-80.08C150.96,-67.9 138.83,-52.87 129.32,-41.09"/>
<polygon fill="#9a32cd" stroke="#9a32cd" points="158.17,-82.4 167.18,-87.98 163.62,-78 158.17,-82.4"/>
</a>
</g>
<text text-anchor="middle" x="198.5" y="-62" font-family="Helvetica,sans-Serif" font-size="10.00" fill="grey"> TargetGameObject</text>
</g>
</g>
</svg>
