<?xml version="1.0" encoding="UTF-8" standalone="no"?>
<!DOCTYPE svg PUBLIC "-//W3C//DTD SVG 1.1//EN"
 "http://www.w3.org/Graphics/SVG/1.1/DTD/svg11.dtd">
<!-- Generated by graphviz version 2.43.0 (0)
 -->
<!-- Title: WolfstagInteractive.ConvoCore.ConvoCoreCharacterDisplayBase Pages: 1 -->
<svg width="276pt" height="170pt"
 viewBox="0.00 0.00 276.00 170.00" xmlns="http://www.w3.org/2000/svg" xmlns:xlink="http://www.w3.org/1999/xlink">
<g id="graph0" class="graph" transform="scale(1 1) rotate(0) translate(4 166)">
<title>WolfstagInteractive.ConvoCore.ConvoCoreCharacterDisplayBase</title>
<!-- Node1 -->
<g id="Node000001" class="node">
<title>Node1</title>
<g id="a_Node000001"><a xlink:title="Generic base class for all prefab&#45;based character displays. Applies scale, flip, and side offsets usi...">
<polygon fill="#999999" stroke="#666666" points="219,-107 16,-107 16,-77 219,-77 219,-107"/>
<text text-anchor="start" x="24" y="-95" font-family="Helvetica,sans-Serif" font-size="10.00">WolfstagInteractive.Convo</text>
<text text-anchor="middle" x="117.5" y="-84" font-family="Helvetica,sans-Serif" font-size="10.00">Core.ConvoCoreCharacterDisplayBase</text>
</a>
</g>
</g>
<!-- Node4 -->
<g id="Node000004" class="node">
<title>Node4</title>
<g id="a_Node000004"><a xlink:href="classWolfstagInteractive_1_1ConvoCore_1_1SimplePrefabRepresentationDisplay.html" target="_top" xlink:title=" ">
<polygon fill="white" stroke="#bfbfbf" points="208.5,-41 26.5,-41 26.5,0 208.5,0 208.5,-41"/>
<text text-anchor="start" x="34.5" y="-29" font-family="Helvetica,sans-Serif" font-size="10.00">WolfstagInteractive.Convo</text>
<text text-anchor="start" x="34.5" y="-18" font-family="Helvetica,sans-Serif" font-size="10.00">Core.SimplePrefabRepresentation</text>
<text text-anchor="middle" x="117.5" y="-7" font-family="Helvetica,sans-Serif" font-size="10.00">Display</text>
</a>
</g>
</g>
<!-- Node1&#45;&gt;Node4 -->
<g id="edge3_Node000001_Node000004" class="edge">
<title>Node1&#45;&gt;Node4</title>
<g id="a_edge3_Node000001_Node000004"><a xlink:title=" ">
<path fill="none" stroke="#63b8ff" d="M117.5,-66.91C117.5,-58.47 117.5,-49.1 117.5,-41.07"/>
<polygon fill="#63b8ff" stroke="#63b8ff" points="114,-66.94 117.5,-76.94 121,-66.94 114,-66.94"/>
</a>
</g>
</g>
<!-- Node2 -->
<g id="Node000002" class="node">
<title>Node2</title>
<g id="a_Node000002"><a xlink:title=" ">
<polygon fill="white" stroke="#bfbfbf" points="93,-162 0,-162 0,-143 93,-143 93,-162"/>
<text text-anchor="middle" x="46.5" y="-150" font-family="Helvetica,sans-Serif" font-size="10.00">MonoBehaviour</text>
</a>
</g>
</g>
<!-- Node2&#45;&gt;Node1 -->
<g id="edge1_Node000001_Node000002" class="edge">
<title>Node2&#45;&gt;Node1</title>
<g id="a_edge1_Node000001_Node000002"><a xlink:title=" ">
<path fill="none" stroke="#63b8ff" d="M64.7,-136.5C75.68,-127.45 89.59,-116 100.37,-107.11"/>
<polygon fill="#63b8ff" stroke="#63b8ff" points="62.47,-133.81 56.98,-142.87 66.92,-139.21 62.47,-133.81"/>
</a>
</g>
</g>
<!-- Node3 -->
<g id="Node000003" class="node">
<title>Node3</title>
<g id="a_Node000003"><a xlink:href="interfaceWolfstagInteractive_1_1ConvoCore_1_1IConvoCoreCharacterDisplay.html" target="_top" xlink:title=" ">
<polygon fill="white" stroke="#bfbfbf" points="268,-162 111,-162 111,-143 268,-143 268,-162"/>
<text text-anchor="middle" x="189.5" y="-150" font-family="Helvetica,sans-Serif" font-size="10.00">IConvoCoreCharacterDisplay</text>
</a>
</g>
</g>
<!-- Node3&#45;&gt;Node1 -->
<g id="edge2_Node000001_Node000003" class="edge">
<title>Node3&#45;&gt;Node1</title>
<g id="a_edge2_Node000001_Node000003"><a xlink:title=" ">
<path fill="none" stroke="#63b8ff" d="M171.04,-136.5C159.9,-127.45 145.81,-116 134.87,-107.11"/>
<polygon fill="#63b8ff" stroke="#63b8ff" points="168.91,-139.28 178.88,-142.87 173.32,-133.85 168.91,-139.28"/>
</a>
</g>
</g>
</g>
</svg>
