<?xml version="1.0" encoding="UTF-8" standalone="no"?>
<!DOCTYPE svg PUBLIC "-//W3C//DTD SVG 1.1//EN"
 "http://www.w3.org/Graphics/SVG/1.1/DTD/svg11.dtd">
<!-- Generated by graphviz version 2.43.0 (0)
 -->
<!-- Title: WolfstagInteractive.ConvoCore.ConvoCoreSampleUI Pages: 1 -->
<svg width="1183pt" height="314pt"
 viewBox="0.00 0.00 1183.00 314.11" xmlns="http://www.w3.org/2000/svg" xmlns:xlink="http://www.w3.org/1999/xlink">
<g id="graph0" class="graph" transform="scale(1 1) rotate(0) translate(4 310.11)">
<title>WolfstagInteractive.ConvoCore.ConvoCoreSampleUI</title>
<!-- Node1 -->
<g id="Node000001" class="node">
<title>Node1</title>
<g id="a_Node000001"><a xlink:title=" ">
<polygon fill="#999999" stroke="#666666" points="1175,-274.39 1029,-274.39 1029,-244.39 1175,-244.39 1175,-274.39"/>
<text text-anchor="start" x="1037" y="-262.39" font-family="Helvetica,sans-Serif" font-size="10.00">WolfstagInteractive.Convo</text>
<text text-anchor="middle" x="1102" y="-251.39" font-family="Helvetica,sans-Serif" font-size="10.00">Core.ConvoCoreSampleUI</text>
</a>
</g>
</g>
<!-- Node2 -->
<g id="Node000002" class="node">
<title>Node2</title>
<g id="a_Node000002"><a xlink:href="classWolfstagInteractive_1_1ConvoCore_1_1ConvoCoreUIFoundation.html" target="_top" xlink:title="Used as a basis of any UI that can be assigned in the inspector that includes all the base functions ...">
<polygon fill="white" stroke="#666666" points="979,-268.89 845,-268.89 845,-249.89 979,-249.89 979,-268.89"/>
<text text-anchor="middle" x="912" y="-256.89" font-family="Helvetica,sans-Serif" font-size="10.00">ConvoCoreUIFoundation</text>
</a>
</g>
</g>
<!-- Node2&#45;&gt;Node1 -->
<g id="edge1_Node000001_Node000002" class="edge">
<title>Node2&#45;&gt;Node1</title>
<g id="a_edge1_Node000001_Node000002"><a xlink:title=" ">
<path fill="none" stroke="#63b8ff" d="M989.33,-259.39C1002.35,-259.39 1015.83,-259.39 1028.74,-259.39"/>
<polygon fill="#63b8ff" stroke="#63b8ff" points="989.02,-255.89 979.02,-259.39 989.02,-262.89 989.02,-255.89"/>
</a>
</g>
</g>
<!-- Node3 -->
<g id="Node000003" class="node">
<title>Node3</title>
<g id="a_Node000003"><a xlink:title=" ">
<polygon fill="white" stroke="#bfbfbf" points="272,-146.89 179,-146.89 179,-127.89 272,-127.89 272,-146.89"/>
<text text-anchor="middle" x="225.5" y="-134.89" font-family="Helvetica,sans-Serif" font-size="10.00">MonoBehaviour</text>
</a>
</g>
</g>
<!-- Node3&#45;&gt;Node2 -->
<g id="edge2_Node000002_Node000003" class="edge">
<title>Node3&#45;&gt;Node2</title>
<g id="a_edge2_Node000002_Node000003"><a xlink:title=" ">
<path fill="none" stroke="#63b8ff" d="M245.52,-153.32C281.51,-182.38 363.24,-243.2 444,-267.39 601.81,-314.65 651.11,-314 814,-289.39 839.62,-285.51 867.8,-276.2 887.15,-268.96"/>
<polygon fill="#63b8ff" stroke="#63b8ff" points="247.72,-150.6 237.77,-146.98 243.29,-156.02 247.72,-150.6"/>
</a>
</g>
</g>
<!-- Node5 -->
<g id="Node000005" class="node">
<title>Node5</title>
<g id="a_Node000005"><a xlink:href="classWolfstagInteractive_1_1ConvoCore_1_1ConvoCore.html" target="_top" xlink:title=" ">
<polygon fill="white" stroke="#bfbfbf" points="617.5,-45.39 471.5,-45.39 471.5,-15.39 617.5,-15.39 617.5,-45.39"/>
<text text-anchor="start" x="479.5" y="-33.39" font-family="Helvetica,sans-Serif" font-size="10.00">WolfstagInteractive.Convo</text>
<text text-anchor="middle" x="544.5" y="-22.39" font-family="Helvetica,sans-Serif" font-size="10.00">Core.ConvoCore</text>
</a>
</g>
</g>
<!-- Node3&#45;&gt;Node5 -->
<g id="edge5_Node000005_Node000003" class="edge">
<title>Node3&#45;&gt;Node5</title>
<g id="a_edge5_Node000005_Node000003"><a xlink:title=" ">
<path fill="none" stroke="#63b8ff" d="M244.49,-121.06C264.87,-103.55 299.84,-76.37 335,-62.39 378.39,-45.13 430.27,-37.12 471.43,-33.44"/>
<polygon fill="#63b8ff" stroke="#63b8ff" points="242.14,-118.46 236.93,-127.69 246.76,-123.73 242.14,-118.46"/>
</a>
</g>
</g>
<!-- Node8 -->
<g id="Node000008" class="node">
<title>Node8</title>
<g id="a_Node000008"><a xlink:href="classWolfstagInteractive_1_1ConvoCore_1_1ConvoCoreUIFoundation.html" target="_top" xlink:title="Used as a basis of any UI that can be assigned in the inspector that includes all the base functions ...">
<polygon fill="white" stroke="#666666" points="992,-105.39 832,-105.39 832,-75.39 992,-75.39 992,-105.39"/>
<text text-anchor="start" x="840" y="-93.39" font-family="Helvetica,sans-Serif" font-size="10.00">WolfstagInteractive.Convo</text>
<text text-anchor="middle" x="912" y="-82.39" font-family="Helvetica,sans-Serif" font-size="10.00">Core.ConvoCoreUIFoundation</text>
</a>
</g>
</g>
<!-- Node3&#45;&gt;Node8 -->
<g id="edge9_Node000008_Node000003" class="edge">
<title>Node3&#45;&gt;Node8</title>
<g id="a_edge9_Node000008_Node000003"><a xlink:title=" ">
<path fill="none" stroke="#63b8ff" d="M282.13,-128.85C326.02,-122.33 388.81,-113.46 444,-107.39 541.08,-96.71 565.42,-93.39 663,-89.39 730.05,-86.63 746.89,-89.04 814,-89.39 819.81,-89.42 825.82,-89.46 831.86,-89.5"/>
<polygon fill="#63b8ff" stroke="#63b8ff" points="281.61,-125.39 272.24,-130.33 282.64,-132.31 281.61,-125.39"/>
</a>
</g>
</g>
<!-- Node9 -->
<g id="Node000009" class="node">
<title>Node9</title>
<g id="a_Node000009"><a xlink:href="classWolfstagInteractive_1_1ConvoCore_1_1ConvoCorePrefabRepresentationSpawner.html" target="_top" xlink:title=" ">
<polygon fill="white" stroke="#bfbfbf" points="645,-157.89 444,-157.89 444,-116.89 645,-116.89 645,-157.89"/>
<text text-anchor="start" x="452" y="-145.89" font-family="Helvetica,sans-Serif" font-size="10.00">WolfstagInteractive.Convo</text>
<text text-anchor="start" x="452" y="-134.89" font-family="Helvetica,sans-Serif" font-size="10.00">Core.ConvoCorePrefabRepresentation</text>
<text text-anchor="middle" x="544.5" y="-123.89" font-family="Helvetica,sans-Serif" font-size="10.00">Spawner</text>
</a>
</g>
</g>
<!-- Node3&#45;&gt;Node9 -->
<g id="edge13_Node000009_Node000003" class="edge">
<title>Node3&#45;&gt;Node9</title>
<g id="a_edge13_Node000009_Node000003"><a xlink:title=" ">
<path fill="none" stroke="#63b8ff" d="M282.31,-137.39C326.89,-137.39 390.5,-137.39 443.79,-137.39"/>
<polygon fill="#63b8ff" stroke="#63b8ff" points="282.26,-133.89 272.26,-137.39 282.26,-140.89 282.26,-133.89"/>
</a>
</g>
</g>
<!-- Node10 -->
<g id="Node000010" class="node">
<title>Node10</title>
<g id="a_Node000010"><a xlink:href="classWolfstagInteractive_1_1ConvoCore_1_1ConvoCoreDialogueHistoryUI.html" target="_top" xlink:title=" ">
<polygon fill="white" stroke="#bfbfbf" points="637,-258.39 452,-258.39 452,-228.39 637,-228.39 637,-258.39"/>
<text text-anchor="start" x="460" y="-246.39" font-family="Helvetica,sans-Serif" font-size="10.00">WolfstagInteractive.Convo</text>
<text text-anchor="middle" x="544.5" y="-235.39" font-family="Helvetica,sans-Serif" font-size="10.00">Core.ConvoCoreDialogueHistoryUI</text>
</a>
</g>
</g>
<!-- Node3&#45;&gt;Node10 -->
<g id="edge15_Node000010_Node000003" class="edge">
<title>Node3&#45;&gt;Node10</title>
<g id="a_edge15_Node000010_Node000003"><a xlink:title=" ">
<path fill="none" stroke="#63b8ff" d="M258.46,-150.86C300.49,-168.25 376.87,-198.72 444,-219.39 454.36,-222.57 465.43,-225.61 476.29,-228.38"/>
<polygon fill="#63b8ff" stroke="#63b8ff" points="259.61,-147.55 249.04,-146.94 256.93,-154.02 259.61,-147.55"/>
</a>
</g>
</g>
<!-- Node4 -->
<g id="Node000004" class="node">
<title>Node4</title>
<g id="a_Node000004"><a xlink:href="interfaceWolfstagInteractive_1_1ConvoCore_1_1IUIFoundation.html" target="_top" xlink:title=" ">
<polygon fill="white" stroke="#bfbfbf" points="586.5,-209.89 502.5,-209.89 502.5,-190.89 586.5,-190.89 586.5,-209.89"/>
<text text-anchor="middle" x="544.5" y="-197.89" font-family="Helvetica,sans-Serif" font-size="10.00">IUIFoundation</text>
</a>
</g>
</g>
<!-- Node4&#45;&gt;Node2 -->
<g id="edge3_Node000002_Node000004" class="edge">
<title>Node4&#45;&gt;Node2</title>
<g id="a_edge3_Node000002_Node000004"><a xlink:title=" ">
<path fill="none" stroke="#63b8ff" d="M596.9,-202.58C613.3,-205.2 630.84,-210.17 645,-219.39 656.78,-227.05 650.74,-238.51 663,-245.39 693.05,-262.23 782.17,-263.5 844.93,-262.08"/>
<polygon fill="#63b8ff" stroke="#63b8ff" points="597.26,-199.09 586.89,-201.23 596.33,-206.03 597.26,-199.09"/>
</a>
</g>
</g>
<!-- Node4&#45;&gt;Node8 -->
<g id="edge10_Node000008_Node000004" class="edge">
<title>Node4&#45;&gt;Node8</title>
<g id="a_edge10_Node000008_Node000004"><a xlink:title=" ">
<path fill="none" stroke="#63b8ff" d="M596.72,-208.17C652.66,-214.35 743.66,-217.47 814,-186.39 853.44,-168.95 885.83,-127.79 901.26,-105.44"/>
<polygon fill="#63b8ff" stroke="#63b8ff" points="597.03,-204.68 586.69,-206.99 596.21,-211.63 597.03,-204.68"/>
</a>
</g>
</g>
<!-- Node5&#45;&gt;Node2 -->
<g id="edge4_Node000002_Node000005" class="edge">
<title>Node5&#45;&gt;Node2</title>
<g id="a_edge4_Node000002_Node000005"><a xlink:title=" ">
<path fill="none" stroke="#9a32cd" stroke-dasharray="5,2" d="M572.58,-51.77C604.05,-76.44 652.97,-114.18 663,-118.39 725.61,-144.63 754.99,-107.83 814,-141.39 860.8,-167.99 894.37,-226.6 906.27,-249.73"/>
<polygon fill="#9a32cd" stroke="#9a32cd" points="574.63,-48.92 564.6,-45.5 570.3,-54.43 574.63,-48.92"/>
</a>
</g>
<text text-anchor="middle" x="738.5" y="-144.39" font-family="Helvetica,sans-Serif" font-size="10.00" fill="grey"> ConvoCoreInstance</text>
</g>
<!-- Node5&#45;&gt;Node8 -->
<g id="edge11_Node000008_Node000005" class="edge">
<title>Node5&#45;&gt;Node8</title>
<g id="a_edge11_Node000008_Node000005"><a xlink:title=" ">
<path fill="none" stroke="#9a32cd" stroke-dasharray="5,2" d="M627.89,-28.69C681.59,-29.35 752.79,-33.55 814,-48.39 838.26,-54.26 864.12,-65.75 883.03,-75.23"/>
<polygon fill="#9a32cd" stroke="#9a32cd" points="627.76,-25.19 617.74,-28.61 627.71,-32.19 627.76,-25.19"/>
</a>
</g>
<text text-anchor="middle" x="738.5" y="-51.39" font-family="Helvetica,sans-Serif" font-size="10.00" fill="grey"> ConvoCoreInstance</text>
</g>
<!-- Node6 -->
<g id="Node000006" class="node">
<title>Node6</title>
<g id="a_Node000006"><a xlink:href="classWolfstagInteractive_1_1ConvoCore_1_1ConvoCoreConversationData.html" target="_top" xlink:title=" ">
<polygon fill="white" stroke="#bfbfbf" points="317,-37.39 134,-37.39 134,-7.39 317,-7.39 317,-37.39"/>
<text text-anchor="start" x="142" y="-25.39" font-family="Helvetica,sans-Serif" font-size="10.00">WolfstagInteractive.Convo</text>
<text text-anchor="middle" x="225.5" y="-14.39" font-family="Helvetica,sans-Serif" font-size="10.00">Core.ConvoCoreConversationData</text>
</a>
</g>
</g>
<!-- Node6&#45;&gt;Node5 -->
<g id="edge6_Node000005_Node000006" class="edge">
<title>Node6&#45;&gt;Node5</title>
<g id="a_edge6_Node000005_Node000006"><a xlink:title=" ">
<path fill="none" stroke="#9a32cd" stroke-dasharray="5,2" d="M327.51,-21.82C359.06,-21.94 393.98,-22.35 426,-23.39 440.71,-23.86 456.43,-24.62 471.45,-25.47"/>
<polygon fill="#9a32cd" stroke="#9a32cd" points="327.4,-18.32 317.39,-21.8 327.38,-25.32 327.4,-18.32"/>
</a>
</g>
<text text-anchor="middle" x="380.5" y="-26.39" font-family="Helvetica,sans-Serif" font-size="10.00" fill="grey"> ConversationData</text>
</g>
<!-- Node7 -->
<g id="Node000007" class="node">
<title>Node7</title>
<g id="a_Node000007"><a xlink:title=" ">
<polygon fill="white" stroke="#bfbfbf" points="97,-31.89 0,-31.89 0,-12.89 97,-12.89 97,-31.89"/>
<text text-anchor="middle" x="48.5" y="-19.89" font-family="Helvetica,sans-Serif" font-size="10.00">ScriptableObject</text>
</a>
</g>
</g>
<!-- Node7&#45;&gt;Node6 -->
<g id="edge7_Node000006_Node000007" class="edge">
<title>Node7&#45;&gt;Node6</title>
<g id="a_edge7_Node000006_Node000007"><a xlink:title=" ">
<path fill="none" stroke="#63b8ff" d="M107.41,-22.39C115.87,-22.39 124.74,-22.39 133.67,-22.39"/>
<polygon fill="#63b8ff" stroke="#63b8ff" points="107.32,-18.89 97.32,-22.39 107.32,-25.89 107.32,-18.89"/>
</a>
</g>
</g>
<!-- Node8&#45;&gt;Node5 -->
<g id="edge8_Node000005_Node000008" class="edge">
<title>Node8&#45;&gt;Node5</title>
<g id="a_edge8_Node000005_Node000008"><a xlink:title=" ">
<path fill="none" stroke="#9a32cd" stroke-dasharray="5,2" d="M890.66,-67.65C872.61,-49.31 844.44,-24.89 814,-14.39 742.82,10.18 654.78,-2.55 599.36,-15.34"/>
<polygon fill="#9a32cd" stroke="#9a32cd" points="888.32,-70.27 897.76,-75.08 893.38,-65.43 888.32,-70.27"/>
</a>
</g>
<text text-anchor="middle" x="738.5" y="-17.39" font-family="Helvetica,sans-Serif" font-size="10.00" fill="grey"> ConversationUI</text>
</g>
<!-- Node9&#45;&gt;Node2 -->
<g id="edge16_Node000002_Node000009" class="edge">
<title>Node9&#45;&gt;Node2</title>
<g id="a_edge16_Node000002_Node000009"><a xlink:title=" ">
<path fill="none" stroke="#9a32cd" stroke-dasharray="5,2" d="M654.88,-154.91C704.57,-164.92 763.42,-179.69 814,-200.39 846.29,-213.6 880.3,-236.75 898.21,-249.77"/>
<polygon fill="#9a32cd" stroke="#9a32cd" points="655.55,-151.48 645.06,-152.97 654.2,-158.35 655.55,-151.48"/>
</a>
</g>
<text text-anchor="middle" x="738.5" y="-203.39" font-family="Helvetica,sans-Serif" font-size="10.00" fill="grey"> PrefabRepresentationSpawner</text>
</g>
<!-- Node9&#45;&gt;Node8 -->
<g id="edge12_Node000008_Node000009" class="edge">
<title>Node9&#45;&gt;Node8</title>
<g id="a_edge12_Node000008_Node000009"><a xlink:title=" ">
<path fill="none" stroke="#9a32cd" stroke-dasharray="5,2" d="M627.37,-114.47C639.25,-111.73 651.39,-109.25 663,-107.39 719.03,-98.39 782.94,-94.15 831.84,-92.15"/>
<polygon fill="#9a32cd" stroke="#9a32cd" points="626.38,-111.1 617.46,-116.82 628,-117.91 626.38,-111.1"/>
</a>
</g>
<text text-anchor="middle" x="738.5" y="-110.39" font-family="Helvetica,sans-Serif" font-size="10.00" fill="grey"> PrefabRepresentationSpawner</text>
</g>
<!-- Node10&#45;&gt;Node2 -->
<g id="edge17_Node000002_Node000010" class="edge">
<title>Node10&#45;&gt;Node2</title>
<g id="a_edge17_Node000002_Node000010"><a xlink:title=" ">
<path fill="none" stroke="#9a32cd" stroke-dasharray="5,2" d="M609.17,-260.77C626.5,-264.74 645.35,-268.38 663,-270.39 729.68,-277.95 747,-274.17 814,-270.39 823.98,-269.82 834.52,-268.93 844.82,-267.9"/>
<polygon fill="#9a32cd" stroke="#9a32cd" points="609.71,-257.3 599.17,-258.4 608.09,-264.11 609.71,-257.3"/>
</a>
</g>
<text text-anchor="middle" x="738.5" y="-277.39" font-family="Helvetica,sans-Serif" font-size="10.00" fill="grey"> ConvoCoreDialogueHistoryUI</text>
</g>
<!-- Node10&#45;&gt;Node8 -->
<g id="edge14_Node000008_Node000010" class="edge">
<title>Node10&#45;&gt;Node8</title>
<g id="a_edge14_Node000008_Node000010"><a xlink:title=" ">
<path fill="none" stroke="#9a32cd" stroke-dasharray="5,2" d="M647.25,-249.13C699.98,-247.84 763.68,-239.32 814,-211.39 858.72,-186.55 890.49,-131.93 903.9,-105.42"/>
<polygon fill="#9a32cd" stroke="#9a32cd" points="647.14,-245.63 637.2,-249.29 647.26,-252.63 647.14,-245.63"/>
</a>
</g>
<text text-anchor="middle" x="738.5" y="-250.39" font-family="Helvetica,sans-Serif" font-size="10.00" fill="grey"> ConvoCoreDialogueHistoryUI</text>
</g>
</g>
</svg>
