<?xml version="1.0" encoding="UTF-8" standalone="no"?>
<!DOCTYPE svg PUBLIC "-//W3C//DTD SVG 1.1//EN"
 "http://www.w3.org/Graphics/SVG/1.1/DTD/svg11.dtd">
<!-- Generated by graphviz version 2.43.0 (0)
 -->
<!-- Title: WolfstagInteractive.ConvoCore.ConvoCoreUIFoundation Pages: 1 -->
<svg width="1000pt" height="286pt"
 viewBox="0.00 0.00 1000.00 285.79" xmlns="http://www.w3.org/2000/svg" xmlns:xlink="http://www.w3.org/1999/xlink">
<g id="graph0" class="graph" transform="scale(1 1) rotate(0) translate(4 281.79)">
<title>WolfstagInteractive.ConvoCore.ConvoCoreUIFoundation</title>
<!-- Node1 -->
<g id="Node000001" class="node">
<title>Node1</title>
<g id="a_Node000001"><a xlink:title="Used as a basis of any UI that can be assigned in the inspector that includes all the base functions ...">
<polygon fill="#999999" stroke="#666666" points="992,-241 832,-241 832,-211 992,-211 992,-241"/>
<text text-anchor="start" x="840" y="-229" font-family="Helvetica,sans-Serif" font-size="10.00">WolfstagInteractive.Convo</text>
<text text-anchor="middle" x="912" y="-218" font-family="Helvetica,sans-Serif" font-size="10.00">Core.ConvoCoreUIFoundation</text>
</a>
</g>
</g>
<!-- Node2 -->
<g id="Node000002" class="node">
<title>Node2</title>
<g id="a_Node000002"><a xlink:title=" ">
<polygon fill="white" stroke="#bfbfbf" points="272,-171.5 179,-171.5 179,-152.5 272,-152.5 272,-171.5"/>
<text text-anchor="middle" x="225.5" y="-159.5" font-family="Helvetica,sans-Serif" font-size="10.00">MonoBehaviour</text>
</a>
</g>
</g>
<!-- Node2&#45;&gt;Node1 -->
<g id="edge1_Node000001_Node000002" class="edge">
<title>Node2&#45;&gt;Node1</title>
<g id="a_edge1_Node000001_Node000002"><a xlink:title=" ">
<path fill="none" stroke="#63b8ff" d="M251.49,-176.85C290.82,-199.27 370.28,-240.75 444,-256 605.04,-289.31 651.36,-279.28 814,-255 832.77,-252.2 852.97,-246.6 870.05,-241.06"/>
<polygon fill="#63b8ff" stroke="#63b8ff" points="252.8,-173.57 242.39,-171.59 249.29,-179.63 252.8,-173.57"/>
</a>
</g>
</g>
<!-- Node4 -->
<g id="Node000004" class="node">
<title>Node4</title>
<g id="a_Node000004"><a xlink:href="classWolfstagInteractive_1_1ConvoCore_1_1ConvoCore.html" target="_top" xlink:title=" ">
<polygon fill="white" stroke="#bfbfbf" points="617.5,-123 471.5,-123 471.5,-93 617.5,-93 617.5,-123"/>
<text text-anchor="start" x="479.5" y="-111" font-family="Helvetica,sans-Serif" font-size="10.00">WolfstagInteractive.Convo</text>
<text text-anchor="middle" x="544.5" y="-100" font-family="Helvetica,sans-Serif" font-size="10.00">Core.ConvoCore</text>
</a>
</g>
</g>
<!-- Node2&#45;&gt;Node4 -->
<g id="edge4_Node000004_Node000002" class="edge">
<title>Node2&#45;&gt;Node4</title>
<g id="a_edge4_Node000004_Node000002"><a xlink:title=" ">
<path fill="none" stroke="#63b8ff" d="M282.41,-152.48C335.01,-143.51 414.05,-130.05 471.38,-120.29"/>
<polygon fill="#63b8ff" stroke="#63b8ff" points="281.53,-149.08 272.26,-154.21 282.7,-155.98 281.53,-149.08"/>
</a>
</g>
</g>
<!-- Node7 -->
<g id="Node000007" class="node">
<title>Node7</title>
<g id="a_Node000007"><a xlink:href="classWolfstagInteractive_1_1ConvoCore_1_1ConvoCoreUIFoundation.html" target="_top" xlink:title="Used as a basis of any UI that can be assigned in the inspector that includes all the base functions ...">
<polygon fill="white" stroke="#666666" points="992,-123 832,-123 832,-93 992,-93 992,-123"/>
<text text-anchor="start" x="840" y="-111" font-family="Helvetica,sans-Serif" font-size="10.00">WolfstagInteractive.Convo</text>
<text text-anchor="middle" x="912" y="-100" font-family="Helvetica,sans-Serif" font-size="10.00">Core.ConvoCoreUIFoundation</text>
</a>
</g>
</g>
<!-- Node2&#45;&gt;Node7 -->
<g id="edge8_Node000007_Node000002" class="edge">
<title>Node2&#45;&gt;Node7</title>
<g id="a_edge8_Node000007_Node000002"><a xlink:title=" ">
<path fill="none" stroke="#63b8ff" d="M255.03,-148.16C295.79,-129.24 373.57,-96.25 444,-84 606.02,-55.83 650.69,-66.73 814,-86 827.03,-87.54 840.88,-90.1 853.9,-92.95"/>
<polygon fill="#63b8ff" stroke="#63b8ff" points="253.53,-145 245.96,-152.43 256.5,-151.34 253.53,-145"/>
</a>
</g>
</g>
<!-- Node8 -->
<g id="Node000008" class="node">
<title>Node8</title>
<g id="a_Node000008"><a xlink:href="classWolfstagInteractive_1_1ConvoCore_1_1ConvoCorePrefabRepresentationSpawner.html" target="_top" xlink:title=" ">
<polygon fill="white" stroke="#bfbfbf" points="645,-246.5 444,-246.5 444,-205.5 645,-205.5 645,-246.5"/>
<text text-anchor="start" x="452" y="-234.5" font-family="Helvetica,sans-Serif" font-size="10.00">WolfstagInteractive.Convo</text>
<text text-anchor="start" x="452" y="-223.5" font-family="Helvetica,sans-Serif" font-size="10.00">Core.ConvoCorePrefabRepresentation</text>
<text text-anchor="middle" x="544.5" y="-212.5" font-family="Helvetica,sans-Serif" font-size="10.00">Spawner</text>
</a>
</g>
</g>
<!-- Node2&#45;&gt;Node8 -->
<g id="edge12_Node000008_Node000002" class="edge">
<title>Node2&#45;&gt;Node8</title>
<g id="a_edge12_Node000008_Node000002"><a xlink:title=" ">
<path fill="none" stroke="#63b8ff" d="M282.31,-173.27C326.89,-182.27 390.5,-195.11 443.79,-205.87"/>
<polygon fill="#63b8ff" stroke="#63b8ff" points="282.75,-169.79 272.26,-171.24 281.37,-176.65 282.75,-169.79"/>
</a>
</g>
</g>
<!-- Node3 -->
<g id="Node000003" class="node">
<title>Node3</title>
<g id="a_Node000003"><a xlink:href="interfaceWolfstagInteractive_1_1ConvoCore_1_1IUIFoundation.html" target="_top" xlink:title=" ">
<polygon fill="white" stroke="#bfbfbf" points="586.5,-173.5 502.5,-173.5 502.5,-154.5 586.5,-154.5 586.5,-173.5"/>
<text text-anchor="middle" x="544.5" y="-161.5" font-family="Helvetica,sans-Serif" font-size="10.00">IUIFoundation</text>
</a>
</g>
</g>
<!-- Node3&#45;&gt;Node1 -->
<g id="edge2_Node000001_Node000003" class="edge">
<title>Node3&#45;&gt;Node1</title>
<g id="a_edge2_Node000001_Node000003"><a xlink:title=" ">
<path fill="none" stroke="#63b8ff" d="M596.54,-171.64C650.62,-179.85 738.46,-193.56 814,-207 821.01,-208.25 828.3,-209.59 835.59,-210.96"/>
<polygon fill="#63b8ff" stroke="#63b8ff" points="596.93,-168.15 586.51,-170.12 595.88,-175.08 596.93,-168.15"/>
</a>
</g>
</g>
<!-- Node3&#45;&gt;Node7 -->
<g id="edge9_Node000007_Node000003" class="edge">
<title>Node3&#45;&gt;Node7</title>
<g id="a_edge9_Node000007_Node000003"><a xlink:title=" ">
<path fill="none" stroke="#63b8ff" d="M596.89,-156.13C657.97,-146.77 760.58,-131.05 831.82,-120.13"/>
<polygon fill="#63b8ff" stroke="#63b8ff" points="596.07,-152.71 586.72,-157.68 597.13,-159.63 596.07,-152.71"/>
</a>
</g>
</g>
<!-- Node4&#45;&gt;Node1 -->
<g id="edge3_Node000001_Node000004" class="edge">
<title>Node4&#45;&gt;Node1</title>
<g id="a_edge3_Node000001_Node000004"><a xlink:title=" ">
<path fill="none" stroke="#9a32cd" stroke-dasharray="5,2" d="M627.43,-118.81C681.71,-127.69 753.74,-142.84 814,-167 842.17,-178.3 871.55,-197.35 890.49,-210.75"/>
<polygon fill="#9a32cd" stroke="#9a32cd" points="627.93,-115.34 617.51,-117.22 626.83,-122.25 627.93,-115.34"/>
</a>
</g>
<text text-anchor="middle" x="738.5" y="-170" font-family="Helvetica,sans-Serif" font-size="10.00" fill="grey"> ConvoCoreInstance</text>
</g>
<!-- Node4&#45;&gt;Node7 -->
<g id="edge10_Node000007_Node000004" class="edge">
<title>Node4&#45;&gt;Node7</title>
<g id="a_edge10_Node000007_Node000004"><a xlink:title=" ">
<path fill="none" stroke="#9a32cd" stroke-dasharray="5,2" d="M627.99,-96.13C639.72,-94.83 651.65,-93.72 663,-93 729.98,-88.74 747.09,-87.86 814,-93 819.86,-93.45 825.91,-94.05 831.97,-94.76"/>
<polygon fill="#9a32cd" stroke="#9a32cd" points="627.29,-92.69 617.76,-97.31 628.09,-99.64 627.29,-92.69"/>
</a>
</g>
<text text-anchor="middle" x="738.5" y="-96" font-family="Helvetica,sans-Serif" font-size="10.00" fill="grey"> ConvoCoreInstance</text>
</g>
<!-- Node5 -->
<g id="Node000005" class="node">
<title>Node5</title>
<g id="a_Node000005"><a xlink:href="classWolfstagInteractive_1_1ConvoCore_1_1ConvoCoreConversationData.html" target="_top" xlink:title=" ">
<polygon fill="white" stroke="#bfbfbf" points="317,-30 134,-30 134,0 317,0 317,-30"/>
<text text-anchor="start" x="142" y="-18" font-family="Helvetica,sans-Serif" font-size="10.00">WolfstagInteractive.Convo</text>
<text text-anchor="middle" x="225.5" y="-7" font-family="Helvetica,sans-Serif" font-size="10.00">Core.ConvoCoreConversationData</text>
</a>
</g>
</g>
<!-- Node5&#45;&gt;Node4 -->
<g id="edge5_Node000004_Node000005" class="edge">
<title>Node5&#45;&gt;Node4</title>
<g id="a_edge5_Node000004_Node000005"><a xlink:title=" ">
<path fill="none" stroke="#9a32cd" stroke-dasharray="5,2" d="M287.43,-32.87C346.9,-50.32 436.38,-76.57 492.29,-92.98"/>
<polygon fill="#9a32cd" stroke="#9a32cd" points="288.36,-29.5 277.78,-30.05 286.39,-36.22 288.36,-29.5"/>
</a>
</g>
<text text-anchor="middle" x="380.5" y="-76" font-family="Helvetica,sans-Serif" font-size="10.00" fill="grey"> ConversationData</text>
</g>
<!-- Node6 -->
<g id="Node000006" class="node">
<title>Node6</title>
<g id="a_Node000006"><a xlink:title=" ">
<polygon fill="white" stroke="#bfbfbf" points="97,-24.5 0,-24.5 0,-5.5 97,-5.5 97,-24.5"/>
<text text-anchor="middle" x="48.5" y="-12.5" font-family="Helvetica,sans-Serif" font-size="10.00">ScriptableObject</text>
</a>
</g>
</g>
<!-- Node6&#45;&gt;Node5 -->
<g id="edge6_Node000005_Node000006" class="edge">
<title>Node6&#45;&gt;Node5</title>
<g id="a_edge6_Node000005_Node000006"><a xlink:title=" ">
<path fill="none" stroke="#63b8ff" d="M107.41,-15C115.87,-15 124.74,-15 133.67,-15"/>
<polygon fill="#63b8ff" stroke="#63b8ff" points="107.32,-11.5 97.32,-15 107.32,-18.5 107.32,-11.5"/>
</a>
</g>
</g>
<!-- Node7&#45;&gt;Node4 -->
<g id="edge7_Node000004_Node000007" class="edge">
<title>Node7&#45;&gt;Node4</title>
<g id="a_edge7_Node000004_Node000007"><a xlink:title=" ">
<path fill="none" stroke="#9a32cd" stroke-dasharray="5,2" d="M821.69,-108C759,-108 676.24,-108 617.71,-108"/>
<polygon fill="#9a32cd" stroke="#9a32cd" points="821.97,-111.5 831.97,-108 821.97,-104.5 821.97,-111.5"/>
</a>
</g>
<text text-anchor="middle" x="738.5" y="-111" font-family="Helvetica,sans-Serif" font-size="10.00" fill="grey"> ConversationUI</text>
</g>
<!-- Node8&#45;&gt;Node1 -->
<g id="edge13_Node000001_Node000008" class="edge">
<title>Node8&#45;&gt;Node1</title>
<g id="a_edge13_Node000001_Node000008"><a xlink:title=" ">
<path fill="none" stroke="#9a32cd" stroke-dasharray="5,2" d="M655.26,-237.56C657.86,-237.72 660.45,-237.87 663,-238 730.02,-241.41 747.02,-242.13 814,-238 819.84,-237.64 825.87,-237.16 831.93,-236.6"/>
<polygon fill="#9a32cd" stroke="#9a32cd" points="655.34,-234.06 645.13,-236.88 654.87,-241.05 655.34,-234.06"/>
</a>
</g>
<text text-anchor="middle" x="738.5" y="-243" font-family="Helvetica,sans-Serif" font-size="10.00" fill="grey"> PrefabRepresentationSpawner</text>
</g>
<!-- Node8&#45;&gt;Node7 -->
<g id="edge11_Node000007_Node000008" class="edge">
<title>Node8&#45;&gt;Node7</title>
<g id="a_edge11_Node000007_Node000008"><a xlink:title=" ">
<path fill="none" stroke="#9a32cd" stroke-dasharray="5,2" d="M655.25,-220.17C705.28,-214.49 764.29,-203.43 814,-182 846.68,-167.91 878.24,-140.45 896.08,-123.23"/>
<polygon fill="#9a32cd" stroke="#9a32cd" points="654.61,-216.72 645.05,-221.27 655.36,-223.68 654.61,-216.72"/>
</a>
</g>
<text text-anchor="middle" x="738.5" y="-222" font-family="Helvetica,sans-Serif" font-size="10.00" fill="grey"> PrefabRepresentationSpawner</text>
</g>
</g>
</svg>
