<?xml version="1.0" encoding="UTF-8" standalone="no"?>
<!DOCTYPE svg PUBLIC "-//W3C//DTD SVG 1.1//EN"
 "http://www.w3.org/Graphics/SVG/1.1/DTD/svg11.dtd">
<!-- Generated by graphviz version 2.43.0 (0)
 -->
<!-- Title: WolfstagInteractive.ConvoCore.ConvoCoreAction_InstantiatePrefab Pages: 1 -->
<svg width="192pt" height="159pt"
 viewBox="0.00 0.00 192.00 159.00" xmlns="http://www.w3.org/2000/svg" xmlns:xlink="http://www.w3.org/1999/xlink">
<g id="graph0" class="graph" transform="scale(1 1) rotate(0) translate(4 155)">
<title>WolfstagInteractive.ConvoCore.ConvoCoreAction_InstantiatePrefab</title>
<!-- Node1 -->
<g id="Node000001" class="node">
<title>Node1</title>
<g id="a_Node000001"><a xlink:title=" ">
<polygon fill="#999999" stroke="#666666" points="184,-41 0,-41 0,0 184,0 184,-41"/>
<text text-anchor="start" x="8" y="-29" font-family="Helvetica,sans-Serif" font-size="10.00">WolfstagInteractive.Convo</text>
<text text-anchor="start" x="8" y="-18" font-family="Helvetica,sans-Serif" font-size="10.00">Core.ConvoCoreAction_Instantiate</text>
<text text-anchor="middle" x="92" y="-7" font-family="Helvetica,sans-Serif" font-size="10.00">Prefab</text>
</a>
</g>
</g>
<!-- Node2 -->
<g id="Node000002" class="node">
<title>Node2</title>
<g id="a_Node000002"><a xlink:href="classWolfstagInteractive_1_1ConvoCore_1_1BaseAction.html" target="_top" xlink:title=" ">
<polygon fill="white" stroke="#bfbfbf" points="127.5,-96 56.5,-96 56.5,-77 127.5,-77 127.5,-96"/>
<text text-anchor="middle" x="92" y="-84" font-family="Helvetica,sans-Serif" font-size="10.00">BaseAction</text>
</a>
</g>
</g>
<!-- Node2&#45;&gt;Node1 -->
<g id="edge1_Node000001_Node000002" class="edge">
<title>Node2&#45;&gt;Node1</title>
<g id="a_edge1_Node000001_Node000002"><a xlink:title=" ">
<path fill="none" stroke="#63b8ff" d="M92,-66.63C92,-58.56 92,-49.15 92,-41.01"/>
<polygon fill="#63b8ff" stroke="#63b8ff" points="88.5,-66.87 92,-76.87 95.5,-66.87 88.5,-66.87"/>
</a>
</g>
</g>
<!-- Node3 -->
<g id="Node000003" class="node">
<title>Node3</title>
<g id="a_Node000003"><a xlink:title=" ">
<polygon fill="white" stroke="#bfbfbf" points="140.5,-151 43.5,-151 43.5,-132 140.5,-132 140.5,-151"/>
<text text-anchor="middle" x="92" y="-139" font-family="Helvetica,sans-Serif" font-size="10.00">ScriptableObject</text>
</a>
</g>
</g>
<!-- Node3&#45;&gt;Node2 -->
<g id="edge2_Node000002_Node000003" class="edge">
<title>Node3&#45;&gt;Node2</title>
<g id="a_edge2_Node000002_Node000003"><a xlink:title=" ">
<path fill="none" stroke="#63b8ff" d="M92,-121.66C92,-112.93 92,-102.99 92,-96.09"/>
<polygon fill="#63b8ff" stroke="#63b8ff" points="88.5,-121.75 92,-131.75 95.5,-121.75 88.5,-121.75"/>
</a>
</g>
</g>
</g>
</svg>
