<?xml version="1.0" encoding="UTF-8" standalone="no"?>
<!DOCTYPE svg PUBLIC "-//W3C//DTD SVG 1.1//EN"
 "http://www.w3.org/Graphics/SVG/1.1/DTD/svg11.dtd">
<!-- Generated by graphviz version 2.43.0 (0)
 -->
<!-- Title: WolfstagInteractive.ConvoCore.BranchEntry Pages: 1 -->
<svg width="983pt" height="101pt"
 viewBox="0.00 0.00 983.00 101.25" xmlns="http://www.w3.org/2000/svg" xmlns:xlink="http://www.w3.org/1999/xlink">
<g id="graph0" class="graph" transform="scale(1 1) rotate(0) translate(4 97.25)">
<title>WolfstagInteractive.ConvoCore.BranchEntry</title>
<!-- Node1 -->
<g id="Node000001" class="node">
<title>Node1</title>
<g id="a_Node000001"><a xlink:title=" ">
<polygon fill="#999999" stroke="#666666" points="975,-49 829,-49 829,-19 975,-19 975,-49"/>
<text text-anchor="start" x="837" y="-37" font-family="Helvetica,sans-Serif" font-size="10.00">WolfstagInteractive.Convo</text>
<text text-anchor="middle" x="902" y="-26" font-family="Helvetica,sans-Serif" font-size="10.00">Core.BranchEntry</text>
</a>
</g>
</g>
<!-- Node2 -->
<g id="Node000002" class="node">
<title>Node2</title>
<g id="a_Node000002"><a xlink:href="classWolfstagInteractive_1_1ConvoCore_1_1ConvoCoreConversationData.html" target="_top" xlink:title=" ">
<polygon fill="white" stroke="#bfbfbf" points="695,-74 512,-74 512,-44 695,-44 695,-74"/>
<text text-anchor="start" x="520" y="-62" font-family="Helvetica,sans-Serif" font-size="10.00">WolfstagInteractive.Convo</text>
<text text-anchor="middle" x="603.5" y="-51" font-family="Helvetica,sans-Serif" font-size="10.00">Core.ConvoCoreConversationData</text>
</a>
</g>
</g>
<!-- Node2&#45;&gt;Node1 -->
<g id="edge1_Node000001_Node000002" class="edge">
<title>Node2&#45;&gt;Node1</title>
<g id="a_edge1_Node000001_Node000002"><a xlink:title=" ">
<path fill="none" stroke="#9a32cd" stroke-dasharray="5,2" d="M705.26,-50.5C745.82,-47.08 791.69,-43.22 828.82,-40.09"/>
<polygon fill="#9a32cd" stroke="#9a32cd" points="704.74,-47.04 695.07,-51.36 705.33,-54.01 704.74,-47.04"/>
</a>
</g>
<text text-anchor="middle" x="762" y="-52" font-family="Helvetica,sans-Serif" font-size="10.00" fill="grey"> TargetConversation</text>
</g>
<!-- Node3 -->
<g id="Node000003" class="node">
<title>Node3</title>
<g id="a_Node000003"><a xlink:title=" ">
<polygon fill="white" stroke="#bfbfbf" points="97,-67.5 0,-67.5 0,-48.5 97,-48.5 97,-67.5"/>
<text text-anchor="middle" x="48.5" y="-55.5" font-family="Helvetica,sans-Serif" font-size="10.00">ScriptableObject</text>
</a>
</g>
</g>
<!-- Node3&#45;&gt;Node2 -->
<g id="edge2_Node000002_Node000003" class="edge">
<title>Node3&#45;&gt;Node2</title>
<g id="a_edge2_Node000002_Node000003"><a xlink:title=" ">
<path fill="none" stroke="#63b8ff" d="M85.86,-70.71C100.61,-75.24 117.92,-79.76 134,-82 292.52,-104.08 334.6,-87.43 494,-73 499.86,-72.47 505.9,-71.86 511.98,-71.2"/>
<polygon fill="#63b8ff" stroke="#63b8ff" points="86.7,-67.31 76.11,-67.61 84.58,-73.98 86.7,-67.31"/>
</a>
</g>
</g>
<!-- Node4 -->
<g id="Node000004" class="node">
<title>Node4</title>
<g id="a_Node000004"><a xlink:href="classWolfstagInteractive_1_1ConvoCore_1_1ConversationBranchContainer.html" target="_top" xlink:title=" ">
<polygon fill="white" stroke="#bfbfbf" points="322,-73 134,-73 134,-43 322,-43 322,-73"/>
<text text-anchor="start" x="142" y="-61" font-family="Helvetica,sans-Serif" font-size="10.00">WolfstagInteractive.Convo</text>
<text text-anchor="middle" x="228" y="-50" font-family="Helvetica,sans-Serif" font-size="10.00">Core.ConversationBranchContainer</text>
</a>
</g>
</g>
<!-- Node3&#45;&gt;Node4 -->
<g id="edge4_Node000004_Node000003" class="edge">
<title>Node3&#45;&gt;Node4</title>
<g id="a_edge4_Node000004_Node000003"><a xlink:title=" ">
<path fill="none" stroke="#63b8ff" d="M107.22,-58C115.74,-58 124.7,-58 133.72,-58"/>
<polygon fill="#63b8ff" stroke="#63b8ff" points="107.07,-54.5 97.07,-58 107.07,-61.5 107.07,-54.5"/>
</a>
</g>
</g>
<!-- Node5 -->
<g id="Node000005" class="node">
<title>Node5</title>
<g id="a_Node000005"><a xlink:href="classWolfstagInteractive_1_1ConvoCore_1_1ConversationContainer.html" target="_top" xlink:title=" ">
<polygon fill="white" stroke="#bfbfbf" points="494,-30 340,-30 340,0 494,0 494,-30"/>
<text text-anchor="start" x="348" y="-18" font-family="Helvetica,sans-Serif" font-size="10.00">WolfstagInteractive.Convo</text>
<text text-anchor="middle" x="417" y="-7" font-family="Helvetica,sans-Serif" font-size="10.00">Core.ConversationContainer</text>
</a>
</g>
</g>
<!-- Node3&#45;&gt;Node5 -->
<g id="edge6_Node000005_Node000003" class="edge">
<title>Node3&#45;&gt;Node5</title>
<g id="a_edge6_Node000005_Node000003"><a xlink:title=" ">
<path fill="none" stroke="#63b8ff" d="M87.31,-45.43C101.76,-41.11 118.5,-36.69 134,-34 203.01,-22.01 282.74,-17.48 339.78,-15.83"/>
<polygon fill="#63b8ff" stroke="#63b8ff" points="86.24,-42.1 77.71,-48.38 88.3,-48.79 86.24,-42.1"/>
</a>
</g>
</g>
<!-- Node4&#45;&gt;Node2 -->
<g id="edge3_Node000002_Node000004" class="edge">
<title>Node4&#45;&gt;Node2</title>
<g id="a_edge3_Node000002_Node000004"><a xlink:title=" ">
<path fill="none" stroke="#9a32cd" stroke-dasharray="5,2" d="M332.63,-58.28C388.82,-58.43 457.62,-58.61 511.69,-58.76"/>
<polygon fill="#9a32cd" stroke="#9a32cd" points="332.3,-54.78 322.29,-58.25 332.28,-61.78 332.3,-54.78"/>
</a>
</g>
<text text-anchor="middle" x="417" y="-61" font-family="Helvetica,sans-Serif" font-size="10.00" fill="grey"> BranchContainer</text>
</g>
<!-- Node5&#45;&gt;Node1 -->
<g id="edge5_Node000001_Node000005" class="edge">
<title>Node5&#45;&gt;Node1</title>
<g id="a_edge5_Node000001_Node000005"><a xlink:title=" ">
<path fill="none" stroke="#9a32cd" stroke-dasharray="5,2" d="M504.14,-17.44C558.82,-19.08 631.07,-21.41 695,-24 739.36,-25.8 789.08,-28.2 828.56,-30.2"/>
<polygon fill="#9a32cd" stroke="#9a32cd" points="504.24,-13.94 494.14,-17.15 504.03,-20.94 504.24,-13.94"/>
</a>
</g>
<text text-anchor="middle" x="603.5" y="-27" font-family="Helvetica,sans-Serif" font-size="10.00" fill="grey"> TargetContainer</text>
</g>
</g>
</svg>
