<?xml version="1.0" encoding="UTF-8" standalone="no"?>
<!DOCTYPE svg PUBLIC "-//W3C//DTD SVG 1.1//EN"
 "http://www.w3.org/Graphics/SVG/1.1/DTD/svg11.dtd">
<!-- Generated by graphviz version 2.43.0 (0)
 -->
<!-- Title: WolfstagInteractive.ConvoCore.ConvoCoreAction_ModifyTransform Pages: 1 -->
<svg width="221pt" height="148pt"
 viewBox="0.00 0.00 221.00 148.00" xmlns="http://www.w3.org/2000/svg" xmlns:xlink="http://www.w3.org/1999/xlink">
<g id="graph0" class="graph" transform="scale(1 1) rotate(0) translate(4 144)">
<title>WolfstagInteractive.ConvoCore.ConvoCoreAction_ModifyTransform</title>
<!-- Node1 -->
<g id="Node000001" class="node">
<title>Node1</title>
<g id="a_Node000001"><a xlink:title=" ">
<polygon fill="#999999" stroke="#666666" points="213,-30 0,-30 0,0 213,0 213,-30"/>
<text text-anchor="start" x="8" y="-18" font-family="Helvetica,sans-Serif" font-size="10.00">WolfstagInteractive.Convo</text>
<text text-anchor="middle" x="106.5" y="-7" font-family="Helvetica,sans-Serif" font-size="10.00">Core.ConvoCoreAction_ModifyTransform</text>
</a>
</g>
</g>
<!-- Node2 -->
<g id="Node000002" class="node">
<title>Node2</title>
<g id="a_Node000002"><a xlink:href="classWolfstagInteractive_1_1ConvoCore_1_1BaseAction.html" target="_top" xlink:title=" ">
<polygon fill="white" stroke="#bfbfbf" points="142,-85 71,-85 71,-66 142,-66 142,-85"/>
<text text-anchor="middle" x="106.5" y="-73" font-family="Helvetica,sans-Serif" font-size="10.00">BaseAction</text>
</a>
</g>
</g>
<!-- Node2&#45;&gt;Node1 -->
<g id="edge1_Node000001_Node000002" class="edge">
<title>Node2&#45;&gt;Node1</title>
<g id="a_edge1_Node000001_Node000002"><a xlink:title=" ">
<path fill="none" stroke="#63b8ff" d="M106.5,-55.65C106.5,-47.36 106.5,-37.78 106.5,-30.11"/>
<polygon fill="#63b8ff" stroke="#63b8ff" points="103,-55.87 106.5,-65.87 110,-55.87 103,-55.87"/>
</a>
</g>
</g>
<!-- Node3 -->
<g id="Node000003" class="node">
<title>Node3</title>
<g id="a_Node000003"><a xlink:title=" ">
<polygon fill="white" stroke="#bfbfbf" points="155,-140 58,-140 58,-121 155,-121 155,-140"/>
<text text-anchor="middle" x="106.5" y="-128" font-family="Helvetica,sans-Serif" font-size="10.00">ScriptableObject</text>
</a>
</g>
</g>
<!-- Node3&#45;&gt;Node2 -->
<g id="edge2_Node000002_Node000003" class="edge">
<title>Node3&#45;&gt;Node2</title>
<g id="a_edge2_Node000002_Node000003"><a xlink:title=" ">
<path fill="none" stroke="#63b8ff" d="M106.5,-110.66C106.5,-101.93 106.5,-91.99 106.5,-85.09"/>
<polygon fill="#63b8ff" stroke="#63b8ff" points="103,-110.75 106.5,-120.75 110,-110.75 103,-110.75"/>
</a>
</g>
</g>
</g>
</svg>
