<?xml version="1.0" encoding="UTF-8" standalone="no"?>
<!DOCTYPE svg PUBLIC "-//W3C//DTD SVG 1.1//EN"
 "http://www.w3.org/Graphics/SVG/1.1/DTD/svg11.dtd">
<!-- Generated by graphviz version 2.43.0 (0)
 -->
<!-- Title: WolfstagInteractive.ConvoCore.ConvoCore Pages: 1 -->
<svg width="989pt" height="342pt"
 viewBox="0.00 0.00 989.00 342.43" xmlns="http://www.w3.org/2000/svg" xmlns:xlink="http://www.w3.org/1999/xlink">
<g id="graph0" class="graph" transform="scale(1 1) rotate(0) translate(4 338.43)">
<title>WolfstagInteractive.ConvoCore.ConvoCore</title>
<!-- Node1 -->
<g id="Node000001" class="node">
<title>Node1</title>
<g id="a_Node000001"><a xlink:title=" ">
<polygon fill="#999999" stroke="#666666" points="981,-255.92 835,-255.92 835,-225.92 981,-225.92 981,-255.92"/>
<text text-anchor="start" x="843" y="-243.92" font-family="Helvetica,sans-Serif" font-size="10.00">WolfstagInteractive.Convo</text>
<text text-anchor="middle" x="908" y="-232.92" font-family="Helvetica,sans-Serif" font-size="10.00">Core.ConvoCore</text>
</a>
</g>
</g>
<!-- Node2 -->
<g id="Node000002" class="node">
<title>Node2</title>
<g id="a_Node000002"><a xlink:title=" ">
<polygon fill="white" stroke="#bfbfbf" points="93,-129.42 0,-129.42 0,-110.42 93,-110.42 93,-129.42"/>
<text text-anchor="middle" x="46.5" y="-117.42" font-family="Helvetica,sans-Serif" font-size="10.00">MonoBehaviour</text>
</a>
</g>
</g>
<!-- Node2&#45;&gt;Node1 -->
<g id="edge1_Node000001_Node000002" class="edge">
<title>Node2&#45;&gt;Node1</title>
<g id="a_edge1_Node000001_Node000002"><a xlink:title=" ">
<path fill="none" stroke="#63b8ff" d="M52.14,-139.67C60.97,-172.2 83.6,-236.12 130,-262.92 376.57,-405.33 744.53,-298.04 866.27,-255.92"/>
<polygon fill="#63b8ff" stroke="#63b8ff" points="55.43,-138.41 49.58,-129.58 48.65,-140.14 55.43,-138.41"/>
</a>
</g>
</g>
<!-- Node5 -->
<g id="Node000005" class="node">
<title>Node5</title>
<g id="a_Node000005"><a xlink:href="classWolfstagInteractive_1_1ConvoCore_1_1ConvoCoreUIFoundation.html" target="_top" xlink:title="Used as a basis of any UI that can be assigned in the inspector that includes all the base functions ...">
<polygon fill="white" stroke="#666666" points="689.5,-153.92 529.5,-153.92 529.5,-123.92 689.5,-123.92 689.5,-153.92"/>
<text text-anchor="start" x="537.5" y="-141.92" font-family="Helvetica,sans-Serif" font-size="10.00">WolfstagInteractive.Convo</text>
<text text-anchor="middle" x="609.5" y="-130.92" font-family="Helvetica,sans-Serif" font-size="10.00">Core.ConvoCoreUIFoundation</text>
</a>
</g>
</g>
<!-- Node2&#45;&gt;Node5 -->
<g id="edge5_Node000005_Node000002" class="edge">
<title>Node2&#45;&gt;Node5</title>
<g id="a_edge5_Node000005_Node000002"><a xlink:title=" ">
<path fill="none" stroke="#63b8ff" d="M62.32,-137.45C77.42,-153.82 102.46,-177.15 130,-186.92 285.4,-242.07 485.82,-183.56 569.3,-153.94"/>
<polygon fill="#63b8ff" stroke="#63b8ff" points="64.64,-134.79 55.38,-129.64 59.4,-139.44 64.64,-134.79"/>
</a>
</g>
</g>
<!-- Node7 -->
<g id="Node000007" class="node">
<title>Node7</title>
<g id="a_Node000007"><a xlink:href="classWolfstagInteractive_1_1ConvoCore_1_1ConvoCore.html" target="_top" xlink:title=" ">
<polygon fill="white" stroke="#bfbfbf" points="981,-136.92 835,-136.92 835,-106.92 981,-106.92 981,-136.92"/>
<text text-anchor="start" x="843" y="-124.92" font-family="Helvetica,sans-Serif" font-size="10.00">WolfstagInteractive.Convo</text>
<text text-anchor="middle" x="908" y="-113.92" font-family="Helvetica,sans-Serif" font-size="10.00">Core.ConvoCore</text>
</a>
</g>
</g>
<!-- Node2&#45;&gt;Node7 -->
<g id="edge8_Node000007_Node000002" class="edge">
<title>Node2&#45;&gt;Node7</title>
<g id="a_edge8_Node000007_Node000002"><a xlink:title=" ">
<path fill="none" stroke="#63b8ff" d="M59.71,-102.18C74.01,-83.14 99.64,-54 130,-41.92 398.38,64.86 758.06,-61.43 871.31,-106.87"/>
<polygon fill="#63b8ff" stroke="#63b8ff" points="56.82,-100.2 53.8,-110.36 62.49,-104.31 56.82,-100.2"/>
</a>
</g>
</g>
<!-- Node8 -->
<g id="Node000008" class="node">
<title>Node8</title>
<g id="a_Node000008"><a xlink:href="classWolfstagInteractive_1_1ConvoCore_1_1ConvoCorePrefabRepresentationSpawner.html" target="_top" xlink:title=" ">
<polygon fill="white" stroke="#bfbfbf" points="331,-140.42 130,-140.42 130,-99.42 331,-99.42 331,-140.42"/>
<text text-anchor="start" x="138" y="-128.42" font-family="Helvetica,sans-Serif" font-size="10.00">WolfstagInteractive.Convo</text>
<text text-anchor="start" x="138" y="-117.42" font-family="Helvetica,sans-Serif" font-size="10.00">Core.ConvoCorePrefabRepresentation</text>
<text text-anchor="middle" x="230.5" y="-106.42" font-family="Helvetica,sans-Serif" font-size="10.00">Spawner</text>
</a>
</g>
</g>
<!-- Node2&#45;&gt;Node8 -->
<g id="edge12_Node000008_Node000002" class="edge">
<title>Node2&#45;&gt;Node8</title>
<g id="a_edge12_Node000008_Node000002"><a xlink:title=" ">
<path fill="none" stroke="#63b8ff" d="M103.48,-119.92C111.94,-119.92 120.87,-119.92 129.92,-119.92"/>
<polygon fill="#63b8ff" stroke="#63b8ff" points="103.43,-116.42 93.43,-119.92 103.43,-123.42 103.43,-116.42"/>
</a>
</g>
</g>
<!-- Node9 -->
<g id="Node000009" class="node">
<title>Node9</title>
<g id="a_Node000009"><a xlink:href="classWolfstagInteractive_1_1ConvoCore_1_1ConvoCoreDialogueHistoryUI.html" target="_top" xlink:title=" ">
<polygon fill="white" stroke="#bfbfbf" points="323,-80.92 138,-80.92 138,-50.92 323,-50.92 323,-80.92"/>
<text text-anchor="start" x="146" y="-68.92" font-family="Helvetica,sans-Serif" font-size="10.00">WolfstagInteractive.Convo</text>
<text text-anchor="middle" x="230.5" y="-57.92" font-family="Helvetica,sans-Serif" font-size="10.00">Core.ConvoCoreDialogueHistoryUI</text>
</a>
</g>
</g>
<!-- Node2&#45;&gt;Node9 -->
<g id="edge14_Node000009_Node000002" class="edge">
<title>Node2&#45;&gt;Node9</title>
<g id="a_edge14_Node000009_Node000002"><a xlink:title=" ">
<path fill="none" stroke="#63b8ff" d="M82.57,-106.79C97.14,-101.55 114.29,-95.65 130,-90.92 141.6,-87.43 154.06,-84.04 166.1,-80.92"/>
<polygon fill="#63b8ff" stroke="#63b8ff" points="81.14,-103.59 72.94,-110.3 83.54,-110.17 81.14,-103.59"/>
</a>
</g>
</g>
<!-- Node3 -->
<g id="Node000003" class="node">
<title>Node3</title>
<g id="a_Node000003"><a xlink:href="classWolfstagInteractive_1_1ConvoCore_1_1ConvoCoreConversationData.html" target="_top" xlink:title=" ">
<polygon fill="white" stroke="#bfbfbf" points="701,-253.92 518,-253.92 518,-223.92 701,-223.92 701,-253.92"/>
<text text-anchor="start" x="526" y="-241.92" font-family="Helvetica,sans-Serif" font-size="10.00">WolfstagInteractive.Convo</text>
<text text-anchor="middle" x="609.5" y="-230.92" font-family="Helvetica,sans-Serif" font-size="10.00">Core.ConvoCoreConversationData</text>
</a>
</g>
</g>
<!-- Node3&#45;&gt;Node1 -->
<g id="edge2_Node000001_Node000003" class="edge">
<title>Node3&#45;&gt;Node1</title>
<g id="a_edge2_Node000001_Node000003"><a xlink:title=" ">
<path fill="none" stroke="#9a32cd" stroke-dasharray="5,2" d="M711.26,-239.6C751.82,-239.87 797.69,-240.18 834.82,-240.43"/>
<polygon fill="#9a32cd" stroke="#9a32cd" points="711.09,-236.1 701.07,-239.53 711.05,-243.1 711.09,-236.1"/>
</a>
</g>
<text text-anchor="middle" x="768" y="-242.92" font-family="Helvetica,sans-Serif" font-size="10.00" fill="grey"> ConversationData</text>
</g>
<!-- Node3&#45;&gt;Node7 -->
<g id="edge9_Node000007_Node000003" class="edge">
<title>Node3&#45;&gt;Node7</title>
<g id="a_edge9_Node000007_Node000003"><a xlink:title=" ">
<path fill="none" stroke="#9a32cd" stroke-dasharray="5,2" d="M705.25,-221.58C741.22,-213.09 781.95,-201.13 817,-184.92 844.35,-172.27 872.22,-151.24 889.55,-136.99"/>
<polygon fill="#9a32cd" stroke="#9a32cd" points="704.19,-218.23 695.23,-223.88 705.76,-225.05 704.19,-218.23"/>
</a>
</g>
<text text-anchor="middle" x="768" y="-219.92" font-family="Helvetica,sans-Serif" font-size="10.00" fill="grey"> ConversationData</text>
</g>
<!-- Node4 -->
<g id="Node000004" class="node">
<title>Node4</title>
<g id="a_Node000004"><a xlink:title=" ">
<polygon fill="white" stroke="#bfbfbf" points="279,-253.42 182,-253.42 182,-234.42 279,-234.42 279,-253.42"/>
<text text-anchor="middle" x="230.5" y="-241.42" font-family="Helvetica,sans-Serif" font-size="10.00">ScriptableObject</text>
</a>
</g>
</g>
<!-- Node4&#45;&gt;Node3 -->
<g id="edge3_Node000003_Node000004" class="edge">
<title>Node4&#45;&gt;Node3</title>
<g id="a_edge3_Node000003_Node000004"><a xlink:title=" ">
<path fill="none" stroke="#63b8ff" d="M289.45,-243.15C350.35,-242.35 446.99,-241.06 517.97,-240.12"/>
<polygon fill="#63b8ff" stroke="#63b8ff" points="289.2,-239.66 279.25,-243.29 289.29,-246.66 289.2,-239.66"/>
</a>
</g>
</g>
<!-- Node5&#45;&gt;Node1 -->
<g id="edge4_Node000001_Node000005" class="edge">
<title>Node5&#45;&gt;Node1</title>
<g id="a_edge4_Node000001_Node000005"><a xlink:title=" ">
<path fill="none" stroke="#9a32cd" stroke-dasharray="5,2" d="M700.28,-144.85C737.53,-149.65 780.48,-158.31 817,-173.92 846.2,-186.4 874.7,-210.15 891.56,-225.76"/>
<polygon fill="#9a32cd" stroke="#9a32cd" points="700.29,-141.33 689.94,-143.6 699.45,-148.27 700.29,-141.33"/>
</a>
</g>
<text text-anchor="middle" x="768" y="-176.92" font-family="Helvetica,sans-Serif" font-size="10.00" fill="grey"> ConversationUI</text>
</g>
<!-- Node5&#45;&gt;Node7 -->
<g id="edge10_Node000007_Node000005" class="edge">
<title>Node5&#45;&gt;Node7</title>
<g id="a_edge10_Node000007_Node000005"><a xlink:title=" ">
<path fill="none" stroke="#9a32cd" stroke-dasharray="5,2" d="M699.79,-133.8C742.95,-131.33 794.08,-128.4 834.75,-126.06"/>
<polygon fill="#9a32cd" stroke="#9a32cd" points="699.35,-130.32 689.57,-134.39 699.75,-137.31 699.35,-130.32"/>
</a>
</g>
<text text-anchor="middle" x="768" y="-134.92" font-family="Helvetica,sans-Serif" font-size="10.00" fill="grey"> ConversationUI</text>
</g>
<!-- Node6 -->
<g id="Node000006" class="node">
<title>Node6</title>
<g id="a_Node000006"><a xlink:href="interfaceWolfstagInteractive_1_1ConvoCore_1_1IUIFoundation.html" target="_top" xlink:title=" ">
<polygon fill="white" stroke="#bfbfbf" points="272.5,-177.42 188.5,-177.42 188.5,-158.42 272.5,-158.42 272.5,-177.42"/>
<text text-anchor="middle" x="230.5" y="-165.42" font-family="Helvetica,sans-Serif" font-size="10.00">IUIFoundation</text>
</a>
</g>
</g>
<!-- Node6&#45;&gt;Node5 -->
<g id="edge6_Node000005_Node000006" class="edge">
<title>Node6&#45;&gt;Node5</title>
<g id="a_edge6_Node000005_Node000006"><a xlink:title=" ">
<path fill="none" stroke="#63b8ff" d="M282.93,-164.22C336.98,-160.3 424.48,-153.87 500,-147.92 509.52,-147.17 519.5,-146.37 529.4,-145.56"/>
<polygon fill="#63b8ff" stroke="#63b8ff" points="282.63,-160.73 272.91,-164.95 283.13,-167.71 282.63,-160.73"/>
</a>
</g>
</g>
<!-- Node7&#45;&gt;Node5 -->
<g id="edge7_Node000005_Node000007" class="edge">
<title>Node7&#45;&gt;Node5</title>
<g id="a_edge7_Node000005_Node000007"><a xlink:title=" ">
<path fill="none" stroke="#9a32cd" stroke-dasharray="5,2" d="M824.77,-106.7C822.15,-106.41 819.56,-106.15 817,-105.92 773.61,-102.1 762.08,-99.51 719,-105.92 695.53,-109.41 670.12,-116.93 649.79,-123.91"/>
<polygon fill="#9a32cd" stroke="#9a32cd" points="824.58,-110.2 834.94,-107.96 825.45,-103.26 824.58,-110.2"/>
</a>
</g>
<text text-anchor="middle" x="768" y="-108.92" font-family="Helvetica,sans-Serif" font-size="10.00" fill="grey"> ConvoCoreInstance</text>
</g>
<!-- Node8&#45;&gt;Node5 -->
<g id="edge11_Node000005_Node000008" class="edge">
<title>Node8&#45;&gt;Node5</title>
<g id="a_edge11_Node000005_Node000008"><a xlink:title=" ">
<path fill="none" stroke="#9a32cd" stroke-dasharray="5,2" d="M341.35,-125.46C401.53,-128.49 474.75,-132.18 529.3,-134.93"/>
<polygon fill="#9a32cd" stroke="#9a32cd" points="341.21,-121.95 331.05,-124.94 340.86,-128.94 341.21,-121.95"/>
</a>
</g>
<text text-anchor="middle" x="424.5" y="-135.92" font-family="Helvetica,sans-Serif" font-size="10.00" fill="grey"> PrefabRepresentationSpawner</text>
</g>
<!-- Node9&#45;&gt;Node5 -->
<g id="edge13_Node000005_Node000009" class="edge">
<title>Node9&#45;&gt;Node5</title>
<g id="a_edge13_Node000005_Node000009"><a xlink:title=" ">
<path fill="none" stroke="#9a32cd" stroke-dasharray="5,2" d="M333.13,-80.83C383.52,-88.76 445.17,-99.27 500,-110.92 517.7,-114.68 536.86,-119.4 554.08,-123.89"/>
<polygon fill="#9a32cd" stroke="#9a32cd" points="333.63,-77.37 323.21,-79.28 332.55,-84.28 333.63,-77.37"/>
</a>
</g>
<text text-anchor="middle" x="424.5" y="-113.92" font-family="Helvetica,sans-Serif" font-size="10.00" fill="grey"> ConvoCoreDialogueHistoryUI</text>
</g>
</g>
</svg>
