<?xml version="1.0" encoding="UTF-8" standalone="no"?>
<!DOCTYPE svg PUBLIC "-//W3C//DTD SVG 1.1//EN"
 "http://www.w3.org/Graphics/SVG/1.1/DTD/svg11.dtd">
<!-- Generated by graphviz version 2.43.0 (0)
 -->
<!-- Title: WolfstagInteractive.ConvoCore.ConvoCoreUIFoundation Pages: 1 -->
<svg width="766pt" height="365pt"
 viewBox="0.00 0.00 766.00 364.76" xmlns="http://www.w3.org/2000/svg" xmlns:xlink="http://www.w3.org/1999/xlink">
<g id="graph0" class="graph" transform="scale(1 1) rotate(0) translate(4 360.76)">
<title>WolfstagInteractive.ConvoCore.ConvoCoreUIFoundation</title>
<!-- Node1 -->
<g id="Node000001" class="node">
<title>Node1</title>
<g id="a_Node000001"><a xlink:title="Used as a basis of any UI that can be assigned in the inspector that includes all the base functions ...">
<polygon fill="#999999" stroke="#666666" points="758,-317 598,-317 598,-287 758,-287 758,-317"/>
<text text-anchor="start" x="606" y="-305" font-family="Helvetica,sans-Serif" font-size="10.00">WolfstagInteractive.Convo</text>
<text text-anchor="middle" x="678" y="-294" font-family="Helvetica,sans-Serif" font-size="10.00">Core.ConvoCoreUIFoundation</text>
</a>
</g>
</g>
<!-- Node2 -->
<g id="Node000002" class="node">
<title>Node2</title>
<g id="a_Node000002"><a xlink:title=" ">
<polygon fill="white" stroke="#bfbfbf" points="119.5,-184.5 26.5,-184.5 26.5,-165.5 119.5,-165.5 119.5,-184.5"/>
<text text-anchor="middle" x="73" y="-172.5" font-family="Helvetica,sans-Serif" font-size="10.00">MonoBehaviour</text>
</a>
</g>
</g>
<!-- Node2&#45;&gt;Node1 -->
<g id="edge1_Node000001_Node000002" class="edge">
<title>Node2&#45;&gt;Node1</title>
<g id="a_edge1_Node000001_Node000002"><a xlink:title=" ">
<path fill="none" stroke="#63b8ff" d="M85.28,-193.49C105.67,-225 151.99,-288.26 210,-315 359.45,-383.88 416.95,-351.27 580,-329 597.49,-326.61 616.28,-321.9 632.62,-317.08"/>
<polygon fill="#63b8ff" stroke="#63b8ff" points="88.1,-191.4 79.8,-184.81 82.18,-195.13 88.1,-191.4"/>
</a>
</g>
</g>
<!-- Node4 -->
<g id="Node000004" class="node">
<title>Node4</title>
<g id="a_Node000004"><a xlink:href="classWolfstagInteractive_1_1ConvoCore_1_1ConvoCore.html" target="_top" xlink:title=" ">
<polygon fill="white" stroke="#bfbfbf" points="383.5,-77 237.5,-77 237.5,-47 383.5,-47 383.5,-77"/>
<text text-anchor="start" x="245.5" y="-65" font-family="Helvetica,sans-Serif" font-size="10.00">WolfstagInteractive.Convo</text>
<text text-anchor="middle" x="310.5" y="-54" font-family="Helvetica,sans-Serif" font-size="10.00">Core.ConvoCore</text>
</a>
</g>
</g>
<!-- Node2&#45;&gt;Node4 -->
<g id="edge4_Node000004_Node000002" class="edge">
<title>Node2&#45;&gt;Node4</title>
<g id="a_edge4_Node000004_Node000002"><a xlink:title=" ">
<path fill="none" stroke="#63b8ff" d="M88.86,-158C105.43,-140.13 133.86,-112.5 164,-97 186.53,-85.41 213,-77.58 237.14,-72.31"/>
<polygon fill="#63b8ff" stroke="#63b8ff" points="86.24,-155.68 82.13,-165.44 91.43,-160.37 86.24,-155.68"/>
</a>
</g>
</g>
<!-- Node7 -->
<g id="Node000007" class="node">
<title>Node7</title>
<g id="a_Node000007"><a xlink:href="classWolfstagInteractive_1_1ConvoCore_1_1ConvoCoreUIFoundation.html" target="_top" xlink:title="Used as a basis of any UI that can be assigned in the inspector that includes all the base functions ...">
<polygon fill="white" stroke="#666666" points="758,-157 598,-157 598,-127 758,-127 758,-157"/>
<text text-anchor="start" x="606" y="-145" font-family="Helvetica,sans-Serif" font-size="10.00">WolfstagInteractive.Convo</text>
<text text-anchor="middle" x="678" y="-134" font-family="Helvetica,sans-Serif" font-size="10.00">Core.ConvoCoreUIFoundation</text>
</a>
</g>
</g>
<!-- Node2&#45;&gt;Node7 -->
<g id="edge8_Node000007_Node000002" class="edge">
<title>Node2&#45;&gt;Node7</title>
<g id="a_edge8_Node000007_Node000002"><a xlink:title=" ">
<path fill="none" stroke="#63b8ff" d="M129.45,-164.66C154.08,-160.21 183.45,-155.1 210,-151 373.02,-125.83 415.9,-105.26 580,-122 590.86,-123.11 602.3,-124.9 613.37,-126.96"/>
<polygon fill="#63b8ff" stroke="#63b8ff" points="128.78,-161.22 119.56,-166.45 130.03,-168.11 128.78,-161.22"/>
</a>
</g>
</g>
<!-- Node8 -->
<g id="Node000008" class="node">
<title>Node8</title>
<g id="a_Node000008"><a xlink:href="classWolfstagInteractive_1_1ConvoCore_1_1ConvoCorePrefabRepresentationSpawner.html" target="_top" xlink:title=" ">
<polygon fill="white" stroke="#bfbfbf" points="411,-249.5 210,-249.5 210,-208.5 411,-208.5 411,-249.5"/>
<text text-anchor="start" x="218" y="-237.5" font-family="Helvetica,sans-Serif" font-size="10.00">WolfstagInteractive.Convo</text>
<text text-anchor="start" x="218" y="-226.5" font-family="Helvetica,sans-Serif" font-size="10.00">Core.ConvoCorePrefabRepresentation</text>
<text text-anchor="middle" x="310.5" y="-215.5" font-family="Helvetica,sans-Serif" font-size="10.00">Spawner</text>
</a>
</g>
</g>
<!-- Node2&#45;&gt;Node8 -->
<g id="edge12_Node000008_Node000002" class="edge">
<title>Node2&#45;&gt;Node8</title>
<g id="a_edge12_Node000008_Node000002"><a xlink:title=" ">
<path fill="none" stroke="#63b8ff" d="M125.42,-186.79C153.11,-193.14 188.07,-201.16 220.06,-208.49"/>
<polygon fill="#63b8ff" stroke="#63b8ff" points="126.09,-183.35 115.56,-184.53 124.53,-190.18 126.09,-183.35"/>
</a>
</g>
</g>
<!-- Node9 -->
<g id="Node000009" class="node">
<title>Node9</title>
<g id="a_Node000009"><a xlink:href="classWolfstagInteractive_1_1ConvoCore_1_1ConvoCoreDialogueHistoryUI.html" target="_top" xlink:title=" ">
<polygon fill="white" stroke="#bfbfbf" points="403,-190 218,-190 218,-160 403,-160 403,-190"/>
<text text-anchor="start" x="226" y="-178" font-family="Helvetica,sans-Serif" font-size="10.00">WolfstagInteractive.Convo</text>
<text text-anchor="middle" x="310.5" y="-167" font-family="Helvetica,sans-Serif" font-size="10.00">Core.ConvoCoreDialogueHistoryUI</text>
</a>
</g>
</g>
<!-- Node2&#45;&gt;Node9 -->
<g id="edge14_Node000009_Node000002" class="edge">
<title>Node2&#45;&gt;Node9</title>
<g id="a_edge14_Node000009_Node000002"><a xlink:title=" ">
<path fill="none" stroke="#63b8ff" d="M129.81,-175C156.03,-175 187.99,-175 217.64,-175"/>
<polygon fill="#63b8ff" stroke="#63b8ff" points="129.69,-171.5 119.69,-175 129.69,-178.5 129.69,-171.5"/>
</a>
</g>
</g>
<!-- Node3 -->
<g id="Node000003" class="node">
<title>Node3</title>
<g id="a_Node000003"><a xlink:href="interfaceWolfstagInteractive_1_1ConvoCore_1_1IUIFoundation.html" target="_top" xlink:title=" ">
<polygon fill="white" stroke="#bfbfbf" points="352.5,-305.5 268.5,-305.5 268.5,-286.5 352.5,-286.5 352.5,-305.5"/>
<text text-anchor="middle" x="310.5" y="-293.5" font-family="Helvetica,sans-Serif" font-size="10.00">IUIFoundation</text>
</a>
</g>
</g>
<!-- Node3&#45;&gt;Node1 -->
<g id="edge2_Node000001_Node000003" class="edge">
<title>Node3&#45;&gt;Node1</title>
<g id="a_edge2_Node000001_Node000003"><a xlink:title=" ">
<path fill="none" stroke="#63b8ff" d="M362.74,-305.58C383.26,-308.96 407.17,-312.34 429,-314 495.92,-319.1 513.02,-318.13 580,-314 585.84,-313.64 591.87,-313.16 597.93,-312.6"/>
<polygon fill="#63b8ff" stroke="#63b8ff" points="363.09,-302.09 352.65,-303.87 361.93,-308.99 363.09,-302.09"/>
</a>
</g>
</g>
<!-- Node3&#45;&gt;Node7 -->
<g id="edge9_Node000007_Node000003" class="edge">
<title>Node3&#45;&gt;Node7</title>
<g id="a_edge9_Node000007_Node000003"><a xlink:title=" ">
<path fill="none" stroke="#63b8ff" d="M350.34,-283.09C368.96,-276.52 391.42,-268.02 411,-259 419.31,-255.17 420.39,-252.1 429,-249 493.23,-225.9 518.06,-249.67 580,-221 613.71,-205.4 645.66,-175.39 663.17,-157.19"/>
<polygon fill="#63b8ff" stroke="#63b8ff" points="349,-279.85 340.71,-286.44 351.3,-286.46 349,-279.85"/>
</a>
</g>
</g>
<!-- Node4&#45;&gt;Node1 -->
<g id="edge3_Node000001_Node000004" class="edge">
<title>Node4&#45;&gt;Node1</title>
<g id="a_edge3_Node000001_Node000004"><a xlink:title=" ">
<path fill="none" stroke="#9a32cd" stroke-dasharray="5,2" d="M369.41,-80.07C388.37,-85.9 409.56,-92.32 429,-98 495.86,-117.54 524.6,-97.77 580,-140 586.73,-145.13 645.72,-247.39 668.28,-286.75"/>
<polygon fill="#9a32cd" stroke="#9a32cd" points="370.31,-76.68 359.72,-77.08 368.25,-83.37 370.31,-76.68"/>
</a>
</g>
<text text-anchor="middle" x="504.5" y="-143" font-family="Helvetica,sans-Serif" font-size="10.00" fill="grey"> ConvoCoreInstance</text>
</g>
<!-- Node4&#45;&gt;Node7 -->
<g id="edge10_Node000007_Node000004" class="edge">
<title>Node4&#45;&gt;Node7</title>
<g id="a_edge10_Node000007_Node000004"><a xlink:title=" ">
<path fill="none" stroke="#9a32cd" stroke-dasharray="5,2" d="M394.03,-64.27C459.94,-66.85 546.58,-72.21 580,-83 609.64,-92.57 639.64,-112.8 658.27,-126.89"/>
<polygon fill="#9a32cd" stroke="#9a32cd" points="393.77,-60.76 383.65,-63.88 393.51,-67.75 393.77,-60.76"/>
</a>
</g>
<text text-anchor="middle" x="504.5" y="-86" font-family="Helvetica,sans-Serif" font-size="10.00" fill="grey"> ConvoCoreInstance</text>
</g>
<!-- Node5 -->
<g id="Node000005" class="node">
<title>Node5</title>
<g id="a_Node000005"><a xlink:href="interfaceWolfstagInteractive_1_1ConvoCore_1_1IConvoCoreRunner.html" target="_top" xlink:title=" ">
<polygon fill="white" stroke="#bfbfbf" points="126.5,-67.5 19.5,-67.5 19.5,-48.5 126.5,-48.5 126.5,-67.5"/>
<text text-anchor="middle" x="73" y="-55.5" font-family="Helvetica,sans-Serif" font-size="10.00">IConvoCoreRunner</text>
</a>
</g>
</g>
<!-- Node5&#45;&gt;Node4 -->
<g id="edge5_Node000004_Node000005" class="edge">
<title>Node5&#45;&gt;Node4</title>
<g id="a_edge5_Node000004_Node000005"><a xlink:title=" ">
<path fill="none" stroke="#63b8ff" d="M136.8,-59.07C167.78,-59.59 205.31,-60.23 237.46,-60.78"/>
<polygon fill="#63b8ff" stroke="#63b8ff" points="136.62,-55.56 126.56,-58.89 136.5,-62.56 136.62,-55.56"/>
</a>
</g>
</g>
<!-- Node6 -->
<g id="Node000006" class="node">
<title>Node6</title>
<g id="a_Node000006"><a xlink:href="interfaceWolfstagInteractive_1_1ConvoCore_1_1IConvoInput.html" target="_top" xlink:title=" ">
<polygon fill="white" stroke="#bfbfbf" points="146,-30 0,-30 0,0 146,0 146,-30"/>
<text text-anchor="start" x="8" y="-18" font-family="Helvetica,sans-Serif" font-size="10.00">WolfstagInteractive.Convo</text>
<text text-anchor="middle" x="73" y="-7" font-family="Helvetica,sans-Serif" font-size="10.00">Core.IConvoInput</text>
</a>
</g>
</g>
<!-- Node6&#45;&gt;Node4 -->
<g id="edge6_Node000004_Node000006" class="edge">
<title>Node6&#45;&gt;Node4</title>
<g id="a_edge6_Node000004_Node000006"><a xlink:title=" ">
<path fill="none" stroke="#9a32cd" stroke-dasharray="5,2" d="M156.25,-31.41C182.67,-36.69 211.73,-42.49 237.38,-47.61"/>
<polygon fill="#9a32cd" stroke="#9a32cd" points="156.75,-27.95 146.26,-29.42 155.38,-34.81 156.75,-27.95"/>
</a>
</g>
<text text-anchor="middle" x="178" y="-42" font-family="Helvetica,sans-Serif" font-size="10.00" fill="grey"> Input</text>
</g>
<!-- Node7&#45;&gt;Node4 -->
<g id="edge7_Node000004_Node000007" class="edge">
<title>Node7&#45;&gt;Node4</title>
<g id="a_edge7_Node000004_Node000007"><a xlink:title=" ">
<path fill="none" stroke="#9a32cd" stroke-dasharray="5,2" d="M661.08,-118.66C644.05,-95.97 614.74,-62.96 580,-49 509.2,-20.54 419.31,-33.74 363.6,-46.99"/>
<polygon fill="#9a32cd" stroke="#9a32cd" points="658.28,-120.76 666.99,-126.79 663.94,-116.64 658.28,-120.76"/>
</a>
</g>
<text text-anchor="middle" x="504.5" y="-52" font-family="Helvetica,sans-Serif" font-size="10.00" fill="grey"> ConversationUI</text>
</g>
<!-- Node8&#45;&gt;Node1 -->
<g id="edge15_Node000001_Node000008" class="edge">
<title>Node8&#45;&gt;Node1</title>
<g id="a_edge15_Node000001_Node000008"><a xlink:title=" ">
<path fill="none" stroke="#9a32cd" stroke-dasharray="5,2" d="M359.6,-254.04C380.4,-263.76 405.36,-273.99 429,-280 484.3,-294.06 548.5,-299.47 597.73,-301.41"/>
<polygon fill="#9a32cd" stroke="#9a32cd" points="360.89,-250.78 350.35,-249.63 357.87,-257.09 360.89,-250.78"/>
</a>
</g>
<text text-anchor="middle" x="504.5" y="-303" font-family="Helvetica,sans-Serif" font-size="10.00" fill="grey"> PrefabRepresentationSpawner</text>
</g>
<!-- Node8&#45;&gt;Node7 -->
<g id="edge11_Node000007_Node000008" class="edge">
<title>Node8&#45;&gt;Node7</title>
<g id="a_edge11_Node000007_Node000008"><a xlink:title=" ">
<path fill="none" stroke="#9a32cd" stroke-dasharray="5,2" d="M421.06,-211.2C481.58,-200.93 550.37,-188.42 580,-180 601.4,-173.92 624.63,-164.91 642.99,-157.19"/>
<polygon fill="#9a32cd" stroke="#9a32cd" points="420.31,-207.77 411.03,-212.89 421.48,-214.68 420.31,-207.77"/>
</a>
</g>
<text text-anchor="middle" x="504.5" y="-212" font-family="Helvetica,sans-Serif" font-size="10.00" fill="grey"> PrefabRepresentationSpawner</text>
</g>
<!-- Node9&#45;&gt;Node1 -->
<g id="edge16_Node000001_Node000009" class="edge">
<title>Node9&#45;&gt;Node1</title>
<g id="a_edge16_Node000001_Node000009"><a xlink:title=" ">
<path fill="none" stroke="#9a32cd" stroke-dasharray="5,2" d="M401.23,-194.29C404.62,-196.03 407.89,-197.93 411,-200 422.1,-207.38 418.01,-216.45 429,-224 486.5,-263.54 513.59,-245.59 580,-267 598.91,-273.1 619.66,-280.49 637.1,-286.9"/>
<polygon fill="#9a32cd" stroke="#9a32cd" points="402.6,-191.07 392.05,-190.04 399.66,-197.42 402.6,-191.07"/>
</a>
</g>
<text text-anchor="middle" x="504.5" y="-270" font-family="Helvetica,sans-Serif" font-size="10.00" fill="grey"> ConvoCoreDialogueHistoryUI</text>
</g>
<!-- Node9&#45;&gt;Node7 -->
<g id="edge13_Node000007_Node000009" class="edge">
<title>Node9&#45;&gt;Node7</title>
<g id="a_edge13_Node000007_Node000009"><a xlink:title=" ">
<path fill="none" stroke="#9a32cd" stroke-dasharray="5,2" d="M413.42,-167.4C463.62,-163.47 525.02,-158.37 580,-153 585.82,-152.43 591.83,-151.82 597.88,-151.18"/>
<polygon fill="#9a32cd" stroke="#9a32cd" points="412.91,-163.93 403.21,-168.2 413.45,-170.91 412.91,-163.93"/>
</a>
</g>
<text text-anchor="middle" x="504.5" y="-168" font-family="Helvetica,sans-Serif" font-size="10.00" fill="grey"> ConvoCoreDialogueHistoryUI</text>
</g>
</g>
</svg>
