<?xml version="1.0" encoding="UTF-8" standalone="no"?>
<!DOCTYPE svg PUBLIC "-//W3C//DTD SVG 1.1//EN"
 "http://www.w3.org/Graphics/SVG/1.1/DTD/svg11.dtd">
<!-- Generated by graphviz version 2.43.0 (0)
 -->
<!-- Title: WolfstagInteractive.ConvoCore.ConvoCore Pages: 1 -->
<svg width="966pt" height="299pt"
 viewBox="0.00 0.00 966.00 299.31" xmlns="http://www.w3.org/2000/svg" xmlns:xlink="http://www.w3.org/1999/xlink">
<g id="graph0" class="graph" transform="scale(1 1) rotate(0) translate(4 295.31)">
<title>WolfstagInteractive.ConvoCore.ConvoCore</title>
<!-- Node1 -->
<g id="Node000001" class="node">
<title>Node1</title>
<g id="a_Node000001"><a xlink:title=" ">
<polygon fill="#999999" stroke="#666666" points="958,-235.52 812,-235.52 812,-205.52 958,-205.52 958,-235.52"/>
<text text-anchor="start" x="820" y="-223.52" font-family="Helvetica,sans-Serif" font-size="10.00">WolfstagInteractive.Convo</text>
<text text-anchor="middle" x="885" y="-212.52" font-family="Helvetica,sans-Serif" font-size="10.00">Core.ConvoCore</text>
</a>
</g>
</g>
<!-- Node2 -->
<g id="Node000002" class="node">
<title>Node2</title>
<g id="a_Node000002"><a xlink:title=" ">
<polygon fill="white" stroke="#bfbfbf" points="93,-133.02 0,-133.02 0,-114.02 93,-114.02 93,-133.02"/>
<text text-anchor="middle" x="46.5" y="-121.02" font-family="Helvetica,sans-Serif" font-size="10.00">MonoBehaviour</text>
</a>
</g>
</g>
<!-- Node2&#45;&gt;Node1 -->
<g id="edge1_Node000001_Node000002" class="edge">
<title>Node2&#45;&gt;Node1</title>
<g id="a_edge1_Node000001_Node000002"><a xlink:title=" ">
<path fill="none" stroke="#63b8ff" d="M57.87,-141.89C71.31,-163.62 96.98,-198.71 130,-213.52 399.6,-334.44 501.44,-287.93 794,-246.52 809.62,-244.31 826.32,-240.04 841.05,-235.59"/>
<polygon fill="#63b8ff" stroke="#63b8ff" points="60.84,-140.04 52.72,-133.23 54.82,-143.62 60.84,-140.04"/>
</a>
</g>
</g>
<!-- Node5 -->
<g id="Node000005" class="node">
<title>Node5</title>
<g id="a_Node000005"><a xlink:href="classWolfstagInteractive_1_1ConvoCore_1_1ConvoCoreUIFoundation.html" target="_top" xlink:title="Used as a basis of any UI that can be assigned in the inspector that includes all the base functions ...">
<polygon fill="white" stroke="#666666" points="678,-138.52 518,-138.52 518,-108.52 678,-108.52 678,-138.52"/>
<text text-anchor="start" x="526" y="-126.52" font-family="Helvetica,sans-Serif" font-size="10.00">WolfstagInteractive.Convo</text>
<text text-anchor="middle" x="598" y="-115.52" font-family="Helvetica,sans-Serif" font-size="10.00">Core.ConvoCoreUIFoundation</text>
</a>
</g>
</g>
<!-- Node2&#45;&gt;Node5 -->
<g id="edge5_Node000005_Node000002" class="edge">
<title>Node2&#45;&gt;Node5</title>
<g id="a_edge5_Node000005_Node000002"><a xlink:title=" ">
<path fill="none" stroke="#63b8ff" d="M62.32,-141.05C77.42,-157.42 102.46,-180.74 130,-190.52 285.92,-245.86 486.54,-172.15 564.24,-138.59"/>
<polygon fill="#63b8ff" stroke="#63b8ff" points="64.64,-138.38 55.38,-133.23 59.4,-143.03 64.64,-138.38"/>
</a>
</g>
</g>
<!-- Node7 -->
<g id="Node000007" class="node">
<title>Node7</title>
<g id="a_Node000007"><a xlink:href="classWolfstagInteractive_1_1ConvoCore_1_1ConvoCore.html" target="_top" xlink:title=" ">
<polygon fill="white" stroke="#bfbfbf" points="958,-108.52 812,-108.52 812,-78.52 958,-78.52 958,-108.52"/>
<text text-anchor="start" x="820" y="-96.52" font-family="Helvetica,sans-Serif" font-size="10.00">WolfstagInteractive.Convo</text>
<text text-anchor="middle" x="885" y="-85.52" font-family="Helvetica,sans-Serif" font-size="10.00">Core.ConvoCore</text>
</a>
</g>
</g>
<!-- Node2&#45;&gt;Node7 -->
<g id="edge8_Node000007_Node000002" class="edge">
<title>Node2&#45;&gt;Node7</title>
<g id="a_edge8_Node000007_Node000002"><a xlink:title=" ">
<path fill="none" stroke="#63b8ff" d="M59.71,-105.77C74.01,-86.73 99.64,-57.6 130,-45.52 383.5,55.35 722.82,-39.38 841.15,-78.45"/>
<polygon fill="#63b8ff" stroke="#63b8ff" points="56.82,-103.8 53.8,-113.95 62.49,-107.9 56.82,-103.8"/>
</a>
</g>
</g>
<!-- Node8 -->
<g id="Node000008" class="node">
<title>Node8</title>
<g id="a_Node000008"><a xlink:href="classWolfstagInteractive_1_1ConvoCore_1_1ConvoCorePrefabRepresentationSpawner.html" target="_top" xlink:title=" ">
<polygon fill="white" stroke="#bfbfbf" points="331,-144.02 130,-144.02 130,-103.02 331,-103.02 331,-144.02"/>
<text text-anchor="start" x="138" y="-132.02" font-family="Helvetica,sans-Serif" font-size="10.00">WolfstagInteractive.Convo</text>
<text text-anchor="start" x="138" y="-121.02" font-family="Helvetica,sans-Serif" font-size="10.00">Core.ConvoCorePrefabRepresentation</text>
<text text-anchor="middle" x="230.5" y="-110.02" font-family="Helvetica,sans-Serif" font-size="10.00">Spawner</text>
</a>
</g>
</g>
<!-- Node2&#45;&gt;Node8 -->
<g id="edge13_Node000008_Node000002" class="edge">
<title>Node2&#45;&gt;Node8</title>
<g id="a_edge13_Node000008_Node000002"><a xlink:title=" ">
<path fill="none" stroke="#63b8ff" d="M103.48,-123.52C111.94,-123.52 120.87,-123.52 129.92,-123.52"/>
<polygon fill="#63b8ff" stroke="#63b8ff" points="103.43,-120.02 93.43,-123.52 103.43,-127.02 103.43,-120.02"/>
</a>
</g>
</g>
<!-- Node9 -->
<g id="Node000009" class="node">
<title>Node9</title>
<g id="a_Node000009"><a xlink:href="classWolfstagInteractive_1_1ConvoCore_1_1ConvoCoreDialogueHistoryUI.html" target="_top" xlink:title=" ">
<polygon fill="white" stroke="#bfbfbf" points="323,-84.52 138,-84.52 138,-54.52 323,-54.52 323,-84.52"/>
<text text-anchor="start" x="146" y="-72.52" font-family="Helvetica,sans-Serif" font-size="10.00">WolfstagInteractive.Convo</text>
<text text-anchor="middle" x="230.5" y="-61.52" font-family="Helvetica,sans-Serif" font-size="10.00">Core.ConvoCoreDialogueHistoryUI</text>
</a>
</g>
</g>
<!-- Node2&#45;&gt;Node9 -->
<g id="edge15_Node000009_Node000002" class="edge">
<title>Node2&#45;&gt;Node9</title>
<g id="a_edge15_Node000009_Node000002"><a xlink:title=" ">
<path fill="none" stroke="#63b8ff" d="M82.57,-110.39C97.14,-105.15 114.29,-99.24 130,-94.52 141.6,-91.03 154.06,-87.63 166.1,-84.52"/>
<polygon fill="#63b8ff" stroke="#63b8ff" points="81.14,-107.19 72.94,-113.89 83.54,-113.76 81.14,-107.19"/>
</a>
</g>
</g>
<!-- Node3 -->
<g id="Node000003" class="node">
<title>Node3</title>
<g id="a_Node000003"><a xlink:href="interfaceWolfstagInteractive_1_1ConvoCore_1_1IConvoCoreRunner.html" target="_top" xlink:title=" ">
<polygon fill="white" stroke="#bfbfbf" points="651.5,-237.02 544.5,-237.02 544.5,-218.02 651.5,-218.02 651.5,-237.02"/>
<text text-anchor="middle" x="598" y="-225.02" font-family="Helvetica,sans-Serif" font-size="10.00">IConvoCoreRunner</text>
</a>
</g>
</g>
<!-- Node3&#45;&gt;Node1 -->
<g id="edge2_Node000001_Node000003" class="edge">
<title>Node3&#45;&gt;Node1</title>
<g id="a_edge2_Node000001_Node000003"><a xlink:title=" ">
<path fill="none" stroke="#63b8ff" d="M662.07,-232.07C700.28,-234.09 749.99,-235.44 794,-232.52 799.82,-232.13 805.84,-231.61 811.87,-230.99"/>
<polygon fill="#63b8ff" stroke="#63b8ff" points="661.79,-228.55 651.61,-231.48 661.4,-235.54 661.79,-228.55"/>
</a>
</g>
</g>
<!-- Node3&#45;&gt;Node7 -->
<g id="edge9_Node000007_Node000003" class="edge">
<title>Node3&#45;&gt;Node7</title>
<g id="a_edge9_Node000007_Node000003"><a xlink:title=" ">
<path fill="none" stroke="#63b8ff" d="M661.73,-233.17C701.89,-233.98 753.8,-229.6 794,-207.52 835.55,-184.69 864.61,-133.91 877.12,-108.54"/>
<polygon fill="#63b8ff" stroke="#63b8ff" points="661.63,-229.66 651.53,-232.85 661.41,-236.66 661.63,-229.66"/>
</a>
</g>
</g>
<!-- Node4 -->
<g id="Node000004" class="node">
<title>Node4</title>
<g id="a_Node000004"><a xlink:href="interfaceWolfstagInteractive_1_1ConvoCore_1_1IConvoInput.html" target="_top" xlink:title=" ">
<polygon fill="white" stroke="#bfbfbf" points="671,-196.52 525,-196.52 525,-166.52 671,-166.52 671,-196.52"/>
<text text-anchor="start" x="533" y="-184.52" font-family="Helvetica,sans-Serif" font-size="10.00">WolfstagInteractive.Convo</text>
<text text-anchor="middle" x="598" y="-173.52" font-family="Helvetica,sans-Serif" font-size="10.00">Core.IConvoInput</text>
</a>
</g>
</g>
<!-- Node4&#45;&gt;Node1 -->
<g id="edge3_Node000001_Node000004" class="edge">
<title>Node4&#45;&gt;Node1</title>
<g id="a_edge3_Node000001_Node000004"><a xlink:title=" ">
<path fill="none" stroke="#9a32cd" stroke-dasharray="5,2" d="M681.31,-192.78C722.55,-198.43 772.04,-205.2 811.79,-210.64"/>
<polygon fill="#9a32cd" stroke="#9a32cd" points="681.67,-189.3 671.29,-191.41 680.72,-196.23 681.67,-189.3"/>
</a>
</g>
<text text-anchor="middle" x="745" y="-210.52" font-family="Helvetica,sans-Serif" font-size="10.00" fill="grey"> Input</text>
</g>
<!-- Node4&#45;&gt;Node7 -->
<g id="edge10_Node000007_Node000004" class="edge">
<title>Node4&#45;&gt;Node7</title>
<g id="a_edge10_Node000007_Node000004"><a xlink:title=" ">
<path fill="none" stroke="#9a32cd" stroke-dasharray="5,2" d="M681.36,-168.7C716.63,-161.96 757.93,-152.37 794,-139.52 816.81,-131.39 841.18,-118.66 858.8,-108.65"/>
<polygon fill="#9a32cd" stroke="#9a32cd" points="680.29,-165.34 671.1,-170.62 681.57,-172.22 680.29,-165.34"/>
</a>
</g>
<text text-anchor="middle" x="745" y="-167.52" font-family="Helvetica,sans-Serif" font-size="10.00" fill="grey"> Input</text>
</g>
<!-- Node5&#45;&gt;Node1 -->
<g id="edge4_Node000001_Node000005" class="edge">
<title>Node5&#45;&gt;Node1</title>
<g id="a_edge4_Node000001_Node000005"><a xlink:title=" ">
<path fill="none" stroke="#9a32cd" stroke-dasharray="5,2" d="M688.36,-110.59C722.66,-109.24 761.38,-112.29 794,-126.52 831.48,-142.87 860.95,-183.09 875,-205.25"/>
<polygon fill="#9a32cd" stroke="#9a32cd" points="688.15,-107.1 678.35,-111.11 688.51,-114.09 688.15,-107.1"/>
</a>
</g>
<text text-anchor="middle" x="745" y="-129.52" font-family="Helvetica,sans-Serif" font-size="10.00" fill="grey"> ConversationUI</text>
</g>
<!-- Node5&#45;&gt;Node7 -->
<g id="edge11_Node000007_Node000005" class="edge">
<title>Node5&#45;&gt;Node7</title>
<g id="a_edge11_Node000007_Node000005"><a xlink:title=" ">
<path fill="none" stroke="#9a32cd" stroke-dasharray="5,2" d="M629.44,-103.04C647.84,-91.91 672.27,-79.28 696,-73.52 740.98,-62.61 793.44,-69.78 831.5,-78.43"/>
<polygon fill="#9a32cd" stroke="#9a32cd" points="627.55,-100.09 620.91,-108.35 631.25,-106.03 627.55,-100.09"/>
</a>
</g>
<text text-anchor="middle" x="745" y="-76.52" font-family="Helvetica,sans-Serif" font-size="10.00" fill="grey"> ConversationUI</text>
</g>
<!-- Node6 -->
<g id="Node000006" class="node">
<title>Node6</title>
<g id="a_Node000006"><a xlink:href="interfaceWolfstagInteractive_1_1ConvoCore_1_1IUIFoundation.html" target="_top" xlink:title=" ">
<polygon fill="white" stroke="#bfbfbf" points="272.5,-181.02 188.5,-181.02 188.5,-162.02 272.5,-162.02 272.5,-181.02"/>
<text text-anchor="middle" x="230.5" y="-169.02" font-family="Helvetica,sans-Serif" font-size="10.00">IUIFoundation</text>
</a>
</g>
</g>
<!-- Node6&#45;&gt;Node5 -->
<g id="edge6_Node000005_Node000006" class="edge">
<title>Node6&#45;&gt;Node5</title>
<g id="a_edge6_Node000005_Node000006"><a xlink:title=" ">
<path fill="none" stroke="#63b8ff" d="M282.98,-165.67C337.07,-159.42 424.61,-148.98 500,-138.52 505.82,-137.71 511.84,-136.85 517.89,-135.96"/>
<polygon fill="#63b8ff" stroke="#63b8ff" points="282.48,-162.21 272.95,-166.83 283.28,-169.16 282.48,-162.21"/>
</a>
</g>
</g>
<!-- Node7&#45;&gt;Node5 -->
<g id="edge7_Node000005_Node000007" class="edge">
<title>Node7&#45;&gt;Node5</title>
<g id="a_edge7_Node000005_Node000007"><a xlink:title=" ">
<path fill="none" stroke="#9a32cd" stroke-dasharray="5,2" d="M801.7,-88.9C768.68,-88.36 730.38,-89.4 696,-94.52 677.22,-97.32 657.03,-102.91 639.95,-108.45"/>
<polygon fill="#9a32cd" stroke="#9a32cd" points="801.7,-92.4 811.77,-89.12 801.84,-85.4 801.7,-92.4"/>
</a>
</g>
<text text-anchor="middle" x="745" y="-97.52" font-family="Helvetica,sans-Serif" font-size="10.00" fill="grey"> ConvoCoreInstance</text>
</g>
<!-- Node8&#45;&gt;Node5 -->
<g id="edge12_Node000005_Node000008" class="edge">
<title>Node8&#45;&gt;Node5</title>
<g id="a_edge12_Node000005_Node000008"><a xlink:title=" ">
<path fill="none" stroke="#9a32cd" stroke-dasharray="5,2" d="M341.47,-123.52C398.25,-123.52 466.23,-123.52 517.79,-123.52"/>
<polygon fill="#9a32cd" stroke="#9a32cd" points="341.37,-120.02 331.37,-123.52 341.37,-127.02 341.37,-120.02"/>
</a>
</g>
<text text-anchor="middle" x="424.5" y="-126.52" font-family="Helvetica,sans-Serif" font-size="10.00" fill="grey"> PrefabRepresentationSpawner</text>
</g>
<!-- Node9&#45;&gt;Node5 -->
<g id="edge14_Node000005_Node000009" class="edge">
<title>Node9&#45;&gt;Node5</title>
<g id="a_edge14_Node000005_Node000009"><a xlink:title=" ">
<path fill="none" stroke="#9a32cd" stroke-dasharray="5,2" d="M333.39,-84.09C383.57,-91.33 444.98,-100.27 500,-108.52 505.81,-109.39 511.82,-110.3 517.87,-111.22"/>
<polygon fill="#9a32cd" stroke="#9a32cd" points="333.58,-80.58 323.18,-82.62 332.58,-87.51 333.58,-80.58"/>
</a>
</g>
<text text-anchor="middle" x="424.5" y="-111.52" font-family="Helvetica,sans-Serif" font-size="10.00" fill="grey"> ConvoCoreDialogueHistoryUI</text>
</g>
</g>
</svg>
