<?xml version="1.0" encoding="UTF-8" standalone="no"?>
<!DOCTYPE svg PUBLIC "-//W3C//DTD SVG 1.1//EN"
 "http://www.w3.org/Graphics/SVG/1.1/DTD/svg11.dtd">
<!-- Generated by graphviz version 2.43.0 (0)
 -->
<!-- Title: WolfstagInteractive.ConvoCore.ConvoCoreUIFoundation Pages: 1 -->
<svg width="204pt" height="159pt"
 viewBox="0.00 0.00 203.50 159.00" xmlns="http://www.w3.org/2000/svg" xmlns:xlink="http://www.w3.org/1999/xlink">
<g id="graph0" class="graph" transform="scale(1 1) rotate(0) translate(4 155)">
<title>WolfstagInteractive.ConvoCore.ConvoCoreUIFoundation</title>
<!-- Node1 -->
<g id="Node000001" class="node">
<title>Node1</title>
<g id="a_Node000001"><a xlink:title="Used as a basis of any UI that can be assigned in the inspector that includes all the base functions ...">
<polygon fill="#999999" stroke="#666666" points="179.5,-96 19.5,-96 19.5,-66 179.5,-66 179.5,-96"/>
<text text-anchor="start" x="27.5" y="-84" font-family="Helvetica,sans-Serif" font-size="10.00">WolfstagInteractive.Convo</text>
<text text-anchor="middle" x="99.5" y="-73" font-family="Helvetica,sans-Serif" font-size="10.00">Core.ConvoCoreUIFoundation</text>
</a>
</g>
</g>
<!-- Node4 -->
<g id="Node000004" class="node">
<title>Node4</title>
<g id="a_Node000004"><a xlink:href="classWolfstagInteractive_1_1ConvoCore_1_1ConvoCoreSampleUI.html" target="_top" xlink:title=" ">
<polygon fill="white" stroke="#bfbfbf" points="172.5,-30 26.5,-30 26.5,0 172.5,0 172.5,-30"/>
<text text-anchor="start" x="34.5" y="-18" font-family="Helvetica,sans-Serif" font-size="10.00">WolfstagInteractive.Convo</text>
<text text-anchor="middle" x="99.5" y="-7" font-family="Helvetica,sans-Serif" font-size="10.00">Core.ConvoCoreSampleUI</text>
</a>
</g>
</g>
<!-- Node1&#45;&gt;Node4 -->
<g id="edge3_Node000001_Node000004" class="edge">
<title>Node1&#45;&gt;Node4</title>
<g id="a_edge3_Node000001_Node000004"><a xlink:title=" ">
<path fill="none" stroke="#63b8ff" d="M99.5,-55.54C99.5,-46.96 99.5,-37.61 99.5,-30.16"/>
<polygon fill="#63b8ff" stroke="#63b8ff" points="96,-55.8 99.5,-65.8 103,-55.8 96,-55.8"/>
</a>
</g>
</g>
<!-- Node2 -->
<g id="Node000002" class="node">
<title>Node2</title>
<g id="a_Node000002"><a xlink:title=" ">
<polygon fill="white" stroke="#bfbfbf" points="93,-151 0,-151 0,-132 93,-132 93,-151"/>
<text text-anchor="middle" x="46.5" y="-139" font-family="Helvetica,sans-Serif" font-size="10.00">MonoBehaviour</text>
</a>
</g>
</g>
<!-- Node2&#45;&gt;Node1 -->
<g id="edge1_Node000001_Node000002" class="edge">
<title>Node2&#45;&gt;Node1</title>
<g id="a_edge1_Node000001_Node000002"><a xlink:title=" ">
<path fill="none" stroke="#63b8ff" d="M61.06,-124.43C69.1,-115.56 78.98,-104.65 86.71,-96.11"/>
<polygon fill="#63b8ff" stroke="#63b8ff" points="58.44,-122.11 54.32,-131.87 63.63,-126.81 58.44,-122.11"/>
</a>
</g>
</g>
<!-- Node3 -->
<g id="Node000003" class="node">
<title>Node3</title>
<g id="a_Node000003"><a xlink:href="interfaceWolfstagInteractive_1_1ConvoCore_1_1IUIFoundation.html" target="_top" xlink:title=" ">
<polygon fill="white" stroke="#bfbfbf" points="195.5,-151 111.5,-151 111.5,-132 195.5,-132 195.5,-151"/>
<text text-anchor="middle" x="153.5" y="-139" font-family="Helvetica,sans-Serif" font-size="10.00">IUIFoundation</text>
</a>
</g>
</g>
<!-- Node3&#45;&gt;Node1 -->
<g id="edge2_Node000001_Node000003" class="edge">
<title>Node3&#45;&gt;Node1</title>
<g id="a_edge2_Node000001_Node000003"><a xlink:title=" ">
<path fill="none" stroke="#63b8ff" d="M138.66,-124.43C130.48,-115.56 120.41,-104.65 112.53,-96.11"/>
<polygon fill="#63b8ff" stroke="#63b8ff" points="136.18,-126.89 145.53,-131.87 141.32,-122.15 136.18,-126.89"/>
</a>
</g>
</g>
</g>
</svg>
