<?xml version="1.0" encoding="UTF-8" standalone="no"?>
<!DOCTYPE svg PUBLIC "-//W3C//DTD SVG 1.1//EN"
 "http://www.w3.org/Graphics/SVG/1.1/DTD/svg11.dtd">
<!-- Generated by graphviz version 2.43.0 (0)
 -->
<!-- Title: Graphical Class Hierarchy Pages: 1 -->
<svg width="647pt" height="241pt"
 viewBox="0.00 0.00 647.00 241.00" xmlns="http://www.w3.org/2000/svg" xmlns:xlink="http://www.w3.org/1999/xlink">
<g id="graph0" class="graph" transform="scale(1 1) rotate(0) translate(4 237)">
<title>Graphical Class Hierarchy</title>
<!-- Node0 -->
<g id="Node000000" class="node">
<title>Node0</title>
<g id="a_Node000000"><a xlink:href="interfaceWolfstagInteractive_1_1ConvoCore_1_1IConvoCoreCharacterDisplay.html" target="_top" xlink:title=" ">
<polygon fill="white" stroke="#666666" points="182,-226.5 0,-226.5 0,-196.5 182,-196.5 182,-226.5"/>
<text text-anchor="start" x="8" y="-214.5" font-family="Helvetica,sans-Serif" font-size="10.00">WolfstagInteractive.Convo</text>
<text text-anchor="middle" x="91" y="-203.5" font-family="Helvetica,sans-Serif" font-size="10.00">Core.IConvoCoreCharacterDisplay</text>
</a>
</g>
</g>
<!-- Node1 -->
<g id="Node000001" class="node">
<title>Node1</title>
<g id="a_Node000001"><a xlink:href="classWolfstagInteractive_1_1ConvoCore_1_1ConvoCoreCharacterDisplayBase.html" target="_top" xlink:title="Generic base class for all prefab&#45;based character displays. Applies scale, flip, and side offsets usi...">
<polygon fill="white" stroke="#666666" points="421,-226.5 218,-226.5 218,-196.5 421,-196.5 421,-226.5"/>
<text text-anchor="start" x="226" y="-214.5" font-family="Helvetica,sans-Serif" font-size="10.00">WolfstagInteractive.Convo</text>
<text text-anchor="middle" x="319.5" y="-203.5" font-family="Helvetica,sans-Serif" font-size="10.00">Core.ConvoCoreCharacterDisplayBase</text>
</a>
</g>
</g>
<!-- Node0&#45;&gt;Node1 -->
<g id="edge3_Node000000_Node000001" class="edge">
<title>Node0&#45;&gt;Node1</title>
<g id="a_edge3_Node000000_Node000001"><a xlink:title=" ">
<path fill="none" stroke="#63b8ff" d="M192.41,-211.5C200.85,-211.5 209.39,-211.5 217.83,-211.5"/>
<polygon fill="#63b8ff" stroke="#63b8ff" points="192.17,-208 182.17,-211.5 192.17,-215 192.17,-208"/>
</a>
</g>
</g>
<!-- Node2 -->
<g id="Node000002" class="node">
<title>Node2</title>
<g id="a_Node000002"><a xlink:href="classWolfstagInteractive_1_1ConvoCore_1_1SimplePrefabRepresentationDisplay.html" target="_top" xlink:title=" ">
<polygon fill="white" stroke="#666666" points="639,-233 457,-233 457,-192 639,-192 639,-233"/>
<text text-anchor="start" x="465" y="-221" font-family="Helvetica,sans-Serif" font-size="10.00">WolfstagInteractive.Convo</text>
<text text-anchor="start" x="465" y="-210" font-family="Helvetica,sans-Serif" font-size="10.00">Core.SimplePrefabRepresentation</text>
<text text-anchor="middle" x="548" y="-199" font-family="Helvetica,sans-Serif" font-size="10.00">Display</text>
</a>
</g>
</g>
<!-- Node1&#45;&gt;Node2 -->
<g id="edge4_Node000001_Node000002" class="edge">
<title>Node1&#45;&gt;Node2</title>
<g id="a_edge4_Node000001_Node000002"><a xlink:title=" ">
<path fill="none" stroke="#63b8ff" d="M431.27,-211.99C439.89,-212.03 448.53,-212.07 456.99,-212.1"/>
<polygon fill="#63b8ff" stroke="#63b8ff" points="431.18,-208.49 421.17,-211.94 431.15,-215.49 431.18,-208.49"/>
</a>
</g>
</g>
<!-- Node9 -->
<g id="Node000009" class="node">
<title>Node9</title>
<g id="a_Node000009"><a xlink:href="interfaceWolfstagInteractive_1_1ConvoCore_1_1IUIFoundation.html" target="_top" xlink:title=" ">
<polygon fill="white" stroke="#666666" points="164,-175.5 18,-175.5 18,-145.5 164,-145.5 164,-175.5"/>
<text text-anchor="start" x="26" y="-163.5" font-family="Helvetica,sans-Serif" font-size="10.00">WolfstagInteractive.Convo</text>
<text text-anchor="middle" x="91" y="-152.5" font-family="Helvetica,sans-Serif" font-size="10.00">Core.IUIFoundation</text>
</a>
</g>
</g>
<!-- Node7 -->
<g id="Node000007" class="node">
<title>Node7</title>
<g id="a_Node000007"><a xlink:href="classWolfstagInteractive_1_1ConvoCore_1_1ConvoCoreUIFoundation.html" target="_top" xlink:title="Used as a basis of any UI that can be assigned in the inspector that includes all the base functions ...">
<polygon fill="white" stroke="#666666" points="399.5,-175.5 239.5,-175.5 239.5,-145.5 399.5,-145.5 399.5,-175.5"/>
<text text-anchor="start" x="247.5" y="-163.5" font-family="Helvetica,sans-Serif" font-size="10.00">WolfstagInteractive.Convo</text>
<text text-anchor="middle" x="319.5" y="-152.5" font-family="Helvetica,sans-Serif" font-size="10.00">Core.ConvoCoreUIFoundation</text>
</a>
</g>
</g>
<!-- Node9&#45;&gt;Node7 -->
<g id="edge5_Node000009_Node000007" class="edge">
<title>Node9&#45;&gt;Node7</title>
<g id="a_edge5_Node000009_Node000007"><a xlink:title=" ">
<path fill="none" stroke="#63b8ff" d="M174.55,-160.5C195.72,-160.5 218.45,-160.5 239.45,-160.5"/>
<polygon fill="#63b8ff" stroke="#63b8ff" points="174.29,-157 164.29,-160.5 174.29,-164 174.29,-157"/>
</a>
</g>
</g>
<!-- Node8 -->
<g id="Node000008" class="node">
<title>Node8</title>
<g id="a_Node000008"><a xlink:href="classWolfstagInteractive_1_1ConvoCore_1_1ConvoCoreSampleUI.html" target="_top" xlink:title=" ">
<polygon fill="white" stroke="#666666" points="621,-173.5 475,-173.5 475,-143.5 621,-143.5 621,-173.5"/>
<text text-anchor="start" x="483" y="-161.5" font-family="Helvetica,sans-Serif" font-size="10.00">WolfstagInteractive.Convo</text>
<text text-anchor="middle" x="548" y="-150.5" font-family="Helvetica,sans-Serif" font-size="10.00">Core.ConvoCoreSampleUI</text>
</a>
</g>
</g>
<!-- Node7&#45;&gt;Node8 -->
<g id="edge6_Node000007_Node000008" class="edge">
<title>Node7&#45;&gt;Node8</title>
<g id="a_edge6_Node000007_Node000008"><a xlink:title=" ">
<path fill="none" stroke="#63b8ff" d="M409.83,-159.71C431.33,-159.52 454.03,-159.32 474.65,-159.14"/>
<polygon fill="#63b8ff" stroke="#63b8ff" points="409.69,-156.21 399.72,-159.8 409.75,-163.21 409.69,-156.21"/>
</a>
</g>
</g>
<!-- Node3 -->
<g id="Node000003" class="node">
<title>Node3</title>
<g id="a_Node000003"><a xlink:title=" ">
<polygon fill="#e0e0e0" stroke="#999999" points="137.5,-127 44.5,-127 44.5,-108 137.5,-108 137.5,-127"/>
<text text-anchor="middle" x="91" y="-115" font-family="Helvetica,sans-Serif" font-size="10.00">MonoBehaviour</text>
</a>
</g>
</g>
<!-- Node3&#45;&gt;Node1 -->
<g id="edge9_Node000003_Node000001" class="edge">
<title>Node3&#45;&gt;Node1</title>
<g id="a_edge9_Node000003_Node000001"><a xlink:title=" ">
<path fill="none" stroke="#63b8ff" d="M147.84,-122.82C159.75,-125.67 171.8,-129.99 182,-136.5 204.48,-150.84 195.91,-169.56 218,-184.5 225.03,-189.26 232.87,-193.18 240.98,-196.41"/>
<polygon fill="#63b8ff" stroke="#63b8ff" points="148.42,-119.36 137.91,-120.75 146.99,-126.21 148.42,-119.36"/>
</a>
</g>
</g>
<!-- Node3&#45;&gt;Node7 -->
<g id="edge11_Node000003_Node000007" class="edge">
<title>Node3&#45;&gt;Node7</title>
<g id="a_edge11_Node000003_Node000007"><a xlink:title=" ">
<path fill="none" stroke="#63b8ff" d="M147.42,-128.02C174.99,-133.26 208.81,-139.68 239.08,-145.42"/>
<polygon fill="#63b8ff" stroke="#63b8ff" points="148.04,-124.58 137.56,-126.15 146.73,-131.45 148.04,-124.58"/>
</a>
</g>
</g>
<!-- Node4 -->
<g id="Node000004" class="node">
<title>Node4</title>
<g id="a_Node000004"><a xlink:href="classConvoCorePrefabPool.html" target="_top" xlink:title=" ">
<polygon fill="white" stroke="#666666" points="380.5,-127 258.5,-127 258.5,-108 380.5,-108 380.5,-127"/>
<text text-anchor="middle" x="319.5" y="-115" font-family="Helvetica,sans-Serif" font-size="10.00">ConvoCorePrefabPool</text>
</a>
</g>
</g>
<!-- Node3&#45;&gt;Node4 -->
<g id="edge7_Node000003_Node000004" class="edge">
<title>Node3&#45;&gt;Node4</title>
<g id="a_edge7_Node000003_Node000004"><a xlink:title=" ">
<path fill="none" stroke="#63b8ff" d="M147.67,-117.5C181.26,-117.5 224.05,-117.5 258.4,-117.5"/>
<polygon fill="#63b8ff" stroke="#63b8ff" points="147.56,-114 137.56,-117.5 147.56,-121 147.56,-114"/>
</a>
</g>
</g>
<!-- Node5 -->
<g id="Node000005" class="node">
<title>Node5</title>
<g id="a_Node000005"><a xlink:href="classWolfstagInteractive_1_1ConvoCore_1_1ConvoCore.html" target="_top" xlink:title=" ">
<polygon fill="white" stroke="#666666" points="392.5,-89.5 246.5,-89.5 246.5,-59.5 392.5,-59.5 392.5,-89.5"/>
<text text-anchor="start" x="254.5" y="-77.5" font-family="Helvetica,sans-Serif" font-size="10.00">WolfstagInteractive.Convo</text>
<text text-anchor="middle" x="319.5" y="-66.5" font-family="Helvetica,sans-Serif" font-size="10.00">Core.ConvoCore</text>
</a>
</g>
</g>
<!-- Node3&#45;&gt;Node5 -->
<g id="edge8_Node000003_Node000005" class="edge">
<title>Node3&#45;&gt;Node5</title>
<g id="a_edge8_Node000003_Node000005"><a xlink:title=" ">
<path fill="none" stroke="#63b8ff" d="M147.75,-106.92C177.47,-101.27 214.37,-94.27 246.26,-88.22"/>
<polygon fill="#63b8ff" stroke="#63b8ff" points="146.73,-103.55 137.56,-108.85 148.04,-110.42 146.73,-103.55"/>
</a>
</g>
</g>
<!-- Node6 -->
<g id="Node000006" class="node">
<title>Node6</title>
<g id="a_Node000006"><a xlink:href="classWolfstagInteractive_1_1ConvoCore_1_1ConvoCorePrefabRepresentationSpawner.html" target="_top" xlink:title=" ">
<polygon fill="white" stroke="#666666" points="420,-41 219,-41 219,0 420,0 420,-41"/>
<text text-anchor="start" x="227" y="-29" font-family="Helvetica,sans-Serif" font-size="10.00">WolfstagInteractive.Convo</text>
<text text-anchor="start" x="227" y="-18" font-family="Helvetica,sans-Serif" font-size="10.00">Core.ConvoCorePrefabRepresentation</text>
<text text-anchor="middle" x="319.5" y="-7" font-family="Helvetica,sans-Serif" font-size="10.00">Spawner</text>
</a>
</g>
</g>
<!-- Node3&#45;&gt;Node6 -->
<g id="edge10_Node000003_Node000006" class="edge">
<title>Node3&#45;&gt;Node6</title>
<g id="a_edge10_Node000003_Node000006"><a xlink:title=" ">
<path fill="none" stroke="#63b8ff" d="M116.58,-102.54C141.47,-87.85 181.42,-65.51 218,-50.5 226.17,-47.15 234.85,-43.99 243.56,-41.07"/>
<polygon fill="#63b8ff" stroke="#63b8ff" points="114.61,-99.64 107.81,-107.77 118.19,-105.65 114.61,-99.64"/>
</a>
</g>
</g>
</g>
</svg>
