<?xml version="1.0" encoding="UTF-8" standalone="no"?>
<!DOCTYPE svg PUBLIC "-//W3C//DTD SVG 1.1//EN"
 "http://www.w3.org/Graphics/SVG/1.1/DTD/svg11.dtd">
<!-- Generated by graphviz version 2.43.0 (0)
 -->
<!-- Title: Graphical Class Hierarchy Pages: 1 -->
<svg width="647pt" height="296pt"
 viewBox="0.00 0.00 647.00 295.50" xmlns="http://www.w3.org/2000/svg" xmlns:xlink="http://www.w3.org/1999/xlink">
<g id="graph0" class="graph" transform="scale(1 1) rotate(0) translate(4 291.5)">
<title>Graphical Class Hierarchy</title>
<!-- Node0 -->
<g id="Node000000" class="node">
<title>Node0</title>
<g id="a_Node000000"><a xlink:href="interfaceWolfstagInteractive_1_1ConvoCore_1_1IConvoCoreCharacterDisplay.html" target="_top" xlink:title=" ">
<polygon fill="white" stroke="#666666" points="182,-282 0,-282 0,-252 182,-252 182,-282"/>
<text text-anchor="start" x="8" y="-270" font-family="Helvetica,sans-Serif" font-size="10.00">WolfstagInteractive.Convo</text>
<text text-anchor="middle" x="91" y="-259" font-family="Helvetica,sans-Serif" font-size="10.00">Core.IConvoCoreCharacterDisplay</text>
</a>
</g>
</g>
<!-- Node1 -->
<g id="Node000001" class="node">
<title>Node1</title>
<g id="a_Node000001"><a xlink:href="classWolfstagInteractive_1_1ConvoCore_1_1ConvoCoreCharacterDisplayBase.html" target="_top" xlink:title="Generic base class for all prefab&#45;based character displays. Applies scale, flip, and side offsets usi...">
<polygon fill="white" stroke="#666666" points="421,-282 218,-282 218,-252 421,-252 421,-282"/>
<text text-anchor="start" x="226" y="-270" font-family="Helvetica,sans-Serif" font-size="10.00">WolfstagInteractive.Convo</text>
<text text-anchor="middle" x="319.5" y="-259" font-family="Helvetica,sans-Serif" font-size="10.00">Core.ConvoCoreCharacterDisplayBase</text>
</a>
</g>
</g>
<!-- Node0&#45;&gt;Node1 -->
<g id="edge4_Node000000_Node000001" class="edge">
<title>Node0&#45;&gt;Node1</title>
<g id="a_edge4_Node000000_Node000001"><a xlink:title=" ">
<path fill="none" stroke="#63b8ff" d="M192.41,-267C200.85,-267 209.39,-267 217.83,-267"/>
<polygon fill="#63b8ff" stroke="#63b8ff" points="192.17,-263.5 182.17,-267 192.17,-270.5 192.17,-263.5"/>
</a>
</g>
</g>
<!-- Node2 -->
<g id="Node000002" class="node">
<title>Node2</title>
<g id="a_Node000002"><a xlink:href="classWolfstagInteractive_1_1ConvoCore_1_1SimplePrefabRepresentationDisplay.html" target="_top" xlink:title=" ">
<polygon fill="white" stroke="#666666" points="639,-287.5 457,-287.5 457,-246.5 639,-246.5 639,-287.5"/>
<text text-anchor="start" x="465" y="-275.5" font-family="Helvetica,sans-Serif" font-size="10.00">WolfstagInteractive.Convo</text>
<text text-anchor="start" x="465" y="-264.5" font-family="Helvetica,sans-Serif" font-size="10.00">Core.SimplePrefabRepresentation</text>
<text text-anchor="middle" x="548" y="-253.5" font-family="Helvetica,sans-Serif" font-size="10.00">Display</text>
</a>
</g>
</g>
<!-- Node1&#45;&gt;Node2 -->
<g id="edge5_Node000001_Node000002" class="edge">
<title>Node1&#45;&gt;Node2</title>
<g id="a_edge5_Node000001_Node000002"><a xlink:title=" ">
<path fill="none" stroke="#63b8ff" d="M431.27,-267C439.89,-267 448.53,-267 456.99,-267"/>
<polygon fill="#63b8ff" stroke="#63b8ff" points="431.17,-263.5 421.17,-267 431.17,-270.5 431.17,-263.5"/>
</a>
</g>
</g>
<!-- Node5 -->
<g id="Node000005" class="node">
<title>Node5</title>
<g id="a_Node000005"><a xlink:href="interfaceWolfstagInteractive_1_1ConvoCore_1_1IConvoCoreRunner.html" target="_top" xlink:title=" ">
<polygon fill="white" stroke="#666666" points="164,-234 18,-234 18,-204 164,-204 164,-234"/>
<text text-anchor="start" x="26" y="-222" font-family="Helvetica,sans-Serif" font-size="10.00">WolfstagInteractive.Convo</text>
<text text-anchor="middle" x="91" y="-211" font-family="Helvetica,sans-Serif" font-size="10.00">Core.IConvoCoreRunner</text>
</a>
</g>
</g>
<!-- Node4 -->
<g id="Node000004" class="node">
<title>Node4</title>
<g id="a_Node000004"><a xlink:href="classWolfstagInteractive_1_1ConvoCore_1_1ConvoCore.html" target="_top" xlink:title=" ">
<polygon fill="white" stroke="#666666" points="392.5,-234 246.5,-234 246.5,-204 392.5,-204 392.5,-234"/>
<text text-anchor="start" x="254.5" y="-222" font-family="Helvetica,sans-Serif" font-size="10.00">WolfstagInteractive.Convo</text>
<text text-anchor="middle" x="319.5" y="-211" font-family="Helvetica,sans-Serif" font-size="10.00">Core.ConvoCore</text>
</a>
</g>
</g>
<!-- Node5&#45;&gt;Node4 -->
<g id="edge6_Node000005_Node000004" class="edge">
<title>Node5&#45;&gt;Node4</title>
<g id="a_edge6_Node000005_Node000004"><a xlink:title=" ">
<path fill="none" stroke="#63b8ff" d="M174.56,-219C198,-219 223.33,-219 246.12,-219"/>
<polygon fill="#63b8ff" stroke="#63b8ff" points="174.29,-215.5 164.29,-219 174.29,-222.5 174.29,-215.5"/>
</a>
</g>
</g>
<!-- Node11 -->
<g id="Node000011" class="node">
<title>Node11</title>
<g id="a_Node000011"><a xlink:href="interfaceWolfstagInteractive_1_1ConvoCore_1_1IUIFoundation.html" target="_top" xlink:title=" ">
<polygon fill="white" stroke="#666666" points="164,-30 18,-30 18,0 164,0 164,-30"/>
<text text-anchor="start" x="26" y="-18" font-family="Helvetica,sans-Serif" font-size="10.00">WolfstagInteractive.Convo</text>
<text text-anchor="middle" x="91" y="-7" font-family="Helvetica,sans-Serif" font-size="10.00">Core.IUIFoundation</text>
</a>
</g>
</g>
<!-- Node9 -->
<g id="Node000009" class="node">
<title>Node9</title>
<g id="a_Node000009"><a xlink:href="classWolfstagInteractive_1_1ConvoCore_1_1ConvoCoreUIFoundation.html" target="_top" xlink:title="Used as a basis of any UI that can be assigned in the inspector that includes all the base functions ...">
<polygon fill="white" stroke="#666666" points="399.5,-30 239.5,-30 239.5,0 399.5,0 399.5,-30"/>
<text text-anchor="start" x="247.5" y="-18" font-family="Helvetica,sans-Serif" font-size="10.00">WolfstagInteractive.Convo</text>
<text text-anchor="middle" x="319.5" y="-7" font-family="Helvetica,sans-Serif" font-size="10.00">Core.ConvoCoreUIFoundation</text>
</a>
</g>
</g>
<!-- Node11&#45;&gt;Node9 -->
<g id="edge7_Node000011_Node000009" class="edge">
<title>Node11&#45;&gt;Node9</title>
<g id="a_edge7_Node000011_Node000009"><a xlink:title=" ">
<path fill="none" stroke="#63b8ff" d="M174.55,-15C195.72,-15 218.45,-15 239.45,-15"/>
<polygon fill="#63b8ff" stroke="#63b8ff" points="174.29,-11.5 164.29,-15 174.29,-18.5 174.29,-11.5"/>
</a>
</g>
</g>
<!-- Node10 -->
<g id="Node000010" class="node">
<title>Node10</title>
<g id="a_Node000010"><a xlink:href="classWolfstagInteractive_1_1ConvoCore_1_1ConvoCoreSampleUI.html" target="_top" xlink:title=" ">
<polygon fill="white" stroke="#666666" points="621,-30 475,-30 475,0 621,0 621,-30"/>
<text text-anchor="start" x="483" y="-18" font-family="Helvetica,sans-Serif" font-size="10.00">WolfstagInteractive.Convo</text>
<text text-anchor="middle" x="548" y="-7" font-family="Helvetica,sans-Serif" font-size="10.00">Core.ConvoCoreSampleUI</text>
</a>
</g>
</g>
<!-- Node9&#45;&gt;Node10 -->
<g id="edge8_Node000009_Node000010" class="edge">
<title>Node9&#45;&gt;Node10</title>
<g id="a_edge8_Node000009_Node000010"><a xlink:title=" ">
<path fill="none" stroke="#63b8ff" d="M409.83,-15C431.33,-15 454.03,-15 474.65,-15"/>
<polygon fill="#63b8ff" stroke="#63b8ff" points="409.72,-11.5 399.72,-15 409.72,-18.5 409.72,-11.5"/>
</a>
</g>
</g>
<!-- Node3 -->
<g id="Node000003" class="node">
<title>Node3</title>
<g id="a_Node000003"><a xlink:title=" ">
<polygon fill="#e0e0e0" stroke="#999999" points="137.5,-156.5 44.5,-156.5 44.5,-137.5 137.5,-137.5 137.5,-156.5"/>
<text text-anchor="middle" x="91" y="-144.5" font-family="Helvetica,sans-Serif" font-size="10.00">MonoBehaviour</text>
</a>
</g>
</g>
<!-- Node3&#45;&gt;Node1 -->
<g id="edge10_Node000003_Node000001" class="edge">
<title>Node3&#45;&gt;Node1</title>
<g id="a_edge10_Node000003_Node000001"><a xlink:title=" ">
<path fill="none" stroke="#63b8ff" d="M126.16,-160.89C143.97,-169.15 165.44,-180.8 182,-195 202.25,-212.35 195.71,-228.37 218,-243 223.25,-246.45 228.94,-249.4 234.86,-251.93"/>
<polygon fill="#63b8ff" stroke="#63b8ff" points="127.25,-157.54 116.7,-156.65 124.39,-163.93 127.25,-157.54"/>
</a>
</g>
</g>
<!-- Node3&#45;&gt;Node4 -->
<g id="edge9_Node000003_Node000004" class="edge">
<title>Node3&#45;&gt;Node4</title>
<g id="a_edge9_Node000003_Node000004"><a xlink:title=" ">
<path fill="none" stroke="#63b8ff" d="M123.88,-160.46C149.12,-170.8 185.42,-184.95 218,-195 228.37,-198.2 239.45,-201.23 250.33,-203.98"/>
<polygon fill="#63b8ff" stroke="#63b8ff" points="125.03,-157.15 114.45,-156.57 122.36,-163.62 125.03,-157.15"/>
</a>
</g>
</g>
<!-- Node3&#45;&gt;Node9 -->
<g id="edge14_Node000003_Node000009" class="edge">
<title>Node3&#45;&gt;Node9</title>
<g id="a_edge14_Node000003_Node000009"><a xlink:title=" ">
<path fill="none" stroke="#63b8ff" d="M107.23,-129.52C129.24,-105.41 172.31,-62.3 218,-39 224.79,-35.54 232.1,-32.56 239.56,-30.01"/>
<polygon fill="#63b8ff" stroke="#63b8ff" points="104.43,-127.41 100.36,-137.2 109.64,-132.08 104.43,-127.41"/>
</a>
</g>
</g>
<!-- Node6 -->
<g id="Node000006" class="node">
<title>Node6</title>
<g id="a_Node000006"><a xlink:href="classWolfstagInteractive_1_1ConvoCore_1_1ConvoCoreDialogueHistoryUI.html" target="_top" xlink:title=" ">
<polygon fill="white" stroke="#666666" points="412,-186 227,-186 227,-156 412,-156 412,-186"/>
<text text-anchor="start" x="235" y="-174" font-family="Helvetica,sans-Serif" font-size="10.00">WolfstagInteractive.Convo</text>
<text text-anchor="middle" x="319.5" y="-163" font-family="Helvetica,sans-Serif" font-size="10.00">Core.ConvoCoreDialogueHistoryUI</text>
</a>
</g>
</g>
<!-- Node3&#45;&gt;Node6 -->
<g id="edge11_Node000003_Node000006" class="edge">
<title>Node3&#45;&gt;Node6</title>
<g id="a_edge11_Node000003_Node000006"><a xlink:title=" ">
<path fill="none" stroke="#63b8ff" d="M147.8,-152.91C171.58,-155.43 199.95,-158.44 226.67,-161.27"/>
<polygon fill="#63b8ff" stroke="#63b8ff" points="147.88,-149.4 137.56,-151.83 147.14,-156.36 147.88,-149.4"/>
</a>
</g>
</g>
<!-- Node7 -->
<g id="Node000007" class="node">
<title>Node7</title>
<g id="a_Node000007"><a xlink:href="classWolfstagInteractive_1_1ConvoCore_1_1ConvoCorePrefabPool.html" target="_top" xlink:title=" ">
<polygon fill="white" stroke="#666666" points="393.5,-138 245.5,-138 245.5,-108 393.5,-108 393.5,-138"/>
<text text-anchor="start" x="253.5" y="-126" font-family="Helvetica,sans-Serif" font-size="10.00">WolfstagInteractive.Convo</text>
<text text-anchor="middle" x="319.5" y="-115" font-family="Helvetica,sans-Serif" font-size="10.00">Core.ConvoCorePrefabPool</text>
</a>
</g>
</g>
<!-- Node3&#45;&gt;Node7 -->
<g id="edge12_Node000003_Node000007" class="edge">
<title>Node3&#45;&gt;Node7</title>
<g id="a_edge12_Node000003_Node000007"><a xlink:title=" ">
<path fill="none" stroke="#63b8ff" d="M147.67,-141.1C177.12,-137.98 213.65,-134.11 245.37,-130.75"/>
<polygon fill="#63b8ff" stroke="#63b8ff" points="147.14,-137.64 137.56,-142.17 147.88,-144.6 147.14,-137.64"/>
</a>
</g>
</g>
<!-- Node8 -->
<g id="Node000008" class="node">
<title>Node8</title>
<g id="a_Node000008"><a xlink:href="classWolfstagInteractive_1_1ConvoCore_1_1ConvoCorePrefabRepresentationSpawner.html" target="_top" xlink:title=" ">
<polygon fill="white" stroke="#666666" points="420,-89.5 219,-89.5 219,-48.5 420,-48.5 420,-89.5"/>
<text text-anchor="start" x="227" y="-77.5" font-family="Helvetica,sans-Serif" font-size="10.00">WolfstagInteractive.Convo</text>
<text text-anchor="start" x="227" y="-66.5" font-family="Helvetica,sans-Serif" font-size="10.00">Core.ConvoCorePrefabRepresentation</text>
<text text-anchor="middle" x="319.5" y="-55.5" font-family="Helvetica,sans-Serif" font-size="10.00">Spawner</text>
</a>
</g>
</g>
<!-- Node3&#45;&gt;Node8 -->
<g id="edge13_Node000003_Node000008" class="edge">
<title>Node3&#45;&gt;Node8</title>
<g id="a_edge13_Node000003_Node000008"><a xlink:title=" ">
<path fill="none" stroke="#63b8ff" d="M124.97,-133.67C150.25,-123.64 186.1,-109.82 218,-99 227.4,-95.81 237.35,-92.62 247.19,-89.57"/>
<polygon fill="#63b8ff" stroke="#63b8ff" points="123.49,-130.5 115.5,-137.45 126.08,-137 123.49,-130.5"/>
</a>
</g>
</g>
</g>
</svg>
