<?xml version="1.0" encoding="UTF-8" standalone="no"?>
<!DOCTYPE svg PUBLIC "-//W3C//DTD SVG 1.1//EN"
 "http://www.w3.org/Graphics/SVG/1.1/DTD/svg11.dtd">
<!-- Generated by graphviz version 2.43.0 (0)
 -->
<!-- Title: Graphical Class Hierarchy Pages: 1 -->
<svg width="712pt" height="547pt"
 viewBox="0.00 0.00 712.00 547.00" xmlns="http://www.w3.org/2000/svg" xmlns:xlink="http://www.w3.org/1999/xlink">
<g id="graph0" class="graph" transform="scale(1 1) rotate(0) translate(4 543)">
<title>Graphical Class Hierarchy</title>
<!-- Node0 -->
<g id="Node000000" class="node">
<title>Node0</title>
<g id="a_Node000000"><a xlink:href="interfaceWolfstagInteractive_1_1ConvoCore_1_1IEditorPreviewableRepresentation.html" target="_top" xlink:title=" ">
<polygon fill="white" stroke="#666666" points="208,-491 0,-491 0,-461 208,-461 208,-491"/>
<text text-anchor="start" x="8" y="-479" font-family="Helvetica,sans-Serif" font-size="10.00">WolfstagInteractive.Convo</text>
<text text-anchor="middle" x="104" y="-468" font-family="Helvetica,sans-Serif" font-size="10.00">Core.IEditorPreviewableRepresentation</text>
</a>
</g>
</g>
<!-- Node1 -->
<g id="Node000001" class="node">
<title>Node1</title>
<g id="a_Node000001"><a xlink:href="classWolfstagInteractive_1_1ConvoCore_1_1CharacterRepresentationBase.html" target="_top" xlink:title=" ">
<polygon fill="white" stroke="#666666" points="441,-491 253,-491 253,-461 441,-461 441,-491"/>
<text text-anchor="start" x="261" y="-479" font-family="Helvetica,sans-Serif" font-size="10.00">WolfstagInteractive.Convo</text>
<text text-anchor="middle" x="347" y="-468" font-family="Helvetica,sans-Serif" font-size="10.00">Core.CharacterRepresentationBase</text>
</a>
</g>
</g>
<!-- Node0&#45;&gt;Node1 -->
<g id="edge21_Node000000_Node000001" class="edge">
<title>Node0&#45;&gt;Node1</title>
<g id="a_edge21_Node000000_Node000001"><a xlink:title=" ">
<path fill="none" stroke="#63b8ff" d="M218.37,-476C229.92,-476 241.56,-476 252.86,-476"/>
<polygon fill="#63b8ff" stroke="#63b8ff" points="218.25,-472.5 208.25,-476 218.25,-479.5 218.25,-472.5"/>
</a>
</g>
</g>
<!-- Node2 -->
<g id="Node000002" class="node">
<title>Node2</title>
<g id="a_Node000002"><a xlink:href="classWolfstagInteractive_1_1ConvoCore_1_1PrefabCharacterRepresentationData.html" target="_top" xlink:title=" ">
<polygon fill="white" stroke="#666666" points="704,-539 486,-539 486,-509 704,-509 704,-539"/>
<text text-anchor="start" x="494" y="-527" font-family="Helvetica,sans-Serif" font-size="10.00">WolfstagInteractive.Convo</text>
<text text-anchor="middle" x="595" y="-516" font-family="Helvetica,sans-Serif" font-size="10.00">Core.PrefabCharacterRepresentationData</text>
</a>
</g>
</g>
<!-- Node1&#45;&gt;Node2 -->
<g id="edge22_Node000001_Node000002" class="edge">
<title>Node1&#45;&gt;Node2</title>
<g id="a_edge22_Node000001_Node000002"><a xlink:title=" ">
<path fill="none" stroke="#63b8ff" d="M435.27,-493.03C461.98,-498.24 491.15,-503.93 517.11,-509"/>
<polygon fill="#63b8ff" stroke="#63b8ff" points="435.65,-489.54 425.16,-491.06 434.31,-496.41 435.65,-489.54"/>
</a>
</g>
</g>
<!-- Node3 -->
<g id="Node000003" class="node">
<title>Node3</title>
<g id="a_Node000003"><a xlink:href="classWolfstagInteractive_1_1ConvoCore_1_1SpriteCharacterRepresentationData.html" target="_top" xlink:title=" ">
<polygon fill="white" stroke="#666666" points="702.5,-491 487.5,-491 487.5,-461 702.5,-461 702.5,-491"/>
<text text-anchor="start" x="495.5" y="-479" font-family="Helvetica,sans-Serif" font-size="10.00">WolfstagInteractive.Convo</text>
<text text-anchor="middle" x="595" y="-468" font-family="Helvetica,sans-Serif" font-size="10.00">Core.SpriteCharacterRepresentationData</text>
</a>
</g>
</g>
<!-- Node1&#45;&gt;Node3 -->
<g id="edge23_Node000001_Node000003" class="edge">
<title>Node1&#45;&gt;Node3</title>
<g id="a_edge23_Node000001_Node000003"><a xlink:title=" ">
<path fill="none" stroke="#63b8ff" d="M451.35,-476C463.22,-476 475.34,-476 487.25,-476"/>
<polygon fill="#63b8ff" stroke="#63b8ff" points="451,-472.5 441,-476 451,-479.5 451,-472.5"/>
</a>
</g>
</g>
<!-- Node4 -->
<g id="Node000004" class="node">
<title>Node4</title>
<g id="a_Node000004"><a xlink:title=" ">
<polygon fill="#e0e0e0" stroke="#999999" points="152.5,-195.5 55.5,-195.5 55.5,-176.5 152.5,-176.5 152.5,-195.5"/>
<text text-anchor="middle" x="104" y="-183.5" font-family="Helvetica,sans-Serif" font-size="10.00">ScriptableObject</text>
</a>
</g>
</g>
<!-- Node4&#45;&gt;Node1 -->
<g id="edge31_Node000004_Node000001" class="edge">
<title>Node4&#45;&gt;Node1</title>
<g id="a_edge31_Node000004_Node000001"><a xlink:title=" ">
<path fill="none" stroke="#63b8ff" d="M119.46,-203.4C162.96,-255.75 292.2,-411.26 333.3,-460.72"/>
<polygon fill="#63b8ff" stroke="#63b8ff" points="122.1,-201.1 113.02,-195.65 116.72,-205.58 122.1,-201.1"/>
</a>
</g>
</g>
<!-- Node5 -->
<g id="Node000005" class="node">
<title>Node5</title>
<g id="a_Node000005"><a xlink:href="classWolfstagInteractive_1_1ConvoCore_1_1BaseAction.html" target="_top" xlink:title=" ">
<polygon fill="white" stroke="#666666" points="420,-330 274,-330 274,-300 420,-300 420,-330"/>
<text text-anchor="start" x="282" y="-318" font-family="Helvetica,sans-Serif" font-size="10.00">WolfstagInteractive.Convo</text>
<text text-anchor="middle" x="347" y="-307" font-family="Helvetica,sans-Serif" font-size="10.00">Core.BaseAction</text>
</a>
</g>
</g>
<!-- Node4&#45;&gt;Node5 -->
<g id="edge24_Node000004_Node000005" class="edge">
<title>Node4&#45;&gt;Node5</title>
<g id="a_edge24_Node000004_Node000005"><a xlink:title=" ">
<path fill="none" stroke="#63b8ff" d="M122.32,-202.97C147.16,-226.34 195.3,-268.13 244,-291 253.39,-295.41 263.65,-299.04 273.93,-302.03"/>
<polygon fill="#63b8ff" stroke="#63b8ff" points="124.47,-200.19 114.83,-195.81 119.64,-205.25 124.47,-200.19"/>
</a>
</g>
</g>
<!-- Node12 -->
<g id="Node000012" class="node">
<title>Node12</title>
<g id="a_Node000012"><a xlink:href="classWolfstagInteractive_1_1ConvoCore_1_1ConvoCoreCharacterEmotion.html" target="_top" xlink:title=" ">
<polygon fill="white" stroke="#666666" points="438.5,-282 255.5,-282 255.5,-252 438.5,-252 438.5,-282"/>
<text text-anchor="start" x="263.5" y="-270" font-family="Helvetica,sans-Serif" font-size="10.00">WolfstagInteractive.Convo</text>
<text text-anchor="middle" x="347" y="-259" font-family="Helvetica,sans-Serif" font-size="10.00">Core.ConvoCoreCharacterEmotion</text>
</a>
</g>
</g>
<!-- Node4&#45;&gt;Node12 -->
<g id="edge32_Node000004_Node000012" class="edge">
<title>Node4&#45;&gt;Node12</title>
<g id="a_edge32_Node000004_Node000012"><a xlink:title=" ">
<path fill="none" stroke="#63b8ff" d="M134.51,-199.7C162.31,-212.22 205.34,-230.61 244,-243 254.13,-246.25 264.96,-249.26 275.64,-251.99"/>
<polygon fill="#63b8ff" stroke="#63b8ff" points="135.9,-196.48 125.35,-195.54 133,-202.86 135.9,-196.48"/>
</a>
</g>
</g>
<!-- Node13 -->
<g id="Node000013" class="node">
<title>Node13</title>
<g id="a_Node000013"><a xlink:href="classWolfstagInteractive_1_1ConvoCore_1_1ConvoCoreCharacterProfileBaseData.html" target="_top" xlink:title=" ">
<polygon fill="white" stroke="#666666" points="433.5,-233.5 260.5,-233.5 260.5,-192.5 433.5,-192.5 433.5,-233.5"/>
<text text-anchor="start" x="268.5" y="-221.5" font-family="Helvetica,sans-Serif" font-size="10.00">WolfstagInteractive.Convo</text>
<text text-anchor="start" x="268.5" y="-210.5" font-family="Helvetica,sans-Serif" font-size="10.00">Core.ConvoCoreCharacterProfile</text>
<text text-anchor="middle" x="347" y="-199.5" font-family="Helvetica,sans-Serif" font-size="10.00">BaseData</text>
</a>
</g>
</g>
<!-- Node4&#45;&gt;Node13 -->
<g id="edge33_Node000004_Node000013" class="edge">
<title>Node4&#45;&gt;Node13</title>
<g id="a_edge33_Node000004_Node000013"><a xlink:title=" ">
<path fill="none" stroke="#63b8ff" d="M162.66,-192.46C191.91,-195.74 228.02,-199.78 260.44,-203.41"/>
<polygon fill="#63b8ff" stroke="#63b8ff" points="162.94,-188.97 152.61,-191.33 162.16,-195.93 162.94,-188.97"/>
</a>
</g>
</g>
<!-- Node14 -->
<g id="Node000014" class="node">
<title>Node14</title>
<g id="a_Node000014"><a xlink:href="classWolfstagInteractive_1_1ConvoCore_1_1ConvoCoreConversationData.html" target="_top" xlink:title=" ">
<polygon fill="white" stroke="#666666" points="438.5,-174 255.5,-174 255.5,-144 438.5,-144 438.5,-174"/>
<text text-anchor="start" x="263.5" y="-162" font-family="Helvetica,sans-Serif" font-size="10.00">WolfstagInteractive.Convo</text>
<text text-anchor="middle" x="347" y="-151" font-family="Helvetica,sans-Serif" font-size="10.00">Core.ConvoCoreConversationData</text>
</a>
</g>
</g>
<!-- Node4&#45;&gt;Node14 -->
<g id="edge34_Node000004_Node000014" class="edge">
<title>Node4&#45;&gt;Node14</title>
<g id="a_edge34_Node000004_Node000014"><a xlink:title=" ">
<path fill="none" stroke="#63b8ff" d="M162.88,-179.52C190.48,-176.42 224.16,-172.65 255.07,-169.19"/>
<polygon fill="#63b8ff" stroke="#63b8ff" points="162.16,-176.07 152.61,-180.67 162.94,-183.03 162.16,-176.07"/>
</a>
</g>
</g>
<!-- Node15 -->
<g id="Node000015" class="node">
<title>Node15</title>
<g id="a_Node000015"><a xlink:href="classWolfstagInteractive_1_1ConvoCore_1_1ConvoCoreHistoryRendererProfile.html" target="_top" xlink:title=" ">
<polygon fill="white" stroke="#666666" points="450,-126 244,-126 244,-96 450,-96 450,-126"/>
<text text-anchor="start" x="252" y="-114" font-family="Helvetica,sans-Serif" font-size="10.00">WolfstagInteractive.Convo</text>
<text text-anchor="middle" x="347" y="-103" font-family="Helvetica,sans-Serif" font-size="10.00">Core.ConvoCoreHistoryRendererProfile</text>
</a>
</g>
</g>
<!-- Node4&#45;&gt;Node15 -->
<g id="edge35_Node000004_Node000015" class="edge">
<title>Node4&#45;&gt;Node15</title>
<g id="a_edge35_Node000004_Node000015"><a xlink:title=" ">
<path fill="none" stroke="#63b8ff" d="M137.97,-172.62C165.9,-161.6 207.16,-146.05 244,-135 254.63,-131.81 265.98,-128.78 277.12,-126.01"/>
<polygon fill="#63b8ff" stroke="#63b8ff" points="136.32,-169.51 128.32,-176.46 138.9,-176.02 136.32,-169.51"/>
</a>
</g>
</g>
<!-- Node16 -->
<g id="Node000016" class="node">
<title>Node16</title>
<g id="a_Node000016"><a xlink:href="classWolfstagInteractive_1_1ConvoCore_1_1ConvoCoreLanguageSettings.html" target="_top" xlink:title=" ">
<polygon fill="white" stroke="#666666" points="438,-78 256,-78 256,-48 438,-48 438,-78"/>
<text text-anchor="start" x="264" y="-66" font-family="Helvetica,sans-Serif" font-size="10.00">WolfstagInteractive.Convo</text>
<text text-anchor="middle" x="347" y="-55" font-family="Helvetica,sans-Serif" font-size="10.00">Core.ConvoCoreLanguageSettings</text>
</a>
</g>
</g>
<!-- Node4&#45;&gt;Node16 -->
<g id="edge36_Node000004_Node000016" class="edge">
<title>Node4&#45;&gt;Node16</title>
<g id="a_edge36_Node000004_Node000016"><a xlink:title=" ">
<path fill="none" stroke="#63b8ff" d="M122.9,-169.71C148.07,-147.67 196.23,-108.62 244,-87 251.54,-83.59 259.62,-80.63 267.82,-78.07"/>
<polygon fill="#63b8ff" stroke="#63b8ff" points="120.42,-167.22 115.27,-176.48 125.07,-172.46 120.42,-167.22"/>
</a>
</g>
</g>
<!-- Node17 -->
<g id="Node000017" class="node">
<title>Node17</title>
<g id="a_Node000017"><a xlink:href="classWolfstagInteractive_1_1ConvoCore_1_1ConvoCoreSettings.html" target="_top" xlink:title=" ">
<polygon fill="white" stroke="#666666" points="420,-30 274,-30 274,0 420,0 420,-30"/>
<text text-anchor="start" x="282" y="-18" font-family="Helvetica,sans-Serif" font-size="10.00">WolfstagInteractive.Convo</text>
<text text-anchor="middle" x="347" y="-7" font-family="Helvetica,sans-Serif" font-size="10.00">Core.ConvoCoreSettings</text>
</a>
</g>
</g>
<!-- Node4&#45;&gt;Node17 -->
<g id="edge37_Node000004_Node000017" class="edge">
<title>Node4&#45;&gt;Node17</title>
<g id="a_edge37_Node000004_Node000017"><a xlink:title=" ">
<path fill="none" stroke="#63b8ff" d="M116.93,-167.62C138.38,-136.12 186.62,-72.03 244,-39 253.14,-33.74 263.38,-29.63 273.75,-26.42"/>
<polygon fill="#63b8ff" stroke="#63b8ff" points="113.79,-166.02 111.15,-176.28 119.61,-169.9 113.79,-166.02"/>
</a>
</g>
</g>
<!-- Node6 -->
<g id="Node000006" class="node">
<title>Node6</title>
<g id="a_Node000006"><a xlink:href="classWolfstagInteractive_1_1ConvoCore_1_1ConvoCoreAction__ActionGroup.html" target="_top" xlink:title=" ">
<polygon fill="white" stroke="#666666" points="690.5,-443 499.5,-443 499.5,-413 690.5,-413 690.5,-443"/>
<text text-anchor="start" x="507.5" y="-431" font-family="Helvetica,sans-Serif" font-size="10.00">WolfstagInteractive.Convo</text>
<text text-anchor="middle" x="595" y="-420" font-family="Helvetica,sans-Serif" font-size="10.00">Core.ConvoCoreAction_ActionGroup</text>
</a>
</g>
</g>
<!-- Node5&#45;&gt;Node6 -->
<g id="edge25_Node000005_Node000006" class="edge">
<title>Node5&#45;&gt;Node6</title>
<g id="a_edge25_Node000005_Node000006"><a xlink:title=" ">
<path fill="none" stroke="#63b8ff" d="M374.96,-336.54C401.66,-356.84 444.46,-386.65 486,-404 494.15,-407.41 502.86,-410.36 511.67,-412.92"/>
<polygon fill="#63b8ff" stroke="#63b8ff" points="376.94,-333.65 366.88,-330.32 372.66,-339.19 376.94,-333.65"/>
</a>
</g>
</g>
<!-- Node7 -->
<g id="Node000007" class="node">
<title>Node7</title>
<g id="a_Node000007"><a xlink:href="classWolfstagInteractive_1_1ConvoCore_1_1ConvoCoreAction__EnableDisableGameObject.html" target="_top" xlink:title=" ">
<polygon fill="white" stroke="#666666" points="695.5,-394.5 494.5,-394.5 494.5,-353.5 695.5,-353.5 695.5,-394.5"/>
<text text-anchor="start" x="502.5" y="-382.5" font-family="Helvetica,sans-Serif" font-size="10.00">WolfstagInteractive.Convo</text>
<text text-anchor="start" x="502.5" y="-371.5" font-family="Helvetica,sans-Serif" font-size="10.00">Core.ConvoCoreAction_EnableDisable</text>
<text text-anchor="middle" x="595" y="-360.5" font-family="Helvetica,sans-Serif" font-size="10.00">GameObject</text>
</a>
</g>
</g>
<!-- Node5&#45;&gt;Node7 -->
<g id="edge26_Node000005_Node000007" class="edge">
<title>Node5&#45;&gt;Node7</title>
<g id="a_edge26_Node000005_Node000007"><a xlink:title=" ">
<path fill="none" stroke="#63b8ff" d="M420.64,-332.42C448.11,-339.01 479.63,-346.57 508.2,-353.42"/>
<polygon fill="#63b8ff" stroke="#63b8ff" points="421.25,-328.97 410.71,-330.04 419.62,-335.78 421.25,-328.97"/>
</a>
</g>
</g>
<!-- Node8 -->
<g id="Node000008" class="node">
<title>Node8</title>
<g id="a_Node000008"><a xlink:href="classWolfstagInteractive_1_1ConvoCore_1_1ConvoCoreAction__FadeInOutSpriteRenderer.html" target="_top" xlink:title=" ">
<polygon fill="white" stroke="#666666" points="685,-335.5 505,-335.5 505,-294.5 685,-294.5 685,-335.5"/>
<text text-anchor="start" x="513" y="-323.5" font-family="Helvetica,sans-Serif" font-size="10.00">WolfstagInteractive.Convo</text>
<text text-anchor="start" x="513" y="-312.5" font-family="Helvetica,sans-Serif" font-size="10.00">Core.ConvoCoreAction_FadeInOut</text>
<text text-anchor="middle" x="595" y="-301.5" font-family="Helvetica,sans-Serif" font-size="10.00">SpriteRenderer</text>
</a>
</g>
</g>
<!-- Node5&#45;&gt;Node8 -->
<g id="edge27_Node000005_Node000008" class="edge">
<title>Node5&#45;&gt;Node8</title>
<g id="a_edge27_Node000005_Node000008"><a xlink:title=" ">
<path fill="none" stroke="#63b8ff" d="M430.25,-315C454.2,-315 480.47,-315 504.83,-315"/>
<polygon fill="#63b8ff" stroke="#63b8ff" points="430.15,-311.5 420.15,-315 430.15,-318.5 430.15,-311.5"/>
</a>
</g>
</g>
<!-- Node9 -->
<g id="Node000009" class="node">
<title>Node9</title>
<g id="a_Node000009"><a xlink:href="classWolfstagInteractive_1_1ConvoCore_1_1ConvoCoreAction__InstantiatePrefab.html" target="_top" xlink:title=" ">
<polygon fill="white" stroke="#666666" points="687,-276.5 503,-276.5 503,-235.5 687,-235.5 687,-276.5"/>
<text text-anchor="start" x="511" y="-264.5" font-family="Helvetica,sans-Serif" font-size="10.00">WolfstagInteractive.Convo</text>
<text text-anchor="start" x="511" y="-253.5" font-family="Helvetica,sans-Serif" font-size="10.00">Core.ConvoCoreAction_Instantiate</text>
<text text-anchor="middle" x="595" y="-242.5" font-family="Helvetica,sans-Serif" font-size="10.00">Prefab</text>
</a>
</g>
</g>
<!-- Node5&#45;&gt;Node9 -->
<g id="edge28_Node000005_Node000009" class="edge">
<title>Node5&#45;&gt;Node9</title>
<g id="a_edge28_Node000005_Node000009"><a xlink:title=" ">
<path fill="none" stroke="#63b8ff" d="M421.99,-297.66C431.42,-295.43 440.94,-293.17 450,-291 469.39,-286.36 490.24,-281.32 509.89,-276.55"/>
<polygon fill="#63b8ff" stroke="#63b8ff" points="421.15,-294.26 412.22,-299.96 422.76,-301.07 421.15,-294.26"/>
</a>
</g>
</g>
<!-- Node10 -->
<g id="Node000010" class="node">
<title>Node10</title>
<g id="a_Node000010"><a xlink:href="classWolfstagInteractive_1_1ConvoCore_1_1ConvoCoreAction__ModifyTransform.html" target="_top" xlink:title=" ">
<polygon fill="white" stroke="#666666" points="701.5,-217 488.5,-217 488.5,-187 701.5,-187 701.5,-217"/>
<text text-anchor="start" x="496.5" y="-205" font-family="Helvetica,sans-Serif" font-size="10.00">WolfstagInteractive.Convo</text>
<text text-anchor="middle" x="595" y="-194" font-family="Helvetica,sans-Serif" font-size="10.00">Core.ConvoCoreAction_ModifyTransform</text>
</a>
</g>
</g>
<!-- Node5&#45;&gt;Node10 -->
<g id="edge29_Node000005_Node000010" class="edge">
<title>Node5&#45;&gt;Node10</title>
<g id="a_edge29_Node000005_Node000010"><a xlink:title=" ">
<path fill="none" stroke="#63b8ff" d="M429.59,-302.47C436.87,-299.42 443.81,-295.65 450,-291 476.08,-271.39 459.88,-246.57 486,-227 491.16,-223.13 496.82,-219.85 502.76,-217.07"/>
<polygon fill="#63b8ff" stroke="#63b8ff" points="428.36,-299.19 420.21,-305.96 430.8,-305.75 428.36,-299.19"/>
</a>
</g>
</g>
<!-- Node11 -->
<g id="Node000011" class="node">
<title>Node11</title>
<g id="a_Node000011"><a xlink:href="classWolfstagInteractive_1_1ConvoCore_1_1ConvoCoreAction__PlayAudioClip.html" target="_top" xlink:title=" ">
<polygon fill="white" stroke="#666666" points="694.5,-169 495.5,-169 495.5,-139 694.5,-139 694.5,-169"/>
<text text-anchor="start" x="503.5" y="-157" font-family="Helvetica,sans-Serif" font-size="10.00">WolfstagInteractive.Convo</text>
<text text-anchor="middle" x="595" y="-146" font-family="Helvetica,sans-Serif" font-size="10.00">Core.ConvoCoreAction_PlayAudioClip</text>
</a>
</g>
</g>
<!-- Node5&#45;&gt;Node11 -->
<g id="edge30_Node000005_Node000011" class="edge">
<title>Node5&#45;&gt;Node11</title>
<g id="a_edge30_Node000005_Node000011"><a xlink:title=" ">
<path fill="none" stroke="#63b8ff" d="M429.76,-304.14C437.16,-300.77 444.09,-296.47 450,-291 488.68,-255.2 447.09,-213.56 486,-178 489.69,-174.63 493.74,-171.7 498.04,-169.15"/>
<polygon fill="#63b8ff" stroke="#63b8ff" points="428.19,-301 420.17,-307.92 430.75,-307.51 428.19,-301"/>
</a>
</g>
</g>
</g>
</svg>
