<?xml version="1.0" encoding="UTF-8" standalone="no"?>
<!DOCTYPE svg PUBLIC "-//W3C//DTD SVG 1.1//EN"
 "http://www.w3.org/Graphics/SVG/1.1/DTD/svg11.dtd">
<!-- Generated by graphviz version 2.43.0 (0)
 -->
<!-- Title: Graphical Class Hierarchy Pages: 1 -->
<svg width="694pt" height="451pt"
 viewBox="0.00 0.00 694.00 451.00" xmlns="http://www.w3.org/2000/svg" xmlns:xlink="http://www.w3.org/1999/xlink">
<g id="graph0" class="graph" transform="scale(1 1) rotate(0) translate(4 447)">
<title>Graphical Class Hierarchy</title>
<!-- Node0 -->
<g id="Node000000" class="node">
<title>Node0</title>
<g id="a_Node000000"><a xlink:href="interfaceWolfstagInteractive_1_1ConvoCore_1_1IEditorPreviewableRepresentation.html" target="_top" xlink:title=" ">
<polygon fill="white" stroke="#666666" points="208,-395 0,-395 0,-365 208,-365 208,-395"/>
<text text-anchor="start" x="8" y="-383" font-family="Helvetica,sans-Serif" font-size="10.00">WolfstagInteractive.Convo</text>
<text text-anchor="middle" x="104" y="-372" font-family="Helvetica,sans-Serif" font-size="10.00">Core.IEditorPreviewableRepresentation</text>
</a>
</g>
</g>
<!-- Node1 -->
<g id="Node000001" class="node">
<title>Node1</title>
<g id="a_Node000001"><a xlink:href="classWolfstagInteractive_1_1ConvoCore_1_1CharacterRepresentationBase.html" target="_top" xlink:title=" ">
<polygon fill="white" stroke="#666666" points="432,-395 244,-395 244,-365 432,-365 432,-395"/>
<text text-anchor="start" x="252" y="-383" font-family="Helvetica,sans-Serif" font-size="10.00">WolfstagInteractive.Convo</text>
<text text-anchor="middle" x="338" y="-372" font-family="Helvetica,sans-Serif" font-size="10.00">Core.CharacterRepresentationBase</text>
</a>
</g>
</g>
<!-- Node0&#45;&gt;Node1 -->
<g id="edge13_Node000000_Node000001" class="edge">
<title>Node0&#45;&gt;Node1</title>
<g id="a_edge13_Node000000_Node000001"><a xlink:title=" ">
<path fill="none" stroke="#63b8ff" d="M218.15,-380C226.72,-380 235.31,-380 243.73,-380"/>
<polygon fill="#63b8ff" stroke="#63b8ff" points="218.11,-376.5 208.11,-380 218.11,-383.5 218.11,-376.5"/>
</a>
</g>
</g>
<!-- Node2 -->
<g id="Node000002" class="node">
<title>Node2</title>
<g id="a_Node000002"><a xlink:href="classWolfstagInteractive_1_1ConvoCore_1_1PrefabCharacterRepresentationData.html" target="_top" xlink:title=" ">
<polygon fill="white" stroke="#666666" points="686,-443 468,-443 468,-413 686,-413 686,-443"/>
<text text-anchor="start" x="476" y="-431" font-family="Helvetica,sans-Serif" font-size="10.00">WolfstagInteractive.Convo</text>
<text text-anchor="middle" x="577" y="-420" font-family="Helvetica,sans-Serif" font-size="10.00">Core.PrefabCharacterRepresentationData</text>
</a>
</g>
</g>
<!-- Node1&#45;&gt;Node2 -->
<g id="edge14_Node000001_Node000002" class="edge">
<title>Node1&#45;&gt;Node2</title>
<g id="a_edge14_Node000001_Node000002"><a xlink:title=" ">
<path fill="none" stroke="#63b8ff" d="M423.41,-397.1C449.05,-402.29 477.02,-407.95 501.93,-413"/>
<polygon fill="#63b8ff" stroke="#63b8ff" points="423.83,-393.61 413.34,-395.06 422.44,-400.47 423.83,-393.61"/>
</a>
</g>
</g>
<!-- Node3 -->
<g id="Node000003" class="node">
<title>Node3</title>
<g id="a_Node000003"><a xlink:href="classWolfstagInteractive_1_1ConvoCore_1_1SpriteCharacterRepresentationData.html" target="_top" xlink:title=" ">
<polygon fill="white" stroke="#666666" points="684.5,-395 469.5,-395 469.5,-365 684.5,-365 684.5,-395"/>
<text text-anchor="start" x="477.5" y="-383" font-family="Helvetica,sans-Serif" font-size="10.00">WolfstagInteractive.Convo</text>
<text text-anchor="middle" x="577" y="-372" font-family="Helvetica,sans-Serif" font-size="10.00">Core.SpriteCharacterRepresentationData</text>
</a>
</g>
</g>
<!-- Node1&#45;&gt;Node3 -->
<g id="edge15_Node000001_Node000003" class="edge">
<title>Node1&#45;&gt;Node3</title>
<g id="a_edge15_Node000001_Node000003"><a xlink:title=" ">
<path fill="none" stroke="#63b8ff" d="M442.39,-380C451.35,-380 460.44,-380 469.43,-380"/>
<polygon fill="#63b8ff" stroke="#63b8ff" points="442.33,-376.5 432.33,-380 442.33,-383.5 442.33,-376.5"/>
</a>
</g>
</g>
<!-- Node4 -->
<g id="Node000004" class="node">
<title>Node4</title>
<g id="a_Node000004"><a xlink:title=" ">
<polygon fill="#e0e0e0" stroke="#999999" points="152.5,-180.5 55.5,-180.5 55.5,-161.5 152.5,-161.5 152.5,-180.5"/>
<text text-anchor="middle" x="104" y="-168.5" font-family="Helvetica,sans-Serif" font-size="10.00">ScriptableObject</text>
</a>
</g>
</g>
<!-- Node4&#45;&gt;Node1 -->
<g id="edge24_Node000004_Node000001" class="edge">
<title>Node4&#45;&gt;Node1</title>
<g id="a_edge24_Node000004_Node000001"><a xlink:title=" ">
<path fill="none" stroke="#63b8ff" d="M123.16,-187.36C166.92,-226.79 277.72,-326.6 320.13,-364.8"/>
<polygon fill="#63b8ff" stroke="#63b8ff" points="125.34,-184.62 115.57,-180.52 120.66,-189.82 125.34,-184.62"/>
</a>
</g>
</g>
<!-- Node5 -->
<g id="Node000005" class="node">
<title>Node5</title>
<g id="a_Node000005"><a xlink:href="classConvoCoreSettings.html" target="_top" xlink:title=" ">
<polygon fill="white" stroke="#666666" points="393,-271.5 283,-271.5 283,-252.5 393,-252.5 393,-271.5"/>
<text text-anchor="middle" x="338" y="-259.5" font-family="Helvetica,sans-Serif" font-size="10.00">ConvoCoreSettings</text>
</a>
</g>
</g>
<!-- Node4&#45;&gt;Node5 -->
<g id="edge16_Node000004_Node000005" class="edge">
<title>Node4&#45;&gt;Node5</title>
<g id="a_edge16_Node000004_Node000005"><a xlink:title=" ">
<path fill="none" stroke="#63b8ff" d="M128.94,-186.02C155.93,-202.31 201.6,-228.01 244,-243 256.27,-247.34 269.83,-250.81 282.71,-253.53"/>
<polygon fill="#63b8ff" stroke="#63b8ff" points="130.56,-182.91 120.21,-180.68 126.91,-188.88 130.56,-182.91"/>
</a>
</g>
</g>
<!-- Node6 -->
<g id="Node000006" class="node">
<title>Node6</title>
<g id="a_Node000006"><a xlink:href="classWolfstagInteractive_1_1ConvoCore_1_1BaseAction.html" target="_top" xlink:title=" ">
<polygon fill="white" stroke="#666666" points="411,-234 265,-234 265,-204 411,-204 411,-234"/>
<text text-anchor="start" x="273" y="-222" font-family="Helvetica,sans-Serif" font-size="10.00">WolfstagInteractive.Convo</text>
<text text-anchor="middle" x="338" y="-211" font-family="Helvetica,sans-Serif" font-size="10.00">Core.BaseAction</text>
</a>
</g>
</g>
<!-- Node4&#45;&gt;Node6 -->
<g id="edge17_Node000004_Node000006" class="edge">
<title>Node4&#45;&gt;Node6</title>
<g id="a_edge17_Node000004_Node000006"><a xlink:title=" ">
<path fill="none" stroke="#63b8ff" d="M160.95,-182.58C192.18,-189.04 231.43,-197.16 264.94,-204.09"/>
<polygon fill="#63b8ff" stroke="#63b8ff" points="161.61,-179.14 151.11,-180.54 160.2,-185.99 161.61,-179.14"/>
</a>
</g>
</g>
<!-- Node13 -->
<g id="Node000013" class="node">
<title>Node13</title>
<g id="a_Node000013"><a xlink:href="classWolfstagInteractive_1_1ConvoCore_1_1ConvoCoreCharacterEmotion.html" target="_top" xlink:title=" ">
<polygon fill="white" stroke="#666666" points="429.5,-186 246.5,-186 246.5,-156 429.5,-156 429.5,-186"/>
<text text-anchor="start" x="254.5" y="-174" font-family="Helvetica,sans-Serif" font-size="10.00">WolfstagInteractive.Convo</text>
<text text-anchor="middle" x="338" y="-163" font-family="Helvetica,sans-Serif" font-size="10.00">Core.ConvoCoreCharacterEmotion</text>
</a>
</g>
</g>
<!-- Node4&#45;&gt;Node13 -->
<g id="edge25_Node000004_Node000013" class="edge">
<title>Node4&#45;&gt;Node13</title>
<g id="a_edge25_Node000004_Node000013"><a xlink:title=" ">
<path fill="none" stroke="#63b8ff" d="M162.65,-171C187.94,-171 218.22,-171 246.39,-171"/>
<polygon fill="#63b8ff" stroke="#63b8ff" points="162.51,-167.5 152.51,-171 162.51,-174.5 162.51,-167.5"/>
</a>
</g>
</g>
<!-- Node14 -->
<g id="Node000014" class="node">
<title>Node14</title>
<g id="a_Node000014"><a xlink:href="classWolfstagInteractive_1_1ConvoCore_1_1ConvoCoreCharacterProfileBaseData.html" target="_top" xlink:title=" ">
<polygon fill="white" stroke="#666666" points="424.5,-137.5 251.5,-137.5 251.5,-96.5 424.5,-96.5 424.5,-137.5"/>
<text text-anchor="start" x="259.5" y="-125.5" font-family="Helvetica,sans-Serif" font-size="10.00">WolfstagInteractive.Convo</text>
<text text-anchor="start" x="259.5" y="-114.5" font-family="Helvetica,sans-Serif" font-size="10.00">Core.ConvoCoreCharacterProfile</text>
<text text-anchor="middle" x="338" y="-103.5" font-family="Helvetica,sans-Serif" font-size="10.00">BaseData</text>
</a>
</g>
</g>
<!-- Node4&#45;&gt;Node14 -->
<g id="edge26_Node000004_Node000014" class="edge">
<title>Node4&#45;&gt;Node14</title>
<g id="a_edge26_Node000004_Node000014"><a xlink:title=" ">
<path fill="none" stroke="#63b8ff" d="M155.88,-159.16C183.83,-152.65 219.23,-144.41 251.31,-136.94"/>
<polygon fill="#63b8ff" stroke="#63b8ff" points="154.89,-155.79 145.94,-161.47 156.48,-162.61 154.89,-155.79"/>
</a>
</g>
</g>
<!-- Node15 -->
<g id="Node000015" class="node">
<title>Node15</title>
<g id="a_Node000015"><a xlink:href="classWolfstagInteractive_1_1ConvoCore_1_1ConvoCoreConversationData.html" target="_top" xlink:title=" ">
<polygon fill="white" stroke="#666666" points="429.5,-78 246.5,-78 246.5,-48 429.5,-48 429.5,-78"/>
<text text-anchor="start" x="254.5" y="-66" font-family="Helvetica,sans-Serif" font-size="10.00">WolfstagInteractive.Convo</text>
<text text-anchor="middle" x="338" y="-55" font-family="Helvetica,sans-Serif" font-size="10.00">Core.ConvoCoreConversationData</text>
</a>
</g>
</g>
<!-- Node4&#45;&gt;Node15 -->
<g id="edge27_Node000004_Node000015" class="edge">
<title>Node4&#45;&gt;Node15</title>
<g id="a_edge27_Node000004_Node000015"><a xlink:title=" ">
<path fill="none" stroke="#63b8ff" d="M126.58,-155.21C153.04,-136.51 199.82,-105.58 244,-87 251.99,-83.64 260.58,-80.65 269.18,-78.03"/>
<polygon fill="#63b8ff" stroke="#63b8ff" points="124.2,-152.6 118.11,-161.27 128.28,-158.3 124.2,-152.6"/>
</a>
</g>
</g>
<!-- Node16 -->
<g id="Node000016" class="node">
<title>Node16</title>
<g id="a_Node000016"><a xlink:href="classWolfstagInteractive_1_1ConvoCore_1_1ConvoCoreLanguageSettings.html" target="_top" xlink:title=" ">
<polygon fill="white" stroke="#666666" points="429,-30 247,-30 247,0 429,0 429,-30"/>
<text text-anchor="start" x="255" y="-18" font-family="Helvetica,sans-Serif" font-size="10.00">WolfstagInteractive.Convo</text>
<text text-anchor="middle" x="338" y="-7" font-family="Helvetica,sans-Serif" font-size="10.00">Core.ConvoCoreLanguageSettings</text>
</a>
</g>
</g>
<!-- Node4&#45;&gt;Node16 -->
<g id="edge28_Node000004_Node000016" class="edge">
<title>Node4&#45;&gt;Node16</title>
<g id="a_edge28_Node000004_Node000016"><a xlink:title=" ">
<path fill="none" stroke="#63b8ff" d="M118.43,-153.42C141.13,-124.96 189.92,-68.97 244,-39 250.13,-35.61 256.74,-32.68 263.53,-30.16"/>
<polygon fill="#63b8ff" stroke="#63b8ff" points="115.66,-151.28 112.25,-161.31 121.17,-155.6 115.66,-151.28"/>
</a>
</g>
</g>
<!-- Node7 -->
<g id="Node000007" class="node">
<title>Node7</title>
<g id="a_Node000007"><a xlink:href="classConvoCore_1_1ConvoCoreAction__ActionGroup.html" target="_top" xlink:title=" ">
<polygon fill="white" stroke="#666666" points="655.5,-347 498.5,-347 498.5,-317 655.5,-317 655.5,-347"/>
<text text-anchor="start" x="506.5" y="-335" font-family="Helvetica,sans-Serif" font-size="10.00">ConvoCore.ConvoCoreAction</text>
<text text-anchor="middle" x="577" y="-324" font-family="Helvetica,sans-Serif" font-size="10.00">_ActionGroup</text>
</a>
</g>
</g>
<!-- Node6&#45;&gt;Node7 -->
<g id="edge18_Node000006_Node000007" class="edge">
<title>Node6&#45;&gt;Node7</title>
<g id="a_edge18_Node000006_Node000007"><a xlink:title=" ">
<path fill="none" stroke="#63b8ff" d="M420.48,-236.53C424.54,-238.74 428.41,-241.21 432,-244 457.77,-264.02 441.79,-288.55 468,-308 477.02,-314.7 487.56,-319.59 498.45,-323.15"/>
<polygon fill="#63b8ff" stroke="#63b8ff" points="421.87,-233.32 411.34,-232.14 418.84,-239.63 421.87,-233.32"/>
</a>
</g>
</g>
<!-- Node8 -->
<g id="Node000008" class="node">
<title>Node8</title>
<g id="a_Node000008"><a xlink:href="classWolfstagInteractive_1_1ConvoCore_1_1ConvoCoreAction__EnableDisableGameObject.html" target="_top" xlink:title=" ">
<polygon fill="white" stroke="#666666" points="677.5,-298.5 476.5,-298.5 476.5,-257.5 677.5,-257.5 677.5,-298.5"/>
<text text-anchor="start" x="484.5" y="-286.5" font-family="Helvetica,sans-Serif" font-size="10.00">WolfstagInteractive.Convo</text>
<text text-anchor="start" x="484.5" y="-275.5" font-family="Helvetica,sans-Serif" font-size="10.00">Core.ConvoCoreAction_EnableDisable</text>
<text text-anchor="middle" x="577" y="-264.5" font-family="Helvetica,sans-Serif" font-size="10.00">GameObject</text>
</a>
</g>
</g>
<!-- Node6&#45;&gt;Node8 -->
<g id="edge19_Node000006_Node000008" class="edge">
<title>Node6&#45;&gt;Node8</title>
<g id="a_edge19_Node000006_Node000008"><a xlink:title=" ">
<path fill="none" stroke="#63b8ff" d="M409.33,-236.51C435.71,-243.08 465.94,-250.6 493.34,-257.42"/>
<polygon fill="#63b8ff" stroke="#63b8ff" points="409.97,-233.06 399.42,-234.04 408.28,-239.85 409.97,-233.06"/>
</a>
</g>
</g>
<!-- Node9 -->
<g id="Node000009" class="node">
<title>Node9</title>
<g id="a_Node000009"><a xlink:href="classWolfstagInteractive_1_1ConvoCore_1_1ConvoCoreAction__FadeInOutSpriteRenderer.html" target="_top" xlink:title=" ">
<polygon fill="white" stroke="#666666" points="667,-239.5 487,-239.5 487,-198.5 667,-198.5 667,-239.5"/>
<text text-anchor="start" x="495" y="-227.5" font-family="Helvetica,sans-Serif" font-size="10.00">WolfstagInteractive.Convo</text>
<text text-anchor="start" x="495" y="-216.5" font-family="Helvetica,sans-Serif" font-size="10.00">Core.ConvoCoreAction_FadeInOut</text>
<text text-anchor="middle" x="577" y="-205.5" font-family="Helvetica,sans-Serif" font-size="10.00">SpriteRenderer</text>
</a>
</g>
</g>
<!-- Node6&#45;&gt;Node9 -->
<g id="edge20_Node000006_Node000009" class="edge">
<title>Node6&#45;&gt;Node9</title>
<g id="a_edge20_Node000006_Node000009"><a xlink:title=" ">
<path fill="none" stroke="#63b8ff" d="M421.29,-219C442.41,-219 465.22,-219 486.68,-219"/>
<polygon fill="#63b8ff" stroke="#63b8ff" points="421.07,-215.5 411.07,-219 421.07,-222.5 421.07,-215.5"/>
</a>
</g>
</g>
<!-- Node10 -->
<g id="Node000010" class="node">
<title>Node10</title>
<g id="a_Node000010"><a xlink:href="classWolfstagInteractive_1_1ConvoCore_1_1ConvoCoreAction__InstantiatePrefab.html" target="_top" xlink:title=" ">
<polygon fill="white" stroke="#666666" points="669,-180.5 485,-180.5 485,-139.5 669,-139.5 669,-180.5"/>
<text text-anchor="start" x="493" y="-168.5" font-family="Helvetica,sans-Serif" font-size="10.00">WolfstagInteractive.Convo</text>
<text text-anchor="start" x="493" y="-157.5" font-family="Helvetica,sans-Serif" font-size="10.00">Core.ConvoCoreAction_Instantiate</text>
<text text-anchor="middle" x="577" y="-146.5" font-family="Helvetica,sans-Serif" font-size="10.00">Prefab</text>
</a>
</g>
</g>
<!-- Node6&#45;&gt;Node10 -->
<g id="edge21_Node000006_Node000010" class="edge">
<title>Node6&#45;&gt;Node10</title>
<g id="a_edge21_Node000006_Node000010"><a xlink:title=" ">
<path fill="none" stroke="#63b8ff" d="M409.33,-201.49C435.71,-194.92 465.94,-187.4 493.34,-180.58"/>
<polygon fill="#63b8ff" stroke="#63b8ff" points="408.28,-198.15 399.42,-203.96 409.97,-204.94 408.28,-198.15"/>
</a>
</g>
</g>
<!-- Node11 -->
<g id="Node000011" class="node">
<title>Node11</title>
<g id="a_Node000011"><a xlink:href="classWolfstagInteractive_1_1ConvoCore_1_1ConvoCoreAction__ModifyTransform.html" target="_top" xlink:title=" ">
<polygon fill="white" stroke="#666666" points="683.5,-121 470.5,-121 470.5,-91 683.5,-91 683.5,-121"/>
<text text-anchor="start" x="478.5" y="-109" font-family="Helvetica,sans-Serif" font-size="10.00">WolfstagInteractive.Convo</text>
<text text-anchor="middle" x="577" y="-98" font-family="Helvetica,sans-Serif" font-size="10.00">Core.ConvoCoreAction_ModifyTransform</text>
</a>
</g>
</g>
<!-- Node6&#45;&gt;Node11 -->
<g id="edge22_Node000006_Node000011" class="edge">
<title>Node6&#45;&gt;Node11</title>
<g id="a_edge22_Node000006_Node000011"><a xlink:title=" ">
<path fill="none" stroke="#63b8ff" d="M420.47,-202.37C424.53,-200.21 428.41,-197.76 432,-195 457.87,-175.11 441.88,-150.57 468,-131 473.16,-127.13 478.82,-123.85 484.76,-121.07"/>
<polygon fill="#63b8ff" stroke="#63b8ff" points="418.88,-199.25 411.32,-206.68 421.86,-205.59 418.88,-199.25"/>
</a>
</g>
</g>
<!-- Node12 -->
<g id="Node000012" class="node">
<title>Node12</title>
<g id="a_Node000012"><a xlink:href="classWolfstagInteractive_1_1ConvoCore_1_1ConvoCoreAction__PlayAudioClip.html" target="_top" xlink:title=" ">
<polygon fill="white" stroke="#666666" points="676.5,-73 477.5,-73 477.5,-43 676.5,-43 676.5,-73"/>
<text text-anchor="start" x="485.5" y="-61" font-family="Helvetica,sans-Serif" font-size="10.00">WolfstagInteractive.Convo</text>
<text text-anchor="middle" x="577" y="-50" font-family="Helvetica,sans-Serif" font-size="10.00">Core.ConvoCoreAction_PlayAudioClip</text>
</a>
</g>
</g>
<!-- Node6&#45;&gt;Node12 -->
<g id="edge23_Node000006_Node000012" class="edge">
<title>Node6&#45;&gt;Node12</title>
<g id="a_edge23_Node000006_Node000012"><a xlink:title=" ">
<path fill="none" stroke="#63b8ff" d="M420.36,-203.72C424.55,-201.22 428.48,-198.33 432,-195 470.3,-158.78 429.09,-117.56 468,-82 471.69,-78.63 475.74,-75.7 480.04,-73.15"/>
<polygon fill="#63b8ff" stroke="#63b8ff" points="418.72,-200.62 411.44,-208.31 421.93,-206.84 418.72,-200.62"/>
</a>
</g>
</g>
</g>
</svg>
