<?xml version="1.0" encoding="UTF-8" standalone="no"?>
<!DOCTYPE svg PUBLIC "-//W3C//DTD SVG 1.1//EN"
 "http://www.w3.org/Graphics/SVG/1.1/DTD/svg11.dtd">
<!-- Generated by graphviz version 2.43.0 (0)
 -->
<!-- Title: Graphical Class Hierarchy Pages: 1 -->
<svg width="712pt" height="595pt"
 viewBox="0.00 0.00 712.00 595.00" xmlns="http://www.w3.org/2000/svg" xmlns:xlink="http://www.w3.org/1999/xlink">
<g id="graph0" class="graph" transform="scale(1 1) rotate(0) translate(4 591)">
<title>Graphical Class Hierarchy</title>
<!-- Node0 -->
<g id="Node000000" class="node">
<title>Node0</title>
<g id="a_Node000000"><a xlink:href="interfaceWolfstagInteractive_1_1ConvoCore_1_1IEditorPreviewableRepresentation.html" target="_top" xlink:title=" ">
<polygon fill="white" stroke="#666666" points="208,-539 0,-539 0,-509 208,-509 208,-539"/>
<text text-anchor="start" x="8" y="-527" font-family="Helvetica,sans-Serif" font-size="10.00">WolfstagInteractive.Convo</text>
<text text-anchor="middle" x="104" y="-516" font-family="Helvetica,sans-Serif" font-size="10.00">Core.IEditorPreviewableRepresentation</text>
</a>
</g>
</g>
<!-- Node1 -->
<g id="Node000001" class="node">
<title>Node1</title>
<g id="a_Node000001"><a xlink:href="classWolfstagInteractive_1_1ConvoCore_1_1CharacterRepresentationBase.html" target="_top" xlink:title=" ">
<polygon fill="white" stroke="#666666" points="441,-539 253,-539 253,-509 441,-509 441,-539"/>
<text text-anchor="start" x="261" y="-527" font-family="Helvetica,sans-Serif" font-size="10.00">WolfstagInteractive.Convo</text>
<text text-anchor="middle" x="347" y="-516" font-family="Helvetica,sans-Serif" font-size="10.00">Core.CharacterRepresentationBase</text>
</a>
</g>
</g>
<!-- Node0&#45;&gt;Node1 -->
<g id="edge24_Node000000_Node000001" class="edge">
<title>Node0&#45;&gt;Node1</title>
<g id="a_edge24_Node000000_Node000001"><a xlink:title=" ">
<path fill="none" stroke="#63b8ff" d="M218.37,-524C229.92,-524 241.56,-524 252.86,-524"/>
<polygon fill="#63b8ff" stroke="#63b8ff" points="218.25,-520.5 208.25,-524 218.25,-527.5 218.25,-520.5"/>
</a>
</g>
</g>
<!-- Node2 -->
<g id="Node000002" class="node">
<title>Node2</title>
<g id="a_Node000002"><a xlink:href="classWolfstagInteractive_1_1ConvoCore_1_1PrefabCharacterRepresentationData.html" target="_top" xlink:title=" ">
<polygon fill="white" stroke="#666666" points="704,-587 486,-587 486,-557 704,-557 704,-587"/>
<text text-anchor="start" x="494" y="-575" font-family="Helvetica,sans-Serif" font-size="10.00">WolfstagInteractive.Convo</text>
<text text-anchor="middle" x="595" y="-564" font-family="Helvetica,sans-Serif" font-size="10.00">Core.PrefabCharacterRepresentationData</text>
</a>
</g>
</g>
<!-- Node1&#45;&gt;Node2 -->
<g id="edge25_Node000001_Node000002" class="edge">
<title>Node1&#45;&gt;Node2</title>
<g id="a_edge25_Node000001_Node000002"><a xlink:title=" ">
<path fill="none" stroke="#63b8ff" d="M435.27,-541.03C461.98,-546.24 491.15,-551.93 517.11,-557"/>
<polygon fill="#63b8ff" stroke="#63b8ff" points="435.65,-537.54 425.16,-539.06 434.31,-544.41 435.65,-537.54"/>
</a>
</g>
</g>
<!-- Node3 -->
<g id="Node000003" class="node">
<title>Node3</title>
<g id="a_Node000003"><a xlink:href="classWolfstagInteractive_1_1ConvoCore_1_1SpriteCharacterRepresentationData.html" target="_top" xlink:title=" ">
<polygon fill="white" stroke="#666666" points="702.5,-539 487.5,-539 487.5,-509 702.5,-509 702.5,-539"/>
<text text-anchor="start" x="495.5" y="-527" font-family="Helvetica,sans-Serif" font-size="10.00">WolfstagInteractive.Convo</text>
<text text-anchor="middle" x="595" y="-516" font-family="Helvetica,sans-Serif" font-size="10.00">Core.SpriteCharacterRepresentationData</text>
</a>
</g>
</g>
<!-- Node1&#45;&gt;Node3 -->
<g id="edge26_Node000001_Node000003" class="edge">
<title>Node1&#45;&gt;Node3</title>
<g id="a_edge26_Node000001_Node000003"><a xlink:title=" ">
<path fill="none" stroke="#63b8ff" d="M451.35,-524C463.22,-524 475.34,-524 487.25,-524"/>
<polygon fill="#63b8ff" stroke="#63b8ff" points="451,-520.5 441,-524 451,-527.5 451,-520.5"/>
</a>
</g>
</g>
<!-- Node4 -->
<g id="Node000004" class="node">
<title>Node4</title>
<g id="a_Node000004"><a xlink:title=" ">
<polygon fill="#e0e0e0" stroke="#999999" points="152.5,-222.5 55.5,-222.5 55.5,-203.5 152.5,-203.5 152.5,-222.5"/>
<text text-anchor="middle" x="104" y="-210.5" font-family="Helvetica,sans-Serif" font-size="10.00">ScriptableObject</text>
</a>
</g>
</g>
<!-- Node4&#45;&gt;Node1 -->
<g id="edge34_Node000004_Node000001" class="edge">
<title>Node4&#45;&gt;Node1</title>
<g id="a_edge34_Node000004_Node000001"><a xlink:title=" ">
<path fill="none" stroke="#63b8ff" d="M118.83,-230.85C161.98,-286.54 293.69,-456.49 334.09,-508.63"/>
<polygon fill="#63b8ff" stroke="#63b8ff" points="121.37,-228.41 112.48,-222.65 115.84,-232.7 121.37,-228.41"/>
</a>
</g>
</g>
<!-- Node5 -->
<g id="Node000005" class="node">
<title>Node5</title>
<g id="a_Node000005"><a xlink:href="classWolfstagInteractive_1_1ConvoCore_1_1BaseAction.html" target="_top" xlink:title=" ">
<polygon fill="white" stroke="#666666" points="420,-378 274,-378 274,-348 420,-348 420,-378"/>
<text text-anchor="start" x="282" y="-366" font-family="Helvetica,sans-Serif" font-size="10.00">WolfstagInteractive.Convo</text>
<text text-anchor="middle" x="347" y="-355" font-family="Helvetica,sans-Serif" font-size="10.00">Core.BaseAction</text>
</a>
</g>
</g>
<!-- Node4&#45;&gt;Node5 -->
<g id="edge27_Node000004_Node000005" class="edge">
<title>Node4&#45;&gt;Node5</title>
<g id="a_edge27_Node000004_Node000005"><a xlink:title=" ">
<path fill="none" stroke="#63b8ff" d="M119.18,-230.64C142.31,-258.18 190.92,-311.12 244,-339 253.26,-343.87 263.51,-347.76 273.83,-350.86"/>
<polygon fill="#63b8ff" stroke="#63b8ff" points="121.66,-228.15 112.59,-222.66 116.26,-232.6 121.66,-228.15"/>
</a>
</g>
</g>
<!-- Node12 -->
<g id="Node000012" class="node">
<title>Node12</title>
<g id="a_Node000012"><a xlink:href="classWolfstagInteractive_1_1ConvoCore_1_1ConversationContainer.html" target="_top" xlink:title=" ">
<polygon fill="white" stroke="#666666" points="424,-330 270,-330 270,-300 424,-300 424,-330"/>
<text text-anchor="start" x="278" y="-318" font-family="Helvetica,sans-Serif" font-size="10.00">WolfstagInteractive.Convo</text>
<text text-anchor="middle" x="347" y="-307" font-family="Helvetica,sans-Serif" font-size="10.00">Core.ConversationContainer</text>
</a>
</g>
</g>
<!-- Node4&#45;&gt;Node12 -->
<g id="edge35_Node000004_Node000012" class="edge">
<title>Node4&#45;&gt;Node12</title>
<g id="a_edge35_Node000004_Node000012"><a xlink:title=" ">
<path fill="none" stroke="#63b8ff" d="M127.54,-228.28C154.26,-245.76 200.63,-274.12 244,-291 252.65,-294.37 261.9,-297.34 271.16,-299.95"/>
<polygon fill="#63b8ff" stroke="#63b8ff" points="129.22,-225.19 118.95,-222.59 125.36,-231.03 129.22,-225.19"/>
</a>
</g>
</g>
<!-- Node13 -->
<g id="Node000013" class="node">
<title>Node13</title>
<g id="a_Node000013"><a xlink:href="classWolfstagInteractive_1_1ConvoCore_1_1ConvoCoreCharacterExpression.html" target="_top" xlink:title=" ">
<polygon fill="white" stroke="#666666" points="445,-282 249,-282 249,-252 445,-252 445,-282"/>
<text text-anchor="start" x="257" y="-270" font-family="Helvetica,sans-Serif" font-size="10.00">WolfstagInteractive.Convo</text>
<text text-anchor="middle" x="347" y="-259" font-family="Helvetica,sans-Serif" font-size="10.00">Core.ConvoCoreCharacterExpression</text>
</a>
</g>
</g>
<!-- Node4&#45;&gt;Node13 -->
<g id="edge36_Node000004_Node000013" class="edge">
<title>Node4&#45;&gt;Node13</title>
<g id="a_edge36_Node000004_Node000013"><a xlink:title=" ">
<path fill="none" stroke="#63b8ff" d="M157.71,-224.81C193.31,-232.79 240.6,-243.38 278.88,-251.96"/>
<polygon fill="#63b8ff" stroke="#63b8ff" points="158.05,-221.3 147.53,-222.53 156.52,-228.13 158.05,-221.3"/>
</a>
</g>
</g>
<!-- Node14 -->
<g id="Node000014" class="node">
<title>Node14</title>
<g id="a_Node000014"><a xlink:href="classWolfstagInteractive_1_1ConvoCore_1_1ConvoCoreCharacterProfileBaseData.html" target="_top" xlink:title=" ">
<polygon fill="white" stroke="#666666" points="433.5,-233.5 260.5,-233.5 260.5,-192.5 433.5,-192.5 433.5,-233.5"/>
<text text-anchor="start" x="268.5" y="-221.5" font-family="Helvetica,sans-Serif" font-size="10.00">WolfstagInteractive.Convo</text>
<text text-anchor="start" x="268.5" y="-210.5" font-family="Helvetica,sans-Serif" font-size="10.00">Core.ConvoCoreCharacterProfile</text>
<text text-anchor="middle" x="347" y="-199.5" font-family="Helvetica,sans-Serif" font-size="10.00">BaseData</text>
</a>
</g>
</g>
<!-- Node4&#45;&gt;Node14 -->
<g id="edge37_Node000004_Node000014" class="edge">
<title>Node4&#45;&gt;Node14</title>
<g id="a_edge37_Node000004_Node000014"><a xlink:title=" ">
<path fill="none" stroke="#63b8ff" d="M162.66,-213C191.91,-213 228.02,-213 260.44,-213"/>
<polygon fill="#63b8ff" stroke="#63b8ff" points="162.61,-209.5 152.61,-213 162.61,-216.5 162.61,-209.5"/>
</a>
</g>
</g>
<!-- Node15 -->
<g id="Node000015" class="node">
<title>Node15</title>
<g id="a_Node000015"><a xlink:href="classWolfstagInteractive_1_1ConvoCore_1_1ConvoCoreConversationData.html" target="_top" xlink:title=" ">
<polygon fill="white" stroke="#666666" points="438.5,-174 255.5,-174 255.5,-144 438.5,-144 438.5,-174"/>
<text text-anchor="start" x="263.5" y="-162" font-family="Helvetica,sans-Serif" font-size="10.00">WolfstagInteractive.Convo</text>
<text text-anchor="middle" x="347" y="-151" font-family="Helvetica,sans-Serif" font-size="10.00">Core.ConvoCoreConversationData</text>
</a>
</g>
</g>
<!-- Node4&#45;&gt;Node15 -->
<g id="edge38_Node000004_Node000015" class="edge">
<title>Node4&#45;&gt;Node15</title>
<g id="a_edge38_Node000004_Node000015"><a xlink:title=" ">
<path fill="none" stroke="#63b8ff" d="M157.71,-201.19C193.31,-193.21 240.6,-182.62 278.88,-174.04"/>
<polygon fill="#63b8ff" stroke="#63b8ff" points="156.52,-197.87 147.53,-203.47 158.05,-204.7 156.52,-197.87"/>
</a>
</g>
</g>
<!-- Node16 -->
<g id="Node000016" class="node">
<title>Node16</title>
<g id="a_Node000016"><a xlink:href="classWolfstagInteractive_1_1ConvoCore_1_1ConvoCoreHistoryRendererProfile.html" target="_top" xlink:title=" ">
<polygon fill="white" stroke="#666666" points="450,-126 244,-126 244,-96 450,-96 450,-126"/>
<text text-anchor="start" x="252" y="-114" font-family="Helvetica,sans-Serif" font-size="10.00">WolfstagInteractive.Convo</text>
<text text-anchor="middle" x="347" y="-103" font-family="Helvetica,sans-Serif" font-size="10.00">Core.ConvoCoreHistoryRendererProfile</text>
</a>
</g>
</g>
<!-- Node4&#45;&gt;Node16 -->
<g id="edge39_Node000004_Node000016" class="edge">
<title>Node4&#45;&gt;Node16</title>
<g id="a_edge39_Node000004_Node000016"><a xlink:title=" ">
<path fill="none" stroke="#63b8ff" d="M127.54,-197.72C154.26,-180.24 200.63,-151.88 244,-135 252.65,-131.63 261.9,-128.66 271.16,-126.05"/>
<polygon fill="#63b8ff" stroke="#63b8ff" points="125.36,-194.97 118.95,-203.41 129.22,-200.81 125.36,-194.97"/>
</a>
</g>
</g>
<!-- Node17 -->
<g id="Node000017" class="node">
<title>Node17</title>
<g id="a_Node000017"><a xlink:href="classWolfstagInteractive_1_1ConvoCore_1_1ConvoCoreLanguageSettings.html" target="_top" xlink:title=" ">
<polygon fill="white" stroke="#666666" points="438,-78 256,-78 256,-48 438,-48 438,-78"/>
<text text-anchor="start" x="264" y="-66" font-family="Helvetica,sans-Serif" font-size="10.00">WolfstagInteractive.Convo</text>
<text text-anchor="middle" x="347" y="-55" font-family="Helvetica,sans-Serif" font-size="10.00">Core.ConvoCoreLanguageSettings</text>
</a>
</g>
</g>
<!-- Node4&#45;&gt;Node17 -->
<g id="edge40_Node000004_Node000017" class="edge">
<title>Node4&#45;&gt;Node17</title>
<g id="a_edge40_Node000004_Node000017"><a xlink:title=" ">
<path fill="none" stroke="#63b8ff" d="M119.18,-195.36C142.31,-167.82 190.92,-114.88 244,-87 250.6,-83.53 257.71,-80.56 264.98,-78.01"/>
<polygon fill="#63b8ff" stroke="#63b8ff" points="116.26,-193.4 112.59,-203.34 121.66,-197.85 116.26,-193.4"/>
</a>
</g>
</g>
<!-- Node18 -->
<g id="Node000018" class="node">
<title>Node18</title>
<g id="a_Node000018"><a xlink:href="classWolfstagInteractive_1_1ConvoCore_1_1ConvoCoreSettings.html" target="_top" xlink:title=" ">
<polygon fill="white" stroke="#666666" points="420,-30 274,-30 274,0 420,0 420,-30"/>
<text text-anchor="start" x="282" y="-18" font-family="Helvetica,sans-Serif" font-size="10.00">WolfstagInteractive.Convo</text>
<text text-anchor="middle" x="347" y="-7" font-family="Helvetica,sans-Serif" font-size="10.00">Core.ConvoCoreSettings</text>
</a>
</g>
</g>
<!-- Node4&#45;&gt;Node18 -->
<g id="edge41_Node000004_Node000018" class="edge">
<title>Node4&#45;&gt;Node18</title>
<g id="a_edge41_Node000004_Node000018"><a xlink:title=" ">
<path fill="none" stroke="#63b8ff" d="M114.42,-194.26C133.57,-158.17 180.68,-79.05 244,-39 253.07,-33.26 263.38,-28.9 273.87,-25.57"/>
<polygon fill="#63b8ff" stroke="#63b8ff" points="111.26,-192.74 109.77,-203.23 117.48,-195.96 111.26,-192.74"/>
</a>
</g>
</g>
<!-- Node6 -->
<g id="Node000006" class="node">
<title>Node6</title>
<g id="a_Node000006"><a xlink:href="classWolfstagInteractive_1_1ConvoCore_1_1ConvoCoreAction__ActionGroup.html" target="_top" xlink:title=" ">
<polygon fill="white" stroke="#666666" points="690.5,-491 499.5,-491 499.5,-461 690.5,-461 690.5,-491"/>
<text text-anchor="start" x="507.5" y="-479" font-family="Helvetica,sans-Serif" font-size="10.00">WolfstagInteractive.Convo</text>
<text text-anchor="middle" x="595" y="-468" font-family="Helvetica,sans-Serif" font-size="10.00">Core.ConvoCoreAction_ActionGroup</text>
</a>
</g>
</g>
<!-- Node5&#45;&gt;Node6 -->
<g id="edge28_Node000005_Node000006" class="edge">
<title>Node5&#45;&gt;Node6</title>
<g id="a_edge28_Node000005_Node000006"><a xlink:title=" ">
<path fill="none" stroke="#63b8ff" d="M374.96,-384.54C401.66,-404.84 444.46,-434.65 486,-452 494.15,-455.41 502.86,-458.36 511.67,-460.92"/>
<polygon fill="#63b8ff" stroke="#63b8ff" points="376.94,-381.65 366.88,-378.32 372.66,-387.19 376.94,-381.65"/>
</a>
</g>
</g>
<!-- Node7 -->
<g id="Node000007" class="node">
<title>Node7</title>
<g id="a_Node000007"><a xlink:href="classWolfstagInteractive_1_1ConvoCore_1_1ConvoCoreAction__EnableDisableGameObject.html" target="_top" xlink:title=" ">
<polygon fill="white" stroke="#666666" points="695.5,-442.5 494.5,-442.5 494.5,-401.5 695.5,-401.5 695.5,-442.5"/>
<text text-anchor="start" x="502.5" y="-430.5" font-family="Helvetica,sans-Serif" font-size="10.00">WolfstagInteractive.Convo</text>
<text text-anchor="start" x="502.5" y="-419.5" font-family="Helvetica,sans-Serif" font-size="10.00">Core.ConvoCoreAction_EnableDisable</text>
<text text-anchor="middle" x="595" y="-408.5" font-family="Helvetica,sans-Serif" font-size="10.00">GameObject</text>
</a>
</g>
</g>
<!-- Node5&#45;&gt;Node7 -->
<g id="edge29_Node000005_Node000007" class="edge">
<title>Node5&#45;&gt;Node7</title>
<g id="a_edge29_Node000005_Node000007"><a xlink:title=" ">
<path fill="none" stroke="#63b8ff" d="M420.64,-380.42C448.11,-387.01 479.63,-394.57 508.2,-401.42"/>
<polygon fill="#63b8ff" stroke="#63b8ff" points="421.25,-376.97 410.71,-378.04 419.62,-383.78 421.25,-376.97"/>
</a>
</g>
</g>
<!-- Node8 -->
<g id="Node000008" class="node">
<title>Node8</title>
<g id="a_Node000008"><a xlink:href="classWolfstagInteractive_1_1ConvoCore_1_1ConvoCoreAction__FadeInOutSpriteRenderer.html" target="_top" xlink:title=" ">
<polygon fill="white" stroke="#666666" points="685,-383.5 505,-383.5 505,-342.5 685,-342.5 685,-383.5"/>
<text text-anchor="start" x="513" y="-371.5" font-family="Helvetica,sans-Serif" font-size="10.00">WolfstagInteractive.Convo</text>
<text text-anchor="start" x="513" y="-360.5" font-family="Helvetica,sans-Serif" font-size="10.00">Core.ConvoCoreAction_FadeInOut</text>
<text text-anchor="middle" x="595" y="-349.5" font-family="Helvetica,sans-Serif" font-size="10.00">SpriteRenderer</text>
</a>
</g>
</g>
<!-- Node5&#45;&gt;Node8 -->
<g id="edge30_Node000005_Node000008" class="edge">
<title>Node5&#45;&gt;Node8</title>
<g id="a_edge30_Node000005_Node000008"><a xlink:title=" ">
<path fill="none" stroke="#63b8ff" d="M430.25,-363C454.2,-363 480.47,-363 504.83,-363"/>
<polygon fill="#63b8ff" stroke="#63b8ff" points="430.15,-359.5 420.15,-363 430.15,-366.5 430.15,-359.5"/>
</a>
</g>
</g>
<!-- Node9 -->
<g id="Node000009" class="node">
<title>Node9</title>
<g id="a_Node000009"><a xlink:href="classWolfstagInteractive_1_1ConvoCore_1_1ConvoCoreAction__InstantiatePrefab.html" target="_top" xlink:title=" ">
<polygon fill="white" stroke="#666666" points="687,-324.5 503,-324.5 503,-283.5 687,-283.5 687,-324.5"/>
<text text-anchor="start" x="511" y="-312.5" font-family="Helvetica,sans-Serif" font-size="10.00">WolfstagInteractive.Convo</text>
<text text-anchor="start" x="511" y="-301.5" font-family="Helvetica,sans-Serif" font-size="10.00">Core.ConvoCoreAction_Instantiate</text>
<text text-anchor="middle" x="595" y="-290.5" font-family="Helvetica,sans-Serif" font-size="10.00">Prefab</text>
</a>
</g>
</g>
<!-- Node5&#45;&gt;Node9 -->
<g id="edge31_Node000005_Node000009" class="edge">
<title>Node5&#45;&gt;Node9</title>
<g id="a_edge31_Node000005_Node000009"><a xlink:title=" ">
<path fill="none" stroke="#63b8ff" d="M421.99,-345.66C431.42,-343.43 440.94,-341.17 450,-339 469.39,-334.36 490.24,-329.32 509.89,-324.55"/>
<polygon fill="#63b8ff" stroke="#63b8ff" points="421.15,-342.26 412.22,-347.96 422.76,-349.07 421.15,-342.26"/>
</a>
</g>
</g>
<!-- Node10 -->
<g id="Node000010" class="node">
<title>Node10</title>
<g id="a_Node000010"><a xlink:href="classWolfstagInteractive_1_1ConvoCore_1_1ConvoCoreAction__ModifyTransform.html" target="_top" xlink:title=" ">
<polygon fill="white" stroke="#666666" points="701.5,-265 488.5,-265 488.5,-235 701.5,-235 701.5,-265"/>
<text text-anchor="start" x="496.5" y="-253" font-family="Helvetica,sans-Serif" font-size="10.00">WolfstagInteractive.Convo</text>
<text text-anchor="middle" x="595" y="-242" font-family="Helvetica,sans-Serif" font-size="10.00">Core.ConvoCoreAction_ModifyTransform</text>
</a>
</g>
</g>
<!-- Node5&#45;&gt;Node10 -->
<g id="edge32_Node000005_Node000010" class="edge">
<title>Node5&#45;&gt;Node10</title>
<g id="a_edge32_Node000005_Node000010"><a xlink:title=" ">
<path fill="none" stroke="#63b8ff" d="M429.59,-350.47C436.87,-347.42 443.81,-343.65 450,-339 476.08,-319.39 459.88,-294.57 486,-275 491.16,-271.13 496.82,-267.85 502.76,-265.07"/>
<polygon fill="#63b8ff" stroke="#63b8ff" points="428.36,-347.19 420.21,-353.96 430.8,-353.75 428.36,-347.19"/>
</a>
</g>
</g>
<!-- Node11 -->
<g id="Node000011" class="node">
<title>Node11</title>
<g id="a_Node000011"><a xlink:href="classWolfstagInteractive_1_1ConvoCore_1_1ConvoCoreAction__PlayAudioClip.html" target="_top" xlink:title=" ">
<polygon fill="white" stroke="#666666" points="694.5,-217 495.5,-217 495.5,-187 694.5,-187 694.5,-217"/>
<text text-anchor="start" x="503.5" y="-205" font-family="Helvetica,sans-Serif" font-size="10.00">WolfstagInteractive.Convo</text>
<text text-anchor="middle" x="595" y="-194" font-family="Helvetica,sans-Serif" font-size="10.00">Core.ConvoCoreAction_PlayAudioClip</text>
</a>
</g>
</g>
<!-- Node5&#45;&gt;Node11 -->
<g id="edge33_Node000005_Node000011" class="edge">
<title>Node5&#45;&gt;Node11</title>
<g id="a_edge33_Node000005_Node000011"><a xlink:title=" ">
<path fill="none" stroke="#63b8ff" d="M429.76,-352.14C437.16,-348.77 444.09,-344.47 450,-339 488.68,-303.2 447.09,-261.56 486,-226 489.69,-222.63 493.74,-219.7 498.04,-217.15"/>
<polygon fill="#63b8ff" stroke="#63b8ff" points="428.19,-349 420.17,-355.92 430.75,-355.51 428.19,-349"/>
</a>
</g>
</g>
</g>
</svg>
