<?xml version="1.0" encoding="UTF-8" standalone="no"?>
<!DOCTYPE svg PUBLIC "-//W3C//DTD SVG 1.1//EN"
 "http://www.w3.org/Graphics/SVG/1.1/DTD/svg11.dtd">
<!-- Generated by graphviz version 2.43.0 (0)
 -->
<!-- Title: Graphical Class Hierarchy Pages: 1 -->
<svg width="694pt" height="499pt"
 viewBox="0.00 0.00 694.00 499.00" xmlns="http://www.w3.org/2000/svg" xmlns:xlink="http://www.w3.org/1999/xlink">
<g id="graph0" class="graph" transform="scale(1 1) rotate(0) translate(4 495)">
<title>Graphical Class Hierarchy</title>
<!-- Node0 -->
<g id="Node000000" class="node">
<title>Node0</title>
<g id="a_Node000000"><a xlink:href="interfaceWolfstagInteractive_1_1ConvoCore_1_1IEditorPreviewableRepresentation.html" target="_top" xlink:title=" ">
<polygon fill="white" stroke="#666666" points="208,-443 0,-443 0,-413 208,-413 208,-443"/>
<text text-anchor="start" x="8" y="-431" font-family="Helvetica,sans-Serif" font-size="10.00">WolfstagInteractive.Convo</text>
<text text-anchor="middle" x="104" y="-420" font-family="Helvetica,sans-Serif" font-size="10.00">Core.IEditorPreviewableRepresentation</text>
</a>
</g>
</g>
<!-- Node1 -->
<g id="Node000001" class="node">
<title>Node1</title>
<g id="a_Node000001"><a xlink:href="classWolfstagInteractive_1_1ConvoCore_1_1CharacterRepresentationBase.html" target="_top" xlink:title=" ">
<polygon fill="white" stroke="#666666" points="432,-443 244,-443 244,-413 432,-413 432,-443"/>
<text text-anchor="start" x="252" y="-431" font-family="Helvetica,sans-Serif" font-size="10.00">WolfstagInteractive.Convo</text>
<text text-anchor="middle" x="338" y="-420" font-family="Helvetica,sans-Serif" font-size="10.00">Core.CharacterRepresentationBase</text>
</a>
</g>
</g>
<!-- Node0&#45;&gt;Node1 -->
<g id="edge13_Node000000_Node000001" class="edge">
<title>Node0&#45;&gt;Node1</title>
<g id="a_edge13_Node000000_Node000001"><a xlink:title=" ">
<path fill="none" stroke="#63b8ff" d="M218.15,-428C226.72,-428 235.31,-428 243.73,-428"/>
<polygon fill="#63b8ff" stroke="#63b8ff" points="218.11,-424.5 208.11,-428 218.11,-431.5 218.11,-424.5"/>
</a>
</g>
</g>
<!-- Node2 -->
<g id="Node000002" class="node">
<title>Node2</title>
<g id="a_Node000002"><a xlink:href="classWolfstagInteractive_1_1ConvoCore_1_1PrefabCharacterRepresentationData.html" target="_top" xlink:title=" ">
<polygon fill="white" stroke="#666666" points="686,-491 468,-491 468,-461 686,-461 686,-491"/>
<text text-anchor="start" x="476" y="-479" font-family="Helvetica,sans-Serif" font-size="10.00">WolfstagInteractive.Convo</text>
<text text-anchor="middle" x="577" y="-468" font-family="Helvetica,sans-Serif" font-size="10.00">Core.PrefabCharacterRepresentationData</text>
</a>
</g>
</g>
<!-- Node1&#45;&gt;Node2 -->
<g id="edge14_Node000001_Node000002" class="edge">
<title>Node1&#45;&gt;Node2</title>
<g id="a_edge14_Node000001_Node000002"><a xlink:title=" ">
<path fill="none" stroke="#63b8ff" d="M423.41,-445.1C449.05,-450.29 477.02,-455.95 501.93,-461"/>
<polygon fill="#63b8ff" stroke="#63b8ff" points="423.83,-441.61 413.34,-443.06 422.44,-448.47 423.83,-441.61"/>
</a>
</g>
</g>
<!-- Node3 -->
<g id="Node000003" class="node">
<title>Node3</title>
<g id="a_Node000003"><a xlink:href="classWolfstagInteractive_1_1ConvoCore_1_1SpriteCharacterRepresentationData.html" target="_top" xlink:title=" ">
<polygon fill="white" stroke="#666666" points="684.5,-443 469.5,-443 469.5,-413 684.5,-413 684.5,-443"/>
<text text-anchor="start" x="477.5" y="-431" font-family="Helvetica,sans-Serif" font-size="10.00">WolfstagInteractive.Convo</text>
<text text-anchor="middle" x="577" y="-420" font-family="Helvetica,sans-Serif" font-size="10.00">Core.SpriteCharacterRepresentationData</text>
</a>
</g>
</g>
<!-- Node1&#45;&gt;Node3 -->
<g id="edge15_Node000001_Node000003" class="edge">
<title>Node1&#45;&gt;Node3</title>
<g id="a_edge15_Node000001_Node000003"><a xlink:title=" ">
<path fill="none" stroke="#63b8ff" d="M442.39,-428C451.35,-428 460.44,-428 469.43,-428"/>
<polygon fill="#63b8ff" stroke="#63b8ff" points="442.33,-424.5 432.33,-428 442.33,-431.5 442.33,-424.5"/>
</a>
</g>
</g>
<!-- Node4 -->
<g id="Node000004" class="node">
<title>Node4</title>
<g id="a_Node000004"><a xlink:title=" ">
<polygon fill="#e0e0e0" stroke="#999999" points="152.5,-174.5 55.5,-174.5 55.5,-155.5 152.5,-155.5 152.5,-174.5"/>
<text text-anchor="middle" x="104" y="-162.5" font-family="Helvetica,sans-Serif" font-size="10.00">ScriptableObject</text>
</a>
</g>
</g>
<!-- Node4&#45;&gt;Node1 -->
<g id="edge23_Node000004_Node000001" class="edge">
<title>Node4&#45;&gt;Node1</title>
<g id="a_edge23_Node000004_Node000001"><a xlink:title=" ">
<path fill="none" stroke="#63b8ff" d="M120.38,-182.44C163.26,-231.04 283.58,-367.44 323.75,-412.98"/>
<polygon fill="#63b8ff" stroke="#63b8ff" points="122.77,-179.86 113.53,-174.67 117.52,-184.49 122.77,-179.86"/>
</a>
</g>
</g>
<!-- Node5 -->
<g id="Node000005" class="node">
<title>Node5</title>
<g id="a_Node000005"><a xlink:href="classWolfstagInteractive_1_1ConvoCore_1_1BaseAction.html" target="_top" xlink:title=" ">
<polygon fill="white" stroke="#666666" points="411,-282 265,-282 265,-252 411,-252 411,-282"/>
<text text-anchor="start" x="273" y="-270" font-family="Helvetica,sans-Serif" font-size="10.00">WolfstagInteractive.Convo</text>
<text text-anchor="middle" x="338" y="-259" font-family="Helvetica,sans-Serif" font-size="10.00">Core.BaseAction</text>
</a>
</g>
</g>
<!-- Node4&#45;&gt;Node5 -->
<g id="edge16_Node000004_Node000005" class="edge">
<title>Node4&#45;&gt;Node5</title>
<g id="a_edge16_Node000004_Node000005"><a xlink:title=" ">
<path fill="none" stroke="#63b8ff" d="M128.04,-180.4C154.88,-197.74 201.05,-225.75 244,-243 252.2,-246.29 260.99,-249.25 269.78,-251.87"/>
<polygon fill="#63b8ff" stroke="#63b8ff" points="129.67,-177.28 119.39,-174.74 125.84,-183.14 129.67,-177.28"/>
</a>
</g>
</g>
<!-- Node12 -->
<g id="Node000012" class="node">
<title>Node12</title>
<g id="a_Node000012"><a xlink:href="classWolfstagInteractive_1_1ConvoCore_1_1ConvoCoreCharacterEmotion.html" target="_top" xlink:title=" ">
<polygon fill="white" stroke="#666666" points="429.5,-234 246.5,-234 246.5,-204 429.5,-204 429.5,-234"/>
<text text-anchor="start" x="254.5" y="-222" font-family="Helvetica,sans-Serif" font-size="10.00">WolfstagInteractive.Convo</text>
<text text-anchor="middle" x="338" y="-211" font-family="Helvetica,sans-Serif" font-size="10.00">Core.ConvoCoreCharacterEmotion</text>
</a>
</g>
</g>
<!-- Node4&#45;&gt;Node12 -->
<g id="edge24_Node000004_Node000012" class="edge">
<title>Node4&#45;&gt;Node12</title>
<g id="a_edge24_Node000004_Node000012"><a xlink:title=" ">
<path fill="none" stroke="#63b8ff" d="M155.74,-176.81C190.01,-184.79 235.53,-195.38 272.39,-203.96"/>
<polygon fill="#63b8ff" stroke="#63b8ff" points="156.48,-173.39 145.94,-174.53 154.89,-180.21 156.48,-173.39"/>
</a>
</g>
</g>
<!-- Node13 -->
<g id="Node000013" class="node">
<title>Node13</title>
<g id="a_Node000013"><a xlink:href="classWolfstagInteractive_1_1ConvoCore_1_1ConvoCoreCharacterProfileBaseData.html" target="_top" xlink:title=" ">
<polygon fill="white" stroke="#666666" points="424.5,-185.5 251.5,-185.5 251.5,-144.5 424.5,-144.5 424.5,-185.5"/>
<text text-anchor="start" x="259.5" y="-173.5" font-family="Helvetica,sans-Serif" font-size="10.00">WolfstagInteractive.Convo</text>
<text text-anchor="start" x="259.5" y="-162.5" font-family="Helvetica,sans-Serif" font-size="10.00">Core.ConvoCoreCharacterProfile</text>
<text text-anchor="middle" x="338" y="-151.5" font-family="Helvetica,sans-Serif" font-size="10.00">BaseData</text>
</a>
</g>
</g>
<!-- Node4&#45;&gt;Node13 -->
<g id="edge25_Node000004_Node000013" class="edge">
<title>Node4&#45;&gt;Node13</title>
<g id="a_edge25_Node000004_Node000013"><a xlink:title=" ">
<path fill="none" stroke="#63b8ff" d="M162.81,-165C189.47,-165 221.67,-165 251.09,-165"/>
<polygon fill="#63b8ff" stroke="#63b8ff" points="162.51,-161.5 152.51,-165 162.51,-168.5 162.51,-161.5"/>
</a>
</g>
</g>
<!-- Node14 -->
<g id="Node000014" class="node">
<title>Node14</title>
<g id="a_Node000014"><a xlink:href="classWolfstagInteractive_1_1ConvoCore_1_1ConvoCoreConversationData.html" target="_top" xlink:title=" ">
<polygon fill="white" stroke="#666666" points="429.5,-126 246.5,-126 246.5,-96 429.5,-96 429.5,-126"/>
<text text-anchor="start" x="254.5" y="-114" font-family="Helvetica,sans-Serif" font-size="10.00">WolfstagInteractive.Convo</text>
<text text-anchor="middle" x="338" y="-103" font-family="Helvetica,sans-Serif" font-size="10.00">Core.ConvoCoreConversationData</text>
</a>
</g>
</g>
<!-- Node4&#45;&gt;Node14 -->
<g id="edge26_Node000004_Node000014" class="edge">
<title>Node4&#45;&gt;Node14</title>
<g id="a_edge26_Node000004_Node000014"><a xlink:title=" ">
<path fill="none" stroke="#63b8ff" d="M155.74,-153.19C190.01,-145.21 235.53,-134.62 272.39,-126.04"/>
<polygon fill="#63b8ff" stroke="#63b8ff" points="154.89,-149.79 145.94,-155.47 156.48,-156.61 154.89,-149.79"/>
</a>
</g>
</g>
<!-- Node15 -->
<g id="Node000015" class="node">
<title>Node15</title>
<g id="a_Node000015"><a xlink:href="classWolfstagInteractive_1_1ConvoCore_1_1ConvoCoreLanguageSettings.html" target="_top" xlink:title=" ">
<polygon fill="white" stroke="#666666" points="429,-78 247,-78 247,-48 429,-48 429,-78"/>
<text text-anchor="start" x="255" y="-66" font-family="Helvetica,sans-Serif" font-size="10.00">WolfstagInteractive.Convo</text>
<text text-anchor="middle" x="338" y="-55" font-family="Helvetica,sans-Serif" font-size="10.00">Core.ConvoCoreLanguageSettings</text>
</a>
</g>
</g>
<!-- Node4&#45;&gt;Node15 -->
<g id="edge27_Node000004_Node000015" class="edge">
<title>Node4&#45;&gt;Node15</title>
<g id="a_edge27_Node000004_Node000015"><a xlink:title=" ">
<path fill="none" stroke="#63b8ff" d="M128.04,-149.6C154.88,-132.26 201.05,-104.25 244,-87 252.2,-83.71 260.99,-80.75 269.78,-78.13"/>
<polygon fill="#63b8ff" stroke="#63b8ff" points="125.84,-146.86 119.39,-155.26 129.67,-152.72 125.84,-146.86"/>
</a>
</g>
</g>
<!-- Node16 -->
<g id="Node000016" class="node">
<title>Node16</title>
<g id="a_Node000016"><a xlink:href="classWolfstagInteractive_1_1ConvoCore_1_1ConvoCoreSettings.html" target="_top" xlink:title=" ">
<polygon fill="white" stroke="#666666" points="411,-30 265,-30 265,0 411,0 411,-30"/>
<text text-anchor="start" x="273" y="-18" font-family="Helvetica,sans-Serif" font-size="10.00">WolfstagInteractive.Convo</text>
<text text-anchor="middle" x="338" y="-7" font-family="Helvetica,sans-Serif" font-size="10.00">Core.ConvoCoreSettings</text>
</a>
</g>
</g>
<!-- Node4&#45;&gt;Node16 -->
<g id="edge28_Node000004_Node000016" class="edge">
<title>Node4&#45;&gt;Node16</title>
<g id="a_edge28_Node000004_Node000016"><a xlink:title=" ">
<path fill="none" stroke="#63b8ff" d="M119.25,-147.49C142.48,-120.13 191.23,-67.45 244,-39 250.46,-35.52 257.44,-32.52 264.58,-29.95"/>
<polygon fill="#63b8ff" stroke="#63b8ff" points="116.36,-145.5 112.64,-155.42 121.73,-149.98 116.36,-145.5"/>
</a>
</g>
</g>
<!-- Node6 -->
<g id="Node000006" class="node">
<title>Node6</title>
<g id="a_Node000006"><a xlink:href="classWolfstagInteractive_1_1ConvoCore_1_1ConvoCoreAction__ActionGroup.html" target="_top" xlink:title=" ">
<polygon fill="white" stroke="#666666" points="672.5,-395 481.5,-395 481.5,-365 672.5,-365 672.5,-395"/>
<text text-anchor="start" x="489.5" y="-383" font-family="Helvetica,sans-Serif" font-size="10.00">WolfstagInteractive.Convo</text>
<text text-anchor="middle" x="577" y="-372" font-family="Helvetica,sans-Serif" font-size="10.00">Core.ConvoCoreAction_ActionGroup</text>
</a>
</g>
</g>
<!-- Node5&#45;&gt;Node6 -->
<g id="edge17_Node000005_Node000006" class="edge">
<title>Node5&#45;&gt;Node6</title>
<g id="a_edge17_Node000005_Node000006"><a xlink:title=" ">
<path fill="none" stroke="#63b8ff" d="M363.86,-288.54C388.63,-308.89 428.56,-338.8 468,-356 475.83,-359.42 484.21,-362.37 492.7,-364.92"/>
<polygon fill="#63b8ff" stroke="#63b8ff" points="365.98,-285.75 356.06,-282.03 361.5,-291.13 365.98,-285.75"/>
</a>
</g>
</g>
<!-- Node7 -->
<g id="Node000007" class="node">
<title>Node7</title>
<g id="a_Node000007"><a xlink:href="classWolfstagInteractive_1_1ConvoCore_1_1ConvoCoreAction__EnableDisableGameObject.html" target="_top" xlink:title=" ">
<polygon fill="white" stroke="#666666" points="677.5,-346.5 476.5,-346.5 476.5,-305.5 677.5,-305.5 677.5,-346.5"/>
<text text-anchor="start" x="484.5" y="-334.5" font-family="Helvetica,sans-Serif" font-size="10.00">WolfstagInteractive.Convo</text>
<text text-anchor="start" x="484.5" y="-323.5" font-family="Helvetica,sans-Serif" font-size="10.00">Core.ConvoCoreAction_EnableDisable</text>
<text text-anchor="middle" x="577" y="-312.5" font-family="Helvetica,sans-Serif" font-size="10.00">GameObject</text>
</a>
</g>
</g>
<!-- Node5&#45;&gt;Node7 -->
<g id="edge18_Node000005_Node000007" class="edge">
<title>Node5&#45;&gt;Node7</title>
<g id="a_edge18_Node000005_Node000007"><a xlink:title=" ">
<path fill="none" stroke="#63b8ff" d="M409.33,-284.51C435.71,-291.08 465.94,-298.6 493.34,-305.42"/>
<polygon fill="#63b8ff" stroke="#63b8ff" points="409.97,-281.06 399.42,-282.04 408.28,-287.85 409.97,-281.06"/>
</a>
</g>
</g>
<!-- Node8 -->
<g id="Node000008" class="node">
<title>Node8</title>
<g id="a_Node000008"><a xlink:href="classWolfstagInteractive_1_1ConvoCore_1_1ConvoCoreAction__FadeInOutSpriteRenderer.html" target="_top" xlink:title=" ">
<polygon fill="white" stroke="#666666" points="667,-287.5 487,-287.5 487,-246.5 667,-246.5 667,-287.5"/>
<text text-anchor="start" x="495" y="-275.5" font-family="Helvetica,sans-Serif" font-size="10.00">WolfstagInteractive.Convo</text>
<text text-anchor="start" x="495" y="-264.5" font-family="Helvetica,sans-Serif" font-size="10.00">Core.ConvoCoreAction_FadeInOut</text>
<text text-anchor="middle" x="577" y="-253.5" font-family="Helvetica,sans-Serif" font-size="10.00">SpriteRenderer</text>
</a>
</g>
</g>
<!-- Node5&#45;&gt;Node8 -->
<g id="edge19_Node000005_Node000008" class="edge">
<title>Node5&#45;&gt;Node8</title>
<g id="a_edge19_Node000005_Node000008"><a xlink:title=" ">
<path fill="none" stroke="#63b8ff" d="M421.29,-267C442.41,-267 465.22,-267 486.68,-267"/>
<polygon fill="#63b8ff" stroke="#63b8ff" points="421.07,-263.5 411.07,-267 421.07,-270.5 421.07,-263.5"/>
</a>
</g>
</g>
<!-- Node9 -->
<g id="Node000009" class="node">
<title>Node9</title>
<g id="a_Node000009"><a xlink:href="classWolfstagInteractive_1_1ConvoCore_1_1ConvoCoreAction__InstantiatePrefab.html" target="_top" xlink:title=" ">
<polygon fill="white" stroke="#666666" points="669,-228.5 485,-228.5 485,-187.5 669,-187.5 669,-228.5"/>
<text text-anchor="start" x="493" y="-216.5" font-family="Helvetica,sans-Serif" font-size="10.00">WolfstagInteractive.Convo</text>
<text text-anchor="start" x="493" y="-205.5" font-family="Helvetica,sans-Serif" font-size="10.00">Core.ConvoCoreAction_Instantiate</text>
<text text-anchor="middle" x="577" y="-194.5" font-family="Helvetica,sans-Serif" font-size="10.00">Prefab</text>
</a>
</g>
</g>
<!-- Node5&#45;&gt;Node9 -->
<g id="edge20_Node000005_Node000009" class="edge">
<title>Node5&#45;&gt;Node9</title>
<g id="a_edge20_Node000005_Node000009"><a xlink:title=" ">
<path fill="none" stroke="#63b8ff" d="M409.33,-249.49C435.71,-242.92 465.94,-235.4 493.34,-228.58"/>
<polygon fill="#63b8ff" stroke="#63b8ff" points="408.28,-246.15 399.42,-251.96 409.97,-252.94 408.28,-246.15"/>
</a>
</g>
</g>
<!-- Node10 -->
<g id="Node000010" class="node">
<title>Node10</title>
<g id="a_Node000010"><a xlink:href="classWolfstagInteractive_1_1ConvoCore_1_1ConvoCoreAction__ModifyTransform.html" target="_top" xlink:title=" ">
<polygon fill="white" stroke="#666666" points="683.5,-169 470.5,-169 470.5,-139 683.5,-139 683.5,-169"/>
<text text-anchor="start" x="478.5" y="-157" font-family="Helvetica,sans-Serif" font-size="10.00">WolfstagInteractive.Convo</text>
<text text-anchor="middle" x="577" y="-146" font-family="Helvetica,sans-Serif" font-size="10.00">Core.ConvoCoreAction_ModifyTransform</text>
</a>
</g>
</g>
<!-- Node5&#45;&gt;Node10 -->
<g id="edge21_Node000005_Node000010" class="edge">
<title>Node5&#45;&gt;Node10</title>
<g id="a_edge21_Node000005_Node000010"><a xlink:title=" ">
<path fill="none" stroke="#63b8ff" d="M420.47,-250.37C424.53,-248.21 428.41,-245.76 432,-243 457.87,-223.11 441.88,-198.57 468,-179 473.16,-175.13 478.82,-171.85 484.76,-169.07"/>
<polygon fill="#63b8ff" stroke="#63b8ff" points="418.88,-247.25 411.32,-254.68 421.86,-253.59 418.88,-247.25"/>
</a>
</g>
</g>
<!-- Node11 -->
<g id="Node000011" class="node">
<title>Node11</title>
<g id="a_Node000011"><a xlink:href="classWolfstagInteractive_1_1ConvoCore_1_1ConvoCoreAction__PlayAudioClip.html" target="_top" xlink:title=" ">
<polygon fill="white" stroke="#666666" points="676.5,-121 477.5,-121 477.5,-91 676.5,-91 676.5,-121"/>
<text text-anchor="start" x="485.5" y="-109" font-family="Helvetica,sans-Serif" font-size="10.00">WolfstagInteractive.Convo</text>
<text text-anchor="middle" x="577" y="-98" font-family="Helvetica,sans-Serif" font-size="10.00">Core.ConvoCoreAction_PlayAudioClip</text>
</a>
</g>
</g>
<!-- Node5&#45;&gt;Node11 -->
<g id="edge22_Node000005_Node000011" class="edge">
<title>Node5&#45;&gt;Node11</title>
<g id="a_edge22_Node000005_Node000011"><a xlink:title=" ">
<path fill="none" stroke="#63b8ff" d="M420.36,-251.72C424.55,-249.22 428.48,-246.33 432,-243 470.3,-206.78 429.09,-165.56 468,-130 471.69,-126.63 475.74,-123.7 480.04,-121.15"/>
<polygon fill="#63b8ff" stroke="#63b8ff" points="418.72,-248.62 411.44,-256.31 421.93,-254.84 418.72,-248.62"/>
</a>
</g>
</g>
</g>
</svg>
