<?xml version="1.0" encoding="UTF-8" standalone="no"?>
<!DOCTYPE svg PUBLIC "-//W3C//DTD SVG 1.1//EN"
 "http://www.w3.org/Graphics/SVG/1.1/DTD/svg11.dtd">
<!-- Generated by graphviz version 2.43.0 (0)
 -->
<!-- Title: Graphical Class Hierarchy Pages: 1 -->
<svg width="712pt" height="654pt"
 viewBox="0.00 0.00 712.00 654.00" xmlns="http://www.w3.org/2000/svg" xmlns:xlink="http://www.w3.org/1999/xlink">
<g id="graph0" class="graph" transform="scale(1 1) rotate(0) translate(4 650)">
<title>Graphical Class Hierarchy</title>
<!-- Node0 -->
<g id="Node000000" class="node">
<title>Node0</title>
<g id="a_Node000000"><a xlink:href="interfaceWolfstagInteractive_1_1ConvoCore_1_1IEditorPreviewableRepresentation.html" target="_top" xlink:title=" ">
<polygon fill="white" stroke="#666666" points="208,-598 0,-598 0,-568 208,-568 208,-598"/>
<text text-anchor="start" x="8" y="-586" font-family="Helvetica,sans-Serif" font-size="10.00">WolfstagInteractive.Convo</text>
<text text-anchor="middle" x="104" y="-575" font-family="Helvetica,sans-Serif" font-size="10.00">Core.IEditorPreviewableRepresentation</text>
</a>
</g>
</g>
<!-- Node1 -->
<g id="Node000001" class="node">
<title>Node1</title>
<g id="a_Node000001"><a xlink:href="classWolfstagInteractive_1_1ConvoCore_1_1CharacterRepresentationBase.html" target="_top" xlink:title=" ">
<polygon fill="white" stroke="#666666" points="441,-598 253,-598 253,-568 441,-568 441,-598"/>
<text text-anchor="start" x="261" y="-586" font-family="Helvetica,sans-Serif" font-size="10.00">WolfstagInteractive.Convo</text>
<text text-anchor="middle" x="347" y="-575" font-family="Helvetica,sans-Serif" font-size="10.00">Core.CharacterRepresentationBase</text>
</a>
</g>
</g>
<!-- Node0&#45;&gt;Node1 -->
<g id="edge25_Node000000_Node000001" class="edge">
<title>Node0&#45;&gt;Node1</title>
<g id="a_edge25_Node000000_Node000001"><a xlink:title=" ">
<path fill="none" stroke="#63b8ff" d="M218.37,-583C229.92,-583 241.56,-583 252.86,-583"/>
<polygon fill="#63b8ff" stroke="#63b8ff" points="218.25,-579.5 208.25,-583 218.25,-586.5 218.25,-579.5"/>
</a>
</g>
</g>
<!-- Node2 -->
<g id="Node000002" class="node">
<title>Node2</title>
<g id="a_Node000002"><a xlink:href="classWolfstagInteractive_1_1ConvoCore_1_1PrefabCharacterRepresentationData.html" target="_top" xlink:title=" ">
<polygon fill="white" stroke="#666666" points="704,-646 486,-646 486,-616 704,-616 704,-646"/>
<text text-anchor="start" x="494" y="-634" font-family="Helvetica,sans-Serif" font-size="10.00">WolfstagInteractive.Convo</text>
<text text-anchor="middle" x="595" y="-623" font-family="Helvetica,sans-Serif" font-size="10.00">Core.PrefabCharacterRepresentationData</text>
</a>
</g>
</g>
<!-- Node1&#45;&gt;Node2 -->
<g id="edge26_Node000001_Node000002" class="edge">
<title>Node1&#45;&gt;Node2</title>
<g id="a_edge26_Node000001_Node000002"><a xlink:title=" ">
<path fill="none" stroke="#63b8ff" d="M435.27,-600.03C461.98,-605.24 491.15,-610.93 517.11,-616"/>
<polygon fill="#63b8ff" stroke="#63b8ff" points="435.65,-596.54 425.16,-598.06 434.31,-603.41 435.65,-596.54"/>
</a>
</g>
</g>
<!-- Node3 -->
<g id="Node000003" class="node">
<title>Node3</title>
<g id="a_Node000003"><a xlink:href="classWolfstagInteractive_1_1ConvoCore_1_1SpriteCharacterRepresentationData.html" target="_top" xlink:title=" ">
<polygon fill="white" stroke="#666666" points="702.5,-598 487.5,-598 487.5,-568 702.5,-568 702.5,-598"/>
<text text-anchor="start" x="495.5" y="-586" font-family="Helvetica,sans-Serif" font-size="10.00">WolfstagInteractive.Convo</text>
<text text-anchor="middle" x="595" y="-575" font-family="Helvetica,sans-Serif" font-size="10.00">Core.SpriteCharacterRepresentationData</text>
</a>
</g>
</g>
<!-- Node1&#45;&gt;Node3 -->
<g id="edge27_Node000001_Node000003" class="edge">
<title>Node1&#45;&gt;Node3</title>
<g id="a_edge27_Node000001_Node000003"><a xlink:title=" ">
<path fill="none" stroke="#63b8ff" d="M451.35,-583C463.22,-583 475.34,-583 487.25,-583"/>
<polygon fill="#63b8ff" stroke="#63b8ff" points="451,-579.5 441,-583 451,-586.5 451,-579.5"/>
</a>
</g>
</g>
<!-- Node4 -->
<g id="Node000004" class="node">
<title>Node4</title>
<g id="a_Node000004"><a xlink:title=" ">
<polygon fill="#e0e0e0" stroke="#999999" points="152.5,-276.5 55.5,-276.5 55.5,-257.5 152.5,-257.5 152.5,-276.5"/>
<text text-anchor="middle" x="104" y="-264.5" font-family="Helvetica,sans-Serif" font-size="10.00">ScriptableObject</text>
</a>
</g>
</g>
<!-- Node4&#45;&gt;Node1 -->
<g id="edge36_Node000004_Node000001" class="edge">
<title>Node4&#45;&gt;Node1</title>
<g id="a_edge36_Node000004_Node000001"><a xlink:title=" ">
<path fill="none" stroke="#63b8ff" d="M116.14,-285.51C138.65,-322.41 191.82,-407.22 244,-473 272.33,-508.71 309.59,-547 330.33,-567.66"/>
<polygon fill="#63b8ff" stroke="#63b8ff" points="119.05,-283.55 110.87,-276.81 113.06,-287.18 119.05,-283.55"/>
</a>
</g>
</g>
<!-- Node5 -->
<g id="Node000005" class="node">
<title>Node5</title>
<g id="a_Node000005"><a xlink:href="classBaseExpressionAction.html" target="_top" xlink:title=" ">
<polygon fill="white" stroke="#666666" points="409.5,-463.5 284.5,-463.5 284.5,-444.5 409.5,-444.5 409.5,-463.5"/>
<text text-anchor="middle" x="347" y="-451.5" font-family="Helvetica,sans-Serif" font-size="10.00">BaseExpressionAction</text>
</a>
</g>
</g>
<!-- Node4&#45;&gt;Node5 -->
<g id="edge28_Node000004_Node000005" class="edge">
<title>Node4&#45;&gt;Node5</title>
<g id="a_edge28_Node000004_Node000005"><a xlink:title=" ">
<path fill="none" stroke="#63b8ff" d="M114.68,-285.81C134.03,-321.31 181.05,-397.96 244,-435 256.19,-442.17 270.49,-446.73 284.47,-449.61"/>
<polygon fill="#63b8ff" stroke="#63b8ff" points="117.56,-283.76 109.78,-276.58 111.38,-287.05 117.56,-283.76"/>
</a>
</g>
</g>
<!-- Node6 -->
<g id="Node000006" class="node">
<title>Node6</title>
<g id="a_Node000006"><a xlink:href="classWolfstagInteractive_1_1ConvoCore_1_1BaseDialogueLineAction.html" target="_top" xlink:title=" ">
<polygon fill="white" stroke="#666666" points="427.5,-426 266.5,-426 266.5,-396 427.5,-396 427.5,-426"/>
<text text-anchor="start" x="274.5" y="-414" font-family="Helvetica,sans-Serif" font-size="10.00">WolfstagInteractive.Convo</text>
<text text-anchor="middle" x="347" y="-403" font-family="Helvetica,sans-Serif" font-size="10.00">Core.BaseDialogueLineAction</text>
</a>
</g>
</g>
<!-- Node4&#45;&gt;Node6 -->
<g id="edge29_Node000004_Node000006" class="edge">
<title>Node4&#45;&gt;Node6</title>
<g id="a_edge29_Node000004_Node000006"><a xlink:title=" ">
<path fill="none" stroke="#63b8ff" d="M119.72,-284.17C143.24,-310.47 191.98,-360.47 244,-387 251.05,-390.6 258.65,-393.66 266.41,-396.28"/>
<polygon fill="#63b8ff" stroke="#63b8ff" points="122.22,-281.72 112.99,-276.52 116.97,-286.34 122.22,-281.72"/>
</a>
</g>
</g>
<!-- Node13 -->
<g id="Node000013" class="node">
<title>Node13</title>
<g id="a_Node000013"><a xlink:href="classWolfstagInteractive_1_1ConvoCore_1_1ConversationBranchContainer.html" target="_top" xlink:title=" ">
<polygon fill="white" stroke="#666666" points="441,-378 253,-378 253,-348 441,-348 441,-378"/>
<text text-anchor="start" x="261" y="-366" font-family="Helvetica,sans-Serif" font-size="10.00">WolfstagInteractive.Convo</text>
<text text-anchor="middle" x="347" y="-355" font-family="Helvetica,sans-Serif" font-size="10.00">Core.ConversationBranchContainer</text>
</a>
</g>
</g>
<!-- Node4&#45;&gt;Node13 -->
<g id="edge37_Node000004_Node000013" class="edge">
<title>Node4&#45;&gt;Node13</title>
<g id="a_edge37_Node000004_Node000013"><a xlink:title=" ">
<path fill="none" stroke="#63b8ff" d="M129.02,-281.78C156.09,-297.87 201.82,-323.39 244,-339 253.04,-342.35 262.71,-345.34 272.36,-347.97"/>
<polygon fill="#63b8ff" stroke="#63b8ff" points="130.64,-278.67 120.26,-276.52 127.03,-284.67 130.64,-278.67"/>
</a>
</g>
</g>
<!-- Node14 -->
<g id="Node000014" class="node">
<title>Node14</title>
<g id="a_Node000014"><a xlink:href="classWolfstagInteractive_1_1ConvoCore_1_1ConversationContainer.html" target="_top" xlink:title=" ">
<polygon fill="white" stroke="#666666" points="424,-330 270,-330 270,-300 424,-300 424,-330"/>
<text text-anchor="start" x="278" y="-318" font-family="Helvetica,sans-Serif" font-size="10.00">WolfstagInteractive.Convo</text>
<text text-anchor="middle" x="347" y="-307" font-family="Helvetica,sans-Serif" font-size="10.00">Core.ConversationContainer</text>
</a>
</g>
</g>
<!-- Node4&#45;&gt;Node14 -->
<g id="edge38_Node000004_Node000014" class="edge">
<title>Node4&#45;&gt;Node14</title>
<g id="a_edge38_Node000004_Node000014"><a xlink:title=" ">
<path fill="none" stroke="#63b8ff" d="M162.79,-278.51C195.08,-284.94 235.71,-293.03 270.5,-299.96"/>
<polygon fill="#63b8ff" stroke="#63b8ff" points="163.1,-275 152.61,-276.48 161.74,-281.87 163.1,-275"/>
</a>
</g>
</g>
<!-- Node15 -->
<g id="Node000015" class="node">
<title>Node15</title>
<g id="a_Node000015"><a xlink:href="classWolfstagInteractive_1_1ConvoCore_1_1ConvoCoreCharacterExpression.html" target="_top" xlink:title=" ">
<polygon fill="white" stroke="#666666" points="445,-282 249,-282 249,-252 445,-252 445,-282"/>
<text text-anchor="start" x="257" y="-270" font-family="Helvetica,sans-Serif" font-size="10.00">WolfstagInteractive.Convo</text>
<text text-anchor="middle" x="347" y="-259" font-family="Helvetica,sans-Serif" font-size="10.00">Core.ConvoCoreCharacterExpression</text>
</a>
</g>
</g>
<!-- Node4&#45;&gt;Node15 -->
<g id="edge39_Node000004_Node000015" class="edge">
<title>Node4&#45;&gt;Node15</title>
<g id="a_edge39_Node000004_Node000015"><a xlink:title=" ">
<path fill="none" stroke="#63b8ff" d="M162.92,-267C188.61,-267 219.57,-267 248.65,-267"/>
<polygon fill="#63b8ff" stroke="#63b8ff" points="162.61,-263.5 152.61,-267 162.61,-270.5 162.61,-263.5"/>
</a>
</g>
</g>
<!-- Node16 -->
<g id="Node000016" class="node">
<title>Node16</title>
<g id="a_Node000016"><a xlink:href="classWolfstagInteractive_1_1ConvoCore_1_1ConvoCoreCharacterProfileBaseData.html" target="_top" xlink:title=" ">
<polygon fill="white" stroke="#666666" points="433.5,-233.5 260.5,-233.5 260.5,-192.5 433.5,-192.5 433.5,-233.5"/>
<text text-anchor="start" x="268.5" y="-221.5" font-family="Helvetica,sans-Serif" font-size="10.00">WolfstagInteractive.Convo</text>
<text text-anchor="start" x="268.5" y="-210.5" font-family="Helvetica,sans-Serif" font-size="10.00">Core.ConvoCoreCharacterProfile</text>
<text text-anchor="middle" x="347" y="-199.5" font-family="Helvetica,sans-Serif" font-size="10.00">BaseData</text>
</a>
</g>
</g>
<!-- Node4&#45;&gt;Node16 -->
<g id="edge40_Node000004_Node000016" class="edge">
<title>Node4&#45;&gt;Node16</title>
<g id="a_edge40_Node000004_Node000016"><a xlink:title=" ">
<path fill="none" stroke="#63b8ff" d="M157.4,-255.26C187.52,-248.51 226.08,-239.87 260.48,-232.16"/>
<polygon fill="#63b8ff" stroke="#63b8ff" points="156.52,-251.87 147.53,-257.47 158.05,-258.7 156.52,-251.87"/>
</a>
</g>
</g>
<!-- Node17 -->
<g id="Node000017" class="node">
<title>Node17</title>
<g id="a_Node000017"><a xlink:href="classWolfstagInteractive_1_1ConvoCore_1_1ConvoCoreConversationData.html" target="_top" xlink:title=" ">
<polygon fill="white" stroke="#666666" points="438.5,-174 255.5,-174 255.5,-144 438.5,-144 438.5,-174"/>
<text text-anchor="start" x="263.5" y="-162" font-family="Helvetica,sans-Serif" font-size="10.00">WolfstagInteractive.Convo</text>
<text text-anchor="middle" x="347" y="-151" font-family="Helvetica,sans-Serif" font-size="10.00">Core.ConvoCoreConversationData</text>
</a>
</g>
</g>
<!-- Node4&#45;&gt;Node17 -->
<g id="edge41_Node000004_Node000017" class="edge">
<title>Node4&#45;&gt;Node17</title>
<g id="a_edge41_Node000004_Node000017"><a xlink:title=" ">
<path fill="none" stroke="#63b8ff" d="M126.1,-251.34C152.41,-232.52 199.39,-201.2 244,-183 252.34,-179.6 261.26,-176.62 270.24,-174.02"/>
<polygon fill="#63b8ff" stroke="#63b8ff" points="123.73,-248.74 117.69,-257.44 127.84,-254.4 123.73,-248.74"/>
</a>
</g>
</g>
<!-- Node18 -->
<g id="Node000018" class="node">
<title>Node18</title>
<g id="a_Node000018"><a xlink:href="classWolfstagInteractive_1_1ConvoCore_1_1ConvoCoreHistoryRendererProfile.html" target="_top" xlink:title=" ">
<polygon fill="white" stroke="#666666" points="450,-126 244,-126 244,-96 450,-96 450,-126"/>
<text text-anchor="start" x="252" y="-114" font-family="Helvetica,sans-Serif" font-size="10.00">WolfstagInteractive.Convo</text>
<text text-anchor="middle" x="347" y="-103" font-family="Helvetica,sans-Serif" font-size="10.00">Core.ConvoCoreHistoryRendererProfile</text>
</a>
</g>
</g>
<!-- Node4&#45;&gt;Node18 -->
<g id="edge42_Node000004_Node000018" class="edge">
<title>Node4&#45;&gt;Node18</title>
<g id="a_edge42_Node000004_Node000018"><a xlink:title=" ">
<path fill="none" stroke="#63b8ff" d="M118.36,-249.29C140.95,-220.64 189.6,-164.39 244,-135 250.4,-131.54 257.29,-128.58 264.37,-126.04"/>
<polygon fill="#63b8ff" stroke="#63b8ff" points="115.56,-247.18 112.21,-257.23 121.1,-251.47 115.56,-247.18"/>
</a>
</g>
</g>
<!-- Node19 -->
<g id="Node000019" class="node">
<title>Node19</title>
<g id="a_Node000019"><a xlink:href="classWolfstagInteractive_1_1ConvoCore_1_1ConvoCoreLanguageSettings.html" target="_top" xlink:title=" ">
<polygon fill="white" stroke="#666666" points="438,-78 256,-78 256,-48 438,-48 438,-78"/>
<text text-anchor="start" x="264" y="-66" font-family="Helvetica,sans-Serif" font-size="10.00">WolfstagInteractive.Convo</text>
<text text-anchor="middle" x="347" y="-55" font-family="Helvetica,sans-Serif" font-size="10.00">Core.ConvoCoreLanguageSettings</text>
</a>
</g>
</g>
<!-- Node4&#45;&gt;Node19 -->
<g id="edge43_Node000004_Node000019" class="edge">
<title>Node4&#45;&gt;Node19</title>
<g id="a_edge43_Node000004_Node000019"><a xlink:title=" ">
<path fill="none" stroke="#63b8ff" d="M113.98,-248.14C132.65,-211.05 179.37,-128.62 244,-87 249.35,-83.55 255.15,-80.6 261.17,-78.07"/>
<polygon fill="#63b8ff" stroke="#63b8ff" points="110.73,-246.81 109.46,-257.32 117.01,-249.89 110.73,-246.81"/>
</a>
</g>
</g>
<!-- Node20 -->
<g id="Node000020" class="node">
<title>Node20</title>
<g id="a_Node000020"><a xlink:href="classWolfstagInteractive_1_1ConvoCore_1_1ConvoCoreSettings.html" target="_top" xlink:title=" ">
<polygon fill="white" stroke="#666666" points="420,-30 274,-30 274,0 420,0 420,-30"/>
<text text-anchor="start" x="282" y="-18" font-family="Helvetica,sans-Serif" font-size="10.00">WolfstagInteractive.Convo</text>
<text text-anchor="middle" x="347" y="-7" font-family="Helvetica,sans-Serif" font-size="10.00">Core.ConvoCoreSettings</text>
</a>
</g>
</g>
<!-- Node4&#45;&gt;Node20 -->
<g id="edge44_Node000004_Node000020" class="edge">
<title>Node4&#45;&gt;Node20</title>
<g id="a_edge44_Node000004_Node000020"><a xlink:title=" ">
<path fill="none" stroke="#63b8ff" d="M110.96,-247.78C125.72,-203.48 168.4,-93.79 244,-39 252.91,-32.54 263.31,-27.79 273.99,-24.31"/>
<polygon fill="#63b8ff" stroke="#63b8ff" points="107.61,-246.75 107.87,-257.34 114.27,-248.9 107.61,-246.75"/>
</a>
</g>
</g>
<!-- Node7 -->
<g id="Node000007" class="node">
<title>Node7</title>
<g id="a_Node000007"><a xlink:href="classWolfstagInteractive_1_1ConvoCore_1_1ConvoCoreDialogueLineActionDialogueLineActionGroup.html" target="_top" xlink:title=" ">
<polygon fill="white" stroke="#666666" points="690,-549.5 500,-549.5 500,-508.5 690,-508.5 690,-549.5"/>
<text text-anchor="start" x="508" y="-537.5" font-family="Helvetica,sans-Serif" font-size="10.00">WolfstagInteractive.Convo</text>
<text text-anchor="start" x="508" y="-526.5" font-family="Helvetica,sans-Serif" font-size="10.00">Core.ConvoCoreDialogueLineAction</text>
<text text-anchor="middle" x="595" y="-515.5" font-family="Helvetica,sans-Serif" font-size="10.00">DialogueLineActionGroup</text>
</a>
</g>
</g>
<!-- Node6&#45;&gt;Node7 -->
<g id="edge30_Node000006_Node000007" class="edge">
<title>Node6&#45;&gt;Node7</title>
<g id="a_edge30_Node000006_Node000007"><a xlink:title=" ">
<path fill="none" stroke="#63b8ff" d="M436.76,-427.74C441.43,-430.14 445.89,-432.88 450,-436 475.99,-455.73 460.23,-479.98 486,-500 490.29,-503.33 494.94,-506.29 499.81,-508.9"/>
<polygon fill="#63b8ff" stroke="#63b8ff" points="438.11,-424.5 427.56,-423.52 435.2,-430.87 438.11,-424.5"/>
</a>
</g>
</g>
<!-- Node8 -->
<g id="Node000008" class="node">
<title>Node8</title>
<g id="a_Node000008"><a xlink:href="classWolfstagInteractive_1_1ConvoCore_1_1ConvoCoreDialogueLineActionEnableDisableGameObject.html" target="_top" xlink:title=" ">
<polygon fill="white" stroke="#666666" points="690,-490.5 500,-490.5 500,-449.5 690,-449.5 690,-490.5"/>
<text text-anchor="start" x="508" y="-478.5" font-family="Helvetica,sans-Serif" font-size="10.00">WolfstagInteractive.Convo</text>
<text text-anchor="start" x="508" y="-467.5" font-family="Helvetica,sans-Serif" font-size="10.00">Core.ConvoCoreDialogueLineAction</text>
<text text-anchor="middle" x="595" y="-456.5" font-family="Helvetica,sans-Serif" font-size="10.00">EnableDisableGameObject</text>
</a>
</g>
</g>
<!-- Node6&#45;&gt;Node8 -->
<g id="edge31_Node000006_Node000008" class="edge">
<title>Node6&#45;&gt;Node8</title>
<g id="a_edge31_Node000006_Node000008"><a xlink:title=" ">
<path fill="none" stroke="#63b8ff" d="M420.64,-428.42C448.11,-435.01 479.63,-442.57 508.2,-449.42"/>
<polygon fill="#63b8ff" stroke="#63b8ff" points="421.25,-424.97 410.71,-426.04 419.62,-431.78 421.25,-424.97"/>
</a>
</g>
</g>
<!-- Node9 -->
<g id="Node000009" class="node">
<title>Node9</title>
<g id="a_Node000009"><a xlink:href="classWolfstagInteractive_1_1ConvoCore_1_1ConvoCoreDialogueLineActionFadeInOutSpriteRenderer.html" target="_top" xlink:title=" ">
<polygon fill="white" stroke="#666666" points="690,-431.5 500,-431.5 500,-390.5 690,-390.5 690,-431.5"/>
<text text-anchor="start" x="508" y="-419.5" font-family="Helvetica,sans-Serif" font-size="10.00">WolfstagInteractive.Convo</text>
<text text-anchor="start" x="508" y="-408.5" font-family="Helvetica,sans-Serif" font-size="10.00">Core.ConvoCoreDialogueLineAction</text>
<text text-anchor="middle" x="595" y="-397.5" font-family="Helvetica,sans-Serif" font-size="10.00">FadeInOutSpriteRenderer</text>
</a>
</g>
</g>
<!-- Node6&#45;&gt;Node9 -->
<g id="edge32_Node000006_Node000009" class="edge">
<title>Node6&#45;&gt;Node9</title>
<g id="a_edge32_Node000006_Node000009"><a xlink:title=" ">
<path fill="none" stroke="#63b8ff" d="M437.65,-411C457.85,-411 479.35,-411 499.73,-411"/>
<polygon fill="#63b8ff" stroke="#63b8ff" points="437.53,-407.5 427.53,-411 437.53,-414.5 437.53,-407.5"/>
</a>
</g>
</g>
<!-- Node10 -->
<g id="Node000010" class="node">
<title>Node10</title>
<g id="a_Node000010"><a xlink:href="classWolfstagInteractive_1_1ConvoCore_1_1ConvoCoreDialogueLineActionInstantiatePrefab.html" target="_top" xlink:title=" ">
<polygon fill="white" stroke="#666666" points="690,-372.5 500,-372.5 500,-331.5 690,-331.5 690,-372.5"/>
<text text-anchor="start" x="508" y="-360.5" font-family="Helvetica,sans-Serif" font-size="10.00">WolfstagInteractive.Convo</text>
<text text-anchor="start" x="508" y="-349.5" font-family="Helvetica,sans-Serif" font-size="10.00">Core.ConvoCoreDialogueLineAction</text>
<text text-anchor="middle" x="595" y="-338.5" font-family="Helvetica,sans-Serif" font-size="10.00">InstantiatePrefab</text>
</a>
</g>
</g>
<!-- Node6&#45;&gt;Node10 -->
<g id="edge33_Node000006_Node000010" class="edge">
<title>Node6&#45;&gt;Node10</title>
<g id="a_edge33_Node000006_Node000010"><a xlink:title=" ">
<path fill="none" stroke="#63b8ff" d="M421.99,-393.66C431.42,-391.43 440.94,-389.17 450,-387 469.39,-382.36 490.24,-377.32 509.89,-372.55"/>
<polygon fill="#63b8ff" stroke="#63b8ff" points="421.15,-390.26 412.22,-395.96 422.76,-397.07 421.15,-390.26"/>
</a>
</g>
</g>
<!-- Node11 -->
<g id="Node000011" class="node">
<title>Node11</title>
<g id="a_Node000011"><a xlink:href="classWolfstagInteractive_1_1ConvoCore_1_1ConvoCoreDialogueLineActionModifyTransform.html" target="_top" xlink:title=" ">
<polygon fill="white" stroke="#666666" points="690,-313.5 500,-313.5 500,-272.5 690,-272.5 690,-313.5"/>
<text text-anchor="start" x="508" y="-301.5" font-family="Helvetica,sans-Serif" font-size="10.00">WolfstagInteractive.Convo</text>
<text text-anchor="start" x="508" y="-290.5" font-family="Helvetica,sans-Serif" font-size="10.00">Core.ConvoCoreDialogueLineAction</text>
<text text-anchor="middle" x="595" y="-279.5" font-family="Helvetica,sans-Serif" font-size="10.00">ModifyTransform</text>
</a>
</g>
</g>
<!-- Node6&#45;&gt;Node11 -->
<g id="edge34_Node000006_Node000011" class="edge">
<title>Node6&#45;&gt;Node11</title>
<g id="a_edge34_Node000006_Node000011"><a xlink:title=" ">
<path fill="none" stroke="#63b8ff" d="M436.75,-395.17C441.42,-392.8 445.88,-390.1 450,-387 476.08,-367.39 460.31,-343.13 486,-323 490.52,-319.46 495.43,-316.34 500.58,-313.58"/>
<polygon fill="#63b8ff" stroke="#63b8ff" points="435.23,-392.01 427.54,-399.3 438.1,-398.4 435.23,-392.01"/>
</a>
</g>
</g>
<!-- Node12 -->
<g id="Node000012" class="node">
<title>Node12</title>
<g id="a_Node000012"><a xlink:href="classWolfstagInteractive_1_1ConvoCore_1_1ConvoCoreDialogueLineActionPlayAudioClip.html" target="_top" xlink:title=" ">
<polygon fill="white" stroke="#666666" points="690,-254.5 500,-254.5 500,-213.5 690,-213.5 690,-254.5"/>
<text text-anchor="start" x="508" y="-242.5" font-family="Helvetica,sans-Serif" font-size="10.00">WolfstagInteractive.Convo</text>
<text text-anchor="start" x="508" y="-231.5" font-family="Helvetica,sans-Serif" font-size="10.00">Core.ConvoCoreDialogueLineAction</text>
<text text-anchor="middle" x="595" y="-220.5" font-family="Helvetica,sans-Serif" font-size="10.00">PlayAudioClip</text>
</a>
</g>
</g>
<!-- Node6&#45;&gt;Node12 -->
<g id="edge35_Node000006_Node000012" class="edge">
<title>Node6&#45;&gt;Node12</title>
<g id="a_edge35_Node000006_Node000012"><a xlink:title=" ">
<path fill="none" stroke="#63b8ff" d="M436.58,-396.87C441.43,-394.1 445.96,-390.84 450,-387 491.61,-347.48 445.01,-303.17 486,-263 490.16,-258.92 494.83,-255.4 499.83,-252.37"/>
<polygon fill="#63b8ff" stroke="#63b8ff" points="434.95,-393.77 427.54,-401.34 438.06,-400.04 434.95,-393.77"/>
</a>
</g>
</g>
</g>
</svg>
