<?xml version="1.0" encoding="UTF-8" standalone="no"?>
<!DOCTYPE svg PUBLIC "-//W3C//DTD SVG 1.1//EN"
 "http://www.w3.org/Graphics/SVG/1.1/DTD/svg11.dtd">
<!-- Generated by graphviz version 2.43.0 (0)
 -->
<!-- Title: Graphical Class Hierarchy Pages: 1 -->
<svg width="647pt" height="251pt"
 viewBox="0.00 0.00 647.00 251.00" xmlns="http://www.w3.org/2000/svg" xmlns:xlink="http://www.w3.org/1999/xlink">
<g id="graph0" class="graph" transform="scale(1 1) rotate(0) translate(4 247)">
<title>Graphical Class Hierarchy</title>
<!-- Node0 -->
<g id="Node000000" class="node">
<title>Node0</title>
<g id="a_Node000000"><a xlink:href="interfaceWolfstagInteractive_1_1ConvoCore_1_1IConvoCoreCharacterDisplay.html" target="_top" xlink:title=" ">
<polygon fill="white" stroke="#666666" points="182,-236.5 0,-236.5 0,-206.5 182,-206.5 182,-236.5"/>
<text text-anchor="start" x="8" y="-224.5" font-family="Helvetica,sans-Serif" font-size="10.00">WolfstagInteractive.Convo</text>
<text text-anchor="middle" x="91" y="-213.5" font-family="Helvetica,sans-Serif" font-size="10.00">Core.IConvoCoreCharacterDisplay</text>
</a>
</g>
</g>
<!-- Node1 -->
<g id="Node000001" class="node">
<title>Node1</title>
<g id="a_Node000001"><a xlink:href="classWolfstagInteractive_1_1ConvoCore_1_1ConvoCoreCharacterDisplayBase.html" target="_top" xlink:title="Generic base class for all prefab&#45;based character displays. Applies scale, flip, and side offsets usi...">
<polygon fill="white" stroke="#666666" points="421,-236.5 218,-236.5 218,-206.5 421,-206.5 421,-236.5"/>
<text text-anchor="start" x="226" y="-224.5" font-family="Helvetica,sans-Serif" font-size="10.00">WolfstagInteractive.Convo</text>
<text text-anchor="middle" x="319.5" y="-213.5" font-family="Helvetica,sans-Serif" font-size="10.00">Core.ConvoCoreCharacterDisplayBase</text>
</a>
</g>
</g>
<!-- Node0&#45;&gt;Node1 -->
<g id="edge4_Node000000_Node000001" class="edge">
<title>Node0&#45;&gt;Node1</title>
<g id="a_edge4_Node000000_Node000001"><a xlink:title=" ">
<path fill="none" stroke="#63b8ff" d="M192.41,-221.5C200.85,-221.5 209.39,-221.5 217.83,-221.5"/>
<polygon fill="#63b8ff" stroke="#63b8ff" points="192.17,-218 182.17,-221.5 192.17,-225 192.17,-218"/>
</a>
</g>
</g>
<!-- Node2 -->
<g id="Node000002" class="node">
<title>Node2</title>
<g id="a_Node000002"><a xlink:href="classWolfstagInteractive_1_1ConvoCore_1_1SimplePrefabRepresentationDisplay.html" target="_top" xlink:title=" ">
<polygon fill="white" stroke="#666666" points="639,-243 457,-243 457,-202 639,-202 639,-243"/>
<text text-anchor="start" x="465" y="-231" font-family="Helvetica,sans-Serif" font-size="10.00">WolfstagInteractive.Convo</text>
<text text-anchor="start" x="465" y="-220" font-family="Helvetica,sans-Serif" font-size="10.00">Core.SimplePrefabRepresentation</text>
<text text-anchor="middle" x="548" y="-209" font-family="Helvetica,sans-Serif" font-size="10.00">Display</text>
</a>
</g>
</g>
<!-- Node1&#45;&gt;Node2 -->
<g id="edge5_Node000001_Node000002" class="edge">
<title>Node1&#45;&gt;Node2</title>
<g id="a_edge5_Node000001_Node000002"><a xlink:title=" ">
<path fill="none" stroke="#63b8ff" d="M431.27,-221.99C439.89,-222.03 448.53,-222.07 456.99,-222.1"/>
<polygon fill="#63b8ff" stroke="#63b8ff" points="431.18,-218.49 421.17,-221.94 431.15,-225.49 431.18,-218.49"/>
</a>
</g>
</g>
<!-- Node9 -->
<g id="Node000009" class="node">
<title>Node9</title>
<g id="a_Node000009"><a xlink:href="interfaceWolfstagInteractive_1_1ConvoCore_1_1IUIFoundation.html" target="_top" xlink:title=" ">
<polygon fill="white" stroke="#666666" points="164,-185.5 18,-185.5 18,-155.5 164,-155.5 164,-185.5"/>
<text text-anchor="start" x="26" y="-173.5" font-family="Helvetica,sans-Serif" font-size="10.00">WolfstagInteractive.Convo</text>
<text text-anchor="middle" x="91" y="-162.5" font-family="Helvetica,sans-Serif" font-size="10.00">Core.IUIFoundation</text>
</a>
</g>
</g>
<!-- Node7 -->
<g id="Node000007" class="node">
<title>Node7</title>
<g id="a_Node000007"><a xlink:href="classWolfstagInteractive_1_1ConvoCore_1_1ConvoCoreUIFoundation.html" target="_top" xlink:title="Used as a basis of any UI that can be assigned in the inspector that includes all the base functions ...">
<polygon fill="white" stroke="#666666" points="399.5,-185.5 239.5,-185.5 239.5,-155.5 399.5,-155.5 399.5,-185.5"/>
<text text-anchor="start" x="247.5" y="-173.5" font-family="Helvetica,sans-Serif" font-size="10.00">WolfstagInteractive.Convo</text>
<text text-anchor="middle" x="319.5" y="-162.5" font-family="Helvetica,sans-Serif" font-size="10.00">Core.ConvoCoreUIFoundation</text>
</a>
</g>
</g>
<!-- Node9&#45;&gt;Node7 -->
<g id="edge6_Node000009_Node000007" class="edge">
<title>Node9&#45;&gt;Node7</title>
<g id="a_edge6_Node000009_Node000007"><a xlink:title=" ">
<path fill="none" stroke="#63b8ff" d="M174.55,-170.5C195.72,-170.5 218.45,-170.5 239.45,-170.5"/>
<polygon fill="#63b8ff" stroke="#63b8ff" points="174.29,-167 164.29,-170.5 174.29,-174 174.29,-167"/>
</a>
</g>
</g>
<!-- Node8 -->
<g id="Node000008" class="node">
<title>Node8</title>
<g id="a_Node000008"><a xlink:href="classWolfstagInteractive_1_1ConvoCore_1_1ConvoCoreSampleUI.html" target="_top" xlink:title=" ">
<polygon fill="white" stroke="#666666" points="621,-183.5 475,-183.5 475,-153.5 621,-153.5 621,-183.5"/>
<text text-anchor="start" x="483" y="-171.5" font-family="Helvetica,sans-Serif" font-size="10.00">WolfstagInteractive.Convo</text>
<text text-anchor="middle" x="548" y="-160.5" font-family="Helvetica,sans-Serif" font-size="10.00">Core.ConvoCoreSampleUI</text>
</a>
</g>
</g>
<!-- Node7&#45;&gt;Node8 -->
<g id="edge7_Node000007_Node000008" class="edge">
<title>Node7&#45;&gt;Node8</title>
<g id="a_edge7_Node000007_Node000008"><a xlink:title=" ">
<path fill="none" stroke="#63b8ff" d="M409.83,-169.71C431.33,-169.52 454.03,-169.32 474.65,-169.14"/>
<polygon fill="#63b8ff" stroke="#63b8ff" points="409.69,-166.21 399.72,-169.8 409.75,-173.21 409.69,-166.21"/>
</a>
</g>
</g>
<!-- Node3 -->
<g id="Node000003" class="node">
<title>Node3</title>
<g id="a_Node000003"><a xlink:title=" ">
<polygon fill="#e0e0e0" stroke="#999999" points="137.5,-132 44.5,-132 44.5,-113 137.5,-113 137.5,-132"/>
<text text-anchor="middle" x="91" y="-120" font-family="Helvetica,sans-Serif" font-size="10.00">MonoBehaviour</text>
</a>
</g>
</g>
<!-- Node3&#45;&gt;Node1 -->
<g id="edge9_Node000003_Node000001" class="edge">
<title>Node3&#45;&gt;Node1</title>
<g id="a_edge9_Node000003_Node000001"><a xlink:title=" ">
<path fill="none" stroke="#63b8ff" d="M147.54,-131.13C159.57,-134.64 171.74,-139.57 182,-146.5 204.1,-161.42 195.91,-179.56 218,-194.5 225.03,-199.26 232.87,-203.18 240.98,-206.41"/>
<polygon fill="#63b8ff" stroke="#63b8ff" points="148.08,-127.66 137.52,-128.51 146.31,-134.43 148.08,-127.66"/>
</a>
</g>
</g>
<!-- Node3&#45;&gt;Node7 -->
<g id="edge12_Node000003_Node000007" class="edge">
<title>Node3&#45;&gt;Node7</title>
<g id="a_edge12_Node000003_Node000007"><a xlink:title=" ">
<path fill="none" stroke="#63b8ff" d="M146.98,-134.15C177.27,-140.57 215.21,-148.61 247.7,-155.5"/>
<polygon fill="#63b8ff" stroke="#63b8ff" points="147.53,-130.69 137.02,-132.04 146.08,-137.54 147.53,-130.69"/>
</a>
</g>
</g>
<!-- Node4 -->
<g id="Node000004" class="node">
<title>Node4</title>
<g id="a_Node000004"><a xlink:href="classWolfstagInteractive_1_1ConvoCore_1_1ConvoCore.html" target="_top" xlink:title=" ">
<polygon fill="white" stroke="#666666" points="392.5,-137.5 246.5,-137.5 246.5,-107.5 392.5,-107.5 392.5,-137.5"/>
<text text-anchor="start" x="254.5" y="-125.5" font-family="Helvetica,sans-Serif" font-size="10.00">WolfstagInteractive.Convo</text>
<text text-anchor="middle" x="319.5" y="-114.5" font-family="Helvetica,sans-Serif" font-size="10.00">Core.ConvoCore</text>
</a>
</g>
</g>
<!-- Node3&#45;&gt;Node4 -->
<g id="edge8_Node000003_Node000004" class="edge">
<title>Node3&#45;&gt;Node4</title>
<g id="a_edge8_Node000003_Node000004"><a xlink:title=" ">
<path fill="none" stroke="#63b8ff" d="M147.75,-122.5C177.47,-122.5 214.37,-122.5 246.26,-122.5"/>
<polygon fill="#63b8ff" stroke="#63b8ff" points="147.56,-119 137.56,-122.5 147.56,-126 147.56,-119"/>
</a>
</g>
</g>
<!-- Node5 -->
<g id="Node000005" class="node">
<title>Node5</title>
<g id="a_Node000005"><a xlink:href="classWolfstagInteractive_1_1ConvoCore_1_1ConvoCorePrefabPool.html" target="_top" xlink:title=" ">
<polygon fill="white" stroke="#666666" points="393.5,-89.5 245.5,-89.5 245.5,-59.5 393.5,-59.5 393.5,-89.5"/>
<text text-anchor="start" x="253.5" y="-77.5" font-family="Helvetica,sans-Serif" font-size="10.00">WolfstagInteractive.Convo</text>
<text text-anchor="middle" x="319.5" y="-66.5" font-family="Helvetica,sans-Serif" font-size="10.00">Core.ConvoCorePrefabPool</text>
</a>
</g>
</g>
<!-- Node3&#45;&gt;Node5 -->
<g id="edge10_Node000003_Node000005" class="edge">
<title>Node3&#45;&gt;Node5</title>
<g id="a_edge10_Node000003_Node000005"><a xlink:title=" ">
<path fill="none" stroke="#63b8ff" d="M146.98,-110.85C177.27,-104.43 215.21,-96.39 247.7,-89.5"/>
<polygon fill="#63b8ff" stroke="#63b8ff" points="146.08,-107.46 137.02,-112.96 147.53,-114.31 146.08,-107.46"/>
</a>
</g>
</g>
<!-- Node6 -->
<g id="Node000006" class="node">
<title>Node6</title>
<g id="a_Node000006"><a xlink:href="classWolfstagInteractive_1_1ConvoCore_1_1ConvoCorePrefabRepresentationSpawner.html" target="_top" xlink:title=" ">
<polygon fill="white" stroke="#666666" points="420,-41 219,-41 219,0 420,0 420,-41"/>
<text text-anchor="start" x="227" y="-29" font-family="Helvetica,sans-Serif" font-size="10.00">WolfstagInteractive.Convo</text>
<text text-anchor="start" x="227" y="-18" font-family="Helvetica,sans-Serif" font-size="10.00">Core.ConvoCorePrefabRepresentation</text>
<text text-anchor="middle" x="319.5" y="-7" font-family="Helvetica,sans-Serif" font-size="10.00">Spawner</text>
</a>
</g>
</g>
<!-- Node3&#45;&gt;Node6 -->
<g id="edge11_Node000003_Node000006" class="edge">
<title>Node3&#45;&gt;Node6</title>
<g id="a_edge11_Node000003_Node000006"><a xlink:title=" ">
<path fill="none" stroke="#63b8ff" d="M114.79,-107.34C139.41,-91.48 180.21,-66.68 218,-50.5 225.95,-47.1 234.41,-43.92 242.92,-41.01"/>
<polygon fill="#63b8ff" stroke="#63b8ff" points="112.65,-104.56 106.18,-112.95 116.47,-110.42 112.65,-104.56"/>
</a>
</g>
</g>
</g>
</svg>
