<?xml version="1.0" encoding="UTF-8" standalone="no"?>
<!DOCTYPE svg PUBLIC "-//W3C//DTD SVG 1.1//EN"
 "http://www.w3.org/Graphics/SVG/1.1/DTD/svg11.dtd">
<!-- Generated by graphviz version 2.43.0 (0)
 -->
<!-- Title: ExpressionActionContext Pages: 1 -->
<svg width="802pt" height="356pt"
 viewBox="0.00 0.00 802.00 355.80" xmlns="http://www.w3.org/2000/svg" xmlns:xlink="http://www.w3.org/1999/xlink">
<g id="graph0" class="graph" transform="scale(1 1) rotate(0) translate(4 351.8)">
<title>ExpressionActionContext</title>
<!-- Node1 -->
<g id="Node000001" class="node">
<title>Node1</title>
<g id="a_Node000001"><a xlink:title="Context passed to BaseExpressionAction when a character expression is applied.">
<polygon fill="#999999" stroke="#666666" points="783.5,-277.3 644.5,-277.3 644.5,-258.3 783.5,-258.3 783.5,-277.3"/>
<text text-anchor="middle" x="714" y="-265.3" font-family="Helvetica,sans-Serif" font-size="10.00">ExpressionActionContext</text>
</a>
</g>
</g>
<!-- Node2 -->
<g id="Node000002" class="node">
<title>Node2</title>
<g id="a_Node000002"><a xlink:href="classWolfstagInteractive_1_1ConvoCore_1_1ConvoCore.html" target="_top" xlink:title=" ">
<polygon fill="white" stroke="#bfbfbf" points="419.5,-198.8 273.5,-198.8 273.5,-168.8 419.5,-168.8 419.5,-198.8"/>
<text text-anchor="start" x="281.5" y="-186.8" font-family="Helvetica,sans-Serif" font-size="10.00">WolfstagInteractive.Convo</text>
<text text-anchor="middle" x="346.5" y="-175.8" font-family="Helvetica,sans-Serif" font-size="10.00">Core.ConvoCore</text>
</a>
</g>
</g>
<!-- Node2&#45;&gt;Node1 -->
<g id="edge1_Node000001_Node000002" class="edge">
<title>Node2&#45;&gt;Node1</title>
<g id="a_edge1_Node000001_Node000002"><a xlink:title=" ">
<path fill="none" stroke="#9a32cd" stroke-dasharray="5,2" d="M429.75,-193.47C483.39,-200.85 554.58,-212.7 616,-229.8 643.01,-237.32 672.87,-249.66 692.23,-258.23"/>
<polygon fill="#9a32cd" stroke="#9a32cd" points="429.98,-189.97 419.61,-192.1 429.05,-196.91 429.98,-189.97"/>
</a>
</g>
<text text-anchor="middle" x="540.5" y="-232.8" font-family="Helvetica,sans-Serif" font-size="10.00" fill="grey"> Runtime</text>
</g>
<!-- Node6 -->
<g id="Node000006" class="node">
<title>Node6</title>
<g id="a_Node000006"><a xlink:href="classWolfstagInteractive_1_1ConvoCore_1_1ConvoCoreUIFoundation.html" target="_top" xlink:title="Used as a basis of any UI that can be assigned in the inspector that includes all the base functions ...">
<polygon fill="white" stroke="#666666" points="794,-113.8 634,-113.8 634,-83.8 794,-83.8 794,-113.8"/>
<text text-anchor="start" x="642" y="-101.8" font-family="Helvetica,sans-Serif" font-size="10.00">WolfstagInteractive.Convo</text>
<text text-anchor="middle" x="714" y="-90.8" font-family="Helvetica,sans-Serif" font-size="10.00">Core.ConvoCoreUIFoundation</text>
</a>
</g>
</g>
<!-- Node2&#45;&gt;Node6 -->
<g id="edge8_Node000006_Node000002" class="edge">
<title>Node2&#45;&gt;Node6</title>
<g id="a_edge8_Node000006_Node000002"><a xlink:title=" ">
<path fill="none" stroke="#9a32cd" stroke-dasharray="5,2" d="M429.3,-166.56C435.38,-164.52 441.34,-162.28 447,-159.8 455.81,-155.95 456.01,-151.22 465,-147.8 528.34,-123.74 549.73,-140.9 616,-126.8 632.46,-123.3 650.21,-118.49 665.98,-113.84"/>
<polygon fill="#9a32cd" stroke="#9a32cd" points="428.18,-163.24 419.69,-169.58 430.28,-169.92 428.18,-163.24"/>
</a>
</g>
<text text-anchor="middle" x="540.5" y="-150.8" font-family="Helvetica,sans-Serif" font-size="10.00" fill="grey"> ConvoCoreInstance</text>
</g>
<!-- Node3 -->
<g id="Node000003" class="node">
<title>Node3</title>
<g id="a_Node000003"><a xlink:title=" ">
<polygon fill="white" stroke="#bfbfbf" points="137.5,-69.3 44.5,-69.3 44.5,-50.3 137.5,-50.3 137.5,-69.3"/>
<text text-anchor="middle" x="91" y="-57.3" font-family="Helvetica,sans-Serif" font-size="10.00">MonoBehaviour</text>
</a>
</g>
</g>
<!-- Node3&#45;&gt;Node2 -->
<g id="edge2_Node000002_Node000003" class="edge">
<title>Node3&#45;&gt;Node2</title>
<g id="a_edge2_Node000002_Node000003"><a xlink:title=" ">
<path fill="none" stroke="#63b8ff" d="M111.41,-75.55C139.46,-97.55 193.72,-137.31 246,-159.8 254.65,-163.52 263.99,-166.73 273.35,-169.48"/>
<polygon fill="#63b8ff" stroke="#63b8ff" points="113.58,-72.81 103.58,-69.33 109.23,-78.29 113.58,-72.81"/>
</a>
</g>
</g>
<!-- Node3&#45;&gt;Node6 -->
<g id="edge6_Node000006_Node000003" class="edge">
<title>Node3&#45;&gt;Node6</title>
<g id="a_edge6_Node000006_Node000003"><a xlink:title=" ">
<path fill="none" stroke="#63b8ff" d="M126,-46.83C156.8,-35.81 203.7,-20.85 246,-14.8 409.39,8.58 460.37,8.18 616,-46.8 642.48,-56.16 670.54,-71.91 689.62,-83.64"/>
<polygon fill="#63b8ff" stroke="#63b8ff" points="124.79,-43.54 116.59,-50.25 127.19,-50.12 124.79,-43.54"/>
</a>
</g>
</g>
<!-- Node8 -->
<g id="Node000008" class="node">
<title>Node8</title>
<g id="a_Node000008"><a xlink:href="classWolfstagInteractive_1_1ConvoCore_1_1ConvoCorePrefabRepresentationSpawner.html" target="_top" xlink:title=" ">
<polygon fill="white" stroke="#bfbfbf" points="447,-150.3 246,-150.3 246,-109.3 447,-109.3 447,-150.3"/>
<text text-anchor="start" x="254" y="-138.3" font-family="Helvetica,sans-Serif" font-size="10.00">WolfstagInteractive.Convo</text>
<text text-anchor="start" x="254" y="-127.3" font-family="Helvetica,sans-Serif" font-size="10.00">Core.ConvoCorePrefabRepresentation</text>
<text text-anchor="middle" x="346.5" y="-116.3" font-family="Helvetica,sans-Serif" font-size="10.00">Spawner</text>
</a>
</g>
</g>
<!-- Node3&#45;&gt;Node8 -->
<g id="edge10_Node000008_Node000003" class="edge">
<title>Node3&#45;&gt;Node8</title>
<g id="a_edge10_Node000008_Node000003"><a xlink:title=" ">
<path fill="none" stroke="#63b8ff" d="M136.46,-72.08C173.6,-82.33 227.34,-97.17 271.03,-109.24"/>
<polygon fill="#63b8ff" stroke="#63b8ff" points="137.02,-68.6 126.45,-69.31 135.16,-75.35 137.02,-68.6"/>
</a>
</g>
</g>
<!-- Node9 -->
<g id="Node000009" class="node">
<title>Node9</title>
<g id="a_Node000009"><a xlink:href="classWolfstagInteractive_1_1ConvoCore_1_1ConvoCoreDialogueHistoryUI.html" target="_top" xlink:title=" ">
<polygon fill="white" stroke="#bfbfbf" points="439,-53.8 254,-53.8 254,-23.8 439,-23.8 439,-53.8"/>
<text text-anchor="start" x="262" y="-41.8" font-family="Helvetica,sans-Serif" font-size="10.00">WolfstagInteractive.Convo</text>
<text text-anchor="middle" x="346.5" y="-30.8" font-family="Helvetica,sans-Serif" font-size="10.00">Core.ConvoCoreDialogueHistoryUI</text>
</a>
</g>
</g>
<!-- Node3&#45;&gt;Node9 -->
<g id="edge12_Node000009_Node000003" class="edge">
<title>Node3&#45;&gt;Node9</title>
<g id="a_edge12_Node000009_Node000003"><a xlink:title=" ">
<path fill="none" stroke="#63b8ff" d="M147.81,-55.18C178.87,-52.6 218.31,-49.34 253.79,-46.4"/>
<polygon fill="#63b8ff" stroke="#63b8ff" points="147.29,-51.71 137.61,-56.02 147.87,-58.68 147.29,-51.71"/>
</a>
</g>
</g>
<!-- Node4 -->
<g id="Node000004" class="node">
<title>Node4</title>
<g id="a_Node000004"><a xlink:href="interfaceWolfstagInteractive_1_1ConvoCore_1_1IConvoCoreRunner.html" target="_top" xlink:title=" ">
<polygon fill="white" stroke="#bfbfbf" points="144.5,-155.3 37.5,-155.3 37.5,-136.3 144.5,-136.3 144.5,-155.3"/>
<text text-anchor="middle" x="91" y="-143.3" font-family="Helvetica,sans-Serif" font-size="10.00">IConvoCoreRunner</text>
</a>
</g>
</g>
<!-- Node4&#45;&gt;Node2 -->
<g id="edge3_Node000002_Node000004" class="edge">
<title>Node4&#45;&gt;Node2</title>
<g id="a_edge3_Node000002_Node000004"><a xlink:title=" ">
<path fill="none" stroke="#63b8ff" d="M154.87,-155.23C190.79,-160.61 235.98,-167.38 273.34,-172.98"/>
<polygon fill="#63b8ff" stroke="#63b8ff" points="154.93,-151.7 144.53,-153.67 153.9,-158.62 154.93,-151.7"/>
</a>
</g>
</g>
<!-- Node5 -->
<g id="Node000005" class="node">
<title>Node5</title>
<g id="a_Node000005"><a xlink:href="interfaceWolfstagInteractive_1_1ConvoCore_1_1IConvoInput.html" target="_top" xlink:title=" ">
<polygon fill="white" stroke="#bfbfbf" points="164,-203.8 18,-203.8 18,-173.8 164,-173.8 164,-203.8"/>
<text text-anchor="start" x="26" y="-191.8" font-family="Helvetica,sans-Serif" font-size="10.00">WolfstagInteractive.Convo</text>
<text text-anchor="middle" x="91" y="-180.8" font-family="Helvetica,sans-Serif" font-size="10.00">Core.IConvoInput</text>
</a>
</g>
</g>
<!-- Node5&#45;&gt;Node2 -->
<g id="edge4_Node000002_Node000005" class="edge">
<title>Node5&#45;&gt;Node2</title>
<g id="a_edge4_Node000002_Node000005"><a xlink:title=" ">
<path fill="none" stroke="#9a32cd" stroke-dasharray="5,2" d="M174.47,-187.17C206.27,-186.55 242.32,-185.84 273.1,-185.23"/>
<polygon fill="#9a32cd" stroke="#9a32cd" points="174.23,-183.68 164.3,-187.37 174.37,-190.68 174.23,-183.68"/>
</a>
</g>
<text text-anchor="middle" x="214" y="-188.8" font-family="Helvetica,sans-Serif" font-size="10.00" fill="grey"> Input</text>
</g>
<!-- Node6&#45;&gt;Node2 -->
<g id="edge5_Node000002_Node000006" class="edge">
<title>Node6&#45;&gt;Node2</title>
<g id="a_edge5_Node000002_Node000006"><a xlink:title=" ">
<path fill="none" stroke="#9a32cd" stroke-dasharray="5,2" d="M687.47,-120.03C668.88,-134.21 642.42,-151.84 616,-160.8 580.94,-172.69 486.63,-178.67 419.71,-181.5"/>
<polygon fill="#9a32cd" stroke="#9a32cd" points="689.71,-122.72 695.43,-113.81 685.4,-117.21 689.71,-122.72"/>
</a>
</g>
<text text-anchor="middle" x="540.5" y="-181.8" font-family="Helvetica,sans-Serif" font-size="10.00" fill="grey"> ConversationUI</text>
</g>
<!-- Node7 -->
<g id="Node000007" class="node">
<title>Node7</title>
<g id="a_Node000007"><a xlink:href="interfaceWolfstagInteractive_1_1ConvoCore_1_1IUIFoundation.html" target="_top" xlink:title=" ">
<polygon fill="white" stroke="#bfbfbf" points="388.5,-91.3 304.5,-91.3 304.5,-72.3 388.5,-72.3 388.5,-91.3"/>
<text text-anchor="middle" x="346.5" y="-79.3" font-family="Helvetica,sans-Serif" font-size="10.00">IUIFoundation</text>
</a>
</g>
</g>
<!-- Node7&#45;&gt;Node6 -->
<g id="edge7_Node000006_Node000007" class="edge">
<title>Node7&#45;&gt;Node6</title>
<g id="a_edge7_Node000006_Node000007"><a xlink:title=" ">
<path fill="none" stroke="#63b8ff" d="M398.89,-84.19C459.97,-87.03 562.58,-91.8 633.82,-95.12"/>
<polygon fill="#63b8ff" stroke="#63b8ff" points="398.87,-80.69 388.72,-83.72 398.54,-87.68 398.87,-80.69"/>
</a>
</g>
</g>
<!-- Node8&#45;&gt;Node6 -->
<g id="edge9_Node000006_Node000008" class="edge">
<title>Node8&#45;&gt;Node6</title>
<g id="a_edge9_Node000006_Node000008"><a xlink:title=" ">
<path fill="none" stroke="#9a32cd" stroke-dasharray="5,2" d="M457.27,-116.55C459.87,-116.29 462.45,-116.04 465,-115.8 521.4,-110.51 585.15,-106.18 633.9,-103.21"/>
<polygon fill="#9a32cd" stroke="#9a32cd" points="456.74,-113.08 447.14,-117.58 457.45,-120.05 456.74,-113.08"/>
</a>
</g>
<text text-anchor="middle" x="540.5" y="-118.8" font-family="Helvetica,sans-Serif" font-size="10.00" fill="grey"> PrefabRepresentationSpawner</text>
</g>
<!-- Node9&#45;&gt;Node6 -->
<g id="edge11_Node000006_Node000009" class="edge">
<title>Node9&#45;&gt;Node6</title>
<g id="a_edge11_Node000006_Node000009"><a xlink:title=" ">
<path fill="none" stroke="#9a32cd" stroke-dasharray="5,2" d="M449.33,-47.7C499.76,-53.02 561.38,-60.91 616,-71.8 631.94,-74.98 649.1,-79.41 664.49,-83.77"/>
<polygon fill="#9a32cd" stroke="#9a32cd" points="449.38,-44.19 439.07,-46.64 448.66,-51.15 449.38,-44.19"/>
</a>
</g>
<text text-anchor="middle" x="540.5" y="-74.8" font-family="Helvetica,sans-Serif" font-size="10.00" fill="grey"> ConvoCoreDialogueHistoryUI</text>
</g>
<!-- Node10 -->
<g id="Node000010" class="node">
<title>Node10</title>
<g id="a_Node000010"><a xlink:href="classWolfstagInteractive_1_1ConvoCore_1_1ConvoCoreConversationData.html" target="_top" xlink:title=" ">
<polygon fill="white" stroke="#bfbfbf" points="438,-251.8 255,-251.8 255,-221.8 438,-221.8 438,-251.8"/>
<text text-anchor="start" x="263" y="-239.8" font-family="Helvetica,sans-Serif" font-size="10.00">WolfstagInteractive.Convo</text>
<text text-anchor="middle" x="346.5" y="-228.8" font-family="Helvetica,sans-Serif" font-size="10.00">Core.ConvoCoreConversationData</text>
</a>
</g>
</g>
<!-- Node10&#45;&gt;Node1 -->
<g id="edge13_Node000001_Node000010" class="edge">
<title>Node10&#45;&gt;Node1</title>
<g id="a_edge13_Node000001_Node000010"><a xlink:title=" ">
<path fill="none" stroke="#9a32cd" stroke-dasharray="5,2" d="M448.54,-243.4C498.9,-246.93 560.7,-251.61 616,-256.8 625.2,-257.66 634.87,-258.66 644.41,-259.69"/>
<polygon fill="#9a32cd" stroke="#9a32cd" points="448.52,-239.89 438.3,-242.69 448.03,-246.88 448.52,-239.89"/>
</a>
</g>
<text text-anchor="middle" x="540.5" y="-259.8" font-family="Helvetica,sans-Serif" font-size="10.00" fill="grey"> Conversation</text>
</g>
<!-- Node11 -->
<g id="Node000011" class="node">
<title>Node11</title>
<g id="a_Node000011"><a xlink:title=" ">
<polygon fill="white" stroke="#bfbfbf" points="139.5,-275.3 42.5,-275.3 42.5,-256.3 139.5,-256.3 139.5,-275.3"/>
<text text-anchor="middle" x="91" y="-263.3" font-family="Helvetica,sans-Serif" font-size="10.00">ScriptableObject</text>
</a>
</g>
</g>
<!-- Node11&#45;&gt;Node10 -->
<g id="edge14_Node000010_Node000011" class="edge">
<title>Node11&#45;&gt;Node10</title>
<g id="a_edge14_Node000010_Node000011"><a xlink:title=" ">
<path fill="none" stroke="#63b8ff" d="M149.9,-259.18C180.96,-255.62 219.95,-251.16 254.93,-247.16"/>
<polygon fill="#63b8ff" stroke="#63b8ff" points="149.22,-255.73 139.68,-260.35 150.01,-262.69 149.22,-255.73"/>
</a>
</g>
</g>
<!-- Node12 -->
<g id="Node000012" class="node">
<title>Node12</title>
<g id="a_Node000012"><a xlink:href="classWolfstagInteractive_1_1ConvoCore_1_1CharacterRepresentationBase.html" target="_top" xlink:title=" ">
<polygon fill="white" stroke="#bfbfbf" points="440.5,-347.8 252.5,-347.8 252.5,-317.8 440.5,-317.8 440.5,-347.8"/>
<text text-anchor="start" x="260.5" y="-335.8" font-family="Helvetica,sans-Serif" font-size="10.00">WolfstagInteractive.Convo</text>
<text text-anchor="middle" x="346.5" y="-324.8" font-family="Helvetica,sans-Serif" font-size="10.00">Core.CharacterRepresentationBase</text>
</a>
</g>
</g>
<!-- Node11&#45;&gt;Node12 -->
<g id="edge16_Node000012_Node000011" class="edge">
<title>Node11&#45;&gt;Node12</title>
<g id="a_edge16_Node000012_Node000011"><a xlink:title=" ">
<path fill="none" stroke="#63b8ff" d="M134.93,-278.23C165.76,-287.05 208.35,-299.01 246,-308.8 257.52,-311.8 269.83,-314.87 281.72,-317.77"/>
<polygon fill="#63b8ff" stroke="#63b8ff" points="135.53,-274.76 124.95,-275.37 133.6,-281.49 135.53,-274.76"/>
</a>
</g>
</g>
<!-- Node12&#45;&gt;Node1 -->
<g id="edge15_Node000001_Node000012" class="edge">
<title>Node12&#45;&gt;Node1</title>
<g id="a_edge15_Node000001_Node000012"><a xlink:title=" ">
<path fill="none" stroke="#9a32cd" stroke-dasharray="5,2" d="M450.74,-320.69C500.87,-314.08 561.83,-304.95 616,-293.8 637.86,-289.3 662.11,-282.8 680.89,-277.43"/>
<polygon fill="#9a32cd" stroke="#9a32cd" points="450.01,-317.26 440.54,-322.02 450.91,-324.2 450.01,-317.26"/>
</a>
</g>
<text text-anchor="middle" x="540.5" y="-320.8" font-family="Helvetica,sans-Serif" font-size="10.00" fill="grey"> Representation</text>
</g>
<!-- Node13 -->
<g id="Node000013" class="node">
<title>Node13</title>
<g id="a_Node000013"><a xlink:href="interfaceWolfstagInteractive_1_1ConvoCore_1_1IEditorPreviewableRepresentation.html" target="_top" xlink:title=" ">
<polygon fill="white" stroke="#bfbfbf" points="182,-342.3 0,-342.3 0,-323.3 182,-323.3 182,-342.3"/>
<text text-anchor="middle" x="91" y="-330.3" font-family="Helvetica,sans-Serif" font-size="10.00">IEditorPreviewableRepresentation</text>
</a>
</g>
</g>
<!-- Node13&#45;&gt;Node12 -->
<g id="edge17_Node000012_Node000013" class="edge">
<title>Node13&#45;&gt;Node12</title>
<g id="a_edge17_Node000012_Node000013"><a xlink:title=" ">
<path fill="none" stroke="#63b8ff" d="M192.33,-332.8C212.1,-332.8 232.76,-332.8 252.28,-332.8"/>
<polygon fill="#63b8ff" stroke="#63b8ff" points="192.09,-329.3 182.09,-332.8 192.09,-336.3 192.09,-329.3"/>
</a>
</g>
</g>
<!-- Node14 -->
<g id="Node000014" class="node">
<title>Node14</title>
<g id="a_Node000014"><a xlink:href="interfaceWolfstagInteractive_1_1ConvoCore_1_1IConvoCoreCharacterDisplay.html" target="_top" xlink:title=" ">
<polygon fill="white" stroke="#bfbfbf" points="437.5,-299.8 255.5,-299.8 255.5,-269.8 437.5,-269.8 437.5,-299.8"/>
<text text-anchor="start" x="263.5" y="-287.8" font-family="Helvetica,sans-Serif" font-size="10.00">WolfstagInteractive.Convo</text>
<text text-anchor="middle" x="346.5" y="-276.8" font-family="Helvetica,sans-Serif" font-size="10.00">Core.IConvoCoreCharacterDisplay</text>
</a>
</g>
</g>
<!-- Node14&#45;&gt;Node1 -->
<g id="edge18_Node000001_Node000014" class="edge">
<title>Node14&#45;&gt;Node1</title>
<g id="a_edge18_Node000001_Node000014"><a xlink:title=" ">
<path fill="none" stroke="#9a32cd" stroke-dasharray="5,2" d="M448.11,-280.12C510.5,-277.22 589.03,-273.57 644.33,-270.99"/>
<polygon fill="#9a32cd" stroke="#9a32cd" points="447.67,-276.64 437.85,-280.6 448,-283.63 447.67,-276.64"/>
</a>
</g>
<text text-anchor="middle" x="540.5" y="-281.8" font-family="Helvetica,sans-Serif" font-size="10.00" fill="grey"> Display</text>
</g>
</g>
</svg>
