<?xml version="1.0" encoding="UTF-8" standalone="no"?>
<!DOCTYPE svg PUBLIC "-//W3C//DTD SVG 1.1//EN"
 "http://www.w3.org/Graphics/SVG/1.1/DTD/svg11.dtd">
<!-- Generated by graphviz version 2.43.0 (0)
 -->
<!-- Title: ExpressionActionContext Pages: 1 -->
<svg width="1084pt" height="353pt"
 viewBox="0.00 0.00 1084.00 352.70" xmlns="http://www.w3.org/2000/svg" xmlns:xlink="http://www.w3.org/1999/xlink">
<g id="graph0" class="graph" transform="scale(1 1) rotate(0) translate(4 348.7)">
<title>ExpressionActionContext</title>
<!-- Node1 -->
<g id="Node000001" class="node">
<title>Node1</title>
<g id="a_Node000001"><a xlink:title="Context passed to BaseExpressionAction when a character expression is applied.">
<polygon fill="#999999" stroke="#666666" points="1065.5,-273.2 926.5,-273.2 926.5,-254.2 1065.5,-254.2 1065.5,-273.2"/>
<text text-anchor="middle" x="996" y="-261.2" font-family="Helvetica,sans-Serif" font-size="10.00">ExpressionActionContext</text>
</a>
</g>
</g>
<!-- Node2 -->
<g id="Node000002" class="node">
<title>Node2</title>
<g id="a_Node000002"><a xlink:href="classWolfstagInteractive_1_1ConvoCore_1_1ConvoCore.html" target="_top" xlink:title=" ">
<polygon fill="white" stroke="#bfbfbf" points="701.5,-194.7 555.5,-194.7 555.5,-164.7 701.5,-164.7 701.5,-194.7"/>
<text text-anchor="start" x="563.5" y="-182.7" font-family="Helvetica,sans-Serif" font-size="10.00">WolfstagInteractive.Convo</text>
<text text-anchor="middle" x="628.5" y="-171.7" font-family="Helvetica,sans-Serif" font-size="10.00">Core.ConvoCore</text>
</a>
</g>
</g>
<!-- Node2&#45;&gt;Node1 -->
<g id="edge1_Node000001_Node000002" class="edge">
<title>Node2&#45;&gt;Node1</title>
<g id="a_edge1_Node000001_Node000002"><a xlink:title=" ">
<path fill="none" stroke="#9a32cd" stroke-dasharray="5,2" d="M711.75,-189.37C765.39,-196.76 836.58,-208.6 898,-225.7 925.01,-233.22 954.87,-245.56 974.23,-254.14"/>
<polygon fill="#9a32cd" stroke="#9a32cd" points="711.98,-185.87 701.61,-188 711.05,-192.81 711.98,-185.87"/>
</a>
</g>
<text text-anchor="middle" x="822.5" y="-228.7" font-family="Helvetica,sans-Serif" font-size="10.00" fill="grey"> Runtime</text>
</g>
<!-- Node6 -->
<g id="Node000006" class="node">
<title>Node6</title>
<g id="a_Node000006"><a xlink:href="classWolfstagInteractive_1_1ConvoCore_1_1ConvoCoreUIFoundation.html" target="_top" xlink:title="Used as a basis of any UI that can be assigned in the inspector that includes all the base functions ...">
<polygon fill="white" stroke="#666666" points="1076,-109.7 916,-109.7 916,-79.7 1076,-79.7 1076,-109.7"/>
<text text-anchor="start" x="924" y="-97.7" font-family="Helvetica,sans-Serif" font-size="10.00">WolfstagInteractive.Convo</text>
<text text-anchor="middle" x="996" y="-86.7" font-family="Helvetica,sans-Serif" font-size="10.00">Core.ConvoCoreUIFoundation</text>
</a>
</g>
</g>
<!-- Node2&#45;&gt;Node6 -->
<g id="edge8_Node000006_Node000002" class="edge">
<title>Node2&#45;&gt;Node6</title>
<g id="a_edge8_Node000006_Node000002"><a xlink:title=" ">
<path fill="none" stroke="#9a32cd" stroke-dasharray="5,2" d="M711.3,-162.46C717.38,-160.43 723.34,-158.18 729,-155.7 737.81,-151.85 738.01,-147.12 747,-143.7 810.34,-119.64 831.73,-136.8 898,-122.7 914.46,-119.2 932.21,-114.39 947.98,-109.74"/>
<polygon fill="#9a32cd" stroke="#9a32cd" points="710.18,-159.14 701.69,-165.48 712.28,-165.82 710.18,-159.14"/>
</a>
</g>
<text text-anchor="middle" x="822.5" y="-146.7" font-family="Helvetica,sans-Serif" font-size="10.00" fill="grey"> ConvoCoreInstance</text>
</g>
<!-- Node3 -->
<g id="Node000003" class="node">
<title>Node3</title>
<g id="a_Node000003"><a xlink:title=" ">
<polygon fill="white" stroke="#bfbfbf" points="359.5,-53.2 266.5,-53.2 266.5,-34.2 359.5,-34.2 359.5,-53.2"/>
<text text-anchor="middle" x="313" y="-41.2" font-family="Helvetica,sans-Serif" font-size="10.00">MonoBehaviour</text>
</a>
</g>
</g>
<!-- Node3&#45;&gt;Node2 -->
<g id="edge2_Node000002_Node000003" class="edge">
<title>Node3&#45;&gt;Node2</title>
<g id="a_edge2_Node000002_Node000003"><a xlink:title=" ">
<path fill="none" stroke="#63b8ff" d="M338.18,-58.89C376.89,-82.62 455.81,-128.58 528,-155.7 536.9,-159.05 546.42,-162.04 555.93,-164.68"/>
<polygon fill="#63b8ff" stroke="#63b8ff" points="339.57,-55.64 329.23,-53.36 335.89,-61.59 339.57,-55.64"/>
</a>
</g>
</g>
<!-- Node3&#45;&gt;Node6 -->
<g id="edge6_Node000006_Node000003" class="edge">
<title>Node3&#45;&gt;Node6</title>
<g id="a_edge6_Node000006_Node000003"><a xlink:title=" ">
<path fill="none" stroke="#63b8ff" d="M369.67,-32.72C412.7,-24.82 473.87,-14.85 528,-10.7 692.58,1.91 742.37,12.28 898,-42.7 924.48,-52.06 952.54,-67.82 971.62,-79.54"/>
<polygon fill="#63b8ff" stroke="#63b8ff" points="368.88,-29.31 359.68,-34.58 370.16,-36.19 368.88,-29.31"/>
</a>
</g>
</g>
<!-- Node8 -->
<g id="Node000008" class="node">
<title>Node8</title>
<g id="a_Node000008"><a xlink:href="classWolfstagInteractive_1_1ConvoCore_1_1ConvoCorePrefabRepresentationSpawner.html" target="_top" xlink:title=" ">
<polygon fill="white" stroke="#bfbfbf" points="729,-146.2 528,-146.2 528,-105.2 729,-105.2 729,-146.2"/>
<text text-anchor="start" x="536" y="-134.2" font-family="Helvetica,sans-Serif" font-size="10.00">WolfstagInteractive.Convo</text>
<text text-anchor="start" x="536" y="-123.2" font-family="Helvetica,sans-Serif" font-size="10.00">Core.ConvoCorePrefabRepresentation</text>
<text text-anchor="middle" x="628.5" y="-112.2" font-family="Helvetica,sans-Serif" font-size="10.00">Spawner</text>
</a>
</g>
</g>
<!-- Node3&#45;&gt;Node8 -->
<g id="edge10_Node000008_Node000003" class="edge">
<title>Node3&#45;&gt;Node8</title>
<g id="a_edge10_Node000008_Node000003"><a xlink:title=" ">
<path fill="none" stroke="#63b8ff" d="M362.3,-55.79C402,-65.79 459.71,-80.44 510,-93.7 523.8,-97.34 538.49,-101.29 552.64,-105.12"/>
<polygon fill="#63b8ff" stroke="#63b8ff" points="362.91,-52.34 352.36,-53.29 361.2,-59.12 362.91,-52.34"/>
</a>
</g>
</g>
<!-- Node9 -->
<g id="Node000009" class="node">
<title>Node9</title>
<g id="a_Node000009"><a xlink:href="classWolfstagInteractive_1_1ConvoCore_1_1ConvoCoreDialogueHistoryUI.html" target="_top" xlink:title=" ">
<polygon fill="white" stroke="#bfbfbf" points="721,-49.7 536,-49.7 536,-19.7 721,-19.7 721,-49.7"/>
<text text-anchor="start" x="544" y="-37.7" font-family="Helvetica,sans-Serif" font-size="10.00">WolfstagInteractive.Convo</text>
<text text-anchor="middle" x="628.5" y="-26.7" font-family="Helvetica,sans-Serif" font-size="10.00">Core.ConvoCoreDialogueHistoryUI</text>
</a>
</g>
</g>
<!-- Node3&#45;&gt;Node9 -->
<g id="edge12_Node000009_Node000003" class="edge">
<title>Node3&#45;&gt;Node9</title>
<g id="a_edge12_Node000009_Node000003"><a xlink:title=" ">
<path fill="none" stroke="#63b8ff" d="M369.67,-42.1C415.71,-40.78 482.04,-38.88 535.89,-37.33"/>
<polygon fill="#63b8ff" stroke="#63b8ff" points="369.48,-38.61 359.59,-42.39 369.68,-45.6 369.48,-38.61"/>
</a>
</g>
</g>
<!-- Node4 -->
<g id="Node000004" class="node">
<title>Node4</title>
<g id="a_Node000004"><a xlink:href="interfaceWolfstagInteractive_1_1ConvoCore_1_1IConvoCoreRunner.html" target="_top" xlink:title=" ">
<polygon fill="white" stroke="#bfbfbf" points="366.5,-148.2 259.5,-148.2 259.5,-129.2 366.5,-129.2 366.5,-148.2"/>
<text text-anchor="middle" x="313" y="-136.2" font-family="Helvetica,sans-Serif" font-size="10.00">IConvoCoreRunner</text>
</a>
</g>
</g>
<!-- Node4&#45;&gt;Node2 -->
<g id="edge3_Node000002_Node000004" class="edge">
<title>Node4&#45;&gt;Node2</title>
<g id="a_edge3_Node000002_Node000004"><a xlink:title=" ">
<path fill="none" stroke="#63b8ff" d="M376.84,-146.92C428.39,-153.66 501.4,-163.21 555.33,-170.26"/>
<polygon fill="#63b8ff" stroke="#63b8ff" points="377.2,-143.44 366.83,-145.61 376.29,-150.38 377.2,-143.44"/>
</a>
</g>
</g>
<!-- Node5 -->
<g id="Node000005" class="node">
<title>Node5</title>
<g id="a_Node000005"><a xlink:href="interfaceWolfstagInteractive_1_1ConvoCore_1_1IConvoInput.html" target="_top" xlink:title=" ">
<polygon fill="white" stroke="#bfbfbf" points="386,-196.7 240,-196.7 240,-166.7 386,-166.7 386,-196.7"/>
<text text-anchor="start" x="248" y="-184.7" font-family="Helvetica,sans-Serif" font-size="10.00">WolfstagInteractive.Convo</text>
<text text-anchor="middle" x="313" y="-173.7" font-family="Helvetica,sans-Serif" font-size="10.00">Core.IConvoInput</text>
</a>
</g>
</g>
<!-- Node5&#45;&gt;Node2 -->
<g id="edge4_Node000002_Node000005" class="edge">
<title>Node5&#45;&gt;Node2</title>
<g id="a_edge4_Node000002_Node000005"><a xlink:title=" ">
<path fill="none" stroke="#9a32cd" stroke-dasharray="5,2" d="M396.33,-181.18C445.67,-180.86 507.84,-180.47 555.28,-180.16"/>
<polygon fill="#9a32cd" stroke="#9a32cd" points="396.29,-177.68 386.32,-181.24 396.34,-184.68 396.29,-177.68"/>
</a>
</g>
<text text-anchor="middle" x="467.5" y="-183.7" font-family="Helvetica,sans-Serif" font-size="10.00" fill="grey"> Input</text>
</g>
<!-- Node6&#45;&gt;Node2 -->
<g id="edge5_Node000002_Node000006" class="edge">
<title>Node6&#45;&gt;Node2</title>
<g id="a_edge5_Node000002_Node000006"><a xlink:title=" ">
<path fill="none" stroke="#9a32cd" stroke-dasharray="5,2" d="M969.47,-115.93C950.88,-130.11 924.42,-147.74 898,-156.7 862.94,-168.6 768.63,-174.57 701.71,-177.4"/>
<polygon fill="#9a32cd" stroke="#9a32cd" points="971.71,-118.63 977.43,-109.71 967.4,-113.11 971.71,-118.63"/>
</a>
</g>
<text text-anchor="middle" x="822.5" y="-177.7" font-family="Helvetica,sans-Serif" font-size="10.00" fill="grey"> ConversationUI</text>
</g>
<!-- Node7 -->
<g id="Node000007" class="node">
<title>Node7</title>
<g id="a_Node000007"><a xlink:href="interfaceWolfstagInteractive_1_1ConvoCore_1_1IUIFoundation.html" target="_top" xlink:title=" ">
<polygon fill="white" stroke="#bfbfbf" points="670.5,-87.2 586.5,-87.2 586.5,-68.2 670.5,-68.2 670.5,-87.2"/>
<text text-anchor="middle" x="628.5" y="-75.2" font-family="Helvetica,sans-Serif" font-size="10.00">IUIFoundation</text>
</a>
</g>
</g>
<!-- Node7&#45;&gt;Node6 -->
<g id="edge7_Node000006_Node000007" class="edge">
<title>Node7&#45;&gt;Node6</title>
<g id="a_edge7_Node000006_Node000007"><a xlink:title=" ">
<path fill="none" stroke="#63b8ff" d="M680.89,-80.09C741.97,-82.93 844.58,-87.71 915.82,-91.02"/>
<polygon fill="#63b8ff" stroke="#63b8ff" points="680.87,-76.59 670.72,-79.62 680.54,-83.58 680.87,-76.59"/>
</a>
</g>
</g>
<!-- Node8&#45;&gt;Node6 -->
<g id="edge9_Node000006_Node000008" class="edge">
<title>Node8&#45;&gt;Node6</title>
<g id="a_edge9_Node000006_Node000008"><a xlink:title=" ">
<path fill="none" stroke="#9a32cd" stroke-dasharray="5,2" d="M739.27,-112.45C741.87,-112.19 744.45,-111.94 747,-111.7 803.4,-106.41 867.15,-102.08 915.9,-99.11"/>
<polygon fill="#9a32cd" stroke="#9a32cd" points="738.74,-108.98 729.14,-113.48 739.45,-115.95 738.74,-108.98"/>
</a>
</g>
<text text-anchor="middle" x="822.5" y="-114.7" font-family="Helvetica,sans-Serif" font-size="10.00" fill="grey"> PrefabRepresentationSpawner</text>
</g>
<!-- Node9&#45;&gt;Node6 -->
<g id="edge11_Node000006_Node000009" class="edge">
<title>Node9&#45;&gt;Node6</title>
<g id="a_edge11_Node000006_Node000009"><a xlink:title=" ">
<path fill="none" stroke="#9a32cd" stroke-dasharray="5,2" d="M731.33,-43.6C781.76,-48.93 843.38,-56.81 898,-67.7 913.94,-70.88 931.1,-75.31 946.49,-79.67"/>
<polygon fill="#9a32cd" stroke="#9a32cd" points="731.38,-40.09 721.07,-42.54 730.66,-47.05 731.38,-40.09"/>
</a>
</g>
<text text-anchor="middle" x="822.5" y="-70.7" font-family="Helvetica,sans-Serif" font-size="10.00" fill="grey"> ConvoCoreDialogueHistoryUI</text>
</g>
<!-- Node10 -->
<g id="Node000010" class="node">
<title>Node10</title>
<g id="a_Node000010"><a xlink:href="classWolfstagInteractive_1_1ConvoCore_1_1ConvoCoreConversationData.html" target="_top" xlink:title=" ">
<polygon fill="white" stroke="#bfbfbf" points="720,-247.7 537,-247.7 537,-217.7 720,-217.7 720,-247.7"/>
<text text-anchor="start" x="545" y="-235.7" font-family="Helvetica,sans-Serif" font-size="10.00">WolfstagInteractive.Convo</text>
<text text-anchor="middle" x="628.5" y="-224.7" font-family="Helvetica,sans-Serif" font-size="10.00">Core.ConvoCoreConversationData</text>
</a>
</g>
</g>
<!-- Node10&#45;&gt;Node1 -->
<g id="edge13_Node000001_Node000010" class="edge">
<title>Node10&#45;&gt;Node1</title>
<g id="a_edge13_Node000001_Node000010"><a xlink:title=" ">
<path fill="none" stroke="#9a32cd" stroke-dasharray="5,2" d="M730.54,-239.3C780.9,-242.83 842.7,-247.51 898,-252.7 907.2,-253.57 916.87,-254.56 926.41,-255.59"/>
<polygon fill="#9a32cd" stroke="#9a32cd" points="730.52,-235.79 720.3,-238.59 730.03,-242.78 730.52,-235.79"/>
</a>
</g>
<text text-anchor="middle" x="822.5" y="-255.7" font-family="Helvetica,sans-Serif" font-size="10.00" fill="grey"> Conversation</text>
</g>
<!-- Node11 -->
<g id="Node000011" class="node">
<title>Node11</title>
<g id="a_Node000011"><a xlink:title=" ">
<polygon fill="white" stroke="#bfbfbf" points="139.5,-285.2 42.5,-285.2 42.5,-266.2 139.5,-266.2 139.5,-285.2"/>
<text text-anchor="middle" x="91" y="-273.2" font-family="Helvetica,sans-Serif" font-size="10.00">ScriptableObject</text>
</a>
</g>
</g>
<!-- Node11&#45;&gt;Node10 -->
<g id="edge14_Node000010_Node000011" class="edge">
<title>Node11&#45;&gt;Node10</title>
<g id="a_edge14_Node000010_Node000011"><a xlink:title=" ">
<path fill="none" stroke="#63b8ff" d="M150.21,-273.28C231.09,-269.58 381.96,-261.46 510,-247.7 518.69,-246.77 527.73,-245.73 536.77,-244.65"/>
<polygon fill="#63b8ff" stroke="#63b8ff" points="149.58,-269.81 139.75,-273.75 149.9,-276.8 149.58,-269.81"/>
</a>
</g>
</g>
<!-- Node12 -->
<g id="Node000012" class="node">
<title>Node12</title>
<g id="a_Node000012"><a xlink:href="classWolfstagInteractive_1_1ConvoCore_1_1ConversationBranchContainer.html" target="_top" xlink:title=" ">
<polygon fill="white" stroke="#bfbfbf" points="407,-247.7 219,-247.7 219,-217.7 407,-217.7 407,-247.7"/>
<text text-anchor="start" x="227" y="-235.7" font-family="Helvetica,sans-Serif" font-size="10.00">WolfstagInteractive.Convo</text>
<text text-anchor="middle" x="313" y="-224.7" font-family="Helvetica,sans-Serif" font-size="10.00">Core.ConversationBranchContainer</text>
</a>
</g>
</g>
<!-- Node11&#45;&gt;Node12 -->
<g id="edge16_Node000012_Node000011" class="edge">
<title>Node11&#45;&gt;Node12</title>
<g id="a_edge16_Node000012_Node000011"><a xlink:title=" ">
<path fill="none" stroke="#63b8ff" d="M149.82,-264.4C175.85,-259.31 206.97,-253.23 234.95,-247.76"/>
<polygon fill="#63b8ff" stroke="#63b8ff" points="148.88,-261.02 139.74,-266.37 150.22,-267.89 148.88,-261.02"/>
</a>
</g>
</g>
<!-- Node13 -->
<g id="Node000013" class="node">
<title>Node13</title>
<g id="a_Node000013"><a xlink:href="classWolfstagInteractive_1_1ConvoCore_1_1CharacterRepresentationBase.html" target="_top" xlink:title=" ">
<polygon fill="white" stroke="#bfbfbf" points="407,-344.7 219,-344.7 219,-314.7 407,-314.7 407,-344.7"/>
<text text-anchor="start" x="227" y="-332.7" font-family="Helvetica,sans-Serif" font-size="10.00">WolfstagInteractive.Convo</text>
<text text-anchor="middle" x="313" y="-321.7" font-family="Helvetica,sans-Serif" font-size="10.00">Core.CharacterRepresentationBase</text>
</a>
</g>
</g>
<!-- Node11&#45;&gt;Node13 -->
<g id="edge18_Node000013_Node000011" class="edge">
<title>Node11&#45;&gt;Node13</title>
<g id="a_edge18_Node000013_Node000011"><a xlink:title=" ">
<path fill="none" stroke="#63b8ff" d="M140.96,-287.72C173.35,-295.67 216.08,-306.16 250.73,-314.66"/>
<polygon fill="#63b8ff" stroke="#63b8ff" points="141.37,-284.22 130.83,-285.23 139.7,-291.01 141.37,-284.22"/>
</a>
</g>
</g>
<!-- Node12&#45;&gt;Node10 -->
<g id="edge15_Node000010_Node000012" class="edge">
<title>Node12&#45;&gt;Node10</title>
<g id="a_edge15_Node000010_Node000012"><a xlink:title=" ">
<path fill="none" stroke="#9a32cd" stroke-dasharray="5,2" d="M417.43,-232.7C456,-232.7 499.46,-232.7 536.8,-232.7"/>
<polygon fill="#9a32cd" stroke="#9a32cd" points="417.21,-229.2 407.21,-232.7 417.21,-236.2 417.21,-229.2"/>
</a>
</g>
<text text-anchor="middle" x="467.5" y="-235.7" font-family="Helvetica,sans-Serif" font-size="10.00" fill="grey"> BranchContainer</text>
</g>
<!-- Node13&#45;&gt;Node1 -->
<g id="edge17_Node000001_Node000013" class="edge">
<title>Node13&#45;&gt;Node1</title>
<g id="a_edge17_Node000001_Node000013"><a xlink:title=" ">
<path fill="none" stroke="#9a32cd" stroke-dasharray="5,2" d="M417.09,-329.27C534.41,-327.25 731.36,-319.2 898,-289.7 920.66,-285.69 945.74,-278.9 964.72,-273.27"/>
<polygon fill="#9a32cd" stroke="#9a32cd" points="416.98,-325.77 407.04,-329.43 417.09,-332.77 416.98,-325.77"/>
</a>
</g>
<text text-anchor="middle" x="628.5" y="-328.7" font-family="Helvetica,sans-Serif" font-size="10.00" fill="grey"> Representation</text>
</g>
<!-- Node14 -->
<g id="Node000014" class="node">
<title>Node14</title>
<g id="a_Node000014"><a xlink:href="interfaceWolfstagInteractive_1_1ConvoCore_1_1IEditorPreviewableRepresentation.html" target="_top" xlink:title=" ">
<polygon fill="white" stroke="#bfbfbf" points="182,-339.2 0,-339.2 0,-320.2 182,-320.2 182,-339.2"/>
<text text-anchor="middle" x="91" y="-327.2" font-family="Helvetica,sans-Serif" font-size="10.00">IEditorPreviewableRepresentation</text>
</a>
</g>
</g>
<!-- Node14&#45;&gt;Node13 -->
<g id="edge19_Node000013_Node000014" class="edge">
<title>Node14&#45;&gt;Node13</title>
<g id="a_edge19_Node000013_Node000014"><a xlink:title=" ">
<path fill="none" stroke="#63b8ff" d="M192.39,-329.7C201.19,-329.7 210.08,-329.7 218.81,-329.7"/>
<polygon fill="#63b8ff" stroke="#63b8ff" points="192.12,-326.2 182.12,-329.7 192.12,-333.2 192.12,-326.2"/>
</a>
</g>
</g>
<!-- Node15 -->
<g id="Node000015" class="node">
<title>Node15</title>
<g id="a_Node000015"><a xlink:href="interfaceWolfstagInteractive_1_1ConvoCore_1_1IConvoCoreCharacterDisplay.html" target="_top" xlink:title=" ">
<polygon fill="white" stroke="#bfbfbf" points="719.5,-295.7 537.5,-295.7 537.5,-265.7 719.5,-265.7 719.5,-295.7"/>
<text text-anchor="start" x="545.5" y="-283.7" font-family="Helvetica,sans-Serif" font-size="10.00">WolfstagInteractive.Convo</text>
<text text-anchor="middle" x="628.5" y="-272.7" font-family="Helvetica,sans-Serif" font-size="10.00">Core.IConvoCoreCharacterDisplay</text>
</a>
</g>
</g>
<!-- Node15&#45;&gt;Node1 -->
<g id="edge20_Node000001_Node000015" class="edge">
<title>Node15&#45;&gt;Node1</title>
<g id="a_edge20_Node000001_Node000015"><a xlink:title=" ">
<path fill="none" stroke="#9a32cd" stroke-dasharray="5,2" d="M730.11,-276.02C792.5,-273.12 871.03,-269.47 926.33,-266.9"/>
<polygon fill="#9a32cd" stroke="#9a32cd" points="729.67,-272.54 719.85,-276.5 730,-279.53 729.67,-272.54"/>
</a>
</g>
<text text-anchor="middle" x="822.5" y="-277.7" font-family="Helvetica,sans-Serif" font-size="10.00" fill="grey"> Display</text>
</g>
</g>
</svg>
