<?xml version="1.0" encoding="UTF-8" standalone="no"?>
<!DOCTYPE svg PUBLIC "-//W3C//DTD SVG 1.1//EN"
 "http://www.w3.org/Graphics/SVG/1.1/DTD/svg11.dtd">
<!-- Generated by graphviz version 2.43.0 (0)
 -->
<!-- Title: WolfstagInteractive.ConvoCore.ConvoCoreCharacterDisplayBase Pages: 1 -->
<svg width="630pt" height="194pt"
 viewBox="0.00 0.00 630.00 193.50" xmlns="http://www.w3.org/2000/svg" xmlns:xlink="http://www.w3.org/1999/xlink">
<g id="graph0" class="graph" transform="scale(1 1) rotate(0) translate(4 189.5)">
<title>WolfstagInteractive.ConvoCore.ConvoCoreCharacterDisplayBase</title>
<!-- Node1 -->
<g id="Node000001" class="node">
<title>Node1</title>
<g id="a_Node000001"><a xlink:title="Generic base class for all prefab&#45;based character displays.">
<polygon fill="#999999" stroke="#666666" points="396,-113.5 193,-113.5 193,-83.5 396,-83.5 396,-113.5"/>
<text text-anchor="start" x="201" y="-101.5" font-family="Helvetica,sans-Serif" font-size="10.00">WolfstagInteractive.Convo</text>
<text text-anchor="middle" x="294.5" y="-90.5" font-family="Helvetica,sans-Serif" font-size="10.00">Core.ConvoCoreCharacterDisplayBase</text>
</a>
</g>
</g>
<!-- Node4 -->
<g id="Node000004" class="node">
<title>Node4</title>
<g id="a_Node000004"><a xlink:href="classWolfstagInteractive_1_1ConvoCore_1_1ConvoCoreActionOnlyDisplay.html" target="_top" xlink:title="Minimal prefab display component.">
<polygon fill="white" stroke="#666666" points="619.5,-185.5 434.5,-185.5 434.5,-155.5 619.5,-155.5 619.5,-185.5"/>
<text text-anchor="start" x="442.5" y="-173.5" font-family="Helvetica,sans-Serif" font-size="10.00">WolfstagInteractive.Convo</text>
<text text-anchor="middle" x="527" y="-162.5" font-family="Helvetica,sans-Serif" font-size="10.00">Core.ConvoCoreActionOnlyDisplay</text>
</a>
</g>
</g>
<!-- Node1&#45;&gt;Node4 -->
<g id="edge3_Node000001_Node000004" class="edge">
<title>Node1&#45;&gt;Node4</title>
<g id="a_edge3_Node000001_Node000004"><a xlink:title=" ">
<path fill="none" stroke="#63b8ff" d="M344.77,-117.01C370.57,-126.4 402.79,-137.66 432,-146.5 442.24,-149.6 453.18,-152.64 463.85,-155.46"/>
<polygon fill="#63b8ff" stroke="#63b8ff" points="345.81,-113.66 335.21,-113.51 343.4,-120.23 345.81,-113.66"/>
</a>
</g>
</g>
<!-- Node5 -->
<g id="Node000005" class="node">
<title>Node5</title>
<g id="a_Node000005"><a xlink:href="classWolfstagInteractive_1_1ConvoCore_1_1ConvoCoreAnimatorDisplay.html" target="_top" xlink:title="Prefab display component that maps expression display names to Animator parameters.">
<polygon fill="white" stroke="#666666" points="615.5,-137.5 438.5,-137.5 438.5,-107.5 615.5,-107.5 615.5,-137.5"/>
<text text-anchor="start" x="446.5" y="-125.5" font-family="Helvetica,sans-Serif" font-size="10.00">WolfstagInteractive.Convo</text>
<text text-anchor="middle" x="527" y="-114.5" font-family="Helvetica,sans-Serif" font-size="10.00">Core.ConvoCoreAnimatorDisplay</text>
</a>
</g>
</g>
<!-- Node1&#45;&gt;Node5 -->
<g id="edge4_Node000001_Node000005" class="edge">
<title>Node1&#45;&gt;Node5</title>
<g id="a_edge4_Node000001_Node000005"><a xlink:title=" ">
<path fill="none" stroke="#63b8ff" d="M406.51,-110.06C417.23,-111.17 428,-112.3 438.44,-113.38"/>
<polygon fill="#63b8ff" stroke="#63b8ff" points="406.57,-106.55 396.27,-108.99 405.85,-113.51 406.57,-106.55"/>
</a>
</g>
</g>
<!-- Node6 -->
<g id="Node000006" class="node">
<title>Node6</title>
<g id="a_Node000006"><a xlink:href="classWolfstagInteractive_1_1ConvoCore_1_1ConvoCoreBlendShapeDisplay.html" target="_top" xlink:title="Prefab display component that maps expression display names to SkinnedMeshRenderer blend shape indice...">
<polygon fill="white" stroke="#666666" points="622,-89.5 432,-89.5 432,-59.5 622,-59.5 622,-89.5"/>
<text text-anchor="start" x="440" y="-77.5" font-family="Helvetica,sans-Serif" font-size="10.00">WolfstagInteractive.Convo</text>
<text text-anchor="middle" x="527" y="-66.5" font-family="Helvetica,sans-Serif" font-size="10.00">Core.ConvoCoreBlendShapeDisplay</text>
</a>
</g>
</g>
<!-- Node1&#45;&gt;Node6 -->
<g id="edge5_Node000001_Node000006" class="edge">
<title>Node1&#45;&gt;Node6</title>
<g id="a_edge5_Node000001_Node000006"><a xlink:title=" ">
<path fill="none" stroke="#63b8ff" d="M406.32,-86.96C414.91,-86.07 423.53,-85.17 431.99,-84.29"/>
<polygon fill="#63b8ff" stroke="#63b8ff" points="405.85,-83.49 396.27,-88.01 406.57,-90.45 405.85,-83.49"/>
</a>
</g>
</g>
<!-- Node7 -->
<g id="Node000007" class="node">
<title>Node7</title>
<g id="a_Node000007"><a xlink:href="classWolfstagInteractive_1_1ConvoCore_1_1SimplePrefabRepresentationDisplay.html" target="_top" xlink:title=" ">
<polygon fill="white" stroke="#666666" points="618,-41 436,-41 436,0 618,0 618,-41"/>
<text text-anchor="start" x="444" y="-29" font-family="Helvetica,sans-Serif" font-size="10.00">WolfstagInteractive.Convo</text>
<text text-anchor="start" x="444" y="-18" font-family="Helvetica,sans-Serif" font-size="10.00">Core.SimplePrefabRepresentation</text>
<text text-anchor="middle" x="527" y="-7" font-family="Helvetica,sans-Serif" font-size="10.00">Display</text>
</a>
</g>
</g>
<!-- Node1&#45;&gt;Node7 -->
<g id="edge6_Node000001_Node000007" class="edge">
<title>Node1&#45;&gt;Node7</title>
<g id="a_edge6_Node000001_Node000007"><a xlink:title=" ">
<path fill="none" stroke="#63b8ff" d="M346.7,-80.1C372.27,-71.01 403.7,-59.99 432,-50.5 441.26,-47.4 451.05,-44.19 460.69,-41.07"/>
<polygon fill="#63b8ff" stroke="#63b8ff" points="345.46,-76.83 337.21,-83.48 347.8,-83.42 345.46,-76.83"/>
</a>
</g>
</g>
<!-- Node2 -->
<g id="Node000002" class="node">
<title>Node2</title>
<g id="a_Node000002"><a xlink:title=" ">
<polygon fill="white" stroke="#666666" points="125,-127 32,-127 32,-108 125,-108 125,-127"/>
<text text-anchor="middle" x="78.5" y="-115" font-family="Helvetica,sans-Serif" font-size="10.00">MonoBehaviour</text>
</a>
</g>
</g>
<!-- Node2&#45;&gt;Node1 -->
<g id="edge1_Node000001_Node000002" class="edge">
<title>Node2&#45;&gt;Node1</title>
<g id="a_edge1_Node000001_Node000002"><a xlink:title=" ">
<path fill="none" stroke="#63b8ff" d="M135.26,-112.55C152.95,-110.98 173.08,-109.19 192.92,-107.43"/>
<polygon fill="#63b8ff" stroke="#63b8ff" points="134.8,-109.08 125.15,-113.45 135.42,-116.05 134.8,-109.08"/>
</a>
</g>
</g>
<!-- Node3 -->
<g id="Node000003" class="node">
<title>Node3</title>
<g id="a_Node000003"><a xlink:href="interfaceWolfstagInteractive_1_1ConvoCore_1_1IConvoCoreCharacterDisplay.html" target="_top" xlink:title=" ">
<polygon fill="white" stroke="#666666" points="157,-90 0,-90 0,-71 157,-71 157,-90"/>
<text text-anchor="middle" x="78.5" y="-78" font-family="Helvetica,sans-Serif" font-size="10.00">IConvoCoreCharacterDisplay</text>
</a>
</g>
</g>
<!-- Node3&#45;&gt;Node1 -->
<g id="edge2_Node000001_Node000003" class="edge">
<title>Node3&#45;&gt;Node1</title>
<g id="a_edge2_Node000001_Node000003"><a xlink:title=" ">
<path fill="none" stroke="#63b8ff" d="M167.23,-87.88C175.65,-88.59 184.24,-89.31 192.77,-90.03"/>
<polygon fill="#63b8ff" stroke="#63b8ff" points="167.32,-84.37 157.06,-87.02 166.73,-91.35 167.32,-84.37"/>
</a>
</g>
</g>
</g>
</svg>
