<?xml version="1.0" encoding="UTF-8" standalone="no"?>
<!DOCTYPE svg PUBLIC "-//W3C//DTD SVG 1.1//EN"
 "http://www.w3.org/Graphics/SVG/1.1/DTD/svg11.dtd">
<!-- Generated by graphviz version 2.43.0 (0)
 -->
<!-- Title: WolfstagInteractive.ConvoCore.ConvoCoreSceneCharacterRegistrant Pages: 1 -->
<svg width="652pt" height="102pt"
 viewBox="0.00 0.00 652.00 101.50" xmlns="http://www.w3.org/2000/svg" xmlns:xlink="http://www.w3.org/1999/xlink">
<g id="graph0" class="graph" transform="scale(1 1) rotate(0) translate(4 97.5)">
<title>WolfstagInteractive.ConvoCore.ConvoCoreSceneCharacterRegistrant</title>
<!-- Node1 -->
<g id="Node000001" class="node">
<title>Node1</title>
<g id="a_Node000001"><a xlink:title="Add this component to any scene GameObject that should be driven by ConvoCore as a scene&#45;resident cha...">
<polygon fill="#999999" stroke="#666666" points="644,-78 422,-78 422,-48 644,-48 644,-78"/>
<text text-anchor="start" x="430" y="-66" font-family="Helvetica,sans-Serif" font-size="10.00">WolfstagInteractive.Convo</text>
<text text-anchor="middle" x="533" y="-55" font-family="Helvetica,sans-Serif" font-size="10.00">Core.ConvoCoreSceneCharacterRegistrant</text>
</a>
</g>
</g>
<!-- Node2 -->
<g id="Node000002" class="node">
<title>Node2</title>
<g id="a_Node000002"><a xlink:title=" ">
<polygon fill="white" stroke="#666666" points="93,-93.5 0,-93.5 0,-74.5 93,-74.5 93,-93.5"/>
<text text-anchor="middle" x="46.5" y="-81.5" font-family="Helvetica,sans-Serif" font-size="10.00">MonoBehaviour</text>
</a>
</g>
</g>
<!-- Node2&#45;&gt;Node1 -->
<g id="edge1_Node000001_Node000002" class="edge">
<title>Node2&#45;&gt;Node1</title>
<g id="a_edge1_Node000001_Node000002"><a xlink:title=" ">
<path fill="none" stroke="#63b8ff" d="M103.3,-89.88C106.24,-89.97 109.15,-90.02 112,-90 214.23,-89.33 240.01,-94.08 342,-87 370.69,-85.01 401.68,-81.62 430.15,-78.01"/>
<polygon fill="#63b8ff" stroke="#63b8ff" points="103.42,-86.38 93.26,-89.39 103.07,-93.37 103.42,-86.38"/>
</a>
</g>
</g>
<!-- Node3 -->
<g id="Node000003" class="node">
<title>Node3</title>
<g id="a_Node000003"><a xlink:href="classWolfstagInteractive_1_1ConvoCore_1_1ConvoCoreSceneCharacterRegistry.html" target="_top" xlink:title="Scene&#45;level registry that maps developer&#45;assigned string IDs to IConvoCoreCharacterDisplay instances ...">
<polygon fill="white" stroke="#666666" points="342,-78 130,-78 130,-48 342,-48 342,-78"/>
<text text-anchor="start" x="138" y="-66" font-family="Helvetica,sans-Serif" font-size="10.00">WolfstagInteractive.Convo</text>
<text text-anchor="middle" x="236" y="-55" font-family="Helvetica,sans-Serif" font-size="10.00">Core.ConvoCoreSceneCharacterRegistry</text>
</a>
</g>
</g>
<!-- Node2&#45;&gt;Node3 -->
<g id="edge3_Node000003_Node000002" class="edge">
<title>Node2&#45;&gt;Node3</title>
<g id="a_edge3_Node000003_Node000002"><a xlink:title=" ">
<path fill="none" stroke="#63b8ff" d="M103.34,-77.75C111.73,-76.81 120.61,-75.81 129.63,-74.8"/>
<polygon fill="#63b8ff" stroke="#63b8ff" points="102.92,-74.27 93.37,-78.86 103.7,-81.23 102.92,-74.27"/>
</a>
</g>
</g>
<!-- Node3&#45;&gt;Node1 -->
<g id="edge2_Node000001_Node000003" class="edge">
<title>Node3&#45;&gt;Node1</title>
<g id="a_edge2_Node000001_Node000003"><a xlink:title=" ">
<path fill="none" stroke="#9a32cd" stroke-dasharray="5,2" d="M352.32,-63C375.18,-63 399.12,-63 421.8,-63"/>
<polygon fill="#9a32cd" stroke="#9a32cd" points="352.25,-59.5 342.25,-63 352.25,-66.5 352.25,-59.5"/>
</a>
</g>
<text text-anchor="middle" x="382" y="-66" font-family="Helvetica,sans-Serif" font-size="10.00" fill="grey"> registry</text>
</g>
<!-- Node4 -->
<g id="Node000004" class="node">
<title>Node4</title>
<g id="a_Node000004"><a xlink:href="interfaceWolfstagInteractive_1_1ConvoCore_1_1IConvoCoreCharacterDisplay.html" target="_top" xlink:title=" ">
<polygon fill="white" stroke="#666666" points="327,-30 145,-30 145,0 327,0 327,-30"/>
<text text-anchor="start" x="153" y="-18" font-family="Helvetica,sans-Serif" font-size="10.00">WolfstagInteractive.Convo</text>
<text text-anchor="middle" x="236" y="-7" font-family="Helvetica,sans-Serif" font-size="10.00">Core.IConvoCoreCharacterDisplay</text>
</a>
</g>
</g>
<!-- Node4&#45;&gt;Node1 -->
<g id="edge4_Node000001_Node000004" class="edge">
<title>Node4&#45;&gt;Node1</title>
<g id="a_edge4_Node000001_Node000004"><a xlink:title=" ">
<path fill="none" stroke="#9a32cd" stroke-dasharray="5,2" d="M337.28,-31.32C370.42,-36.71 407.12,-42.68 439.64,-47.97"/>
<polygon fill="#9a32cd" stroke="#9a32cd" points="337.54,-27.81 327.11,-29.66 336.42,-34.72 337.54,-27.81"/>
</a>
</g>
<text text-anchor="middle" x="382" y="-45" font-family="Helvetica,sans-Serif" font-size="10.00" fill="grey"> _display</text>
</g>
</g>
</svg>
