<?xml version="1.0" encoding="UTF-8" standalone="no"?>
<!DOCTYPE svg PUBLIC "-//W3C//DTD SVG 1.1//EN"
 "http://www.w3.org/Graphics/SVG/1.1/DTD/svg11.dtd">
<!-- Generated by graphviz version 2.43.0 (0)
 -->
<!-- Title: WolfstagInteractive.ConvoCore.ConvoCoreUIFoundation Pages: 1 -->
<svg width="1815pt" height="446pt"
 viewBox="0.00 0.00 1815.00 445.65" xmlns="http://www.w3.org/2000/svg" xmlns:xlink="http://www.w3.org/1999/xlink">
<g id="graph0" class="graph" transform="scale(1 1) rotate(0) translate(4 441.65)">
<title>WolfstagInteractive.ConvoCore.ConvoCoreUIFoundation</title>
<!-- Node1 -->
<g id="Node000001" class="node">
<title>Node1</title>
<g id="a_Node000001"><a xlink:title="Used as a basis of any UI that can be assigned in the inspector that includes all the base functions ...">
<polygon fill="#999999" stroke="#666666" points="1807,-301.65 1647,-301.65 1647,-271.65 1807,-271.65 1807,-301.65"/>
<text text-anchor="start" x="1655" y="-289.65" font-family="Helvetica,sans-Serif" font-size="10.00">WolfstagInteractive.Convo</text>
<text text-anchor="middle" x="1727" y="-278.65" font-family="Helvetica,sans-Serif" font-size="10.00">Core.ConvoCoreUIFoundation</text>
</a>
</g>
</g>
<!-- Node2 -->
<g id="Node000002" class="node">
<title>Node2</title>
<g id="a_Node000002"><a xlink:title=" ">
<polygon fill="white" stroke="#666666" points="1071,-235.15 978,-235.15 978,-216.15 1071,-216.15 1071,-235.15"/>
<text text-anchor="middle" x="1024.5" y="-223.15" font-family="Helvetica,sans-Serif" font-size="10.00">MonoBehaviour</text>
</a>
</g>
</g>
<!-- Node2&#45;&gt;Node1 -->
<g id="edge1_Node000001_Node000002" class="edge">
<title>Node2&#45;&gt;Node1</title>
<g id="a_edge1_Node000001_Node000002"><a xlink:title=" ">
<path fill="none" stroke="#63b8ff" d="M1059.78,-238.71C1104.73,-255.09 1186.42,-282.27 1259,-292.65 1394.05,-311.95 1553.3,-303.29 1646.61,-295.08"/>
<polygon fill="#63b8ff" stroke="#63b8ff" points="1060.82,-235.37 1050.23,-235.19 1058.4,-241.93 1060.82,-235.37"/>
</a>
</g>
</g>
<!-- Node4 -->
<g id="Node000004" class="node">
<title>Node4</title>
<g id="a_Node000004"><a xlink:href="classWolfstagInteractive_1_1ConvoCore_1_1ConvoCore.html" target="_top" xlink:title=" ">
<polygon fill="white" stroke="#666666" points="1432.5,-123.65 1286.5,-123.65 1286.5,-93.65 1432.5,-93.65 1432.5,-123.65"/>
<text text-anchor="start" x="1294.5" y="-111.65" font-family="Helvetica,sans-Serif" font-size="10.00">WolfstagInteractive.Convo</text>
<text text-anchor="middle" x="1359.5" y="-100.65" font-family="Helvetica,sans-Serif" font-size="10.00">Core.ConvoCore</text>
</a>
</g>
</g>
<!-- Node2&#45;&gt;Node4 -->
<g id="edge4_Node000004_Node000002" class="edge">
<title>Node2&#45;&gt;Node4</title>
<g id="a_edge4_Node000004_Node000002"><a xlink:title=" ">
<path fill="none" stroke="#63b8ff" d="M1081.11,-221.99C1095.55,-219.18 1110.53,-214.46 1123,-206.65 1134.3,-199.57 1130,-190.18 1141,-182.65 1179.09,-156.58 1197.23,-169.3 1241,-154.65 1268.84,-145.33 1299.73,-133.16 1322.84,-123.68"/>
<polygon fill="#63b8ff" stroke="#63b8ff" points="1080.52,-218.54 1071.23,-223.65 1081.68,-225.44 1080.52,-218.54"/>
</a>
</g>
</g>
<!-- Node9 -->
<g id="Node000009" class="node">
<title>Node9</title>
<g id="a_Node000009"><a xlink:href="classWolfstagInteractive_1_1ConvoCore_1_1ConvoCoreUIFoundation.html" target="_top" xlink:title="Used as a basis of any UI that can be assigned in the inspector that includes all the base functions ...">
<polygon fill="white" stroke="#666666" points="1807,-200.65 1647,-200.65 1647,-170.65 1807,-170.65 1807,-200.65"/>
<text text-anchor="start" x="1655" y="-188.65" font-family="Helvetica,sans-Serif" font-size="10.00">WolfstagInteractive.Convo</text>
<text text-anchor="middle" x="1727" y="-177.65" font-family="Helvetica,sans-Serif" font-size="10.00">Core.ConvoCoreUIFoundation</text>
</a>
</g>
</g>
<!-- Node2&#45;&gt;Node9 -->
<g id="edge10_Node000009_Node000002" class="edge">
<title>Node2&#45;&gt;Node9</title>
<g id="a_edge10_Node000009_Node000002"><a xlink:title=" ">
<path fill="none" stroke="#63b8ff" d="M1081.06,-217.58C1128.29,-211 1197.96,-201.96 1259,-196.65 1356.09,-188.19 1380.57,-188.09 1478,-185.65 1534.49,-184.23 1598.25,-184.26 1646.97,-184.64"/>
<polygon fill="#63b8ff" stroke="#63b8ff" points="1080.45,-214.13 1071.03,-218.99 1081.42,-221.06 1080.45,-214.13"/>
</a>
</g>
</g>
<!-- Node10 -->
<g id="Node000010" class="node">
<title>Node10</title>
<g id="a_Node000010"><a xlink:href="classWolfstagInteractive_1_1ConvoCore_1_1ConvoCorePrefabRepresentationSpawner.html" target="_top" xlink:title=" ">
<polygon fill="white" stroke="#666666" points="1460,-246.15 1259,-246.15 1259,-205.15 1460,-205.15 1460,-246.15"/>
<text text-anchor="start" x="1267" y="-234.15" font-family="Helvetica,sans-Serif" font-size="10.00">WolfstagInteractive.Convo</text>
<text text-anchor="start" x="1267" y="-223.15" font-family="Helvetica,sans-Serif" font-size="10.00">Core.ConvoCorePrefabRepresentation</text>
<text text-anchor="middle" x="1359.5" y="-212.15" font-family="Helvetica,sans-Serif" font-size="10.00">Spawner</text>
</a>
</g>
</g>
<!-- Node2&#45;&gt;Node10 -->
<g id="edge14_Node000010_Node000002" class="edge">
<title>Node2&#45;&gt;Node10</title>
<g id="a_edge14_Node000010_Node000002"><a xlink:title=" ">
<path fill="none" stroke="#63b8ff" d="M1081.36,-225.65C1129.7,-225.65 1200.75,-225.65 1258.81,-225.65"/>
<polygon fill="#63b8ff" stroke="#63b8ff" points="1081.1,-222.15 1071.1,-225.65 1081.1,-229.15 1081.1,-222.15"/>
</a>
</g>
</g>
<!-- Node11 -->
<g id="Node000011" class="node">
<title>Node11</title>
<g id="a_Node000011"><a xlink:href="classWolfstagInteractive_1_1ConvoCore_1_1ConvoCoreDialogueHistoryUI.html" target="_top" xlink:title=" ">
<polygon fill="white" stroke="#666666" points="1452,-381.65 1267,-381.65 1267,-351.65 1452,-351.65 1452,-381.65"/>
<text text-anchor="start" x="1275" y="-369.65" font-family="Helvetica,sans-Serif" font-size="10.00">WolfstagInteractive.Convo</text>
<text text-anchor="middle" x="1359.5" y="-358.65" font-family="Helvetica,sans-Serif" font-size="10.00">Core.ConvoCoreDialogueHistoryUI</text>
</a>
</g>
</g>
<!-- Node2&#45;&gt;Node11 -->
<g id="edge16_Node000011_Node000002" class="edge">
<title>Node2&#45;&gt;Node11</title>
<g id="a_edge16_Node000011_Node000002"><a xlink:title=" ">
<path fill="none" stroke="#63b8ff" d="M1043.87,-242.13C1065.6,-260.8 1103.56,-290.94 1141,-308.65 1148.35,-312.12 1238.15,-335.61 1300.03,-351.61"/>
<polygon fill="#63b8ff" stroke="#63b8ff" points="1045.95,-239.3 1036.12,-235.35 1041.34,-244.57 1045.95,-239.3"/>
</a>
</g>
</g>
<!-- Node3 -->
<g id="Node000003" class="node">
<title>Node3</title>
<g id="a_Node000003"><a xlink:href="interfaceWolfstagInteractive_1_1ConvoCore_1_1IUIFoundation.html" target="_top" xlink:title=" ">
<polygon fill="white" stroke="#666666" points="1401.5,-283.15 1317.5,-283.15 1317.5,-264.15 1401.5,-264.15 1401.5,-283.15"/>
<text text-anchor="middle" x="1359.5" y="-271.15" font-family="Helvetica,sans-Serif" font-size="10.00">IUIFoundation</text>
</a>
</g>
</g>
<!-- Node3&#45;&gt;Node1 -->
<g id="edge2_Node000001_Node000003" class="edge">
<title>Node3&#45;&gt;Node1</title>
<g id="a_edge2_Node000001_Node000003"><a xlink:title=" ">
<path fill="none" stroke="#63b8ff" d="M1411.89,-275.47C1472.97,-277.65 1575.58,-281.3 1646.82,-283.83"/>
<polygon fill="#63b8ff" stroke="#63b8ff" points="1411.84,-271.97 1401.72,-275.11 1411.59,-278.97 1411.84,-271.97"/>
</a>
</g>
</g>
<!-- Node3&#45;&gt;Node9 -->
<g id="edge11_Node000009_Node000003" class="edge">
<title>Node3&#45;&gt;Node9</title>
<g id="a_edge11_Node000009_Node000003"><a xlink:title=" ">
<path fill="none" stroke="#63b8ff" d="M1412.02,-275.71C1467.22,-276.32 1556.64,-272.64 1629,-247.65 1659.23,-237.2 1689.56,-215.6 1708.06,-200.86"/>
<polygon fill="#63b8ff" stroke="#63b8ff" points="1411.84,-272.21 1401.79,-275.54 1411.73,-279.2 1411.84,-272.21"/>
</a>
</g>
</g>
<!-- Node4&#45;&gt;Node1 -->
<g id="edge3_Node000001_Node000004" class="edge">
<title>Node4&#45;&gt;Node1</title>
<g id="a_edge3_Node000001_Node000004"><a xlink:title=" ">
<path fill="none" stroke="#9a32cd" stroke-dasharray="5,2" d="M1443.01,-121.24C1510.86,-132.96 1600.33,-152.01 1629,-174.65 1642.73,-185.49 1636.6,-195.58 1647,-209.65 1664.76,-233.67 1690.21,-257.01 1707.38,-271.58"/>
<polygon fill="#9a32cd" stroke="#9a32cd" points="1443.19,-117.72 1432.74,-119.49 1442.01,-124.62 1443.19,-117.72"/>
</a>
</g>
<text text-anchor="middle" x="1553.5" y="-177.65" font-family="Helvetica,sans-Serif" font-size="10.00" fill="grey"> ConvoCoreInstance</text>
</g>
<!-- Node4&#45;&gt;Node9 -->
<g id="edge12_Node000009_Node000004" class="edge">
<title>Node4&#45;&gt;Node9</title>
<g id="a_edge12_Node000009_Node000004"><a xlink:title=" ">
<path fill="none" stroke="#9a32cd" stroke-dasharray="5,2" d="M1404.3,-89.95C1459.27,-69.45 1555.26,-43.56 1629,-76.65 1672.22,-96.04 1704.06,-145.26 1718.08,-170.39"/>
<polygon fill="#9a32cd" stroke="#9a32cd" points="1402.94,-86.73 1394.86,-93.57 1405.45,-93.26 1402.94,-86.73"/>
</a>
</g>
<text text-anchor="middle" x="1553.5" y="-79.65" font-family="Helvetica,sans-Serif" font-size="10.00" fill="grey"> ConvoCoreInstance</text>
</g>
<!-- Node5 -->
<g id="Node000005" class="node">
<title>Node5</title>
<g id="a_Node000005"><a xlink:href="interfaceWolfstagInteractive_1_1ConvoCore_1_1IConvoCoreRunner.html" target="_top" xlink:title=" ">
<polygon fill="white" stroke="#666666" points="1078,-41.15 971,-41.15 971,-22.15 1078,-22.15 1078,-41.15"/>
<text text-anchor="middle" x="1024.5" y="-29.15" font-family="Helvetica,sans-Serif" font-size="10.00">IConvoCoreRunner</text>
</a>
</g>
</g>
<!-- Node5&#45;&gt;Node4 -->
<g id="edge5_Node000004_Node000005" class="edge">
<title>Node5&#45;&gt;Node4</title>
<g id="a_edge5_Node000004_Node000005"><a xlink:title=" ">
<path fill="none" stroke="#63b8ff" d="M1086.05,-43.13C1098.29,-45.54 1111.07,-48.12 1123,-50.65 1175.63,-61.79 1188.76,-64.78 1241,-77.65 1261.28,-82.64 1283.45,-88.41 1303.01,-93.6"/>
<polygon fill="#63b8ff" stroke="#63b8ff" points="1086.4,-39.63 1075.92,-41.15 1085.06,-46.5 1086.4,-39.63"/>
</a>
</g>
</g>
<!-- Node6 -->
<g id="Node000006" class="node">
<title>Node6</title>
<g id="a_Node000006"><a xlink:href="classWolfstagInteractive_1_1ConvoCore_1_1ConvoCoreConversationData.html" target="_top" xlink:title=" ">
<polygon fill="white" stroke="#666666" points="481,-98.65 298,-98.65 298,-68.65 481,-68.65 481,-98.65"/>
<text text-anchor="start" x="306" y="-86.65" font-family="Helvetica,sans-Serif" font-size="10.00">WolfstagInteractive.Convo</text>
<text text-anchor="middle" x="389.5" y="-75.65" font-family="Helvetica,sans-Serif" font-size="10.00">Core.ConvoCoreConversationData</text>
</a>
</g>
</g>
<!-- Node6&#45;&gt;Node4 -->
<g id="edge6_Node000004_Node000006" class="edge">
<title>Node6&#45;&gt;Node4</title>
<g id="a_edge6_Node000004_Node000006"><a xlink:title=" ">
<path fill="none" stroke="#9a32cd" stroke-dasharray="5,2" d="M456.57,-66.14C585.37,-34.46 878.82,25.7 1123,-12.65 1203.69,-25.32 1290.74,-69.81 1332.82,-93.51"/>
<polygon fill="#9a32cd" stroke="#9a32cd" points="455.7,-62.75 446.84,-68.55 457.39,-69.54 455.7,-62.75"/>
</a>
</g>
<text text-anchor="middle" x="805" y="-20.65" font-family="Helvetica,sans-Serif" font-size="10.00" fill="grey"> ConversationData</text>
</g>
<!-- Node7 -->
<g id="Node000007" class="node">
<title>Node7</title>
<g id="a_Node000007"><a xlink:title=" ">
<polygon fill="white" stroke="#666666" points="97,-316.15 0,-316.15 0,-297.15 97,-297.15 97,-316.15"/>
<text text-anchor="middle" x="48.5" y="-304.15" font-family="Helvetica,sans-Serif" font-size="10.00">ScriptableObject</text>
</a>
</g>
</g>
<!-- Node7&#45;&gt;Node6 -->
<g id="edge7_Node000006_Node000007" class="edge">
<title>Node7&#45;&gt;Node6</title>
<g id="a_edge7_Node000006_Node000007"><a xlink:title=" ">
<path fill="none" stroke="#63b8ff" d="M72.75,-291.35C134.8,-250.53 303.8,-139.36 365.53,-98.75"/>
<polygon fill="#63b8ff" stroke="#63b8ff" points="70.5,-288.64 64.07,-297.06 74.34,-294.49 70.5,-288.64"/>
</a>
</g>
</g>
<!-- Node12 -->
<g id="Node000012" class="node">
<title>Node12</title>
<g id="a_Node000012"><a xlink:href="classWolfstagInteractive_1_1ConvoCore_1_1ConvoCoreSettings.html" target="_top" xlink:title=" ">
<polygon fill="white" stroke="#666666" points="280,-321.65 134,-321.65 134,-291.65 280,-291.65 280,-321.65"/>
<text text-anchor="start" x="142" y="-309.65" font-family="Helvetica,sans-Serif" font-size="10.00">WolfstagInteractive.Convo</text>
<text text-anchor="middle" x="207" y="-298.65" font-family="Helvetica,sans-Serif" font-size="10.00">Core.ConvoCoreSettings</text>
</a>
</g>
</g>
<!-- Node7&#45;&gt;Node12 -->
<g id="edge18_Node000012_Node000007" class="edge">
<title>Node7&#45;&gt;Node12</title>
<g id="a_edge18_Node000012_Node000007"><a xlink:title=" ">
<path fill="none" stroke="#63b8ff" d="M107.31,-306.65C116,-306.65 125.05,-306.65 133.99,-306.65"/>
<polygon fill="#63b8ff" stroke="#63b8ff" points="107.31,-303.15 97.31,-306.65 107.31,-310.15 107.31,-303.15"/>
</a>
</g>
</g>
<!-- Node14 -->
<g id="Node000014" class="node">
<title>Node14</title>
<g id="a_Node000014"><a xlink:href="classWolfstagInteractive_1_1ConvoCore_1_1ConvoCoreHistoryRendererProfile.html" target="_top" xlink:title=" ">
<polygon fill="white" stroke="#666666" points="908,-437.65 702,-437.65 702,-407.65 908,-407.65 908,-437.65"/>
<text text-anchor="start" x="710" y="-425.65" font-family="Helvetica,sans-Serif" font-size="10.00">WolfstagInteractive.Convo</text>
<text text-anchor="middle" x="805" y="-414.65" font-family="Helvetica,sans-Serif" font-size="10.00">Core.ConvoCoreHistoryRendererProfile</text>
</a>
</g>
</g>
<!-- Node7&#45;&gt;Node14 -->
<g id="edge22_Node000014_Node000007" class="edge">
<title>Node7&#45;&gt;Node14</title>
<g id="a_edge22_Node000014_Node000007"><a xlink:title=" ">
<path fill="none" stroke="#63b8ff" d="M69.08,-322.68C85.39,-335.06 109.79,-351.43 134,-359.65 326.93,-425.08 567.89,-430.6 701.94,-427.47"/>
<polygon fill="#63b8ff" stroke="#63b8ff" points="70.94,-319.69 60.91,-316.28 66.63,-325.2 70.94,-319.69"/>
</a>
</g>
</g>
<!-- Node8 -->
<g id="Node000008" class="node">
<title>Node8</title>
<g id="a_Node000008"><a xlink:href="interfaceWolfstagInteractive_1_1ConvoCore_1_1IConvoInput.html" target="_top" xlink:title=" ">
<polygon fill="white" stroke="#666666" points="1097.5,-197.65 951.5,-197.65 951.5,-167.65 1097.5,-167.65 1097.5,-197.65"/>
<text text-anchor="start" x="959.5" y="-185.65" font-family="Helvetica,sans-Serif" font-size="10.00">WolfstagInteractive.Convo</text>
<text text-anchor="middle" x="1024.5" y="-174.65" font-family="Helvetica,sans-Serif" font-size="10.00">Core.IConvoInput</text>
</a>
</g>
</g>
<!-- Node8&#45;&gt;Node4 -->
<g id="edge8_Node000004_Node000008" class="edge">
<title>Node8&#45;&gt;Node4</title>
<g id="a_edge8_Node000004_Node000008"><a xlink:title=" ">
<path fill="none" stroke="#9a32cd" stroke-dasharray="5,2" d="M1107.44,-165.43C1112.81,-163.41 1118.04,-161.15 1123,-158.65 1132.29,-153.95 1131.52,-147.96 1141,-143.65 1166.37,-132.1 1233.35,-122.36 1286.34,-116.1"/>
<polygon fill="#9a32cd" stroke="#9a32cd" points="1105.96,-162.24 1097.67,-168.84 1108.26,-168.85 1105.96,-162.24"/>
</a>
</g>
<text text-anchor="middle" x="1191" y="-146.65" font-family="Helvetica,sans-Serif" font-size="10.00" fill="grey"> Input</text>
</g>
<!-- Node9&#45;&gt;Node4 -->
<g id="edge9_Node000004_Node000009" class="edge">
<title>Node9&#45;&gt;Node4</title>
<g id="a_edge9_Node000004_Node000009"><a xlink:title=" ">
<path fill="none" stroke="#9a32cd" stroke-dasharray="5,2" d="M1705.65,-162.94C1687.59,-144.62 1659.42,-120.21 1629,-109.65 1565.37,-87.55 1488.02,-90.08 1432.72,-96.48"/>
<polygon fill="#9a32cd" stroke="#9a32cd" points="1703.31,-165.56 1712.75,-170.37 1708.37,-160.72 1703.31,-165.56"/>
</a>
</g>
<text text-anchor="middle" x="1553.5" y="-112.65" font-family="Helvetica,sans-Serif" font-size="10.00" fill="grey"> ConversationUI</text>
</g>
<!-- Node10&#45;&gt;Node1 -->
<g id="edge28_Node000001_Node000010" class="edge">
<title>Node10&#45;&gt;Node1</title>
<g id="a_edge28_Node000001_Node000010"><a xlink:title=" ">
<path fill="none" stroke="#9a32cd" stroke-dasharray="5,2" d="M1470.01,-238.08C1518.87,-244.31 1577.01,-252.66 1629,-262.65 1642.2,-265.18 1656.3,-268.38 1669.54,-271.61"/>
<polygon fill="#9a32cd" stroke="#9a32cd" points="1470.41,-234.6 1460.05,-236.82 1469.54,-241.55 1470.41,-234.6"/>
</a>
</g>
<text text-anchor="middle" x="1553.5" y="-265.65" font-family="Helvetica,sans-Serif" font-size="10.00" fill="grey"> PrefabRepresentationSpawner</text>
</g>
<!-- Node10&#45;&gt;Node9 -->
<g id="edge13_Node000009_Node000010" class="edge">
<title>Node10&#45;&gt;Node9</title>
<g id="a_edge13_Node000009_Node000010"><a xlink:title=" ">
<path fill="none" stroke="#9a32cd" stroke-dasharray="5,2" d="M1469.93,-203.76C1472.65,-203.37 1475.34,-203 1478,-202.65 1534.16,-195.25 1597.92,-190.97 1646.73,-188.56"/>
<polygon fill="#9a32cd" stroke="#9a32cd" points="1469.4,-200.3 1460.04,-205.27 1470.45,-207.22 1469.4,-200.3"/>
</a>
</g>
<text text-anchor="middle" x="1553.5" y="-205.65" font-family="Helvetica,sans-Serif" font-size="10.00" fill="grey"> PrefabRepresentationSpawner</text>
</g>
<!-- Node11&#45;&gt;Node1 -->
<g id="edge29_Node000001_Node000011" class="edge">
<title>Node11&#45;&gt;Node1</title>
<g id="a_edge29_Node000001_Node000011"><a xlink:title=" ">
<path fill="none" stroke="#9a32cd" stroke-dasharray="5,2" d="M1462.2,-376.58C1513.52,-378.19 1575.96,-374.88 1629,-356.65 1661.99,-345.3 1693.46,-318.7 1711.19,-301.75"/>
<polygon fill="#9a32cd" stroke="#9a32cd" points="1462.22,-373.08 1452.09,-376.19 1461.95,-380.07 1462.22,-373.08"/>
</a>
</g>
<text text-anchor="middle" x="1553.5" y="-379.65" font-family="Helvetica,sans-Serif" font-size="10.00" fill="grey"> ConvoCoreDialogueHistoryUI</text>
</g>
<!-- Node11&#45;&gt;Node9 -->
<g id="edge15_Node000009_Node000011" class="edge">
<title>Node11&#45;&gt;Node9</title>
<g id="a_edge15_Node000009_Node000011"><a xlink:title=" ">
<path fill="none" stroke="#9a32cd" stroke-dasharray="5,2" d="M1438.45,-349.06C1494.11,-334.38 1569.36,-310.09 1629,-274.65 1646.88,-264.02 1688.36,-223.52 1710.85,-200.99"/>
<polygon fill="#9a32cd" stroke="#9a32cd" points="1437.45,-345.7 1428.65,-351.6 1439.21,-352.48 1437.45,-345.7"/>
</a>
</g>
<text text-anchor="middle" x="1553.5" y="-339.65" font-family="Helvetica,sans-Serif" font-size="10.00" fill="grey"> ConvoCoreDialogueHistoryUI</text>
</g>
<!-- Node12&#45;&gt;Node11 -->
<g id="edge17_Node000011_Node000012" class="edge">
<title>Node12&#45;&gt;Node11</title>
<g id="a_edge17_Node000011_Node000012"><a xlink:title=" ">
<path fill="none" stroke="#9a32cd" stroke-dasharray="5,2" d="M290.7,-310.96C499.77,-321.86 1048.32,-350.47 1266.8,-361.86"/>
<polygon fill="#9a32cd" stroke="#9a32cd" points="290.57,-307.45 280.4,-310.42 290.21,-314.44 290.57,-307.45"/>
</a>
</g>
<text text-anchor="middle" x="805" y="-345.65" font-family="Helvetica,sans-Serif" font-size="10.00" fill="grey"> convoCoreSettings</text>
</g>
<!-- Node12&#45;&gt;Node12 -->
<g id="edge19_Node000012_Node000012" class="edge">
<title>Node12&#45;&gt;Node12</title>
<g id="a_edge19_Node000012_Node000012"><a xlink:title=" ">
<path fill="none" stroke="#9a32cd" stroke-dasharray="5,2" d="M191.25,-332.24C193.4,-336.62 198.65,-339.65 207,-339.65 221.06,-339.65 226.34,-331.05 222.82,-321.92"/>
<polygon fill="#9a32cd" stroke="#9a32cd" points="194.74,-331.9 191.18,-321.92 187.74,-331.94 194.74,-331.9"/>
</a>
</g>
<text text-anchor="middle" x="207" y="-342.65" font-family="Helvetica,sans-Serif" font-size="10.00" fill="grey"> _instance</text>
</g>
<!-- Node16 -->
<g id="Node000016" class="node">
<title>Node16</title>
<g id="a_Node000016"><a xlink:href="classWolfstagInteractive_1_1ConvoCore_1_1ConvoCoreLanguageManager.html" target="_top" xlink:title=" ">
<polygon fill="white" stroke="#666666" points="684,-224.65 499,-224.65 499,-194.65 684,-194.65 684,-224.65"/>
<text text-anchor="start" x="507" y="-212.65" font-family="Helvetica,sans-Serif" font-size="10.00">WolfstagInteractive.Convo</text>
<text text-anchor="middle" x="591.5" y="-201.65" font-family="Helvetica,sans-Serif" font-size="10.00">Core.ConvoCoreLanguageManager</text>
</a>
</g>
</g>
<!-- Node12&#45;&gt;Node16 -->
<g id="edge26_Node000016_Node000012" class="edge">
<title>Node12&#45;&gt;Node16</title>
<g id="a_edge26_Node000016_Node000012"><a xlink:title=" ">
<path fill="none" stroke="#9a32cd" stroke-dasharray="5,2" d="M277.32,-289.07C349.93,-270.65 462.76,-242.04 531.33,-224.65"/>
<polygon fill="#9a32cd" stroke="#9a32cd" points="276.18,-285.75 267.35,-291.6 277.9,-292.53 276.18,-285.75"/>
</a>
</g>
<text text-anchor="middle" x="389.5" y="-285.65" font-family="Helvetica,sans-Serif" font-size="10.00" fill="grey"> _convoCoreSettings</text>
</g>
<!-- Node13 -->
<g id="Node000013" class="node">
<title>Node13</title>
<g id="a_Node000013"><a xlink:href="interfaceWolfstagInteractive_1_1ConvoCore_1_1IConvoCoreHistoryRenderer.html" target="_top" xlink:title="Base contract for any dialogue history renderer.">
<polygon fill="white" stroke="#666666" points="1113.5,-400.65 935.5,-400.65 935.5,-370.65 1113.5,-370.65 1113.5,-400.65"/>
<text text-anchor="start" x="943.5" y="-388.65" font-family="Helvetica,sans-Serif" font-size="10.00">WolfstagInteractive.Convo</text>
<text text-anchor="middle" x="1024.5" y="-377.65" font-family="Helvetica,sans-Serif" font-size="10.00">Core.IConvoCoreHistoryRenderer</text>
</a>
</g>
</g>
<!-- Node13&#45;&gt;Node11 -->
<g id="edge20_Node000011_Node000013" class="edge">
<title>Node13&#45;&gt;Node11</title>
<g id="a_edge20_Node000011_Node000013"><a xlink:title=" ">
<path fill="none" stroke="#9a32cd" stroke-dasharray="5,2" d="M1123.97,-380.03C1169.18,-377.45 1222.47,-374.41 1266.82,-371.88"/>
<polygon fill="#9a32cd" stroke="#9a32cd" points="1123.65,-376.54 1113.86,-380.6 1124.05,-383.53 1123.65,-376.54"/>
</a>
</g>
<text text-anchor="middle" x="1191" y="-381.65" font-family="Helvetica,sans-Serif" font-size="10.00" fill="grey"> _renderer</text>
</g>
<!-- Node14&#45;&gt;Node11 -->
<g id="edge21_Node000011_Node000014" class="edge">
<title>Node14&#45;&gt;Node11</title>
<g id="a_edge21_Node000011_Node000014"><a xlink:title=" ">
<path fill="none" stroke="#9a32cd" stroke-dasharray="5,2" d="M918.37,-422.15C1006.71,-420.08 1132.56,-413.42 1241,-393.65 1259.64,-390.25 1279.78,-385.88 1298.04,-381.65"/>
<polygon fill="#9a32cd" stroke="#9a32cd" points="918.24,-418.65 908.32,-422.37 918.4,-425.65 918.24,-418.65"/>
</a>
</g>
<text text-anchor="middle" x="1024.5" y="-424.65" font-family="Helvetica,sans-Serif" font-size="10.00" fill="grey"> _activeProfile</text>
</g>
<!-- Node15 -->
<g id="Node000015" class="node">
<title>Node15</title>
<g id="a_Node000015"><a xlink:href="classWolfstagInteractive_1_1ConvoCore_1_1ConvoCoreDialogueLocalizationHandler.html" target="_top" xlink:title=" ">
<polygon fill="white" stroke="#666666" points="1123,-149.15 926,-149.15 926,-108.15 1123,-108.15 1123,-149.15"/>
<text text-anchor="start" x="934" y="-137.15" font-family="Helvetica,sans-Serif" font-size="10.00">WolfstagInteractive.Convo</text>
<text text-anchor="start" x="934" y="-126.15" font-family="Helvetica,sans-Serif" font-size="10.00">Core.ConvoCoreDialogueLocalization</text>
<text text-anchor="middle" x="1024.5" y="-115.15" font-family="Helvetica,sans-Serif" font-size="10.00">Handler</text>
</a>
</g>
</g>
<!-- Node15&#45;&gt;Node4 -->
<g id="edge23_Node000004_Node000015" class="edge">
<title>Node15&#45;&gt;Node4</title>
<g id="a_edge23_Node000004_Node000015"><a xlink:title=" ">
<path fill="none" stroke="#9a32cd" stroke-dasharray="5,2" d="M1133.21,-110.37C1135.83,-110.1 1138.43,-109.86 1141,-109.65 1189.35,-105.58 1243.96,-105.35 1286.37,-106.12"/>
<polygon fill="#9a32cd" stroke="#9a32cd" points="1132.59,-106.91 1123.04,-111.49 1133.36,-113.87 1132.59,-106.91"/>
</a>
</g>
<text text-anchor="middle" x="1191" y="-112.65" font-family="Helvetica,sans-Serif" font-size="10.00" fill="grey"> LocalizationHandler</text>
</g>
<!-- Node16&#45;&gt;Node15 -->
<g id="edge24_Node000015_Node000016" class="edge">
<title>Node16&#45;&gt;Node15</title>
<g id="a_edge24_Node000015_Node000016"><a xlink:title=" ">
<path fill="none" stroke="#9a32cd" stroke-dasharray="5,2" d="M682.4,-192.75C753.51,-179.39 852.66,-160.75 925.74,-147.02"/>
<polygon fill="#9a32cd" stroke="#9a32cd" points="681.74,-189.31 672.56,-194.6 683.03,-196.19 681.74,-189.31"/>
</a>
</g>
<text text-anchor="middle" x="805" y="-190.65" font-family="Helvetica,sans-Serif" font-size="10.00" fill="grey"> _convoCoreLanguageManager</text>
</g>
<!-- Node16&#45;&gt;Node16 -->
<g id="edge25_Node000016_Node000016" class="edge">
<title>Node16&#45;&gt;Node16</title>
<g id="a_edge25_Node000016_Node000016"><a xlink:title=" ">
<path fill="none" stroke="#9a32cd" stroke-dasharray="5,2" d="M556.14,-235.24C560.97,-239.62 572.76,-242.65 591.5,-242.65 623.06,-242.65 634.9,-234.05 627.01,-224.92"/>
<polygon fill="#9a32cd" stroke="#9a32cd" points="559.64,-234.87 555.99,-224.92 552.64,-234.97 559.64,-234.87"/>
</a>
</g>
<text text-anchor="middle" x="591.5" y="-245.65" font-family="Helvetica,sans-Serif" font-size="10.00" fill="grey"> _instance</text>
</g>
<!-- Node17 -->
<g id="Node000017" class="node">
<title>Node17</title>
<g id="a_Node000017"><a xlink:href="interfaceWolfstagInteractive_1_1ConvoCore_1_1IConversationContext.html" target="_top" xlink:title="Provides optional runtime context for branch evaluation.">
<polygon fill="white" stroke="#666666" points="1098.5,-89.65 950.5,-89.65 950.5,-59.65 1098.5,-59.65 1098.5,-89.65"/>
<text text-anchor="start" x="958.5" y="-77.65" font-family="Helvetica,sans-Serif" font-size="10.00">WolfstagInteractive.Convo</text>
<text text-anchor="middle" x="1024.5" y="-66.65" font-family="Helvetica,sans-Serif" font-size="10.00">Core.IConversationContext</text>
</a>
</g>
</g>
<!-- Node17&#45;&gt;Node4 -->
<g id="edge27_Node000004_Node000017" class="edge">
<title>Node17&#45;&gt;Node4</title>
<g id="a_edge27_Node000004_Node000017"><a xlink:title=" ">
<path fill="none" stroke="#9a32cd" stroke-dasharray="5,2" d="M1108.93,-79.32C1148.94,-81.95 1197.53,-85.71 1241,-90.65 1255.66,-92.31 1271.3,-94.45 1286.22,-96.67"/>
<polygon fill="#9a32cd" stroke="#9a32cd" points="1109.15,-75.83 1098.94,-78.68 1108.7,-82.81 1109.15,-75.83"/>
</a>
</g>
<text text-anchor="middle" x="1191" y="-93.65" font-family="Helvetica,sans-Serif" font-size="10.00" fill="grey"> _context</text>
</g>
</g>
</svg>
