<?xml version="1.0" encoding="UTF-8" standalone="no"?>
<!DOCTYPE svg PUBLIC "-//W3C//DTD SVG 1.1//EN"
 "http://www.w3.org/Graphics/SVG/1.1/DTD/svg11.dtd">
<!-- Generated by graphviz version 2.43.0 (0)
 -->
<!-- Title: WolfstagInteractive.ConvoCore.ConvoCoreCharacterPresence Pages: 1 -->
<svg width="750pt" height="278pt"
 viewBox="0.00 0.00 750.00 278.00" xmlns="http://www.w3.org/2000/svg" xmlns:xlink="http://www.w3.org/1999/xlink">
<g id="graph0" class="graph" transform="scale(1 1) rotate(0) translate(4 274)">
<title>WolfstagInteractive.ConvoCore.ConvoCoreCharacterPresence</title>
<!-- Node1 -->
<g id="Node000001" class="node">
<title>Node1</title>
<g id="a_Node000001"><a xlink:title="Abstract ScriptableObject base for all presence types.">
<polygon fill="#999999" stroke="#666666" points="320,-150 133,-150 133,-120 320,-120 320,-150"/>
<text text-anchor="start" x="141" y="-138" font-family="Helvetica,sans-Serif" font-size="10.00">WolfstagInteractive.Convo</text>
<text text-anchor="middle" x="226.5" y="-127" font-family="Helvetica,sans-Serif" font-size="10.00">Core.ConvoCoreCharacterPresence</text>
</a>
</g>
</g>
<!-- Node3 -->
<g id="Node000003" class="node">
<title>Node3</title>
<g id="a_Node000003"><a xlink:href="classWolfstagInteractive_1_1ConvoCore_1_1CameraRelativePresence.html" target="_top" xlink:title="Presence type that places characters at authored offsets relative to the active camera.">
<polygon fill="white" stroke="#666666" points="521,-270 356,-270 356,-240 521,-240 521,-270"/>
<text text-anchor="start" x="364" y="-258" font-family="Helvetica,sans-Serif" font-size="10.00">WolfstagInteractive.Convo</text>
<text text-anchor="middle" x="438.5" y="-247" font-family="Helvetica,sans-Serif" font-size="10.00">Core.CameraRelativePresence</text>
</a>
</g>
</g>
<!-- Node1&#45;&gt;Node3 -->
<g id="edge2_Node000001_Node000003" class="edge">
<title>Node1&#45;&gt;Node3</title>
<g id="a_edge2_Node000001_Node000003"><a xlink:title=" ">
<path fill="none" stroke="#63b8ff" d="M251.38,-156.99C275.96,-178.58 316.17,-211.07 356,-231 362.73,-234.37 370.01,-237.34 377.36,-239.95"/>
<polygon fill="#63b8ff" stroke="#63b8ff" points="253.47,-154.16 243.67,-150.13 248.81,-159.39 253.47,-154.16"/>
</a>
</g>
</g>
<!-- Node4 -->
<g id="Node000004" class="node">
<title>Node4</title>
<g id="a_Node000004"><a xlink:href="classWolfstagInteractive_1_1ConvoCore_1_1ExternalPresence.html" target="_top" xlink:title="Presence type for characters that are fully managed by the developer.">
<polygon fill="white" stroke="#666666" points="511.5,-222 365.5,-222 365.5,-192 511.5,-192 511.5,-222"/>
<text text-anchor="start" x="373.5" y="-210" font-family="Helvetica,sans-Serif" font-size="10.00">WolfstagInteractive.Convo</text>
<text text-anchor="middle" x="438.5" y="-199" font-family="Helvetica,sans-Serif" font-size="10.00">Core.ExternalPresence</text>
</a>
</g>
</g>
<!-- Node1&#45;&gt;Node4 -->
<g id="edge3_Node000001_Node000004" class="edge">
<title>Node1&#45;&gt;Node4</title>
<g id="a_edge3_Node000001_Node000004"><a xlink:title=" ">
<path fill="none" stroke="#63b8ff" d="M275.36,-153.8C299.41,-163.01 329.1,-174.03 356,-183 365.09,-186.03 374.83,-189.07 384.28,-191.92"/>
<polygon fill="#63b8ff" stroke="#63b8ff" points="276.35,-150.43 265.76,-150.11 273.84,-156.97 276.35,-150.43"/>
</a>
</g>
</g>
<!-- Node6 -->
<g id="Node000006" class="node">
<title>Node6</title>
<g id="a_Node000006"><a xlink:href="classWolfstagInteractive_1_1ConvoCore_1_1FollowTargetPresence.html" target="_top" xlink:title="Presence type that spawns characters and keeps them following a scene Transform during the conversati...">
<polygon fill="white" stroke="#666666" points="512.5,-174 364.5,-174 364.5,-144 512.5,-144 512.5,-174"/>
<text text-anchor="start" x="372.5" y="-162" font-family="Helvetica,sans-Serif" font-size="10.00">WolfstagInteractive.Convo</text>
<text text-anchor="middle" x="438.5" y="-151" font-family="Helvetica,sans-Serif" font-size="10.00">Core.FollowTargetPresence</text>
</a>
</g>
</g>
<!-- Node1&#45;&gt;Node6 -->
<g id="edge5_Node000001_Node000006" class="edge">
<title>Node1&#45;&gt;Node6</title>
<g id="a_edge5_Node000001_Node000006"><a xlink:title=" ">
<path fill="none" stroke="#63b8ff" d="M330.26,-146.74C341.72,-148.05 353.21,-149.37 364.19,-150.62"/>
<polygon fill="#63b8ff" stroke="#63b8ff" points="330.55,-143.25 320.22,-145.6 329.76,-150.21 330.55,-143.25"/>
</a>
</g>
</g>
<!-- Node7 -->
<g id="Node000007" class="node">
<title>Node7</title>
<g id="a_Node000007"><a xlink:href="classWolfstagInteractive_1_1ConvoCore_1_1SequencedPresence.html" target="_top" xlink:title="Presence type that wraps a list of other presence types and selects between them based on a conversat...">
<polygon fill="white" stroke="#666666" points="511.5,-126 365.5,-126 365.5,-96 511.5,-96 511.5,-126"/>
<text text-anchor="start" x="373.5" y="-114" font-family="Helvetica,sans-Serif" font-size="10.00">WolfstagInteractive.Convo</text>
<text text-anchor="middle" x="438.5" y="-103" font-family="Helvetica,sans-Serif" font-size="10.00">Core.SequencedPresence</text>
</a>
</g>
</g>
<!-- Node1&#45;&gt;Node7 -->
<g id="edge6_Node000001_Node000007" class="edge">
<title>Node1&#45;&gt;Node7</title>
<g id="a_edge6_Node000001_Node000007"><a xlink:title=" ">
<path fill="none" stroke="#63b8ff" d="M330.21,-123.26C342.12,-121.9 354.08,-120.53 365.46,-119.23"/>
<polygon fill="#63b8ff" stroke="#63b8ff" points="329.76,-119.79 320.22,-124.4 330.55,-126.75 329.76,-119.79"/>
</a>
</g>
</g>
<!-- Node8 -->
<g id="Node000008" class="node">
<title>Node8</title>
<g id="a_Node000008"><a xlink:href="classWolfstagInteractive_1_1ConvoCore_1_1TransformLerpPresence.html" target="_top" xlink:title="Presence type for scene&#45;resident characters that move to an authored offset position when a conversat...">
<polygon fill="white" stroke="#666666" points="516.5,-78 360.5,-78 360.5,-48 516.5,-48 516.5,-78"/>
<text text-anchor="start" x="368.5" y="-66" font-family="Helvetica,sans-Serif" font-size="10.00">WolfstagInteractive.Convo</text>
<text text-anchor="middle" x="438.5" y="-55" font-family="Helvetica,sans-Serif" font-size="10.00">Core.TransformLerpPresence</text>
</a>
</g>
</g>
<!-- Node1&#45;&gt;Node8 -->
<g id="edge7_Node000001_Node000008" class="edge">
<title>Node1&#45;&gt;Node8</title>
<g id="a_edge7_Node000001_Node000008"><a xlink:title=" ">
<path fill="none" stroke="#63b8ff" d="M275.36,-116.2C299.41,-106.99 329.1,-95.97 356,-87 365.09,-83.97 374.83,-80.93 384.28,-78.08"/>
<polygon fill="#63b8ff" stroke="#63b8ff" points="273.84,-113.03 265.76,-119.89 276.35,-119.57 273.84,-113.03"/>
</a>
</g>
</g>
<!-- Node9 -->
<g id="Node000009" class="node">
<title>Node9</title>
<g id="a_Node000009"><a xlink:href="classWolfstagInteractive_1_1ConvoCore_1_1WorldPointPresence.html" target="_top" xlink:title="Presence type that places characters at authored world positions.">
<polygon fill="white" stroke="#666666" points="511.5,-30 365.5,-30 365.5,0 511.5,0 511.5,-30"/>
<text text-anchor="start" x="373.5" y="-18" font-family="Helvetica,sans-Serif" font-size="10.00">WolfstagInteractive.Convo</text>
<text text-anchor="middle" x="438.5" y="-7" font-family="Helvetica,sans-Serif" font-size="10.00">Core.WorldPointPresence</text>
</a>
</g>
</g>
<!-- Node1&#45;&gt;Node9 -->
<g id="edge8_Node000001_Node000009" class="edge">
<title>Node1&#45;&gt;Node9</title>
<g id="a_edge8_Node000001_Node000009"><a xlink:title=" ">
<path fill="none" stroke="#63b8ff" d="M251.38,-113.01C275.96,-91.42 316.17,-58.93 356,-39 362.73,-35.63 370.01,-32.66 377.36,-30.05"/>
<polygon fill="#63b8ff" stroke="#63b8ff" points="248.81,-110.61 243.67,-119.87 253.47,-115.84 248.81,-110.61"/>
</a>
</g>
</g>
<!-- Node2 -->
<g id="Node000002" class="node">
<title>Node2</title>
<g id="a_Node000002"><a xlink:title=" ">
<polygon fill="white" stroke="#666666" points="97,-144.5 0,-144.5 0,-125.5 97,-125.5 97,-144.5"/>
<text text-anchor="middle" x="48.5" y="-132.5" font-family="Helvetica,sans-Serif" font-size="10.00">ScriptableObject</text>
</a>
</g>
</g>
<!-- Node2&#45;&gt;Node1 -->
<g id="edge1_Node000001_Node000002" class="edge">
<title>Node2&#45;&gt;Node1</title>
<g id="a_edge1_Node000001_Node000002"><a xlink:title=" ">
<path fill="none" stroke="#63b8ff" d="M107.27,-135C115.47,-135 124.07,-135 132.73,-135"/>
<polygon fill="#63b8ff" stroke="#63b8ff" points="107.13,-131.5 97.13,-135 107.13,-138.5 107.13,-131.5"/>
</a>
</g>
</g>
<!-- Node5 -->
<g id="Node000005" class="node">
<title>Node5</title>
<g id="a_Node000005"><a xlink:href="classWolfstagInteractive_1_1ConvoCore_1_1ConvoCoreAnimatorPresence.html" target="_top" xlink:title="Presence type for scene&#45;resident characters that are driven by an Animator.">
<polygon fill="white" stroke="#666666" points="742,-222 557,-222 557,-192 742,-192 742,-222"/>
<text text-anchor="start" x="565" y="-210" font-family="Helvetica,sans-Serif" font-size="10.00">WolfstagInteractive.Convo</text>
<text text-anchor="middle" x="649.5" y="-199" font-family="Helvetica,sans-Serif" font-size="10.00">Core.ConvoCoreAnimatorPresence</text>
</a>
</g>
</g>
<!-- Node4&#45;&gt;Node5 -->
<g id="edge4_Node000004_Node000005" class="edge">
<title>Node4&#45;&gt;Node5</title>
<g id="a_edge4_Node000004_Node000005"><a xlink:title=" ">
<path fill="none" stroke="#63b8ff" d="M522.06,-207C533.45,-207 545.2,-207 556.74,-207"/>
<polygon fill="#63b8ff" stroke="#63b8ff" points="521.72,-203.5 511.72,-207 521.72,-210.5 521.72,-203.5"/>
</a>
</g>
</g>
</g>
</svg>
