<?xml version="1.0" encoding="UTF-8" standalone="no"?>
<!DOCTYPE svg PUBLIC "-//W3C//DTD SVG 1.1//EN"
 "http://www.w3.org/Graphics/SVG/1.1/DTD/svg11.dtd">
<!-- Generated by graphviz version 2.43.0 (0)
 -->
<!-- Title: WolfstagInteractive.ConvoCore.ConvoCoreDialogueLocalizationHandler Pages: 1 -->
<svg width="267pt" height="259pt"
 viewBox="0.00 0.00 267.00 259.00" xmlns="http://www.w3.org/2000/svg" xmlns:xlink="http://www.w3.org/1999/xlink">
<g id="graph0" class="graph" transform="scale(1 1) rotate(0) translate(4 255)">
<title>WolfstagInteractive.ConvoCore.ConvoCoreDialogueLocalizationHandler</title>
<!-- Node1 -->
<g id="Node000001" class="node">
<title>Node1</title>
<g id="a_Node000001"><a xlink:title=" ">
<polygon fill="#999999" stroke="#666666" points="197,-41 0,-41 0,0 197,0 197,-41"/>
<text text-anchor="start" x="8" y="-29" font-family="Helvetica,sans-Serif" font-size="10.00">WolfstagInteractive.Convo</text>
<text text-anchor="start" x="8" y="-18" font-family="Helvetica,sans-Serif" font-size="10.00">Core.ConvoCoreDialogueLocalization</text>
<text text-anchor="middle" x="98.5" y="-7" font-family="Helvetica,sans-Serif" font-size="10.00">Handler</text>
</a>
</g>
</g>
<!-- Node2 -->
<g id="Node000002" class="node">
<title>Node2</title>
<g id="a_Node000002"><a xlink:href="classWolfstagInteractive_1_1ConvoCore_1_1ConvoCoreLanguageManager.html" target="_top" xlink:title=" ">
<polygon fill="white" stroke="#666666" points="191,-118 6,-118 6,-88 191,-88 191,-118"/>
<text text-anchor="start" x="14" y="-106" font-family="Helvetica,sans-Serif" font-size="10.00">WolfstagInteractive.Convo</text>
<text text-anchor="middle" x="98.5" y="-95" font-family="Helvetica,sans-Serif" font-size="10.00">Core.ConvoCoreLanguageManager</text>
</a>
</g>
</g>
<!-- Node2&#45;&gt;Node1 -->
<g id="edge1_Node000001_Node000002" class="edge">
<title>Node2&#45;&gt;Node1</title>
<g id="a_edge1_Node000001_Node000002"><a xlink:title=" ">
<path fill="none" stroke="#9a32cd" stroke-dasharray="5,2" d="M98.5,-77.94C98.5,-66.17 98.5,-52.19 98.5,-41.09"/>
<polygon fill="#9a32cd" stroke="#9a32cd" points="95,-77.98 98.5,-87.98 102,-77.98 95,-77.98"/>
</a>
</g>
<text text-anchor="middle" x="174" y="-62" font-family="Helvetica,sans-Serif" font-size="10.00" fill="grey"> _convoCoreLanguageManager</text>
</g>
<!-- Node2&#45;&gt;Node2 -->
<g id="edge2_Node000002_Node000002" class="edge">
<title>Node2&#45;&gt;Node2</title>
<g id="a_edge2_Node000002_Node000002"><a xlink:title=" ">
<path fill="none" stroke="#9a32cd" stroke-dasharray="5,2" d="M201.22,-107.52C206.12,-106.38 209,-104.88 209,-103 209,-100.07 201.98,-98.04 191.2,-96.92"/>
<polygon fill="#9a32cd" stroke="#9a32cd" points="200.54,-104.08 191.2,-109.08 201.62,-111 200.54,-104.08"/>
</a>
</g>
<text text-anchor="middle" x="234" y="-100.5" font-family="Helvetica,sans-Serif" font-size="10.00" fill="grey"> _instance</text>
</g>
<!-- Node3 -->
<g id="Node000003" class="node">
<title>Node3</title>
<g id="a_Node000003"><a xlink:href="classWolfstagInteractive_1_1ConvoCore_1_1ConvoCoreSettings.html" target="_top" xlink:title=" ">
<polygon fill="white" stroke="#666666" points="171.5,-195 25.5,-195 25.5,-165 171.5,-165 171.5,-195"/>
<text text-anchor="start" x="33.5" y="-183" font-family="Helvetica,sans-Serif" font-size="10.00">WolfstagInteractive.Convo</text>
<text text-anchor="middle" x="98.5" y="-172" font-family="Helvetica,sans-Serif" font-size="10.00">Core.ConvoCoreSettings</text>
</a>
</g>
</g>
<!-- Node3&#45;&gt;Node2 -->
<g id="edge3_Node000002_Node000003" class="edge">
<title>Node3&#45;&gt;Node2</title>
<g id="a_edge3_Node000002_Node000003"><a xlink:title=" ">
<path fill="none" stroke="#9a32cd" stroke-dasharray="5,2" d="M98.5,-154.54C98.5,-142.45 98.5,-128.29 98.5,-118.04"/>
<polygon fill="#9a32cd" stroke="#9a32cd" points="95,-154.89 98.5,-164.89 102,-154.89 95,-154.89"/>
</a>
</g>
<text text-anchor="middle" x="148.5" y="-139" font-family="Helvetica,sans-Serif" font-size="10.00" fill="grey"> _convoCoreSettings</text>
</g>
<!-- Node3&#45;&gt;Node3 -->
<g id="edge5_Node000003_Node000003" class="edge">
<title>Node3&#45;&gt;Node3</title>
<g id="a_edge5_Node000003_Node000003"><a xlink:title=" ">
<path fill="none" stroke="#9a32cd" stroke-dasharray="5,2" d="M181.65,-184.12C186.56,-183.14 189.5,-181.76 189.5,-180 189.5,-177.25 182.33,-175.45 171.69,-174.59"/>
<polygon fill="#9a32cd" stroke="#9a32cd" points="181.16,-180.66 171.69,-185.41 182.06,-187.6 181.16,-180.66"/>
</a>
</g>
<text text-anchor="middle" x="214.5" y="-177.5" font-family="Helvetica,sans-Serif" font-size="10.00" fill="grey"> _instance</text>
</g>
<!-- Node4 -->
<g id="Node000004" class="node">
<title>Node4</title>
<g id="a_Node000004"><a xlink:title=" ">
<polygon fill="white" stroke="#666666" points="147,-251 50,-251 50,-232 147,-232 147,-251"/>
<text text-anchor="middle" x="98.5" y="-239" font-family="Helvetica,sans-Serif" font-size="10.00">ScriptableObject</text>
</a>
</g>
</g>
<!-- Node4&#45;&gt;Node3 -->
<g id="edge4_Node000003_Node000004" class="edge">
<title>Node4&#45;&gt;Node3</title>
<g id="a_edge4_Node000003_Node000004"><a xlink:title=" ">
<path fill="none" stroke="#63b8ff" d="M98.5,-221.73C98.5,-213.09 98.5,-203 98.5,-195.02"/>
<polygon fill="#63b8ff" stroke="#63b8ff" points="95,-221.98 98.5,-231.98 102,-221.98 95,-221.98"/>
</a>
</g>
</g>
</g>
</svg>
