<?xml version="1.0" encoding="UTF-8" standalone="no"?>
<!DOCTYPE svg PUBLIC "-//W3C//DTD SVG 1.1//EN"
 "http://www.w3.org/Graphics/SVG/1.1/DTD/svg11.dtd">
<!-- Generated by graphviz version 2.43.0 (0)
 -->
<!-- Title: WolfstagInteractive.ConvoCore.PlainTextHistoryRenderer Pages: 1 -->
<svg width="336pt" height="115pt"
 viewBox="0.00 0.00 335.50 115.00" xmlns="http://www.w3.org/2000/svg" xmlns:xlink="http://www.w3.org/1999/xlink">
<g id="graph0" class="graph" transform="scale(1 1) rotate(0) translate(4 111)">
<title>WolfstagInteractive.ConvoCore.PlainTextHistoryRenderer</title>
<!-- Node1 -->
<g id="Node000001" class="node">
<title>Node1</title>
<g id="a_Node000001"><a xlink:title="Simple dialogue history renderer that appends plain text lines to a TMP_Text component with no markup...">
<polygon fill="#999999" stroke="#666666" points="245,-30 79,-30 79,0 245,0 245,-30"/>
<text text-anchor="start" x="87" y="-18" font-family="Helvetica,sans-Serif" font-size="10.00">WolfstagInteractive.Convo</text>
<text text-anchor="middle" x="162" y="-7" font-family="Helvetica,sans-Serif" font-size="10.00">Core.PlainTextHistoryRenderer</text>
</a>
</g>
</g>
<!-- Node2 -->
<g id="Node000002" class="node">
<title>Node2</title>
<g id="a_Node000002"><a xlink:href="interfaceWolfstagInteractive_1_1ConvoCore_1_1IConvoCoreHistoryRenderer.html" target="_top" xlink:title="Base contract for any dialogue history renderer.">
<polygon fill="white" stroke="#666666" points="152,-101.5 0,-101.5 0,-82.5 152,-82.5 152,-101.5"/>
<text text-anchor="middle" x="76" y="-89.5" font-family="Helvetica,sans-Serif" font-size="10.00">IConvoCoreHistoryRenderer</text>
</a>
</g>
</g>
<!-- Node2&#45;&gt;Node1 -->
<g id="edge1_Node000001_Node000002" class="edge">
<title>Node2&#45;&gt;Node1</title>
<g id="a_edge1_Node000001_Node000002"><a xlink:title=" ">
<path fill="none" stroke="#63b8ff" d="M93.6,-75.65C108.91,-62.3 130.93,-43.09 145.82,-30.11"/>
<polygon fill="#63b8ff" stroke="#63b8ff" points="91.1,-73.19 85.87,-82.4 95.7,-78.46 91.1,-73.19"/>
</a>
</g>
</g>
<!-- Node3 -->
<g id="Node000003" class="node">
<title>Node3</title>
<g id="a_Node000003"><a xlink:href="interfaceWolfstagInteractive_1_1ConvoCore_1_1IDialogueHistoryOutput.html" target="_top" xlink:title=" ">
<polygon fill="white" stroke="#666666" points="327.5,-107 170.5,-107 170.5,-77 327.5,-77 327.5,-107"/>
<text text-anchor="start" x="178.5" y="-95" font-family="Helvetica,sans-Serif" font-size="10.00">WolfstagInteractive.Convo</text>
<text text-anchor="middle" x="249" y="-84" font-family="Helvetica,sans-Serif" font-size="10.00">Core.IDialogueHistoryOutput</text>
</a>
</g>
</g>
<!-- Node3&#45;&gt;Node1 -->
<g id="edge2_Node000001_Node000003" class="edge">
<title>Node3&#45;&gt;Node1</title>
<g id="a_edge2_Node000001_Node000003"><a xlink:title=" ">
<path fill="none" stroke="#9a32cd" stroke-dasharray="5,2" d="M224.84,-70.17C210,-57.38 191.39,-41.34 178.29,-30.04"/>
<polygon fill="#9a32cd" stroke="#9a32cd" points="222.78,-73.01 232.64,-76.89 227.35,-67.71 222.78,-73.01"/>
</a>
</g>
<text text-anchor="middle" x="231" y="-51" font-family="Helvetica,sans-Serif" font-size="10.00" fill="grey"> _output</text>
</g>
</g>
</svg>
