<?xml version="1.0" encoding="UTF-8" standalone="no"?>
<!DOCTYPE svg PUBLIC "-//W3C//DTD SVG 1.1//EN"
 "http://www.w3.org/Graphics/SVG/1.1/DTD/svg11.dtd">
<!-- Generated by graphviz version 2.43.0 (0)
 -->
<!-- Title: WolfstagInteractive.ConvoCore.ConversationContainer.Entry Pages: 1 -->
<svg width="420pt" height="171pt"
 viewBox="0.00 0.00 420.00 171.00" xmlns="http://www.w3.org/2000/svg" xmlns:xlink="http://www.w3.org/1999/xlink">
<g id="graph0" class="graph" transform="scale(1 1) rotate(0) translate(4 167)">
<title>WolfstagInteractive.ConvoCore.ConversationContainer.Entry</title>
<!-- Node1 -->
<g id="Node000001" class="node">
<title>Node1</title>
<g id="a_Node000001"><a xlink:title=" ">
<polygon fill="#999999" stroke="#666666" points="182,-30 0,-30 0,0 182,0 182,-30"/>
<text text-anchor="start" x="8" y="-18" font-family="Helvetica,sans-Serif" font-size="10.00">WolfstagInteractive.Convo</text>
<text text-anchor="middle" x="91" y="-7" font-family="Helvetica,sans-Serif" font-size="10.00">Core.ConversationContainer.Entry</text>
</a>
</g>
</g>
<!-- Node2 -->
<g id="Node000002" class="node">
<title>Node2</title>
<g id="a_Node000002"><a xlink:href="classWolfstagInteractive_1_1ConvoCore_1_1ConvoCoreConversationData.html" target="_top" xlink:title=" ">
<polygon fill="white" stroke="#666666" points="343.5,-107 160.5,-107 160.5,-77 343.5,-77 343.5,-107"/>
<text text-anchor="start" x="168.5" y="-95" font-family="Helvetica,sans-Serif" font-size="10.00">WolfstagInteractive.Convo</text>
<text text-anchor="middle" x="252" y="-84" font-family="Helvetica,sans-Serif" font-size="10.00">Core.ConvoCoreConversationData</text>
</a>
</g>
</g>
<!-- Node2&#45;&gt;Node1 -->
<g id="edge1_Node000001_Node000002" class="edge">
<title>Node2&#45;&gt;Node1</title>
<g id="a_edge1_Node000001_Node000002"><a xlink:title=" ">
<path fill="none" stroke="#9a32cd" stroke-dasharray="5,2" d="M150.31,-77.12C129.2,-72.45 110.94,-66.47 103,-59 95.21,-51.67 92.33,-39.75 91.33,-30.31"/>
<polygon fill="#9a32cd" stroke="#9a32cd" points="149.68,-80.56 160.19,-79.17 151.11,-73.71 149.68,-80.56"/>
</a>
</g>
<text text-anchor="middle" x="148.5" y="-51" font-family="Helvetica,sans-Serif" font-size="10.00" fill="grey"> ConversationData</text>
</g>
<!-- Node4 -->
<g id="Node000004" class="node">
<title>Node4</title>
<g id="a_Node000004"><a xlink:href="classWolfstagInteractive_1_1ConvoCore_1_1ConvoCoreAudioManifest.html" target="_top" xlink:title="Maps dialogue line IDs to audio clips or middleware references, supporting Unity AudioSource,...">
<polygon fill="white" stroke="#666666" points="412,-30 246,-30 246,0 412,0 412,-30"/>
<text text-anchor="start" x="254" y="-18" font-family="Helvetica,sans-Serif" font-size="10.00">WolfstagInteractive.Convo</text>
<text text-anchor="middle" x="329" y="-7" font-family="Helvetica,sans-Serif" font-size="10.00">Core.ConvoCoreAudioManifest</text>
</a>
</g>
</g>
<!-- Node2&#45;&gt;Node4 -->
<g id="edge5_Node000004_Node000002" class="edge">
<title>Node2&#45;&gt;Node4</title>
<g id="a_edge5_Node000004_Node000002"><a xlink:title=" ">
<path fill="none" stroke="#9a32cd" stroke-dasharray="5,2" d="M209.21,-71.24C200.33,-64.47 195.41,-56.45 202,-48 208.29,-39.93 225.85,-33.58 245.99,-28.74"/>
<polygon fill="#9a32cd" stroke="#9a32cd" points="207.55,-74.34 217.85,-76.85 211.37,-68.47 207.55,-74.34"/>
</a>
</g>
<text text-anchor="middle" x="252.5" y="-51" font-family="Helvetica,sans-Serif" font-size="10.00" fill="grey"> SourceConversation</text>
</g>
<!-- Node3 -->
<g id="Node000003" class="node">
<title>Node3</title>
<g id="a_Node000003"><a xlink:title=" ">
<polygon fill="white" stroke="#666666" points="406.5,-163 309.5,-163 309.5,-144 406.5,-144 406.5,-163"/>
<text text-anchor="middle" x="358" y="-151" font-family="Helvetica,sans-Serif" font-size="10.00">ScriptableObject</text>
</a>
</g>
</g>
<!-- Node3&#45;&gt;Node2 -->
<g id="edge2_Node000002_Node000003" class="edge">
<title>Node3&#45;&gt;Node2</title>
<g id="a_edge2_Node000002_Node000003"><a xlink:title=" ">
<path fill="none" stroke="#63b8ff" d="M334.02,-139.04C317.01,-129.49 294.22,-116.7 276.98,-107.02"/>
<polygon fill="#63b8ff" stroke="#63b8ff" points="332.38,-142.13 342.81,-143.98 335.81,-136.03 332.38,-142.13"/>
</a>
</g>
</g>
<!-- Node3&#45;&gt;Node4 -->
<g id="edge4_Node000004_Node000003" class="edge">
<title>Node3&#45;&gt;Node4</title>
<g id="a_edge4_Node000004_Node000003"><a xlink:title=" ">
<path fill="none" stroke="#63b8ff" d="M371.78,-135.63C387.6,-114.07 409.29,-76.17 392,-48 387.38,-40.47 380.38,-34.65 372.69,-30.16"/>
<polygon fill="#63b8ff" stroke="#63b8ff" points="368.82,-133.74 365.49,-143.8 374.36,-138.01 368.82,-133.74"/>
</a>
</g>
</g>
<!-- Node4&#45;&gt;Node2 -->
<g id="edge3_Node000002_Node000004" class="edge">
<title>Node4&#45;&gt;Node2</title>
<g id="a_edge3_Node000002_Node000004"><a xlink:title=" ">
<path fill="none" stroke="#9a32cd" stroke-dasharray="5,2" d="M319.95,-39.58C316.58,-46.37 312.27,-53.44 307,-59 300.31,-66.06 291.73,-72.04 283.33,-76.86"/>
<polygon fill="#9a32cd" stroke="#9a32cd" points="323.33,-40.59 324.2,-30.03 316.93,-37.74 323.33,-40.59"/>
</a>
</g>
<text text-anchor="middle" x="351" y="-51" font-family="Helvetica,sans-Serif" font-size="10.00" fill="grey"> AudioManifest</text>
</g>
</g>
</svg>
