<?xml version="1.0" encoding="UTF-8" standalone="no"?>
<!DOCTYPE svg PUBLIC "-//W3C//DTD SVG 1.1//EN"
 "http://www.w3.org/Graphics/SVG/1.1/DTD/svg11.dtd">
<!-- Generated by graphviz version 2.43.0 (0)
 -->
<!-- Title: WolfstagInteractive.ConvoCore.SaveSystem.ConvoCoreConversationSaveManager Pages: 1 -->
<svg width="272pt" height="104pt"
 viewBox="0.00 0.00 271.50 104.00" xmlns="http://www.w3.org/2000/svg" xmlns:xlink="http://www.w3.org/1999/xlink">
<g id="graph0" class="graph" transform="scale(1 1) rotate(0) translate(4 100)">
<title>WolfstagInteractive.ConvoCore.SaveSystem.ConvoCoreConversationSaveManager</title>
<!-- Node1 -->
<g id="Node000001" class="node">
<title>Node1</title>
<g id="a_Node000001"><a xlink:title="Attach alongside a ConvoCore component to persist and restore conversation state (active line,...">
<polygon fill="#999999" stroke="#666666" points="228.5,-41 4.5,-41 4.5,0 228.5,0 228.5,-41"/>
<text text-anchor="start" x="12.5" y="-29" font-family="Helvetica,sans-Serif" font-size="10.00">WolfstagInteractive.Convo</text>
<text text-anchor="start" x="12.5" y="-18" font-family="Helvetica,sans-Serif" font-size="10.00">Core.SaveSystem.ConvoCoreConversation</text>
<text text-anchor="middle" x="116.5" y="-7" font-family="Helvetica,sans-Serif" font-size="10.00">SaveManager</text>
</a>
</g>
</g>
<!-- Node2 -->
<g id="Node000002" class="node">
<title>Node2</title>
<g id="a_Node000002"><a xlink:title=" ">
<polygon fill="white" stroke="#666666" points="93,-96 0,-96 0,-77 93,-77 93,-96"/>
<text text-anchor="middle" x="46.5" y="-84" font-family="Helvetica,sans-Serif" font-size="10.00">MonoBehaviour</text>
</a>
</g>
</g>
<!-- Node2&#45;&gt;Node1 -->
<g id="edge1_Node000001_Node000002" class="edge">
<title>Node2&#45;&gt;Node1</title>
<g id="a_edge1_Node000001_Node000002"><a xlink:title=" ">
<path fill="none" stroke="#63b8ff" d="M63.57,-69.89C73.09,-61.19 85.03,-50.27 95.16,-41.01"/>
<polygon fill="#63b8ff" stroke="#63b8ff" points="60.96,-67.54 55.94,-76.87 65.68,-72.7 60.96,-67.54"/>
</a>
</g>
</g>
<!-- Node3 -->
<g id="Node000003" class="node">
<title>Node3</title>
<g id="a_Node000003"><a xlink:href="interfaceWolfstagInteractive_1_1ConvoCore_1_1IConvoStartContextProvider.html" target="_top" xlink:title="Implement on a component alongside ConvoCore to control how a conversation is started.">
<polygon fill="white" stroke="#666666" points="263.5,-96 111.5,-96 111.5,-77 263.5,-77 263.5,-96"/>
<text text-anchor="middle" x="187.5" y="-84" font-family="Helvetica,sans-Serif" font-size="10.00">IConvoStartContextProvider</text>
</a>
</g>
</g>
<!-- Node3&#45;&gt;Node1 -->
<g id="edge2_Node000001_Node000003" class="edge">
<title>Node3&#45;&gt;Node1</title>
<g id="a_edge2_Node000001_Node000003"><a xlink:title=" ">
<path fill="none" stroke="#63b8ff" d="M170.47,-70.15C160.77,-61.41 148.52,-50.36 138.14,-41.01"/>
<polygon fill="#63b8ff" stroke="#63b8ff" points="168.15,-72.77 177.92,-76.87 172.84,-67.57 168.15,-72.77"/>
</a>
</g>
</g>
</g>
</svg>
