<?xml version="1.0" encoding="UTF-8" standalone="no"?>
<!DOCTYPE svg PUBLIC "-//W3C//DTD SVG 1.1//EN"
 "http://www.w3.org/Graphics/SVG/1.1/DTD/svg11.dtd">
<!-- Generated by graphviz version 2.43.0 (0)
 -->
<!-- Title: WolfstagInteractive.ConvoCore.ConvoCoreAudioManifest Pages: 1 -->
<svg width="438pt" height="171pt"
 viewBox="0.00 0.00 438.00 171.00" xmlns="http://www.w3.org/2000/svg" xmlns:xlink="http://www.w3.org/1999/xlink">
<g id="graph0" class="graph" transform="scale(1 1) rotate(0) translate(4 167)">
<title>WolfstagInteractive.ConvoCore.ConvoCoreAudioManifest</title>
<!-- Node1 -->
<g id="Node000001" class="node">
<title>Node1</title>
<g id="a_Node000001"><a xlink:title="Maps dialogue line IDs to audio clips or middleware references, supporting Unity AudioSource,...">
<polygon fill="#999999" stroke="#666666" points="166,-30 0,-30 0,0 166,0 166,-30"/>
<text text-anchor="start" x="8" y="-18" font-family="Helvetica,sans-Serif" font-size="10.00">WolfstagInteractive.Convo</text>
<text text-anchor="middle" x="83" y="-7" font-family="Helvetica,sans-Serif" font-size="10.00">Core.ConvoCoreAudioManifest</text>
</a>
</g>
</g>
<!-- Node2 -->
<g id="Node000002" class="node">
<title>Node2</title>
<g id="a_Node000002"><a xlink:title=" ">
<polygon fill="white" stroke="#666666" points="271.5,-163 174.5,-163 174.5,-144 271.5,-144 271.5,-163"/>
<text text-anchor="middle" x="223" y="-151" font-family="Helvetica,sans-Serif" font-size="10.00">ScriptableObject</text>
</a>
</g>
</g>
<!-- Node2&#45;&gt;Node1 -->
<g id="edge1_Node000001_Node000002" class="edge">
<title>Node2&#45;&gt;Node1</title>
<g id="a_edge1_Node000001_Node000002"><a xlink:title=" ">
<path fill="none" stroke="#63b8ff" d="M181.11,-140.57C161.4,-133.33 138.63,-122.46 122,-107 99.46,-86.05 89.38,-49.91 85.35,-30.06"/>
<polygon fill="#63b8ff" stroke="#63b8ff" points="180.2,-143.96 190.8,-143.93 182.5,-137.34 180.2,-143.96"/>
</a>
</g>
</g>
<!-- Node3 -->
<g id="Node000003" class="node">
<title>Node3</title>
<g id="a_Node000003"><a xlink:href="classWolfstagInteractive_1_1ConvoCore_1_1ConvoCoreConversationData.html" target="_top" xlink:title=" ">
<polygon fill="white" stroke="#666666" points="314.5,-107 131.5,-107 131.5,-77 314.5,-77 314.5,-107"/>
<text text-anchor="start" x="139.5" y="-95" font-family="Helvetica,sans-Serif" font-size="10.00">WolfstagInteractive.Convo</text>
<text text-anchor="middle" x="223" y="-84" font-family="Helvetica,sans-Serif" font-size="10.00">Core.ConvoCoreConversationData</text>
</a>
</g>
</g>
<!-- Node2&#45;&gt;Node3 -->
<g id="edge3_Node000003_Node000002" class="edge">
<title>Node2&#45;&gt;Node3</title>
<g id="a_edge3_Node000003_Node000002"><a xlink:title=" ">
<path fill="none" stroke="#63b8ff" d="M223,-133.73C223,-125.09 223,-115 223,-107.02"/>
<polygon fill="#63b8ff" stroke="#63b8ff" points="219.5,-133.98 223,-143.98 226.5,-133.98 219.5,-133.98"/>
</a>
</g>
</g>
<!-- Node4 -->
<g id="Node000004" class="node">
<title>Node4</title>
<g id="a_Node000004"><a xlink:href="classWolfstagInteractive_1_1ConvoCore_1_1ConvoCoreAudioManifest.html" target="_top" xlink:title="Maps dialogue line IDs to audio clips or middleware references, supporting Unity AudioSource,...">
<polygon fill="white" stroke="#666666" points="430,-30 264,-30 264,0 430,0 430,-30"/>
<text text-anchor="start" x="272" y="-18" font-family="Helvetica,sans-Serif" font-size="10.00">WolfstagInteractive.Convo</text>
<text text-anchor="middle" x="347" y="-7" font-family="Helvetica,sans-Serif" font-size="10.00">Core.ConvoCoreAudioManifest</text>
</a>
</g>
</g>
<!-- Node2&#45;&gt;Node4 -->
<g id="edge5_Node000004_Node000002" class="edge">
<title>Node2&#45;&gt;Node4</title>
<g id="a_edge5_Node000004_Node000002"><a xlink:title=" ">
<path fill="none" stroke="#63b8ff" d="M280.93,-141.45C325.64,-129.5 384.38,-105.53 412,-59 419.39,-46.55 409.25,-37 394.94,-30.09"/>
<polygon fill="#63b8ff" stroke="#63b8ff" points="279.87,-138.11 271.04,-143.96 281.6,-144.89 279.87,-138.11"/>
</a>
</g>
</g>
<!-- Node3&#45;&gt;Node1 -->
<g id="edge2_Node000001_Node000003" class="edge">
<title>Node3&#45;&gt;Node1</title>
<g id="a_edge2_Node000001_Node000003"><a xlink:title=" ">
<path fill="none" stroke="#9a32cd" stroke-dasharray="5,2" d="M135.22,-73.27C126.24,-69.41 117.63,-64.72 110,-59 100.26,-51.71 93.18,-39.78 88.72,-30.34"/>
<polygon fill="#9a32cd" stroke="#9a32cd" points="134.1,-76.59 144.69,-76.99 136.67,-70.08 134.1,-76.59"/>
</a>
</g>
<text text-anchor="middle" x="160.5" y="-51" font-family="Helvetica,sans-Serif" font-size="10.00" fill="grey"> SourceConversation</text>
</g>
<!-- Node3&#45;&gt;Node4 -->
<g id="edge6_Node000004_Node000003" class="edge">
<title>Node3&#45;&gt;Node4</title>
<g id="a_edge6_Node000004_Node000003"><a xlink:title=" ">
<path fill="none" stroke="#9a32cd" stroke-dasharray="5,2" d="M215.61,-66.74C215.02,-60.09 215.89,-53.27 220,-48 226.29,-39.93 243.85,-33.58 263.99,-28.74"/>
<polygon fill="#9a32cd" stroke="#9a32cd" points="212.22,-67.63 217.52,-76.8 219.1,-66.33 212.22,-67.63"/>
</a>
</g>
<text text-anchor="middle" x="270.5" y="-51" font-family="Helvetica,sans-Serif" font-size="10.00" fill="grey"> SourceConversation</text>
</g>
<!-- Node4&#45;&gt;Node3 -->
<g id="edge4_Node000003_Node000004" class="edge">
<title>Node4&#45;&gt;Node3</title>
<g id="a_edge4_Node000003_Node000004"><a xlink:title=" ">
<path fill="none" stroke="#9a32cd" stroke-dasharray="5,2" d="M339.05,-39.56C335.68,-46.64 331.08,-53.87 325,-59 315.92,-66.66 305.01,-72.49 293.74,-76.93"/>
<polygon fill="#9a32cd" stroke="#9a32cd" points="342.32,-40.81 342.92,-30.23 335.86,-38.12 342.32,-40.81"/>
</a>
</g>
<text text-anchor="middle" x="371" y="-51" font-family="Helvetica,sans-Serif" font-size="10.00" fill="grey"> AudioManifest</text>
</g>
</g>
</svg>
