<?xml version="1.0" encoding="UTF-8" standalone="no"?>
<!DOCTYPE svg PUBLIC "-//W3C//DTD SVG 1.1//EN"
 "http://www.w3.org/Graphics/SVG/1.1/DTD/svg11.dtd">
<!-- Generated by graphviz version 2.43.0 (0)
 -->
<!-- Title: WolfstagInteractive.ConvoCore.SimplePrefabRepresentationDisplay Pages: 1 -->
<svg width="1023pt" height="158pt"
 viewBox="0.00 0.00 1023.00 157.50" xmlns="http://www.w3.org/2000/svg" xmlns:xlink="http://www.w3.org/1999/xlink">
<g id="graph0" class="graph" transform="scale(1 1) rotate(0) translate(4 153.5)">
<title>WolfstagInteractive.ConvoCore.SimplePrefabRepresentationDisplay</title>
<!-- Node1 -->
<g id="Node000001" class="node">
<title>Node1</title>
<g id="a_Node000001"><a xlink:title=" ">
<polygon fill="#999999" stroke="#666666" points="1015,-86.5 833,-86.5 833,-45.5 1015,-45.5 1015,-86.5"/>
<text text-anchor="start" x="841" y="-74.5" font-family="Helvetica,sans-Serif" font-size="10.00">WolfstagInteractive.Convo</text>
<text text-anchor="start" x="841" y="-63.5" font-family="Helvetica,sans-Serif" font-size="10.00">Core.SimplePrefabRepresentation</text>
<text text-anchor="middle" x="924" y="-52.5" font-family="Helvetica,sans-Serif" font-size="10.00">Display</text>
</a>
</g>
</g>
<!-- Node2 -->
<g id="Node000002" class="node">
<title>Node2</title>
<g id="a_Node000002"><a xlink:href="classWolfstagInteractive_1_1ConvoCore_1_1ConvoCoreCharacterDisplayBase.html" target="_top" xlink:title="Generic base class for all prefab&#45;based character displays.">
<polygon fill="white" stroke="#666666" points="718,-114.5 540,-114.5 540,-95.5 718,-95.5 718,-114.5"/>
<text text-anchor="middle" x="629" y="-102.5" font-family="Helvetica,sans-Serif" font-size="10.00">ConvoCoreCharacterDisplayBase</text>
</a>
</g>
</g>
<!-- Node2&#45;&gt;Node1 -->
<g id="edge1_Node000001_Node000002" class="edge">
<title>Node2&#45;&gt;Node1</title>
<g id="a_edge1_Node000001_Node000002"><a xlink:title=" ">
<path fill="none" stroke="#63b8ff" d="M711.6,-94.14C749.31,-89.12 794.2,-83.14 832.9,-77.99"/>
<polygon fill="#63b8ff" stroke="#63b8ff" points="711.13,-90.67 701.68,-95.46 712.05,-97.61 711.13,-90.67"/>
</a>
</g>
</g>
<!-- Node3 -->
<g id="Node000003" class="node">
<title>Node3</title>
<g id="a_Node000003"><a xlink:title=" ">
<polygon fill="white" stroke="#666666" points="261.5,-149.5 168.5,-149.5 168.5,-130.5 261.5,-130.5 261.5,-149.5"/>
<text text-anchor="middle" x="215" y="-137.5" font-family="Helvetica,sans-Serif" font-size="10.00">MonoBehaviour</text>
</a>
</g>
</g>
<!-- Node3&#45;&gt;Node2 -->
<g id="edge2_Node000002_Node000003" class="edge">
<title>Node3&#45;&gt;Node2</title>
<g id="a_edge2_Node000002_Node000003"><a xlink:title=" ">
<path fill="none" stroke="#63b8ff" d="M271.58,-135.77C329.22,-131.33 421.95,-124.03 502,-117 514.26,-115.92 527.18,-114.74 539.9,-113.56"/>
<polygon fill="#63b8ff" stroke="#63b8ff" points="271.29,-132.29 261.59,-136.54 271.83,-139.26 271.29,-132.29"/>
</a>
</g>
</g>
<!-- Node4 -->
<g id="Node000004" class="node">
<title>Node4</title>
<g id="a_Node000004"><a xlink:href="interfaceWolfstagInteractive_1_1ConvoCore_1_1IConvoCoreCharacterDisplay.html" target="_top" xlink:title=" ">
<polygon fill="white" stroke="#666666" points="293.5,-112.5 136.5,-112.5 136.5,-93.5 293.5,-93.5 293.5,-112.5"/>
<text text-anchor="middle" x="215" y="-100.5" font-family="Helvetica,sans-Serif" font-size="10.00">IConvoCoreCharacterDisplay</text>
</a>
</g>
</g>
<!-- Node4&#45;&gt;Node2 -->
<g id="edge3_Node000002_Node000004" class="edge">
<title>Node4&#45;&gt;Node2</title>
<g id="a_edge3_Node000002_Node000004"><a xlink:title=" ">
<path fill="none" stroke="#63b8ff" d="M304.05,-103.43C373.66,-103.77 470.38,-104.23 539.98,-104.57"/>
<polygon fill="#63b8ff" stroke="#63b8ff" points="304,-99.93 293.98,-103.38 303.96,-106.93 304,-99.93"/>
</a>
</g>
</g>
<!-- Node5 -->
<g id="Node000005" class="node">
<title>Node5</title>
<g id="a_Node000005"><a xlink:href="classWolfstagInteractive_1_1ConvoCore_1_1CharacterRepresentationBase.html" target="_top" xlink:title="Abstract ScriptableObject base class for all character visual representations.">
<polygon fill="white" stroke="#666666" points="502,-80 314,-80 314,-50 502,-50 502,-80"/>
<text text-anchor="start" x="322" y="-68" font-family="Helvetica,sans-Serif" font-size="10.00">WolfstagInteractive.Convo</text>
<text text-anchor="middle" x="408" y="-57" font-family="Helvetica,sans-Serif" font-size="10.00">Core.CharacterRepresentationBase</text>
</a>
</g>
</g>
<!-- Node5&#45;&gt;Node1 -->
<g id="edge4_Node000001_Node000005" class="edge">
<title>Node5&#45;&gt;Node1</title>
<g id="a_edge4_Node000001_Node000005"><a xlink:title=" ">
<path fill="none" stroke="#9a32cd" stroke-dasharray="5,2" d="M512.16,-65.2C606.02,-65.38 743.18,-65.65 832.77,-65.82"/>
<polygon fill="#9a32cd" stroke="#9a32cd" points="512.09,-61.7 502.08,-65.18 512.07,-68.7 512.09,-61.7"/>
</a>
</g>
<text text-anchor="middle" x="629" y="-68" font-family="Helvetica,sans-Serif" font-size="10.00" fill="grey"> _representation</text>
</g>
<!-- Node6 -->
<g id="Node000006" class="node">
<title>Node6</title>
<g id="a_Node000006"><a xlink:title=" ">
<polygon fill="white" stroke="#666666" points="97,-54.5 0,-54.5 0,-35.5 97,-35.5 97,-54.5"/>
<text text-anchor="middle" x="48.5" y="-42.5" font-family="Helvetica,sans-Serif" font-size="10.00">ScriptableObject</text>
</a>
</g>
</g>
<!-- Node6&#45;&gt;Node5 -->
<g id="edge5_Node000005_Node000006" class="edge">
<title>Node6&#45;&gt;Node5</title>
<g id="a_edge5_Node000005_Node000006"><a xlink:title=" ">
<path fill="none" stroke="#63b8ff" d="M107.25,-49.49C109.87,-49.67 112.46,-49.84 115,-50 181.49,-54.24 256.55,-58.08 313.93,-60.81"/>
<polygon fill="#63b8ff" stroke="#63b8ff" points="107.29,-45.98 97.07,-48.77 106.8,-52.96 107.29,-45.98"/>
</a>
</g>
</g>
<!-- Node8 -->
<g id="Node000008" class="node">
<title>Node8</title>
<g id="a_Node000008"><a xlink:href="classWolfstagInteractive_1_1ConvoCore_1_1CharacterRepresentationBase.html" target="_top" xlink:title="Abstract ScriptableObject base class for all character visual representations.">
<polygon fill="white" stroke="#666666" points="296,-33.5 134,-33.5 134,-14.5 296,-14.5 296,-33.5"/>
<text text-anchor="middle" x="215" y="-21.5" font-family="Helvetica,sans-Serif" font-size="10.00">CharacterRepresentationBase</text>
</a>
</g>
</g>
<!-- Node6&#45;&gt;Node8 -->
<g id="edge8_Node000008_Node000006" class="edge">
<title>Node6&#45;&gt;Node8</title>
<g id="a_edge8_Node000008_Node000006"><a xlink:title=" ">
<path fill="none" stroke="#63b8ff" d="M107.29,-37.62C117.73,-36.29 128.74,-34.88 139.56,-33.5"/>
<polygon fill="#63b8ff" stroke="#63b8ff" points="106.56,-34.19 97.08,-38.93 107.44,-41.13 106.56,-34.19"/>
</a>
</g>
</g>
<!-- Node7 -->
<g id="Node000007" class="node">
<title>Node7</title>
<g id="a_Node000007"><a xlink:href="classWolfstagInteractive_1_1ConvoCore_1_1PrefabCharacterRepresentationData.html" target="_top" xlink:title="Defines how a prefab&#45;based character is displayed in a ConvoCore conversation.">
<polygon fill="white" stroke="#666666" points="738,-30 520,-30 520,0 738,0 738,-30"/>
<text text-anchor="start" x="528" y="-18" font-family="Helvetica,sans-Serif" font-size="10.00">WolfstagInteractive.Convo</text>
<text text-anchor="middle" x="629" y="-7" font-family="Helvetica,sans-Serif" font-size="10.00">Core.PrefabCharacterRepresentationData</text>
</a>
</g>
</g>
<!-- Node7&#45;&gt;Node1 -->
<g id="edge6_Node000001_Node000007" class="edge">
<title>Node7&#45;&gt;Node1</title>
<g id="a_edge6_Node000001_Node000007"><a xlink:title=" ">
<path fill="none" stroke="#9a32cd" stroke-dasharray="5,2" d="M748.48,-30.07C770.64,-33.34 793.57,-37.02 815,-41 822.29,-42.35 829.82,-43.86 837.37,-45.45"/>
<polygon fill="#9a32cd" stroke="#9a32cd" points="748.75,-26.58 738.35,-28.6 747.75,-33.5 748.75,-26.58"/>
</a>
</g>
<text text-anchor="middle" x="785.5" y="-44" font-family="Helvetica,sans-Serif" font-size="10.00" fill="grey"> _prefabRep</text>
</g>
<!-- Node8&#45;&gt;Node7 -->
<g id="edge7_Node000007_Node000008" class="edge">
<title>Node8&#45;&gt;Node7</title>
<g id="a_edge7_Node000007_Node000008"><a xlink:title=" ">
<path fill="none" stroke="#63b8ff" d="M306.7,-22.02C369.51,-20.65 453.4,-18.81 519.72,-17.37"/>
<polygon fill="#63b8ff" stroke="#63b8ff" points="306.34,-18.53 296.42,-22.24 306.49,-25.52 306.34,-18.53"/>
</a>
</g>
</g>
</g>
</svg>
