<?xml version="1.0" encoding="UTF-8" standalone="no"?>
<!DOCTYPE svg PUBLIC "-//W3C//DTD SVG 1.1//EN"
 "http://www.w3.org/Graphics/SVG/1.1/DTD/svg11.dtd">
<!-- Generated by graphviz version 2.43.0 (0)
 -->
<!-- Title: WolfstagInteractive.ConvoCore.ConvoCoreActionOnlyDisplay Pages: 1 -->
<svg width="839pt" height="110pt"
 viewBox="0.00 0.00 839.00 109.50" xmlns="http://www.w3.org/2000/svg" xmlns:xlink="http://www.w3.org/1999/xlink">
<g id="graph0" class="graph" transform="scale(1 1) rotate(0) translate(4 105.5)">
<title>WolfstagInteractive.ConvoCore.ConvoCoreActionOnlyDisplay</title>
<!-- Node1 -->
<g id="Node000001" class="node">
<title>Node1</title>
<g id="a_Node000001"><a xlink:title="Minimal prefab display component.">
<polygon fill="#999999" stroke="#666666" points="831,-51 646,-51 646,-21 831,-21 831,-51"/>
<text text-anchor="start" x="654" y="-39" font-family="Helvetica,sans-Serif" font-size="10.00">WolfstagInteractive.Convo</text>
<text text-anchor="middle" x="738.5" y="-28" font-family="Helvetica,sans-Serif" font-size="10.00">Core.ConvoCoreActionOnlyDisplay</text>
</a>
</g>
</g>
<!-- Node2 -->
<g id="Node000002" class="node">
<title>Node2</title>
<g id="a_Node000002"><a xlink:href="classWolfstagInteractive_1_1ConvoCore_1_1ConvoCoreCharacterDisplayBase.html" target="_top" xlink:title="Generic base class for all prefab&#45;based character displays.">
<polygon fill="white" stroke="#666666" points="531,-67.5 353,-67.5 353,-48.5 531,-48.5 531,-67.5"/>
<text text-anchor="middle" x="442" y="-55.5" font-family="Helvetica,sans-Serif" font-size="10.00">ConvoCoreCharacterDisplayBase</text>
</a>
</g>
</g>
<!-- Node2&#45;&gt;Node1 -->
<g id="edge1_Node000001_Node000002" class="edge">
<title>Node2&#45;&gt;Node1</title>
<g id="a_edge1_Node000001_Node000002"><a xlink:title=" ">
<path fill="none" stroke="#63b8ff" d="M541.67,-50.63C575.33,-48.11 612.8,-45.32 645.88,-42.84"/>
<polygon fill="#63b8ff" stroke="#63b8ff" points="541.07,-47.16 531.36,-51.4 541.59,-54.14 541.07,-47.16"/>
</a>
</g>
</g>
<!-- Node3 -->
<g id="Node000003" class="node">
<title>Node3</title>
<g id="a_Node000003"><a xlink:title=" ">
<polygon fill="white" stroke="#666666" points="261.5,-101.5 168.5,-101.5 168.5,-82.5 261.5,-82.5 261.5,-101.5"/>
<text text-anchor="middle" x="215" y="-89.5" font-family="Helvetica,sans-Serif" font-size="10.00">MonoBehaviour</text>
</a>
</g>
</g>
<!-- Node3&#45;&gt;Node2 -->
<g id="edge2_Node000002_Node000003" class="edge">
<title>Node3&#45;&gt;Node2</title>
<g id="a_edge2_Node000002_Node000003"><a xlink:title=" ">
<path fill="none" stroke="#63b8ff" d="M271.69,-83.58C303.94,-78.71 344.65,-72.56 378.06,-67.51"/>
<polygon fill="#63b8ff" stroke="#63b8ff" points="270.9,-80.16 261.53,-85.12 271.94,-87.09 270.9,-80.16"/>
</a>
</g>
</g>
<!-- Node4 -->
<g id="Node000004" class="node">
<title>Node4</title>
<g id="a_Node000004"><a xlink:href="interfaceWolfstagInteractive_1_1ConvoCore_1_1IConvoCoreCharacterDisplay.html" target="_top" xlink:title=" ">
<polygon fill="white" stroke="#666666" points="293.5,-64.5 136.5,-64.5 136.5,-45.5 293.5,-45.5 293.5,-64.5"/>
<text text-anchor="middle" x="215" y="-52.5" font-family="Helvetica,sans-Serif" font-size="10.00">IConvoCoreCharacterDisplay</text>
</a>
</g>
</g>
<!-- Node4&#45;&gt;Node2 -->
<g id="edge3_Node000002_Node000004" class="edge">
<title>Node4&#45;&gt;Node2</title>
<g id="a_edge3_Node000002_Node000004"><a xlink:title=" ">
<path fill="none" stroke="#63b8ff" d="M304.15,-56.18C320.14,-56.39 336.83,-56.61 352.83,-56.82"/>
<polygon fill="#63b8ff" stroke="#63b8ff" points="303.79,-52.67 293.75,-56.04 303.7,-59.67 303.79,-52.67"/>
</a>
</g>
</g>
<!-- Node5 -->
<g id="Node000005" class="node">
<title>Node5</title>
<g id="a_Node000005"><a xlink:href="classWolfstagInteractive_1_1ConvoCore_1_1PrefabCharacterRepresentationData.html" target="_top" xlink:title="Defines how a prefab&#45;based character is displayed in a ConvoCore conversation.">
<polygon fill="white" stroke="#666666" points="551,-30 333,-30 333,0 551,0 551,-30"/>
<text text-anchor="start" x="341" y="-18" font-family="Helvetica,sans-Serif" font-size="10.00">WolfstagInteractive.Convo</text>
<text text-anchor="middle" x="442" y="-7" font-family="Helvetica,sans-Serif" font-size="10.00">Core.PrefabCharacterRepresentationData</text>
</a>
</g>
</g>
<!-- Node5&#45;&gt;Node1 -->
<g id="edge4_Node000001_Node000005" class="edge">
<title>Node5&#45;&gt;Node1</title>
<g id="a_edge4_Node000001_Node000005"><a xlink:title=" ">
<path fill="none" stroke="#9a32cd" stroke-dasharray="5,2" d="M561.23,-23.26C583.42,-24.82 606.42,-26.45 628,-28 633.8,-28.42 639.77,-28.85 645.79,-29.28"/>
<polygon fill="#9a32cd" stroke="#9a32cd" points="561.32,-19.76 551.1,-22.55 560.83,-26.74 561.32,-19.76"/>
</a>
</g>
<text text-anchor="middle" x="598.5" y="-31" font-family="Helvetica,sans-Serif" font-size="10.00" fill="grey"> _prefabRep</text>
</g>
<!-- Node6 -->
<g id="Node000006" class="node">
<title>Node6</title>
<g id="a_Node000006"><a xlink:href="classWolfstagInteractive_1_1ConvoCore_1_1CharacterRepresentationBase.html" target="_top" xlink:title="Abstract ScriptableObject base class for all character visual representations.">
<polygon fill="white" stroke="#666666" points="296,-24.5 134,-24.5 134,-5.5 296,-5.5 296,-24.5"/>
<text text-anchor="middle" x="215" y="-12.5" font-family="Helvetica,sans-Serif" font-size="10.00">CharacterRepresentationBase</text>
</a>
</g>
</g>
<!-- Node6&#45;&gt;Node5 -->
<g id="edge5_Node000005_Node000006" class="edge">
<title>Node6&#45;&gt;Node5</title>
<g id="a_edge5_Node000005_Node000006"><a xlink:title=" ">
<path fill="none" stroke="#63b8ff" d="M306.4,-15C315.1,-15 323.99,-15 332.84,-15"/>
<polygon fill="#63b8ff" stroke="#63b8ff" points="306.28,-11.5 296.28,-15 306.28,-18.5 306.28,-11.5"/>
</a>
</g>
</g>
<!-- Node7 -->
<g id="Node000007" class="node">
<title>Node7</title>
<g id="a_Node000007"><a xlink:title=" ">
<polygon fill="white" stroke="#666666" points="97,-24.5 0,-24.5 0,-5.5 97,-5.5 97,-24.5"/>
<text text-anchor="middle" x="48.5" y="-12.5" font-family="Helvetica,sans-Serif" font-size="10.00">ScriptableObject</text>
</a>
</g>
</g>
<!-- Node7&#45;&gt;Node6 -->
<g id="edge6_Node000006_Node000007" class="edge">
<title>Node7&#45;&gt;Node6</title>
<g id="a_edge6_Node000006_Node000007"><a xlink:title=" ">
<path fill="none" stroke="#63b8ff" d="M107.09,-15C115.79,-15 124.91,-15 133.98,-15"/>
<polygon fill="#63b8ff" stroke="#63b8ff" points="107.08,-11.5 97.08,-15 107.08,-18.5 107.08,-11.5"/>
</a>
</g>
</g>
</g>
</svg>
