<?xml version="1.0" encoding="UTF-8" standalone="no"?>
<!DOCTYPE svg PUBLIC "-//W3C//DTD SVG 1.1//EN"
 "http://www.w3.org/Graphics/SVG/1.1/DTD/svg11.dtd">
<!-- Generated by graphviz version 2.43.0 (0)
 -->
<!-- Title: WolfstagInteractive.ConvoCore.ConvoAudioReference Pages: 1 -->
<svg width="610pt" height="86pt"
 viewBox="0.00 0.00 610.00 86.00" xmlns="http://www.w3.org/2000/svg" xmlns:xlink="http://www.w3.org/1999/xlink">
<g id="graph0" class="graph" transform="scale(1 1) rotate(0) translate(4 82)">
<title>WolfstagInteractive.ConvoCore.ConvoAudioReference</title>
<!-- Node1 -->
<g id="Node000001" class="node">
<title>Node1</title>
<g id="a_Node000001"><a xlink:title="Abstract base for audio references used in ConvoCore&#39;s audio manifest.">
<polygon fill="#999999" stroke="#666666" points="348,-54 198,-54 198,-24 348,-24 348,-54"/>
<text text-anchor="start" x="206" y="-42" font-family="Helvetica,sans-Serif" font-size="10.00">WolfstagInteractive.Convo</text>
<text text-anchor="middle" x="273" y="-31" font-family="Helvetica,sans-Serif" font-size="10.00">Core.ConvoAudioReference</text>
</a>
</g>
</g>
<!-- Node3 -->
<g id="Node000003" class="node">
<title>Node3</title>
<g id="a_Node000003"><a xlink:href="classWolfstagInteractive_1_1ConvoCore_1_1ConvoCoreAudioEventKeyReference.html" target="_top" xlink:title="Passes a middleware event key (FMOD event path, Wwise event name, etc.) through the IConvoAudioProvid...">
<polygon fill="white" stroke="#666666" points="602,-78 384,-78 384,-48 602,-48 602,-78"/>
<text text-anchor="start" x="392" y="-66" font-family="Helvetica,sans-Serif" font-size="10.00">WolfstagInteractive.Convo</text>
<text text-anchor="middle" x="493" y="-55" font-family="Helvetica,sans-Serif" font-size="10.00">Core.ConvoCoreAudioEventKeyReference</text>
</a>
</g>
</g>
<!-- Node1&#45;&gt;Node3 -->
<g id="edge2_Node000001_Node000003" class="edge">
<title>Node1&#45;&gt;Node3</title>
<g id="a_edge2_Node000001_Node000003"><a xlink:title=" ">
<path fill="none" stroke="#63b8ff" d="M358.19,-48.27C366.56,-49.19 375.13,-50.13 383.69,-51.08"/>
<polygon fill="#63b8ff" stroke="#63b8ff" points="358.43,-44.77 348.11,-47.16 357.67,-51.73 358.43,-44.77"/>
</a>
</g>
</g>
<!-- Node4 -->
<g id="Node000004" class="node">
<title>Node4</title>
<g id="a_Node000004"><a xlink:href="classWolfstagInteractive_1_1ConvoCore_1_1ConvoCoreUnityAudioReference.html" target="_top" xlink:title="Built&#45;in Unity AudioClip&#45;based audio reference.">
<polygon fill="white" stroke="#666666" points="592.5,-30 393.5,-30 393.5,0 592.5,0 592.5,-30"/>
<text text-anchor="start" x="401.5" y="-18" font-family="Helvetica,sans-Serif" font-size="10.00">WolfstagInteractive.Convo</text>
<text text-anchor="middle" x="493" y="-7" font-family="Helvetica,sans-Serif" font-size="10.00">Core.ConvoCoreUnityAudioReference</text>
</a>
</g>
</g>
<!-- Node1&#45;&gt;Node4 -->
<g id="edge3_Node000001_Node000004" class="edge">
<title>Node1&#45;&gt;Node4</title>
<g id="a_edge3_Node000001_Node000004"><a xlink:title=" ">
<path fill="none" stroke="#63b8ff" d="M358.14,-29.74C369.68,-28.47 381.62,-27.15 393.39,-25.86"/>
<polygon fill="#63b8ff" stroke="#63b8ff" points="357.67,-26.27 348.11,-30.84 358.43,-33.23 357.67,-26.27"/>
</a>
</g>
</g>
<!-- Node2 -->
<g id="Node000002" class="node">
<title>Node2</title>
<g id="a_Node000002"><a xlink:title=" ">
<polygon fill="white" stroke="#666666" points="162,-48.5 0,-48.5 0,-29.5 162,-29.5 162,-48.5"/>
<text text-anchor="middle" x="81" y="-36.5" font-family="Helvetica,sans-Serif" font-size="10.00">UnityEngine::ScriptableObject</text>
</a>
</g>
</g>
<!-- Node2&#45;&gt;Node1 -->
<g id="edge1_Node000001_Node000002" class="edge">
<title>Node2&#45;&gt;Node1</title>
<g id="a_edge1_Node000001_Node000002"><a xlink:title=" ">
<path fill="none" stroke="#63b8ff" d="M172.1,-39C180.71,-39 189.38,-39 197.82,-39"/>
<polygon fill="#63b8ff" stroke="#63b8ff" points="172.03,-35.5 162.03,-39 172.03,-42.5 172.03,-35.5"/>
</a>
</g>
</g>
</g>
</svg>
