<?xml version="1.0" encoding="UTF-8" standalone="no"?>
<!DOCTYPE svg PUBLIC "-//W3C//DTD SVG 1.1//EN"
 "http://www.w3.org/Graphics/SVG/1.1/DTD/svg11.dtd">
<!-- Generated by graphviz version 2.43.0 (0)
 -->
<!-- Title: WolfstagInteractive.ConvoCore.SaveSystem.ConvoCoreConversationSaveManager Pages: 1 -->
<svg width="1928pt" height="750pt"
 viewBox="0.00 0.00 1928.00 750.04" xmlns="http://www.w3.org/2000/svg" xmlns:xlink="http://www.w3.org/1999/xlink">
<g id="graph0" class="graph" transform="scale(1 1) rotate(0) translate(4 746.04)">
<title>WolfstagInteractive.ConvoCore.SaveSystem.ConvoCoreConversationSaveManager</title>
<!-- Node1 -->
<g id="Node000001" class="node">
<title>Node1</title>
<g id="a_Node000001"><a xlink:title="Attach alongside a ConvoCore component to persist and restore conversation state (active line,...">
<polygon fill="#999999" stroke="#666666" points="1920,-518.54 1696,-518.54 1696,-477.54 1920,-477.54 1920,-518.54"/>
<text text-anchor="start" x="1704" y="-506.54" font-family="Helvetica,sans-Serif" font-size="10.00">WolfstagInteractive.Convo</text>
<text text-anchor="start" x="1704" y="-495.54" font-family="Helvetica,sans-Serif" font-size="10.00">Core.SaveSystem.ConvoCoreConversation</text>
<text text-anchor="middle" x="1808" y="-484.54" font-family="Helvetica,sans-Serif" font-size="10.00">SaveManager</text>
</a>
</g>
</g>
<!-- Node2 -->
<g id="Node000002" class="node">
<title>Node2</title>
<g id="a_Node000002"><a xlink:title=" ">
<polygon fill="white" stroke="#666666" points="1141,-161.54 1048,-161.54 1048,-142.54 1141,-142.54 1141,-161.54"/>
<text text-anchor="middle" x="1094.5" y="-149.54" font-family="Helvetica,sans-Serif" font-size="10.00">MonoBehaviour</text>
</a>
</g>
</g>
<!-- Node2&#45;&gt;Node1 -->
<g id="edge1_Node000001_Node000002" class="edge">
<title>Node2&#45;&gt;Node1</title>
<g id="a_edge1_Node000001_Node000002"><a xlink:title=" ">
<path fill="none" stroke="#63b8ff" d="M1151.02,-157.41C1170.04,-159.23 1191.45,-161.25 1211,-163.04 1262.87,-167.78 1635.68,-173.67 1678,-204.04 1771.74,-271.3 1798.23,-422.01 1804.93,-477.24"/>
<polygon fill="#63b8ff" stroke="#63b8ff" points="1151.31,-153.92 1141.02,-156.45 1150.64,-160.89 1151.31,-153.92"/>
</a>
</g>
</g>
<!-- Node12 -->
<g id="Node000012" class="node">
<title>Node12</title>
<g id="a_Node000012"><a xlink:href="classWolfstagInteractive_1_1ConvoCore_1_1ConvoCore.html" target="_top" xlink:title="Main conversation runner MonoBehaviour.">
<polygon fill="white" stroke="#666666" points="1494.5,-307.04 1348.5,-307.04 1348.5,-277.04 1494.5,-277.04 1494.5,-307.04"/>
<text text-anchor="start" x="1356.5" y="-295.04" font-family="Helvetica,sans-Serif" font-size="10.00">WolfstagInteractive.Convo</text>
<text text-anchor="middle" x="1421.5" y="-284.04" font-family="Helvetica,sans-Serif" font-size="10.00">Core.ConvoCore</text>
</a>
</g>
</g>
<!-- Node2&#45;&gt;Node12 -->
<g id="edge19_Node000012_Node000002" class="edge">
<title>Node2&#45;&gt;Node12</title>
<g id="a_edge19_Node000012_Node000002"><a xlink:title=" ">
<path fill="none" stroke="#63b8ff" d="M1151.22,-156.41C1165.42,-159.09 1180.25,-163.33 1193,-170.04 1203.01,-175.3 1201.42,-182.02 1211,-188.04 1250.87,-213.09 1268.59,-202.58 1311,-223.04 1343.38,-238.66 1378.06,-261.71 1399.51,-276.79"/>
<polygon fill="#63b8ff" stroke="#63b8ff" points="1151.48,-152.91 1141.04,-154.73 1150.34,-159.81 1151.48,-152.91"/>
</a>
</g>
</g>
<!-- Node15 -->
<g id="Node000015" class="node">
<title>Node15</title>
<g id="a_Node000015"><a xlink:href="classWolfstagInteractive_1_1ConvoCore_1_1ConvoCoreUIFoundation.html" target="_top" xlink:title="Used as a basis of any UI that can be assigned in the inspector that includes all the base functions ...">
<polygon fill="white" stroke="#666666" points="1888,-167.04 1728,-167.04 1728,-137.04 1888,-137.04 1888,-167.04"/>
<text text-anchor="start" x="1736" y="-155.04" font-family="Helvetica,sans-Serif" font-size="10.00">WolfstagInteractive.Convo</text>
<text text-anchor="middle" x="1808" y="-144.04" font-family="Helvetica,sans-Serif" font-size="10.00">Core.ConvoCoreUIFoundation</text>
</a>
</g>
</g>
<!-- Node2&#45;&gt;Node15 -->
<g id="edge24_Node000015_Node000002" class="edge">
<title>Node2&#45;&gt;Node15</title>
<g id="a_edge24_Node000015_Node000002"><a xlink:title=" ">
<path fill="none" stroke="#63b8ff" d="M1151.26,-152.04C1276.95,-152.04 1582.75,-152.04 1727.95,-152.04"/>
<polygon fill="#63b8ff" stroke="#63b8ff" points="1151.09,-148.54 1141.09,-152.04 1151.09,-155.54 1151.09,-148.54"/>
</a>
</g>
</g>
<!-- Node17 -->
<g id="Node000017" class="node">
<title>Node17</title>
<g id="a_Node000017"><a xlink:href="classWolfstagInteractive_1_1ConvoCore_1_1ConvoCoreDialogueHistoryUI.html" target="_top" xlink:title=" ">
<polygon fill="white" stroke="#666666" points="1514,-120.04 1329,-120.04 1329,-90.04 1514,-90.04 1514,-120.04"/>
<text text-anchor="start" x="1337" y="-108.04" font-family="Helvetica,sans-Serif" font-size="10.00">WolfstagInteractive.Convo</text>
<text text-anchor="middle" x="1421.5" y="-97.04" font-family="Helvetica,sans-Serif" font-size="10.00">Core.ConvoCoreDialogueHistoryUI</text>
</a>
</g>
</g>
<!-- Node2&#45;&gt;Node17 -->
<g id="edge28_Node000017_Node000002" class="edge">
<title>Node2&#45;&gt;Node17</title>
<g id="a_edge28_Node000017_Node000002"><a xlink:title=" ">
<path fill="none" stroke="#63b8ff" d="M1151.07,-144C1199.8,-136.95 1271.6,-126.57 1328.84,-118.29"/>
<polygon fill="#63b8ff" stroke="#63b8ff" points="1150.43,-140.56 1141.03,-145.45 1151.43,-147.48 1150.43,-140.56"/>
</a>
</g>
</g>
<!-- Node3 -->
<g id="Node000003" class="node">
<title>Node3</title>
<g id="a_Node000003"><a xlink:href="interfaceWolfstagInteractive_1_1ConvoCore_1_1IConvoStartContextProvider.html" target="_top" xlink:title="Implement on a component alongside ConvoCore to control how a conversation is started.">
<polygon fill="white" stroke="#666666" points="1497.5,-572.54 1345.5,-572.54 1345.5,-553.54 1497.5,-553.54 1497.5,-572.54"/>
<text text-anchor="middle" x="1421.5" y="-560.54" font-family="Helvetica,sans-Serif" font-size="10.00">IConvoStartContextProvider</text>
</a>
</g>
</g>
<!-- Node3&#45;&gt;Node1 -->
<g id="edge2_Node000001_Node000003" class="edge">
<title>Node3&#45;&gt;Node1</title>
<g id="a_edge2_Node000001_Node000003"><a xlink:title=" ">
<path fill="none" stroke="#63b8ff" d="M1507.78,-553.35C1557.6,-547.2 1621.57,-538.44 1678,-528.04 1692.81,-525.31 1708.49,-522.01 1723.62,-518.61"/>
<polygon fill="#63b8ff" stroke="#63b8ff" points="1507.2,-549.9 1497.7,-554.59 1508.05,-556.85 1507.2,-549.9"/>
</a>
</g>
</g>
<!-- Node4 -->
<g id="Node000004" class="node">
<title>Node4</title>
<g id="a_Node000004"><a xlink:href="classWolfstagInteractive_1_1ConvoCore_1_1ConvoCoreConversationData.html" target="_top" xlink:title=" ">
<polygon fill="white" stroke="#666666" points="327.5,-496.04 144.5,-496.04 144.5,-466.04 327.5,-466.04 327.5,-496.04"/>
<text text-anchor="start" x="152.5" y="-484.04" font-family="Helvetica,sans-Serif" font-size="10.00">WolfstagInteractive.Convo</text>
<text text-anchor="middle" x="236" y="-473.04" font-family="Helvetica,sans-Serif" font-size="10.00">Core.ConvoCoreConversationData</text>
</a>
</g>
</g>
<!-- Node4&#45;&gt;Node1 -->
<g id="edge3_Node000001_Node000004" class="edge">
<title>Node4&#45;&gt;Node1</title>
<g id="a_edge3_Node000001_Node000004"><a xlink:title=" ">
<path fill="none" stroke="#9a32cd" stroke-dasharray="5,2" d="M323.81,-497.64C334.62,-499.33 345.55,-500.85 356,-502.04 539.95,-522.83 586.93,-518.37 772,-523.04 863.53,-525.34 886.51,-526.55 978,-523.04 1134.35,-517.03 1172.65,-502.04 1329,-496.04 1411.16,-492.88 1431.78,-495.76 1514,-496.04 1574.03,-496.24 1640.97,-496.68 1695.69,-497.1"/>
<polygon fill="#9a32cd" stroke="#9a32cd" points="324.36,-494.19 313.93,-496.05 323.25,-501.1 324.36,-494.19"/>
</a>
</g>
<text text-anchor="middle" x="1094.5" y="-525.04" font-family="Helvetica,sans-Serif" font-size="10.00" fill="grey"> DirectConversation</text>
</g>
<!-- Node6 -->
<g id="Node000006" class="node">
<title>Node6</title>
<g id="a_Node000006"><a xlink:href="classWolfstagInteractive_1_1ConvoCore_1_1ConvoCoreAudioManifest.html" target="_top" xlink:title="Maps dialogue line IDs to audio clips or middleware references, supporting Unity AudioSource,...">
<polygon fill="white" stroke="#666666" points="724,-472.04 558,-472.04 558,-442.04 724,-442.04 724,-472.04"/>
<text text-anchor="start" x="566" y="-460.04" font-family="Helvetica,sans-Serif" font-size="10.00">WolfstagInteractive.Convo</text>
<text text-anchor="middle" x="641" y="-449.04" font-family="Helvetica,sans-Serif" font-size="10.00">Core.ConvoCoreAudioManifest</text>
</a>
</g>
</g>
<!-- Node4&#45;&gt;Node6 -->
<g id="edge7_Node000006_Node000004" class="edge">
<title>Node4&#45;&gt;Node6</title>
<g id="a_edge7_Node000006_Node000004"><a xlink:title=" ">
<path fill="none" stroke="#9a32cd" stroke-dasharray="5,2" d="M291.78,-463.08C311.76,-457.39 334.68,-451.85 356,-449.04 423.6,-440.11 501.02,-443.15 557.93,-447.85"/>
<polygon fill="#9a32cd" stroke="#9a32cd" points="290.54,-459.79 281.92,-465.96 292.5,-466.51 290.54,-459.79"/>
</a>
</g>
<text text-anchor="middle" x="433" y="-452.04" font-family="Helvetica,sans-Serif" font-size="10.00" fill="grey"> SourceConversation</text>
</g>
<!-- Node4&#45;&gt;Node12 -->
<g id="edge21_Node000012_Node000004" class="edge">
<title>Node4&#45;&gt;Node12</title>
<g id="a_edge21_Node000012_Node000004"><a xlink:title=" ">
<path fill="none" stroke="#9a32cd" stroke-dasharray="5,2" d="M337.93,-487.38C344.04,-487.64 350.1,-487.86 356,-488.04 424.41,-490.05 441.56,-489.02 510,-488.04 813.9,-483.68 906.19,-554.59 1193,-454.04 1284.51,-421.95 1371.89,-341.12 1405.74,-307.29"/>
<polygon fill="#9a32cd" stroke="#9a32cd" points="337.76,-483.87 327.61,-486.92 337.45,-490.87 337.76,-483.87"/>
</a>
</g>
<text text-anchor="middle" x="875" y="-511.04" font-family="Helvetica,sans-Serif" font-size="10.00" fill="grey"> ConversationData</text>
</g>
<!-- Node5 -->
<g id="Node000005" class="node">
<title>Node5</title>
<g id="a_Node000005"><a xlink:title=" ">
<polygon fill="white" stroke="#666666" points="97,-456.54 0,-456.54 0,-437.54 97,-437.54 97,-456.54"/>
<text text-anchor="middle" x="48.5" y="-444.54" font-family="Helvetica,sans-Serif" font-size="10.00">ScriptableObject</text>
</a>
</g>
</g>
<!-- Node5&#45;&gt;Node4 -->
<g id="edge4_Node000004_Node000005" class="edge">
<title>Node5&#45;&gt;Node4</title>
<g id="a_edge4_Node000004_Node000005"><a xlink:title=" ">
<path fill="none" stroke="#63b8ff" d="M107.49,-457.66C121.87,-460.3 137.55,-463.18 152.85,-465.98"/>
<polygon fill="#63b8ff" stroke="#63b8ff" points="107.74,-454.15 97.27,-455.79 106.48,-461.04 107.74,-454.15"/>
</a>
</g>
</g>
<!-- Node5&#45;&gt;Node6 -->
<g id="edge6_Node000006_Node000005" class="edge">
<title>Node5&#45;&gt;Node6</title>
<g id="a_edge6_Node000006_Node000005"><a xlink:title=" ">
<path fill="none" stroke="#63b8ff" d="M107.54,-442.83C194.94,-437.22 365.51,-429.08 510,-439.04 525.46,-440.1 541.87,-441.87 557.65,-443.89"/>
<polygon fill="#63b8ff" stroke="#63b8ff" points="107.05,-439.35 97.3,-443.5 107.51,-446.34 107.05,-439.35"/>
</a>
</g>
</g>
<!-- Node7 -->
<g id="Node000007" class="node">
<title>Node7</title>
<g id="a_Node000007"><a xlink:href="classWolfstagInteractive_1_1ConvoCore_1_1ConversationContainer.html" target="_top" xlink:title="ScriptableObject that groups one or more ConvoCoreConversationData assets into a single addressable u...">
<polygon fill="white" stroke="#666666" points="510,-395.04 356,-395.04 356,-365.04 510,-365.04 510,-395.04"/>
<text text-anchor="start" x="364" y="-383.04" font-family="Helvetica,sans-Serif" font-size="10.00">WolfstagInteractive.Convo</text>
<text text-anchor="middle" x="433" y="-372.04" font-family="Helvetica,sans-Serif" font-size="10.00">Core.ConversationContainer</text>
</a>
</g>
</g>
<!-- Node5&#45;&gt;Node7 -->
<g id="edge9_Node000007_Node000005" class="edge">
<title>Node5&#45;&gt;Node7</title>
<g id="a_edge9_Node000007_Node000005"><a xlink:title=" ">
<path fill="none" stroke="#63b8ff" d="M66.79,-430.45C79.16,-419.7 96.79,-406.53 115,-400.04 193.69,-371.96 290.26,-370.11 355.99,-373.28"/>
<polygon fill="#63b8ff" stroke="#63b8ff" points="64.19,-428.09 59.12,-437.39 68.88,-433.28 64.19,-428.09"/>
</a>
</g>
</g>
<!-- Node8 -->
<g id="Node000008" class="node">
<title>Node8</title>
<g id="a_Node000008"><a xlink:href="classWolfstagInteractive_1_1ConvoCore_1_1SaveSystem_1_1ConvoCoreSaveManager.html" target="_top" xlink:title=" ">
<polygon fill="white" stroke="#666666" points="754,-656.04 528,-656.04 528,-626.04 754,-626.04 754,-656.04"/>
<text text-anchor="start" x="536" y="-644.04" font-family="Helvetica,sans-Serif" font-size="10.00">WolfstagInteractive.Convo</text>
<text text-anchor="middle" x="641" y="-633.04" font-family="Helvetica,sans-Serif" font-size="10.00">Core.SaveSystem.ConvoCoreSaveManager</text>
</a>
</g>
</g>
<!-- Node5&#45;&gt;Node8 -->
<g id="edge11_Node000008_Node000005" class="edge">
<title>Node5&#45;&gt;Node8</title>
<g id="a_edge11_Node000008_Node000005"><a xlink:title=" ">
<path fill="none" stroke="#63b8ff" d="M53.55,-466.5C61.88,-501.16 84.49,-573.01 134,-606.04 196.22,-647.54 398.67,-649.38 527.85,-645.91"/>
<polygon fill="#63b8ff" stroke="#63b8ff" points="56.94,-465.64 51.33,-456.65 50.11,-467.18 56.94,-465.64"/>
</a>
</g>
</g>
<!-- Node9 -->
<g id="Node000009" class="node">
<title>Node9</title>
<g id="a_Node000009"><a xlink:href="classWolfstagInteractive_1_1ConvoCore_1_1SaveSystem_1_1ConvoVariableStore.html" target="_top" xlink:title=" ">
<polygon fill="white" stroke="#666666" points="337,-597.04 135,-597.04 135,-567.04 337,-567.04 337,-597.04"/>
<text text-anchor="start" x="143" y="-585.04" font-family="Helvetica,sans-Serif" font-size="10.00">WolfstagInteractive.Convo</text>
<text text-anchor="middle" x="236" y="-574.04" font-family="Helvetica,sans-Serif" font-size="10.00">Core.SaveSystem.ConvoVariableStore</text>
</a>
</g>
</g>
<!-- Node5&#45;&gt;Node9 -->
<g id="edge13_Node000009_Node000005" class="edge">
<title>Node5&#45;&gt;Node9</title>
<g id="a_edge13_Node000009_Node000005"><a xlink:title=" ">
<path fill="none" stroke="#63b8ff" d="M71.19,-462.82C107.25,-489.07 179.05,-541.32 214.38,-567.03"/>
<polygon fill="#63b8ff" stroke="#63b8ff" points="72.99,-459.8 62.84,-456.75 68.87,-465.46 72.99,-459.8"/>
</a>
</g>
</g>
<!-- Node10 -->
<g id="Node000010" class="node">
<title>Node10</title>
<g id="a_Node000010"><a xlink:href="classWolfstagInteractive_1_1ConvoCore_1_1SaveSystem_1_1ConvoSettingsState.html" target="_top" xlink:title="ScriptableObject that bridges ConvoCoreLanguageManager with the save system.">
<polygon fill="white" stroke="#666666" points="337,-742.04 135,-742.04 135,-712.04 337,-712.04 337,-742.04"/>
<text text-anchor="start" x="143" y="-730.04" font-family="Helvetica,sans-Serif" font-size="10.00">WolfstagInteractive.Convo</text>
<text text-anchor="middle" x="236" y="-719.04" font-family="Helvetica,sans-Serif" font-size="10.00">Core.SaveSystem.ConvoSettingsState</text>
</a>
</g>
</g>
<!-- Node5&#45;&gt;Node10 -->
<g id="edge15_Node000010_Node000005" class="edge">
<title>Node5&#45;&gt;Node10</title>
<g id="a_edge15_Node000010_Node000005"><a xlink:title=" ">
<path fill="none" stroke="#63b8ff" d="M49.74,-466.78C51.47,-515.01 62.96,-639.47 134,-703.04 137.76,-706.4 141.91,-709.32 146.31,-711.84"/>
<polygon fill="#63b8ff" stroke="#63b8ff" points="53.24,-466.64 49.49,-456.73 46.24,-466.81 53.24,-466.64"/>
</a>
</g>
</g>
<!-- Node18 -->
<g id="Node000018" class="node">
<title>Node18</title>
<g id="a_Node000018"><a xlink:href="classWolfstagInteractive_1_1ConvoCore_1_1ConvoCoreSettings.html" target="_top" xlink:title="Global runtime settings ScriptableObject for ConvoCore.">
<polygon fill="white" stroke="#666666" points="309,-215.04 163,-215.04 163,-185.04 309,-185.04 309,-215.04"/>
<text text-anchor="start" x="171" y="-203.04" font-family="Helvetica,sans-Serif" font-size="10.00">WolfstagInteractive.Convo</text>
<text text-anchor="middle" x="236" y="-192.04" font-family="Helvetica,sans-Serif" font-size="10.00">Core.ConvoCoreSettings</text>
</a>
</g>
</g>
<!-- Node5&#45;&gt;Node18 -->
<g id="edge30_Node000018_Node000005" class="edge">
<title>Node5&#45;&gt;Node18</title>
<g id="a_edge30_Node000018_Node000005"><a xlink:title=" ">
<path fill="none" stroke="#63b8ff" d="M62.94,-429.14C97.85,-382.65 190.94,-258.71 223.53,-215.31"/>
<polygon fill="#63b8ff" stroke="#63b8ff" points="59.98,-427.26 56.77,-437.35 65.58,-431.46 59.98,-427.26"/>
</a>
</g>
</g>
<!-- Node20 -->
<g id="Node000020" class="node">
<title>Node20</title>
<g id="a_Node000020"><a xlink:href="classWolfstagInteractive_1_1ConvoCore_1_1ConvoCoreHistoryRendererProfile.html" target="_top" xlink:title=" ">
<polygon fill="white" stroke="#666666" points="978,-43.04 772,-43.04 772,-13.04 978,-13.04 978,-43.04"/>
<text text-anchor="start" x="780" y="-31.04" font-family="Helvetica,sans-Serif" font-size="10.00">WolfstagInteractive.Convo</text>
<text text-anchor="middle" x="875" y="-20.04" font-family="Helvetica,sans-Serif" font-size="10.00">Core.ConvoCoreHistoryRendererProfile</text>
</a>
</g>
</g>
<!-- Node5&#45;&gt;Node20 -->
<g id="edge34_Node000020_Node000005" class="edge">
<title>Node5&#45;&gt;Node20</title>
<g id="a_edge34_Node000020_Node000005"><a xlink:title=" ">
<path fill="none" stroke="#63b8ff" d="M50.72,-427.46C54.65,-379.43 70.74,-253.97 134,-176.04 205.22,-88.29 247.32,-83.03 356,-52.04 495.82,-12.16 665.38,-13.04 771.51,-19.13"/>
<polygon fill="#63b8ff" stroke="#63b8ff" points="47.23,-427.23 49.99,-437.46 54.21,-427.74 47.23,-427.23"/>
</a>
</g>
</g>
<!-- Node6&#45;&gt;Node4 -->
<g id="edge5_Node000004_Node000006" class="edge">
<title>Node6&#45;&gt;Node4</title>
<g id="a_edge5_Node000004_Node000006"><a xlink:title=" ">
<path fill="none" stroke="#9a32cd" stroke-dasharray="5,2" d="M547.86,-462.52C481.85,-466.45 393.37,-471.72 327.69,-475.64"/>
<polygon fill="#9a32cd" stroke="#9a32cd" points="548.07,-466.02 557.84,-461.93 547.65,-459.03 548.07,-466.02"/>
</a>
</g>
<text text-anchor="middle" x="433" y="-476.04" font-family="Helvetica,sans-Serif" font-size="10.00" fill="grey"> AudioManifest</text>
</g>
<!-- Node7&#45;&gt;Node1 -->
<g id="edge8_Node000001_Node000007" class="edge">
<title>Node7&#45;&gt;Node1</title>
<g id="a_edge8_Node000001_Node000007"><a xlink:title=" ">
<path fill="none" stroke="#9a32cd" stroke-dasharray="5,2" d="M520.51,-384.81C783.86,-399.49 1564.7,-444.08 1678,-463.04 1698.83,-466.52 1721.15,-471.95 1741.27,-477.5"/>
<polygon fill="#9a32cd" stroke="#9a32cd" points="520.41,-381.3 510.23,-384.24 520.02,-388.29 520.41,-381.3"/>
</a>
</g>
<text text-anchor="middle" x="1094.5" y="-427.04" font-family="Helvetica,sans-Serif" font-size="10.00" fill="grey"> ConversationContainer</text>
</g>
<!-- Node8&#45;&gt;Node1 -->
<g id="edge10_Node000001_Node000008" class="edge">
<title>Node8&#45;&gt;Node1</title>
<g id="a_edge10_Node000001_Node000008"><a xlink:title=" ">
<path fill="none" stroke="#9a32cd" stroke-dasharray="5,2" d="M725.82,-657.91C907.29,-690.45 1346.87,-747.63 1678,-615.04 1727.68,-595.14 1770.33,-546.83 1791.92,-518.9"/>
<polygon fill="#9a32cd" stroke="#9a32cd" points="726.27,-654.43 715.81,-656.09 725.02,-661.32 726.27,-654.43"/>
</a>
</g>
<text text-anchor="middle" x="1261" y="-701.04" font-family="Helvetica,sans-Serif" font-size="10.00" fill="grey"> SaveManager</text>
</g>
<!-- Node9&#45;&gt;Node1 -->
<g id="edge17_Node000001_Node000009" class="edge">
<title>Node9&#45;&gt;Node1</title>
<g id="a_edge17_Node000001_Node000009"><a xlink:title=" ">
<path fill="none" stroke="#9a32cd" stroke-dasharray="5,2" d="M347.02,-588.49C568.46,-600.07 1083.6,-619.8 1514,-582.04 1587.74,-575.57 1607.05,-574.13 1678,-553.04 1708.1,-544.08 1740.62,-530.19 1765.48,-518.6"/>
<polygon fill="#9a32cd" stroke="#9a32cd" points="347.19,-585 337.01,-587.97 346.82,-591.99 347.19,-585"/>
</a>
</g>
<text text-anchor="middle" x="1094.5" y="-606.04" font-family="Helvetica,sans-Serif" font-size="10.00" fill="grey"> VariableStore</text>
</g>
<!-- Node9&#45;&gt;Node8 -->
<g id="edge12_Node000008_Node000009" class="edge">
<title>Node9&#45;&gt;Node8</title>
<g id="a_edge12_Node000008_Node000009"><a xlink:title=" ">
<path fill="none" stroke="#9a32cd" stroke-dasharray="5,2" d="M347.22,-594.08C397.04,-599.96 456.6,-607.59 510,-616.04 528.27,-618.93 547.91,-622.47 566.24,-625.97"/>
<polygon fill="#9a32cd" stroke="#9a32cd" points="347.4,-590.58 337.06,-592.89 346.59,-597.53 347.4,-590.58"/>
</a>
</g>
<text text-anchor="middle" x="433" y="-619.04" font-family="Helvetica,sans-Serif" font-size="10.00" fill="grey"> VariableStore</text>
</g>
<!-- Node10&#45;&gt;Node8 -->
<g id="edge14_Node000008_Node000010" class="edge">
<title>Node10&#45;&gt;Node8</title>
<g id="a_edge14_Node000008_Node000010"><a xlink:title=" ">
<path fill="none" stroke="#9a32cd" stroke-dasharray="5,2" d="M347.44,-713.15C397.43,-705.87 457.05,-695.78 510,-683.04 540.21,-675.77 573.54,-664.94 598.89,-656.1"/>
<polygon fill="#9a32cd" stroke="#9a32cd" points="346.65,-709.73 337.25,-714.62 347.64,-716.66 346.65,-709.73"/>
</a>
</g>
<text text-anchor="middle" x="433" y="-713.04" font-family="Helvetica,sans-Serif" font-size="10.00" fill="grey"> SettingsState</text>
</g>
<!-- Node11 -->
<g id="Node000011" class="node">
<title>Node11</title>
<g id="a_Node000011"><a xlink:href="interfaceWolfstagInteractive_1_1ConvoCore_1_1SaveSystem_1_1IConvoSaveProvider.html" target="_top" xlink:title=" ">
<polygon fill="white" stroke="#666666" points="338,-694.04 134,-694.04 134,-664.04 338,-664.04 338,-694.04"/>
<text text-anchor="start" x="142" y="-682.04" font-family="Helvetica,sans-Serif" font-size="10.00">WolfstagInteractive.Convo</text>
<text text-anchor="middle" x="236" y="-671.04" font-family="Helvetica,sans-Serif" font-size="10.00">Core.SaveSystem.IConvoSaveProvider</text>
</a>
</g>
</g>
<!-- Node11&#45;&gt;Node8 -->
<g id="edge16_Node000008_Node000011" class="edge">
<title>Node11&#45;&gt;Node8</title>
<g id="a_edge16_Node000008_Node000011"><a xlink:title=" ">
<path fill="none" stroke="#9a32cd" stroke-dasharray="5,2" d="M348.27,-669.75C397.8,-665.49 456.84,-660.23 510,-655.04 515.87,-654.46 521.9,-653.86 527.97,-653.24"/>
<polygon fill="#9a32cd" stroke="#9a32cd" points="347.83,-666.28 338.17,-670.62 348.43,-673.25 347.83,-666.28"/>
</a>
</g>
<text text-anchor="middle" x="433" y="-671.04" font-family="Helvetica,sans-Serif" font-size="10.00" fill="grey"> _provider</text>
</g>
<!-- Node12&#45;&gt;Node1 -->
<g id="edge18_Node000001_Node000012" class="edge">
<title>Node12&#45;&gt;Node1</title>
<g id="a_edge18_Node000001_Node000012"><a xlink:title=" ">
<path fill="none" stroke="#9a32cd" stroke-dasharray="5,2" d="M1467.18,-311.22C1518.9,-333.92 1606.17,-373.73 1678,-414.04 1713.31,-433.85 1752.01,-459.63 1777.71,-477.38"/>
<polygon fill="#9a32cd" stroke="#9a32cd" points="1468.52,-307.99 1457.95,-307.19 1465.71,-314.4 1468.52,-307.99"/>
</a>
</g>
<text text-anchor="middle" x="1605" y="-417.04" font-family="Helvetica,sans-Serif" font-size="10.00" fill="grey"> _runner</text>
</g>
<!-- Node12&#45;&gt;Node15 -->
<g id="edge26_Node000015_Node000012" class="edge">
<title>Node12&#45;&gt;Node15</title>
<g id="a_edge26_Node000015_Node000012"><a xlink:title=" ">
<path fill="none" stroke="#9a32cd" stroke-dasharray="5,2" d="M1453.76,-271.25C1475.1,-257.77 1504.4,-240.63 1532,-229.04 1598.51,-201.11 1678.25,-180.05 1734.7,-167.08"/>
<polygon fill="#9a32cd" stroke="#9a32cd" points="1451.67,-268.43 1445.13,-276.77 1455.44,-274.33 1451.67,-268.43"/>
</a>
</g>
<text text-anchor="middle" x="1605" y="-232.04" font-family="Helvetica,sans-Serif" font-size="10.00" fill="grey"> ConvoCoreInstance</text>
</g>
<!-- Node13 -->
<g id="Node000013" class="node">
<title>Node13</title>
<g id="a_Node000013"><a xlink:href="interfaceWolfstagInteractive_1_1ConvoCore_1_1IConvoCoreRunner.html" target="_top" xlink:title="Minimal interface implemented by ConvoCore.">
<polygon fill="white" stroke="#666666" points="1148,-402.54 1041,-402.54 1041,-383.54 1148,-383.54 1148,-402.54"/>
<text text-anchor="middle" x="1094.5" y="-390.54" font-family="Helvetica,sans-Serif" font-size="10.00">IConvoCoreRunner</text>
</a>
</g>
</g>
<!-- Node13&#45;&gt;Node12 -->
<g id="edge20_Node000012_Node000013" class="edge">
<title>Node13&#45;&gt;Node12</title>
<g id="a_edge20_Node000012_Node000013"><a xlink:title=" ">
<path fill="none" stroke="#63b8ff" d="M1156.89,-381.54C1168.89,-379.17 1181.36,-376.6 1193,-374.04 1245.74,-362.42 1260.19,-363.35 1311,-345.04 1340.01,-334.58 1371.55,-318.81 1393.29,-307.19"/>
<polygon fill="#63b8ff" stroke="#63b8ff" points="1156.1,-378.13 1146.96,-383.49 1157.44,-385 1156.1,-378.13"/>
</a>
</g>
</g>
<!-- Node14 -->
<g id="Node000014" class="node">
<title>Node14</title>
<g id="a_Node000014"><a xlink:href="interfaceWolfstagInteractive_1_1ConvoCore_1_1IConvoInput.html" target="_top" xlink:title="Input strategy interface.">
<polygon fill="white" stroke="#666666" points="1167.5,-365.04 1021.5,-365.04 1021.5,-335.04 1167.5,-335.04 1167.5,-365.04"/>
<text text-anchor="start" x="1029.5" y="-353.04" font-family="Helvetica,sans-Serif" font-size="10.00">WolfstagInteractive.Convo</text>
<text text-anchor="middle" x="1094.5" y="-342.04" font-family="Helvetica,sans-Serif" font-size="10.00">Core.IConvoInput</text>
</a>
</g>
</g>
<!-- Node14&#45;&gt;Node12 -->
<g id="edge22_Node000012_Node000014" class="edge">
<title>Node14&#45;&gt;Node12</title>
<g id="a_edge22_Node000012_Node000014"><a xlink:title=" ">
<path fill="none" stroke="#9a32cd" stroke-dasharray="5,2" d="M1177.95,-336.91C1218.14,-330.35 1267.15,-322.1 1311,-314.04 1323.11,-311.81 1335.95,-309.33 1348.41,-306.87"/>
<polygon fill="#9a32cd" stroke="#9a32cd" points="1177.24,-333.48 1167.93,-338.54 1178.36,-340.39 1177.24,-333.48"/>
</a>
</g>
<text text-anchor="middle" x="1261" y="-333.04" font-family="Helvetica,sans-Serif" font-size="10.00" fill="grey"> Input</text>
</g>
<!-- Node15&#45;&gt;Node12 -->
<g id="edge23_Node000012_Node000015" class="edge">
<title>Node15&#45;&gt;Node12</title>
<g id="a_edge23_Node000012_Node000015"><a xlink:title=" ">
<path fill="none" stroke="#9a32cd" stroke-dasharray="5,2" d="M1783.23,-173.9C1758.72,-195.2 1718.47,-226.8 1678,-244.04 1619.14,-269.1 1547.13,-281.13 1494.57,-286.87"/>
<polygon fill="#9a32cd" stroke="#9a32cd" points="1785.74,-176.35 1790.92,-167.11 1781.11,-171.11 1785.74,-176.35"/>
</a>
</g>
<text text-anchor="middle" x="1605" y="-285.04" font-family="Helvetica,sans-Serif" font-size="10.00" fill="grey"> ConversationUI</text>
</g>
<!-- Node16 -->
<g id="Node000016" class="node">
<title>Node16</title>
<g id="a_Node000016"><a xlink:href="interfaceWolfstagInteractive_1_1ConvoCore_1_1IUIFoundation.html" target="_top" xlink:title="Contract between the ConvoCore runner and a dialogue UI implementation.">
<polygon fill="white" stroke="#666666" points="1463.5,-71.54 1379.5,-71.54 1379.5,-52.54 1463.5,-52.54 1463.5,-71.54"/>
<text text-anchor="middle" x="1421.5" y="-59.54" font-family="Helvetica,sans-Serif" font-size="10.00">IUIFoundation</text>
</a>
</g>
</g>
<!-- Node16&#45;&gt;Node15 -->
<g id="edge25_Node000015_Node000016" class="edge">
<title>Node16&#45;&gt;Node15</title>
<g id="a_edge25_Node000015_Node000016"><a xlink:title=" ">
<path fill="none" stroke="#63b8ff" d="M1473.59,-68.92C1525.52,-76.45 1608.05,-89.92 1678,-108.04 1708.7,-115.99 1742.6,-127.67 1767.95,-137"/>
<polygon fill="#63b8ff" stroke="#63b8ff" points="1474.02,-65.45 1463.62,-67.49 1473.02,-72.37 1474.02,-65.45"/>
</a>
</g>
</g>
<!-- Node17&#45;&gt;Node15 -->
<g id="edge27_Node000015_Node000017" class="edge">
<title>Node17&#45;&gt;Node15</title>
<g id="a_edge27_Node000015_Node000017"><a xlink:title=" ">
<path fill="none" stroke="#9a32cd" stroke-dasharray="5,2" d="M1524.28,-111.33C1571.21,-114.86 1627.57,-120 1678,-127.04 1697.09,-129.7 1717.63,-133.33 1736.59,-137"/>
<polygon fill="#9a32cd" stroke="#9a32cd" points="1524.34,-107.82 1514.11,-110.57 1523.83,-114.8 1524.34,-107.82"/>
</a>
</g>
<text text-anchor="middle" x="1605" y="-130.04" font-family="Helvetica,sans-Serif" font-size="10.00" fill="grey"> ConvoCoreDialogueHistoryUI</text>
</g>
<!-- Node18&#45;&gt;Node17 -->
<g id="edge29_Node000017_Node000018" class="edge">
<title>Node18&#45;&gt;Node17</title>
<g id="a_edge29_Node000017_Node000018"><a xlink:title=" ">
<path fill="none" stroke="#9a32cd" stroke-dasharray="5,2" d="M319.19,-183.43C457.96,-156.32 747.88,-103.73 996,-85.04 1083.31,-78.46 1105.53,-81.2 1193,-85.04 1237.76,-87 1287.33,-91.13 1328.75,-95.12"/>
<polygon fill="#9a32cd" stroke="#9a32cd" points="318.2,-180.05 309.06,-185.41 319.55,-186.92 318.2,-180.05"/>
</a>
</g>
<text text-anchor="middle" x="875" y="-111.04" font-family="Helvetica,sans-Serif" font-size="10.00" fill="grey"> convoCoreSettings</text>
</g>
<!-- Node18&#45;&gt;Node18 -->
<g id="edge31_Node000018_Node000018" class="edge">
<title>Node18&#45;&gt;Node18</title>
<g id="a_edge31_Node000018_Node000018"><a xlink:title=" ">
<path fill="none" stroke="#9a32cd" stroke-dasharray="5,2" d="M215,-225.63C217.87,-230.01 224.87,-233.04 236,-233.04 254.75,-233.04 261.78,-224.44 257.09,-215.31"/>
<polygon fill="#9a32cd" stroke="#9a32cd" points="218.49,-225.28 214.91,-215.31 211.49,-225.34 218.49,-225.28"/>
</a>
</g>
<text text-anchor="middle" x="236" y="-236.04" font-family="Helvetica,sans-Serif" font-size="10.00" fill="grey"> _instance</text>
</g>
<!-- Node23 -->
<g id="Node000023" class="node">
<title>Node23</title>
<g id="a_Node000023"><a xlink:href="classWolfstagInteractive_1_1ConvoCore_1_1ConvoCoreLanguageManager.html" target="_top" xlink:title=" ">
<polygon fill="white" stroke="#666666" points="733.5,-215.04 548.5,-215.04 548.5,-185.04 733.5,-185.04 733.5,-215.04"/>
<text text-anchor="start" x="556.5" y="-203.04" font-family="Helvetica,sans-Serif" font-size="10.00">WolfstagInteractive.Convo</text>
<text text-anchor="middle" x="641" y="-192.04" font-family="Helvetica,sans-Serif" font-size="10.00">Core.ConvoCoreLanguageManager</text>
</a>
</g>
</g>
<!-- Node18&#45;&gt;Node23 -->
<g id="edge39_Node000023_Node000018" class="edge">
<title>Node18&#45;&gt;Node23</title>
<g id="a_edge39_Node000023_Node000018"><a xlink:title=" ">
<path fill="none" stroke="#9a32cd" stroke-dasharray="5,2" d="M319.08,-200.04C385.64,-200.04 479.41,-200.04 548.41,-200.04"/>
<polygon fill="#9a32cd" stroke="#9a32cd" points="319.05,-196.54 309.05,-200.04 319.05,-203.54 319.05,-196.54"/>
</a>
</g>
<text text-anchor="middle" x="433" y="-203.04" font-family="Helvetica,sans-Serif" font-size="10.00" fill="grey"> _convoCoreSettings</text>
</g>
<!-- Node19 -->
<g id="Node000019" class="node">
<title>Node19</title>
<g id="a_Node000019"><a xlink:href="interfaceWolfstagInteractive_1_1ConvoCore_1_1IConvoCoreHistoryRenderer.html" target="_top" xlink:title="Base contract for any dialogue history renderer.">
<polygon fill="white" stroke="#666666" points="1183.5,-124.04 1005.5,-124.04 1005.5,-94.04 1183.5,-94.04 1183.5,-124.04"/>
<text text-anchor="start" x="1013.5" y="-112.04" font-family="Helvetica,sans-Serif" font-size="10.00">WolfstagInteractive.Convo</text>
<text text-anchor="middle" x="1094.5" y="-101.04" font-family="Helvetica,sans-Serif" font-size="10.00">Core.IConvoCoreHistoryRenderer</text>
</a>
</g>
</g>
<!-- Node19&#45;&gt;Node17 -->
<g id="edge32_Node000017_Node000019" class="edge">
<title>Node19&#45;&gt;Node17</title>
<g id="a_edge32_Node000017_Node000019"><a xlink:title=" ">
<path fill="none" stroke="#9a32cd" stroke-dasharray="5,2" d="M1194.09,-102.66C1199.81,-102.42 1205.48,-102.2 1211,-102.04 1255.42,-100.69 1266.56,-101.43 1311,-102.04 1316.8,-102.12 1322.77,-102.22 1328.79,-102.34"/>
<polygon fill="#9a32cd" stroke="#9a32cd" points="1193.59,-99.18 1183.76,-103.14 1193.91,-106.17 1193.59,-99.18"/>
</a>
</g>
<text text-anchor="middle" x="1261" y="-105.04" font-family="Helvetica,sans-Serif" font-size="10.00" fill="grey"> _renderer</text>
</g>
<!-- Node20&#45;&gt;Node17 -->
<g id="edge33_Node000017_Node000020" class="edge">
<title>Node20&#45;&gt;Node17</title>
<g id="a_edge33_Node000017_Node000020"><a xlink:title=" ">
<path fill="none" stroke="#9a32cd" stroke-dasharray="5,2" d="M955.37,-11.36C1047.9,3.6 1202.03,14.21 1311,-52.04 1323.64,-59.72 1317.07,-71.28 1329,-80.04 1334.31,-83.93 1340.2,-87.22 1346.35,-90"/>
<polygon fill="#9a32cd" stroke="#9a32cd" points="954.8,-7.91 945.51,-13.01 955.95,-14.81 954.8,-7.91"/>
</a>
</g>
<text text-anchor="middle" x="1094.5" y="-11.04" font-family="Helvetica,sans-Serif" font-size="10.00" fill="grey"> _activeProfile</text>
</g>
<!-- Node21 -->
<g id="Node000021" class="node">
<title>Node21</title>
<g id="a_Node000021"><a xlink:href="interfaceWolfstagInteractive_1_1ConvoCore_1_1IConvoAudioProvider.html" target="_top" xlink:title="Interface for audio playback backends.">
<polygon fill="white" stroke="#666666" points="1167.5,-317.04 1021.5,-317.04 1021.5,-287.04 1167.5,-287.04 1167.5,-317.04"/>
<text text-anchor="start" x="1029.5" y="-305.04" font-family="Helvetica,sans-Serif" font-size="10.00">WolfstagInteractive.Convo</text>
<text text-anchor="middle" x="1094.5" y="-294.04" font-family="Helvetica,sans-Serif" font-size="10.00">Core.IConvoAudioProvider</text>
</a>
</g>
</g>
<!-- Node21&#45;&gt;Node12 -->
<g id="edge35_Node000012_Node000021" class="edge">
<title>Node21&#45;&gt;Node12</title>
<g id="a_edge35_Node000012_Node000021"><a xlink:title=" ">
<path fill="none" stroke="#9a32cd" stroke-dasharray="5,2" d="M1177.93,-299.5C1230.46,-297.88 1297.87,-295.81 1348.29,-294.26"/>
<polygon fill="#9a32cd" stroke="#9a32cd" points="1177.52,-296.01 1167.63,-299.82 1177.73,-303.01 1177.52,-296.01"/>
</a>
</g>
<text text-anchor="middle" x="1261" y="-302.04" font-family="Helvetica,sans-Serif" font-size="10.00" fill="grey"> _audioProvider</text>
</g>
<!-- Node22 -->
<g id="Node000022" class="node">
<title>Node22</title>
<g id="a_Node000022"><a xlink:href="classWolfstagInteractive_1_1ConvoCore_1_1ConvoCoreDialogueLocalizationHandler.html" target="_top" xlink:title=" ">
<polygon fill="white" stroke="#666666" points="1193,-220.54 996,-220.54 996,-179.54 1193,-179.54 1193,-220.54"/>
<text text-anchor="start" x="1004" y="-208.54" font-family="Helvetica,sans-Serif" font-size="10.00">WolfstagInteractive.Convo</text>
<text text-anchor="start" x="1004" y="-197.54" font-family="Helvetica,sans-Serif" font-size="10.00">Core.ConvoCoreDialogueLocalization</text>
<text text-anchor="middle" x="1094.5" y="-186.54" font-family="Helvetica,sans-Serif" font-size="10.00">Handler</text>
</a>
</g>
</g>
<!-- Node22&#45;&gt;Node12 -->
<g id="edge36_Node000012_Node000022" class="edge">
<title>Node22&#45;&gt;Node12</title>
<g id="a_edge36_Node000012_Node000022"><a xlink:title=" ">
<path fill="none" stroke="#9a32cd" stroke-dasharray="5,2" d="M1194.57,-222.91C1231.33,-231.91 1273.25,-242.78 1311,-254.04 1334.04,-260.91 1359.43,-269.64 1379.96,-277.01"/>
<polygon fill="#9a32cd" stroke="#9a32cd" points="1195.38,-219.51 1184.84,-220.55 1193.73,-226.31 1195.38,-219.51"/>
</a>
</g>
<text text-anchor="middle" x="1261" y="-257.04" font-family="Helvetica,sans-Serif" font-size="10.00" fill="grey"> LocalizationHandler</text>
</g>
<!-- Node23&#45;&gt;Node22 -->
<g id="edge37_Node000022_Node000023" class="edge">
<title>Node23&#45;&gt;Node22</title>
<g id="a_edge37_Node000022_Node000023"><a xlink:title=" ">
<path fill="none" stroke="#9a32cd" stroke-dasharray="5,2" d="M744.09,-200.04C819.46,-200.04 921.42,-200.04 995.74,-200.04"/>
<polygon fill="#9a32cd" stroke="#9a32cd" points="743.64,-196.54 733.64,-200.04 743.64,-203.54 743.64,-196.54"/>
</a>
</g>
<text text-anchor="middle" x="875" y="-203.04" font-family="Helvetica,sans-Serif" font-size="10.00" fill="grey"> _convoCoreLanguageManager</text>
</g>
<!-- Node23&#45;&gt;Node23 -->
<g id="edge38_Node000023_Node000023" class="edge">
<title>Node23&#45;&gt;Node23</title>
<g id="a_edge38_Node000023_Node000023"><a xlink:title=" ">
<path fill="none" stroke="#9a32cd" stroke-dasharray="5,2" d="M604.59,-225.63C609.57,-230.01 621.7,-233.04 641,-233.04 673.5,-233.04 685.69,-224.44 677.56,-215.31"/>
<polygon fill="#9a32cd" stroke="#9a32cd" points="608.09,-225.26 604.44,-215.31 601.09,-225.36 608.09,-225.26"/>
</a>
</g>
<text text-anchor="middle" x="641" y="-236.04" font-family="Helvetica,sans-Serif" font-size="10.00" fill="grey"> _instance</text>
</g>
<!-- Node24 -->
<g id="Node000024" class="node">
<title>Node24</title>
<g id="a_Node000024"><a xlink:href="interfaceWolfstagInteractive_1_1ConvoCore_1_1IConversationContext.html" target="_top" xlink:title="Provides optional runtime context for branch evaluation.">
<polygon fill="white" stroke="#666666" points="1168.5,-269.04 1020.5,-269.04 1020.5,-239.04 1168.5,-239.04 1168.5,-269.04"/>
<text text-anchor="start" x="1028.5" y="-257.04" font-family="Helvetica,sans-Serif" font-size="10.00">WolfstagInteractive.Convo</text>
<text text-anchor="middle" x="1094.5" y="-246.04" font-family="Helvetica,sans-Serif" font-size="10.00">Core.IConversationContext</text>
</a>
</g>
</g>
<!-- Node24&#45;&gt;Node12 -->
<g id="edge40_Node000012_Node000024" class="edge">
<title>Node24&#45;&gt;Node12</title>
<g id="a_edge40_Node000012_Node000024"><a xlink:title=" ">
<path fill="none" stroke="#9a32cd" stroke-dasharray="5,2" d="M1178.78,-263.77C1231.18,-269.9 1298.12,-277.73 1348.27,-283.59"/>
<polygon fill="#9a32cd" stroke="#9a32cd" points="1179.18,-260.3 1168.84,-262.61 1178.37,-267.25 1179.18,-260.3"/>
</a>
</g>
<text text-anchor="middle" x="1261" y="-282.04" font-family="Helvetica,sans-Serif" font-size="10.00" fill="grey"> _context</text>
</g>
<!-- Node25 -->
<g id="Node000025" class="node">
<title>Node25</title>
<g id="a_Node000025"><a xlink:href="structWolfstagInteractive_1_1ConvoCore_1_1ConvoStartContext.html" target="_top" xlink:title=" ">
<polygon fill="white" stroke="#666666" points="1494.5,-535.04 1348.5,-535.04 1348.5,-505.04 1494.5,-505.04 1494.5,-535.04"/>
<text text-anchor="start" x="1356.5" y="-523.04" font-family="Helvetica,sans-Serif" font-size="10.00">WolfstagInteractive.Convo</text>
<text text-anchor="middle" x="1421.5" y="-512.04" font-family="Helvetica,sans-Serif" font-size="10.00">Core.ConvoStartContext</text>
</a>
</g>
</g>
<!-- Node25&#45;&gt;Node1 -->
<g id="edge41_Node000001_Node000025" class="edge">
<title>Node25&#45;&gt;Node1</title>
<g id="a_edge41_Node000001_Node000025"><a xlink:title=" ">
<path fill="none" stroke="#9a32cd" stroke-dasharray="5,2" d="M1504.99,-515.32C1560.66,-512.13 1634.79,-507.89 1695.67,-504.41"/>
<polygon fill="#9a32cd" stroke="#9a32cd" points="1504.61,-511.83 1494.82,-515.9 1505.01,-518.82 1504.61,-511.83"/>
</a>
</g>
<text text-anchor="middle" x="1605" y="-516.04" font-family="Helvetica,sans-Serif" font-size="10.00" fill="grey"> _pendingContext</text>
</g>
</g>
</svg>
