<?xml version="1.0" encoding="UTF-8" standalone="no"?>
<!DOCTYPE svg PUBLIC "-//W3C//DTD SVG 1.1//EN"
 "http://www.w3.org/Graphics/SVG/1.1/DTD/svg11.dtd">
<!-- Generated by graphviz version 2.43.0 (0)
 -->
<!-- Title: WolfstagInteractive.ConvoCore.SaveSystem.ConvoCoreSaveManagerBootstrapper Pages: 1 -->
<svg width="1009pt" height="151pt"
 viewBox="0.00 0.00 1009.00 151.36" xmlns="http://www.w3.org/2000/svg" xmlns:xlink="http://www.w3.org/1999/xlink">
<g id="graph0" class="graph" transform="scale(1 1) rotate(0) translate(4 147.36)">
<title>WolfstagInteractive.ConvoCore.SaveSystem.ConvoCoreSaveManagerBootstrapper</title>
<!-- Node1 -->
<g id="Node000001" class="node">
<title>Node1</title>
<g id="a_Node000001"><a xlink:title=" ">
<polygon fill="#999999" stroke="#666666" points="1001,-132.5 775,-132.5 775,-91.5 1001,-91.5 1001,-132.5"/>
<text text-anchor="start" x="783" y="-120.5" font-family="Helvetica,sans-Serif" font-size="10.00">WolfstagInteractive.Convo</text>
<text text-anchor="start" x="783" y="-109.5" font-family="Helvetica,sans-Serif" font-size="10.00">Core.SaveSystem.ConvoCoreSaveManager</text>
<text text-anchor="middle" x="888" y="-98.5" font-family="Helvetica,sans-Serif" font-size="10.00">Bootstrapper</text>
</a>
</g>
</g>
<!-- Node2 -->
<g id="Node000002" class="node">
<title>Node2</title>
<g id="a_Node000002"><a xlink:title=" ">
<polygon fill="white" stroke="#666666" points="602.5,-142.5 509.5,-142.5 509.5,-123.5 602.5,-123.5 602.5,-142.5"/>
<text text-anchor="middle" x="556" y="-130.5" font-family="Helvetica,sans-Serif" font-size="10.00">MonoBehaviour</text>
</a>
</g>
</g>
<!-- Node2&#45;&gt;Node1 -->
<g id="edge1_Node000001_Node000002" class="edge">
<title>Node2&#45;&gt;Node1</title>
<g id="a_edge1_Node000001_Node000002"><a xlink:title=" ">
<path fill="none" stroke="#63b8ff" d="M612.8,-129.45C657.02,-126.63 720.25,-122.61 774.85,-119.14"/>
<polygon fill="#63b8ff" stroke="#63b8ff" points="612.3,-125.97 602.54,-130.1 612.74,-132.96 612.3,-125.97"/>
</a>
</g>
</g>
<!-- Node3 -->
<g id="Node000003" class="node">
<title>Node3</title>
<g id="a_Node000003"><a xlink:href="classWolfstagInteractive_1_1ConvoCore_1_1SaveSystem_1_1ConvoCoreSaveManager.html" target="_top" xlink:title=" ">
<polygon fill="white" stroke="#666666" points="669,-105 443,-105 443,-75 669,-75 669,-105"/>
<text text-anchor="start" x="451" y="-93" font-family="Helvetica,sans-Serif" font-size="10.00">WolfstagInteractive.Convo</text>
<text text-anchor="middle" x="556" y="-82" font-family="Helvetica,sans-Serif" font-size="10.00">Core.SaveSystem.ConvoCoreSaveManager</text>
</a>
</g>
</g>
<!-- Node3&#45;&gt;Node1 -->
<g id="edge2_Node000001_Node000003" class="edge">
<title>Node3&#45;&gt;Node1</title>
<g id="a_edge2_Node000001_Node000003"><a xlink:title=" ">
<path fill="none" stroke="#9a32cd" stroke-dasharray="5,2" d="M679.26,-98.15C710.57,-100.24 744.08,-102.47 774.85,-104.52"/>
<polygon fill="#9a32cd" stroke="#9a32cd" points="679.39,-94.65 669.18,-97.48 678.93,-101.64 679.39,-94.65"/>
</a>
</g>
<text text-anchor="middle" x="722" y="-105" font-family="Helvetica,sans-Serif" font-size="10.00" fill="grey"> SaveManager</text>
</g>
<!-- Node4 -->
<g id="Node000004" class="node">
<title>Node4</title>
<g id="a_Node000004"><a xlink:title=" ">
<polygon fill="white" stroke="#666666" points="97,-120.5 0,-120.5 0,-101.5 97,-101.5 97,-120.5"/>
<text text-anchor="middle" x="48.5" y="-108.5" font-family="Helvetica,sans-Serif" font-size="10.00">ScriptableObject</text>
</a>
</g>
</g>
<!-- Node4&#45;&gt;Node3 -->
<g id="edge3_Node000003_Node000004" class="edge">
<title>Node4&#45;&gt;Node3</title>
<g id="a_edge3_Node000003_Node000004"><a xlink:title=" ">
<path fill="none" stroke="#63b8ff" d="M85.86,-123.71C100.61,-128.24 117.92,-132.76 134,-135 223.8,-147.51 247.8,-144.23 338,-135 377.28,-130.98 386.34,-125.01 425,-117 443.73,-113.12 463.99,-108.91 482.8,-105.01"/>
<polygon fill="#63b8ff" stroke="#63b8ff" points="86.7,-120.31 76.11,-120.61 84.58,-126.98 86.7,-120.31"/>
</a>
</g>
</g>
<!-- Node5 -->
<g id="Node000005" class="node">
<title>Node5</title>
<g id="a_Node000005"><a xlink:href="classWolfstagInteractive_1_1ConvoCore_1_1SaveSystem_1_1ConvoVariableStore.html" target="_top" xlink:title=" ">
<polygon fill="white" stroke="#666666" points="337,-126 135,-126 135,-96 337,-96 337,-126"/>
<text text-anchor="start" x="143" y="-114" font-family="Helvetica,sans-Serif" font-size="10.00">WolfstagInteractive.Convo</text>
<text text-anchor="middle" x="236" y="-103" font-family="Helvetica,sans-Serif" font-size="10.00">Core.SaveSystem.ConvoVariableStore</text>
</a>
</g>
</g>
<!-- Node4&#45;&gt;Node5 -->
<g id="edge5_Node000005_Node000004" class="edge">
<title>Node4&#45;&gt;Node5</title>
<g id="a_edge5_Node000005_Node000004"><a xlink:title=" ">
<path fill="none" stroke="#63b8ff" d="M107.32,-111C116.1,-111 125.36,-111 134.73,-111"/>
<polygon fill="#63b8ff" stroke="#63b8ff" points="107.27,-107.5 97.27,-111 107.27,-114.5 107.27,-107.5"/>
</a>
</g>
</g>
<!-- Node6 -->
<g id="Node000006" class="node">
<title>Node6</title>
<g id="a_Node000006"><a xlink:href="classWolfstagInteractive_1_1ConvoCore_1_1SaveSystem_1_1ConvoSettingsState.html" target="_top" xlink:title=" ">
<polygon fill="white" stroke="#666666" points="337,-78 135,-78 135,-48 337,-48 337,-78"/>
<text text-anchor="start" x="143" y="-66" font-family="Helvetica,sans-Serif" font-size="10.00">WolfstagInteractive.Convo</text>
<text text-anchor="middle" x="236" y="-55" font-family="Helvetica,sans-Serif" font-size="10.00">Core.SaveSystem.ConvoSettingsState</text>
</a>
</g>
</g>
<!-- Node4&#45;&gt;Node6 -->
<g id="edge7_Node000006_Node000004" class="edge">
<title>Node4&#45;&gt;Node6</title>
<g id="a_edge7_Node000006_Node000004"><a xlink:title=" ">
<path fill="none" stroke="#63b8ff" d="M91.85,-98.58C105.3,-94.74 120.24,-90.59 134,-87 145.6,-83.98 157.99,-80.9 169.97,-78.01"/>
<polygon fill="#63b8ff" stroke="#63b8ff" points="90.56,-95.31 81.91,-101.44 92.49,-102.04 90.56,-95.31"/>
</a>
</g>
</g>
<!-- Node5&#45;&gt;Node3 -->
<g id="edge4_Node000003_Node000005" class="edge">
<title>Node5&#45;&gt;Node3</title>
<g id="a_edge4_Node000003_Node000005"><a xlink:title=" ">
<path fill="none" stroke="#9a32cd" stroke-dasharray="5,2" d="M347.53,-103.7C378.39,-101.66 411.93,-99.45 442.88,-97.4"/>
<polygon fill="#9a32cd" stroke="#9a32cd" points="346.93,-100.23 337.18,-104.38 347.39,-107.22 346.93,-100.23"/>
</a>
</g>
<text text-anchor="middle" x="390.5" y="-105" font-family="Helvetica,sans-Serif" font-size="10.00" fill="grey"> VariableStore</text>
</g>
<!-- Node6&#45;&gt;Node3 -->
<g id="edge6_Node000003_Node000006" class="edge">
<title>Node6&#45;&gt;Node3</title>
<g id="a_edge6_Node000003_Node000006"><a xlink:title=" ">
<path fill="none" stroke="#9a32cd" stroke-dasharray="5,2" d="M347.53,-72.38C378.39,-75 411.93,-77.85 442.88,-80.48"/>
<polygon fill="#9a32cd" stroke="#9a32cd" points="347.44,-68.86 337.18,-71.51 346.85,-75.84 347.44,-68.86"/>
</a>
</g>
<text text-anchor="middle" x="390.5" y="-81" font-family="Helvetica,sans-Serif" font-size="10.00" fill="grey"> SettingsState</text>
</g>
<!-- Node7 -->
<g id="Node000007" class="node">
<title>Node7</title>
<g id="a_Node000007"><a xlink:href="interfaceWolfstagInteractive_1_1ConvoCore_1_1SaveSystem_1_1IConvoSaveProvider.html" target="_top" xlink:title=" ">
<polygon fill="white" stroke="#666666" points="338,-30 134,-30 134,0 338,0 338,-30"/>
<text text-anchor="start" x="142" y="-18" font-family="Helvetica,sans-Serif" font-size="10.00">WolfstagInteractive.Convo</text>
<text text-anchor="middle" x="236" y="-7" font-family="Helvetica,sans-Serif" font-size="10.00">Core.SaveSystem.IConvoSaveProvider</text>
</a>
</g>
</g>
<!-- Node7&#45;&gt;Node3 -->
<g id="edge8_Node000003_Node000007" class="edge">
<title>Node7&#45;&gt;Node3</title>
<g id="a_edge8_Node000003_Node000007"><a xlink:title=" ">
<path fill="none" stroke="#9a32cd" stroke-dasharray="5,2" d="M313.95,-32.3C348.01,-40.03 388.53,-49.34 425,-58 447.84,-63.42 472.89,-69.55 494.86,-74.98"/>
<polygon fill="#9a32cd" stroke="#9a32cd" points="314.59,-28.85 304.06,-30.06 313.04,-35.68 314.59,-28.85"/>
</a>
</g>
<text text-anchor="middle" x="390.5" y="-61" font-family="Helvetica,sans-Serif" font-size="10.00" fill="grey"> _provider</text>
</g>
</g>
</svg>
