<?xml version="1.0" encoding="UTF-8" standalone="no"?>
<!DOCTYPE svg PUBLIC "-//W3C//DTD SVG 1.1//EN"
 "http://www.w3.org/Graphics/SVG/1.1/DTD/svg11.dtd">
<!-- Generated by graphviz version 2.43.0 (0)
 -->
<!-- Title: WolfstagInteractive.ConvoCore.SequencedBehaviour Pages: 1 -->
<svg width="555pt" height="76pt"
 viewBox="0.00 0.00 555.00 75.50" xmlns="http://www.w3.org/2000/svg" xmlns:xlink="http://www.w3.org/1999/xlink">
<g id="graph0" class="graph" transform="scale(1 1) rotate(0) translate(4 71.5)">
<title>WolfstagInteractive.ConvoCore.SequencedBehaviour</title>
<!-- Node1 -->
<g id="Node000001" class="node">
<title>Node1</title>
<g id="a_Node000001"><a xlink:title="Character behaviour type that wraps a list of other behaviour types and selects between them based on...">
<polygon fill="#999999" stroke="#666666" points="547,-53 401,-53 401,-23 547,-23 547,-53"/>
<text text-anchor="start" x="409" y="-41" font-family="Helvetica,sans-Serif" font-size="10.00">WolfstagInteractive.Convo</text>
<text text-anchor="middle" x="474" y="-30" font-family="Helvetica,sans-Serif" font-size="10.00">Core.SequencedBehaviour</text>
</a>
</g>
</g>
<!-- Node2 -->
<g id="Node000002" class="node">
<title>Node2</title>
<g id="a_Node000002"><a xlink:href="classWolfstagInteractive_1_1ConvoCore_1_1ConvoCoreCharacterBehaviour.html" target="_top" xlink:title="Abstract ScriptableObject base for all character behaviour types.">
<polygon fill="white" stroke="#666666" points="313.5,-67.5 146.5,-67.5 146.5,-48.5 313.5,-48.5 313.5,-67.5"/>
<text text-anchor="middle" x="230" y="-55.5" font-family="Helvetica,sans-Serif" font-size="10.00">ConvoCoreCharacterBehaviour</text>
</a>
</g>
</g>
<!-- Node2&#45;&gt;Node1 -->
<g id="edge1_Node000001_Node000002" class="edge">
<title>Node2&#45;&gt;Node1</title>
<g id="a_edge1_Node000001_Node000002"><a xlink:title=" ">
<path fill="none" stroke="#63b8ff" d="M323.69,-50.34C349.27,-48.23 376.64,-45.96 400.87,-43.96"/>
<polygon fill="#63b8ff" stroke="#63b8ff" points="323.28,-46.86 313.61,-51.17 323.86,-53.84 323.28,-46.86"/>
</a>
</g>
</g>
<!-- Node3 -->
<g id="Node000003" class="node">
<title>Node3</title>
<g id="a_Node000003"><a xlink:title=" ">
<polygon fill="white" stroke="#666666" points="97,-45.5 0,-45.5 0,-26.5 97,-26.5 97,-45.5"/>
<text text-anchor="middle" x="48.5" y="-33.5" font-family="Helvetica,sans-Serif" font-size="10.00">ScriptableObject</text>
</a>
</g>
</g>
<!-- Node3&#45;&gt;Node2 -->
<g id="edge2_Node000002_Node000003" class="edge">
<title>Node3&#45;&gt;Node2</title>
<g id="a_edge2_Node000002_Node000003"><a xlink:title=" ">
<path fill="none" stroke="#63b8ff" d="M107.13,-43.06C121.19,-44.79 136.46,-46.66 151.28,-48.47"/>
<polygon fill="#63b8ff" stroke="#63b8ff" points="107.48,-39.58 97.13,-41.84 106.63,-46.53 107.48,-39.58"/>
</a>
</g>
</g>
<!-- Node4 -->
<g id="Node000004" class="node">
<title>Node4</title>
<g id="a_Node000004"><a xlink:href="classWolfstagInteractive_1_1ConvoCore_1_1ConvoCoreCharacterBehaviour.html" target="_top" xlink:title="Abstract ScriptableObject base for all character behaviour types.">
<polygon fill="white" stroke="#666666" points="326,-30 134,-30 134,0 326,0 326,-30"/>
<text text-anchor="start" x="142" y="-18" font-family="Helvetica,sans-Serif" font-size="10.00">WolfstagInteractive.Convo</text>
<text text-anchor="middle" x="230" y="-7" font-family="Helvetica,sans-Serif" font-size="10.00">Core.ConvoCoreCharacterBehaviour</text>
</a>
</g>
</g>
<!-- Node3&#45;&gt;Node4 -->
<g id="edge4_Node000004_Node000003" class="edge">
<title>Node3&#45;&gt;Node4</title>
<g id="a_edge4_Node000004_Node000003"><a xlink:title=" ">
<path fill="none" stroke="#63b8ff" d="M107.31,-29.24C115.85,-28.24 124.84,-27.19 133.91,-26.13"/>
<polygon fill="#63b8ff" stroke="#63b8ff" points="106.66,-25.79 97.13,-30.43 107.47,-32.74 106.66,-25.79"/>
</a>
</g>
</g>
<!-- Node4&#45;&gt;Node1 -->
<g id="edge3_Node000001_Node000004" class="edge">
<title>Node4&#45;&gt;Node1</title>
<g id="a_edge3_Node000001_Node000004"><a xlink:title=" ">
<path fill="none" stroke="#9a32cd" stroke-dasharray="5,2" d="M336.27,-25.01C358.12,-27.08 380.66,-29.22 400.98,-31.16"/>
<polygon fill="#9a32cd" stroke="#9a32cd" points="336.58,-21.52 326.3,-24.06 335.92,-28.49 336.58,-21.52"/>
</a>
</g>
<text text-anchor="middle" x="363.5" y="-33" font-family="Helvetica,sans-Serif" font-size="10.00" fill="grey"> _active</text>
</g>
</g>
</svg>
