<?xml version="1.0" encoding="UTF-8" standalone="no"?>
<!DOCTYPE svg PUBLIC "-//W3C//DTD SVG 1.1//EN"
 "http://www.w3.org/Graphics/SVG/1.1/DTD/svg11.dtd">
<!-- Generated by graphviz version 2.43.0 (0)
 -->
<!-- Title: WolfstagInteractive.ConvoCore.SimplePrefabRepresentationDisplay Pages: 1 -->
<svg width="907pt" height="122pt"
 viewBox="0.00 0.00 907.00 122.00" xmlns="http://www.w3.org/2000/svg" xmlns:xlink="http://www.w3.org/1999/xlink">
<g id="graph0" class="graph" transform="scale(1 1) rotate(0) translate(4 118)">
<title>WolfstagInteractive.ConvoCore.SimplePrefabRepresentationDisplay</title>
<!-- Node1 -->
<g id="Node000001" class="node">
<title>Node1</title>
<g id="a_Node000001"><a xlink:title=" ">
<polygon fill="#999999" stroke="#666666" points="899,-69 717,-69 717,-28 899,-28 899,-69"/>
<text text-anchor="start" x="725" y="-57" font-family="Helvetica,sans-Serif" font-size="10.00">WolfstagInteractive.Convo</text>
<text text-anchor="start" x="725" y="-46" font-family="Helvetica,sans-Serif" font-size="10.00">Core.SimplePrefabRepresentation</text>
<text text-anchor="middle" x="808" y="-35" font-family="Helvetica,sans-Serif" font-size="10.00">Display</text>
</a>
</g>
</g>
<!-- Node2 -->
<g id="Node000002" class="node">
<title>Node2</title>
<g id="a_Node000002"><a xlink:href="classWolfstagInteractive_1_1ConvoCore_1_1ConvoCoreCharacterDisplayBase.html" target="_top" xlink:title="Generic base class for all prefab&#45;based character displays.">
<polygon fill="white" stroke="#666666" points="616,-80 438,-80 438,-61 616,-61 616,-80"/>
<text text-anchor="middle" x="527" y="-68" font-family="Helvetica,sans-Serif" font-size="10.00">ConvoCoreCharacterDisplayBase</text>
</a>
</g>
</g>
<!-- Node2&#45;&gt;Node1 -->
<g id="edge1_Node000001_Node000002" class="edge">
<title>Node2&#45;&gt;Node1</title>
<g id="a_edge1_Node000001_Node000002"><a xlink:title=" ">
<path fill="none" stroke="#63b8ff" d="M626.56,-62.73C655.98,-60.41 688.05,-57.88 716.9,-55.6"/>
<polygon fill="#63b8ff" stroke="#63b8ff" points="625.97,-59.26 616.28,-63.54 626.52,-66.24 625.97,-59.26"/>
</a>
</g>
</g>
<!-- Node3 -->
<g id="Node000003" class="node">
<title>Node3</title>
<g id="a_Node000003"><a xlink:title=" ">
<polygon fill="white" stroke="#666666" points="346.5,-114 253.5,-114 253.5,-95 346.5,-95 346.5,-114"/>
<text text-anchor="middle" x="300" y="-102" font-family="Helvetica,sans-Serif" font-size="10.00">MonoBehaviour</text>
</a>
</g>
</g>
<!-- Node3&#45;&gt;Node2 -->
<g id="edge2_Node000002_Node000003" class="edge">
<title>Node3&#45;&gt;Node2</title>
<g id="a_edge2_Node000002_Node000003"><a xlink:title=" ">
<path fill="none" stroke="#63b8ff" d="M356.69,-96.08C388.94,-91.21 429.65,-85.06 463.06,-80.01"/>
<polygon fill="#63b8ff" stroke="#63b8ff" points="355.9,-92.66 346.53,-97.62 356.94,-99.59 355.9,-92.66"/>
</a>
</g>
</g>
<!-- Node4 -->
<g id="Node000004" class="node">
<title>Node4</title>
<g id="a_Node000004"><a xlink:href="interfaceWolfstagInteractive_1_1ConvoCore_1_1IConvoCoreCharacterDisplay.html" target="_top" xlink:title=" ">
<polygon fill="white" stroke="#666666" points="378.5,-77 221.5,-77 221.5,-58 378.5,-58 378.5,-77"/>
<text text-anchor="middle" x="300" y="-65" font-family="Helvetica,sans-Serif" font-size="10.00">IConvoCoreCharacterDisplay</text>
</a>
</g>
</g>
<!-- Node4&#45;&gt;Node2 -->
<g id="edge3_Node000002_Node000004" class="edge">
<title>Node4&#45;&gt;Node2</title>
<g id="a_edge3_Node000002_Node000004"><a xlink:title=" ">
<path fill="none" stroke="#63b8ff" d="M389.15,-68.68C405.14,-68.89 421.83,-69.11 437.83,-69.32"/>
<polygon fill="#63b8ff" stroke="#63b8ff" points="388.79,-65.17 378.75,-68.54 388.7,-72.17 388.79,-65.17"/>
</a>
</g>
</g>
<!-- Node5 -->
<g id="Node000005" class="node">
<title>Node5</title>
<g id="a_Node000005"><a xlink:href="classWolfstagInteractive_1_1ConvoCore_1_1PrefabCharacterRepresentationData.html" target="_top" xlink:title=" ">
<polygon fill="white" stroke="#666666" points="636,-42.5 418,-42.5 418,-12.5 636,-12.5 636,-42.5"/>
<text text-anchor="start" x="426" y="-30.5" font-family="Helvetica,sans-Serif" font-size="10.00">WolfstagInteractive.Convo</text>
<text text-anchor="middle" x="527" y="-19.5" font-family="Helvetica,sans-Serif" font-size="10.00">Core.PrefabCharacterRepresentationData</text>
</a>
</g>
</g>
<!-- Node5&#45;&gt;Node1 -->
<g id="edge4_Node000001_Node000005" class="edge">
<title>Node5&#45;&gt;Node1</title>
<g id="a_edge4_Node000001_Node000005"><a xlink:title=" ">
<path fill="none" stroke="#9a32cd" stroke-dasharray="5,2" d="M646.33,-36.41C669.94,-38.18 694.39,-40.02 716.87,-41.72"/>
<polygon fill="#9a32cd" stroke="#9a32cd" points="646.5,-32.91 636.27,-35.65 645.98,-39.89 646.5,-32.91"/>
</a>
</g>
<text text-anchor="middle" x="676.5" y="-42.5" font-family="Helvetica,sans-Serif" font-size="10.00" fill="grey"> _catalog</text>
</g>
<!-- Node6 -->
<g id="Node000006" class="node">
<title>Node6</title>
<g id="a_Node000006"><a xlink:href="classWolfstagInteractive_1_1ConvoCore_1_1CharacterRepresentationBase.html" target="_top" xlink:title=" ">
<polygon fill="white" stroke="#666666" points="381,-37 219,-37 219,-18 381,-18 381,-37"/>
<text text-anchor="middle" x="300" y="-25" font-family="Helvetica,sans-Serif" font-size="10.00">CharacterRepresentationBase</text>
</a>
</g>
</g>
<!-- Node6&#45;&gt;Node5 -->
<g id="edge5_Node000005_Node000006" class="edge">
<title>Node6&#45;&gt;Node5</title>
<g id="a_edge5_Node000005_Node000006"><a xlink:title=" ">
<path fill="none" stroke="#63b8ff" d="M391.4,-27.5C400.1,-27.5 408.99,-27.5 417.84,-27.5"/>
<polygon fill="#63b8ff" stroke="#63b8ff" points="391.28,-24 381.28,-27.5 391.28,-31 391.28,-24"/>
</a>
</g>
</g>
<!-- Node7 -->
<g id="Node000007" class="node">
<title>Node7</title>
<g id="a_Node000007"><a xlink:title=" ">
<polygon fill="white" stroke="#666666" points="139.5,-56 42.5,-56 42.5,-37 139.5,-37 139.5,-56"/>
<text text-anchor="middle" x="91" y="-44" font-family="Helvetica,sans-Serif" font-size="10.00">ScriptableObject</text>
</a>
</g>
</g>
<!-- Node7&#45;&gt;Node6 -->
<g id="edge6_Node000006_Node000007" class="edge">
<title>Node7&#45;&gt;Node6</title>
<g id="a_edge6_Node000006_Node000007"><a xlink:title=" ">
<path fill="none" stroke="#63b8ff" d="M149.92,-41.18C171.22,-39.23 195.72,-36.98 218.64,-34.88"/>
<polygon fill="#63b8ff" stroke="#63b8ff" points="149.39,-37.72 139.75,-42.12 150.03,-44.69 149.39,-37.72"/>
</a>
</g>
</g>
<!-- Node8 -->
<g id="Node000008" class="node">
<title>Node8</title>
<g id="a_Node000008"><a xlink:href="interfaceWolfstagInteractive_1_1ConvoCore_1_1IEditorPreviewableRepresentation.html" target="_top" xlink:title=" ">
<polygon fill="white" stroke="#666666" points="182,-19 0,-19 0,0 182,0 182,-19"/>
<text text-anchor="middle" x="91" y="-7" font-family="Helvetica,sans-Serif" font-size="10.00">IEditorPreviewableRepresentation</text>
</a>
</g>
</g>
<!-- Node8&#45;&gt;Node6 -->
<g id="edge7_Node000006_Node000008" class="edge">
<title>Node8&#45;&gt;Node6</title>
<g id="a_edge7_Node000006_Node000008"><a xlink:title=" ">
<path fill="none" stroke="#63b8ff" d="M192.24,-18.22C201.17,-18.99 210.13,-19.77 218.86,-20.53"/>
<polygon fill="#63b8ff" stroke="#63b8ff" points="192.46,-14.72 182.19,-17.34 191.85,-21.7 192.46,-14.72"/>
</a>
</g>
</g>
</g>
</svg>
