<?xml version="1.0" encoding="UTF-8" standalone="no"?>
<!DOCTYPE svg PUBLIC "-//W3C//DTD SVG 1.1//EN"
 "http://www.w3.org/Graphics/SVG/1.1/DTD/svg11.dtd">
<!-- Generated by graphviz version 2.43.0 (0)
 -->
<!-- Title: WolfstagInteractive.ConvoCore.ConvoCoreCharacterBehaviour Pages: 1 -->
<svg width="765pt" height="278pt"
 viewBox="0.00 0.00 765.00 278.00" xmlns="http://www.w3.org/2000/svg" xmlns:xlink="http://www.w3.org/1999/xlink">
<g id="graph0" class="graph" transform="scale(1 1) rotate(0) translate(4 274)">
<title>WolfstagInteractive.ConvoCore.ConvoCoreCharacterBehaviour</title>
<!-- Node1 -->
<g id="Node000001" class="node">
<title>Node1</title>
<g id="a_Node000001"><a xlink:title="Abstract ScriptableObject base for all character behaviour types.">
<polygon fill="#999999" stroke="#666666" points="325,-150 133,-150 133,-120 325,-120 325,-150"/>
<text text-anchor="start" x="141" y="-138" font-family="Helvetica,sans-Serif" font-size="10.00">WolfstagInteractive.Convo</text>
<text text-anchor="middle" x="229" y="-127" font-family="Helvetica,sans-Serif" font-size="10.00">Core.ConvoCoreCharacterBehaviour</text>
</a>
</g>
</g>
<!-- Node3 -->
<g id="Node000003" class="node">
<title>Node3</title>
<g id="a_Node000003"><a xlink:href="classWolfstagInteractive_1_1ConvoCore_1_1CameraRelativeBehaviour.html" target="_top" xlink:title="Character behaviour type that places characters at authored offsets relative to the active camera.">
<polygon fill="white" stroke="#666666" points="531,-270 361,-270 361,-240 531,-240 531,-270"/>
<text text-anchor="start" x="369" y="-258" font-family="Helvetica,sans-Serif" font-size="10.00">WolfstagInteractive.Convo</text>
<text text-anchor="middle" x="446" y="-247" font-family="Helvetica,sans-Serif" font-size="10.00">Core.CameraRelativeBehaviour</text>
</a>
</g>
</g>
<!-- Node1&#45;&gt;Node3 -->
<g id="edge2_Node000001_Node000003" class="edge">
<title>Node1&#45;&gt;Node3</title>
<g id="a_edge2_Node000001_Node000003"><a xlink:title=" ">
<path fill="none" stroke="#63b8ff" d="M254.07,-156.76C279.12,-178.37 320.33,-211.08 361,-231 367.81,-234.34 375.17,-237.28 382.59,-239.87"/>
<polygon fill="#63b8ff" stroke="#63b8ff" points="256.35,-154.1 246.52,-150.16 251.75,-159.37 256.35,-154.1"/>
</a>
</g>
</g>
<!-- Node4 -->
<g id="Node000004" class="node">
<title>Node4</title>
<g id="a_Node000004"><a xlink:href="classWolfstagInteractive_1_1ConvoCore_1_1ExternalBehaviour.html" target="_top" xlink:title="Character behaviour type for characters that are fully managed by the developer.">
<polygon fill="white" stroke="#666666" points="519,-222 373,-222 373,-192 519,-192 519,-222"/>
<text text-anchor="start" x="381" y="-210" font-family="Helvetica,sans-Serif" font-size="10.00">WolfstagInteractive.Convo</text>
<text text-anchor="middle" x="446" y="-199" font-family="Helvetica,sans-Serif" font-size="10.00">Core.ExternalBehaviour</text>
</a>
</g>
</g>
<!-- Node1&#45;&gt;Node4 -->
<g id="edge3_Node000001_Node000004" class="edge">
<title>Node1&#45;&gt;Node4</title>
<g id="a_edge3_Node000001_Node000004"><a xlink:title=" ">
<path fill="none" stroke="#63b8ff" d="M278.19,-153.61C302.82,-162.88 333.35,-174 361,-183 370.37,-186.05 380.4,-189.1 390.15,-191.95"/>
<polygon fill="#63b8ff" stroke="#63b8ff" points="279.31,-150.29 268.72,-150.03 276.83,-156.84 279.31,-150.29"/>
</a>
</g>
</g>
<!-- Node6 -->
<g id="Node000006" class="node">
<title>Node6</title>
<g id="a_Node000006"><a xlink:href="classWolfstagInteractive_1_1ConvoCore_1_1FollowTargetBehaviour.html" target="_top" xlink:title="Character behaviour type that spawns characters and keeps them following a scene Transform during the...">
<polygon fill="white" stroke="#666666" points="522.5,-174 369.5,-174 369.5,-144 522.5,-144 522.5,-174"/>
<text text-anchor="start" x="377.5" y="-162" font-family="Helvetica,sans-Serif" font-size="10.00">WolfstagInteractive.Convo</text>
<text text-anchor="middle" x="446" y="-151" font-family="Helvetica,sans-Serif" font-size="10.00">Core.FollowTargetBehaviour</text>
</a>
</g>
</g>
<!-- Node1&#45;&gt;Node6 -->
<g id="edge5_Node000001_Node000006" class="edge">
<title>Node1&#45;&gt;Node6</title>
<g id="a_edge5_Node000001_Node000006"><a xlink:title=" ">
<path fill="none" stroke="#63b8ff" d="M335.28,-146.75C346.72,-148.03 358.2,-149.31 369.19,-150.54"/>
<polygon fill="#63b8ff" stroke="#63b8ff" points="335.57,-143.26 325.24,-145.63 334.79,-150.22 335.57,-143.26"/>
</a>
</g>
</g>
<!-- Node7 -->
<g id="Node000007" class="node">
<title>Node7</title>
<g id="a_Node000007"><a xlink:href="classWolfstagInteractive_1_1ConvoCore_1_1SequencedBehaviour.html" target="_top" xlink:title="Character behaviour type that wraps a list of other behaviour types and selects between them based on...">
<polygon fill="white" stroke="#666666" points="519,-126 373,-126 373,-96 519,-96 519,-126"/>
<text text-anchor="start" x="381" y="-114" font-family="Helvetica,sans-Serif" font-size="10.00">WolfstagInteractive.Convo</text>
<text text-anchor="middle" x="446" y="-103" font-family="Helvetica,sans-Serif" font-size="10.00">Core.SequencedBehaviour</text>
</a>
</g>
</g>
<!-- Node1&#45;&gt;Node7 -->
<g id="edge6_Node000001_Node000007" class="edge">
<title>Node1&#45;&gt;Node7</title>
<g id="a_edge6_Node000001_Node000007"><a xlink:title=" ">
<path fill="none" stroke="#63b8ff" d="M335.37,-123.24C348.03,-121.83 360.72,-120.41 372.76,-119.06"/>
<polygon fill="#63b8ff" stroke="#63b8ff" points="334.79,-119.78 325.24,-124.37 335.57,-126.74 334.79,-119.78"/>
</a>
</g>
</g>
<!-- Node8 -->
<g id="Node000008" class="node">
<title>Node8</title>
<g id="a_Node000008"><a xlink:href="classWolfstagInteractive_1_1ConvoCore_1_1TransformLerpBehaviour.html" target="_top" xlink:title="Character behaviour type for scene&#45;resident characters that move to an authored offset position when ...">
<polygon fill="white" stroke="#666666" points="526.5,-78 365.5,-78 365.5,-48 526.5,-48 526.5,-78"/>
<text text-anchor="start" x="373.5" y="-66" font-family="Helvetica,sans-Serif" font-size="10.00">WolfstagInteractive.Convo</text>
<text text-anchor="middle" x="446" y="-55" font-family="Helvetica,sans-Serif" font-size="10.00">Core.TransformLerpBehaviour</text>
</a>
</g>
</g>
<!-- Node1&#45;&gt;Node8 -->
<g id="edge7_Node000001_Node000008" class="edge">
<title>Node1&#45;&gt;Node8</title>
<g id="a_edge7_Node000001_Node000008"><a xlink:title=" ">
<path fill="none" stroke="#63b8ff" d="M278.19,-116.39C302.82,-107.12 333.35,-96 361,-87 370.37,-83.95 380.4,-80.9 390.15,-78.05"/>
<polygon fill="#63b8ff" stroke="#63b8ff" points="276.83,-113.16 268.72,-119.97 279.31,-119.71 276.83,-113.16"/>
</a>
</g>
</g>
<!-- Node9 -->
<g id="Node000009" class="node">
<title>Node9</title>
<g id="a_Node000009"><a xlink:href="classWolfstagInteractive_1_1ConvoCore_1_1WorldPointBehaviour.html" target="_top" xlink:title="Character behaviour type that places characters at scene&#45;authored positions.">
<polygon fill="white" stroke="#666666" points="519,-30 373,-30 373,0 519,0 519,-30"/>
<text text-anchor="start" x="381" y="-18" font-family="Helvetica,sans-Serif" font-size="10.00">WolfstagInteractive.Convo</text>
<text text-anchor="middle" x="446" y="-7" font-family="Helvetica,sans-Serif" font-size="10.00">Core.WorldPointBehaviour</text>
</a>
</g>
</g>
<!-- Node1&#45;&gt;Node9 -->
<g id="edge8_Node000001_Node000009" class="edge">
<title>Node1&#45;&gt;Node9</title>
<g id="a_edge8_Node000001_Node000009"><a xlink:title=" ">
<path fill="none" stroke="#63b8ff" d="M254.07,-113.24C279.12,-91.63 320.33,-58.92 361,-39 367.81,-35.66 375.17,-32.72 382.59,-30.13"/>
<polygon fill="#63b8ff" stroke="#63b8ff" points="251.75,-110.63 246.52,-119.84 256.35,-115.9 251.75,-110.63"/>
</a>
</g>
</g>
<!-- Node2 -->
<g id="Node000002" class="node">
<title>Node2</title>
<g id="a_Node000002"><a xlink:title=" ">
<polygon fill="white" stroke="#666666" points="97,-144.5 0,-144.5 0,-125.5 97,-125.5 97,-144.5"/>
<text text-anchor="middle" x="48.5" y="-132.5" font-family="Helvetica,sans-Serif" font-size="10.00">ScriptableObject</text>
</a>
</g>
</g>
<!-- Node2&#45;&gt;Node1 -->
<g id="edge1_Node000001_Node000002" class="edge">
<title>Node2&#45;&gt;Node1</title>
<g id="a_edge1_Node000001_Node000002"><a xlink:title=" ">
<path fill="none" stroke="#63b8ff" d="M107.44,-135C115.6,-135 124.17,-135 132.81,-135"/>
<polygon fill="#63b8ff" stroke="#63b8ff" points="107.33,-131.5 97.33,-135 107.33,-138.5 107.33,-131.5"/>
</a>
</g>
</g>
<!-- Node5 -->
<g id="Node000005" class="node">
<title>Node5</title>
<g id="a_Node000005"><a xlink:href="classWolfstagInteractive_1_1ConvoCore_1_1ConvoCoreAnimatorBehaviour.html" target="_top" xlink:title="Character behaviour type for scene&#45;resident characters that are driven by an Animator.">
<polygon fill="white" stroke="#666666" points="757,-222 567,-222 567,-192 757,-192 757,-222"/>
<text text-anchor="start" x="575" y="-210" font-family="Helvetica,sans-Serif" font-size="10.00">WolfstagInteractive.Convo</text>
<text text-anchor="middle" x="662" y="-199" font-family="Helvetica,sans-Serif" font-size="10.00">Core.ConvoCoreAnimatorBehaviour</text>
</a>
</g>
</g>
<!-- Node4&#45;&gt;Node5 -->
<g id="edge4_Node000004_Node000005" class="edge">
<title>Node4&#45;&gt;Node5</title>
<g id="a_edge4_Node000004_Node000005"><a xlink:title=" ">
<path fill="none" stroke="#63b8ff" d="M529.32,-207C541.58,-207 554.29,-207 566.77,-207"/>
<polygon fill="#63b8ff" stroke="#63b8ff" points="529.15,-203.5 519.15,-207 529.15,-210.5 529.15,-203.5"/>
</a>
</g>
</g>
</g>
</svg>
