<?xml version="1.0" encoding="UTF-8" standalone="no"?>
<!DOCTYPE svg PUBLIC "-//W3C//DTD SVG 1.1//EN"
 "http://www.w3.org/Graphics/SVG/1.1/DTD/svg11.dtd">
<!-- Generated by graphviz version 2.43.0 (0)
 -->
<!-- Title: WolfstagInteractive.ConvoCore.ExternalBehaviour Pages: 1 -->
<svg width="198pt" height="214pt"
 viewBox="0.00 0.00 198.00 214.00" xmlns="http://www.w3.org/2000/svg" xmlns:xlink="http://www.w3.org/1999/xlink">
<g id="graph0" class="graph" transform="scale(1 1) rotate(0) translate(4 210)">
<title>WolfstagInteractive.ConvoCore.ExternalBehaviour</title>
<!-- Node1 -->
<g id="Node000001" class="node">
<title>Node1</title>
<g id="a_Node000001"><a xlink:title="Character behaviour type for characters that are fully managed by the developer.">
<polygon fill="#999999" stroke="#666666" points="168,-96 22,-96 22,-66 168,-66 168,-96"/>
<text text-anchor="start" x="30" y="-84" font-family="Helvetica,sans-Serif" font-size="10.00">WolfstagInteractive.Convo</text>
<text text-anchor="middle" x="95" y="-73" font-family="Helvetica,sans-Serif" font-size="10.00">Core.ExternalBehaviour</text>
</a>
</g>
</g>
<!-- Node4 -->
<g id="Node000004" class="node">
<title>Node4</title>
<g id="a_Node000004"><a xlink:href="classWolfstagInteractive_1_1ConvoCore_1_1ConvoCoreAnimatorBehaviour.html" target="_top" xlink:title="Character behaviour type for scene&#45;resident characters that are driven by an Animator.">
<polygon fill="white" stroke="#666666" points="190,-30 0,-30 0,0 190,0 190,-30"/>
<text text-anchor="start" x="8" y="-18" font-family="Helvetica,sans-Serif" font-size="10.00">WolfstagInteractive.Convo</text>
<text text-anchor="middle" x="95" y="-7" font-family="Helvetica,sans-Serif" font-size="10.00">Core.ConvoCoreAnimatorBehaviour</text>
</a>
</g>
</g>
<!-- Node1&#45;&gt;Node4 -->
<g id="edge3_Node000001_Node000004" class="edge">
<title>Node1&#45;&gt;Node4</title>
<g id="a_edge3_Node000001_Node000004"><a xlink:title=" ">
<path fill="none" stroke="#63b8ff" d="M95,-55.54C95,-46.96 95,-37.61 95,-30.16"/>
<polygon fill="#63b8ff" stroke="#63b8ff" points="91.5,-55.8 95,-65.8 98.5,-55.8 91.5,-55.8"/>
</a>
</g>
</g>
<!-- Node2 -->
<g id="Node000002" class="node">
<title>Node2</title>
<g id="a_Node000002"><a xlink:href="classWolfstagInteractive_1_1ConvoCore_1_1ConvoCoreCharacterBehaviour.html" target="_top" xlink:title="Abstract ScriptableObject base for all character behaviour types.">
<polygon fill="white" stroke="#666666" points="178.5,-151 11.5,-151 11.5,-132 178.5,-132 178.5,-151"/>
<text text-anchor="middle" x="95" y="-139" font-family="Helvetica,sans-Serif" font-size="10.00">ConvoCoreCharacterBehaviour</text>
</a>
</g>
</g>
<!-- Node2&#45;&gt;Node1 -->
<g id="edge1_Node000001_Node000002" class="edge">
<title>Node2&#45;&gt;Node1</title>
<g id="a_edge1_Node000001_Node000002"><a xlink:title=" ">
<path fill="none" stroke="#63b8ff" d="M95,-121.65C95,-113.36 95,-103.78 95,-96.11"/>
<polygon fill="#63b8ff" stroke="#63b8ff" points="91.5,-121.87 95,-131.87 98.5,-121.87 91.5,-121.87"/>
</a>
</g>
</g>
<!-- Node3 -->
<g id="Node000003" class="node">
<title>Node3</title>
<g id="a_Node000003"><a xlink:title=" ">
<polygon fill="white" stroke="#666666" points="143.5,-206 46.5,-206 46.5,-187 143.5,-187 143.5,-206"/>
<text text-anchor="middle" x="95" y="-194" font-family="Helvetica,sans-Serif" font-size="10.00">ScriptableObject</text>
</a>
</g>
</g>
<!-- Node3&#45;&gt;Node2 -->
<g id="edge2_Node000002_Node000003" class="edge">
<title>Node3&#45;&gt;Node2</title>
<g id="a_edge2_Node000002_Node000003"><a xlink:title=" ">
<path fill="none" stroke="#63b8ff" d="M95,-176.66C95,-167.93 95,-157.99 95,-151.09"/>
<polygon fill="#63b8ff" stroke="#63b8ff" points="91.5,-176.75 95,-186.75 98.5,-176.75 91.5,-176.75"/>
</a>
</g>
</g>
</g>
</svg>
