<?xml version="1.0" encoding="UTF-8" standalone="no"?>
<!DOCTYPE svg PUBLIC "-//W3C//DTD SVG 1.1//EN"
 "http://www.w3.org/Graphics/SVG/1.1/DTD/svg11.dtd">
<!-- Generated by graphviz version 2.43.0 (0)
 -->
<!-- Title: WolfstagInteractive.ConvoCore.ConvoCoreDialogueLineActionEnableDisableGameObject Pages: 1 -->
<svg width="314pt" height="182pt"
 viewBox="0.00 0.00 313.50 182.00" xmlns="http://www.w3.org/2000/svg" xmlns:xlink="http://www.w3.org/1999/xlink">
<g id="graph0" class="graph" transform="scale(1 1) rotate(0) translate(4 178)">
<title>WolfstagInteractive.ConvoCore.ConvoCoreDialogueLineActionEnableDisableGameObject</title>
<!-- Node1 -->
<g id="Node000001" class="node">
<title>Node1</title>
<g id="a_Node000001"><a xlink:title=" ">
<polygon fill="#999999" stroke="#666666" points="243.5,-41 53.5,-41 53.5,0 243.5,0 243.5,-41"/>
<text text-anchor="start" x="61.5" y="-29" font-family="Helvetica,sans-Serif" font-size="10.00">WolfstagInteractive.Convo</text>
<text text-anchor="start" x="61.5" y="-18" font-family="Helvetica,sans-Serif" font-size="10.00">Core.ConvoCoreDialogueLineAction</text>
<text text-anchor="middle" x="148.5" y="-7" font-family="Helvetica,sans-Serif" font-size="10.00">EnableDisableGameObject</text>
</a>
</g>
</g>
<!-- Node2 -->
<g id="Node000002" class="node">
<title>Node2</title>
<g id="a_Node000002"><a xlink:href="classWolfstagInteractive_1_1ConvoCore_1_1BaseDialogueLineAction.html" target="_top" xlink:title=" ">
<polygon fill="white" stroke="#666666" points="135,-112.5 0,-112.5 0,-93.5 135,-93.5 135,-112.5"/>
<text text-anchor="middle" x="67.5" y="-100.5" font-family="Helvetica,sans-Serif" font-size="10.00">BaseDialogueLineAction</text>
</a>
</g>
</g>
<!-- Node2&#45;&gt;Node1 -->
<g id="edge1_Node000001_Node000002" class="edge">
<title>Node2&#45;&gt;Node1</title>
<g id="a_edge1_Node000001_Node000002"><a xlink:title=" ">
<path fill="none" stroke="#63b8ff" d="M83.49,-86.11C96.5,-73.17 114.94,-54.85 128.86,-41.02"/>
<polygon fill="#63b8ff" stroke="#63b8ff" points="80.79,-83.85 76.17,-93.39 85.73,-88.82 80.79,-83.85"/>
</a>
</g>
</g>
<!-- Node3 -->
<g id="Node000003" class="node">
<title>Node3</title>
<g id="a_Node000003"><a xlink:title=" ">
<polygon fill="white" stroke="#666666" points="116,-174 19,-174 19,-155 116,-155 116,-174"/>
<text text-anchor="middle" x="67.5" y="-162" font-family="Helvetica,sans-Serif" font-size="10.00">ScriptableObject</text>
</a>
</g>
</g>
<!-- Node3&#45;&gt;Node2 -->
<g id="edge2_Node000002_Node000003" class="edge">
<title>Node3&#45;&gt;Node2</title>
<g id="a_edge2_Node000002_Node000003"><a xlink:title=" ">
<path fill="none" stroke="#63b8ff" d="M67.5,-144.82C67.5,-134 67.5,-120.9 67.5,-112.51"/>
<polygon fill="#63b8ff" stroke="#63b8ff" points="64,-144.98 67.5,-154.98 71,-144.98 64,-144.98"/>
</a>
</g>
</g>
<!-- Node4 -->
<g id="Node000004" class="node">
<title>Node4</title>
<g id="a_Node000004"><a xlink:href="classWolfstagInteractive_1_1ConvoCore_1_1GameObjectReference.html" target="_top" xlink:title=" ">
<polygon fill="white" stroke="#666666" points="305.5,-118 153.5,-118 153.5,-88 305.5,-88 305.5,-118"/>
<text text-anchor="start" x="161.5" y="-106" font-family="Helvetica,sans-Serif" font-size="10.00">WolfstagInteractive.Convo</text>
<text text-anchor="middle" x="229.5" y="-95" font-family="Helvetica,sans-Serif" font-size="10.00">Core.GameObjectReference</text>
</a>
</g>
</g>
<!-- Node4&#45;&gt;Node1 -->
<g id="edge3_Node000001_Node000004" class="edge">
<title>Node4&#45;&gt;Node1</title>
<g id="a_edge3_Node000001_Node000004"><a xlink:title=" ">
<path fill="none" stroke="#9a32cd" stroke-dasharray="5,2" d="M208.14,-80.78C195.77,-68.48 180.3,-53.1 168.21,-41.09"/>
<polygon fill="#9a32cd" stroke="#9a32cd" points="205.83,-83.41 215.39,-87.98 210.77,-78.45 205.83,-83.41"/>
</a>
</g>
<text text-anchor="middle" x="242.5" y="-62" font-family="Helvetica,sans-Serif" font-size="10.00" fill="grey"> TargetGameObject</text>
</g>
</g>
</svg>
