<?xml version="1.0" encoding="UTF-8" standalone="no"?>
<!DOCTYPE svg PUBLIC "-//W3C//DTD SVG 1.1//EN"
 "http://www.w3.org/Graphics/SVG/1.1/DTD/svg11.dtd">
<!-- Generated by graphviz version 2.43.0 (0)
 -->
<!-- Title: WolfstagInteractive.ConvoCore.WorldPointPresence Pages: 1 -->
<svg width="939pt" height="119pt"
 viewBox="0.00 0.00 939.00 118.50" xmlns="http://www.w3.org/2000/svg" xmlns:xlink="http://www.w3.org/1999/xlink">
<g id="graph0" class="graph" transform="scale(1 1) rotate(0) translate(4 114.5)">
<title>WolfstagInteractive.ConvoCore.WorldPointPresence</title>
<!-- Node1 -->
<g id="Node000001" class="node">
<title>Node1</title>
<g id="a_Node000001"><a xlink:title="Presence type that places characters at authored world positions.">
<polygon fill="#999999" stroke="#666666" points="931,-92 785,-92 785,-62 931,-62 931,-92"/>
<text text-anchor="start" x="793" y="-80" font-family="Helvetica,sans-Serif" font-size="10.00">WolfstagInteractive.Convo</text>
<text text-anchor="middle" x="858" y="-69" font-family="Helvetica,sans-Serif" font-size="10.00">Core.WorldPointPresence</text>
</a>
</g>
</g>
<!-- Node2 -->
<g id="Node000002" class="node">
<title>Node2</title>
<g id="a_Node000002"><a xlink:href="classWolfstagInteractive_1_1ConvoCore_1_1ConvoCoreCharacterPresence.html" target="_top" xlink:title="Abstract ScriptableObject base for all presence types.">
<polygon fill="white" stroke="#666666" points="679,-110.5 518,-110.5 518,-91.5 679,-91.5 679,-110.5"/>
<text text-anchor="middle" x="598.5" y="-98.5" font-family="Helvetica,sans-Serif" font-size="10.00">ConvoCoreCharacterPresence</text>
</a>
</g>
</g>
<!-- Node2&#45;&gt;Node1 -->
<g id="edge1_Node000001_Node000002" class="edge">
<title>Node2&#45;&gt;Node1</title>
<g id="a_edge1_Node000001_Node000002"><a xlink:title=" ">
<path fill="none" stroke="#63b8ff" d="M689.22,-92.64C720.44,-89.73 755.03,-86.5 784.66,-83.74"/>
<polygon fill="#63b8ff" stroke="#63b8ff" points="688.84,-89.16 679.21,-93.57 689.49,-96.13 688.84,-89.16"/>
</a>
</g>
</g>
<!-- Node3 -->
<g id="Node000003" class="node">
<title>Node3</title>
<g id="a_Node000003"><a xlink:title=" ">
<polygon fill="white" stroke="#666666" points="284.5,-110.5 187.5,-110.5 187.5,-91.5 284.5,-91.5 284.5,-110.5"/>
<text text-anchor="middle" x="236" y="-98.5" font-family="Helvetica,sans-Serif" font-size="10.00">ScriptableObject</text>
</a>
</g>
</g>
<!-- Node3&#45;&gt;Node2 -->
<g id="edge2_Node000002_Node000003" class="edge">
<title>Node3&#45;&gt;Node2</title>
<g id="a_edge2_Node000002_Node000003"><a xlink:title=" ">
<path fill="none" stroke="#63b8ff" d="M295,-101C355.44,-101 450.56,-101 517.98,-101"/>
<polygon fill="#63b8ff" stroke="#63b8ff" points="294.87,-97.5 284.87,-101 294.87,-104.5 294.87,-97.5"/>
</a>
</g>
</g>
<!-- Node4 -->
<g id="Node000004" class="node">
<title>Node4</title>
<g id="a_Node000004"><a xlink:href="classWolfstagInteractive_1_1ConvoCore_1_1ConvoCorePrefabRepresentationSpawner.html" target="_top" xlink:title="Resolves, tracks, and releases prefab&#45;based character displays for a single UI instance.">
<polygon fill="white" stroke="#666666" points="699,-73.5 498,-73.5 498,-32.5 699,-32.5 699,-73.5"/>
<text text-anchor="start" x="506" y="-61.5" font-family="Helvetica,sans-Serif" font-size="10.00">WolfstagInteractive.Convo</text>
<text text-anchor="start" x="506" y="-50.5" font-family="Helvetica,sans-Serif" font-size="10.00">Core.ConvoCorePrefabRepresentation</text>
<text text-anchor="middle" x="598.5" y="-39.5" font-family="Helvetica,sans-Serif" font-size="10.00">Spawner</text>
</a>
</g>
</g>
<!-- Node4&#45;&gt;Node1 -->
<g id="edge3_Node000001_Node000004" class="edge">
<title>Node4&#45;&gt;Node1</title>
<g id="a_edge3_Node000001_Node000004"><a xlink:title=" ">
<path fill="none" stroke="#9a32cd" stroke-dasharray="5,2" d="M709.18,-63.22C734.76,-65.61 761.38,-68.09 784.85,-70.28"/>
<polygon fill="#9a32cd" stroke="#9a32cd" points="709.34,-59.72 699.06,-62.28 708.69,-66.69 709.34,-59.72"/>
</a>
</g>
<text text-anchor="middle" x="742" y="-71" font-family="Helvetica,sans-Serif" font-size="10.00" fill="grey"> _spawner</text>
</g>
<!-- Node5 -->
<g id="Node000005" class="node">
<title>Node5</title>
<g id="a_Node000005"><a xlink:title=" ">
<polygon fill="white" stroke="#666666" points="93,-45.5 0,-45.5 0,-26.5 93,-26.5 93,-45.5"/>
<text text-anchor="middle" x="46.5" y="-33.5" font-family="Helvetica,sans-Serif" font-size="10.00">MonoBehaviour</text>
</a>
</g>
</g>
<!-- Node5&#45;&gt;Node4 -->
<g id="edge4_Node000004_Node000005" class="edge">
<title>Node5&#45;&gt;Node4</title>
<g id="a_edge4_Node000004_Node000005"><a xlink:title=" ">
<path fill="none" stroke="#63b8ff" d="M103.31,-42.43C105.91,-42.65 108.48,-42.84 111,-43 244.62,-51.72 399.27,-53.48 497.69,-53.55"/>
<polygon fill="#63b8ff" stroke="#63b8ff" points="103.51,-38.94 93.24,-41.54 102.89,-45.91 103.51,-38.94"/>
</a>
</g>
</g>
<!-- Node6 -->
<g id="Node000006" class="node">
<title>Node6</title>
<g id="a_Node000006"><a xlink:href="classWolfstagInteractive_1_1ConvoCore_1_1ConvoCoreSceneCharacterRegistry.html" target="_top" xlink:title="Scene&#45;level registry that maps developer&#45;assigned string IDs to IConvoCoreCharacterDisplay instances ...">
<polygon fill="white" stroke="#666666" points="342,-30 130,-30 130,0 342,0 342,-30"/>
<text text-anchor="start" x="138" y="-18" font-family="Helvetica,sans-Serif" font-size="10.00">WolfstagInteractive.Convo</text>
<text text-anchor="middle" x="236" y="-7" font-family="Helvetica,sans-Serif" font-size="10.00">Core.ConvoCoreSceneCharacterRegistry</text>
</a>
</g>
</g>
<!-- Node5&#45;&gt;Node6 -->
<g id="edge6_Node000006_Node000005" class="edge">
<title>Node5&#45;&gt;Node6</title>
<g id="a_edge6_Node000006_Node000005"><a xlink:title=" ">
<path fill="none" stroke="#63b8ff" d="M103.34,-29.75C111.73,-28.81 120.61,-27.81 129.63,-26.8"/>
<polygon fill="#63b8ff" stroke="#63b8ff" points="102.92,-26.27 93.37,-30.86 103.7,-33.23 102.92,-26.27"/>
</a>
</g>
</g>
<!-- Node6&#45;&gt;Node4 -->
<g id="edge5_Node000004_Node000006" class="edge">
<title>Node6&#45;&gt;Node4</title>
<g id="a_edge5_Node000004_Node000006"><a xlink:title=" ">
<path fill="none" stroke="#9a32cd" stroke-dasharray="5,2" d="M352.33,-21.3C392.79,-24.1 438.48,-27.94 480,-33 485.85,-33.71 491.86,-34.52 497.91,-35.38"/>
<polygon fill="#9a32cd" stroke="#9a32cd" points="352.38,-17.8 342.17,-20.61 351.91,-24.78 352.38,-17.8"/>
</a>
</g>
<text text-anchor="middle" x="420" y="-36" font-family="Helvetica,sans-Serif" font-size="10.00" fill="grey"> sceneCharacterRegistry</text>
</g>
</g>
</svg>
