<?xml version="1.0" encoding="UTF-8" standalone="no"?>
<!DOCTYPE svg PUBLIC "-//W3C//DTD SVG 1.1//EN"
 "http://www.w3.org/Graphics/SVG/1.1/DTD/svg11.dtd">
<!-- Generated by graphviz version 2.43.0 (0)
 -->
<!-- Title: WolfstagInteractive.ConvoCore.CharacterRepresentationBase Pages: 1 -->
<svg width="668pt" height="86pt"
 viewBox="0.00 0.00 668.00 86.00" xmlns="http://www.w3.org/2000/svg" xmlns:xlink="http://www.w3.org/1999/xlink">
<g id="graph0" class="graph" transform="scale(1 1) rotate(0) translate(4 82)">
<title>WolfstagInteractive.ConvoCore.CharacterRepresentationBase</title>
<!-- Node1 -->
<g id="Node000001" class="node">
<title>Node1</title>
<g id="a_Node000001"><a xlink:title=" ">
<polygon fill="#999999" stroke="#666666" points="406,-54 218,-54 218,-24 406,-24 406,-54"/>
<text text-anchor="start" x="226" y="-42" font-family="Helvetica,sans-Serif" font-size="10.00">WolfstagInteractive.Convo</text>
<text text-anchor="middle" x="312" y="-31" font-family="Helvetica,sans-Serif" font-size="10.00">Core.CharacterRepresentationBase</text>
</a>
</g>
</g>
<!-- Node4 -->
<g id="Node000004" class="node">
<title>Node4</title>
<g id="a_Node000004"><a xlink:href="classWolfstagInteractive_1_1ConvoCore_1_1PrefabCharacterRepresentationData.html" target="_top" xlink:title=" ">
<polygon fill="white" stroke="#666666" points="660,-78 442,-78 442,-48 660,-48 660,-78"/>
<text text-anchor="start" x="450" y="-66" font-family="Helvetica,sans-Serif" font-size="10.00">WolfstagInteractive.Convo</text>
<text text-anchor="middle" x="551" y="-55" font-family="Helvetica,sans-Serif" font-size="10.00">Core.PrefabCharacterRepresentationData</text>
</a>
</g>
</g>
<!-- Node1&#45;&gt;Node4 -->
<g id="edge3_Node000001_Node000004" class="edge">
<title>Node1&#45;&gt;Node4</title>
<g id="a_edge3_Node000001_Node000004"><a xlink:title=" ">
<path fill="none" stroke="#63b8ff" d="M416.51,-49.48C424.91,-50.33 433.41,-51.19 441.85,-52.05"/>
<polygon fill="#63b8ff" stroke="#63b8ff" points="416.63,-45.98 406.33,-48.45 415.92,-52.94 416.63,-45.98"/>
</a>
</g>
</g>
<!-- Node5 -->
<g id="Node000005" class="node">
<title>Node5</title>
<g id="a_Node000005"><a xlink:href="classWolfstagInteractive_1_1ConvoCore_1_1SpriteCharacterRepresentationData.html" target="_top" xlink:title=" ">
<polygon fill="white" stroke="#666666" points="658.5,-30 443.5,-30 443.5,0 658.5,0 658.5,-30"/>
<text text-anchor="start" x="451.5" y="-18" font-family="Helvetica,sans-Serif" font-size="10.00">WolfstagInteractive.Convo</text>
<text text-anchor="middle" x="551" y="-7" font-family="Helvetica,sans-Serif" font-size="10.00">Core.SpriteCharacterRepresentationData</text>
</a>
</g>
</g>
<!-- Node1&#45;&gt;Node5 -->
<g id="edge4_Node000001_Node000005" class="edge">
<title>Node1&#45;&gt;Node5</title>
<g id="a_edge4_Node000001_Node000005"><a xlink:title=" ">
<path fill="none" stroke="#63b8ff" d="M416.39,-28.53C425.35,-27.62 434.44,-26.7 443.43,-25.79"/>
<polygon fill="#63b8ff" stroke="#63b8ff" points="415.92,-25.06 406.33,-29.55 416.63,-32.02 415.92,-25.06"/>
</a>
</g>
</g>
<!-- Node2 -->
<g id="Node000002" class="node">
<title>Node2</title>
<g id="a_Node000002"><a xlink:title=" ">
<polygon fill="white" stroke="#666666" points="139.5,-67.5 42.5,-67.5 42.5,-48.5 139.5,-48.5 139.5,-67.5"/>
<text text-anchor="middle" x="91" y="-55.5" font-family="Helvetica,sans-Serif" font-size="10.00">ScriptableObject</text>
</a>
</g>
</g>
<!-- Node2&#45;&gt;Node1 -->
<g id="edge1_Node000001_Node000002" class="edge">
<title>Node2&#45;&gt;Node1</title>
<g id="a_edge1_Node000001_Node000002"><a xlink:title=" ">
<path fill="none" stroke="#63b8ff" d="M149.76,-52.99C170.56,-51.18 194.6,-49.1 217.65,-47.1"/>
<polygon fill="#63b8ff" stroke="#63b8ff" points="149.18,-49.53 139.52,-53.88 149.78,-56.5 149.18,-49.53"/>
</a>
</g>
</g>
<!-- Node3 -->
<g id="Node000003" class="node">
<title>Node3</title>
<g id="a_Node000003"><a xlink:href="interfaceWolfstagInteractive_1_1ConvoCore_1_1IEditorPreviewableRepresentation.html" target="_top" xlink:title=" ">
<polygon fill="white" stroke="#666666" points="182,-30.5 0,-30.5 0,-11.5 182,-11.5 182,-30.5"/>
<text text-anchor="middle" x="91" y="-18.5" font-family="Helvetica,sans-Serif" font-size="10.00">IEditorPreviewableRepresentation</text>
</a>
</g>
</g>
<!-- Node3&#45;&gt;Node1 -->
<g id="edge2_Node000001_Node000003" class="edge">
<title>Node3&#45;&gt;Node1</title>
<g id="a_edge2_Node000001_Node000003"><a xlink:title=" ">
<path fill="none" stroke="#63b8ff" d="M192.04,-29.22C200.61,-29.93 209.26,-30.64 217.78,-31.34"/>
<polygon fill="#63b8ff" stroke="#63b8ff" points="192.28,-25.73 182.02,-28.4 191.7,-32.71 192.28,-25.73"/>
</a>
</g>
</g>
</g>
</svg>
