<?xml version="1.0" encoding="UTF-8" standalone="no"?>
<!DOCTYPE svg PUBLIC "-//W3C//DTD SVG 1.1//EN"
 "http://www.w3.org/Graphics/SVG/1.1/DTD/svg11.dtd">
<!-- Generated by graphviz version 2.43.0 (0)
 -->
<!-- Title: WolfstagInteractive.ConvoCore.ConvoCore Pages: 1 -->
<svg width="1335pt" height="547pt"
 viewBox="0.00 0.00 1335.00 547.00" xmlns="http://www.w3.org/2000/svg" xmlns:xlink="http://www.w3.org/1999/xlink">
<g id="graph0" class="graph" transform="scale(1 1) rotate(0) translate(4 543)">
<title>WolfstagInteractive.ConvoCore.ConvoCore</title>
<!-- Node1 -->
<g id="Node000001" class="node">
<title>Node1</title>
<g id="a_Node000001"><a xlink:title="Main conversation runner MonoBehaviour.">
<polygon fill="#999999" stroke="#666666" points="1327,-421 1181,-421 1181,-391 1327,-391 1327,-421"/>
<text text-anchor="start" x="1189" y="-409" font-family="Helvetica,sans-Serif" font-size="10.00">WolfstagInteractive.Convo</text>
<text text-anchor="middle" x="1254" y="-398" font-family="Helvetica,sans-Serif" font-size="10.00">Core.ConvoCore</text>
</a>
</g>
</g>
<!-- Node2 -->
<g id="Node000002" class="node">
<title>Node2</title>
<g id="a_Node000002"><a xlink:title=" ">
<polygon fill="white" stroke="#666666" points="283.5,-248.5 190.5,-248.5 190.5,-229.5 283.5,-229.5 283.5,-248.5"/>
<text text-anchor="middle" x="237" y="-236.5" font-family="Helvetica,sans-Serif" font-size="10.00">MonoBehaviour</text>
</a>
</g>
</g>
<!-- Node2&#45;&gt;Node1 -->
<g id="edge1_Node000001_Node000002" class="edge">
<title>Node2&#45;&gt;Node1</title>
<g id="a_edge1_Node000001_Node000002"><a xlink:title=" ">
<path fill="none" stroke="#63b8ff" d="M269.7,-252.49C358.77,-289.6 619.68,-392.91 848,-430 942.34,-445.32 967.43,-433.11 1063,-434 1107.44,-434.41 1119.06,-440.68 1163,-434 1179.99,-431.42 1198.18,-426.24 1213.73,-421.04"/>
<polygon fill="#63b8ff" stroke="#63b8ff" points="271,-249.24 260.42,-248.6 268.29,-255.69 271,-249.24"/>
</a>
</g>
</g>
<!-- Node7 -->
<g id="Node000007" class="node">
<title>Node7</title>
<g id="a_Node000007"><a xlink:href="classWolfstagInteractive_1_1ConvoCore_1_1ConvoCoreUIFoundation.html" target="_top" xlink:title="Used as a basis of any UI that can be assigned in the inspector that includes all the base functions ...">
<polygon fill="white" stroke="#666666" points="1026.5,-125 866.5,-125 866.5,-95 1026.5,-95 1026.5,-125"/>
<text text-anchor="start" x="874.5" y="-113" font-family="Helvetica,sans-Serif" font-size="10.00">WolfstagInteractive.Convo</text>
<text text-anchor="middle" x="946.5" y="-102" font-family="Helvetica,sans-Serif" font-size="10.00">Core.ConvoCoreUIFoundation</text>
</a>
</g>
</g>
<!-- Node2&#45;&gt;Node7 -->
<g id="edge7_Node000007_Node000002" class="edge">
<title>Node2&#45;&gt;Node7</title>
<g id="a_edge7_Node000007_Node000002"><a xlink:title=" ">
<path fill="none" stroke="#63b8ff" d="M293.24,-230.5C309.9,-225.64 327.16,-218 340,-206 355.74,-191.29 340.7,-173.84 358,-161 358,-161 705.9,-130.8 866.27,-116.88"/>
<polygon fill="#63b8ff" stroke="#63b8ff" points="292.32,-227.13 283.54,-233.06 294.1,-233.9 292.32,-227.13"/>
</a>
</g>
</g>
<!-- Node9 -->
<g id="Node000009" class="node">
<title>Node9</title>
<g id="a_Node000009"><a xlink:href="classWolfstagInteractive_1_1ConvoCore_1_1ConvoCore.html" target="_top" xlink:title="Main conversation runner MonoBehaviour.">
<polygon fill="white" stroke="#666666" points="1327,-266 1181,-266 1181,-236 1327,-236 1327,-266"/>
<text text-anchor="start" x="1189" y="-254" font-family="Helvetica,sans-Serif" font-size="10.00">WolfstagInteractive.Convo</text>
<text text-anchor="middle" x="1254" y="-243" font-family="Helvetica,sans-Serif" font-size="10.00">Core.ConvoCore</text>
</a>
</g>
</g>
<!-- Node2&#45;&gt;Node9 -->
<g id="edge10_Node000009_Node000002" class="edge">
<title>Node2&#45;&gt;Node9</title>
<g id="a_edge10_Node000009_Node000002"><a xlink:title=" ">
<path fill="none" stroke="#63b8ff" d="M294.16,-238.96C375.18,-238.88 529.57,-238.65 661,-238 839.67,-237.12 884.33,-235.67 1063,-235 1107.44,-234.83 1118.73,-231.1 1163,-235 1168.85,-235.52 1174.89,-236.22 1180.94,-237.04"/>
<polygon fill="#63b8ff" stroke="#63b8ff" points="293.69,-235.46 283.69,-238.97 293.7,-242.46 293.69,-235.46"/>
</a>
</g>
</g>
<!-- Node14 -->
<g id="Node000014" class="node">
<title>Node14</title>
<g id="a_Node000014"><a xlink:href="classWolfstagInteractive_1_1ConvoCore_1_1ConvoCoreDialogueHistoryUI.html" target="_top" xlink:title=" ">
<polygon fill="white" stroke="#666666" points="661,-76 476,-76 476,-46 661,-46 661,-76"/>
<text text-anchor="start" x="484" y="-64" font-family="Helvetica,sans-Serif" font-size="10.00">WolfstagInteractive.Convo</text>
<text text-anchor="middle" x="568.5" y="-53" font-family="Helvetica,sans-Serif" font-size="10.00">Core.ConvoCoreDialogueHistoryUI</text>
</a>
</g>
</g>
<!-- Node2&#45;&gt;Node14 -->
<g id="edge23_Node000014_Node000002" class="edge">
<title>Node2&#45;&gt;Node14</title>
<g id="a_edge23_Node000014_Node000002"><a xlink:title=" ">
<path fill="none" stroke="#63b8ff" d="M293.61,-231.72C310.54,-226.94 327.86,-219.04 340,-206 362.77,-181.55 334.74,-157 358,-133 390.12,-99.86 418.48,-128.84 458,-105 467.96,-98.99 466.02,-91.98 476,-86 482.5,-82.11 489.62,-78.81 496.92,-76.01"/>
<polygon fill="#63b8ff" stroke="#63b8ff" points="292.58,-228.37 283.73,-234.19 294.28,-235.16 292.58,-228.37"/>
</a>
</g>
</g>
<!-- Node3 -->
<g id="Node000003" class="node">
<title>Node3</title>
<g id="a_Node000003"><a xlink:href="interfaceWolfstagInteractive_1_1ConvoCore_1_1IConvoCoreRunner.html" target="_top" xlink:title="Minimal interface implemented by ConvoCore.">
<polygon fill="white" stroke="#666666" points="1000,-303.5 893,-303.5 893,-284.5 1000,-284.5 1000,-303.5"/>
<text text-anchor="middle" x="946.5" y="-291.5" font-family="Helvetica,sans-Serif" font-size="10.00">IConvoCoreRunner</text>
</a>
</g>
</g>
<!-- Node3&#45;&gt;Node1 -->
<g id="edge2_Node000001_Node000003" class="edge">
<title>Node3&#45;&gt;Node1</title>
<g id="a_edge2_Node000001_Node000003"><a xlink:title=" ">
<path fill="none" stroke="#63b8ff" d="M1010.26,-290.85C1054.88,-291.04 1115.15,-296.36 1163,-319 1197.77,-335.45 1227.48,-370.74 1242.51,-390.96"/>
<polygon fill="#63b8ff" stroke="#63b8ff" points="1010.11,-287.35 1000.13,-290.9 1010.14,-294.35 1010.11,-287.35"/>
</a>
</g>
</g>
<!-- Node3&#45;&gt;Node9 -->
<g id="edge11_Node000009_Node000003" class="edge">
<title>Node3&#45;&gt;Node9</title>
<g id="a_edge11_Node000009_Node000003"><a xlink:title=" ">
<path fill="none" stroke="#63b8ff" d="M1010.31,-286.44C1053.34,-281.12 1111.69,-273.61 1163,-266 1168.8,-265.14 1174.8,-264.22 1180.83,-263.26"/>
<polygon fill="#63b8ff" stroke="#63b8ff" points="1009.77,-282.98 1000.27,-287.68 1010.62,-289.93 1009.77,-282.98"/>
</a>
</g>
</g>
<!-- Node4 -->
<g id="Node000004" class="node">
<title>Node4</title>
<g id="a_Node000004"><a xlink:href="classWolfstagInteractive_1_1ConvoCore_1_1ConvoCoreConversationData.html" target="_top" xlink:title=" ">
<polygon fill="white" stroke="#666666" points="1038,-524 855,-524 855,-494 1038,-494 1038,-524"/>
<text text-anchor="start" x="863" y="-512" font-family="Helvetica,sans-Serif" font-size="10.00">WolfstagInteractive.Convo</text>
<text text-anchor="middle" x="946.5" y="-501" font-family="Helvetica,sans-Serif" font-size="10.00">Core.ConvoCoreConversationData</text>
</a>
</g>
</g>
<!-- Node4&#45;&gt;Node1 -->
<g id="edge3_Node000001_Node000004" class="edge">
<title>Node4&#45;&gt;Node1</title>
<g id="a_edge3_Node000001_Node000004"><a xlink:title=" ">
<path fill="none" stroke="#9a32cd" stroke-dasharray="5,2" d="M1025.68,-525.39C1068.15,-530.52 1120.52,-530.54 1163,-511 1203.57,-492.34 1232.7,-445.37 1245.59,-421.07"/>
<polygon fill="#9a32cd" stroke="#9a32cd" points="1026.04,-521.91 1015.66,-524.06 1025.12,-528.85 1026.04,-521.91"/>
</a>
</g>
<text text-anchor="middle" x="1113" y="-531" font-family="Helvetica,sans-Serif" font-size="10.00" fill="grey"> ConversationData</text>
</g>
<!-- Node4&#45;&gt;Node9 -->
<g id="edge12_Node000009_Node000004" class="edge">
<title>Node4&#45;&gt;Node9</title>
<g id="a_edge12_Node000009_Node000004"><a xlink:title=" ">
<path fill="none" stroke="#9a32cd" stroke-dasharray="5,2" d="M1048.11,-493.65C1088.33,-482.92 1132.3,-464.76 1163,-434 1180.28,-416.69 1171.07,-404.35 1181,-382 1200.27,-338.6 1228.78,-290.3 1243.48,-266.29"/>
<polygon fill="#9a32cd" stroke="#9a32cd" points="1047.08,-490.3 1038.25,-496.15 1048.8,-497.08 1047.08,-490.3"/>
</a>
</g>
<text text-anchor="middle" x="1113" y="-490" font-family="Helvetica,sans-Serif" font-size="10.00" fill="grey"> ConversationData</text>
</g>
<!-- Node5 -->
<g id="Node000005" class="node">
<title>Node5</title>
<g id="a_Node000005"><a xlink:title=" ">
<polygon fill="white" stroke="#666666" points="97,-162.5 0,-162.5 0,-143.5 97,-143.5 97,-162.5"/>
<text text-anchor="middle" x="48.5" y="-150.5" font-family="Helvetica,sans-Serif" font-size="10.00">ScriptableObject</text>
</a>
</g>
</g>
<!-- Node5&#45;&gt;Node4 -->
<g id="edge4_Node000004_Node000005" class="edge">
<title>Node5&#45;&gt;Node4</title>
<g id="a_edge4_Node000004_Node000005"><a xlink:title=" ">
<path fill="none" stroke="#63b8ff" d="M59.85,-171.55C73.8,-194.92 100.74,-234.82 134,-258 362.65,-417.39 696,-478.24 854.83,-499.17"/>
<polygon fill="#63b8ff" stroke="#63b8ff" points="62.74,-169.54 54.69,-162.65 56.68,-173.05 62.74,-169.54"/>
</a>
</g>
</g>
<!-- Node12 -->
<g id="Node000012" class="node">
<title>Node12</title>
<g id="a_Node000012"><a xlink:href="classWolfstagInteractive_1_1ConvoCore_1_1ConvoCoreSettings.html" target="_top" xlink:title="Global runtime settings ScriptableObject for ConvoCore.">
<polygon fill="white" stroke="#666666" points="310,-168 164,-168 164,-138 310,-138 310,-168"/>
<text text-anchor="start" x="172" y="-156" font-family="Helvetica,sans-Serif" font-size="10.00">WolfstagInteractive.Convo</text>
<text text-anchor="middle" x="237" y="-145" font-family="Helvetica,sans-Serif" font-size="10.00">Core.ConvoCoreSettings</text>
</a>
</g>
</g>
<!-- Node5&#45;&gt;Node12 -->
<g id="edge19_Node000012_Node000005" class="edge">
<title>Node5&#45;&gt;Node12</title>
<g id="a_edge19_Node000012_Node000005"><a xlink:title=" ">
<path fill="none" stroke="#63b8ff" d="M107.06,-153C125.02,-153 145.05,-153 163.87,-153"/>
<polygon fill="#63b8ff" stroke="#63b8ff" points="107.04,-149.5 97.04,-153 107.04,-156.5 107.04,-149.5"/>
</a>
</g>
</g>
<!-- Node16 -->
<g id="Node000016" class="node">
<title>Node16</title>
<g id="a_Node000016"><a xlink:href="classWolfstagInteractive_1_1ConvoCore_1_1ConvoCoreHistoryRendererProfile.html" target="_top" xlink:title=" ">
<polygon fill="white" stroke="#666666" points="340,-30 134,-30 134,0 340,0 340,-30"/>
<text text-anchor="start" x="142" y="-18" font-family="Helvetica,sans-Serif" font-size="10.00">WolfstagInteractive.Convo</text>
<text text-anchor="middle" x="237" y="-7" font-family="Helvetica,sans-Serif" font-size="10.00">Core.ConvoCoreHistoryRendererProfile</text>
</a>
</g>
</g>
<!-- Node5&#45;&gt;Node16 -->
<g id="edge27_Node000016_Node000005" class="edge">
<title>Node5&#45;&gt;Node16</title>
<g id="a_edge27_Node000016_Node000005"><a xlink:title=" ">
<path fill="none" stroke="#63b8ff" d="M58.17,-134.17C70.99,-108.52 97.48,-63.03 134,-39 139.24,-35.55 144.93,-32.59 150.83,-30.06"/>
<polygon fill="#63b8ff" stroke="#63b8ff" points="54.99,-132.72 53.8,-143.24 61.29,-135.76 54.99,-132.72"/>
</a>
</g>
</g>
<!-- Node6 -->
<g id="Node000006" class="node">
<title>Node6</title>
<g id="a_Node000006"><a xlink:href="interfaceWolfstagInteractive_1_1ConvoCore_1_1IConvoInput.html" target="_top" xlink:title="Input strategy interface.">
<polygon fill="white" stroke="#666666" points="1019.5,-421 873.5,-421 873.5,-391 1019.5,-391 1019.5,-421"/>
<text text-anchor="start" x="881.5" y="-409" font-family="Helvetica,sans-Serif" font-size="10.00">WolfstagInteractive.Convo</text>
<text text-anchor="middle" x="946.5" y="-398" font-family="Helvetica,sans-Serif" font-size="10.00">Core.IConvoInput</text>
</a>
</g>
</g>
<!-- Node6&#45;&gt;Node1 -->
<g id="edge5_Node000001_Node000006" class="edge">
<title>Node6&#45;&gt;Node1</title>
<g id="a_edge5_Node000001_Node000006"><a xlink:title=" ">
<path fill="none" stroke="#9a32cd" stroke-dasharray="5,2" d="M1029.94,-415.62C1041.04,-416.6 1052.29,-417.44 1063,-418 1107.38,-420.3 1118.65,-420.94 1163,-418 1168.82,-417.61 1174.84,-417.09 1180.87,-416.47"/>
<polygon fill="#9a32cd" stroke="#9a32cd" points="1030.09,-412.11 1019.8,-414.67 1029.44,-419.08 1030.09,-412.11"/>
</a>
</g>
<text text-anchor="middle" x="1113" y="-422" font-family="Helvetica,sans-Serif" font-size="10.00" fill="grey"> Input</text>
</g>
<!-- Node6&#45;&gt;Node9 -->
<g id="edge13_Node000009_Node000006" class="edge">
<title>Node6&#45;&gt;Node9</title>
<g id="a_edge13_Node000009_Node000006"><a xlink:title=" ">
<path fill="none" stroke="#9a32cd" stroke-dasharray="5,2" d="M1005,-387.78C1059.06,-370.19 1135.65,-343.93 1163,-328 1192.67,-310.71 1221.93,-283.21 1238.69,-266.18"/>
<polygon fill="#9a32cd" stroke="#9a32cd" points="1003.62,-384.55 995.18,-390.96 1005.78,-391.21 1003.62,-384.55"/>
</a>
</g>
<text text-anchor="middle" x="1113" y="-369" font-family="Helvetica,sans-Serif" font-size="10.00" fill="grey"> Input</text>
</g>
<!-- Node7&#45;&gt;Node1 -->
<g id="edge6_Node000001_Node000007" class="edge">
<title>Node7&#45;&gt;Node1</title>
<g id="a_edge6_Node000001_Node000007"><a xlink:title=" ">
<path fill="none" stroke="#9a32cd" stroke-dasharray="5,2" d="M1015.21,-127.62C1077.42,-143.94 1160.4,-166.13 1163,-169 1195.08,-204.42 1165.27,-229.88 1181,-275 1196.55,-319.6 1226.38,-367 1242.33,-390.67"/>
<polygon fill="#9a32cd" stroke="#9a32cd" points="1015.98,-124.2 1005.42,-125.05 1014.2,-130.97 1015.98,-124.2"/>
</a>
</g>
<text text-anchor="middle" x="1113" y="-172" font-family="Helvetica,sans-Serif" font-size="10.00" fill="grey"> ConversationUI</text>
</g>
<!-- Node7&#45;&gt;Node9 -->
<g id="edge14_Node000009_Node000007" class="edge">
<title>Node7&#45;&gt;Node9</title>
<g id="a_edge14_Node000009_Node000007"><a xlink:title=" ">
<path fill="none" stroke="#9a32cd" stroke-dasharray="5,2" d="M997.21,-91.92C1043.33,-78.41 1112.3,-66.81 1163,-96 1216.67,-126.9 1241.28,-203.42 1249.58,-235.96"/>
<polygon fill="#9a32cd" stroke="#9a32cd" points="995.98,-88.63 987.44,-94.9 998.03,-95.32 995.98,-88.63"/>
</a>
</g>
<text text-anchor="middle" x="1113" y="-99" font-family="Helvetica,sans-Serif" font-size="10.00" fill="grey"> ConversationUI</text>
</g>
<!-- Node8 -->
<g id="Node000008" class="node">
<title>Node8</title>
<g id="a_Node000008"><a xlink:href="interfaceWolfstagInteractive_1_1ConvoCore_1_1IUIFoundation.html" target="_top" xlink:title="Contract between the ConvoCore runner and a dialogue UI implementation.">
<polygon fill="white" stroke="#666666" points="610.5,-113.5 526.5,-113.5 526.5,-94.5 610.5,-94.5 610.5,-113.5"/>
<text text-anchor="middle" x="568.5" y="-101.5" font-family="Helvetica,sans-Serif" font-size="10.00">IUIFoundation</text>
</a>
</g>
</g>
<!-- Node8&#45;&gt;Node7 -->
<g id="edge8_Node000007_Node000008" class="edge">
<title>Node8&#45;&gt;Node7</title>
<g id="a_edge8_Node000007_Node000008"><a xlink:title=" ">
<path fill="none" stroke="#63b8ff" d="M620.96,-104.82C684.3,-105.83 792.53,-107.56 866.45,-108.74"/>
<polygon fill="#63b8ff" stroke="#63b8ff" points="620.87,-101.32 610.81,-104.66 620.76,-108.32 620.87,-101.32"/>
</a>
</g>
</g>
<!-- Node9&#45;&gt;Node7 -->
<g id="edge9_Node000007_Node000009" class="edge">
<title>Node9&#45;&gt;Node7</title>
<g id="a_edge9_Node000007_Node000009"><a xlink:title=" ">
<path fill="none" stroke="#9a32cd" stroke-dasharray="5,2" d="M1242.63,-226.11C1229.03,-197 1202.22,-150 1163,-128 1140.16,-115.19 1078.22,-110.99 1026.58,-109.83"/>
<polygon fill="#9a32cd" stroke="#9a32cd" points="1239.59,-227.9 1246.88,-235.59 1245.98,-225.04 1239.59,-227.9"/>
</a>
</g>
<text text-anchor="middle" x="1113" y="-131" font-family="Helvetica,sans-Serif" font-size="10.00" fill="grey"> ConvoCoreInstance</text>
</g>
<!-- Node10 -->
<g id="Node000010" class="node">
<title>Node10</title>
<g id="a_Node000010"><a xlink:href="classWolfstagInteractive_1_1ConvoCore_1_1ConvoCoreDialogueLocalizationHandler.html" target="_top" xlink:title=" ">
<polygon fill="white" stroke="#666666" points="1045,-215.5 848,-215.5 848,-174.5 1045,-174.5 1045,-215.5"/>
<text text-anchor="start" x="856" y="-203.5" font-family="Helvetica,sans-Serif" font-size="10.00">WolfstagInteractive.Convo</text>
<text text-anchor="start" x="856" y="-192.5" font-family="Helvetica,sans-Serif" font-size="10.00">Core.ConvoCoreDialogueLocalization</text>
<text text-anchor="middle" x="946.5" y="-181.5" font-family="Helvetica,sans-Serif" font-size="10.00">Handler</text>
</a>
</g>
</g>
<!-- Node10&#45;&gt;Node1 -->
<g id="edge28_Node000001_Node000010" class="edge">
<title>Node10&#45;&gt;Node1</title>
<g id="a_edge28_Node000001_Node000010"><a xlink:title=" ">
<path fill="none" stroke="#9a32cd" stroke-dasharray="5,2" d="M1043.73,-218.66C1083.42,-231.66 1128.18,-250.82 1163,-278 1203.47,-309.59 1233.24,-364.3 1246.05,-390.78"/>
<polygon fill="#9a32cd" stroke="#9a32cd" points="1044.61,-215.27 1034.02,-215.56 1042.49,-221.94 1044.61,-215.27"/>
</a>
</g>
<text text-anchor="middle" x="1113" y="-281" font-family="Helvetica,sans-Serif" font-size="10.00" fill="grey"> LocalizationHandler</text>
</g>
<!-- Node10&#45;&gt;Node9 -->
<g id="edge15_Node000009_Node000010" class="edge">
<title>Node10&#45;&gt;Node9</title>
<g id="a_edge15_Node000009_Node000010"><a xlink:title=" ">
<path fill="none" stroke="#9a32cd" stroke-dasharray="5,2" d="M1055.3,-184.17C1090.23,-183.65 1128.77,-186.28 1163,-196 1190.48,-203.8 1217.89,-222.52 1235.11,-235.95"/>
<polygon fill="#9a32cd" stroke="#9a32cd" points="1054.99,-180.68 1045.07,-184.42 1055.15,-187.68 1054.99,-180.68"/>
</a>
</g>
<text text-anchor="middle" x="1113" y="-199" font-family="Helvetica,sans-Serif" font-size="10.00" fill="grey"> LocalizationHandler</text>
</g>
<!-- Node11 -->
<g id="Node000011" class="node">
<title>Node11</title>
<g id="a_Node000011"><a xlink:href="classWolfstagInteractive_1_1ConvoCore_1_1ConvoCoreLanguageManager.html" target="_top" xlink:title=" ">
<polygon fill="white" stroke="#666666" points="661,-200 476,-200 476,-170 661,-170 661,-200"/>
<text text-anchor="start" x="484" y="-188" font-family="Helvetica,sans-Serif" font-size="10.00">WolfstagInteractive.Convo</text>
<text text-anchor="middle" x="568.5" y="-177" font-family="Helvetica,sans-Serif" font-size="10.00">Core.ConvoCoreLanguageManager</text>
</a>
</g>
</g>
<!-- Node11&#45;&gt;Node10 -->
<g id="edge16_Node000010_Node000011" class="edge">
<title>Node11&#45;&gt;Node10</title>
<g id="a_edge16_Node000010_Node000011"><a xlink:title=" ">
<path fill="none" stroke="#9a32cd" stroke-dasharray="5,2" d="M671.57,-187.71C726.44,-189.17 793.74,-190.96 847.9,-192.4"/>
<polygon fill="#9a32cd" stroke="#9a32cd" points="671.57,-184.21 661.48,-187.45 671.38,-191.21 671.57,-184.21"/>
</a>
</g>
<text text-anchor="middle" x="754.5" y="-194" font-family="Helvetica,sans-Serif" font-size="10.00" fill="grey"> _convoCoreLanguageManager</text>
</g>
<!-- Node11&#45;&gt;Node11 -->
<g id="edge17_Node000011_Node000011" class="edge">
<title>Node11&#45;&gt;Node11</title>
<g id="a_edge17_Node000011_Node000011"><a xlink:title=" ">
<path fill="none" stroke="#9a32cd" stroke-dasharray="5,2" d="M540.49,-210.6C544.32,-214.97 553.66,-218 568.5,-218 593.5,-218 602.88,-209.41 596.62,-200.28"/>
<polygon fill="#9a32cd" stroke="#9a32cd" points="543.99,-210.23 540.38,-200.28 536.99,-210.32 543.99,-210.23"/>
</a>
</g>
<text text-anchor="middle" x="568.5" y="-221" font-family="Helvetica,sans-Serif" font-size="10.00" fill="grey"> _instance</text>
</g>
<!-- Node12&#45;&gt;Node11 -->
<g id="edge18_Node000011_Node000012" class="edge">
<title>Node12&#45;&gt;Node11</title>
<g id="a_edge18_Node000011_Node000012"><a xlink:title=" ">
<path fill="none" stroke="#9a32cd" stroke-dasharray="5,2" d="M320.51,-161.01C367.77,-165.6 427.18,-171.37 475.89,-176.1"/>
<polygon fill="#9a32cd" stroke="#9a32cd" points="320.6,-157.51 310.31,-160.02 319.92,-164.47 320.6,-157.51"/>
</a>
</g>
<text text-anchor="middle" x="408" y="-176" font-family="Helvetica,sans-Serif" font-size="10.00" fill="grey"> _convoCoreSettings</text>
</g>
<!-- Node12&#45;&gt;Node12 -->
<g id="edge20_Node000012_Node000012" class="edge">
<title>Node12&#45;&gt;Node12</title>
<g id="a_edge20_Node000012_Node000012"><a xlink:title=" ">
<path fill="none" stroke="#9a32cd" stroke-dasharray="5,2" d="M216,-178.6C218.87,-182.97 225.87,-186 237,-186 255.75,-186 262.78,-177.41 258.09,-168.28"/>
<polygon fill="#9a32cd" stroke="#9a32cd" points="219.49,-178.24 215.91,-168.28 212.49,-178.31 219.49,-178.24"/>
</a>
</g>
<text text-anchor="middle" x="237" y="-189" font-family="Helvetica,sans-Serif" font-size="10.00" fill="grey"> _instance</text>
</g>
<!-- Node12&#45;&gt;Node14 -->
<g id="edge24_Node000014_Node000012" class="edge">
<title>Node12&#45;&gt;Node14</title>
<g id="a_edge24_Node000014_Node000012"><a xlink:title=" ">
<path fill="none" stroke="#9a32cd" stroke-dasharray="5,2" d="M272.11,-132.78C295.52,-119.78 327.71,-103.59 358,-94 395.74,-82.05 438.72,-74.32 475.89,-69.37"/>
<polygon fill="#9a32cd" stroke="#9a32cd" points="270.27,-129.8 263.28,-137.77 273.71,-135.9 270.27,-129.8"/>
</a>
</g>
<text text-anchor="middle" x="408" y="-97" font-family="Helvetica,sans-Serif" font-size="10.00" fill="grey"> convoCoreSettings</text>
</g>
<!-- Node13 -->
<g id="Node000013" class="node">
<title>Node13</title>
<g id="a_Node000013"><a xlink:href="interfaceWolfstagInteractive_1_1ConvoCore_1_1IConversationContext.html" target="_top" xlink:title="Provides optional runtime context for branch evaluation.">
<polygon fill="white" stroke="#666666" points="1020.5,-355 872.5,-355 872.5,-325 1020.5,-325 1020.5,-355"/>
<text text-anchor="start" x="880.5" y="-343" font-family="Helvetica,sans-Serif" font-size="10.00">WolfstagInteractive.Convo</text>
<text text-anchor="middle" x="946.5" y="-332" font-family="Helvetica,sans-Serif" font-size="10.00">Core.IConversationContext</text>
</a>
</g>
</g>
<!-- Node13&#45;&gt;Node1 -->
<g id="edge29_Node000001_Node000013" class="edge">
<title>Node13&#45;&gt;Node1</title>
<g id="a_edge29_Node000001_Node000013"><a xlink:title=" ">
<path fill="none" stroke="#9a32cd" stroke-dasharray="5,2" d="M990.12,-359.15C1011.58,-368.04 1038.24,-377.95 1063,-384 1101.39,-393.38 1145.14,-398.79 1180.98,-401.9"/>
<polygon fill="#9a32cd" stroke="#9a32cd" points="991.23,-355.82 980.66,-355.16 988.51,-362.27 991.23,-355.82"/>
</a>
</g>
<text text-anchor="middle" x="1113" y="-402" font-family="Helvetica,sans-Serif" font-size="10.00" fill="grey"> _context</text>
</g>
<!-- Node13&#45;&gt;Node9 -->
<g id="edge21_Node000009_Node000013" class="edge">
<title>Node13&#45;&gt;Node9</title>
<g id="a_edge21_Node000009_Node000013"><a xlink:title=" ">
<path fill="none" stroke="#9a32cd" stroke-dasharray="5,2" d="M1026.96,-322.6C1067.94,-313 1118.52,-300.16 1163,-286 1181.21,-280.2 1201.05,-272.63 1217.46,-266.01"/>
<polygon fill="#9a32cd" stroke="#9a32cd" points="1025.97,-319.24 1017.03,-324.91 1027.56,-326.06 1025.97,-319.24"/>
</a>
</g>
<text text-anchor="middle" x="1113" y="-316" font-family="Helvetica,sans-Serif" font-size="10.00" fill="grey"> _context</text>
</g>
<!-- Node14&#45;&gt;Node7 -->
<g id="edge22_Node000007_Node000014" class="edge">
<title>Node14&#45;&gt;Node7</title>
<g id="a_edge22_Node000007_Node000014"><a xlink:title=" ">
<path fill="none" stroke="#9a32cd" stroke-dasharray="5,2" d="M671.42,-70.9C719.59,-75.95 777.84,-82.59 830,-90 841.79,-91.67 854.22,-93.63 866.38,-95.65"/>
<polygon fill="#9a32cd" stroke="#9a32cd" points="671.6,-67.4 661.3,-69.85 670.88,-74.36 671.6,-67.4"/>
</a>
</g>
<text text-anchor="middle" x="754.5" y="-93" font-family="Helvetica,sans-Serif" font-size="10.00" fill="grey"> ConvoCoreDialogueHistoryUI</text>
</g>
<!-- Node15 -->
<g id="Node000015" class="node">
<title>Node15</title>
<g id="a_Node000015"><a xlink:href="interfaceWolfstagInteractive_1_1ConvoCore_1_1IConvoCoreHistoryRenderer.html" target="_top" xlink:title="Base contract for any dialogue history renderer.">
<polygon fill="white" stroke="#666666" points="326,-78 148,-78 148,-48 326,-48 326,-78"/>
<text text-anchor="start" x="156" y="-66" font-family="Helvetica,sans-Serif" font-size="10.00">WolfstagInteractive.Convo</text>
<text text-anchor="middle" x="237" y="-55" font-family="Helvetica,sans-Serif" font-size="10.00">Core.IConvoCoreHistoryRenderer</text>
</a>
</g>
</g>
<!-- Node15&#45;&gt;Node14 -->
<g id="edge25_Node000014_Node000015" class="edge">
<title>Node15&#45;&gt;Node14</title>
<g id="a_edge25_Node000014_Node000015"><a xlink:title=" ">
<path fill="none" stroke="#9a32cd" stroke-dasharray="5,2" d="M336.21,-60.34C343.58,-60.21 350.91,-60.09 358,-60 402.44,-59.44 413.56,-59.8 458,-60 463.8,-60.03 469.77,-60.06 475.79,-60.1"/>
<polygon fill="#9a32cd" stroke="#9a32cd" points="336.07,-56.85 326.14,-60.54 336.21,-63.85 336.07,-56.85"/>
</a>
</g>
<text text-anchor="middle" x="408" y="-63" font-family="Helvetica,sans-Serif" font-size="10.00" fill="grey"> _renderer</text>
</g>
<!-- Node16&#45;&gt;Node14 -->
<g id="edge26_Node000014_Node000016" class="edge">
<title>Node16&#45;&gt;Node14</title>
<g id="a_edge26_Node000014_Node000016"><a xlink:title=" ">
<path fill="none" stroke="#9a32cd" stroke-dasharray="5,2" d="M350.29,-30.1C384.85,-34.81 423,-40.06 458,-45 463.8,-45.82 469.78,-46.67 475.8,-47.53"/>
<polygon fill="#9a32cd" stroke="#9a32cd" points="350.55,-26.6 340.17,-28.73 349.6,-33.54 350.55,-26.6"/>
</a>
</g>
<text text-anchor="middle" x="408" y="-48" font-family="Helvetica,sans-Serif" font-size="10.00" fill="grey"> _activeProfile</text>
</g>
</g>
</svg>
