<?xml version="1.0" encoding="UTF-8" standalone="no"?>
<!DOCTYPE svg PUBLIC "-//W3C//DTD SVG 1.1//EN"
 "http://www.w3.org/Graphics/SVG/1.1/DTD/svg11.dtd">
<!-- Generated by graphviz version 2.43.0 (0)
 -->
<!-- Title: WolfstagInteractive.ConvoCore.ConvoCoreDialogueHistoryUI Pages: 1 -->
<svg width="664pt" height="201pt"
 viewBox="0.00 0.00 664.00 200.50" xmlns="http://www.w3.org/2000/svg" xmlns:xlink="http://www.w3.org/1999/xlink">
<g id="graph0" class="graph" transform="scale(1 1) rotate(0) translate(4 196.5)">
<title>WolfstagInteractive.ConvoCore.ConvoCoreDialogueHistoryUI</title>
<!-- Node1 -->
<g id="Node000001" class="node">
<title>Node1</title>
<g id="a_Node000001"><a xlink:title=" ">
<polygon fill="#999999" stroke="#666666" points="656,-105 471,-105 471,-75 656,-75 656,-105"/>
<text text-anchor="start" x="479" y="-93" font-family="Helvetica,sans-Serif" font-size="10.00">WolfstagInteractive.Convo</text>
<text text-anchor="middle" x="563.5" y="-82" font-family="Helvetica,sans-Serif" font-size="10.00">Core.ConvoCoreDialogueHistoryUI</text>
</a>
</g>
</g>
<!-- Node2 -->
<g id="Node000002" class="node">
<title>Node2</title>
<g id="a_Node000002"><a xlink:title=" ">
<polygon fill="white" stroke="#666666" points="283.5,-192.5 190.5,-192.5 190.5,-173.5 283.5,-173.5 283.5,-192.5"/>
<text text-anchor="middle" x="237" y="-180.5" font-family="Helvetica,sans-Serif" font-size="10.00">MonoBehaviour</text>
</a>
</g>
</g>
<!-- Node2&#45;&gt;Node1 -->
<g id="edge1_Node000001_Node000002" class="edge">
<title>Node2&#45;&gt;Node1</title>
<g id="a_edge1_Node000001_Node000002"><a xlink:title=" ">
<path fill="none" stroke="#63b8ff" d="M293.94,-174.01C308.99,-171.2 325.19,-167.82 340,-164 405.04,-147.21 478.67,-121.32 522.8,-105.04"/>
<polygon fill="#63b8ff" stroke="#63b8ff" points="292.95,-170.63 283.74,-175.86 294.2,-177.52 292.95,-170.63"/>
</a>
</g>
</g>
<!-- Node3 -->
<g id="Node000003" class="node">
<title>Node3</title>
<g id="a_Node000003"><a xlink:href="classWolfstagInteractive_1_1ConvoCore_1_1ConvoCoreSettings.html" target="_top" xlink:title=" ">
<polygon fill="white" stroke="#666666" points="310,-126 164,-126 164,-96 310,-96 310,-126"/>
<text text-anchor="start" x="172" y="-114" font-family="Helvetica,sans-Serif" font-size="10.00">WolfstagInteractive.Convo</text>
<text text-anchor="middle" x="237" y="-103" font-family="Helvetica,sans-Serif" font-size="10.00">Core.ConvoCoreSettings</text>
</a>
</g>
</g>
<!-- Node3&#45;&gt;Node1 -->
<g id="edge2_Node000001_Node000003" class="edge">
<title>Node3&#45;&gt;Node1</title>
<g id="a_edge2_Node000001_Node000003"><a xlink:title=" ">
<path fill="none" stroke="#9a32cd" stroke-dasharray="5,2" d="M320.24,-105.68C366.18,-102.71 423.54,-98.99 470.91,-95.93"/>
<polygon fill="#9a32cd" stroke="#9a32cd" points="319.77,-102.2 310.02,-106.34 320.22,-109.19 319.77,-102.2"/>
</a>
</g>
<text text-anchor="middle" x="405.5" y="-105" font-family="Helvetica,sans-Serif" font-size="10.00" fill="grey"> convoCoreSettings</text>
</g>
<!-- Node3&#45;&gt;Node3 -->
<g id="edge4_Node000003_Node000003" class="edge">
<title>Node3&#45;&gt;Node3</title>
<g id="a_edge4_Node000003_Node000003"><a xlink:title=" ">
<path fill="none" stroke="#9a32cd" stroke-dasharray="5,2" d="M216,-136.6C218.87,-140.97 225.87,-144 237,-144 255.75,-144 262.78,-135.41 258.09,-126.28"/>
<polygon fill="#9a32cd" stroke="#9a32cd" points="219.49,-136.24 215.91,-126.28 212.49,-136.31 219.49,-136.24"/>
</a>
</g>
<text text-anchor="middle" x="237" y="-147" font-family="Helvetica,sans-Serif" font-size="10.00" fill="grey"> _instance</text>
</g>
<!-- Node4 -->
<g id="Node000004" class="node">
<title>Node4</title>
<g id="a_Node000004"><a xlink:title=" ">
<polygon fill="white" stroke="#666666" points="97,-95.5 0,-95.5 0,-76.5 97,-76.5 97,-95.5"/>
<text text-anchor="middle" x="48.5" y="-83.5" font-family="Helvetica,sans-Serif" font-size="10.00">ScriptableObject</text>
</a>
</g>
</g>
<!-- Node4&#45;&gt;Node3 -->
<g id="edge3_Node000003_Node000004" class="edge">
<title>Node4&#45;&gt;Node3</title>
<g id="a_edge3_Node000003_Node000004"><a xlink:title=" ">
<path fill="none" stroke="#63b8ff" d="M107.06,-93.72C125.02,-96.12 145.05,-98.81 163.87,-101.33"/>
<polygon fill="#63b8ff" stroke="#63b8ff" points="107.42,-90.23 97.04,-92.37 106.49,-97.17 107.42,-90.23"/>
</a>
</g>
</g>
<!-- Node6 -->
<g id="Node000006" class="node">
<title>Node6</title>
<g id="a_Node000006"><a xlink:href="classWolfstagInteractive_1_1ConvoCore_1_1ConvoCoreHistoryRendererProfile.html" target="_top" xlink:title=" ">
<polygon fill="white" stroke="#666666" points="340,-78 134,-78 134,-48 340,-48 340,-78"/>
<text text-anchor="start" x="142" y="-66" font-family="Helvetica,sans-Serif" font-size="10.00">WolfstagInteractive.Convo</text>
<text text-anchor="middle" x="237" y="-55" font-family="Helvetica,sans-Serif" font-size="10.00">Core.ConvoCoreHistoryRendererProfile</text>
</a>
</g>
</g>
<!-- Node4&#45;&gt;Node6 -->
<g id="edge7_Node000006_Node000004" class="edge">
<title>Node4&#45;&gt;Node6</title>
<g id="a_edge7_Node000006_Node000004"><a xlink:title=" ">
<path fill="none" stroke="#63b8ff" d="M107.15,-78.89C115.64,-77.84 124.59,-76.74 133.66,-75.62"/>
<polygon fill="#63b8ff" stroke="#63b8ff" points="106.54,-75.44 97.04,-80.14 107.4,-82.39 106.54,-75.44"/>
</a>
</g>
</g>
<!-- Node5 -->
<g id="Node000005" class="node">
<title>Node5</title>
<g id="a_Node000005"><a xlink:href="interfaceWolfstagInteractive_1_1ConvoCore_1_1IConvoCoreHistoryRenderer.html" target="_top" xlink:title="Base contract for any dialogue history renderer.">
<polygon fill="white" stroke="#666666" points="326,-30 148,-30 148,0 326,0 326,-30"/>
<text text-anchor="start" x="156" y="-18" font-family="Helvetica,sans-Serif" font-size="10.00">WolfstagInteractive.Convo</text>
<text text-anchor="middle" x="237" y="-7" font-family="Helvetica,sans-Serif" font-size="10.00">Core.IConvoCoreHistoryRenderer</text>
</a>
</g>
</g>
<!-- Node5&#45;&gt;Node1 -->
<g id="edge5_Node000001_Node000005" class="edge">
<title>Node5&#45;&gt;Node1</title>
<g id="a_edge5_Node000001_Node000005"><a xlink:title=" ">
<path fill="none" stroke="#9a32cd" stroke-dasharray="5,2" d="M331.82,-31.93C369.63,-39.23 413.55,-48.31 453,-58 473.29,-62.98 495.46,-69.29 514.5,-74.99"/>
<polygon fill="#9a32cd" stroke="#9a32cd" points="332.32,-28.46 321.84,-30.02 331,-35.34 332.32,-28.46"/>
</a>
</g>
<text text-anchor="middle" x="405.5" y="-61" font-family="Helvetica,sans-Serif" font-size="10.00" fill="grey"> _renderer</text>
</g>
<!-- Node6&#45;&gt;Node1 -->
<g id="edge6_Node000001_Node000006" class="edge">
<title>Node6&#45;&gt;Node1</title>
<g id="a_edge6_Node000001_Node000006"><a xlink:title=" ">
<path fill="none" stroke="#9a32cd" stroke-dasharray="5,2" d="M350.41,-72.35C389.78,-75.63 433.49,-79.27 470.95,-82.38"/>
<polygon fill="#9a32cd" stroke="#9a32cd" points="350.48,-68.85 340.23,-71.51 349.9,-75.82 350.48,-68.85"/>
</a>
</g>
<text text-anchor="middle" x="405.5" y="-83" font-family="Helvetica,sans-Serif" font-size="10.00" fill="grey"> _activeProfile</text>
</g>
</g>
</svg>
