<?xml version="1.0" encoding="UTF-8" standalone="no"?>
<!DOCTYPE svg PUBLIC "-//W3C//DTD SVG 1.1//EN"
 "http://www.w3.org/Graphics/SVG/1.1/DTD/svg11.dtd">
<!-- Generated by graphviz version 2.43.0 (0)
 -->
<!-- Title: WolfstagInteractive.ConvoCore.SequencedPresence Pages: 1 -->
<svg width="550pt" height="76pt"
 viewBox="0.00 0.00 550.00 75.50" xmlns="http://www.w3.org/2000/svg" xmlns:xlink="http://www.w3.org/1999/xlink">
<g id="graph0" class="graph" transform="scale(1 1) rotate(0) translate(4 71.5)">
<title>WolfstagInteractive.ConvoCore.SequencedPresence</title>
<!-- Node1 -->
<g id="Node000001" class="node">
<title>Node1</title>
<g id="a_Node000001"><a xlink:title="Presence type that wraps a list of other presence types and selects between them based on a conversat...">
<polygon fill="#999999" stroke="#666666" points="542,-53 396,-53 396,-23 542,-23 542,-53"/>
<text text-anchor="start" x="404" y="-41" font-family="Helvetica,sans-Serif" font-size="10.00">WolfstagInteractive.Convo</text>
<text text-anchor="middle" x="469" y="-30" font-family="Helvetica,sans-Serif" font-size="10.00">Core.SequencedPresence</text>
</a>
</g>
</g>
<!-- Node2 -->
<g id="Node000002" class="node">
<title>Node2</title>
<g id="a_Node000002"><a xlink:href="classWolfstagInteractive_1_1ConvoCore_1_1ConvoCoreCharacterPresence.html" target="_top" xlink:title="Abstract ScriptableObject base for all presence types.">
<polygon fill="white" stroke="#666666" points="308,-67.5 147,-67.5 147,-48.5 308,-48.5 308,-67.5"/>
<text text-anchor="middle" x="227.5" y="-55.5" font-family="Helvetica,sans-Serif" font-size="10.00">ConvoCoreCharacterPresence</text>
</a>
</g>
</g>
<!-- Node2&#45;&gt;Node1 -->
<g id="edge1_Node000001_Node000002" class="edge">
<title>Node2&#45;&gt;Node1</title>
<g id="a_edge1_Node000001_Node000002"><a xlink:title=" ">
<path fill="none" stroke="#63b8ff" d="M318.33,-50.5C343.92,-48.36 371.46,-46.06 395.86,-44.02"/>
<polygon fill="#63b8ff" stroke="#63b8ff" points="317.92,-47.02 308.25,-51.34 318.51,-54 317.92,-47.02"/>
</a>
</g>
</g>
<!-- Node3 -->
<g id="Node000003" class="node">
<title>Node3</title>
<g id="a_Node000003"><a xlink:title=" ">
<polygon fill="white" stroke="#666666" points="97,-45.5 0,-45.5 0,-26.5 97,-26.5 97,-45.5"/>
<text text-anchor="middle" x="48.5" y="-33.5" font-family="Helvetica,sans-Serif" font-size="10.00">ScriptableObject</text>
</a>
</g>
</g>
<!-- Node3&#45;&gt;Node2 -->
<g id="edge2_Node000002_Node000003" class="edge">
<title>Node3&#45;&gt;Node2</title>
<g id="a_edge2_Node000002_Node000003"><a xlink:title=" ">
<path fill="none" stroke="#63b8ff" d="M107.52,-43.21C121.06,-44.89 135.68,-46.71 149.89,-48.48"/>
<polygon fill="#63b8ff" stroke="#63b8ff" points="107.75,-39.71 97.4,-41.95 106.89,-46.66 107.75,-39.71"/>
</a>
</g>
</g>
<!-- Node4 -->
<g id="Node000004" class="node">
<title>Node4</title>
<g id="a_Node000004"><a xlink:href="classWolfstagInteractive_1_1ConvoCore_1_1ConvoCoreCharacterPresence.html" target="_top" xlink:title="Abstract ScriptableObject base for all presence types.">
<polygon fill="white" stroke="#666666" points="321,-30 134,-30 134,0 321,0 321,-30"/>
<text text-anchor="start" x="142" y="-18" font-family="Helvetica,sans-Serif" font-size="10.00">WolfstagInteractive.Convo</text>
<text text-anchor="middle" x="227.5" y="-7" font-family="Helvetica,sans-Serif" font-size="10.00">Core.ConvoCoreCharacterPresence</text>
</a>
</g>
</g>
<!-- Node3&#45;&gt;Node4 -->
<g id="edge4_Node000004_Node000003" class="edge">
<title>Node3&#45;&gt;Node4</title>
<g id="a_edge4_Node000004_Node000003"><a xlink:title=" ">
<path fill="none" stroke="#63b8ff" d="M107.51,-29.12C116,-28.11 124.91,-27.05 133.88,-25.99"/>
<polygon fill="#63b8ff" stroke="#63b8ff" points="106.92,-25.66 97.4,-30.32 107.74,-32.61 106.92,-25.66"/>
</a>
</g>
</g>
<!-- Node4&#45;&gt;Node1 -->
<g id="edge3_Node000001_Node000004" class="edge">
<title>Node4&#45;&gt;Node1</title>
<g id="a_edge3_Node000001_Node000004"><a xlink:title=" ">
<path fill="none" stroke="#9a32cd" stroke-dasharray="5,2" d="M331.33,-24.87C353,-26.96 375.43,-29.11 395.7,-31.06"/>
<polygon fill="#9a32cd" stroke="#9a32cd" points="331.39,-21.36 321.1,-23.89 330.72,-28.33 331.39,-21.36"/>
</a>
</g>
<text text-anchor="middle" x="358.5" y="-33" font-family="Helvetica,sans-Serif" font-size="10.00" fill="grey"> _active</text>
</g>
</g>
</svg>
