<?xml version="1.0" encoding="UTF-8" standalone="no"?>
<!DOCTYPE svg PUBLIC "-//W3C//DTD SVG 1.1//EN"
 "http://www.w3.org/Graphics/SVG/1.1/DTD/svg11.dtd">
<!-- Generated by graphviz version 2.43.0 (0)
 -->
<!-- Title: WolfstagInteractive.ConvoCore.ConvoCoreSampleUI Pages: 1 -->
<svg width="2195pt" height="516pt"
 viewBox="0.00 0.00 2195.00 515.50" xmlns="http://www.w3.org/2000/svg" xmlns:xlink="http://www.w3.org/1999/xlink">
<g id="graph0" class="graph" transform="scale(1 1) rotate(0) translate(4 511.5)">
<title>WolfstagInteractive.ConvoCore.ConvoCoreSampleUI</title>
<!-- Node1 -->
<g id="Node000001" class="node">
<title>Node1</title>
<g id="a_Node000001"><a xlink:title="Legacy monolithic sample UI.">
<polygon fill="#999999" stroke="#666666" points="2187,-83.5 2041,-83.5 2041,-53.5 2187,-53.5 2187,-83.5"/>
<text text-anchor="start" x="2049" y="-71.5" font-family="Helvetica,sans-Serif" font-size="10.00">WolfstagInteractive.Convo</text>
<text text-anchor="middle" x="2114" y="-60.5" font-family="Helvetica,sans-Serif" font-size="10.00">Core.ConvoCoreSampleUI</text>
</a>
</g>
</g>
<!-- Node2 -->
<g id="Node000002" class="node">
<title>Node2</title>
<g id="a_Node000002"><a xlink:href="classWolfstagInteractive_1_1ConvoCore_1_1ConvoCoreUIFoundation.html" target="_top" xlink:title="Used as a basis of any UI that can be assigned in the inspector that includes all the base functions ...">
<polygon fill="white" stroke="#666666" points="1820.5,-192 1686.5,-192 1686.5,-173 1820.5,-173 1820.5,-192"/>
<text text-anchor="middle" x="1753.5" y="-180" font-family="Helvetica,sans-Serif" font-size="10.00">ConvoCoreUIFoundation</text>
</a>
</g>
</g>
<!-- Node2&#45;&gt;Node1 -->
<g id="edge1_Node000001_Node000002" class="edge">
<title>Node2&#45;&gt;Node1</title>
<g id="a_edge1_Node000001_Node000002"><a xlink:title=" ">
<path fill="none" stroke="#63b8ff" d="M1824.75,-193.05C1881.12,-198.27 1960.83,-198.15 2023,-168.5 2061.58,-150.1 2090.99,-106.91 2104.63,-83.77"/>
<polygon fill="#63b8ff" stroke="#63b8ff" points="1824.8,-189.54 1814.5,-192.02 1824.1,-196.51 1824.8,-189.54"/>
</a>
</g>
</g>
<!-- Node3 -->
<g id="Node000003" class="node">
<title>Node3</title>
<g id="a_Node000003"><a xlink:title=" ">
<polygon fill="white" stroke="#666666" points="1071,-125 978,-125 978,-106 1071,-106 1071,-125"/>
<text text-anchor="middle" x="1024.5" y="-113" font-family="Helvetica,sans-Serif" font-size="10.00">MonoBehaviour</text>
</a>
</g>
</g>
<!-- Node3&#45;&gt;Node2 -->
<g id="edge2_Node000002_Node000003" class="edge">
<title>Node3&#45;&gt;Node2</title>
<g id="a_edge2_Node000002_Node000003"><a xlink:title=" ">
<path fill="none" stroke="#63b8ff" d="M1081.08,-109.08C1189.41,-98.22 1435.61,-81.69 1635,-128.5 1673.69,-137.58 1715.05,-159.92 1736.89,-172.84"/>
<polygon fill="#63b8ff" stroke="#63b8ff" points="1080.63,-105.61 1071.04,-110.11 1081.34,-112.57 1080.63,-105.61"/>
</a>
</g>
</g>
<!-- Node5 -->
<g id="Node000005" class="node">
<title>Node5</title>
<g id="a_Node000005"><a xlink:href="classWolfstagInteractive_1_1ConvoCore_1_1ConvoCore.html" target="_top" xlink:title="Main conversation runner MonoBehaviour.">
<polygon fill="white" stroke="#666666" points="1438,-361.5 1292,-361.5 1292,-331.5 1438,-331.5 1438,-361.5"/>
<text text-anchor="start" x="1300" y="-349.5" font-family="Helvetica,sans-Serif" font-size="10.00">WolfstagInteractive.Convo</text>
<text text-anchor="middle" x="1365" y="-338.5" font-family="Helvetica,sans-Serif" font-size="10.00">Core.ConvoCore</text>
</a>
</g>
</g>
<!-- Node3&#45;&gt;Node5 -->
<g id="edge5_Node000005_Node000003" class="edge">
<title>Node3&#45;&gt;Node5</title>
<g id="a_edge5_Node000005_Node000003"><a xlink:title=" ">
<path fill="none" stroke="#63b8ff" d="M1062.63,-128.72C1081.17,-135.82 1103.7,-145.22 1123,-155.5 1136.92,-162.92 1228.58,-224.77 1241,-234.5 1246.54,-238.84 1315.01,-301.55 1347.32,-331.19"/>
<polygon fill="#63b8ff" stroke="#63b8ff" points="1063.66,-125.36 1053.07,-125.12 1061.19,-131.91 1063.66,-125.36"/>
</a>
</g>
</g>
<!-- Node10 -->
<g id="Node000010" class="node">
<title>Node10</title>
<g id="a_Node000010"><a xlink:href="classWolfstagInteractive_1_1ConvoCore_1_1ConvoCoreUIFoundation.html" target="_top" xlink:title="Used as a basis of any UI that can be assigned in the inspector that includes all the base functions ...">
<polygon fill="white" stroke="#666666" points="1833.5,-259.5 1673.5,-259.5 1673.5,-229.5 1833.5,-229.5 1833.5,-259.5"/>
<text text-anchor="start" x="1681.5" y="-247.5" font-family="Helvetica,sans-Serif" font-size="10.00">WolfstagInteractive.Convo</text>
<text text-anchor="middle" x="1753.5" y="-236.5" font-family="Helvetica,sans-Serif" font-size="10.00">Core.ConvoCoreUIFoundation</text>
</a>
</g>
</g>
<!-- Node3&#45;&gt;Node10 -->
<g id="edge11_Node000010_Node000003" class="edge">
<title>Node3&#45;&gt;Node10</title>
<g id="a_edge11_Node000010_Node000003"><a xlink:title=" ">
<path fill="none" stroke="#63b8ff" d="M1081.25,-111.45C1126.82,-110.57 1191.57,-115.06 1241,-141.5 1251.84,-147.3 1248.29,-156.46 1259,-162.5 1276.91,-172.6 1538.38,-212.63 1673.26,-232.78"/>
<polygon fill="#63b8ff" stroke="#63b8ff" points="1081.15,-107.95 1071.26,-111.73 1081.35,-114.94 1081.15,-107.95"/>
</a>
</g>
</g>
<!-- Node11 -->
<g id="Node000011" class="node">
<title>Node11</title>
<g id="a_Node000011"><a xlink:href="classWolfstagInteractive_1_1ConvoCore_1_1ConvoCoreDialogueHistoryUI.html" target="_top" xlink:title=" ">
<polygon fill="white" stroke="#666666" points="1457.5,-241.5 1272.5,-241.5 1272.5,-211.5 1457.5,-211.5 1457.5,-241.5"/>
<text text-anchor="start" x="1280.5" y="-229.5" font-family="Helvetica,sans-Serif" font-size="10.00">WolfstagInteractive.Convo</text>
<text text-anchor="middle" x="1365" y="-218.5" font-family="Helvetica,sans-Serif" font-size="10.00">Core.ConvoCoreDialogueHistoryUI</text>
</a>
</g>
</g>
<!-- Node3&#45;&gt;Node11 -->
<g id="edge15_Node000011_Node000003" class="edge">
<title>Node3&#45;&gt;Node11</title>
<g id="a_edge15_Node000011_Node000003"><a xlink:title=" ">
<path fill="none" stroke="#63b8ff" d="M1081.25,-126.35C1140.69,-138.3 1228.07,-157.05 1241,-166.5 1253.55,-175.68 1246.66,-187.04 1259,-196.5 1267.05,-202.67 1276.32,-207.58 1285.95,-211.47"/>
<polygon fill="#63b8ff" stroke="#63b8ff" points="1081.72,-122.88 1071.23,-124.35 1080.35,-129.74 1081.72,-122.88"/>
</a>
</g>
</g>
<!-- Node18 -->
<g id="Node000018" class="node">
<title>Node18</title>
<g id="a_Node000018"><a xlink:href="classWolfstagInteractive_1_1ConvoCore_1_1ConvoCorePrefabRepresentationSpawner.html" target="_top" xlink:title="Resolves, tracks, and releases prefab&#45;based character displays for a single UI instance.">
<polygon fill="white" stroke="#666666" points="1854,-41 1653,-41 1653,0 1854,0 1854,-41"/>
<text text-anchor="start" x="1661" y="-29" font-family="Helvetica,sans-Serif" font-size="10.00">WolfstagInteractive.Convo</text>
<text text-anchor="start" x="1661" y="-18" font-family="Helvetica,sans-Serif" font-size="10.00">Core.ConvoCorePrefabRepresentation</text>
<text text-anchor="middle" x="1753.5" y="-7" font-family="Helvetica,sans-Serif" font-size="10.00">Spawner</text>
</a>
</g>
</g>
<!-- Node3&#45;&gt;Node18 -->
<g id="edge29_Node000018_Node000003" class="edge">
<title>Node3&#45;&gt;Node18</title>
<g id="a_edge29_Node000018_Node000003"><a xlink:title=" ">
<path fill="none" stroke="#63b8ff" d="M1057.11,-101.93C1080.15,-92.29 1112.23,-79.35 1141,-69.5 1192.64,-51.83 1205.08,-43.95 1259,-35.5 1394.07,-14.33 1552.4,-13.72 1652.57,-16.26"/>
<polygon fill="#63b8ff" stroke="#63b8ff" points="1055.68,-98.74 1047.83,-105.85 1058.4,-105.19 1055.68,-98.74"/>
</a>
</g>
</g>
<!-- Node19 -->
<g id="Node000019" class="node">
<title>Node19</title>
<g id="a_Node000019"><a xlink:href="classWolfstagInteractive_1_1ConvoCore_1_1ConvoCoreSceneCharacterRegistry.html" target="_top" xlink:title="Scene&#45;level registry that maps developer&#45;assigned string IDs to IConvoCoreCharacterDisplay instances ...">
<polygon fill="white" stroke="#666666" points="1471,-74.5 1259,-74.5 1259,-44.5 1471,-44.5 1471,-74.5"/>
<text text-anchor="start" x="1267" y="-62.5" font-family="Helvetica,sans-Serif" font-size="10.00">WolfstagInteractive.Convo</text>
<text text-anchor="middle" x="1365" y="-51.5" font-family="Helvetica,sans-Serif" font-size="10.00">Core.ConvoCoreSceneCharacterRegistry</text>
</a>
</g>
</g>
<!-- Node3&#45;&gt;Node19 -->
<g id="edge31_Node000019_Node000003" class="edge">
<title>Node3&#45;&gt;Node19</title>
<g id="a_edge31_Node000019_Node000003"><a xlink:title=" ">
<path fill="none" stroke="#63b8ff" d="M1071.92,-103.53C1092.91,-98.4 1118.1,-92.65 1141,-88.5 1179.22,-81.57 1221.42,-75.64 1258.73,-70.99"/>
<polygon fill="#63b8ff" stroke="#63b8ff" points="1070.85,-100.19 1061.98,-105.98 1072.52,-106.98 1070.85,-100.19"/>
</a>
</g>
</g>
<!-- Node4 -->
<g id="Node000004" class="node">
<title>Node4</title>
<g id="a_Node000004"><a xlink:href="interfaceWolfstagInteractive_1_1ConvoCore_1_1IUIFoundation.html" target="_top" xlink:title="Contract between the ConvoCore runner and a dialogue UI implementation.">
<polygon fill="white" stroke="#666666" points="1407,-153 1323,-153 1323,-134 1407,-134 1407,-153"/>
<text text-anchor="middle" x="1365" y="-141" font-family="Helvetica,sans-Serif" font-size="10.00">IUIFoundation</text>
</a>
</g>
</g>
<!-- Node4&#45;&gt;Node2 -->
<g id="edge3_Node000002_Node000004" class="edge">
<title>Node4&#45;&gt;Node2</title>
<g id="a_edge3_Node000002_Node000004"><a xlink:title=" ">
<path fill="none" stroke="#63b8ff" d="M1417.47,-137.82C1471.93,-133.05 1560.16,-128.82 1635,-141.5 1670.15,-147.46 1708.8,-162.77 1731.84,-172.9"/>
<polygon fill="#63b8ff" stroke="#63b8ff" points="1417.01,-134.35 1407.37,-138.75 1417.65,-141.32 1417.01,-134.35"/>
</a>
</g>
</g>
<!-- Node4&#45;&gt;Node10 -->
<g id="edge12_Node000010_Node000004" class="edge">
<title>Node4&#45;&gt;Node10</title>
<g id="a_edge12_Node000010_Node000004"><a xlink:title=" ">
<path fill="none" stroke="#63b8ff" d="M1417.65,-148.51C1472.62,-154.85 1561.6,-168.02 1635,-192.5 1643.48,-195.33 1644.89,-197.72 1653,-201.5 1673.81,-211.19 1697.39,-221.41 1716.36,-229.46"/>
<polygon fill="#63b8ff" stroke="#63b8ff" points="1417.79,-145 1407.46,-147.37 1417.01,-151.96 1417.79,-145"/>
</a>
</g>
</g>
<!-- Node5&#45;&gt;Node2 -->
<g id="edge4_Node000002_Node000005" class="edge">
<title>Node5&#45;&gt;Node2</title>
<g id="a_edge4_Node000002_Node000005"><a xlink:title=" ">
<path fill="none" stroke="#9a32cd" stroke-dasharray="5,2" d="M1395.9,-325.8C1419.97,-310.12 1455.25,-289.33 1489,-277.5 1551.06,-255.75 1581.37,-291.56 1635,-253.5 1648.62,-243.83 1640.42,-231.49 1653,-220.5 1668.6,-206.87 1689.59,-197.9 1708.27,-192.11"/>
<polygon fill="#9a32cd" stroke="#9a32cd" points="1393.96,-322.88 1387.56,-331.32 1397.83,-328.72 1393.96,-322.88"/>
</a>
</g>
<text text-anchor="middle" x="1562" y="-280.5" font-family="Helvetica,sans-Serif" font-size="10.00" fill="grey"> ConvoCoreInstance</text>
</g>
<!-- Node5&#45;&gt;Node10 -->
<g id="edge13_Node000010_Node000005" class="edge">
<title>Node5&#45;&gt;Node10</title>
<g id="a_edge13_Node000010_Node000005"><a xlink:title=" ">
<path fill="none" stroke="#9a32cd" stroke-dasharray="5,2" d="M1423.1,-328.53C1443.71,-322.5 1467.26,-316.13 1489,-311.5 1553.12,-297.83 1571.61,-307.23 1635,-290.5 1664.55,-282.7 1696.78,-269.74 1720,-259.56"/>
<polygon fill="#9a32cd" stroke="#9a32cd" points="1421.82,-325.25 1413.23,-331.45 1423.81,-331.97 1421.82,-325.25"/>
</a>
</g>
<text text-anchor="middle" x="1562" y="-314.5" font-family="Helvetica,sans-Serif" font-size="10.00" fill="grey"> ConvoCoreInstance</text>
</g>
<!-- Node6 -->
<g id="Node000006" class="node">
<title>Node6</title>
<g id="a_Node000006"><a xlink:href="interfaceWolfstagInteractive_1_1ConvoCore_1_1IConvoCoreRunner.html" target="_top" xlink:title="Minimal interface implemented by ConvoCore.">
<polygon fill="white" stroke="#666666" points="1078,-459 971,-459 971,-440 1078,-440 1078,-459"/>
<text text-anchor="middle" x="1024.5" y="-447" font-family="Helvetica,sans-Serif" font-size="10.00">IConvoCoreRunner</text>
</a>
</g>
</g>
<!-- Node6&#45;&gt;Node5 -->
<g id="edge6_Node000005_Node000006" class="edge">
<title>Node6&#45;&gt;Node5</title>
<g id="a_edge6_Node000005_Node000006"><a xlink:title=" ">
<path fill="none" stroke="#63b8ff" d="M1088.62,-450C1132.5,-448.56 1191.73,-442.98 1241,-425.5 1282.14,-410.9 1323.52,-380.26 1346.25,-361.72"/>
<polygon fill="#63b8ff" stroke="#63b8ff" points="1088.28,-446.51 1078.37,-450.27 1088.46,-453.51 1088.28,-446.51"/>
</a>
</g>
</g>
<!-- Node7 -->
<g id="Node000007" class="node">
<title>Node7</title>
<g id="a_Node000007"><a xlink:href="classWolfstagInteractive_1_1ConvoCore_1_1ConvoCoreConversationData.html" target="_top" xlink:title=" ">
<polygon fill="white" stroke="#666666" points="481,-352.5 298,-352.5 298,-322.5 481,-322.5 481,-352.5"/>
<text text-anchor="start" x="306" y="-340.5" font-family="Helvetica,sans-Serif" font-size="10.00">WolfstagInteractive.Convo</text>
<text text-anchor="middle" x="389.5" y="-329.5" font-family="Helvetica,sans-Serif" font-size="10.00">Core.ConvoCoreConversationData</text>
</a>
</g>
</g>
<!-- Node7&#45;&gt;Node5 -->
<g id="edge7_Node000005_Node000007" class="edge">
<title>Node7&#45;&gt;Node5</title>
<g id="a_edge7_Node000005_Node000007"><a xlink:title=" ">
<path fill="none" stroke="#9a32cd" stroke-dasharray="5,2" d="M488.9,-354.06C629.5,-375.62 895.99,-408.77 1123,-392.5 1186.31,-387.96 1257.56,-373.12 1306.07,-361.51"/>
<polygon fill="#9a32cd" stroke="#9a32cd" points="489.42,-350.59 479,-352.52 488.35,-357.51 489.42,-350.59"/>
</a>
</g>
<text text-anchor="middle" x="805" y="-397.5" font-family="Helvetica,sans-Serif" font-size="10.00" fill="grey"> ConversationData</text>
</g>
<!-- Node8 -->
<g id="Node000008" class="node">
<title>Node8</title>
<g id="a_Node000008"><a xlink:title=" ">
<polygon fill="white" stroke="#666666" points="97,-257 0,-257 0,-238 97,-238 97,-257"/>
<text text-anchor="middle" x="48.5" y="-245" font-family="Helvetica,sans-Serif" font-size="10.00">ScriptableObject</text>
</a>
</g>
</g>
<!-- Node8&#45;&gt;Node7 -->
<g id="edge8_Node000007_Node000008" class="edge">
<title>Node8&#45;&gt;Node7</title>
<g id="a_edge8_Node000007_Node000008"><a xlink:title=" ">
<path fill="none" stroke="#63b8ff" d="M69.48,-263.41C85.85,-275.59 110.14,-291.73 134,-300.5 186.38,-319.76 248.29,-329.03 297.93,-333.48"/>
<polygon fill="#63b8ff" stroke="#63b8ff" points="71.32,-260.42 61.25,-257.13 67.07,-265.98 71.32,-260.42"/>
</a>
</g>
</g>
<!-- Node12 -->
<g id="Node000012" class="node">
<title>Node12</title>
<g id="a_Node000012"><a xlink:href="classWolfstagInteractive_1_1ConvoCore_1_1ConvoCoreSettings.html" target="_top" xlink:title="Global runtime settings ScriptableObject for ConvoCore.">
<polygon fill="white" stroke="#666666" points="280,-262.5 134,-262.5 134,-232.5 280,-232.5 280,-262.5"/>
<text text-anchor="start" x="142" y="-250.5" font-family="Helvetica,sans-Serif" font-size="10.00">WolfstagInteractive.Convo</text>
<text text-anchor="middle" x="207" y="-239.5" font-family="Helvetica,sans-Serif" font-size="10.00">Core.ConvoCoreSettings</text>
</a>
</g>
</g>
<!-- Node8&#45;&gt;Node12 -->
<g id="edge17_Node000012_Node000008" class="edge">
<title>Node8&#45;&gt;Node12</title>
<g id="a_edge17_Node000012_Node000008"><a xlink:title=" ">
<path fill="none" stroke="#63b8ff" d="M107.31,-247.5C116,-247.5 125.05,-247.5 133.99,-247.5"/>
<polygon fill="#63b8ff" stroke="#63b8ff" points="107.31,-244 97.31,-247.5 107.31,-251 107.31,-244"/>
</a>
</g>
</g>
<!-- Node14 -->
<g id="Node000014" class="node">
<title>Node14</title>
<g id="a_Node000014"><a xlink:href="classWolfstagInteractive_1_1ConvoCore_1_1ConvoCoreHistoryRendererProfile.html" target="_top" xlink:title=" ">
<polygon fill="white" stroke="#666666" points="908,-193.5 702,-193.5 702,-163.5 908,-163.5 908,-193.5"/>
<text text-anchor="start" x="710" y="-181.5" font-family="Helvetica,sans-Serif" font-size="10.00">WolfstagInteractive.Convo</text>
<text text-anchor="middle" x="805" y="-170.5" font-family="Helvetica,sans-Serif" font-size="10.00">Core.ConvoCoreHistoryRendererProfile</text>
</a>
</g>
</g>
<!-- Node8&#45;&gt;Node14 -->
<g id="edge21_Node000014_Node000008" class="edge">
<title>Node8&#45;&gt;Node14</title>
<g id="a_edge21_Node000014_Node000008"><a xlink:title=" ">
<path fill="none" stroke="#63b8ff" d="M88.83,-234.96C102.96,-230.82 119.08,-226.51 134,-223.5 332.28,-183.5 569.54,-177.05 701.88,-177.05"/>
<polygon fill="#63b8ff" stroke="#63b8ff" points="87.52,-231.7 78.94,-237.92 89.53,-238.4 87.52,-231.7"/>
</a>
</g>
</g>
<!-- Node9 -->
<g id="Node000009" class="node">
<title>Node9</title>
<g id="a_Node000009"><a xlink:href="interfaceWolfstagInteractive_1_1ConvoCore_1_1IConvoInput.html" target="_top" xlink:title="Input strategy interface.">
<polygon fill="white" stroke="#666666" points="1097.5,-383.5 951.5,-383.5 951.5,-353.5 1097.5,-353.5 1097.5,-383.5"/>
<text text-anchor="start" x="959.5" y="-371.5" font-family="Helvetica,sans-Serif" font-size="10.00">WolfstagInteractive.Convo</text>
<text text-anchor="middle" x="1024.5" y="-360.5" font-family="Helvetica,sans-Serif" font-size="10.00">Core.IConvoInput</text>
</a>
</g>
</g>
<!-- Node9&#45;&gt;Node5 -->
<g id="edge9_Node000005_Node000009" class="edge">
<title>Node9&#45;&gt;Node5</title>
<g id="a_edge9_Node000005_Node000009"><a xlink:title=" ">
<path fill="none" stroke="#9a32cd" stroke-dasharray="5,2" d="M1107.99,-363.14C1164.24,-359.48 1238.01,-354.69 1291.91,-351.19"/>
<polygon fill="#9a32cd" stroke="#9a32cd" points="1107.45,-359.67 1097.7,-363.81 1107.91,-366.65 1107.45,-359.67"/>
</a>
</g>
<text text-anchor="middle" x="1191" y="-363.5" font-family="Helvetica,sans-Serif" font-size="10.00" fill="grey"> Input</text>
</g>
<!-- Node10&#45;&gt;Node5 -->
<g id="edge10_Node000005_Node000010" class="edge">
<title>Node10&#45;&gt;Node5</title>
<g id="a_edge10_Node000005_Node000010"><a xlink:title=" ">
<path fill="none" stroke="#9a32cd" stroke-dasharray="5,2" d="M1728.5,-266.42C1706.11,-285.43 1670.85,-311.83 1635,-324.5 1571.05,-347.1 1493.42,-351.18 1438.02,-350.45"/>
<polygon fill="#9a32cd" stroke="#9a32cd" points="1730.89,-268.99 1736.15,-259.79 1726.3,-263.7 1730.89,-268.99"/>
</a>
</g>
<text text-anchor="middle" x="1562" y="-352.5" font-family="Helvetica,sans-Serif" font-size="10.00" fill="grey"> ConversationUI</text>
</g>
<!-- Node11&#45;&gt;Node2 -->
<g id="edge27_Node000002_Node000011" class="edge">
<title>Node11&#45;&gt;Node2</title>
<g id="a_edge27_Node000002_Node000011"><a xlink:title=" ">
<path fill="none" stroke="#9a32cd" stroke-dasharray="5,2" d="M1467.64,-214.93C1536.79,-207.06 1626.29,-196.87 1686.35,-190.03"/>
<polygon fill="#9a32cd" stroke="#9a32cd" points="1467.14,-211.46 1457.6,-216.07 1467.93,-218.42 1467.14,-211.46"/>
</a>
</g>
<text text-anchor="middle" x="1562" y="-214.5" font-family="Helvetica,sans-Serif" font-size="10.00" fill="grey"> ConvoCoreDialogueHistoryUI</text>
</g>
<!-- Node11&#45;&gt;Node10 -->
<g id="edge14_Node000010_Node000011" class="edge">
<title>Node11&#45;&gt;Node10</title>
<g id="a_edge14_Node000010_Node000011"><a xlink:title=" ">
<path fill="none" stroke="#9a32cd" stroke-dasharray="5,2" d="M1467.76,-231.24C1532.05,-234.23 1613.9,-238.05 1673.33,-240.81"/>
<polygon fill="#9a32cd" stroke="#9a32cd" points="1467.75,-227.73 1457.6,-230.77 1467.42,-234.73 1467.75,-227.73"/>
</a>
</g>
<text text-anchor="middle" x="1562" y="-241.5" font-family="Helvetica,sans-Serif" font-size="10.00" fill="grey"> ConvoCoreDialogueHistoryUI</text>
</g>
<!-- Node12&#45;&gt;Node11 -->
<g id="edge16_Node000011_Node000012" class="edge">
<title>Node12&#45;&gt;Node11</title>
<g id="a_edge16_Node000011_Node000012"><a xlink:title=" ">
<path fill="none" stroke="#9a32cd" stroke-dasharray="5,2" d="M290.33,-246C499.93,-242.2 1052.6,-232.16 1272.17,-228.17"/>
<polygon fill="#9a32cd" stroke="#9a32cd" points="290.25,-242.51 280.31,-246.19 290.37,-249.5 290.25,-242.51"/>
</a>
</g>
<text text-anchor="middle" x="805" y="-240.5" font-family="Helvetica,sans-Serif" font-size="10.00" fill="grey"> convoCoreSettings</text>
</g>
<!-- Node12&#45;&gt;Node12 -->
<g id="edge18_Node000012_Node000012" class="edge">
<title>Node12&#45;&gt;Node12</title>
<g id="a_edge18_Node000012_Node000012"><a xlink:title=" ">
<path fill="none" stroke="#9a32cd" stroke-dasharray="5,2" d="M191.25,-273.1C193.4,-277.47 198.65,-280.5 207,-280.5 221.06,-280.5 226.34,-271.91 222.82,-262.78"/>
<polygon fill="#9a32cd" stroke="#9a32cd" points="194.74,-272.75 191.18,-262.78 187.74,-272.8 194.74,-272.75"/>
</a>
</g>
<text text-anchor="middle" x="207" y="-283.5" font-family="Helvetica,sans-Serif" font-size="10.00" fill="grey"> _instance</text>
</g>
<!-- Node16 -->
<g id="Node000016" class="node">
<title>Node16</title>
<g id="a_Node000016"><a xlink:href="classWolfstagInteractive_1_1ConvoCore_1_1ConvoCoreLanguageManager.html" target="_top" xlink:title=" ">
<polygon fill="white" stroke="#666666" points="684,-301.5 499,-301.5 499,-271.5 684,-271.5 684,-301.5"/>
<text text-anchor="start" x="507" y="-289.5" font-family="Helvetica,sans-Serif" font-size="10.00">WolfstagInteractive.Convo</text>
<text text-anchor="middle" x="591.5" y="-278.5" font-family="Helvetica,sans-Serif" font-size="10.00">Core.ConvoCoreLanguageManager</text>
</a>
</g>
</g>
<!-- Node12&#45;&gt;Node16 -->
<g id="edge25_Node000016_Node000012" class="edge">
<title>Node12&#45;&gt;Node16</title>
<g id="a_edge25_Node000016_Node000012"><a xlink:title=" ">
<path fill="none" stroke="#9a32cd" stroke-dasharray="5,2" d="M290.42,-255.9C351.71,-262.15 435.37,-270.68 498.78,-277.15"/>
<polygon fill="#9a32cd" stroke="#9a32cd" points="290.7,-252.41 280.4,-254.88 289.99,-259.38 290.7,-252.41"/>
</a>
</g>
<text text-anchor="middle" x="389.5" y="-277.5" font-family="Helvetica,sans-Serif" font-size="10.00" fill="grey"> _convoCoreSettings</text>
</g>
<!-- Node13 -->
<g id="Node000013" class="node">
<title>Node13</title>
<g id="a_Node000013"><a xlink:href="interfaceWolfstagInteractive_1_1ConvoCore_1_1IConvoCoreHistoryRenderer.html" target="_top" xlink:title="Base contract for any dialogue history renderer.">
<polygon fill="white" stroke="#666666" points="1113.5,-275.5 935.5,-275.5 935.5,-245.5 1113.5,-245.5 1113.5,-275.5"/>
<text text-anchor="start" x="943.5" y="-263.5" font-family="Helvetica,sans-Serif" font-size="10.00">WolfstagInteractive.Convo</text>
<text text-anchor="middle" x="1024.5" y="-252.5" font-family="Helvetica,sans-Serif" font-size="10.00">Core.IConvoCoreHistoryRenderer</text>
</a>
</g>
</g>
<!-- Node13&#45;&gt;Node11 -->
<g id="edge19_Node000011_Node000013" class="edge">
<title>Node13&#45;&gt;Node11</title>
<g id="a_edge19_Node000011_Node000013"><a xlink:title=" ">
<path fill="none" stroke="#9a32cd" stroke-dasharray="5,2" d="M1123.71,-250.64C1170.56,-245.93 1226.27,-240.33 1272.25,-235.72"/>
<polygon fill="#9a32cd" stroke="#9a32cd" points="1123.15,-247.17 1113.55,-251.66 1123.85,-254.14 1123.15,-247.17"/>
</a>
</g>
<text text-anchor="middle" x="1191" y="-251.5" font-family="Helvetica,sans-Serif" font-size="10.00" fill="grey"> _renderer</text>
</g>
<!-- Node14&#45;&gt;Node11 -->
<g id="edge20_Node000011_Node000014" class="edge">
<title>Node14&#45;&gt;Node11</title>
<g id="a_edge20_Node000011_Node000014"><a xlink:title=" ">
<path fill="none" stroke="#9a32cd" stroke-dasharray="5,2" d="M918.61,-180.84C979.27,-182.77 1055.33,-186.25 1123,-192.5 1172.54,-197.08 1227.5,-204.64 1272.4,-211.47"/>
<polygon fill="#9a32cd" stroke="#9a32cd" points="918.35,-177.33 908.24,-180.53 918.13,-184.33 918.35,-177.33"/>
</a>
</g>
<text text-anchor="middle" x="1024.5" y="-195.5" font-family="Helvetica,sans-Serif" font-size="10.00" fill="grey"> _activeProfile</text>
</g>
<!-- Node15 -->
<g id="Node000015" class="node">
<title>Node15</title>
<g id="a_Node000015"><a xlink:href="classWolfstagInteractive_1_1ConvoCore_1_1ConvoCoreDialogueLocalizationHandler.html" target="_top" xlink:title=" ">
<polygon fill="white" stroke="#666666" points="1123,-335 926,-335 926,-294 1123,-294 1123,-335"/>
<text text-anchor="start" x="934" y="-323" font-family="Helvetica,sans-Serif" font-size="10.00">WolfstagInteractive.Convo</text>
<text text-anchor="start" x="934" y="-312" font-family="Helvetica,sans-Serif" font-size="10.00">Core.ConvoCoreDialogueLocalization</text>
<text text-anchor="middle" x="1024.5" y="-301" font-family="Helvetica,sans-Serif" font-size="10.00">Handler</text>
</a>
</g>
</g>
<!-- Node15&#45;&gt;Node5 -->
<g id="edge22_Node000005_Node000015" class="edge">
<title>Node15&#45;&gt;Node5</title>
<g id="a_edge22_Node000005_Node000015"><a xlink:title=" ">
<path fill="none" stroke="#9a32cd" stroke-dasharray="5,2" d="M1133.63,-324.72C1185.33,-329.61 1245.83,-335.33 1291.86,-339.68"/>
<polygon fill="#9a32cd" stroke="#9a32cd" points="1133.69,-321.21 1123.41,-323.76 1133.03,-328.18 1133.69,-321.21"/>
</a>
</g>
<text text-anchor="middle" x="1191" y="-336.5" font-family="Helvetica,sans-Serif" font-size="10.00" fill="grey"> LocalizationHandler</text>
</g>
<!-- Node16&#45;&gt;Node15 -->
<g id="edge23_Node000015_Node000016" class="edge">
<title>Node16&#45;&gt;Node15</title>
<g id="a_edge23_Node000015_Node000016"><a xlink:title=" ">
<path fill="none" stroke="#9a32cd" stroke-dasharray="5,2" d="M694.33,-293.12C764.38,-297.67 856.88,-303.68 925.98,-308.16"/>
<polygon fill="#9a32cd" stroke="#9a32cd" points="694.37,-289.61 684.17,-292.46 693.92,-296.6 694.37,-289.61"/>
</a>
</g>
<text text-anchor="middle" x="805" y="-309.5" font-family="Helvetica,sans-Serif" font-size="10.00" fill="grey"> _convoCoreLanguageManager</text>
</g>
<!-- Node16&#45;&gt;Node16 -->
<g id="edge24_Node000016_Node000016" class="edge">
<title>Node16&#45;&gt;Node16</title>
<g id="a_edge24_Node000016_Node000016"><a xlink:title=" ">
<path fill="none" stroke="#9a32cd" stroke-dasharray="5,2" d="M556.14,-312.1C560.97,-316.47 572.76,-319.5 591.5,-319.5 623.06,-319.5 634.9,-310.91 627.01,-301.78"/>
<polygon fill="#9a32cd" stroke="#9a32cd" points="559.64,-311.72 555.99,-301.78 552.64,-311.83 559.64,-311.72"/>
</a>
</g>
<text text-anchor="middle" x="591.5" y="-322.5" font-family="Helvetica,sans-Serif" font-size="10.00" fill="grey"> _instance</text>
</g>
<!-- Node17 -->
<g id="Node000017" class="node">
<title>Node17</title>
<g id="a_Node000017"><a xlink:href="interfaceWolfstagInteractive_1_1ConvoCore_1_1IConversationContext.html" target="_top" xlink:title="Provides optional runtime context for branch evaluation.">
<polygon fill="white" stroke="#666666" points="1098.5,-507.5 950.5,-507.5 950.5,-477.5 1098.5,-477.5 1098.5,-507.5"/>
<text text-anchor="start" x="958.5" y="-495.5" font-family="Helvetica,sans-Serif" font-size="10.00">WolfstagInteractive.Convo</text>
<text text-anchor="middle" x="1024.5" y="-484.5" font-family="Helvetica,sans-Serif" font-size="10.00">Core.IConversationContext</text>
</a>
</g>
</g>
<!-- Node17&#45;&gt;Node5 -->
<g id="edge26_Node000005_Node000017" class="edge">
<title>Node17&#45;&gt;Node5</title>
<g id="a_edge26_Node000005_Node000017"><a xlink:title=" ">
<path fill="none" stroke="#9a32cd" stroke-dasharray="5,2" d="M1108.76,-485.69C1150.09,-479.91 1199.84,-469.23 1241,-449.5 1286.71,-427.59 1329.59,-384.77 1350.57,-361.85"/>
<polygon fill="#9a32cd" stroke="#9a32cd" points="1108.17,-482.24 1098.72,-487.02 1109.1,-489.18 1108.17,-482.24"/>
</a>
</g>
<text text-anchor="middle" x="1191" y="-482.5" font-family="Helvetica,sans-Serif" font-size="10.00" fill="grey"> _context</text>
</g>
<!-- Node18&#45;&gt;Node1 -->
<g id="edge28_Node000001_Node000018" class="edge">
<title>Node18&#45;&gt;Node1</title>
<g id="a_edge28_Node000001_Node000018"><a xlink:title=" ">
<path fill="none" stroke="#9a32cd" stroke-dasharray="5,2" d="M1864.03,-32.89C1912.77,-38.67 1970.82,-45.95 2023,-53.5 2028.8,-54.34 2034.8,-55.25 2040.83,-56.19"/>
<polygon fill="#9a32cd" stroke="#9a32cd" points="1864.44,-29.41 1854.09,-31.71 1863.61,-36.36 1864.44,-29.41"/>
</a>
</g>
<text text-anchor="middle" x="1947.5" y="-56.5" font-family="Helvetica,sans-Serif" font-size="10.00" fill="grey"> prefabRepresentationSpawner</text>
</g>
<!-- Node19&#45;&gt;Node18 -->
<g id="edge30_Node000018_Node000019" class="edge">
<title>Node19&#45;&gt;Node18</title>
<g id="a_edge30_Node000018_Node000019"><a xlink:title=" ">
<path fill="none" stroke="#9a32cd" stroke-dasharray="5,2" d="M1481.17,-47.88C1535.74,-42.37 1600.29,-35.86 1652.74,-30.57"/>
<polygon fill="#9a32cd" stroke="#9a32cd" points="1480.7,-44.41 1471.1,-48.89 1481.4,-51.37 1480.7,-44.41"/>
</a>
</g>
<text text-anchor="middle" x="1562" y="-49.5" font-family="Helvetica,sans-Serif" font-size="10.00" fill="grey"> sceneCharacterRegistry</text>
</g>
<!-- Node20 -->
<g id="Node000020" class="node">
<title>Node20</title>
<g id="a_Node000020"><a xlink:title=" ">
<polygon fill="white" stroke="#666666" points="1791.5,-78 1715.5,-78 1715.5,-59 1791.5,-59 1791.5,-78"/>
<text text-anchor="middle" x="1753.5" y="-66" font-family="Helvetica,sans-Serif" font-size="10.00">UnityEngine</text>
</a>
</g>
</g>
<!-- Node20&#45;&gt;Node1 -->
<g id="edge32_Node000001_Node000020" class="edge">
<title>Node20&#45;&gt;Node1</title>
<g id="a_edge32_Node000001_Node000020"><a xlink:title=" ">
<path fill="none" stroke="#9a32cd" stroke-dasharray="5,2" d="M1801.62,-68.5C1862.58,-68.5 1969.4,-68.5 2040.67,-68.5"/>
<polygon fill="#9a32cd" stroke="#9a32cd" points="1801.52,-65 1791.52,-68.5 1801.52,-72 1801.52,-65"/>
</a>
</g>
<text text-anchor="middle" x="1947.5" y="-159.5" font-family="Helvetica,sans-Serif" font-size="10.00" fill="grey"> ContinueButton</text>
<text text-anchor="start" x="1876" y="-148.5" font-family="Helvetica,sans-Serif" font-size="10.00" fill="grey">DialogueHistoryContent</text>
<text text-anchor="middle" x="1947.5" y="-137.5" font-family="Helvetica,sans-Serif" font-size="10.00" fill="grey">Background</text>
<text text-anchor="middle" x="1947.5" y="-126.5" font-family="Helvetica,sans-Serif" font-size="10.00" fill="grey">FullBodyImageCenter</text>
<text text-anchor="middle" x="1947.5" y="-115.5" font-family="Helvetica,sans-Serif" font-size="10.00" fill="grey">FullBodyImageLeft</text>
<text text-anchor="middle" x="1947.5" y="-104.5" font-family="Helvetica,sans-Serif" font-size="10.00" fill="grey">FullBodyImageRight</text>
<text text-anchor="middle" x="1947.5" y="-93.5" font-family="Helvetica,sans-Serif" font-size="10.00" fill="grey">PreviousLineButton</text>
<text text-anchor="middle" x="1947.5" y="-82.5" font-family="Helvetica,sans-Serif" font-size="10.00" fill="grey">SpeakerPortraitImage</text>
<text text-anchor="middle" x="1947.5" y="-71.5" font-family="Helvetica,sans-Serif" font-size="10.00" fill="grey">ToggleDialogueHistoryButton</text>
</g>
</g>
</svg>
