<?xml version="1.0" encoding="UTF-8" standalone="no"?>
<!DOCTYPE svg PUBLIC "-//W3C//DTD SVG 1.1//EN"
 "http://www.w3.org/Graphics/SVG/1.1/DTD/svg11.dtd">
<!-- Generated by graphviz version 2.43.0 (0)
 -->
<!-- Title: WolfstagInteractive.ConvoCore.PrefabHistoryRenderer Pages: 1 -->
<svg width="593pt" height="76pt"
 viewBox="0.00 0.00 593.00 75.50" xmlns="http://www.w3.org/2000/svg" xmlns:xlink="http://www.w3.org/1999/xlink">
<g id="graph0" class="graph" transform="scale(1 1) rotate(0) translate(4 71.5)">
<title>WolfstagInteractive.ConvoCore.PrefabHistoryRenderer</title>
<!-- Node1 -->
<g id="Node000001" class="node">
<title>Node1</title>
<g id="a_Node000001"><a xlink:title="Renderer that requests prefab&#45;based dialogue entry creation via IDialogueHistoryOutputPrefab.">
<polygon fill="#999999" stroke="#666666" points="585,-52 432,-52 432,-22 585,-22 585,-52"/>
<text text-anchor="start" x="440" y="-40" font-family="Helvetica,sans-Serif" font-size="10.00">WolfstagInteractive.Convo</text>
<text text-anchor="middle" x="508.5" y="-29" font-family="Helvetica,sans-Serif" font-size="10.00">Core.PrefabHistoryRenderer</text>
</a>
</g>
</g>
<!-- Node2 -->
<g id="Node000002" class="node">
<title>Node2</title>
<g id="a_Node000002"><a xlink:href="interfaceWolfstagInteractive_1_1ConvoCore_1_1IConvoCoreHistoryRenderer.html" target="_top" xlink:title="Base contract for any dialogue history renderer.">
<polygon fill="white" stroke="#666666" points="338,-67.5 186,-67.5 186,-48.5 338,-48.5 338,-67.5"/>
<text text-anchor="middle" x="262" y="-55.5" font-family="Helvetica,sans-Serif" font-size="10.00">IConvoCoreHistoryRenderer</text>
</a>
</g>
</g>
<!-- Node2&#45;&gt;Node1 -->
<g id="edge1_Node000001_Node000002" class="edge">
<title>Node2&#45;&gt;Node1</title>
<g id="a_edge1_Node000001_Node000002"><a xlink:title=" ">
<path fill="none" stroke="#63b8ff" d="M348.29,-50.67C375.47,-48.34 405.33,-45.78 431.78,-43.5"/>
<polygon fill="#63b8ff" stroke="#63b8ff" points="347.68,-47.21 338.02,-51.56 348.28,-54.19 347.68,-47.21"/>
</a>
</g>
</g>
<!-- Node3 -->
<g id="Node000003" class="node">
<title>Node3</title>
<g id="a_Node000003"><a xlink:href="interfaceWolfstagInteractive_1_1ConvoCore_1_1IDialogueHistoryOutputPrefab.html" target="_top" xlink:title=" ">
<polygon fill="white" stroke="#666666" points="356,-30 168,-30 168,0 356,0 356,-30"/>
<text text-anchor="start" x="176" y="-18" font-family="Helvetica,sans-Serif" font-size="10.00">WolfstagInteractive.Convo</text>
<text text-anchor="middle" x="262" y="-7" font-family="Helvetica,sans-Serif" font-size="10.00">Core.IDialogueHistoryOutputPrefab</text>
</a>
</g>
</g>
<!-- Node3&#45;&gt;Node1 -->
<g id="edge2_Node000001_Node000003" class="edge">
<title>Node3&#45;&gt;Node1</title>
<g id="a_edge2_Node000001_Node000003"><a xlink:title=" ">
<path fill="none" stroke="#9a32cd" stroke-dasharray="5,2" d="M366.16,-24.28C388.14,-26.26 410.96,-28.31 431.69,-30.18"/>
<polygon fill="#9a32cd" stroke="#9a32cd" points="366.41,-20.79 356.13,-23.38 365.78,-27.76 366.41,-20.79"/>
</a>
</g>
<text text-anchor="middle" x="394" y="-31" font-family="Helvetica,sans-Serif" font-size="10.00" fill="grey"> _output</text>
</g>
<!-- Node4 -->
<g id="Node000004" class="node">
<title>Node4</title>
<g id="a_Node000004"><a xlink:href="interfaceWolfstagInteractive_1_1ConvoCore_1_1IDialogueHistoryOutput.html" target="_top" xlink:title=" ">
<polygon fill="white" stroke="#666666" points="131,-24.5 0,-24.5 0,-5.5 131,-5.5 131,-24.5"/>
<text text-anchor="middle" x="65.5" y="-12.5" font-family="Helvetica,sans-Serif" font-size="10.00">IDialogueHistoryOutput</text>
</a>
</g>
</g>
<!-- Node4&#45;&gt;Node3 -->
<g id="edge3_Node000003_Node000004" class="edge">
<title>Node4&#45;&gt;Node3</title>
<g id="a_edge3_Node000003_Node000004"><a xlink:title=" ">
<path fill="none" stroke="#63b8ff" d="M141.3,-15C149.96,-15 158.87,-15 167.74,-15"/>
<polygon fill="#63b8ff" stroke="#63b8ff" points="141.27,-11.5 131.27,-15 141.27,-18.5 141.27,-11.5"/>
</a>
</g>
</g>
</g>
</svg>
