<?xml version="1.0" encoding="UTF-8" standalone="no"?>
<!DOCTYPE svg PUBLIC "-//W3C//DTD SVG 1.1//EN"
 "http://www.w3.org/Graphics/SVG/1.1/DTD/svg11.dtd">
<!-- Generated by graphviz version 2.43.0 (0)
 -->
<!-- Title: WolfstagInteractive.ConvoCore.ConvoCoreLanguageManager Pages: 1 -->
<svg width="880pt" height="107pt"
 viewBox="0.00 0.00 880.00 107.00" xmlns="http://www.w3.org/2000/svg" xmlns:xlink="http://www.w3.org/1999/xlink">
<g id="graph0" class="graph" transform="scale(1 1) rotate(0) translate(4 103)">
<title>WolfstagInteractive.ConvoCore.ConvoCoreLanguageManager</title>
<!-- Node1 -->
<g id="Node000001" class="node">
<title>Node1</title>
<g id="a_Node000001"><a xlink:title=" ">
<polygon fill="#999999" stroke="#666666" points="872,-70 687,-70 687,-40 872,-40 872,-70"/>
<text text-anchor="start" x="695" y="-58" font-family="Helvetica,sans-Serif" font-size="10.00">WolfstagInteractive.Convo</text>
<text text-anchor="middle" x="779.5" y="-47" font-family="Helvetica,sans-Serif" font-size="10.00">Core.ConvoCoreLanguageManager</text>
</a>
</g>
</g>
<!-- Node2 -->
<g id="Node000002" class="node">
<title>Node2</title>
<g id="a_Node000002"><a xlink:href="classWolfstagInteractive_1_1ConvoCore_1_1ConvoCoreLanguageManager.html" target="_top" xlink:title=" ">
<polygon fill="white" stroke="#666666" points="601,-30 416,-30 416,0 601,0 601,-30"/>
<text text-anchor="start" x="424" y="-18" font-family="Helvetica,sans-Serif" font-size="10.00">WolfstagInteractive.Convo</text>
<text text-anchor="middle" x="508.5" y="-7" font-family="Helvetica,sans-Serif" font-size="10.00">Core.ConvoCoreLanguageManager</text>
</a>
</g>
</g>
<!-- Node2&#45;&gt;Node1 -->
<g id="edge1_Node000001_Node000002" class="edge">
<title>Node2&#45;&gt;Node1</title>
<g id="a_edge1_Node000001_Node000002"><a xlink:title=" ">
<path fill="none" stroke="#9a32cd" stroke-dasharray="5,2" d="M611.44,-30.16C636.15,-33.83 662.42,-37.74 686.64,-41.34"/>
<polygon fill="#9a32cd" stroke="#9a32cd" points="611.73,-26.66 601.32,-28.65 610.7,-33.59 611.73,-26.66"/>
</a>
</g>
<text text-anchor="middle" x="644" y="-42" font-family="Helvetica,sans-Serif" font-size="10.00" fill="grey"> _instance</text>
</g>
<!-- Node2&#45;&gt;Node2 -->
<g id="edge2_Node000002_Node000002" class="edge">
<title>Node2&#45;&gt;Node2</title>
<g id="a_edge2_Node000002_Node000002"><a xlink:title=" ">
<path fill="none" stroke="#9a32cd" stroke-dasharray="5,2" d="M485.04,-40.6C488.25,-44.97 496.07,-48 508.5,-48 529.44,-48 537.29,-39.41 532.05,-30.28"/>
<polygon fill="#9a32cd" stroke="#9a32cd" points="488.54,-40.24 484.95,-30.28 481.54,-40.31 488.54,-40.24"/>
</a>
</g>
<text text-anchor="middle" x="508.5" y="-51" font-family="Helvetica,sans-Serif" font-size="10.00" fill="grey"> _instance</text>
</g>
<!-- Node3 -->
<g id="Node000003" class="node">
<title>Node3</title>
<g id="a_Node000003"><a xlink:href="classWolfstagInteractive_1_1ConvoCore_1_1ConvoCoreSettings.html" target="_top" xlink:title=" ">
<polygon fill="white" stroke="#666666" points="280,-70 134,-70 134,-40 280,-40 280,-70"/>
<text text-anchor="start" x="142" y="-58" font-family="Helvetica,sans-Serif" font-size="10.00">WolfstagInteractive.Convo</text>
<text text-anchor="middle" x="207" y="-47" font-family="Helvetica,sans-Serif" font-size="10.00">Core.ConvoCoreSettings</text>
</a>
</g>
</g>
<!-- Node3&#45;&gt;Node1 -->
<g id="edge6_Node000001_Node000003" class="edge">
<title>Node3&#45;&gt;Node1</title>
<g id="a_edge6_Node000001_Node000003"><a xlink:title=" ">
<path fill="none" stroke="#9a32cd" stroke-dasharray="5,2" d="M290.19,-61.32C328.42,-63.96 374.5,-66.7 416,-68 498.18,-70.57 518.83,-71 601,-68 628.94,-66.98 659.31,-65.05 686.9,-62.99"/>
<polygon fill="#9a32cd" stroke="#9a32cd" points="290.36,-57.83 280.14,-60.62 289.88,-64.81 290.36,-57.83"/>
</a>
</g>
<text text-anchor="middle" x="508.5" y="-73" font-family="Helvetica,sans-Serif" font-size="10.00" fill="grey"> _convoCoreSettings</text>
</g>
<!-- Node3&#45;&gt;Node2 -->
<g id="edge3_Node000002_Node000003" class="edge">
<title>Node3&#45;&gt;Node2</title>
<g id="a_edge3_Node000002_Node000003"><a xlink:title=" ">
<path fill="none" stroke="#9a32cd" stroke-dasharray="5,2" d="M290.35,-44C329.26,-38.81 375.83,-32.59 415.85,-27.24"/>
<polygon fill="#9a32cd" stroke="#9a32cd" points="289.57,-40.58 280.12,-45.37 290.49,-47.51 289.57,-40.58"/>
</a>
</g>
<text text-anchor="middle" x="348" y="-46" font-family="Helvetica,sans-Serif" font-size="10.00" fill="grey"> _convoCoreSettings</text>
</g>
<!-- Node3&#45;&gt;Node3 -->
<g id="edge5_Node000003_Node000003" class="edge">
<title>Node3&#45;&gt;Node3</title>
<g id="a_edge5_Node000003_Node000003"><a xlink:title=" ">
<path fill="none" stroke="#9a32cd" stroke-dasharray="5,2" d="M191.25,-80.6C193.4,-84.97 198.65,-88 207,-88 221.06,-88 226.34,-79.41 222.82,-70.28"/>
<polygon fill="#9a32cd" stroke="#9a32cd" points="194.74,-80.25 191.18,-70.28 187.74,-80.3 194.74,-80.25"/>
</a>
</g>
<text text-anchor="middle" x="207" y="-91" font-family="Helvetica,sans-Serif" font-size="10.00" fill="grey"> _instance</text>
</g>
<!-- Node4 -->
<g id="Node000004" class="node">
<title>Node4</title>
<g id="a_Node000004"><a xlink:title=" ">
<polygon fill="white" stroke="#666666" points="97,-64.5 0,-64.5 0,-45.5 97,-45.5 97,-64.5"/>
<text text-anchor="middle" x="48.5" y="-52.5" font-family="Helvetica,sans-Serif" font-size="10.00">ScriptableObject</text>
</a>
</g>
</g>
<!-- Node4&#45;&gt;Node3 -->
<g id="edge4_Node000003_Node000004" class="edge">
<title>Node4&#45;&gt;Node3</title>
<g id="a_edge4_Node000003_Node000004"><a xlink:title=" ">
<path fill="none" stroke="#63b8ff" d="M107.31,-55C116,-55 125.05,-55 133.99,-55"/>
<polygon fill="#63b8ff" stroke="#63b8ff" points="107.31,-51.5 97.31,-55 107.31,-58.5 107.31,-51.5"/>
</a>
</g>
</g>
</g>
</svg>
