<?xml version="1.0" encoding="UTF-8" standalone="no"?>
<!DOCTYPE svg PUBLIC "-//W3C//DTD SVG 1.1//EN"
 "http://www.w3.org/Graphics/SVG/1.1/DTD/svg11.dtd">
<!-- Generated by graphviz version 2.43.0 (0)
 -->
<!-- Title: WolfstagInteractive.ConvoCore.ConvoCore Pages: 1 -->
<svg width="1351pt" height="463pt"
 viewBox="0.00 0.00 1351.00 462.51" xmlns="http://www.w3.org/2000/svg" xmlns:xlink="http://www.w3.org/1999/xlink">
<g id="graph0" class="graph" transform="scale(1 1) rotate(0) translate(4 458.51)">
<title>WolfstagInteractive.ConvoCore.ConvoCore</title>
<!-- Node1 -->
<g id="Node000001" class="node">
<title>Node1</title>
<g id="a_Node000001"><a xlink:title=" ">
<polygon fill="#999999" stroke="#666666" points="1343,-196.76 1197,-196.76 1197,-166.76 1343,-166.76 1343,-196.76"/>
<text text-anchor="start" x="1205" y="-184.76" font-family="Helvetica,sans-Serif" font-size="10.00">WolfstagInteractive.Convo</text>
<text text-anchor="middle" x="1270" y="-173.76" font-family="Helvetica,sans-Serif" font-size="10.00">Core.ConvoCore</text>
</a>
</g>
</g>
<!-- Node2 -->
<g id="Node000002" class="node">
<title>Node2</title>
<g id="a_Node000002"><a xlink:title=" ">
<polygon fill="white" stroke="#666666" points="283.5,-278.26 190.5,-278.26 190.5,-259.26 283.5,-259.26 283.5,-278.26"/>
<text text-anchor="middle" x="237" y="-266.26" font-family="Helvetica,sans-Serif" font-size="10.00">MonoBehaviour</text>
</a>
</g>
</g>
<!-- Node2&#45;&gt;Node1 -->
<g id="edge1_Node000001_Node000002" class="edge">
<title>Node2&#45;&gt;Node1</title>
<g id="a_edge1_Node000001_Node000002"><a xlink:title=" ">
<path fill="none" stroke="#63b8ff" d="M293.82,-261.7C342.04,-255.66 413.58,-246.85 476,-239.76 558.15,-230.42 772.8,-239.2 846,-200.76 856.88,-195.04 852.88,-185 864,-179.76 950.45,-139.02 983.43,-176.65 1079,-175.76 1123.44,-175.35 1134.58,-174.28 1179,-175.76 1184.79,-175.95 1190.79,-176.21 1196.81,-176.52"/>
<polygon fill="#63b8ff" stroke="#63b8ff" points="293.09,-258.26 283.6,-262.98 293.96,-265.21 293.09,-258.26"/>
</a>
</g>
</g>
<!-- Node7 -->
<g id="Node000007" class="node">
<title>Node7</title>
<g id="a_Node000007"><a xlink:href="classWolfstagInteractive_1_1ConvoCore_1_1ConvoCoreUIFoundation.html" target="_top" xlink:title="Used as a basis of any UI that can be assigned in the inspector that includes all the base functions ...">
<polygon fill="white" stroke="#666666" points="1042.5,-332.76 882.5,-332.76 882.5,-302.76 1042.5,-302.76 1042.5,-332.76"/>
<text text-anchor="start" x="890.5" y="-320.76" font-family="Helvetica,sans-Serif" font-size="10.00">WolfstagInteractive.Convo</text>
<text text-anchor="middle" x="962.5" y="-309.76" font-family="Helvetica,sans-Serif" font-size="10.00">Core.ConvoCoreUIFoundation</text>
</a>
</g>
</g>
<!-- Node2&#45;&gt;Node7 -->
<g id="edge7_Node000007_Node000002" class="edge">
<title>Node2&#45;&gt;Node7</title>
<g id="a_edge7_Node000007_Node000002"><a xlink:title=" ">
<path fill="none" stroke="#63b8ff" d="M272.67,-281.77C318.44,-298.19 401.92,-325.53 476,-335.76 618.25,-355.4 786.02,-340.96 882.46,-329.08"/>
<polygon fill="#63b8ff" stroke="#63b8ff" points="273.81,-278.46 263.22,-278.34 271.43,-285.04 273.81,-278.46"/>
</a>
</g>
</g>
<!-- Node9 -->
<g id="Node000009" class="node">
<title>Node9</title>
<g id="a_Node000009"><a xlink:href="classWolfstagInteractive_1_1ConvoCore_1_1ConvoCore.html" target="_top" xlink:title=" ">
<polygon fill="white" stroke="#666666" points="1343,-332.76 1197,-332.76 1197,-302.76 1343,-302.76 1343,-332.76"/>
<text text-anchor="start" x="1205" y="-320.76" font-family="Helvetica,sans-Serif" font-size="10.00">WolfstagInteractive.Convo</text>
<text text-anchor="middle" x="1270" y="-309.76" font-family="Helvetica,sans-Serif" font-size="10.00">Core.ConvoCore</text>
</a>
</g>
</g>
<!-- Node2&#45;&gt;Node9 -->
<g id="edge10_Node000009_Node000002" class="edge">
<title>Node2&#45;&gt;Node9</title>
<g id="a_edge10_Node000009_Node000002"><a xlink:title=" ">
<path fill="none" stroke="#63b8ff" d="M260.6,-283.94C284.01,-298.98 322.13,-321.63 358,-334.76 662.4,-446.18 754.9,-438.73 1079,-444.76 1123.44,-445.59 1139.52,-465.17 1179,-444.76 1225.09,-420.93 1252.67,-361.41 1263.58,-333.13"/>
<polygon fill="#63b8ff" stroke="#63b8ff" points="262.38,-280.92 252.1,-278.39 258.56,-286.78 262.38,-280.92"/>
</a>
</g>
</g>
<!-- Node14 -->
<g id="Node000014" class="node">
<title>Node14</title>
<g id="a_Node000014"><a xlink:href="classWolfstagInteractive_1_1ConvoCore_1_1ConvoCorePrefabRepresentationSpawner.html" target="_top" xlink:title=" ">
<polygon fill="white" stroke="#666666" points="677,-289.26 476,-289.26 476,-248.26 677,-248.26 677,-289.26"/>
<text text-anchor="start" x="484" y="-277.26" font-family="Helvetica,sans-Serif" font-size="10.00">WolfstagInteractive.Convo</text>
<text text-anchor="start" x="484" y="-266.26" font-family="Helvetica,sans-Serif" font-size="10.00">Core.ConvoCorePrefabRepresentation</text>
<text text-anchor="middle" x="576.5" y="-255.26" font-family="Helvetica,sans-Serif" font-size="10.00">Spawner</text>
</a>
</g>
</g>
<!-- Node2&#45;&gt;Node14 -->
<g id="edge23_Node000014_Node000002" class="edge">
<title>Node2&#45;&gt;Node14</title>
<g id="a_edge23_Node000014_Node000002"><a xlink:title=" ">
<path fill="none" stroke="#63b8ff" d="M293.67,-268.76C343.04,-268.76 416.33,-268.76 475.79,-268.76"/>
<polygon fill="#63b8ff" stroke="#63b8ff" points="293.52,-265.26 283.52,-268.76 293.52,-272.26 293.52,-265.26"/>
</a>
</g>
</g>
<!-- Node15 -->
<g id="Node000015" class="node">
<title>Node15</title>
<g id="a_Node000015"><a xlink:href="classWolfstagInteractive_1_1ConvoCore_1_1ConvoCoreDialogueHistoryUI.html" target="_top" xlink:title=" ">
<polygon fill="white" stroke="#666666" points="669,-190.76 484,-190.76 484,-160.76 669,-160.76 669,-190.76"/>
<text text-anchor="start" x="492" y="-178.76" font-family="Helvetica,sans-Serif" font-size="10.00">WolfstagInteractive.Convo</text>
<text text-anchor="middle" x="576.5" y="-167.76" font-family="Helvetica,sans-Serif" font-size="10.00">Core.ConvoCoreDialogueHistoryUI</text>
</a>
</g>
</g>
<!-- Node2&#45;&gt;Node15 -->
<g id="edge25_Node000015_Node000002" class="edge">
<title>Node2&#45;&gt;Node15</title>
<g id="a_edge25_Node000015_Node000002"><a xlink:title=" ">
<path fill="none" stroke="#63b8ff" d="M265.33,-254.48C289.21,-242.54 325.1,-225.9 358,-215.76 398.54,-203.27 444.61,-194.11 483.88,-187.73"/>
<polygon fill="#63b8ff" stroke="#63b8ff" points="263.53,-251.47 256.19,-259.11 266.69,-257.71 263.53,-251.47"/>
</a>
</g>
</g>
<!-- Node3 -->
<g id="Node000003" class="node">
<title>Node3</title>
<g id="a_Node000003"><a xlink:href="interfaceWolfstagInteractive_1_1ConvoCore_1_1IConvoCoreRunner.html" target="_top" xlink:title=" ">
<polygon fill="white" stroke="#666666" points="1016,-427.26 909,-427.26 909,-408.26 1016,-408.26 1016,-427.26"/>
<text text-anchor="middle" x="962.5" y="-415.26" font-family="Helvetica,sans-Serif" font-size="10.00">IConvoCoreRunner</text>
</a>
</g>
</g>
<!-- Node3&#45;&gt;Node1 -->
<g id="edge2_Node000001_Node000003" class="edge">
<title>Node3&#45;&gt;Node1</title>
<g id="a_edge2_Node000001_Node000003"><a xlink:title=" ">
<path fill="none" stroke="#63b8ff" d="M1026,-418.8C1074.1,-416.15 1138.93,-404.55 1179,-364.76 1202.1,-341.82 1184.03,-323.62 1197,-293.76 1213.21,-256.44 1241.16,-217.5 1257.05,-196.8"/>
<polygon fill="#63b8ff" stroke="#63b8ff" points="1025.84,-415.3 1016,-419.23 1026.14,-422.29 1025.84,-415.3"/>
</a>
</g>
</g>
<!-- Node3&#45;&gt;Node9 -->
<g id="edge11_Node000009_Node000003" class="edge">
<title>Node3&#45;&gt;Node9</title>
<g id="a_edge11_Node000009_Node000003"><a xlink:title=" ">
<path fill="none" stroke="#63b8ff" d="M1007.25,-429.58C1052.46,-439.39 1124,-448.05 1179,-422.76 1219.57,-404.1 1248.7,-357.13 1261.59,-332.83"/>
<polygon fill="#63b8ff" stroke="#63b8ff" points="1007.99,-426.15 997.46,-427.34 1006.43,-432.98 1007.99,-426.15"/>
</a>
</g>
</g>
<!-- Node4 -->
<g id="Node000004" class="node">
<title>Node4</title>
<g id="a_Node000004"><a xlink:href="classWolfstagInteractive_1_1ConvoCore_1_1ConvoCoreConversationData.html" target="_top" xlink:title=" ">
<polygon fill="white" stroke="#666666" points="1054,-36.76 871,-36.76 871,-6.76 1054,-6.76 1054,-36.76"/>
<text text-anchor="start" x="879" y="-24.76" font-family="Helvetica,sans-Serif" font-size="10.00">WolfstagInteractive.Convo</text>
<text text-anchor="middle" x="962.5" y="-13.76" font-family="Helvetica,sans-Serif" font-size="10.00">Core.ConvoCoreConversationData</text>
</a>
</g>
</g>
<!-- Node4&#45;&gt;Node1 -->
<g id="edge3_Node000001_Node000004" class="edge">
<title>Node4&#45;&gt;Node1</title>
<g id="a_edge3_Node000001_Node000004"><a xlink:title=" ">
<path fill="none" stroke="#9a32cd" stroke-dasharray="5,2" d="M1031.1,-5.01C1076.04,2.29 1134.71,4.14 1179,-21.76 1233.88,-53.86 1257.88,-133.1 1265.8,-166.51"/>
<polygon fill="#9a32cd" stroke="#9a32cd" points="1030.39,-1.57 1021.15,-6.75 1031.6,-8.47 1030.39,-1.57"/>
</a>
</g>
<text text-anchor="middle" x="1129" y="-24.76" font-family="Helvetica,sans-Serif" font-size="10.00" fill="grey"> ConversationData</text>
</g>
<!-- Node4&#45;&gt;Node9 -->
<g id="edge12_Node000009_Node000004" class="edge">
<title>Node4&#45;&gt;Node9</title>
<g id="a_edge12_Node000009_Node000004"><a xlink:title=" ">
<path fill="none" stroke="#9a32cd" stroke-dasharray="5,2" d="M1064.11,-33.55C1116.15,-40.61 1170.57,-49.92 1179,-58.76 1201.7,-82.58 1185.82,-174.81 1197,-205.76 1210.74,-243.81 1239.34,-282.17 1256.06,-302.64"/>
<polygon fill="#9a32cd" stroke="#9a32cd" points="1064.47,-30.06 1054.09,-32.21 1063.54,-37 1064.47,-30.06"/>
</a>
</g>
<text text-anchor="middle" x="1129" y="-61.76" font-family="Helvetica,sans-Serif" font-size="10.00" fill="grey"> ConversationData</text>
</g>
<!-- Node5 -->
<g id="Node000005" class="node">
<title>Node5</title>
<g id="a_Node000005"><a xlink:title=" ">
<polygon fill="white" stroke="#666666" points="97,-74.26 0,-74.26 0,-55.26 97,-55.26 97,-74.26"/>
<text text-anchor="middle" x="48.5" y="-62.26" font-family="Helvetica,sans-Serif" font-size="10.00">ScriptableObject</text>
</a>
</g>
</g>
<!-- Node5&#45;&gt;Node4 -->
<g id="edge4_Node000004_Node000005" class="edge">
<title>Node5&#45;&gt;Node4</title>
<g id="a_edge4_Node000004_Node000005"><a xlink:title=" ">
<path fill="none" stroke="#63b8ff" d="M86.23,-52.13C100.9,-47.67 118.07,-43.16 134,-40.76 399.35,-0.7 717.92,-8.97 870.86,-16.38"/>
<polygon fill="#63b8ff" stroke="#63b8ff" points="85,-48.85 76.51,-55.19 87.1,-55.53 85,-48.85"/>
</a>
</g>
</g>
<!-- Node12 -->
<g id="Node000012" class="node">
<title>Node12</title>
<g id="a_Node000012"><a xlink:href="classWolfstagInteractive_1_1ConvoCore_1_1ConvoCoreSettings.html" target="_top" xlink:title=" ">
<polygon fill="white" stroke="#666666" points="310,-79.76 164,-79.76 164,-49.76 310,-49.76 310,-79.76"/>
<text text-anchor="start" x="172" y="-67.76" font-family="Helvetica,sans-Serif" font-size="10.00">WolfstagInteractive.Convo</text>
<text text-anchor="middle" x="237" y="-56.76" font-family="Helvetica,sans-Serif" font-size="10.00">Core.ConvoCoreSettings</text>
</a>
</g>
</g>
<!-- Node5&#45;&gt;Node12 -->
<g id="edge19_Node000012_Node000005" class="edge">
<title>Node5&#45;&gt;Node12</title>
<g id="a_edge19_Node000012_Node000005"><a xlink:title=" ">
<path fill="none" stroke="#63b8ff" d="M107.06,-64.76C125.02,-64.76 145.05,-64.76 163.87,-64.76"/>
<polygon fill="#63b8ff" stroke="#63b8ff" points="107.04,-61.26 97.04,-64.76 107.04,-68.26 107.04,-61.26"/>
</a>
</g>
</g>
<!-- Node17 -->
<g id="Node000017" class="node">
<title>Node17</title>
<g id="a_Node000017"><a xlink:href="classWolfstagInteractive_1_1ConvoCore_1_1ConvoCoreHistoryRendererProfile.html" target="_top" xlink:title=" ">
<polygon fill="white" stroke="#666666" points="340,-156.76 134,-156.76 134,-126.76 340,-126.76 340,-156.76"/>
<text text-anchor="start" x="142" y="-144.76" font-family="Helvetica,sans-Serif" font-size="10.00">WolfstagInteractive.Convo</text>
<text text-anchor="middle" x="237" y="-133.76" font-family="Helvetica,sans-Serif" font-size="10.00">Core.ConvoCoreHistoryRendererProfile</text>
</a>
</g>
</g>
<!-- Node5&#45;&gt;Node17 -->
<g id="edge29_Node000017_Node000005" class="edge">
<title>Node5&#45;&gt;Node17</title>
<g id="a_edge29_Node000017_Node000005"><a xlink:title=" ">
<path fill="none" stroke="#63b8ff" d="M70.27,-80.52C86.76,-92.34 110.81,-108.07 134,-117.76 142.14,-121.16 150.86,-124.13 159.64,-126.72"/>
<polygon fill="#63b8ff" stroke="#63b8ff" points="72.08,-77.51 61.95,-74.43 67.95,-83.16 72.08,-77.51"/>
</a>
</g>
</g>
<!-- Node6 -->
<g id="Node000006" class="node">
<title>Node6</title>
<g id="a_Node000006"><a xlink:href="interfaceWolfstagInteractive_1_1ConvoCore_1_1IConvoInput.html" target="_top" xlink:title=" ">
<polygon fill="white" stroke="#666666" points="1035.5,-218.76 889.5,-218.76 889.5,-188.76 1035.5,-188.76 1035.5,-218.76"/>
<text text-anchor="start" x="897.5" y="-206.76" font-family="Helvetica,sans-Serif" font-size="10.00">WolfstagInteractive.Convo</text>
<text text-anchor="middle" x="962.5" y="-195.76" font-family="Helvetica,sans-Serif" font-size="10.00">Core.IConvoInput</text>
</a>
</g>
</g>
<!-- Node6&#45;&gt;Node1 -->
<g id="edge5_Node000001_Node000006" class="edge">
<title>Node6&#45;&gt;Node1</title>
<g id="a_edge5_Node000001_Node000006"><a xlink:title=" ">
<path fill="none" stroke="#9a32cd" stroke-dasharray="5,2" d="M1044.95,-187.12C1056.34,-185.33 1067.93,-183.79 1079,-182.76 1117.76,-179.16 1161.15,-178.67 1196.68,-179.18"/>
<polygon fill="#9a32cd" stroke="#9a32cd" points="1044.31,-183.68 1035.01,-188.75 1045.44,-190.59 1044.31,-183.68"/>
</a>
</g>
<text text-anchor="middle" x="1129" y="-185.76" font-family="Helvetica,sans-Serif" font-size="10.00" fill="grey"> Input</text>
</g>
<!-- Node6&#45;&gt;Node9 -->
<g id="edge13_Node000009_Node000006" class="edge">
<title>Node6&#45;&gt;Node9</title>
<g id="a_edge13_Node000009_Node000006"><a xlink:title=" ">
<path fill="none" stroke="#9a32cd" stroke-dasharray="5,2" d="M1045.6,-201.41C1096.34,-201.21 1156.01,-203.6 1179,-214.76 1218.31,-233.84 1247.61,-278.7 1260.98,-302.43"/>
<polygon fill="#9a32cd" stroke="#9a32cd" points="1045.56,-197.91 1035.59,-201.49 1045.61,-204.91 1045.56,-197.91"/>
</a>
</g>
<text text-anchor="middle" x="1129" y="-217.76" font-family="Helvetica,sans-Serif" font-size="10.00" fill="grey"> Input</text>
</g>
<!-- Node7&#45;&gt;Node1 -->
<g id="edge6_Node000001_Node000007" class="edge">
<title>Node7&#45;&gt;Node1</title>
<g id="a_edge6_Node000001_Node000007"><a xlink:title=" ">
<path fill="none" stroke="#9a32cd" stroke-dasharray="5,2" d="M1052.84,-315.58C1102.1,-313.04 1157.53,-307.55 1179,-295.76 1220.55,-272.94 1249.61,-222.16 1262.12,-196.79"/>
<polygon fill="#9a32cd" stroke="#9a32cd" points="1052.58,-312.09 1042.76,-316.07 1052.92,-319.08 1052.58,-312.09"/>
</a>
</g>
<text text-anchor="middle" x="1129" y="-316.76" font-family="Helvetica,sans-Serif" font-size="10.00" fill="grey"> ConversationUI</text>
</g>
<!-- Node7&#45;&gt;Node9 -->
<g id="edge14_Node000009_Node000007" class="edge">
<title>Node7&#45;&gt;Node9</title>
<g id="a_edge14_Node000009_Node000007"><a xlink:title=" ">
<path fill="none" stroke="#9a32cd" stroke-dasharray="5,2" d="M1024.28,-335.36C1041.79,-339.64 1061.02,-343.61 1079,-345.76 1123.13,-351.03 1135.06,-352.44 1179,-345.76 1195.99,-343.18 1214.18,-338 1229.73,-332.8"/>
<polygon fill="#9a32cd" stroke="#9a32cd" points="1024.75,-331.87 1014.2,-332.81 1023.03,-338.65 1024.75,-331.87"/>
</a>
</g>
<text text-anchor="middle" x="1129" y="-352.76" font-family="Helvetica,sans-Serif" font-size="10.00" fill="grey"> ConversationUI</text>
</g>
<!-- Node8 -->
<g id="Node000008" class="node">
<title>Node8</title>
<g id="a_Node000008"><a xlink:href="interfaceWolfstagInteractive_1_1ConvoCore_1_1IUIFoundation.html" target="_top" xlink:title=" ">
<polygon fill="white" stroke="#666666" points="618.5,-326.26 534.5,-326.26 534.5,-307.26 618.5,-307.26 618.5,-326.26"/>
<text text-anchor="middle" x="576.5" y="-314.26" font-family="Helvetica,sans-Serif" font-size="10.00">IUIFoundation</text>
</a>
</g>
</g>
<!-- Node8&#45;&gt;Node7 -->
<g id="edge8_Node000007_Node000008" class="edge">
<title>Node8&#45;&gt;Node7</title>
<g id="a_edge8_Node000007_Node000008"><a xlink:title=" ">
<path fill="none" stroke="#63b8ff" d="M628.6,-316.89C693.56,-317.06 806.39,-317.35 882.48,-317.55"/>
<polygon fill="#63b8ff" stroke="#63b8ff" points="628.6,-313.39 618.59,-316.87 628.59,-320.39 628.6,-313.39"/>
</a>
</g>
</g>
<!-- Node9&#45;&gt;Node7 -->
<g id="edge9_Node000007_Node000009" class="edge">
<title>Node9&#45;&gt;Node7</title>
<g id="a_edge9_Node000007_Node000009"><a xlink:title=" ">
<path fill="none" stroke="#9a32cd" stroke-dasharray="5,2" d="M1186.74,-329.18C1184.13,-329.39 1181.55,-329.59 1179,-329.76 1134.65,-332.7 1123.38,-332.06 1079,-329.76 1067.22,-329.15 1054.8,-328.19 1042.63,-327.08"/>
<polygon fill="#9a32cd" stroke="#9a32cd" points="1187.24,-332.64 1196.87,-328.23 1186.59,-325.67 1187.24,-332.64"/>
</a>
</g>
<text text-anchor="middle" x="1129" y="-333.76" font-family="Helvetica,sans-Serif" font-size="10.00" fill="grey"> ConvoCoreInstance</text>
</g>
<!-- Node10 -->
<g id="Node000010" class="node">
<title>Node10</title>
<g id="a_Node000010"><a xlink:href="classWolfstagInteractive_1_1ConvoCore_1_1ConvoCoreDialogueLocalizationHandler.html" target="_top" xlink:title=" ">
<polygon fill="white" stroke="#666666" points="1061,-109.26 864,-109.26 864,-68.26 1061,-68.26 1061,-109.26"/>
<text text-anchor="start" x="872" y="-97.26" font-family="Helvetica,sans-Serif" font-size="10.00">WolfstagInteractive.Convo</text>
<text text-anchor="start" x="872" y="-86.26" font-family="Helvetica,sans-Serif" font-size="10.00">Core.ConvoCoreDialogueLocalization</text>
<text text-anchor="middle" x="962.5" y="-75.26" font-family="Helvetica,sans-Serif" font-size="10.00">Handler</text>
</a>
</g>
</g>
<!-- Node10&#45;&gt;Node1 -->
<g id="edge30_Node000001_Node000010" class="edge">
<title>Node10&#45;&gt;Node1</title>
<g id="a_edge30_Node000001_Node000010"><a xlink:title=" ">
<path fill="none" stroke="#9a32cd" stroke-dasharray="5,2" d="M1071.53,-73.05C1106.97,-72.08 1145.76,-75.69 1179,-89.76 1216.24,-105.53 1245.81,-144.99 1259.94,-166.76"/>
<polygon fill="#9a32cd" stroke="#9a32cd" points="1070.99,-69.56 1061.14,-73.46 1071.27,-76.56 1070.99,-69.56"/>
</a>
</g>
<text text-anchor="middle" x="1129" y="-92.76" font-family="Helvetica,sans-Serif" font-size="10.00" fill="grey"> LocalizationHandler</text>
</g>
<!-- Node10&#45;&gt;Node9 -->
<g id="edge15_Node000009_Node000010" class="edge">
<title>Node10&#45;&gt;Node9</title>
<g id="a_edge15_Node000009_Node000010"><a xlink:title=" ">
<path fill="none" stroke="#9a32cd" stroke-dasharray="5,2" d="M1071.29,-108.25C1109.01,-119.53 1149.3,-137.2 1179,-164.76 1193.59,-178.3 1187.59,-188.22 1197,-205.76 1216.35,-241.81 1243.36,-281.55 1258.19,-302.64"/>
<polygon fill="#9a32cd" stroke="#9a32cd" points="1071.83,-104.77 1061.25,-105.38 1069.9,-111.5 1071.83,-104.77"/>
</a>
</g>
<text text-anchor="middle" x="1129" y="-167.76" font-family="Helvetica,sans-Serif" font-size="10.00" fill="grey"> LocalizationHandler</text>
</g>
<!-- Node11 -->
<g id="Node000011" class="node">
<title>Node11</title>
<g id="a_Node000011"><a xlink:href="classWolfstagInteractive_1_1ConvoCore_1_1ConvoCoreLanguageManager.html" target="_top" xlink:title=" ">
<polygon fill="white" stroke="#666666" points="669,-88.76 484,-88.76 484,-58.76 669,-58.76 669,-88.76"/>
<text text-anchor="start" x="492" y="-76.76" font-family="Helvetica,sans-Serif" font-size="10.00">WolfstagInteractive.Convo</text>
<text text-anchor="middle" x="576.5" y="-65.76" font-family="Helvetica,sans-Serif" font-size="10.00">Core.ConvoCoreLanguageManager</text>
</a>
</g>
</g>
<!-- Node11&#45;&gt;Node10 -->
<g id="edge16_Node000010_Node000011" class="edge">
<title>Node11&#45;&gt;Node10</title>
<g id="a_edge16_Node000010_Node000011"><a xlink:title=" ">
<path fill="none" stroke="#9a32cd" stroke-dasharray="5,2" d="M679.61,-77.75C736.72,-79.98 807.53,-82.74 863.9,-84.95"/>
<polygon fill="#9a32cd" stroke="#9a32cd" points="679.61,-74.24 669.48,-77.35 679.33,-81.24 679.61,-74.24"/>
</a>
</g>
<text text-anchor="middle" x="770.5" y="-87.76" font-family="Helvetica,sans-Serif" font-size="10.00" fill="grey"> _convoCoreLanguageManager</text>
</g>
<!-- Node11&#45;&gt;Node11 -->
<g id="edge17_Node000011_Node000011" class="edge">
<title>Node11&#45;&gt;Node11</title>
<g id="a_edge17_Node000011_Node000011"><a xlink:title=" ">
<path fill="none" stroke="#9a32cd" stroke-dasharray="5,2" d="M547.09,-99.36C551.11,-103.73 560.91,-106.76 576.5,-106.76 602.75,-106.76 612.59,-98.16 606.03,-89.03"/>
<polygon fill="#9a32cd" stroke="#9a32cd" points="550.59,-98.99 546.97,-89.03 543.59,-99.08 550.59,-98.99"/>
</a>
</g>
<text text-anchor="middle" x="576.5" y="-109.76" font-family="Helvetica,sans-Serif" font-size="10.00" fill="grey"> _instance</text>
</g>
<!-- Node12&#45;&gt;Node11 -->
<g id="edge18_Node000011_Node000012" class="edge">
<title>Node12&#45;&gt;Node11</title>
<g id="a_edge18_Node000011_Node000012"><a xlink:title=" ">
<path fill="none" stroke="#9a32cd" stroke-dasharray="5,2" d="M320.42,-66.96C369.89,-68.28 432.89,-69.96 483.91,-71.32"/>
<polygon fill="#9a32cd" stroke="#9a32cd" points="320.49,-63.46 310.4,-66.69 320.31,-70.45 320.49,-63.46"/>
</a>
</g>
<text text-anchor="middle" x="408" y="-73.76" font-family="Helvetica,sans-Serif" font-size="10.00" fill="grey"> _convoCoreSettings</text>
</g>
<!-- Node12&#45;&gt;Node12 -->
<g id="edge20_Node000012_Node000012" class="edge">
<title>Node12&#45;&gt;Node12</title>
<g id="a_edge20_Node000012_Node000012"><a xlink:title=" ">
<path fill="none" stroke="#9a32cd" stroke-dasharray="5,2" d="M216,-90.36C218.87,-94.73 225.87,-97.76 237,-97.76 255.75,-97.76 262.78,-89.16 258.09,-80.03"/>
<polygon fill="#9a32cd" stroke="#9a32cd" points="219.49,-90 215.91,-80.03 212.49,-90.06 219.49,-90"/>
</a>
</g>
<text text-anchor="middle" x="237" y="-100.76" font-family="Helvetica,sans-Serif" font-size="10.00" fill="grey"> _instance</text>
</g>
<!-- Node12&#45;&gt;Node15 -->
<g id="edge26_Node000015_Node000012" class="edge">
<title>Node12&#45;&gt;Node15</title>
<g id="a_edge26_Node000015_Node000012"><a xlink:title=" ">
<path fill="none" stroke="#9a32cd" stroke-dasharray="5,2" d="M295.03,-82.89C339.49,-97.09 402.75,-117.44 458,-135.76 482.44,-143.86 509.67,-153.12 531.75,-160.68"/>
<polygon fill="#9a32cd" stroke="#9a32cd" points="295.87,-79.48 285.28,-79.78 293.74,-86.15 295.87,-79.48"/>
</a>
</g>
<text text-anchor="middle" x="408" y="-138.76" font-family="Helvetica,sans-Serif" font-size="10.00" fill="grey"> convoCoreSettings</text>
</g>
<!-- Node13 -->
<g id="Node000013" class="node">
<title>Node13</title>
<g id="a_Node000013"><a xlink:href="interfaceWolfstagInteractive_1_1ConvoCore_1_1IConversationContext.html" target="_top" xlink:title="Provides optional runtime context for branch evaluation.">
<polygon fill="white" stroke="#666666" points="1036.5,-275.76 888.5,-275.76 888.5,-245.76 1036.5,-245.76 1036.5,-275.76"/>
<text text-anchor="start" x="896.5" y="-263.76" font-family="Helvetica,sans-Serif" font-size="10.00">WolfstagInteractive.Convo</text>
<text text-anchor="middle" x="962.5" y="-252.76" font-family="Helvetica,sans-Serif" font-size="10.00">Core.IConversationContext</text>
</a>
</g>
</g>
<!-- Node13&#45;&gt;Node1 -->
<g id="edge31_Node000001_Node000013" class="edge">
<title>Node13&#45;&gt;Node1</title>
<g id="a_edge31_Node000001_Node000013"><a xlink:title=" ">
<path fill="none" stroke="#9a32cd" stroke-dasharray="5,2" d="M1046.8,-254.29C1087.39,-249.56 1136.5,-241.48 1179,-227.76 1202.38,-220.21 1227.1,-207.16 1244.71,-196.89"/>
<polygon fill="#9a32cd" stroke="#9a32cd" points="1046.22,-250.83 1036.67,-255.42 1047,-257.79 1046.22,-250.83"/>
</a>
</g>
<text text-anchor="middle" x="1129" y="-252.76" font-family="Helvetica,sans-Serif" font-size="10.00" fill="grey"> _context</text>
</g>
<!-- Node13&#45;&gt;Node9 -->
<g id="edge21_Node000009_Node000013" class="edge">
<title>Node13&#45;&gt;Node9</title>
<g id="a_edge21_Node000009_Node000013"><a xlink:title=" ">
<path fill="none" stroke="#9a32cd" stroke-dasharray="5,2" d="M1046.63,-265.33C1086.98,-268.73 1135.93,-274.62 1179,-284.76 1197.63,-289.14 1217.68,-296.25 1234.12,-302.74"/>
<polygon fill="#9a32cd" stroke="#9a32cd" points="1046.82,-261.83 1036.57,-264.52 1046.25,-268.81 1046.82,-261.83"/>
</a>
</g>
<text text-anchor="middle" x="1129" y="-287.76" font-family="Helvetica,sans-Serif" font-size="10.00" fill="grey"> _context</text>
</g>
<!-- Node14&#45;&gt;Node7 -->
<g id="edge22_Node000007_Node000014" class="edge">
<title>Node14&#45;&gt;Node7</title>
<g id="a_edge22_Node000007_Node000014"><a xlink:title=" ">
<path fill="none" stroke="#9a32cd" stroke-dasharray="5,2" d="M686.94,-281.82C735.66,-287.74 793.72,-294.93 846,-301.76 857.74,-303.29 870.15,-304.96 882.3,-306.62"/>
<polygon fill="#9a32cd" stroke="#9a32cd" points="687.35,-278.35 677,-280.62 686.51,-285.3 687.35,-278.35"/>
</a>
</g>
<text text-anchor="middle" x="770.5" y="-304.76" font-family="Helvetica,sans-Serif" font-size="10.00" fill="grey"> PrefabRepresentationSpawner</text>
</g>
<!-- Node15&#45;&gt;Node7 -->
<g id="edge24_Node000007_Node000015" class="edge">
<title>Node15&#45;&gt;Node7</title>
<g id="a_edge24_Node000007_Node000015"><a xlink:title=" ">
<path fill="none" stroke="#9a32cd" stroke-dasharray="5,2" d="M656.45,-193.31C712.09,-207.88 786.92,-232.06 846,-267.76 855.42,-273.45 854.57,-279.09 864,-284.76 876.1,-292.04 890.01,-297.96 903.47,-302.68"/>
<polygon fill="#9a32cd" stroke="#9a32cd" points="657.2,-189.89 646.64,-190.79 655.46,-196.67 657.2,-189.89"/>
</a>
</g>
<text text-anchor="middle" x="770.5" y="-270.76" font-family="Helvetica,sans-Serif" font-size="10.00" fill="grey"> ConvoCoreDialogueHistoryUI</text>
</g>
<!-- Node16 -->
<g id="Node000016" class="node">
<title>Node16</title>
<g id="a_Node000016"><a xlink:href="interfaceWolfstagInteractive_1_1ConvoCore_1_1IConvoCoreHistoryRenderer.html" target="_top" xlink:title="Base contract for any dialogue history renderer.">
<polygon fill="white" stroke="#666666" points="326,-204.76 148,-204.76 148,-174.76 326,-174.76 326,-204.76"/>
<text text-anchor="start" x="156" y="-192.76" font-family="Helvetica,sans-Serif" font-size="10.00">WolfstagInteractive.Convo</text>
<text text-anchor="middle" x="237" y="-181.76" font-family="Helvetica,sans-Serif" font-size="10.00">Core.IConvoCoreHistoryRenderer</text>
</a>
</g>
</g>
<!-- Node16&#45;&gt;Node15 -->
<g id="edge27_Node000015_Node000016" class="edge">
<title>Node16&#45;&gt;Node15</title>
<g id="a_edge27_Node000015_Node000016"><a xlink:title=" ">
<path fill="none" stroke="#9a32cd" stroke-dasharray="5,2" d="M336.14,-178.29C343.53,-177.68 350.88,-177.16 358,-176.76 399.28,-174.43 445.04,-173.91 483.9,-174.08"/>
<polygon fill="#9a32cd" stroke="#9a32cd" points="335.72,-174.81 326.06,-179.17 336.33,-181.79 335.72,-174.81"/>
</a>
</g>
<text text-anchor="middle" x="408" y="-179.76" font-family="Helvetica,sans-Serif" font-size="10.00" fill="grey"> _renderer</text>
</g>
<!-- Node17&#45;&gt;Node15 -->
<g id="edge28_Node000015_Node000017" class="edge">
<title>Node17&#45;&gt;Node15</title>
<g id="a_edge28_Node000015_Node000017"><a xlink:title=" ">
<path fill="none" stroke="#9a32cd" stroke-dasharray="5,2" d="M350.37,-149.78C384.93,-152.57 423.07,-155.95 458,-159.76 466.39,-160.67 475.11,-161.7 483.83,-162.79"/>
<polygon fill="#9a32cd" stroke="#9a32cd" points="350.49,-146.28 340.25,-148.98 349.94,-153.26 350.49,-146.28"/>
</a>
</g>
<text text-anchor="middle" x="408" y="-162.76" font-family="Helvetica,sans-Serif" font-size="10.00" fill="grey"> _activeProfile</text>
</g>
</g>
</svg>
