<?xml version="1.0" encoding="UTF-8" standalone="no"?>
<!DOCTYPE svg PUBLIC "-//W3C//DTD SVG 1.1//EN"
 "http://www.w3.org/Graphics/SVG/1.1/DTD/svg11.dtd">
<!-- Generated by graphviz version 2.43.0 (0)
 -->
<!-- Title: WolfstagInteractive.ConvoCore.ConvoCoreSampleUI3D Pages: 1 -->
<svg width="2205pt" height="503pt"
 viewBox="0.00 0.00 2205.00 502.50" xmlns="http://www.w3.org/2000/svg" xmlns:xlink="http://www.w3.org/1999/xlink">
<g id="graph0" class="graph" transform="scale(1 1) rotate(0) translate(4 498.5)">
<title>WolfstagInteractive.ConvoCore.ConvoCoreSampleUI3D</title>
<!-- Node1 -->
<g id="Node000001" class="node">
<title>Node1</title>
<g id="a_Node000001"><a xlink:title="World&#45;space dialogue UI for 3D character conversations.">
<polygon fill="#999999" stroke="#666666" points="2197,-83.5 2041,-83.5 2041,-53.5 2197,-53.5 2197,-83.5"/>
<text text-anchor="start" x="2049" y="-71.5" font-family="Helvetica,sans-Serif" font-size="10.00">WolfstagInteractive.Convo</text>
<text text-anchor="middle" x="2119" y="-60.5" font-family="Helvetica,sans-Serif" font-size="10.00">Core.ConvoCoreSampleUI3D</text>
</a>
</g>
</g>
<!-- Node2 -->
<g id="Node000002" class="node">
<title>Node2</title>
<g id="a_Node000002"><a xlink:href="classWolfstagInteractive_1_1ConvoCore_1_1ConvoCoreUIFoundation.html" target="_top" xlink:title="Used as a basis of any UI that can be assigned in the inspector that includes all the base functions ...">
<polygon fill="white" stroke="#666666" points="1820.5,-148 1686.5,-148 1686.5,-129 1820.5,-129 1820.5,-148"/>
<text text-anchor="middle" x="1753.5" y="-136" font-family="Helvetica,sans-Serif" font-size="10.00">ConvoCoreUIFoundation</text>
</a>
</g>
</g>
<!-- Node2&#45;&gt;Node1 -->
<g id="edge1_Node000001_Node000002" class="edge">
<title>Node2&#45;&gt;Node1</title>
<g id="a_edge1_Node000001_Node000002"><a xlink:title=" ">
<path fill="none" stroke="#63b8ff" d="M1830.86,-144.07C1885.51,-145.77 1960.22,-143.4 2023,-124.5 2051.6,-115.89 2080.62,-96.98 2098.93,-83.52"/>
<polygon fill="#63b8ff" stroke="#63b8ff" points="1830.67,-140.56 1820.55,-143.69 1830.41,-147.55 1830.67,-140.56"/>
</a>
</g>
</g>
<!-- Node3 -->
<g id="Node000003" class="node">
<title>Node3</title>
<g id="a_Node000003"><a xlink:title=" ">
<polygon fill="white" stroke="#666666" points="1071,-112 978,-112 978,-93 1071,-93 1071,-112"/>
<text text-anchor="middle" x="1024.5" y="-100" font-family="Helvetica,sans-Serif" font-size="10.00">MonoBehaviour</text>
</a>
</g>
</g>
<!-- Node3&#45;&gt;Node2 -->
<g id="edge2_Node000002_Node000003" class="edge">
<title>Node3&#45;&gt;Node2</title>
<g id="a_edge2_Node000002_Node000003"><a xlink:title=" ">
<path fill="none" stroke="#63b8ff" d="M1081.41,-101.9C1188.92,-101.28 1431.83,-102.5 1635,-122.5 1652.62,-124.23 1671.66,-126.61 1689.18,-129"/>
<polygon fill="#63b8ff" stroke="#63b8ff" points="1081.1,-98.4 1071.13,-101.97 1081.15,-105.4 1081.1,-98.4"/>
</a>
</g>
</g>
<!-- Node5 -->
<g id="Node000005" class="node">
<title>Node5</title>
<g id="a_Node000005"><a xlink:href="classWolfstagInteractive_1_1ConvoCore_1_1ConvoCore.html" target="_top" xlink:title="Main conversation runner MonoBehaviour.">
<polygon fill="white" stroke="#666666" points="1438,-348.5 1292,-348.5 1292,-318.5 1438,-318.5 1438,-348.5"/>
<text text-anchor="start" x="1300" y="-336.5" font-family="Helvetica,sans-Serif" font-size="10.00">WolfstagInteractive.Convo</text>
<text text-anchor="middle" x="1365" y="-325.5" font-family="Helvetica,sans-Serif" font-size="10.00">Core.ConvoCore</text>
</a>
</g>
</g>
<!-- Node3&#45;&gt;Node5 -->
<g id="edge5_Node000005_Node000003" class="edge">
<title>Node3&#45;&gt;Node5</title>
<g id="a_edge5_Node000005_Node000003"><a xlink:title=" ">
<path fill="none" stroke="#63b8ff" d="M1062.63,-115.72C1081.17,-122.82 1103.7,-132.22 1123,-142.5 1136.92,-149.92 1228.58,-211.77 1241,-221.5 1246.54,-225.84 1315.01,-288.55 1347.32,-318.19"/>
<polygon fill="#63b8ff" stroke="#63b8ff" points="1063.66,-112.36 1053.07,-112.12 1061.19,-118.91 1063.66,-112.36"/>
</a>
</g>
</g>
<!-- Node10 -->
<g id="Node000010" class="node">
<title>Node10</title>
<g id="a_Node000010"><a xlink:href="classWolfstagInteractive_1_1ConvoCore_1_1ConvoCoreUIFoundation.html" target="_top" xlink:title="Used as a basis of any UI that can be assigned in the inspector that includes all the base functions ...">
<polygon fill="white" stroke="#666666" points="1833.5,-246.5 1673.5,-246.5 1673.5,-216.5 1833.5,-216.5 1833.5,-246.5"/>
<text text-anchor="start" x="1681.5" y="-234.5" font-family="Helvetica,sans-Serif" font-size="10.00">WolfstagInteractive.Convo</text>
<text text-anchor="middle" x="1753.5" y="-223.5" font-family="Helvetica,sans-Serif" font-size="10.00">Core.ConvoCoreUIFoundation</text>
</a>
</g>
</g>
<!-- Node3&#45;&gt;Node10 -->
<g id="edge11_Node000010_Node000003" class="edge">
<title>Node3&#45;&gt;Node10</title>
<g id="a_edge11_Node000010_Node000003"><a xlink:title=" ">
<path fill="none" stroke="#63b8ff" d="M1081.25,-98.45C1126.82,-97.57 1191.57,-102.06 1241,-128.5 1251.84,-134.3 1248.29,-143.46 1259,-149.5 1276.91,-159.6 1538.38,-199.63 1673.26,-219.78"/>
<polygon fill="#63b8ff" stroke="#63b8ff" points="1081.15,-94.95 1071.26,-98.73 1081.35,-101.94 1081.15,-94.95"/>
</a>
</g>
</g>
<!-- Node11 -->
<g id="Node000011" class="node">
<title>Node11</title>
<g id="a_Node000011"><a xlink:href="classWolfstagInteractive_1_1ConvoCore_1_1ConvoCoreDialogueHistoryUI.html" target="_top" xlink:title=" ">
<polygon fill="white" stroke="#666666" points="1457.5,-228.5 1272.5,-228.5 1272.5,-198.5 1457.5,-198.5 1457.5,-228.5"/>
<text text-anchor="start" x="1280.5" y="-216.5" font-family="Helvetica,sans-Serif" font-size="10.00">WolfstagInteractive.Convo</text>
<text text-anchor="middle" x="1365" y="-205.5" font-family="Helvetica,sans-Serif" font-size="10.00">Core.ConvoCoreDialogueHistoryUI</text>
</a>
</g>
</g>
<!-- Node3&#45;&gt;Node11 -->
<g id="edge15_Node000011_Node000003" class="edge">
<title>Node3&#45;&gt;Node11</title>
<g id="a_edge15_Node000011_Node000003"><a xlink:title=" ">
<path fill="none" stroke="#63b8ff" d="M1081.25,-113.35C1140.69,-125.3 1228.07,-144.05 1241,-153.5 1253.55,-162.68 1246.66,-174.04 1259,-183.5 1267.05,-189.67 1276.32,-194.58 1285.95,-198.47"/>
<polygon fill="#63b8ff" stroke="#63b8ff" points="1081.72,-109.88 1071.23,-111.35 1080.35,-116.74 1081.72,-109.88"/>
</a>
</g>
</g>
<!-- Node18 -->
<g id="Node000018" class="node">
<title>Node18</title>
<g id="a_Node000018"><a xlink:href="classWolfstagInteractive_1_1ConvoCore_1_1ConvoCorePrefabRepresentationSpawner.html" target="_top" xlink:title="Resolves, tracks, and releases prefab&#45;based character displays for a single UI instance.">
<polygon fill="white" stroke="#666666" points="1854,-41 1653,-41 1653,0 1854,0 1854,-41"/>
<text text-anchor="start" x="1661" y="-29" font-family="Helvetica,sans-Serif" font-size="10.00">WolfstagInteractive.Convo</text>
<text text-anchor="start" x="1661" y="-18" font-family="Helvetica,sans-Serif" font-size="10.00">Core.ConvoCorePrefabRepresentation</text>
<text text-anchor="middle" x="1753.5" y="-7" font-family="Helvetica,sans-Serif" font-size="10.00">Spawner</text>
</a>
</g>
</g>
<!-- Node3&#45;&gt;Node18 -->
<g id="edge29_Node000018_Node000003" class="edge">
<title>Node3&#45;&gt;Node18</title>
<g id="a_edge29_Node000018_Node000003"><a xlink:title=" ">
<path fill="none" stroke="#63b8ff" d="M1054.24,-88.7C1097.45,-68.87 1182.3,-33.49 1259,-22.5 1394.27,-3.12 1552.56,-7.11 1652.66,-12.88"/>
<polygon fill="#63b8ff" stroke="#63b8ff" points="1052.76,-85.52 1045.17,-92.91 1055.71,-91.87 1052.76,-85.52"/>
</a>
</g>
</g>
<!-- Node19 -->
<g id="Node000019" class="node">
<title>Node19</title>
<g id="a_Node000019"><a xlink:href="classWolfstagInteractive_1_1ConvoCore_1_1ConvoCoreSceneCharacterRegistry.html" target="_top" xlink:title="Scene&#45;level registry that maps developer&#45;assigned string IDs to IConvoCoreCharacterDisplay instances ...">
<polygon fill="white" stroke="#666666" points="1471,-61.5 1259,-61.5 1259,-31.5 1471,-31.5 1471,-61.5"/>
<text text-anchor="start" x="1267" y="-49.5" font-family="Helvetica,sans-Serif" font-size="10.00">WolfstagInteractive.Convo</text>
<text text-anchor="middle" x="1365" y="-38.5" font-family="Helvetica,sans-Serif" font-size="10.00">Core.ConvoCoreSceneCharacterRegistry</text>
</a>
</g>
</g>
<!-- Node3&#45;&gt;Node19 -->
<g id="edge31_Node000019_Node000003" class="edge">
<title>Node3&#45;&gt;Node19</title>
<g id="a_edge31_Node000019_Node000003"><a xlink:title=" ">
<path fill="none" stroke="#63b8ff" d="M1071.92,-90.53C1092.91,-85.4 1118.1,-79.65 1141,-75.5 1179.22,-68.57 1221.42,-62.64 1258.73,-57.99"/>
<polygon fill="#63b8ff" stroke="#63b8ff" points="1070.85,-87.19 1061.98,-92.98 1072.52,-93.98 1070.85,-87.19"/>
</a>
</g>
</g>
<!-- Node4 -->
<g id="Node000004" class="node">
<title>Node4</title>
<g id="a_Node000004"><a xlink:href="interfaceWolfstagInteractive_1_1ConvoCore_1_1IUIFoundation.html" target="_top" xlink:title="Contract between the ConvoCore runner and a dialogue UI implementation.">
<polygon fill="white" stroke="#666666" points="1407,-140 1323,-140 1323,-121 1407,-121 1407,-140"/>
<text text-anchor="middle" x="1365" y="-128" font-family="Helvetica,sans-Serif" font-size="10.00">IUIFoundation</text>
</a>
</g>
</g>
<!-- Node4&#45;&gt;Node2 -->
<g id="edge3_Node000002_Node000004" class="edge">
<title>Node4&#45;&gt;Node2</title>
<g id="a_edge3_Node000002_Node000004"><a xlink:title=" ">
<path fill="none" stroke="#63b8ff" d="M1417.07,-128.61C1471.2,-126.95 1559.16,-125.28 1635,-128.5 1651.67,-129.21 1669.64,-130.48 1686.38,-131.88"/>
<polygon fill="#63b8ff" stroke="#63b8ff" points="1416.92,-125.11 1407.04,-128.92 1417.14,-132.11 1416.92,-125.11"/>
</a>
</g>
</g>
<!-- Node4&#45;&gt;Node10 -->
<g id="edge12_Node000010_Node000004" class="edge">
<title>Node4&#45;&gt;Node10</title>
<g id="a_edge12_Node000010_Node000004"><a xlink:title=" ">
<path fill="none" stroke="#63b8ff" d="M1417.57,-129.09C1472.83,-129.11 1562.38,-133.64 1635,-158.5 1673.4,-171.64 1712.31,-199.25 1734.32,-216.49"/>
<polygon fill="#63b8ff" stroke="#63b8ff" points="1417.31,-125.59 1407.33,-129.13 1417.34,-132.59 1417.31,-125.59"/>
</a>
</g>
</g>
<!-- Node5&#45;&gt;Node2 -->
<g id="edge4_Node000002_Node000005" class="edge">
<title>Node5&#45;&gt;Node2</title>
<g id="a_edge4_Node000002_Node000005"><a xlink:title=" ">
<path fill="none" stroke="#9a32cd" stroke-dasharray="5,2" d="M1395.9,-312.8C1419.97,-297.12 1455.25,-276.33 1489,-264.5 1551.06,-242.75 1581.37,-278.56 1635,-240.5 1648.62,-230.83 1641.84,-219.93 1653,-207.5 1676.6,-181.23 1712.08,-159.72 1733.68,-148.04"/>
<polygon fill="#9a32cd" stroke="#9a32cd" points="1393.96,-309.88 1387.56,-318.32 1397.83,-315.72 1393.96,-309.88"/>
</a>
</g>
<text text-anchor="middle" x="1562" y="-267.5" font-family="Helvetica,sans-Serif" font-size="10.00" fill="grey"> ConvoCoreInstance</text>
</g>
<!-- Node5&#45;&gt;Node10 -->
<g id="edge13_Node000010_Node000005" class="edge">
<title>Node5&#45;&gt;Node10</title>
<g id="a_edge13_Node000010_Node000005"><a xlink:title=" ">
<path fill="none" stroke="#9a32cd" stroke-dasharray="5,2" d="M1423.1,-315.53C1443.71,-309.5 1467.26,-303.13 1489,-298.5 1553.12,-284.83 1571.61,-294.23 1635,-277.5 1664.55,-269.7 1696.78,-256.74 1720,-246.56"/>
<polygon fill="#9a32cd" stroke="#9a32cd" points="1421.82,-312.25 1413.23,-318.45 1423.81,-318.97 1421.82,-312.25"/>
</a>
</g>
<text text-anchor="middle" x="1562" y="-301.5" font-family="Helvetica,sans-Serif" font-size="10.00" fill="grey"> ConvoCoreInstance</text>
</g>
<!-- Node6 -->
<g id="Node000006" class="node">
<title>Node6</title>
<g id="a_Node000006"><a xlink:href="interfaceWolfstagInteractive_1_1ConvoCore_1_1IConvoCoreRunner.html" target="_top" xlink:title="Minimal interface implemented by ConvoCore.">
<polygon fill="white" stroke="#666666" points="1078,-446 971,-446 971,-427 1078,-427 1078,-446"/>
<text text-anchor="middle" x="1024.5" y="-434" font-family="Helvetica,sans-Serif" font-size="10.00">IConvoCoreRunner</text>
</a>
</g>
</g>
<!-- Node6&#45;&gt;Node5 -->
<g id="edge6_Node000005_Node000006" class="edge">
<title>Node6&#45;&gt;Node5</title>
<g id="a_edge6_Node000005_Node000006"><a xlink:title=" ">
<path fill="none" stroke="#63b8ff" d="M1088.62,-437C1132.5,-435.56 1191.73,-429.98 1241,-412.5 1282.14,-397.9 1323.52,-367.26 1346.25,-348.72"/>
<polygon fill="#63b8ff" stroke="#63b8ff" points="1088.28,-433.51 1078.37,-437.27 1088.46,-440.51 1088.28,-433.51"/>
</a>
</g>
</g>
<!-- Node7 -->
<g id="Node000007" class="node">
<title>Node7</title>
<g id="a_Node000007"><a xlink:href="classWolfstagInteractive_1_1ConvoCore_1_1ConvoCoreConversationData.html" target="_top" xlink:title=" ">
<polygon fill="white" stroke="#666666" points="481,-339.5 298,-339.5 298,-309.5 481,-309.5 481,-339.5"/>
<text text-anchor="start" x="306" y="-327.5" font-family="Helvetica,sans-Serif" font-size="10.00">WolfstagInteractive.Convo</text>
<text text-anchor="middle" x="389.5" y="-316.5" font-family="Helvetica,sans-Serif" font-size="10.00">Core.ConvoCoreConversationData</text>
</a>
</g>
</g>
<!-- Node7&#45;&gt;Node5 -->
<g id="edge7_Node000005_Node000007" class="edge">
<title>Node7&#45;&gt;Node5</title>
<g id="a_edge7_Node000005_Node000007"><a xlink:title=" ">
<path fill="none" stroke="#9a32cd" stroke-dasharray="5,2" d="M488.9,-341.06C629.5,-362.62 895.99,-395.77 1123,-379.5 1186.31,-374.96 1257.56,-360.12 1306.07,-348.51"/>
<polygon fill="#9a32cd" stroke="#9a32cd" points="489.42,-337.59 479,-339.52 488.35,-344.51 489.42,-337.59"/>
</a>
</g>
<text text-anchor="middle" x="805" y="-384.5" font-family="Helvetica,sans-Serif" font-size="10.00" fill="grey"> ConversationData</text>
</g>
<!-- Node8 -->
<g id="Node000008" class="node">
<title>Node8</title>
<g id="a_Node000008"><a xlink:title=" ">
<polygon fill="white" stroke="#666666" points="97,-244 0,-244 0,-225 97,-225 97,-244"/>
<text text-anchor="middle" x="48.5" y="-232" font-family="Helvetica,sans-Serif" font-size="10.00">ScriptableObject</text>
</a>
</g>
</g>
<!-- Node8&#45;&gt;Node7 -->
<g id="edge8_Node000007_Node000008" class="edge">
<title>Node8&#45;&gt;Node7</title>
<g id="a_edge8_Node000007_Node000008"><a xlink:title=" ">
<path fill="none" stroke="#63b8ff" d="M69.48,-250.41C85.85,-262.59 110.14,-278.73 134,-287.5 186.38,-306.76 248.29,-316.03 297.93,-320.48"/>
<polygon fill="#63b8ff" stroke="#63b8ff" points="71.32,-247.42 61.25,-244.13 67.07,-252.98 71.32,-247.42"/>
</a>
</g>
</g>
<!-- Node12 -->
<g id="Node000012" class="node">
<title>Node12</title>
<g id="a_Node000012"><a xlink:href="classWolfstagInteractive_1_1ConvoCore_1_1ConvoCoreSettings.html" target="_top" xlink:title="Global runtime settings ScriptableObject for ConvoCore.">
<polygon fill="white" stroke="#666666" points="280,-249.5 134,-249.5 134,-219.5 280,-219.5 280,-249.5"/>
<text text-anchor="start" x="142" y="-237.5" font-family="Helvetica,sans-Serif" font-size="10.00">WolfstagInteractive.Convo</text>
<text text-anchor="middle" x="207" y="-226.5" font-family="Helvetica,sans-Serif" font-size="10.00">Core.ConvoCoreSettings</text>
</a>
</g>
</g>
<!-- Node8&#45;&gt;Node12 -->
<g id="edge17_Node000012_Node000008" class="edge">
<title>Node8&#45;&gt;Node12</title>
<g id="a_edge17_Node000012_Node000008"><a xlink:title=" ">
<path fill="none" stroke="#63b8ff" d="M107.31,-234.5C116,-234.5 125.05,-234.5 133.99,-234.5"/>
<polygon fill="#63b8ff" stroke="#63b8ff" points="107.31,-231 97.31,-234.5 107.31,-238 107.31,-231"/>
</a>
</g>
</g>
<!-- Node14 -->
<g id="Node000014" class="node">
<title>Node14</title>
<g id="a_Node000014"><a xlink:href="classWolfstagInteractive_1_1ConvoCore_1_1ConvoCoreHistoryRendererProfile.html" target="_top" xlink:title=" ">
<polygon fill="white" stroke="#666666" points="908,-180.5 702,-180.5 702,-150.5 908,-150.5 908,-180.5"/>
<text text-anchor="start" x="710" y="-168.5" font-family="Helvetica,sans-Serif" font-size="10.00">WolfstagInteractive.Convo</text>
<text text-anchor="middle" x="805" y="-157.5" font-family="Helvetica,sans-Serif" font-size="10.00">Core.ConvoCoreHistoryRendererProfile</text>
</a>
</g>
</g>
<!-- Node8&#45;&gt;Node14 -->
<g id="edge21_Node000014_Node000008" class="edge">
<title>Node8&#45;&gt;Node14</title>
<g id="a_edge21_Node000014_Node000008"><a xlink:title=" ">
<path fill="none" stroke="#63b8ff" d="M88.83,-221.96C102.96,-217.82 119.08,-213.51 134,-210.5 332.28,-170.5 569.54,-164.05 701.88,-164.05"/>
<polygon fill="#63b8ff" stroke="#63b8ff" points="87.52,-218.7 78.94,-224.92 89.53,-225.4 87.52,-218.7"/>
</a>
</g>
</g>
<!-- Node9 -->
<g id="Node000009" class="node">
<title>Node9</title>
<g id="a_Node000009"><a xlink:href="interfaceWolfstagInteractive_1_1ConvoCore_1_1IConvoInput.html" target="_top" xlink:title="Input strategy interface.">
<polygon fill="white" stroke="#666666" points="1097.5,-370.5 951.5,-370.5 951.5,-340.5 1097.5,-340.5 1097.5,-370.5"/>
<text text-anchor="start" x="959.5" y="-358.5" font-family="Helvetica,sans-Serif" font-size="10.00">WolfstagInteractive.Convo</text>
<text text-anchor="middle" x="1024.5" y="-347.5" font-family="Helvetica,sans-Serif" font-size="10.00">Core.IConvoInput</text>
</a>
</g>
</g>
<!-- Node9&#45;&gt;Node5 -->
<g id="edge9_Node000005_Node000009" class="edge">
<title>Node9&#45;&gt;Node5</title>
<g id="a_edge9_Node000005_Node000009"><a xlink:title=" ">
<path fill="none" stroke="#9a32cd" stroke-dasharray="5,2" d="M1107.99,-350.14C1164.24,-346.48 1238.01,-341.69 1291.91,-338.19"/>
<polygon fill="#9a32cd" stroke="#9a32cd" points="1107.45,-346.67 1097.7,-350.81 1107.91,-353.65 1107.45,-346.67"/>
</a>
</g>
<text text-anchor="middle" x="1191" y="-350.5" font-family="Helvetica,sans-Serif" font-size="10.00" fill="grey"> Input</text>
</g>
<!-- Node10&#45;&gt;Node5 -->
<g id="edge10_Node000005_Node000010" class="edge">
<title>Node10&#45;&gt;Node5</title>
<g id="a_edge10_Node000005_Node000010"><a xlink:title=" ">
<path fill="none" stroke="#9a32cd" stroke-dasharray="5,2" d="M1728.5,-253.42C1706.11,-272.43 1670.85,-298.83 1635,-311.5 1571.05,-334.1 1493.42,-338.18 1438.02,-337.45"/>
<polygon fill="#9a32cd" stroke="#9a32cd" points="1730.89,-255.99 1736.15,-246.79 1726.3,-250.7 1730.89,-255.99"/>
</a>
</g>
<text text-anchor="middle" x="1562" y="-339.5" font-family="Helvetica,sans-Serif" font-size="10.00" fill="grey"> ConversationUI</text>
</g>
<!-- Node11&#45;&gt;Node2 -->
<g id="edge27_Node000002_Node000011" class="edge">
<title>Node11&#45;&gt;Node2</title>
<g id="a_edge27_Node000002_Node000011"><a xlink:title=" ">
<path fill="none" stroke="#9a32cd" stroke-dasharray="5,2" d="M1453.95,-196.43C1531.16,-181.45 1640.66,-160.2 1703.34,-148.04"/>
<polygon fill="#9a32cd" stroke="#9a32cd" points="1452.9,-193.07 1443.75,-198.41 1454.23,-199.94 1452.9,-193.07"/>
</a>
</g>
<text text-anchor="middle" x="1562" y="-191.5" font-family="Helvetica,sans-Serif" font-size="10.00" fill="grey"> ConvoCoreDialogueHistoryUI</text>
</g>
<!-- Node11&#45;&gt;Node10 -->
<g id="edge14_Node000010_Node000011" class="edge">
<title>Node11&#45;&gt;Node10</title>
<g id="a_edge14_Node000010_Node000011"><a xlink:title=" ">
<path fill="none" stroke="#9a32cd" stroke-dasharray="5,2" d="M1467.76,-218.24C1532.05,-221.23 1613.9,-225.05 1673.33,-227.81"/>
<polygon fill="#9a32cd" stroke="#9a32cd" points="1467.75,-214.73 1457.6,-217.77 1467.42,-221.73 1467.75,-214.73"/>
</a>
</g>
<text text-anchor="middle" x="1562" y="-228.5" font-family="Helvetica,sans-Serif" font-size="10.00" fill="grey"> ConvoCoreDialogueHistoryUI</text>
</g>
<!-- Node12&#45;&gt;Node11 -->
<g id="edge16_Node000011_Node000012" class="edge">
<title>Node12&#45;&gt;Node11</title>
<g id="a_edge16_Node000011_Node000012"><a xlink:title=" ">
<path fill="none" stroke="#9a32cd" stroke-dasharray="5,2" d="M290.33,-233C499.93,-229.2 1052.6,-219.16 1272.17,-215.17"/>
<polygon fill="#9a32cd" stroke="#9a32cd" points="290.25,-229.51 280.31,-233.19 290.37,-236.5 290.25,-229.51"/>
</a>
</g>
<text text-anchor="middle" x="805" y="-227.5" font-family="Helvetica,sans-Serif" font-size="10.00" fill="grey"> convoCoreSettings</text>
</g>
<!-- Node12&#45;&gt;Node12 -->
<g id="edge18_Node000012_Node000012" class="edge">
<title>Node12&#45;&gt;Node12</title>
<g id="a_edge18_Node000012_Node000012"><a xlink:title=" ">
<path fill="none" stroke="#9a32cd" stroke-dasharray="5,2" d="M191.25,-260.1C193.4,-264.47 198.65,-267.5 207,-267.5 221.06,-267.5 226.34,-258.91 222.82,-249.78"/>
<polygon fill="#9a32cd" stroke="#9a32cd" points="194.74,-259.75 191.18,-249.78 187.74,-259.8 194.74,-259.75"/>
</a>
</g>
<text text-anchor="middle" x="207" y="-270.5" font-family="Helvetica,sans-Serif" font-size="10.00" fill="grey"> _instance</text>
</g>
<!-- Node16 -->
<g id="Node000016" class="node">
<title>Node16</title>
<g id="a_Node000016"><a xlink:href="classWolfstagInteractive_1_1ConvoCore_1_1ConvoCoreLanguageManager.html" target="_top" xlink:title=" ">
<polygon fill="white" stroke="#666666" points="684,-288.5 499,-288.5 499,-258.5 684,-258.5 684,-288.5"/>
<text text-anchor="start" x="507" y="-276.5" font-family="Helvetica,sans-Serif" font-size="10.00">WolfstagInteractive.Convo</text>
<text text-anchor="middle" x="591.5" y="-265.5" font-family="Helvetica,sans-Serif" font-size="10.00">Core.ConvoCoreLanguageManager</text>
</a>
</g>
</g>
<!-- Node12&#45;&gt;Node16 -->
<g id="edge25_Node000016_Node000012" class="edge">
<title>Node12&#45;&gt;Node16</title>
<g id="a_edge25_Node000016_Node000012"><a xlink:title=" ">
<path fill="none" stroke="#9a32cd" stroke-dasharray="5,2" d="M290.42,-242.9C351.71,-249.15 435.37,-257.68 498.78,-264.15"/>
<polygon fill="#9a32cd" stroke="#9a32cd" points="290.7,-239.41 280.4,-241.88 289.99,-246.38 290.7,-239.41"/>
</a>
</g>
<text text-anchor="middle" x="389.5" y="-264.5" font-family="Helvetica,sans-Serif" font-size="10.00" fill="grey"> _convoCoreSettings</text>
</g>
<!-- Node13 -->
<g id="Node000013" class="node">
<title>Node13</title>
<g id="a_Node000013"><a xlink:href="interfaceWolfstagInteractive_1_1ConvoCore_1_1IConvoCoreHistoryRenderer.html" target="_top" xlink:title="Base contract for any dialogue history renderer.">
<polygon fill="white" stroke="#666666" points="1113.5,-262.5 935.5,-262.5 935.5,-232.5 1113.5,-232.5 1113.5,-262.5"/>
<text text-anchor="start" x="943.5" y="-250.5" font-family="Helvetica,sans-Serif" font-size="10.00">WolfstagInteractive.Convo</text>
<text text-anchor="middle" x="1024.5" y="-239.5" font-family="Helvetica,sans-Serif" font-size="10.00">Core.IConvoCoreHistoryRenderer</text>
</a>
</g>
</g>
<!-- Node13&#45;&gt;Node11 -->
<g id="edge19_Node000011_Node000013" class="edge">
<title>Node13&#45;&gt;Node11</title>
<g id="a_edge19_Node000011_Node000013"><a xlink:title=" ">
<path fill="none" stroke="#9a32cd" stroke-dasharray="5,2" d="M1123.71,-237.64C1170.56,-232.93 1226.27,-227.33 1272.25,-222.72"/>
<polygon fill="#9a32cd" stroke="#9a32cd" points="1123.15,-234.17 1113.55,-238.66 1123.85,-241.14 1123.15,-234.17"/>
</a>
</g>
<text text-anchor="middle" x="1191" y="-238.5" font-family="Helvetica,sans-Serif" font-size="10.00" fill="grey"> _renderer</text>
</g>
<!-- Node14&#45;&gt;Node11 -->
<g id="edge20_Node000011_Node000014" class="edge">
<title>Node14&#45;&gt;Node11</title>
<g id="a_edge20_Node000011_Node000014"><a xlink:title=" ">
<path fill="none" stroke="#9a32cd" stroke-dasharray="5,2" d="M918.61,-167.84C979.27,-169.77 1055.33,-173.25 1123,-179.5 1172.54,-184.08 1227.5,-191.64 1272.4,-198.47"/>
<polygon fill="#9a32cd" stroke="#9a32cd" points="918.35,-164.33 908.24,-167.53 918.13,-171.33 918.35,-164.33"/>
</a>
</g>
<text text-anchor="middle" x="1024.5" y="-182.5" font-family="Helvetica,sans-Serif" font-size="10.00" fill="grey"> _activeProfile</text>
</g>
<!-- Node15 -->
<g id="Node000015" class="node">
<title>Node15</title>
<g id="a_Node000015"><a xlink:href="classWolfstagInteractive_1_1ConvoCore_1_1ConvoCoreDialogueLocalizationHandler.html" target="_top" xlink:title=" ">
<polygon fill="white" stroke="#666666" points="1123,-322 926,-322 926,-281 1123,-281 1123,-322"/>
<text text-anchor="start" x="934" y="-310" font-family="Helvetica,sans-Serif" font-size="10.00">WolfstagInteractive.Convo</text>
<text text-anchor="start" x="934" y="-299" font-family="Helvetica,sans-Serif" font-size="10.00">Core.ConvoCoreDialogueLocalization</text>
<text text-anchor="middle" x="1024.5" y="-288" font-family="Helvetica,sans-Serif" font-size="10.00">Handler</text>
</a>
</g>
</g>
<!-- Node15&#45;&gt;Node5 -->
<g id="edge22_Node000005_Node000015" class="edge">
<title>Node15&#45;&gt;Node5</title>
<g id="a_edge22_Node000005_Node000015"><a xlink:title=" ">
<path fill="none" stroke="#9a32cd" stroke-dasharray="5,2" d="M1133.63,-311.72C1185.33,-316.61 1245.83,-322.33 1291.86,-326.68"/>
<polygon fill="#9a32cd" stroke="#9a32cd" points="1133.69,-308.21 1123.41,-310.76 1133.03,-315.18 1133.69,-308.21"/>
</a>
</g>
<text text-anchor="middle" x="1191" y="-323.5" font-family="Helvetica,sans-Serif" font-size="10.00" fill="grey"> LocalizationHandler</text>
</g>
<!-- Node16&#45;&gt;Node15 -->
<g id="edge23_Node000015_Node000016" class="edge">
<title>Node16&#45;&gt;Node15</title>
<g id="a_edge23_Node000015_Node000016"><a xlink:title=" ">
<path fill="none" stroke="#9a32cd" stroke-dasharray="5,2" d="M694.33,-280.12C764.38,-284.67 856.88,-290.68 925.98,-295.16"/>
<polygon fill="#9a32cd" stroke="#9a32cd" points="694.37,-276.61 684.17,-279.46 693.92,-283.6 694.37,-276.61"/>
</a>
</g>
<text text-anchor="middle" x="805" y="-296.5" font-family="Helvetica,sans-Serif" font-size="10.00" fill="grey"> _convoCoreLanguageManager</text>
</g>
<!-- Node16&#45;&gt;Node16 -->
<g id="edge24_Node000016_Node000016" class="edge">
<title>Node16&#45;&gt;Node16</title>
<g id="a_edge24_Node000016_Node000016"><a xlink:title=" ">
<path fill="none" stroke="#9a32cd" stroke-dasharray="5,2" d="M556.14,-299.1C560.97,-303.47 572.76,-306.5 591.5,-306.5 623.06,-306.5 634.9,-297.91 627.01,-288.78"/>
<polygon fill="#9a32cd" stroke="#9a32cd" points="559.64,-298.72 555.99,-288.78 552.64,-298.83 559.64,-298.72"/>
</a>
</g>
<text text-anchor="middle" x="591.5" y="-309.5" font-family="Helvetica,sans-Serif" font-size="10.00" fill="grey"> _instance</text>
</g>
<!-- Node17 -->
<g id="Node000017" class="node">
<title>Node17</title>
<g id="a_Node000017"><a xlink:href="interfaceWolfstagInteractive_1_1ConvoCore_1_1IConversationContext.html" target="_top" xlink:title="Provides optional runtime context for branch evaluation.">
<polygon fill="white" stroke="#666666" points="1098.5,-494.5 950.5,-494.5 950.5,-464.5 1098.5,-464.5 1098.5,-494.5"/>
<text text-anchor="start" x="958.5" y="-482.5" font-family="Helvetica,sans-Serif" font-size="10.00">WolfstagInteractive.Convo</text>
<text text-anchor="middle" x="1024.5" y="-471.5" font-family="Helvetica,sans-Serif" font-size="10.00">Core.IConversationContext</text>
</a>
</g>
</g>
<!-- Node17&#45;&gt;Node5 -->
<g id="edge26_Node000005_Node000017" class="edge">
<title>Node17&#45;&gt;Node5</title>
<g id="a_edge26_Node000005_Node000017"><a xlink:title=" ">
<path fill="none" stroke="#9a32cd" stroke-dasharray="5,2" d="M1108.76,-472.69C1150.09,-466.91 1199.84,-456.23 1241,-436.5 1286.71,-414.59 1329.59,-371.77 1350.57,-348.85"/>
<polygon fill="#9a32cd" stroke="#9a32cd" points="1108.17,-469.24 1098.72,-474.02 1109.1,-476.18 1108.17,-469.24"/>
</a>
</g>
<text text-anchor="middle" x="1191" y="-469.5" font-family="Helvetica,sans-Serif" font-size="10.00" fill="grey"> _context</text>
</g>
<!-- Node18&#45;&gt;Node1 -->
<g id="edge28_Node000001_Node000018" class="edge">
<title>Node18&#45;&gt;Node1</title>
<g id="a_edge28_Node000001_Node000018"><a xlink:title=" ">
<path fill="none" stroke="#9a32cd" stroke-dasharray="5,2" d="M1864,-33.1C1912.73,-38.92 1970.79,-46.17 2023,-53.5 2028.79,-54.31 2034.77,-55.18 2040.78,-56.08"/>
<polygon fill="#9a32cd" stroke="#9a32cd" points="1864.41,-29.62 1854.07,-31.91 1863.58,-36.57 1864.41,-29.62"/>
</a>
</g>
<text text-anchor="middle" x="1947.5" y="-56.5" font-family="Helvetica,sans-Serif" font-size="10.00" fill="grey"> prefabRepresentationSpawner</text>
</g>
<!-- Node19&#45;&gt;Node18 -->
<g id="edge30_Node000018_Node000019" class="edge">
<title>Node19&#45;&gt;Node18</title>
<g id="a_edge30_Node000018_Node000019"><a xlink:title=" ">
<path fill="none" stroke="#9a32cd" stroke-dasharray="5,2" d="M1481.17,-38.75C1535.74,-35.08 1600.29,-30.74 1652.74,-27.21"/>
<polygon fill="#9a32cd" stroke="#9a32cd" points="1480.84,-35.27 1471.1,-39.43 1481.31,-42.25 1480.84,-35.27"/>
</a>
</g>
<text text-anchor="middle" x="1562" y="-40.5" font-family="Helvetica,sans-Serif" font-size="10.00" fill="grey"> sceneCharacterRegistry</text>
</g>
<!-- Node20 -->
<g id="Node000020" class="node">
<title>Node20</title>
<g id="a_Node000020"><a xlink:title=" ">
<polygon fill="white" stroke="#666666" points="1791.5,-78 1715.5,-78 1715.5,-59 1791.5,-59 1791.5,-78"/>
<text text-anchor="middle" x="1753.5" y="-66" font-family="Helvetica,sans-Serif" font-size="10.00">UnityEngine</text>
</a>
</g>
</g>
<!-- Node20&#45;&gt;Node1 -->
<g id="edge32_Node000001_Node000020" class="edge">
<title>Node20&#45;&gt;Node1</title>
<g id="a_edge32_Node000001_Node000020"><a xlink:title=" ">
<path fill="none" stroke="#9a32cd" stroke-dasharray="5,2" d="M1801.75,-68.5C1862.44,-68.5 1968.54,-68.5 2040.97,-68.5"/>
<polygon fill="#9a32cd" stroke="#9a32cd" points="1801.69,-65 1791.69,-68.5 1801.69,-72 1801.69,-65"/>
</a>
</g>
<text text-anchor="middle" x="1947.5" y="-115.5" font-family="Helvetica,sans-Serif" font-size="10.00" fill="grey"> ContinueButton</text>
<text text-anchor="start" x="1876" y="-104.5" font-family="Helvetica,sans-Serif" font-size="10.00" fill="grey">DialogueHistoryContent</text>
<text text-anchor="middle" x="1947.5" y="-93.5" font-family="Helvetica,sans-Serif" font-size="10.00" fill="grey">Background</text>
<text text-anchor="middle" x="1947.5" y="-82.5" font-family="Helvetica,sans-Serif" font-size="10.00" fill="grey">PreviousLineButton</text>
<text text-anchor="middle" x="1947.5" y="-71.5" font-family="Helvetica,sans-Serif" font-size="10.00" fill="grey">ToggleDialogueHistoryButton</text>
</g>
</g>
</svg>
