<?xml version="1.0" encoding="UTF-8" standalone="no"?>
<!DOCTYPE svg PUBLIC "-//W3C//DTD SVG 1.1//EN"
 "http://www.w3.org/Graphics/SVG/1.1/DTD/svg11.dtd">
<!-- Generated by graphviz version 2.43.0 (0)
 -->
<!-- Title: WolfstagInteractive.ConvoCore.ConvoCore Pages: 1 -->
<svg width="1336pt" height="698pt"
 viewBox="0.00 0.00 1336.00 697.77" xmlns="http://www.w3.org/2000/svg" xmlns:xlink="http://www.w3.org/1999/xlink">
<g id="graph0" class="graph" transform="scale(1 1) rotate(0) translate(4 693.77)">
<title>WolfstagInteractive.ConvoCore.ConvoCore</title>
<!-- Node1 -->
<g id="Node000001" class="node">
<title>Node1</title>
<g id="a_Node000001"><a xlink:title="Main conversation runner MonoBehaviour.">
<polygon fill="#999999" stroke="#666666" points="1328,-195.77 1182,-195.77 1182,-165.77 1328,-165.77 1328,-195.77"/>
<text text-anchor="start" x="1190" y="-183.77" font-family="Helvetica,sans-Serif" font-size="10.00">WolfstagInteractive.Convo</text>
<text text-anchor="middle" x="1255" y="-172.77" font-family="Helvetica,sans-Serif" font-size="10.00">Core.ConvoCore</text>
</a>
</g>
</g>
<!-- Node2 -->
<g id="Node000002" class="node">
<title>Node2</title>
<g id="a_Node000002"><a xlink:title=" ">
<polygon fill="white" stroke="#666666" points="283.5,-518.27 190.5,-518.27 190.5,-499.27 283.5,-499.27 283.5,-518.27"/>
<text text-anchor="middle" x="237" y="-506.27" font-family="Helvetica,sans-Serif" font-size="10.00">MonoBehaviour</text>
</a>
</g>
</g>
<!-- Node2&#45;&gt;Node1 -->
<g id="edge1_Node000001_Node000002" class="edge">
<title>Node2&#45;&gt;Node1</title>
<g id="a_edge1_Node000001_Node000002"><a xlink:title=" ">
<path fill="none" stroke="#63b8ff" d="M248.87,-489.83C268.79,-454.62 311.68,-376.32 340,-306.77 350.02,-282.17 340.63,-269.87 358,-249.77 461.99,-129.47 525.01,-129.34 680,-93.77 889.73,-45.65 965.65,-22.37 1164,-105.77 1195.87,-119.18 1225.1,-147.85 1241.14,-165.61"/>
<polygon fill="#63b8ff" stroke="#63b8ff" points="245.59,-488.53 243.68,-498.95 251.67,-491.99 245.59,-488.53"/>
</a>
</g>
</g>
<!-- Node8 -->
<g id="Node000008" class="node">
<title>Node8</title>
<g id="a_Node000008"><a xlink:href="classWolfstagInteractive_1_1ConvoCore_1_1ConvoCoreUIFoundation.html" target="_top" xlink:title="Used as a basis of any UI that can be assigned in the inspector that includes all the base functions ...">
<polygon fill="white" stroke="#666666" points="1027.5,-576.77 867.5,-576.77 867.5,-546.77 1027.5,-546.77 1027.5,-576.77"/>
<text text-anchor="start" x="875.5" y="-564.77" font-family="Helvetica,sans-Serif" font-size="10.00">WolfstagInteractive.Convo</text>
<text text-anchor="middle" x="947.5" y="-553.77" font-family="Helvetica,sans-Serif" font-size="10.00">Core.ConvoCoreUIFoundation</text>
</a>
</g>
</g>
<!-- Node2&#45;&gt;Node8 -->
<g id="edge10_Node000008_Node000002" class="edge">
<title>Node2&#45;&gt;Node8</title>
<g id="a_edge10_Node000008_Node000002"><a xlink:title=" ">
<path fill="none" stroke="#63b8ff" d="M288.6,-520.49C336.75,-531.06 411.38,-545.97 477,-552.77 613.64,-566.95 773.81,-566.36 867.33,-564.31"/>
<polygon fill="#63b8ff" stroke="#63b8ff" points="289.26,-517.05 278.74,-518.3 287.74,-523.88 289.26,-517.05"/>
</a>
</g>
</g>
<!-- Node10 -->
<g id="Node000010" class="node">
<title>Node10</title>
<g id="a_Node000010"><a xlink:href="classWolfstagInteractive_1_1ConvoCore_1_1ConvoCore.html" target="_top" xlink:title="Main conversation runner MonoBehaviour.">
<polygon fill="white" stroke="#666666" points="1328,-462.77 1182,-462.77 1182,-432.77 1328,-432.77 1328,-462.77"/>
<text text-anchor="start" x="1190" y="-450.77" font-family="Helvetica,sans-Serif" font-size="10.00">WolfstagInteractive.Convo</text>
<text text-anchor="middle" x="1255" y="-439.77" font-family="Helvetica,sans-Serif" font-size="10.00">Core.ConvoCore</text>
</a>
</g>
</g>
<!-- Node2&#45;&gt;Node10 -->
<g id="edge13_Node000010_Node000002" class="edge">
<title>Node2&#45;&gt;Node10</title>
<g id="a_edge13_Node000010_Node000002"><a xlink:title=" ">
<path fill="none" stroke="#63b8ff" d="M293.79,-508.29C425.03,-506.93 763.55,-502.21 1046,-487.77 1098.53,-485.09 1112.49,-489.43 1164,-478.77 1181.8,-475.09 1200.92,-468.85 1216.94,-462.93"/>
<polygon fill="#63b8ff" stroke="#63b8ff" points="293.55,-504.79 283.59,-508.39 293.63,-511.79 293.55,-504.79"/>
</a>
</g>
</g>
<!-- Node16 -->
<g id="Node000016" class="node">
<title>Node16</title>
<g id="a_Node000016"><a xlink:href="classWolfstagInteractive_1_1ConvoCore_1_1ConvoCoreDialogueHistoryUI.html" target="_top" xlink:title=" ">
<polygon fill="white" stroke="#666666" points="662,-629.77 477,-629.77 477,-599.77 662,-599.77 662,-629.77"/>
<text text-anchor="start" x="485" y="-617.77" font-family="Helvetica,sans-Serif" font-size="10.00">WolfstagInteractive.Convo</text>
<text text-anchor="middle" x="569.5" y="-606.77" font-family="Helvetica,sans-Serif" font-size="10.00">Core.ConvoCoreDialogueHistoryUI</text>
</a>
</g>
</g>
<!-- Node2&#45;&gt;Node16 -->
<g id="edge27_Node000016_Node000002" class="edge">
<title>Node2&#45;&gt;Node16</title>
<g id="a_edge27_Node000016_Node000002"><a xlink:title=" ">
<path fill="none" stroke="#63b8ff" d="M257.89,-524.86C280.65,-542.35 319.73,-569.7 358,-583.77 395.62,-597.61 439.16,-605.28 476.85,-609.54"/>
<polygon fill="#63b8ff" stroke="#63b8ff" points="259.76,-521.88 249.73,-518.46 255.44,-527.39 259.76,-521.88"/>
</a>
</g>
</g>
<!-- Node3 -->
<g id="Node000003" class="node">
<title>Node3</title>
<g id="a_Node000003"><a xlink:href="interfaceWolfstagInteractive_1_1ConvoCore_1_1IConvoCoreRunner.html" target="_top" xlink:title="Minimal interface implemented by ConvoCore.">
<polygon fill="white" stroke="#666666" points="1001,-330.27 894,-330.27 894,-311.27 1001,-311.27 1001,-330.27"/>
<text text-anchor="middle" x="947.5" y="-318.27" font-family="Helvetica,sans-Serif" font-size="10.00">IConvoCoreRunner</text>
</a>
</g>
</g>
<!-- Node3&#45;&gt;Node1 -->
<g id="edge2_Node000001_Node000003" class="edge">
<title>Node3&#45;&gt;Node1</title>
<g id="a_edge2_Node000001_Node000003"><a xlink:title=" ">
<path fill="none" stroke="#63b8ff" d="M1008.38,-307.71C1022.39,-302.1 1036.1,-294.12 1046,-282.77 1068.54,-256.94 1038.64,-230.84 1064,-207.77 1081.13,-192.19 1135.67,-185.57 1181.95,-182.77"/>
<polygon fill="#63b8ff" stroke="#63b8ff" points="1006.89,-304.53 998.67,-311.22 1009.27,-311.11 1006.89,-304.53"/>
</a>
</g>
</g>
<!-- Node3&#45;&gt;Node10 -->
<g id="edge14_Node000010_Node000003" class="edge">
<title>Node3&#45;&gt;Node10</title>
<g id="a_edge14_Node000010_Node000003"><a xlink:title=" ">
<path fill="none" stroke="#63b8ff" d="M1010.93,-331.82C1023.28,-335.84 1035.61,-341.32 1046,-348.77 1057.42,-356.97 1052.55,-366.62 1064,-374.77 1101.59,-401.56 1120.94,-386.16 1164,-402.77 1185.84,-411.2 1209.47,-423.14 1227.04,-432.6"/>
<polygon fill="#63b8ff" stroke="#63b8ff" points="1011.65,-328.38 1001.07,-328.89 1009.66,-335.09 1011.65,-328.38"/>
</a>
</g>
</g>
<!-- Node4 -->
<g id="Node000004" class="node">
<title>Node4</title>
<g id="a_Node000004"><a xlink:href="classWolfstagInteractive_1_1ConvoCore_1_1ConvoCoreConversationData.html" target="_top" xlink:title=" ">
<polygon fill="white" stroke="#666666" points="328.5,-128.77 145.5,-128.77 145.5,-98.77 328.5,-98.77 328.5,-128.77"/>
<text text-anchor="start" x="153.5" y="-116.77" font-family="Helvetica,sans-Serif" font-size="10.00">WolfstagInteractive.Convo</text>
<text text-anchor="middle" x="237" y="-105.77" font-family="Helvetica,sans-Serif" font-size="10.00">Core.ConvoCoreConversationData</text>
</a>
</g>
</g>
<!-- Node4&#45;&gt;Node1 -->
<g id="edge3_Node000001_Node000004" class="edge">
<title>Node4&#45;&gt;Node1</title>
<g id="a_edge3_Node000001_Node000004"><a xlink:title=" ">
<path fill="none" stroke="#9a32cd" stroke-dasharray="5,2" d="M338.87,-108.39C545.86,-98.43 1011.89,-81.91 1164,-125.77 1191.27,-133.64 1218.51,-152.14 1235.76,-165.52"/>
<polygon fill="#9a32cd" stroke="#9a32cd" points="338.43,-104.91 328.61,-108.89 338.77,-111.9 338.43,-104.91"/>
</a>
</g>
<text text-anchor="middle" x="755.5" y="-100.77" font-family="Helvetica,sans-Serif" font-size="10.00" fill="grey"> ConversationData</text>
</g>
<!-- Node6 -->
<g id="Node000006" class="node">
<title>Node6</title>
<g id="a_Node000006"><a xlink:href="classWolfstagInteractive_1_1ConvoCore_1_1ConvoCoreAudioManifest.html" target="_top" xlink:title="Maps dialogue line IDs to audio clips or middleware references, supporting Unity AudioSource,...">
<polygon fill="white" stroke="#666666" points="652.5,-37.77 486.5,-37.77 486.5,-7.77 652.5,-7.77 652.5,-37.77"/>
<text text-anchor="start" x="494.5" y="-25.77" font-family="Helvetica,sans-Serif" font-size="10.00">WolfstagInteractive.Convo</text>
<text text-anchor="middle" x="569.5" y="-14.77" font-family="Helvetica,sans-Serif" font-size="10.00">Core.ConvoCoreAudioManifest</text>
</a>
</g>
</g>
<!-- Node4&#45;&gt;Node6 -->
<g id="edge7_Node000006_Node000004" class="edge">
<title>Node4&#45;&gt;Node6</title>
<g id="a_edge7_Node000006_Node000004"><a xlink:title=" ">
<path fill="none" stroke="#9a32cd" stroke-dasharray="5,2" d="M258.4,-91.16C280.41,-68.61 317.75,-35.43 358,-21.77 398.75,-7.95 446.55,-7.06 486.29,-10.12"/>
<polygon fill="#9a32cd" stroke="#9a32cd" points="255.64,-88.99 251.28,-98.64 260.71,-93.81 255.64,-88.99"/>
</a>
</g>
<text text-anchor="middle" x="408.5" y="-24.77" font-family="Helvetica,sans-Serif" font-size="10.00" fill="grey"> SourceConversation</text>
</g>
<!-- Node4&#45;&gt;Node10 -->
<g id="edge15_Node000010_Node000004" class="edge">
<title>Node4&#45;&gt;Node10</title>
<g id="a_edge15_Node000010_Node000004"><a xlink:title=" ">
<path fill="none" stroke="#9a32cd" stroke-dasharray="5,2" d="M261.48,-136.38C283.69,-158.65 316.97,-194.39 340,-229.77 350.41,-245.78 343.69,-256.13 358,-268.77 599.46,-482.16 744.16,-394.56 1064,-433.77 1102.74,-438.52 1146.13,-441.87 1181.66,-444.1"/>
<polygon fill="#9a32cd" stroke="#9a32cd" points="263.68,-133.64 254.12,-129.09 258.76,-138.61 263.68,-133.64"/>
</a>
</g>
<text text-anchor="middle" x="755.5" y="-424.77" font-family="Helvetica,sans-Serif" font-size="10.00" fill="grey"> ConversationData</text>
</g>
<!-- Node5 -->
<g id="Node000005" class="node">
<title>Node5</title>
<g id="a_Node000005"><a xlink:title=" ">
<polygon fill="white" stroke="#666666" points="97,-164.27 0,-164.27 0,-145.27 97,-145.27 97,-164.27"/>
<text text-anchor="middle" x="48.5" y="-152.27" font-family="Helvetica,sans-Serif" font-size="10.00">ScriptableObject</text>
</a>
</g>
</g>
<!-- Node5&#45;&gt;Node4 -->
<g id="edge4_Node000004_Node000005" class="edge">
<title>Node5&#45;&gt;Node4</title>
<g id="a_edge4_Node000004_Node000005"><a xlink:title=" ">
<path fill="none" stroke="#63b8ff" d="M102.68,-143.08C122.82,-138.66 146.05,-133.55 167.41,-128.85"/>
<polygon fill="#63b8ff" stroke="#63b8ff" points="101.77,-139.7 92.76,-145.27 103.27,-146.54 101.77,-139.7"/>
</a>
</g>
</g>
<!-- Node5&#45;&gt;Node6 -->
<g id="edge6_Node000006_Node000005" class="edge">
<title>Node5&#45;&gt;Node6</title>
<g id="a_edge6_Node000006_Node000005"><a xlink:title=" ">
<path fill="none" stroke="#63b8ff" d="M67.71,-138.22C84.11,-123.95 109.37,-103.53 134,-89.77 226.97,-37.87 253.26,-23.98 358,-4.77 404.9,3.82 458.45,-0.95 499.8,-7.74"/>
<polygon fill="#63b8ff" stroke="#63b8ff" points="65.15,-135.8 59.98,-145.05 69.79,-141.05 65.15,-135.8"/>
</a>
</g>
</g>
<!-- Node14 -->
<g id="Node000014" class="node">
<title>Node14</title>
<g id="a_Node000014"><a xlink:href="classWolfstagInteractive_1_1ConvoCore_1_1ConvoCoreSettings.html" target="_top" xlink:title="Global runtime settings ScriptableObject for ConvoCore.">
<polygon fill="white" stroke="#666666" points="310,-268.77 164,-268.77 164,-238.77 310,-238.77 310,-268.77"/>
<text text-anchor="start" x="172" y="-256.77" font-family="Helvetica,sans-Serif" font-size="10.00">WolfstagInteractive.Convo</text>
<text text-anchor="middle" x="237" y="-245.77" font-family="Helvetica,sans-Serif" font-size="10.00">Core.ConvoCoreSettings</text>
</a>
</g>
</g>
<!-- Node5&#45;&gt;Node14 -->
<g id="edge23_Node000014_Node000005" class="edge">
<title>Node5&#45;&gt;Node14</title>
<g id="a_edge23_Node000014_Node000005"><a xlink:title=" ">
<path fill="none" stroke="#63b8ff" d="M76.89,-169.31C111.92,-187.91 172.29,-219.96 207.74,-238.77"/>
<polygon fill="#63b8ff" stroke="#63b8ff" points="78.2,-166.04 67.72,-164.45 74.91,-172.23 78.2,-166.04"/>
</a>
</g>
</g>
<!-- Node18 -->
<g id="Node000018" class="node">
<title>Node18</title>
<g id="a_Node000018"><a xlink:href="classWolfstagInteractive_1_1ConvoCore_1_1ConvoCoreHistoryRendererProfile.html" target="_top" xlink:title=" ">
<polygon fill="white" stroke="#666666" points="340,-689.77 134,-689.77 134,-659.77 340,-659.77 340,-689.77"/>
<text text-anchor="start" x="142" y="-677.77" font-family="Helvetica,sans-Serif" font-size="10.00">WolfstagInteractive.Convo</text>
<text text-anchor="middle" x="237" y="-666.77" font-family="Helvetica,sans-Serif" font-size="10.00">Core.ConvoCoreHistoryRendererProfile</text>
</a>
</g>
</g>
<!-- Node5&#45;&gt;Node18 -->
<g id="edge31_Node000018_Node000005" class="edge">
<title>Node5&#45;&gt;Node18</title>
<g id="a_edge31_Node000018_Node000005"><a xlink:title=" ">
<path fill="none" stroke="#63b8ff" d="M50.06,-174.9C52.81,-258.84 67.59,-580.09 134,-650.77 137.11,-654.09 140.59,-656.99 144.34,-659.51"/>
<polygon fill="#63b8ff" stroke="#63b8ff" points="53.55,-174.56 49.75,-164.68 46.56,-174.78 53.55,-174.56"/>
</a>
</g>
</g>
<!-- Node6&#45;&gt;Node4 -->
<g id="edge5_Node000004_Node000006" class="edge">
<title>Node6&#45;&gt;Node4</title>
<g id="a_edge5_Node000004_Node000006"><a xlink:title=" ">
<path fill="none" stroke="#9a32cd" stroke-dasharray="5,2" d="M476,-32.62C438.8,-38 395.84,-46.04 358,-57.77 324.62,-68.12 288.58,-85.93 264.8,-98.68"/>
<polygon fill="#9a32cd" stroke="#9a32cd" points="476.91,-36.03 486.33,-31.17 475.94,-29.09 476.91,-36.03"/>
</a>
</g>
<text text-anchor="middle" x="408.5" y="-60.77" font-family="Helvetica,sans-Serif" font-size="10.00" fill="grey"> AudioManifest</text>
</g>
<!-- Node7 -->
<g id="Node000007" class="node">
<title>Node7</title>
<g id="a_Node000007"><a xlink:href="interfaceWolfstagInteractive_1_1ConvoCore_1_1IConvoInput.html" target="_top" xlink:title="Input strategy interface.">
<polygon fill="white" stroke="#666666" points="1020.5,-478.77 874.5,-478.77 874.5,-448.77 1020.5,-448.77 1020.5,-478.77"/>
<text text-anchor="start" x="882.5" y="-466.77" font-family="Helvetica,sans-Serif" font-size="10.00">WolfstagInteractive.Convo</text>
<text text-anchor="middle" x="947.5" y="-455.77" font-family="Helvetica,sans-Serif" font-size="10.00">Core.IConvoInput</text>
</a>
</g>
</g>
<!-- Node7&#45;&gt;Node1 -->
<g id="edge8_Node000001_Node000007" class="edge">
<title>Node7&#45;&gt;Node1</title>
<g id="a_edge8_Node000001_Node000007"><a xlink:title=" ">
<path fill="none" stroke="#9a32cd" stroke-dasharray="5,2" d="M993.06,-443.7C1012.46,-432.65 1033.57,-417.02 1046,-396.77 1077.67,-345.19 1023.25,-306.53 1064,-261.77 1094.7,-228.06 1121.98,-256.5 1164,-238.77 1190.2,-227.72 1217.23,-209.16 1234.74,-196.02"/>
<polygon fill="#9a32cd" stroke="#9a32cd" points="991.14,-440.76 984.01,-448.61 994.47,-446.92 991.14,-440.76"/>
</a>
</g>
<text text-anchor="middle" x="1114" y="-264.77" font-family="Helvetica,sans-Serif" font-size="10.00" fill="grey"> Input</text>
</g>
<!-- Node7&#45;&gt;Node10 -->
<g id="edge16_Node000010_Node000007" class="edge">
<title>Node7&#45;&gt;Node10</title>
<g id="a_edge16_Node000010_Node000007"><a xlink:title=" ">
<path fill="none" stroke="#9a32cd" stroke-dasharray="5,2" d="M1030.93,-463.76C1071.11,-463.27 1120.13,-461.96 1164,-458.77 1169.81,-458.35 1175.82,-457.82 1181.85,-457.23"/>
<polygon fill="#9a32cd" stroke="#9a32cd" points="1030.87,-460.26 1020.91,-463.87 1030.95,-467.26 1030.87,-460.26"/>
</a>
</g>
<text text-anchor="middle" x="1114" y="-466.77" font-family="Helvetica,sans-Serif" font-size="10.00" fill="grey"> Input</text>
</g>
<!-- Node8&#45;&gt;Node1 -->
<g id="edge9_Node000001_Node000008" class="edge">
<title>Node8&#45;&gt;Node1</title>
<g id="a_edge9_Node000001_Node000008"><a xlink:title=" ">
<path fill="none" stroke="#9a32cd" stroke-dasharray="5,2" d="M989.48,-541.32C1010.04,-528.8 1033.24,-510.75 1046,-487.77 1067.02,-449.93 1035.19,-326.09 1064,-293.77 1094.22,-259.88 1124.18,-294.61 1164,-272.77 1198.87,-253.65 1228.76,-216.64 1243.74,-195.87"/>
<polygon fill="#9a32cd" stroke="#9a32cd" points="987.45,-538.46 980.57,-546.51 990.97,-544.5 987.45,-538.46"/>
</a>
</g>
<text text-anchor="middle" x="1114" y="-296.77" font-family="Helvetica,sans-Serif" font-size="10.00" fill="grey"> ConversationUI</text>
</g>
<!-- Node8&#45;&gt;Node10 -->
<g id="edge17_Node000010_Node000008" class="edge">
<title>Node8&#45;&gt;Node10</title>
<g id="a_edge17_Node000010_Node000008"><a xlink:title=" ">
<path fill="none" stroke="#9a32cd" stroke-dasharray="5,2" d="M1037.83,-573.15C1078.21,-574.48 1125.41,-570.51 1164,-551.77 1203.74,-532.48 1233.04,-486.76 1246.24,-462.89"/>
<polygon fill="#9a32cd" stroke="#9a32cd" points="1037.86,-569.65 1027.72,-572.7 1037.55,-576.64 1037.86,-569.65"/>
</a>
</g>
<text text-anchor="middle" x="1114" y="-575.77" font-family="Helvetica,sans-Serif" font-size="10.00" fill="grey"> ConversationUI</text>
</g>
<!-- Node9 -->
<g id="Node000009" class="node">
<title>Node9</title>
<g id="a_Node000009"><a xlink:href="interfaceWolfstagInteractive_1_1ConvoCore_1_1IUIFoundation.html" target="_top" xlink:title="Contract between the ConvoCore runner and a dialogue UI implementation.">
<polygon fill="white" stroke="#666666" points="611.5,-543.27 527.5,-543.27 527.5,-524.27 611.5,-524.27 611.5,-543.27"/>
<text text-anchor="middle" x="569.5" y="-531.27" font-family="Helvetica,sans-Serif" font-size="10.00">IUIFoundation</text>
</a>
</g>
</g>
<!-- Node9&#45;&gt;Node8 -->
<g id="edge11_Node000008_Node000009" class="edge">
<title>Node9&#45;&gt;Node8</title>
<g id="a_edge11_Node000008_Node000009"><a xlink:title=" ">
<path fill="none" stroke="#63b8ff" d="M621.96,-537.61C685.3,-542.32 793.53,-550.38 867.45,-555.89"/>
<polygon fill="#63b8ff" stroke="#63b8ff" points="622.05,-534.1 611.81,-536.85 621.53,-541.08 622.05,-534.1"/>
</a>
</g>
</g>
<!-- Node10&#45;&gt;Node8 -->
<g id="edge12_Node000008_Node000010" class="edge">
<title>Node10&#45;&gt;Node8</title>
<g id="a_edge12_Node000008_Node000010"><a xlink:title=" ">
<path fill="none" stroke="#9a32cd" stroke-dasharray="5,2" d="M1231.94,-469.71C1214.81,-485.46 1189.73,-505.94 1164,-517.77 1151.4,-523.57 1083.73,-536.95 1027.53,-547.45"/>
<polygon fill="#9a32cd" stroke="#9a32cd" points="1234.34,-472.25 1239.22,-462.85 1229.54,-467.16 1234.34,-472.25"/>
</a>
</g>
<text text-anchor="middle" x="1114" y="-542.77" font-family="Helvetica,sans-Serif" font-size="10.00" fill="grey"> ConvoCoreInstance</text>
</g>
<!-- Node11 -->
<g id="Node000011" class="node">
<title>Node11</title>
<g id="a_Node000011"><a xlink:href="interfaceWolfstagInteractive_1_1ConvoCore_1_1IConvoAudioProvider.html" target="_top" xlink:title="Interface for audio playback backends.">
<polygon fill="white" stroke="#666666" points="1020.5,-387.77 874.5,-387.77 874.5,-357.77 1020.5,-357.77 1020.5,-387.77"/>
<text text-anchor="start" x="882.5" y="-375.77" font-family="Helvetica,sans-Serif" font-size="10.00">WolfstagInteractive.Convo</text>
<text text-anchor="middle" x="947.5" y="-364.77" font-family="Helvetica,sans-Serif" font-size="10.00">Core.IConvoAudioProvider</text>
</a>
</g>
</g>
<!-- Node11&#45;&gt;Node1 -->
<g id="edge32_Node000001_Node000011" class="edge">
<title>Node11&#45;&gt;Node1</title>
<g id="a_edge32_Node000001_Node000011"><a xlink:title=" ">
<path fill="none" stroke="#9a32cd" stroke-dasharray="5,2" d="M1029.92,-352.63C1035.94,-348.79 1041.43,-344.22 1046,-338.77 1078.12,-300.49 1029.83,-264.25 1064,-227.77 1095.18,-194.49 1119.74,-215.76 1164,-204.77 1175.3,-201.97 1187.36,-198.84 1198.87,-195.8"/>
<polygon fill="#9a32cd" stroke="#9a32cd" points="1027.79,-349.82 1020.77,-357.76 1031.21,-355.93 1027.79,-349.82"/>
</a>
</g>
<text text-anchor="middle" x="1114" y="-230.77" font-family="Helvetica,sans-Serif" font-size="10.00" fill="grey"> _audioProvider</text>
</g>
<!-- Node11&#45;&gt;Node10 -->
<g id="edge18_Node000010_Node000011" class="edge">
<title>Node11&#45;&gt;Node10</title>
<g id="a_edge18_Node000010_Node000011"><a xlink:title=" ">
<path fill="none" stroke="#9a32cd" stroke-dasharray="5,2" d="M1022.56,-390.13C1036.33,-393.34 1050.6,-396.67 1064,-399.77 1108.43,-410.08 1119.8,-411.56 1164,-422.77 1176.1,-425.85 1189.07,-429.33 1201.28,-432.7"/>
<polygon fill="#9a32cd" stroke="#9a32cd" points="1023.17,-386.68 1012.64,-387.81 1021.58,-393.49 1023.17,-386.68"/>
</a>
</g>
<text text-anchor="middle" x="1114" y="-425.77" font-family="Helvetica,sans-Serif" font-size="10.00" fill="grey"> _audioProvider</text>
</g>
<!-- Node12 -->
<g id="Node000012" class="node">
<title>Node12</title>
<g id="a_Node000012"><a xlink:href="classWolfstagInteractive_1_1ConvoCore_1_1ConvoCoreDialogueLocalizationHandler.html" target="_top" xlink:title=" ">
<polygon fill="white" stroke="#666666" points="1046,-274.27 849,-274.27 849,-233.27 1046,-233.27 1046,-274.27"/>
<text text-anchor="start" x="857" y="-262.27" font-family="Helvetica,sans-Serif" font-size="10.00">WolfstagInteractive.Convo</text>
<text text-anchor="start" x="857" y="-251.27" font-family="Helvetica,sans-Serif" font-size="10.00">Core.ConvoCoreDialogueLocalization</text>
<text text-anchor="middle" x="947.5" y="-240.27" font-family="Helvetica,sans-Serif" font-size="10.00">Handler</text>
</a>
</g>
</g>
<!-- Node12&#45;&gt;Node1 -->
<g id="edge33_Node000001_Node000012" class="edge">
<title>Node12&#45;&gt;Node1</title>
<g id="a_edge33_Node000001_Node000012"><a xlink:title=" ">
<path fill="none" stroke="#9a32cd" stroke-dasharray="5,2" d="M989.05,-227.47C1006.95,-215.35 1027.98,-200.44 1046,-185.77 1054.54,-178.83 1053.77,-172.84 1064,-168.77 1108.07,-151.25 1162.44,-157.14 1201.71,-165.71"/>
<polygon fill="#9a32cd" stroke="#9a32cd" points="986.89,-224.7 980.54,-233.17 990.79,-230.51 986.89,-224.7"/>
</a>
</g>
<text text-anchor="middle" x="1114" y="-171.77" font-family="Helvetica,sans-Serif" font-size="10.00" fill="grey"> LocalizationHandler</text>
</g>
<!-- Node12&#45;&gt;Node10 -->
<g id="edge19_Node000010_Node000012" class="edge">
<title>Node12&#45;&gt;Node10</title>
<g id="a_edge19_Node000010_Node000012"><a xlink:title=" ">
<path fill="none" stroke="#9a32cd" stroke-dasharray="5,2" d="M1015.39,-279.04C1026.52,-285.29 1037.27,-292.82 1046,-301.77 1059.33,-315.44 1049.07,-328.88 1064,-340.77 1099.52,-369.07 1123.82,-340.61 1164,-361.77 1197.46,-379.4 1227.23,-413.12 1242.72,-432.69"/>
<polygon fill="#9a32cd" stroke="#9a32cd" points="1016.89,-275.87 1006.41,-274.3 1013.62,-282.06 1016.89,-275.87"/>
</a>
</g>
<text text-anchor="middle" x="1114" y="-364.77" font-family="Helvetica,sans-Serif" font-size="10.00" fill="grey"> LocalizationHandler</text>
</g>
<!-- Node13 -->
<g id="Node000013" class="node">
<title>Node13</title>
<g id="a_Node000013"><a xlink:href="classWolfstagInteractive_1_1ConvoCore_1_1ConvoCoreLanguageManager.html" target="_top" xlink:title=" ">
<polygon fill="white" stroke="#666666" points="662,-268.77 477,-268.77 477,-238.77 662,-238.77 662,-268.77"/>
<text text-anchor="start" x="485" y="-256.77" font-family="Helvetica,sans-Serif" font-size="10.00">WolfstagInteractive.Convo</text>
<text text-anchor="middle" x="569.5" y="-245.77" font-family="Helvetica,sans-Serif" font-size="10.00">Core.ConvoCoreLanguageManager</text>
</a>
</g>
</g>
<!-- Node13&#45;&gt;Node12 -->
<g id="edge20_Node000012_Node000013" class="edge">
<title>Node13&#45;&gt;Node12</title>
<g id="a_edge20_Node000012_Node000013"><a xlink:title=" ">
<path fill="none" stroke="#9a32cd" stroke-dasharray="5,2" d="M672.57,-253.77C727.44,-253.77 794.74,-253.77 848.9,-253.77"/>
<polygon fill="#9a32cd" stroke="#9a32cd" points="672.48,-250.27 662.48,-253.77 672.48,-257.27 672.48,-250.27"/>
</a>
</g>
<text text-anchor="middle" x="755.5" y="-256.77" font-family="Helvetica,sans-Serif" font-size="10.00" fill="grey"> _convoCoreLanguageManager</text>
</g>
<!-- Node13&#45;&gt;Node13 -->
<g id="edge21_Node000013_Node000013" class="edge">
<title>Node13&#45;&gt;Node13</title>
<g id="a_edge21_Node000013_Node000013"><a xlink:title=" ">
<path fill="none" stroke="#9a32cd" stroke-dasharray="5,2" d="M541.49,-279.37C545.32,-283.75 554.66,-286.77 569.5,-286.77 594.5,-286.77 603.88,-278.18 597.62,-269.05"/>
<polygon fill="#9a32cd" stroke="#9a32cd" points="544.99,-279.01 541.38,-269.05 537.99,-279.09 544.99,-279.01"/>
</a>
</g>
<text text-anchor="middle" x="569.5" y="-289.77" font-family="Helvetica,sans-Serif" font-size="10.00" fill="grey"> _instance</text>
</g>
<!-- Node14&#45;&gt;Node13 -->
<g id="edge22_Node000013_Node000014" class="edge">
<title>Node14&#45;&gt;Node13</title>
<g id="a_edge22_Node000013_Node000014"><a xlink:title=" ">
<path fill="none" stroke="#9a32cd" stroke-dasharray="5,2" d="M320.37,-253.77C367.87,-253.77 427.69,-253.77 476.7,-253.77"/>
<polygon fill="#9a32cd" stroke="#9a32cd" points="320.12,-250.27 310.12,-253.77 320.12,-257.27 320.12,-250.27"/>
</a>
</g>
<text text-anchor="middle" x="408.5" y="-256.77" font-family="Helvetica,sans-Serif" font-size="10.00" fill="grey"> _convoCoreSettings</text>
</g>
<!-- Node14&#45;&gt;Node14 -->
<g id="edge24_Node000014_Node000014" class="edge">
<title>Node14&#45;&gt;Node14</title>
<g id="a_edge24_Node000014_Node000014"><a xlink:title=" ">
<path fill="none" stroke="#9a32cd" stroke-dasharray="5,2" d="M216,-279.37C218.87,-283.75 225.87,-286.77 237,-286.77 255.75,-286.77 262.78,-278.18 258.09,-269.05"/>
<polygon fill="#9a32cd" stroke="#9a32cd" points="219.49,-279.02 215.91,-269.05 212.49,-279.08 219.49,-279.02"/>
</a>
</g>
<text text-anchor="middle" x="237" y="-289.77" font-family="Helvetica,sans-Serif" font-size="10.00" fill="grey"> _instance</text>
</g>
<!-- Node14&#45;&gt;Node16 -->
<g id="edge28_Node000016_Node000014" class="edge">
<title>Node14&#45;&gt;Node16</title>
<g id="a_edge28_Node000016_Node000014"><a xlink:title=" ">
<path fill="none" stroke="#9a32cd" stroke-dasharray="5,2" d="M251.77,-277.79C272.71,-313.51 314.73,-382.08 358,-434.77 405.27,-492.34 419.48,-505.46 477,-552.77 498.34,-570.33 524.62,-587.75 543.54,-599.64"/>
<polygon fill="#9a32cd" stroke="#9a32cd" points="254.73,-275.92 246.67,-269.04 248.68,-279.44 254.73,-275.92"/>
</a>
</g>
<text text-anchor="middle" x="408.5" y="-539.77" font-family="Helvetica,sans-Serif" font-size="10.00" fill="grey"> convoCoreSettings</text>
</g>
<!-- Node15 -->
<g id="Node000015" class="node">
<title>Node15</title>
<g id="a_Node000015"><a xlink:href="interfaceWolfstagInteractive_1_1ConvoCore_1_1IConversationContext.html" target="_top" xlink:title="Provides optional runtime context for branch evaluation.">
<polygon fill="white" stroke="#666666" points="1021.5,-176.77 873.5,-176.77 873.5,-146.77 1021.5,-146.77 1021.5,-176.77"/>
<text text-anchor="start" x="881.5" y="-164.77" font-family="Helvetica,sans-Serif" font-size="10.00">WolfstagInteractive.Convo</text>
<text text-anchor="middle" x="947.5" y="-153.77" font-family="Helvetica,sans-Serif" font-size="10.00">Core.IConversationContext</text>
</a>
</g>
</g>
<!-- Node15&#45;&gt;Node1 -->
<g id="edge34_Node000001_Node000015" class="edge">
<title>Node15&#45;&gt;Node1</title>
<g id="a_edge34_Node000001_Node000015"><a xlink:title=" ">
<path fill="none" stroke="#9a32cd" stroke-dasharray="5,2" d="M1003.92,-143.99C1047.81,-132.5 1110.44,-121.88 1164,-134.77 1188.74,-140.73 1214.33,-154.7 1231.86,-165.69"/>
<polygon fill="#9a32cd" stroke="#9a32cd" points="1002.75,-140.69 994.02,-146.69 1004.58,-147.44 1002.75,-140.69"/>
</a>
</g>
<text text-anchor="middle" x="1114" y="-137.77" font-family="Helvetica,sans-Serif" font-size="10.00" fill="grey"> _context</text>
</g>
<!-- Node15&#45;&gt;Node10 -->
<g id="edge25_Node000010_Node000015" class="edge">
<title>Node15&#45;&gt;Node10</title>
<g id="a_edge25_Node000010_Node000015"><a xlink:title=" ">
<path fill="none" stroke="#9a32cd" stroke-dasharray="5,2" d="M995.15,-181.61C1013.6,-191.68 1033.38,-205.68 1046,-223.77 1067.59,-254.74 1037.22,-280.17 1064,-306.77 1096.22,-338.78 1125.7,-303.38 1164,-327.77 1205.29,-354.08 1234.47,-406.46 1247.06,-432.44"/>
<polygon fill="#9a32cd" stroke="#9a32cd" points="996.72,-178.48 986.23,-176.98 993.49,-184.7 996.72,-178.48"/>
</a>
</g>
<text text-anchor="middle" x="1114" y="-330.77" font-family="Helvetica,sans-Serif" font-size="10.00" fill="grey"> _context</text>
</g>
<!-- Node16&#45;&gt;Node8 -->
<g id="edge26_Node000008_Node000016" class="edge">
<title>Node16&#45;&gt;Node8</title>
<g id="a_edge26_Node000008_Node000016"><a xlink:title=" ">
<path fill="none" stroke="#9a32cd" stroke-dasharray="5,2" d="M672.24,-605.69C720.5,-600.81 778.87,-594.07 831,-585.77 846.78,-583.26 863.66,-580.05 879.51,-576.81"/>
<polygon fill="#9a32cd" stroke="#9a32cd" points="671.71,-602.22 662.1,-606.7 672.4,-609.19 671.71,-602.22"/>
</a>
</g>
<text text-anchor="middle" x="755.5" y="-606.77" font-family="Helvetica,sans-Serif" font-size="10.00" fill="grey"> ConvoCoreDialogueHistoryUI</text>
</g>
<!-- Node17 -->
<g id="Node000017" class="node">
<title>Node17</title>
<g id="a_Node000017"><a xlink:href="interfaceWolfstagInteractive_1_1ConvoCore_1_1IConvoCoreHistoryRenderer.html" target="_top" xlink:title="Base contract for any dialogue history renderer.">
<polygon fill="white" stroke="#666666" points="326,-641.77 148,-641.77 148,-611.77 326,-611.77 326,-641.77"/>
<text text-anchor="start" x="156" y="-629.77" font-family="Helvetica,sans-Serif" font-size="10.00">WolfstagInteractive.Convo</text>
<text text-anchor="middle" x="237" y="-618.77" font-family="Helvetica,sans-Serif" font-size="10.00">Core.IConvoCoreHistoryRenderer</text>
</a>
</g>
</g>
<!-- Node17&#45;&gt;Node16 -->
<g id="edge29_Node000016_Node000017" class="edge">
<title>Node17&#45;&gt;Node16</title>
<g id="a_edge29_Node000016_Node000017"><a xlink:title=" ">
<path fill="none" stroke="#9a32cd" stroke-dasharray="5,2" d="M336.39,-623.2C380.9,-621.59 433.19,-619.69 476.86,-618.1"/>
<polygon fill="#9a32cd" stroke="#9a32cd" points="336,-619.71 326.13,-623.57 336.25,-626.71 336,-619.71"/>
</a>
</g>
<text text-anchor="middle" x="408.5" y="-624.77" font-family="Helvetica,sans-Serif" font-size="10.00" fill="grey"> _renderer</text>
</g>
<!-- Node18&#45;&gt;Node16 -->
<g id="edge30_Node000016_Node000018" class="edge">
<title>Node18&#45;&gt;Node16</title>
<g id="a_edge30_Node000016_Node000018"><a xlink:title=" ">
<path fill="none" stroke="#9a32cd" stroke-dasharray="5,2" d="M338.68,-658.07C376.46,-651.65 419.74,-644.09 459,-636.77 470.72,-634.59 483.13,-632.18 495.22,-629.79"/>
<polygon fill="#9a32cd" stroke="#9a32cd" points="337.96,-654.65 328.69,-659.77 339.14,-661.55 337.96,-654.65"/>
</a>
</g>
<text text-anchor="middle" x="408.5" y="-656.77" font-family="Helvetica,sans-Serif" font-size="10.00" fill="grey"> _activeProfile</text>
</g>
</g>
</svg>
