<?xml version="1.0" encoding="UTF-8" standalone="no"?>
<!DOCTYPE svg PUBLIC "-//W3C//DTD SVG 1.1//EN"
 "http://www.w3.org/Graphics/SVG/1.1/DTD/svg11.dtd">
<!-- Generated by graphviz version 2.43.0 (0)
 -->
<!-- Title: WolfstagInteractive.ConvoCore.ConvoCoreAnimatorPresence Pages: 1 -->
<svg width="193pt" height="203pt"
 viewBox="0.00 0.00 193.00 203.00" xmlns="http://www.w3.org/2000/svg" xmlns:xlink="http://www.w3.org/1999/xlink">
<g id="graph0" class="graph" transform="scale(1 1) rotate(0) translate(4 199)">
<title>WolfstagInteractive.ConvoCore.ConvoCoreAnimatorPresence</title>
<!-- Node1 -->
<g id="Node000001" class="node">
<title>Node1</title>
<g id="a_Node000001"><a xlink:title="Presence type for scene&#45;resident characters that are driven by an Animator.">
<polygon fill="#999999" stroke="#666666" points="185,-30 0,-30 0,0 185,0 185,-30"/>
<text text-anchor="start" x="8" y="-18" font-family="Helvetica,sans-Serif" font-size="10.00">WolfstagInteractive.Convo</text>
<text text-anchor="middle" x="92.5" y="-7" font-family="Helvetica,sans-Serif" font-size="10.00">Core.ConvoCoreAnimatorPresence</text>
</a>
</g>
</g>
<!-- Node2 -->
<g id="Node000002" class="node">
<title>Node2</title>
<g id="a_Node000002"><a xlink:href="classWolfstagInteractive_1_1ConvoCore_1_1ExternalPresence.html" target="_top" xlink:title="Presence type for characters that are fully managed by the developer.">
<polygon fill="white" stroke="#666666" points="143,-85 42,-85 42,-66 143,-66 143,-85"/>
<text text-anchor="middle" x="92.5" y="-73" font-family="Helvetica,sans-Serif" font-size="10.00">ExternalPresence</text>
</a>
</g>
</g>
<!-- Node2&#45;&gt;Node1 -->
<g id="edge1_Node000001_Node000002" class="edge">
<title>Node2&#45;&gt;Node1</title>
<g id="a_edge1_Node000001_Node000002"><a xlink:title=" ">
<path fill="none" stroke="#63b8ff" d="M92.5,-55.65C92.5,-47.36 92.5,-37.78 92.5,-30.11"/>
<polygon fill="#63b8ff" stroke="#63b8ff" points="89,-55.87 92.5,-65.87 96,-55.87 89,-55.87"/>
</a>
</g>
</g>
<!-- Node3 -->
<g id="Node000003" class="node">
<title>Node3</title>
<g id="a_Node000003"><a xlink:href="classWolfstagInteractive_1_1ConvoCore_1_1ConvoCoreCharacterPresence.html" target="_top" xlink:title="Abstract ScriptableObject base for all presence types.">
<polygon fill="white" stroke="#666666" points="173,-140 12,-140 12,-121 173,-121 173,-140"/>
<text text-anchor="middle" x="92.5" y="-128" font-family="Helvetica,sans-Serif" font-size="10.00">ConvoCoreCharacterPresence</text>
</a>
</g>
</g>
<!-- Node3&#45;&gt;Node2 -->
<g id="edge2_Node000002_Node000003" class="edge">
<title>Node3&#45;&gt;Node2</title>
<g id="a_edge2_Node000002_Node000003"><a xlink:title=" ">
<path fill="none" stroke="#63b8ff" d="M92.5,-110.66C92.5,-101.93 92.5,-91.99 92.5,-85.09"/>
<polygon fill="#63b8ff" stroke="#63b8ff" points="89,-110.75 92.5,-120.75 96,-110.75 89,-110.75"/>
</a>
</g>
</g>
<!-- Node4 -->
<g id="Node000004" class="node">
<title>Node4</title>
<g id="a_Node000004"><a xlink:title=" ">
<polygon fill="white" stroke="#666666" points="141,-195 44,-195 44,-176 141,-176 141,-195"/>
<text text-anchor="middle" x="92.5" y="-183" font-family="Helvetica,sans-Serif" font-size="10.00">ScriptableObject</text>
</a>
</g>
</g>
<!-- Node4&#45;&gt;Node3 -->
<g id="edge3_Node000003_Node000004" class="edge">
<title>Node4&#45;&gt;Node3</title>
<g id="a_edge3_Node000003_Node000004"><a xlink:title=" ">
<path fill="none" stroke="#63b8ff" d="M92.5,-165.66C92.5,-156.93 92.5,-146.99 92.5,-140.09"/>
<polygon fill="#63b8ff" stroke="#63b8ff" points="89,-165.75 92.5,-175.75 96,-165.75 89,-165.75"/>
</a>
</g>
</g>
</g>
</svg>
