<?xml version="1.0" encoding="UTF-8" standalone="no"?>
<!DOCTYPE svg PUBLIC "-//W3C//DTD SVG 1.1//EN"
 "http://www.w3.org/Graphics/SVG/1.1/DTD/svg11.dtd">
<!-- Generated by graphviz version 2.43.0 (0)
 -->
<!-- Title: WolfstagInteractive.ConvoCore.CharacterRepresentationBase Pages: 1 -->
<svg width="583pt" height="86pt"
 viewBox="0.00 0.00 583.00 86.00" xmlns="http://www.w3.org/2000/svg" xmlns:xlink="http://www.w3.org/1999/xlink">
<g id="graph0" class="graph" transform="scale(1 1) rotate(0) translate(4 82)">
<title>WolfstagInteractive.ConvoCore.CharacterRepresentationBase</title>
<!-- Node1 -->
<g id="Node000001" class="node">
<title>Node1</title>
<g id="a_Node000001"><a xlink:title="Abstract ScriptableObject base class for all character visual representations.">
<polygon fill="#999999" stroke="#666666" points="321,-54 133,-54 133,-24 321,-24 321,-54"/>
<text text-anchor="start" x="141" y="-42" font-family="Helvetica,sans-Serif" font-size="10.00">WolfstagInteractive.Convo</text>
<text text-anchor="middle" x="227" y="-31" font-family="Helvetica,sans-Serif" font-size="10.00">Core.CharacterRepresentationBase</text>
</a>
</g>
</g>
<!-- Node3 -->
<g id="Node000003" class="node">
<title>Node3</title>
<g id="a_Node000003"><a xlink:href="classWolfstagInteractive_1_1ConvoCore_1_1PrefabCharacterRepresentationData.html" target="_top" xlink:title="Defines how a prefab&#45;based character is displayed in a ConvoCore conversation.">
<polygon fill="white" stroke="#666666" points="575,-78 357,-78 357,-48 575,-48 575,-78"/>
<text text-anchor="start" x="365" y="-66" font-family="Helvetica,sans-Serif" font-size="10.00">WolfstagInteractive.Convo</text>
<text text-anchor="middle" x="466" y="-55" font-family="Helvetica,sans-Serif" font-size="10.00">Core.PrefabCharacterRepresentationData</text>
</a>
</g>
</g>
<!-- Node1&#45;&gt;Node3 -->
<g id="edge2_Node000001_Node000003" class="edge">
<title>Node1&#45;&gt;Node3</title>
<g id="a_edge2_Node000001_Node000003"><a xlink:title=" ">
<path fill="none" stroke="#63b8ff" d="M331.51,-49.48C339.91,-50.33 348.41,-51.19 356.85,-52.05"/>
<polygon fill="#63b8ff" stroke="#63b8ff" points="331.63,-45.98 321.33,-48.45 330.92,-52.94 331.63,-45.98"/>
</a>
</g>
</g>
<!-- Node4 -->
<g id="Node000004" class="node">
<title>Node4</title>
<g id="a_Node000004"><a xlink:href="classWolfstagInteractive_1_1ConvoCore_1_1SpriteCharacterRepresentationData.html" target="_top" xlink:title=" ">
<polygon fill="white" stroke="#666666" points="573.5,-30 358.5,-30 358.5,0 573.5,0 573.5,-30"/>
<text text-anchor="start" x="366.5" y="-18" font-family="Helvetica,sans-Serif" font-size="10.00">WolfstagInteractive.Convo</text>
<text text-anchor="middle" x="466" y="-7" font-family="Helvetica,sans-Serif" font-size="10.00">Core.SpriteCharacterRepresentationData</text>
</a>
</g>
</g>
<!-- Node1&#45;&gt;Node4 -->
<g id="edge3_Node000001_Node000004" class="edge">
<title>Node1&#45;&gt;Node4</title>
<g id="a_edge3_Node000001_Node000004"><a xlink:title=" ">
<path fill="none" stroke="#63b8ff" d="M331.39,-28.53C340.35,-27.62 349.44,-26.7 358.43,-25.79"/>
<polygon fill="#63b8ff" stroke="#63b8ff" points="330.92,-25.06 321.33,-29.55 331.63,-32.02 330.92,-25.06"/>
</a>
</g>
</g>
<!-- Node2 -->
<g id="Node000002" class="node">
<title>Node2</title>
<g id="a_Node000002"><a xlink:title=" ">
<polygon fill="white" stroke="#666666" points="97,-48.5 0,-48.5 0,-29.5 97,-29.5 97,-48.5"/>
<text text-anchor="middle" x="48.5" y="-36.5" font-family="Helvetica,sans-Serif" font-size="10.00">ScriptableObject</text>
</a>
</g>
</g>
<!-- Node2&#45;&gt;Node1 -->
<g id="edge1_Node000001_Node000002" class="edge">
<title>Node2&#45;&gt;Node1</title>
<g id="a_edge1_Node000001_Node000002"><a xlink:title=" ">
<path fill="none" stroke="#63b8ff" d="M107.44,-39C115.66,-39 124.28,-39 132.97,-39"/>
<polygon fill="#63b8ff" stroke="#63b8ff" points="107.26,-35.5 97.26,-39 107.26,-42.5 107.26,-35.5"/>
</a>
</g>
</g>
</g>
</svg>
