<?xml version="1.0" encoding="UTF-8" standalone="no"?>
<!DOCTYPE svg PUBLIC "-//W3C//DTD SVG 1.1//EN"
 "http://www.w3.org/Graphics/SVG/1.1/DTD/svg11.dtd">
<!-- Generated by graphviz version 2.43.0 (0)
 -->
<!-- Title: WolfstagInteractive.ConvoCore.ConvoCoreUIFoundation Pages: 1 -->
<svg width="1799pt" height="444pt"
 viewBox="0.00 0.00 1799.00 444.00" xmlns="http://www.w3.org/2000/svg" xmlns:xlink="http://www.w3.org/1999/xlink">
<g id="graph0" class="graph" transform="scale(1 1) rotate(0) translate(4 440)">
<title>WolfstagInteractive.ConvoCore.ConvoCoreUIFoundation</title>
<!-- Node1 -->
<g id="Node000001" class="node">
<title>Node1</title>
<g id="a_Node000001"><a xlink:title="Used as a basis of any UI that can be assigned in the inspector that includes all the base functions ...">
<polygon fill="#999999" stroke="#666666" points="1791,-319 1631,-319 1631,-289 1791,-289 1791,-319"/>
<text text-anchor="start" x="1639" y="-307" font-family="Helvetica,sans-Serif" font-size="10.00">WolfstagInteractive.Convo</text>
<text text-anchor="middle" x="1711" y="-296" font-family="Helvetica,sans-Serif" font-size="10.00">Core.ConvoCoreUIFoundation</text>
</a>
</g>
</g>
<!-- Node2 -->
<g id="Node000002" class="node">
<title>Node2</title>
<g id="a_Node000002"><a xlink:title=" ">
<polygon fill="white" stroke="#666666" points="1076,-299.5 983,-299.5 983,-280.5 1076,-280.5 1076,-299.5"/>
<text text-anchor="middle" x="1029.5" y="-287.5" font-family="Helvetica,sans-Serif" font-size="10.00">MonoBehaviour</text>
</a>
</g>
</g>
<!-- Node2&#45;&gt;Node1 -->
<g id="edge1_Node000001_Node000002" class="edge">
<title>Node2&#45;&gt;Node1</title>
<g id="a_edge1_Node000001_Node000002"><a xlink:title=" ">
<path fill="none" stroke="#63b8ff" d="M1086.27,-291.39C1169.26,-293.44 1330.18,-297.31 1467,-300 1521.74,-301.08 1583.41,-302.09 1630.93,-302.83"/>
<polygon fill="#63b8ff" stroke="#63b8ff" points="1086.14,-287.89 1076.06,-291.14 1085.97,-294.89 1086.14,-287.89"/>
</a>
</g>
</g>
<!-- Node4 -->
<g id="Node000004" class="node">
<title>Node4</title>
<g id="a_Node000004"><a xlink:href="classWolfstagInteractive_1_1ConvoCore_1_1ConvoCore.html" target="_top" xlink:title="Main conversation runner MonoBehaviour.">
<polygon fill="white" stroke="#666666" points="1429.5,-158 1283.5,-158 1283.5,-128 1429.5,-128 1429.5,-158"/>
<text text-anchor="start" x="1291.5" y="-146" font-family="Helvetica,sans-Serif" font-size="10.00">WolfstagInteractive.Convo</text>
<text text-anchor="middle" x="1356.5" y="-135" font-family="Helvetica,sans-Serif" font-size="10.00">Core.ConvoCore</text>
</a>
</g>
</g>
<!-- Node2&#45;&gt;Node4 -->
<g id="edge4_Node000004_Node000002" class="edge">
<title>Node2&#45;&gt;Node4</title>
<g id="a_edge4_Node000004_Node000002"><a xlink:title=" ">
<path fill="none" stroke="#63b8ff" d="M1086.11,-286.34C1100.55,-283.53 1115.53,-278.81 1128,-271 1139.3,-263.92 1135,-254.53 1146,-247 1184.09,-220.93 1209.7,-247.51 1246,-219 1258.83,-208.92 1252.1,-198.16 1264,-187 1277.24,-174.58 1294.64,-165.03 1310.71,-158.05"/>
<polygon fill="#63b8ff" stroke="#63b8ff" points="1085.52,-282.89 1076.23,-288 1086.68,-289.8 1085.52,-282.89"/>
</a>
</g>
</g>
<!-- Node10 -->
<g id="Node000010" class="node">
<title>Node10</title>
<g id="a_Node000010"><a xlink:href="classWolfstagInteractive_1_1ConvoCore_1_1ConvoCoreUIFoundation.html" target="_top" xlink:title="Used as a basis of any UI that can be assigned in the inspector that includes all the base functions ...">
<polygon fill="white" stroke="#666666" points="1791,-189 1631,-189 1631,-159 1791,-159 1791,-189"/>
<text text-anchor="start" x="1639" y="-177" font-family="Helvetica,sans-Serif" font-size="10.00">WolfstagInteractive.Convo</text>
<text text-anchor="middle" x="1711" y="-166" font-family="Helvetica,sans-Serif" font-size="10.00">Core.ConvoCoreUIFoundation</text>
</a>
</g>
</g>
<!-- Node2&#45;&gt;Node10 -->
<g id="edge13_Node000010_Node000002" class="edge">
<title>Node2&#45;&gt;Node10</title>
<g id="a_edge13_Node000010_Node000002"><a xlink:title=" ">
<path fill="none" stroke="#63b8ff" d="M1086.41,-279.43C1100.03,-276.76 1114.56,-273.85 1128,-271 1180.63,-259.85 1194.96,-261 1246,-244 1254.31,-241.23 1255.7,-238.8 1264,-236 1351.85,-206.38 1375.26,-201.38 1467,-188 1521.36,-180.07 1583.17,-176.58 1630.85,-175.07"/>
<polygon fill="#63b8ff" stroke="#63b8ff" points="1085.34,-276.07 1076.2,-281.41 1086.68,-282.94 1085.34,-276.07"/>
</a>
</g>
</g>
<!-- Node11 -->
<g id="Node000011" class="node">
<title>Node11</title>
<g id="a_Node000011"><a xlink:href="classWolfstagInteractive_1_1ConvoCore_1_1ConvoCoreDialogueHistoryUI.html" target="_top" xlink:title=" ">
<polygon fill="white" stroke="#666666" points="1449,-365 1264,-365 1264,-335 1449,-335 1449,-365"/>
<text text-anchor="start" x="1272" y="-353" font-family="Helvetica,sans-Serif" font-size="10.00">WolfstagInteractive.Convo</text>
<text text-anchor="middle" x="1356.5" y="-342" font-family="Helvetica,sans-Serif" font-size="10.00">Core.ConvoCoreDialogueHistoryUI</text>
</a>
</g>
</g>
<!-- Node2&#45;&gt;Node11 -->
<g id="edge17_Node000011_Node000002" class="edge">
<title>Node2&#45;&gt;Node11</title>
<g id="a_edge17_Node000011_Node000002"><a xlink:title=" ">
<path fill="none" stroke="#63b8ff" d="M1086,-300.25C1137.65,-309.78 1215.26,-324.11 1273.94,-334.94"/>
<polygon fill="#63b8ff" stroke="#63b8ff" points="1086.5,-296.78 1076.03,-298.41 1085.23,-303.66 1086.5,-296.78"/>
</a>
</g>
</g>
<!-- Node3 -->
<g id="Node000003" class="node">
<title>Node3</title>
<g id="a_Node000003"><a xlink:href="interfaceWolfstagInteractive_1_1ConvoCore_1_1IUIFoundation.html" target="_top" xlink:title="Contract between the ConvoCore runner and a dialogue UI implementation.">
<polygon fill="white" stroke="#666666" points="1398.5,-263.5 1314.5,-263.5 1314.5,-244.5 1398.5,-244.5 1398.5,-263.5"/>
<text text-anchor="middle" x="1356.5" y="-251.5" font-family="Helvetica,sans-Serif" font-size="10.00">IUIFoundation</text>
</a>
</g>
</g>
<!-- Node3&#45;&gt;Node1 -->
<g id="edge2_Node000001_Node000003" class="edge">
<title>Node3&#45;&gt;Node1</title>
<g id="a_edge2_Node000001_Node000003"><a xlink:title=" ">
<path fill="none" stroke="#63b8ff" d="M1405.97,-265.82C1424.92,-270.12 1446.89,-274.73 1467,-278 1521.44,-286.85 1583.25,-293.42 1630.91,-297.74"/>
<polygon fill="#63b8ff" stroke="#63b8ff" points="1406.6,-262.37 1396.07,-263.53 1405.03,-269.19 1406.6,-262.37"/>
</a>
</g>
</g>
<!-- Node3&#45;&gt;Node10 -->
<g id="edge14_Node000010_Node000003" class="edge">
<title>Node3&#45;&gt;Node10</title>
<g id="a_edge14_Node000010_Node000003"><a xlink:title=" ">
<path fill="none" stroke="#63b8ff" d="M1388.64,-240.44C1410.27,-231.5 1439.94,-220.16 1467,-213 1520.9,-198.74 1583,-188.88 1630.92,-182.64"/>
<polygon fill="#63b8ff" stroke="#63b8ff" points="1387.18,-237.26 1379.31,-244.36 1389.89,-243.72 1387.18,-237.26"/>
</a>
</g>
</g>
<!-- Node4&#45;&gt;Node1 -->
<g id="edge3_Node000001_Node000004" class="edge">
<title>Node4&#45;&gt;Node1</title>
<g id="a_edge3_Node000001_Node000004"><a xlink:title=" ">
<path fill="none" stroke="#9a32cd" stroke-dasharray="5,2" d="M1375.35,-166.22C1395.03,-189.98 1428.98,-225.92 1467,-244 1526.2,-272.16 1549.69,-247.98 1613,-265 1635.26,-270.98 1659.31,-280.63 1677.89,-288.83"/>
<polygon fill="#9a32cd" stroke="#9a32cd" points="1378.01,-163.95 1369,-158.37 1372.57,-168.35 1378.01,-163.95"/>
</a>
</g>
<text text-anchor="middle" x="1540" y="-268" font-family="Helvetica,sans-Serif" font-size="10.00" fill="grey"> ConvoCoreInstance</text>
</g>
<!-- Node4&#45;&gt;Node10 -->
<g id="edge15_Node000010_Node000004" class="edge">
<title>Node4&#45;&gt;Node10</title>
<g id="a_edge15_Node000010_Node000004"><a xlink:title=" ">
<path fill="none" stroke="#9a32cd" stroke-dasharray="5,2" d="M1439.88,-140.18C1490.13,-139.63 1555.54,-141.03 1613,-149 1628.68,-151.17 1645.46,-154.96 1660.59,-158.94"/>
<polygon fill="#9a32cd" stroke="#9a32cd" points="1439.67,-136.68 1429.71,-140.32 1439.76,-143.68 1439.67,-136.68"/>
</a>
</g>
<text text-anchor="middle" x="1540" y="-152" font-family="Helvetica,sans-Serif" font-size="10.00" fill="grey"> ConvoCoreInstance</text>
</g>
<!-- Node5 -->
<g id="Node000005" class="node">
<title>Node5</title>
<g id="a_Node000005"><a xlink:href="interfaceWolfstagInteractive_1_1ConvoCore_1_1IConvoCoreRunner.html" target="_top" xlink:title="Minimal interface implemented by ConvoCore.">
<polygon fill="white" stroke="#666666" points="1083,-105.5 976,-105.5 976,-86.5 1083,-86.5 1083,-105.5"/>
<text text-anchor="middle" x="1029.5" y="-93.5" font-family="Helvetica,sans-Serif" font-size="10.00">IConvoCoreRunner</text>
</a>
</g>
</g>
<!-- Node5&#45;&gt;Node4 -->
<g id="edge5_Node000004_Node000005" class="edge">
<title>Node5&#45;&gt;Node4</title>
<g id="a_edge5_Node000004_Node000005"><a xlink:title=" ">
<path fill="none" stroke="#63b8ff" d="M1093.28,-105.08C1147.65,-112.94 1226.32,-124.32 1283.29,-132.56"/>
<polygon fill="#63b8ff" stroke="#63b8ff" points="1093.48,-101.57 1083.08,-103.6 1092.47,-108.5 1093.48,-101.57"/>
</a>
</g>
</g>
<!-- Node6 -->
<g id="Node000006" class="node">
<title>Node6</title>
<g id="a_Node000006"><a xlink:href="classWolfstagInteractive_1_1ConvoCore_1_1ConvoCoreConversationData.html" target="_top" xlink:title=" ">
<polygon fill="white" stroke="#666666" points="317,-221 134,-221 134,-191 317,-191 317,-221"/>
<text text-anchor="start" x="142" y="-209" font-family="Helvetica,sans-Serif" font-size="10.00">WolfstagInteractive.Convo</text>
<text text-anchor="middle" x="225.5" y="-198" font-family="Helvetica,sans-Serif" font-size="10.00">Core.ConvoCoreConversationData</text>
</a>
</g>
</g>
<!-- Node6&#45;&gt;Node4 -->
<g id="edge6_Node000004_Node000006" class="edge">
<title>Node6&#45;&gt;Node4</title>
<g id="a_edge6_Node000004_Node000006"><a xlink:title=" ">
<path fill="none" stroke="#9a32cd" stroke-dasharray="5,2" d="M281.15,-187.89C421.56,-143.62 806.48,-36.47 1128,-78 1195.83,-86.76 1271.66,-111.62 1316.39,-127.93"/>
<polygon fill="#9a32cd" stroke="#9a32cd" points="279.94,-184.6 271.47,-190.97 282.06,-191.28 279.94,-184.6"/>
</a>
</g>
<text text-anchor="middle" x="837.5" y="-84" font-family="Helvetica,sans-Serif" font-size="10.00" fill="grey"> ConversationData</text>
</g>
<!-- Node8 -->
<g id="Node000008" class="node">
<title>Node8</title>
<g id="a_Node000008"><a xlink:href="classWolfstagInteractive_1_1ConvoCore_1_1ConvoCoreAudioManifest.html" target="_top" xlink:title="Maps dialogue line IDs to audio clips or middleware references, supporting Unity AudioSource,...">
<polygon fill="white" stroke="#666666" points="734.5,-206 568.5,-206 568.5,-176 734.5,-176 734.5,-206"/>
<text text-anchor="start" x="576.5" y="-194" font-family="Helvetica,sans-Serif" font-size="10.00">WolfstagInteractive.Convo</text>
<text text-anchor="middle" x="651.5" y="-183" font-family="Helvetica,sans-Serif" font-size="10.00">Core.ConvoCoreAudioManifest</text>
</a>
</g>
</g>
<!-- Node6&#45;&gt;Node8 -->
<g id="edge10_Node000008_Node000006" class="edge">
<title>Node6&#45;&gt;Node8</title>
<g id="a_edge10_Node000008_Node000006"><a xlink:title=" ">
<path fill="none" stroke="#9a32cd" stroke-dasharray="5,2" d="M327.21,-207.59C388.97,-207.93 469.62,-207.24 541,-203 549.88,-202.47 559.14,-201.74 568.36,-200.9"/>
<polygon fill="#9a32cd" stroke="#9a32cd" points="327.1,-204.09 317.07,-207.52 327.05,-211.09 327.1,-204.09"/>
</a>
</g>
<text text-anchor="middle" x="438" y="-210" font-family="Helvetica,sans-Serif" font-size="10.00" fill="grey"> SourceConversation</text>
</g>
<!-- Node7 -->
<g id="Node000007" class="node">
<title>Node7</title>
<g id="a_Node000007"><a xlink:title=" ">
<polygon fill="white" stroke="#666666" points="97,-247.5 0,-247.5 0,-228.5 97,-228.5 97,-247.5"/>
<text text-anchor="middle" x="48.5" y="-235.5" font-family="Helvetica,sans-Serif" font-size="10.00">ScriptableObject</text>
</a>
</g>
</g>
<!-- Node7&#45;&gt;Node6 -->
<g id="edge7_Node000006_Node000007" class="edge">
<title>Node7&#45;&gt;Node6</title>
<g id="a_edge7_Node000006_Node000007"><a xlink:title=" ">
<path fill="none" stroke="#63b8ff" d="M107.4,-227.41C118.62,-225.36 130.58,-223.17 142.41,-221.01"/>
<polygon fill="#63b8ff" stroke="#63b8ff" points="106.53,-224.01 97.32,-229.26 107.79,-230.9 106.53,-224.01"/>
</a>
</g>
</g>
<!-- Node7&#45;&gt;Node8 -->
<g id="edge9_Node000008_Node000007" class="edge">
<title>Node7&#45;&gt;Node8</title>
<g id="a_edge9_Node000008_Node000007"><a xlink:title=" ">
<path fill="none" stroke="#63b8ff" d="M67.46,-221.49C83.54,-207.91 108.46,-189.7 134,-182 286.21,-136.14 475.25,-158.1 577.15,-175.95"/>
<polygon fill="#63b8ff" stroke="#63b8ff" points="65.13,-218.88 59.9,-228.09 69.73,-224.15 65.13,-218.88"/>
</a>
</g>
</g>
<!-- Node12 -->
<g id="Node000012" class="node">
<title>Node12</title>
<g id="a_Node000012"><a xlink:href="classWolfstagInteractive_1_1ConvoCore_1_1ConvoCoreSettings.html" target="_top" xlink:title="Global runtime settings ScriptableObject for ConvoCore.">
<polygon fill="white" stroke="#666666" points="298.5,-274 152.5,-274 152.5,-244 298.5,-244 298.5,-274"/>
<text text-anchor="start" x="160.5" y="-262" font-family="Helvetica,sans-Serif" font-size="10.00">WolfstagInteractive.Convo</text>
<text text-anchor="middle" x="225.5" y="-251" font-family="Helvetica,sans-Serif" font-size="10.00">Core.ConvoCoreSettings</text>
</a>
</g>
</g>
<!-- Node7&#45;&gt;Node12 -->
<g id="edge19_Node000012_Node000007" class="edge">
<title>Node7&#45;&gt;Node12</title>
<g id="a_edge19_Node000012_Node000007"><a xlink:title=" ">
<path fill="none" stroke="#63b8ff" d="M107.55,-244.97C121.92,-246.69 137.49,-248.56 152.44,-250.35"/>
<polygon fill="#63b8ff" stroke="#63b8ff" points="107.67,-241.45 97.32,-243.74 106.83,-248.4 107.67,-241.45"/>
</a>
</g>
</g>
<!-- Node14 -->
<g id="Node000014" class="node">
<title>Node14</title>
<g id="a_Node000014"><a xlink:href="classWolfstagInteractive_1_1ConvoCore_1_1ConvoCoreHistoryRendererProfile.html" target="_top" xlink:title=" ">
<polygon fill="white" stroke="#666666" points="541,-425 335,-425 335,-395 541,-395 541,-425"/>
<text text-anchor="start" x="343" y="-413" font-family="Helvetica,sans-Serif" font-size="10.00">WolfstagInteractive.Convo</text>
<text text-anchor="middle" x="438" y="-402" font-family="Helvetica,sans-Serif" font-size="10.00">Core.ConvoCoreHistoryRendererProfile</text>
</a>
</g>
</g>
<!-- Node7&#45;&gt;Node14 -->
<g id="edge23_Node000014_Node000007" class="edge">
<title>Node7&#45;&gt;Node14</title>
<g id="a_edge23_Node000014_Node000007"><a xlink:title=" ">
<path fill="none" stroke="#63b8ff" d="M65.55,-255.17C81.6,-271.55 107.63,-296.02 134,-312 215.96,-361.65 242.96,-363.34 335,-390 341.07,-391.76 347.38,-393.41 353.76,-394.95"/>
<polygon fill="#63b8ff" stroke="#63b8ff" points="67.96,-252.64 58.51,-247.86 62.92,-257.49 67.96,-252.64"/>
</a>
</g>
</g>
<!-- Node8&#45;&gt;Node6 -->
<g id="edge8_Node000006_Node000008" class="edge">
<title>Node8&#45;&gt;Node6</title>
<g id="a_edge8_Node000006_Node000008"><a xlink:title=" ">
<path fill="none" stroke="#9a32cd" stroke-dasharray="5,2" d="M558.06,-188.25C495.12,-187.13 409.94,-187.07 335,-192 329.22,-192.38 323.28,-192.87 317.29,-193.43"/>
<polygon fill="#9a32cd" stroke="#9a32cd" points="558.3,-191.76 568.36,-188.45 558.43,-184.76 558.3,-191.76"/>
</a>
</g>
<text text-anchor="middle" x="438" y="-195" font-family="Helvetica,sans-Serif" font-size="10.00" fill="grey"> AudioManifest</text>
</g>
<!-- Node9 -->
<g id="Node000009" class="node">
<title>Node9</title>
<g id="a_Node000009"><a xlink:href="interfaceWolfstagInteractive_1_1ConvoCore_1_1IConvoInput.html" target="_top" xlink:title="Input strategy interface.">
<polygon fill="white" stroke="#666666" points="1102.5,-30 956.5,-30 956.5,0 1102.5,0 1102.5,-30"/>
<text text-anchor="start" x="964.5" y="-18" font-family="Helvetica,sans-Serif" font-size="10.00">WolfstagInteractive.Convo</text>
<text text-anchor="middle" x="1029.5" y="-7" font-family="Helvetica,sans-Serif" font-size="10.00">Core.IConvoInput</text>
</a>
</g>
</g>
<!-- Node9&#45;&gt;Node4 -->
<g id="edge11_Node000004_Node000009" class="edge">
<title>Node9&#45;&gt;Node4</title>
<g id="a_edge11_Node000004_Node000009"><a xlink:title=" ">
<path fill="none" stroke="#9a32cd" stroke-dasharray="5,2" d="M1112.7,-8.75C1154.4,-8.76 1204.81,-13.83 1246,-33 1291.69,-54.26 1329.06,-103.15 1345.88,-127.97"/>
<polygon fill="#9a32cd" stroke="#9a32cd" points="1112.54,-5.25 1102.57,-8.84 1112.6,-12.25 1112.54,-5.25"/>
</a>
</g>
<text text-anchor="middle" x="1196" y="-36" font-family="Helvetica,sans-Serif" font-size="10.00" fill="grey"> Input</text>
</g>
<!-- Node10&#45;&gt;Node4 -->
<g id="edge12_Node000004_Node000010" class="edge">
<title>Node10&#45;&gt;Node4</title>
<g id="a_edge12_Node000004_Node000010"><a xlink:title=" ">
<path fill="none" stroke="#9a32cd" stroke-dasharray="5,2" d="M1684.17,-152.85C1665.62,-139.09 1639.33,-122.38 1613,-115 1541.24,-94.89 1454.38,-112.93 1402.65,-127.91"/>
<polygon fill="#9a32cd" stroke="#9a32cd" points="1682.05,-155.64 1692.12,-158.92 1686.29,-150.07 1682.05,-155.64"/>
</a>
</g>
<text text-anchor="middle" x="1540" y="-118" font-family="Helvetica,sans-Serif" font-size="10.00" fill="grey"> ConversationUI</text>
</g>
<!-- Node11&#45;&gt;Node1 -->
<g id="edge30_Node000001_Node000011" class="edge">
<title>Node11&#45;&gt;Node1</title>
<g id="a_edge30_Node000001_Node000011"><a xlink:title=" ">
<path fill="none" stroke="#9a32cd" stroke-dasharray="5,2" d="M1459.46,-344.89C1506.43,-341.6 1562.77,-336.32 1613,-328 1626.95,-325.69 1641.85,-322.42 1655.68,-319.03"/>
<polygon fill="#9a32cd" stroke="#9a32cd" points="1459.02,-341.41 1449.28,-345.59 1459.5,-348.4 1459.02,-341.41"/>
</a>
</g>
<text text-anchor="middle" x="1540" y="-347" font-family="Helvetica,sans-Serif" font-size="10.00" fill="grey"> ConvoCoreDialogueHistoryUI</text>
</g>
<!-- Node11&#45;&gt;Node10 -->
<g id="edge16_Node000010_Node000011" class="edge">
<title>Node11&#45;&gt;Node10</title>
<g id="a_edge16_Node000010_Node000011"><a xlink:title=" ">
<path fill="none" stroke="#9a32cd" stroke-dasharray="5,2" d="M1389.44,-328.93C1408.71,-314.92 1432.63,-295.08 1449,-273 1461.1,-256.69 1450.89,-243.36 1467,-231 1519.01,-191.1 1549.47,-226.16 1613,-210 1634.06,-204.64 1656.89,-196.31 1675.1,-189"/>
<polygon fill="#9a32cd" stroke="#9a32cd" points="1387.36,-326.11 1381.23,-334.75 1391.41,-331.82 1387.36,-326.11"/>
</a>
</g>
<text text-anchor="middle" x="1540" y="-234" font-family="Helvetica,sans-Serif" font-size="10.00" fill="grey"> ConvoCoreDialogueHistoryUI</text>
</g>
<!-- Node12&#45;&gt;Node11 -->
<g id="edge18_Node000011_Node000012" class="edge">
<title>Node12&#45;&gt;Node11</title>
<g id="a_edge18_Node000011_Node000012"><a xlink:title=" ">
<path fill="none" stroke="#9a32cd" stroke-dasharray="5,2" d="M308.65,-273.94C439.72,-296.97 704.45,-340.26 931,-357 1026.3,-364.04 1050.44,-358.56 1146,-359 1190.44,-359.21 1201.59,-360.82 1246,-359 1251.81,-358.76 1257.79,-358.45 1263.82,-358.09"/>
<polygon fill="#9a32cd" stroke="#9a32cd" points="309.14,-270.47 298.68,-272.18 307.92,-277.36 309.14,-270.47"/>
</a>
</g>
<text text-anchor="middle" x="837.5" y="-358" font-family="Helvetica,sans-Serif" font-size="10.00" fill="grey"> convoCoreSettings</text>
</g>
<!-- Node12&#45;&gt;Node12 -->
<g id="edge20_Node000012_Node000012" class="edge">
<title>Node12&#45;&gt;Node12</title>
<g id="a_edge20_Node000012_Node000012"><a xlink:title=" ">
<path fill="none" stroke="#9a32cd" stroke-dasharray="5,2" d="M206.25,-284.6C208.88,-288.97 215.29,-292 225.5,-292 242.69,-292 249.13,-283.41 244.84,-274.28"/>
<polygon fill="#9a32cd" stroke="#9a32cd" points="209.74,-284.25 206.16,-274.28 202.74,-284.3 209.74,-284.25"/>
</a>
</g>
<text text-anchor="middle" x="225.5" y="-295" font-family="Helvetica,sans-Serif" font-size="10.00" fill="grey"> _instance</text>
</g>
<!-- Node17 -->
<g id="Node000017" class="node">
<title>Node17</title>
<g id="a_Node000017"><a xlink:href="classWolfstagInteractive_1_1ConvoCore_1_1ConvoCoreLanguageManager.html" target="_top" xlink:title=" ">
<polygon fill="white" stroke="#666666" points="744,-264 559,-264 559,-234 744,-234 744,-264"/>
<text text-anchor="start" x="567" y="-252" font-family="Helvetica,sans-Serif" font-size="10.00">WolfstagInteractive.Convo</text>
<text text-anchor="middle" x="651.5" y="-241" font-family="Helvetica,sans-Serif" font-size="10.00">Core.ConvoCoreLanguageManager</text>
</a>
</g>
</g>
<!-- Node12&#45;&gt;Node17 -->
<g id="edge28_Node000017_Node000012" class="edge">
<title>Node12&#45;&gt;Node17</title>
<g id="a_edge28_Node000017_Node000012"><a xlink:title=" ">
<path fill="none" stroke="#9a32cd" stroke-dasharray="5,2" d="M309.25,-257.05C380.95,-255.36 484.56,-252.91 558.78,-251.16"/>
<polygon fill="#9a32cd" stroke="#9a32cd" points="308.82,-253.56 298.91,-257.29 308.99,-260.56 308.82,-253.56"/>
</a>
</g>
<text text-anchor="middle" x="438" y="-259" font-family="Helvetica,sans-Serif" font-size="10.00" fill="grey"> _convoCoreSettings</text>
</g>
<!-- Node13 -->
<g id="Node000013" class="node">
<title>Node13</title>
<g id="a_Node000013"><a xlink:href="interfaceWolfstagInteractive_1_1ConvoCore_1_1IConvoCoreHistoryRenderer.html" target="_top" xlink:title="Base contract for any dialogue history renderer.">
<polygon fill="white" stroke="#666666" points="1118.5,-348 940.5,-348 940.5,-318 1118.5,-318 1118.5,-348"/>
<text text-anchor="start" x="948.5" y="-336" font-family="Helvetica,sans-Serif" font-size="10.00">WolfstagInteractive.Convo</text>
<text text-anchor="middle" x="1029.5" y="-325" font-family="Helvetica,sans-Serif" font-size="10.00">Core.IConvoCoreHistoryRenderer</text>
</a>
</g>
</g>
<!-- Node13&#45;&gt;Node11 -->
<g id="edge21_Node000011_Node000013" class="edge">
<title>Node13&#45;&gt;Node11</title>
<g id="a_edge21_Node000011_Node000013"><a xlink:title=" ">
<path fill="none" stroke="#9a32cd" stroke-dasharray="5,2" d="M1129.03,-338.15C1171.85,-340.39 1221.71,-343 1263.74,-345.2"/>
<polygon fill="#9a32cd" stroke="#9a32cd" points="1129.05,-334.65 1118.88,-337.62 1128.68,-341.64 1129.05,-334.65"/>
</a>
</g>
<text text-anchor="middle" x="1196" y="-347" font-family="Helvetica,sans-Serif" font-size="10.00" fill="grey"> _renderer</text>
</g>
<!-- Node14&#45;&gt;Node11 -->
<g id="edge22_Node000011_Node000014" class="edge">
<title>Node14&#45;&gt;Node11</title>
<g id="a_edge22_Node000011_Node000014"><a xlink:title=" ">
<path fill="none" stroke="#9a32cd" stroke-dasharray="5,2" d="M551.22,-418.6C708.22,-428.06 1001.63,-436.37 1246,-390 1272.65,-384.94 1301.4,-374.22 1322.75,-365.15"/>
<polygon fill="#9a32cd" stroke="#9a32cd" points="551.28,-415.09 541.08,-417.97 550.85,-422.08 551.28,-415.09"/>
</a>
</g>
<text text-anchor="middle" x="837.5" y="-428" font-family="Helvetica,sans-Serif" font-size="10.00" fill="grey"> _activeProfile</text>
</g>
<!-- Node15 -->
<g id="Node000015" class="node">
<title>Node15</title>
<g id="a_Node000015"><a xlink:href="interfaceWolfstagInteractive_1_1ConvoCore_1_1IConvoAudioProvider.html" target="_top" xlink:title="Interface for audio playback backends.">
<polygon fill="white" stroke="#666666" points="1102.5,-262 956.5,-262 956.5,-232 1102.5,-232 1102.5,-262"/>
<text text-anchor="start" x="964.5" y="-250" font-family="Helvetica,sans-Serif" font-size="10.00">WolfstagInteractive.Convo</text>
<text text-anchor="middle" x="1029.5" y="-239" font-family="Helvetica,sans-Serif" font-size="10.00">Core.IConvoAudioProvider</text>
</a>
</g>
</g>
<!-- Node15&#45;&gt;Node4 -->
<g id="edge24_Node000004_Node000015" class="edge">
<title>Node15&#45;&gt;Node4</title>
<g id="a_edge24_Node000004_Node000015"><a xlink:title=" ">
<path fill="none" stroke="#9a32cd" stroke-dasharray="5,2" d="M1112.44,-229.79C1117.81,-227.76 1123.04,-225.51 1128,-223 1137.29,-218.3 1136.67,-212.63 1146,-208 1186.86,-187.74 1202.38,-198.31 1246,-185 1271.12,-177.33 1298.73,-166.73 1319.94,-158.09"/>
<polygon fill="#9a32cd" stroke="#9a32cd" points="1110.96,-226.6 1102.67,-233.19 1113.26,-233.21 1110.96,-226.6"/>
</a>
</g>
<text text-anchor="middle" x="1196" y="-211" font-family="Helvetica,sans-Serif" font-size="10.00" fill="grey"> _audioProvider</text>
</g>
<!-- Node16 -->
<g id="Node000016" class="node">
<title>Node16</title>
<g id="a_Node000016"><a xlink:href="classWolfstagInteractive_1_1ConvoCore_1_1ConvoCoreDialogueLocalizationHandler.html" target="_top" xlink:title=" ">
<polygon fill="white" stroke="#666666" points="1128,-213.5 931,-213.5 931,-172.5 1128,-172.5 1128,-213.5"/>
<text text-anchor="start" x="939" y="-201.5" font-family="Helvetica,sans-Serif" font-size="10.00">WolfstagInteractive.Convo</text>
<text text-anchor="start" x="939" y="-190.5" font-family="Helvetica,sans-Serif" font-size="10.00">Core.ConvoCoreDialogueLocalization</text>
<text text-anchor="middle" x="1029.5" y="-179.5" font-family="Helvetica,sans-Serif" font-size="10.00">Handler</text>
</a>
</g>
</g>
<!-- Node16&#45;&gt;Node4 -->
<g id="edge25_Node000004_Node000016" class="edge">
<title>Node16&#45;&gt;Node4</title>
<g id="a_edge25_Node000004_Node000016"><a xlink:title=" ">
<path fill="none" stroke="#9a32cd" stroke-dasharray="5,2" d="M1138.27,-175.21C1140.87,-174.8 1143.45,-174.4 1146,-174 1191.59,-166.88 1242.83,-159.29 1283.22,-153.4"/>
<polygon fill="#9a32cd" stroke="#9a32cd" points="1137.48,-171.8 1128.15,-176.82 1138.58,-178.71 1137.48,-171.8"/>
</a>
</g>
<text text-anchor="middle" x="1196" y="-177" font-family="Helvetica,sans-Serif" font-size="10.00" fill="grey"> LocalizationHandler</text>
</g>
<!-- Node17&#45;&gt;Node16 -->
<g id="edge26_Node000016_Node000017" class="edge">
<title>Node17&#45;&gt;Node16</title>
<g id="a_edge26_Node000016_Node000017"><a xlink:title=" ">
<path fill="none" stroke="#9a32cd" stroke-dasharray="5,2" d="M754.57,-233.8C809.44,-225.63 876.74,-215.6 930.9,-207.54"/>
<polygon fill="#9a32cd" stroke="#9a32cd" points="753.86,-230.37 744.48,-235.3 754.89,-237.29 753.86,-230.37"/>
</a>
</g>
<text text-anchor="middle" x="837.5" y="-235" font-family="Helvetica,sans-Serif" font-size="10.00" fill="grey"> _convoCoreLanguageManager</text>
</g>
<!-- Node17&#45;&gt;Node17 -->
<g id="edge27_Node000017_Node000017" class="edge">
<title>Node17&#45;&gt;Node17</title>
<g id="a_edge27_Node000017_Node000017"><a xlink:title=" ">
<path fill="none" stroke="#9a32cd" stroke-dasharray="5,2" d="M618.94,-274.6C623.39,-278.97 634.24,-282 651.5,-282 680.56,-282 691.46,-273.41 684.2,-264.28"/>
<polygon fill="#9a32cd" stroke="#9a32cd" points="622.44,-274.23 618.8,-264.28 615.44,-274.32 622.44,-274.23"/>
</a>
</g>
<text text-anchor="middle" x="651.5" y="-285" font-family="Helvetica,sans-Serif" font-size="10.00" fill="grey"> _instance</text>
</g>
<!-- Node18 -->
<g id="Node000018" class="node">
<title>Node18</title>
<g id="a_Node000018"><a xlink:href="interfaceWolfstagInteractive_1_1ConvoCore_1_1IConversationContext.html" target="_top" xlink:title="Provides optional runtime context for branch evaluation.">
<polygon fill="white" stroke="#666666" points="1103.5,-154 955.5,-154 955.5,-124 1103.5,-124 1103.5,-154"/>
<text text-anchor="start" x="963.5" y="-142" font-family="Helvetica,sans-Serif" font-size="10.00">WolfstagInteractive.Convo</text>
<text text-anchor="middle" x="1029.5" y="-131" font-family="Helvetica,sans-Serif" font-size="10.00">Core.IConversationContext</text>
</a>
</g>
</g>
<!-- Node18&#45;&gt;Node4 -->
<g id="edge29_Node000004_Node000018" class="edge">
<title>Node18&#45;&gt;Node4</title>
<g id="a_edge29_Node000004_Node000018"><a xlink:title=" ">
<path fill="none" stroke="#9a32cd" stroke-dasharray="5,2" d="M1114.04,-138.95C1153.98,-139.03 1202.47,-139.3 1246,-140 1258.07,-140.19 1270.9,-140.48 1283.35,-140.79"/>
<polygon fill="#9a32cd" stroke="#9a32cd" points="1113.82,-135.45 1103.82,-138.93 1113.81,-142.45 1113.82,-135.45"/>
</a>
</g>
<text text-anchor="middle" x="1196" y="-143" font-family="Helvetica,sans-Serif" font-size="10.00" fill="grey"> _context</text>
</g>
</g>
</svg>
