<?xml version="1.0" encoding="UTF-8" standalone="no"?>
<!DOCTYPE svg PUBLIC "-//W3C//DTD SVG 1.1//EN"
 "http://www.w3.org/Graphics/SVG/1.1/DTD/svg11.dtd">
<!-- Generated by graphviz version 2.43.0 (0)
 -->
<!-- Title: WolfstagInteractive.ConvoCore.SaveSystem.ConvoCoreConversationSaveManager Pages: 1 -->
<svg width="1949pt" height="628pt"
 viewBox="0.00 0.00 1949.00 627.88" xmlns="http://www.w3.org/2000/svg" xmlns:xlink="http://www.w3.org/1999/xlink">
<g id="graph0" class="graph" transform="scale(1 1) rotate(0) translate(4 623.88)">
<title>WolfstagInteractive.ConvoCore.SaveSystem.ConvoCoreConversationSaveManager</title>
<!-- Node1 -->
<g id="Node000001" class="node">
<title>Node1</title>
<g id="a_Node000001"><a xlink:title="Attach alongside a ConvoCore component to persist and restore conversation state (active line,...">
<polygon fill="#999999" stroke="#666666" points="1941,-453.5 1717,-453.5 1717,-412.5 1941,-412.5 1941,-453.5"/>
<text text-anchor="start" x="1725" y="-441.5" font-family="Helvetica,sans-Serif" font-size="10.00">WolfstagInteractive.Convo</text>
<text text-anchor="start" x="1725" y="-430.5" font-family="Helvetica,sans-Serif" font-size="10.00">Core.SaveSystem.ConvoCoreConversation</text>
<text text-anchor="middle" x="1829" y="-419.5" font-family="Helvetica,sans-Serif" font-size="10.00">SaveManager</text>
</a>
</g>
</g>
<!-- Node2 -->
<g id="Node000002" class="node">
<title>Node2</title>
<g id="a_Node000002"><a xlink:title=" ">
<polygon fill="white" stroke="#666666" points="1141,-183.5 1048,-183.5 1048,-164.5 1141,-164.5 1141,-183.5"/>
<text text-anchor="middle" x="1094.5" y="-171.5" font-family="Helvetica,sans-Serif" font-size="10.00">MonoBehaviour</text>
</a>
</g>
</g>
<!-- Node2&#45;&gt;Node1 -->
<g id="edge1_Node000001_Node000002" class="edge">
<title>Node2&#45;&gt;Node1</title>
<g id="a_edge1_Node000001_Node000002"><a xlink:title=" ">
<path fill="none" stroke="#63b8ff" d="M1151.46,-167.63C1284.96,-153.69 1617.08,-126.92 1699,-195 1715.25,-208.5 1707.73,-220.01 1717,-239 1748.74,-304.04 1793.14,-377.28 1814.92,-412.25"/>
<polygon fill="#63b8ff" stroke="#63b8ff" points="1151.02,-164.15 1141.44,-168.69 1151.75,-171.11 1151.02,-164.15"/>
</a>
</g>
</g>
<!-- Node11 -->
<g id="Node000011" class="node">
<title>Node11</title>
<g id="a_Node000011"><a xlink:href="classWolfstagInteractive_1_1ConvoCore_1_1ConvoCore.html" target="_top" xlink:title=" ">
<polygon fill="white" stroke="#666666" points="1502.5,-321 1356.5,-321 1356.5,-291 1502.5,-291 1502.5,-321"/>
<text text-anchor="start" x="1364.5" y="-309" font-family="Helvetica,sans-Serif" font-size="10.00">WolfstagInteractive.Convo</text>
<text text-anchor="middle" x="1429.5" y="-298" font-family="Helvetica,sans-Serif" font-size="10.00">Core.ConvoCore</text>
</a>
</g>
</g>
<!-- Node2&#45;&gt;Node11 -->
<g id="edge16_Node000011_Node000002" class="edge">
<title>Node2&#45;&gt;Node11</title>
<g id="a_edge16_Node000011_Node000002"><a xlink:title=" ">
<path fill="none" stroke="#63b8ff" d="M1151.12,-182.14C1165.19,-185.38 1180,-189.85 1193,-196 1202.16,-200.33 1201.95,-205.44 1211,-210 1252.21,-230.78 1270.14,-216.53 1311,-238 1320.22,-242.84 1320.36,-247.19 1329,-253 1350.44,-267.42 1376.22,-281.06 1396.17,-290.89"/>
<polygon fill="#63b8ff" stroke="#63b8ff" points="1151.54,-178.66 1141.03,-180 1150.09,-185.5 1151.54,-178.66"/>
</a>
</g>
</g>
<!-- Node14 -->
<g id="Node000014" class="node">
<title>Node14</title>
<g id="a_Node000014"><a xlink:href="classWolfstagInteractive_1_1ConvoCore_1_1ConvoCoreUIFoundation.html" target="_top" xlink:title="Used as a basis of any UI that can be assigned in the inspector that includes all the base functions ...">
<polygon fill="white" stroke="#666666" points="1909,-230 1749,-230 1749,-200 1909,-200 1909,-230"/>
<text text-anchor="start" x="1757" y="-218" font-family="Helvetica,sans-Serif" font-size="10.00">WolfstagInteractive.Convo</text>
<text text-anchor="middle" x="1829" y="-207" font-family="Helvetica,sans-Serif" font-size="10.00">Core.ConvoCoreUIFoundation</text>
</a>
</g>
</g>
<!-- Node2&#45;&gt;Node14 -->
<g id="edge21_Node000014_Node000002" class="edge">
<title>Node2&#45;&gt;Node14</title>
<g id="a_edge21_Node000014_Node000002"><a xlink:title=" ">
<path fill="none" stroke="#63b8ff" d="M1150.97,-181.05C1194.89,-187.35 1257.53,-197.92 1311,-213 1319.26,-215.33 1320.57,-218.4 1329,-220 1424.62,-238.17 1450.67,-220.78 1548,-221 1615.11,-221.15 1631.91,-222.56 1699,-221 1715.14,-220.62 1732.4,-219.99 1748.88,-219.26"/>
<polygon fill="#63b8ff" stroke="#63b8ff" points="1151.45,-177.58 1141.06,-179.66 1150.48,-184.52 1151.45,-177.58"/>
</a>
</g>
</g>
<!-- Node16 -->
<g id="Node000016" class="node">
<title>Node16</title>
<g id="a_Node000016"><a xlink:href="classWolfstagInteractive_1_1ConvoCore_1_1ConvoCorePrefabRepresentationSpawner.html" target="_top" xlink:title=" ">
<polygon fill="white" stroke="#666666" points="1530,-210.5 1329,-210.5 1329,-169.5 1530,-169.5 1530,-210.5"/>
<text text-anchor="start" x="1337" y="-198.5" font-family="Helvetica,sans-Serif" font-size="10.00">WolfstagInteractive.Convo</text>
<text text-anchor="start" x="1337" y="-187.5" font-family="Helvetica,sans-Serif" font-size="10.00">Core.ConvoCorePrefabRepresentation</text>
<text text-anchor="middle" x="1429.5" y="-176.5" font-family="Helvetica,sans-Serif" font-size="10.00">Spawner</text>
</a>
</g>
</g>
<!-- Node2&#45;&gt;Node16 -->
<g id="edge25_Node000016_Node000002" class="edge">
<title>Node2&#45;&gt;Node16</title>
<g id="a_edge25_Node000016_Node000002"><a xlink:title=" ">
<path fill="none" stroke="#63b8ff" d="M1151.36,-176.68C1199.7,-179.01 1270.75,-182.42 1328.81,-185.21"/>
<polygon fill="#63b8ff" stroke="#63b8ff" points="1151.26,-173.18 1141.1,-176.19 1150.92,-180.17 1151.26,-173.18"/>
</a>
</g>
</g>
<!-- Node17 -->
<g id="Node000017" class="node">
<title>Node17</title>
<g id="a_Node000017"><a xlink:href="classWolfstagInteractive_1_1ConvoCore_1_1ConvoCoreDialogueHistoryUI.html" target="_top" xlink:title=" ">
<polygon fill="white" stroke="#666666" points="1522,-113 1337,-113 1337,-83 1522,-83 1522,-113"/>
<text text-anchor="start" x="1345" y="-101" font-family="Helvetica,sans-Serif" font-size="10.00">WolfstagInteractive.Convo</text>
<text text-anchor="middle" x="1429.5" y="-90" font-family="Helvetica,sans-Serif" font-size="10.00">Core.ConvoCoreDialogueHistoryUI</text>
</a>
</g>
</g>
<!-- Node2&#45;&gt;Node17 -->
<g id="edge27_Node000017_Node000002" class="edge">
<title>Node2&#45;&gt;Node17</title>
<g id="a_edge27_Node000017_Node000002"><a xlink:title=" ">
<path fill="none" stroke="#63b8ff" d="M1131.35,-161.16C1153.98,-153.39 1183.94,-143.73 1211,-137 1251.95,-126.82 1297.87,-118.18 1336.92,-111.65"/>
<polygon fill="#63b8ff" stroke="#63b8ff" points="1130.12,-157.88 1121.82,-164.47 1132.42,-164.49 1130.12,-157.88"/>
</a>
</g>
</g>
<!-- Node3 -->
<g id="Node000003" class="node">
<title>Node3</title>
<g id="a_Node000003"><a xlink:href="interfaceWolfstagInteractive_1_1ConvoCore_1_1IConvoStartContextProvider.html" target="_top" xlink:title="Implement on a component alongside ConvoCore to control how a conversation is started.">
<polygon fill="white" stroke="#666666" points="1505.5,-374.5 1353.5,-374.5 1353.5,-355.5 1505.5,-355.5 1505.5,-374.5"/>
<text text-anchor="middle" x="1429.5" y="-362.5" font-family="Helvetica,sans-Serif" font-size="10.00">IConvoStartContextProvider</text>
</a>
</g>
</g>
<!-- Node3&#45;&gt;Node1 -->
<g id="edge2_Node000001_Node000003" class="edge">
<title>Node3&#45;&gt;Node1</title>
<g id="a_edge2_Node000001_Node000003"><a xlink:title=" ">
<path fill="none" stroke="#63b8ff" d="M1515.68,-371.78C1568.73,-376.84 1638.22,-384.97 1699,-397 1719.64,-401.09 1741.81,-406.78 1761.85,-412.44"/>
<polygon fill="#63b8ff" stroke="#63b8ff" points="1515.92,-368.29 1505.64,-370.84 1515.27,-375.26 1515.92,-368.29"/>
</a>
</g>
</g>
<!-- Node4 -->
<g id="Node000004" class="node">
<title>Node4</title>
<g id="a_Node000004"><a xlink:href="classWolfstagInteractive_1_1ConvoCore_1_1ConvoCoreConversationData.html" target="_top" xlink:title=" ">
<polygon fill="white" stroke="#666666" points="1186,-429 1003,-429 1003,-399 1186,-399 1186,-429"/>
<text text-anchor="start" x="1011" y="-417" font-family="Helvetica,sans-Serif" font-size="10.00">WolfstagInteractive.Convo</text>
<text text-anchor="middle" x="1094.5" y="-406" font-family="Helvetica,sans-Serif" font-size="10.00">Core.ConvoCoreConversationData</text>
</a>
</g>
</g>
<!-- Node4&#45;&gt;Node1 -->
<g id="edge3_Node000001_Node000004" class="edge">
<title>Node4&#45;&gt;Node1</title>
<g id="a_edge3_Node000001_Node000004"><a xlink:title=" ">
<path fill="none" stroke="#9a32cd" stroke-dasharray="5,2" d="M1196.48,-414.54C1284.55,-415.22 1415.75,-416.72 1530,-420 1591.86,-421.78 1660.9,-424.73 1716.94,-427.37"/>
<polygon fill="#9a32cd" stroke="#9a32cd" points="1196.25,-411.04 1186.23,-414.47 1196.2,-418.04 1196.25,-411.04"/>
</a>
</g>
<text text-anchor="middle" x="1429.5" y="-423" font-family="Helvetica,sans-Serif" font-size="10.00" fill="grey"> DirectConversation</text>
</g>
<!-- Node4&#45;&gt;Node11 -->
<g id="edge18_Node000011_Node000004" class="edge">
<title>Node4&#45;&gt;Node11</title>
<g id="a_edge18_Node000011_Node000004"><a xlink:title=" ">
<path fill="none" stroke="#9a32cd" stroke-dasharray="5,2" d="M1167.01,-396.53C1175.77,-394.35 1184.59,-392.14 1193,-390 1245.55,-376.63 1261.54,-381.23 1311,-359 1319.77,-355.06 1320.51,-351.52 1329,-347 1347.3,-337.25 1368.44,-328.25 1386.51,-321.18"/>
<polygon fill="#9a32cd" stroke="#9a32cd" points="1166.03,-393.17 1157.17,-398.97 1167.72,-399.96 1166.03,-393.17"/>
</a>
</g>
<text text-anchor="middle" x="1261" y="-388" font-family="Helvetica,sans-Serif" font-size="10.00" fill="grey"> ConversationData</text>
</g>
<!-- Node5 -->
<g id="Node000005" class="node">
<title>Node5</title>
<g id="a_Node000005"><a xlink:title=" ">
<polygon fill="white" stroke="#666666" points="97,-482.5 0,-482.5 0,-463.5 97,-463.5 97,-482.5"/>
<text text-anchor="middle" x="48.5" y="-470.5" font-family="Helvetica,sans-Serif" font-size="10.00">ScriptableObject</text>
</a>
</g>
</g>
<!-- Node5&#45;&gt;Node4 -->
<g id="edge4_Node000004_Node000005" class="edge">
<title>Node5&#45;&gt;Node4</title>
<g id="a_edge4_Node000004_Node000005"><a xlink:title=" ">
<path fill="none" stroke="#63b8ff" d="M64.77,-455.46C80.3,-439.09 106,-415.75 134,-406 219.62,-376.17 247.33,-405.52 338,-406 578.04,-407.27 860.96,-410.81 1002.79,-412.73"/>
<polygon fill="#63b8ff" stroke="#63b8ff" points="61.79,-453.54 57.62,-463.28 66.95,-458.26 61.79,-453.54"/>
</a>
</g>
</g>
<!-- Node6 -->
<g id="Node000006" class="node">
<title>Node6</title>
<g id="a_Node000006"><a xlink:href="classWolfstagInteractive_1_1ConvoCore_1_1ConversationContainer.html" target="_top" xlink:title=" ">
<polygon fill="white" stroke="#666666" points="510,-616 356,-616 356,-586 510,-586 510,-616"/>
<text text-anchor="start" x="364" y="-604" font-family="Helvetica,sans-Serif" font-size="10.00">WolfstagInteractive.Convo</text>
<text text-anchor="middle" x="433" y="-593" font-family="Helvetica,sans-Serif" font-size="10.00">Core.ConversationContainer</text>
</a>
</g>
</g>
<!-- Node5&#45;&gt;Node6 -->
<g id="edge6_Node000006_Node000005" class="edge">
<title>Node5&#45;&gt;Node6</title>
<g id="a_edge6_Node000006_Node000005"><a xlink:title=" ">
<path fill="none" stroke="#63b8ff" d="M57.17,-492.19C69.09,-519.1 94.83,-567.09 134,-588 202.41,-624.52 292.76,-622.76 355.96,-615.01"/>
<polygon fill="#63b8ff" stroke="#63b8ff" points="60.28,-490.55 53.16,-482.7 53.83,-493.27 60.28,-490.55"/>
</a>
</g>
</g>
<!-- Node7 -->
<g id="Node000007" class="node">
<title>Node7</title>
<g id="a_Node000007"><a xlink:href="classWolfstagInteractive_1_1ConvoCore_1_1SaveSystem_1_1ConvoCoreSaveManager.html" target="_top" xlink:title=" ">
<polygon fill="white" stroke="#666666" points="754,-556 528,-556 528,-526 754,-526 754,-556"/>
<text text-anchor="start" x="536" y="-544" font-family="Helvetica,sans-Serif" font-size="10.00">WolfstagInteractive.Convo</text>
<text text-anchor="middle" x="641" y="-533" font-family="Helvetica,sans-Serif" font-size="10.00">Core.SaveSystem.ConvoCoreSaveManager</text>
</a>
</g>
</g>
<!-- Node5&#45;&gt;Node7 -->
<g id="edge8_Node000007_Node000005" class="edge">
<title>Node5&#45;&gt;Node7</title>
<g id="a_edge8_Node000007_Node000005"><a xlink:title=" ">
<path fill="none" stroke="#63b8ff" d="M107.22,-475.27C165.56,-477.93 258.23,-483.13 338,-492 414.91,-500.55 433.63,-506.54 510,-519 523.56,-521.21 537.9,-523.59 551.91,-525.95"/>
<polygon fill="#63b8ff" stroke="#63b8ff" points="107.24,-471.77 97.09,-474.82 106.93,-478.76 107.24,-471.77"/>
</a>
</g>
</g>
<!-- Node8 -->
<g id="Node000008" class="node">
<title>Node8</title>
<g id="a_Node000008"><a xlink:href="classWolfstagInteractive_1_1ConvoCore_1_1SaveSystem_1_1ConvoVariableStore.html" target="_top" xlink:title=" ">
<polygon fill="white" stroke="#666666" points="337,-531 135,-531 135,-501 337,-501 337,-531"/>
<text text-anchor="start" x="143" y="-519" font-family="Helvetica,sans-Serif" font-size="10.00">WolfstagInteractive.Convo</text>
<text text-anchor="middle" x="236" y="-508" font-family="Helvetica,sans-Serif" font-size="10.00">Core.SaveSystem.ConvoVariableStore</text>
</a>
</g>
</g>
<!-- Node5&#45;&gt;Node8 -->
<g id="edge10_Node000008_Node000005" class="edge">
<title>Node5&#45;&gt;Node8</title>
<g id="a_edge10_Node000008_Node000005"><a xlink:title=" ">
<path fill="none" stroke="#63b8ff" d="M100.59,-484.84C122.13,-489.84 147.44,-495.7 170.26,-500.99"/>
<polygon fill="#63b8ff" stroke="#63b8ff" points="101.2,-481.39 90.67,-482.54 99.62,-488.21 101.2,-481.39"/>
</a>
</g>
</g>
<!-- Node9 -->
<g id="Node000009" class="node">
<title>Node9</title>
<g id="a_Node000009"><a xlink:href="classWolfstagInteractive_1_1ConvoCore_1_1SaveSystem_1_1ConvoSettingsState.html" target="_top" xlink:title=" ">
<polygon fill="white" stroke="#666666" points="337,-579 135,-579 135,-549 337,-549 337,-579"/>
<text text-anchor="start" x="143" y="-567" font-family="Helvetica,sans-Serif" font-size="10.00">WolfstagInteractive.Convo</text>
<text text-anchor="middle" x="236" y="-556" font-family="Helvetica,sans-Serif" font-size="10.00">Core.SaveSystem.ConvoSettingsState</text>
</a>
</g>
</g>
<!-- Node5&#45;&gt;Node9 -->
<g id="edge12_Node000009_Node000005" class="edge">
<title>Node5&#45;&gt;Node9</title>
<g id="a_edge12_Node000009_Node000005"><a xlink:title=" ">
<path fill="none" stroke="#63b8ff" d="M66.39,-490.15C82.43,-505.44 107.9,-527.33 134,-540 141.05,-543.42 148.63,-546.38 156.34,-548.92"/>
<polygon fill="#63b8ff" stroke="#63b8ff" points="68.51,-487.32 58.92,-482.83 63.62,-492.32 68.51,-487.32"/>
</a>
</g>
</g>
<!-- Node18 -->
<g id="Node000018" class="node">
<title>Node18</title>
<g id="a_Node000018"><a xlink:href="classWolfstagInteractive_1_1ConvoCore_1_1ConvoCoreSettings.html" target="_top" xlink:title=" ">
<polygon fill="white" stroke="#666666" points="309,-327 163,-327 163,-297 309,-297 309,-327"/>
<text text-anchor="start" x="171" y="-315" font-family="Helvetica,sans-Serif" font-size="10.00">WolfstagInteractive.Convo</text>
<text text-anchor="middle" x="236" y="-304" font-family="Helvetica,sans-Serif" font-size="10.00">Core.ConvoCoreSettings</text>
</a>
</g>
</g>
<!-- Node5&#45;&gt;Node18 -->
<g id="edge29_Node000018_Node000005" class="edge">
<title>Node5&#45;&gt;Node18</title>
<g id="a_edge29_Node000018_Node000005"><a xlink:title=" ">
<path fill="none" stroke="#63b8ff" d="M58.13,-454.06C68.86,-432.21 88.98,-396.31 115,-373 137.63,-352.73 168.22,-337.31 192.85,-327.05"/>
<polygon fill="#63b8ff" stroke="#63b8ff" points="54.88,-452.74 53.75,-463.27 61.2,-455.74 54.88,-452.74"/>
</a>
</g>
</g>
<!-- Node20 -->
<g id="Node000020" class="node">
<title>Node20</title>
<g id="a_Node000020"><a xlink:href="classWolfstagInteractive_1_1ConvoCore_1_1ConvoCoreHistoryRendererProfile.html" target="_top" xlink:title=" ">
<polygon fill="white" stroke="#666666" points="978,-82 772,-82 772,-52 978,-52 978,-82"/>
<text text-anchor="start" x="780" y="-70" font-family="Helvetica,sans-Serif" font-size="10.00">WolfstagInteractive.Convo</text>
<text text-anchor="middle" x="875" y="-59" font-family="Helvetica,sans-Serif" font-size="10.00">Core.ConvoCoreHistoryRendererProfile</text>
</a>
</g>
</g>
<!-- Node5&#45;&gt;Node20 -->
<g id="edge33_Node000020_Node000005" class="edge">
<title>Node5&#45;&gt;Node20</title>
<g id="a_edge33_Node000020_Node000005"><a xlink:title=" ">
<path fill="none" stroke="#63b8ff" d="M55.43,-453.43C66.77,-418.03 94.03,-342.05 134,-288 212.43,-181.94 233.8,-140.67 356,-91 491.74,-35.83 664.24,-41.11 771.91,-52.27"/>
<polygon fill="#63b8ff" stroke="#63b8ff" points="51.95,-452.82 52.31,-463.41 58.63,-454.91 51.95,-452.82"/>
</a>
</g>
</g>
<!-- Node6&#45;&gt;Node1 -->
<g id="edge5_Node000001_Node000006" class="edge">
<title>Node6&#45;&gt;Node1</title>
<g id="a_edge5_Node000001_Node000006"><a xlink:title=" ">
<path fill="none" stroke="#9a32cd" stroke-dasharray="5,2" d="M520.31,-598.19C609.02,-595.55 751.14,-592 874,-592 874,-592 874,-592 1430.5,-592 1552.22,-592 1588.91,-589.94 1699,-538 1743.14,-517.18 1785.22,-478.09 1808.72,-453.92"/>
<polygon fill="#9a32cd" stroke="#9a32cd" points="520.19,-594.69 510.3,-598.49 520.4,-601.69 520.19,-594.69"/>
</a>
</g>
<text text-anchor="middle" x="1094.5" y="-595" font-family="Helvetica,sans-Serif" font-size="10.00" fill="grey"> ConversationContainer</text>
</g>
<!-- Node7&#45;&gt;Node1 -->
<g id="edge7_Node000001_Node000007" class="edge">
<title>Node7&#45;&gt;Node1</title>
<g id="a_edge7_Node000001_Node000007"><a xlink:title=" ">
<path fill="none" stroke="#9a32cd" stroke-dasharray="5,2" d="M764.4,-545.52C1004.21,-553.1 1527.45,-562.9 1699,-512 1738.78,-500.2 1778.59,-472.87 1803.25,-453.68"/>
<polygon fill="#9a32cd" stroke="#9a32cd" points="764.35,-542.02 754.24,-545.2 764.13,-549.02 764.35,-542.02"/>
</a>
</g>
<text text-anchor="middle" x="1261" y="-554" font-family="Helvetica,sans-Serif" font-size="10.00" fill="grey"> SaveManager</text>
</g>
<!-- Node8&#45;&gt;Node1 -->
<g id="edge14_Node000001_Node000008" class="edge">
<title>Node8&#45;&gt;Node1</title>
<g id="a_edge14_Node000001_Node000008"><a xlink:title=" ">
<path fill="none" stroke="#9a32cd" stroke-dasharray="5,2" d="M347.35,-508.41C428.31,-503.5 540.94,-498 640,-498 640,-498 640,-498 1430.5,-498 1542.38,-498 1669.69,-472.61 1749.43,-453.57"/>
<polygon fill="#9a32cd" stroke="#9a32cd" points="346.91,-504.93 337.14,-509.04 347.34,-511.92 346.91,-504.93"/>
</a>
</g>
<text text-anchor="middle" x="1094.5" y="-501" font-family="Helvetica,sans-Serif" font-size="10.00" fill="grey"> VariableStore</text>
</g>
<!-- Node8&#45;&gt;Node7 -->
<g id="edge9_Node000007_Node000008" class="edge">
<title>Node8&#45;&gt;Node7</title>
<g id="a_edge9_Node000007_Node000008"><a xlink:title=" ">
<path fill="none" stroke="#9a32cd" stroke-dasharray="5,2" d="M347.12,-522.83C403.3,-526.32 471.5,-530.55 527.94,-534.05"/>
<polygon fill="#9a32cd" stroke="#9a32cd" points="347.33,-519.34 337.14,-522.21 346.9,-526.32 347.33,-519.34"/>
</a>
</g>
<text text-anchor="middle" x="433" y="-535" font-family="Helvetica,sans-Serif" font-size="10.00" fill="grey"> VariableStore</text>
</g>
<!-- Node9&#45;&gt;Node7 -->
<g id="edge11_Node000007_Node000009" class="edge">
<title>Node9&#45;&gt;Node7</title>
<g id="a_edge11_Node000007_Node000009"><a xlink:title=" ">
<path fill="none" stroke="#9a32cd" stroke-dasharray="5,2" d="M347.47,-557.7C403.58,-554.49 471.61,-550.61 527.94,-547.4"/>
<polygon fill="#9a32cd" stroke="#9a32cd" points="346.92,-554.22 337.14,-558.29 347.32,-561.21 346.92,-554.22"/>
</a>
</g>
<text text-anchor="middle" x="433" y="-560" font-family="Helvetica,sans-Serif" font-size="10.00" fill="grey"> SettingsState</text>
</g>
<!-- Node10 -->
<g id="Node000010" class="node">
<title>Node10</title>
<g id="a_Node000010"><a xlink:href="interfaceWolfstagInteractive_1_1ConvoCore_1_1SaveSystem_1_1IConvoSaveProvider.html" target="_top" xlink:title=" ">
<polygon fill="white" stroke="#666666" points="338,-445 134,-445 134,-415 338,-415 338,-445"/>
<text text-anchor="start" x="142" y="-433" font-family="Helvetica,sans-Serif" font-size="10.00">WolfstagInteractive.Convo</text>
<text text-anchor="middle" x="236" y="-422" font-family="Helvetica,sans-Serif" font-size="10.00">Core.SaveSystem.IConvoSaveProvider</text>
</a>
</g>
</g>
<!-- Node10&#45;&gt;Node7 -->
<g id="edge13_Node000007_Node000010" class="edge">
<title>Node10&#45;&gt;Node7</title>
<g id="a_edge13_Node000007_Node000010"><a xlink:title=" ">
<path fill="none" stroke="#9a32cd" stroke-dasharray="5,2" d="M348.24,-423.64C398.91,-424.17 458.85,-429.71 510,-448 557.03,-464.82 602.2,-503.96 624.87,-525.72"/>
<polygon fill="#9a32cd" stroke="#9a32cd" points="348.25,-420.14 338.24,-423.59 348.23,-427.14 348.25,-420.14"/>
</a>
</g>
<text text-anchor="middle" x="433" y="-451" font-family="Helvetica,sans-Serif" font-size="10.00" fill="grey"> _provider</text>
</g>
<!-- Node11&#45;&gt;Node1 -->
<g id="edge15_Node000001_Node000011" class="edge">
<title>Node11&#45;&gt;Node1</title>
<g id="a_edge15_Node000001_Node000011"><a xlink:title=" ">
<path fill="none" stroke="#9a32cd" stroke-dasharray="5,2" d="M1512.48,-315.62C1566.63,-323.63 1638.5,-337.45 1699,-360 1734.93,-373.39 1772.73,-395.92 1798.06,-412.42"/>
<polygon fill="#9a32cd" stroke="#9a32cd" points="1512.98,-312.16 1502.58,-314.19 1511.98,-319.09 1512.98,-312.16"/>
</a>
</g>
<text text-anchor="middle" x="1623.5" y="-363" font-family="Helvetica,sans-Serif" font-size="10.00" fill="grey"> _runner</text>
</g>
<!-- Node11&#45;&gt;Node14 -->
<g id="edge23_Node000014_Node000011" class="edge">
<title>Node11&#45;&gt;Node14</title>
<g id="a_edge23_Node000014_Node000011"><a xlink:title=" ">
<path fill="none" stroke="#9a32cd" stroke-dasharray="5,2" d="M1512.82,-307.86C1566.78,-307 1638.31,-301.88 1699,-284 1739.44,-272.09 1781.68,-246.61 1806.37,-230.17"/>
<polygon fill="#9a32cd" stroke="#9a32cd" points="1512.57,-304.37 1502.61,-307.98 1512.65,-311.37 1512.57,-304.37"/>
</a>
</g>
<text text-anchor="middle" x="1623.5" y="-309" font-family="Helvetica,sans-Serif" font-size="10.00" fill="grey"> ConvoCoreInstance</text>
</g>
<!-- Node12 -->
<g id="Node000012" class="node">
<title>Node12</title>
<g id="a_Node000012"><a xlink:href="interfaceWolfstagInteractive_1_1ConvoCore_1_1IConvoCoreRunner.html" target="_top" xlink:title=" ">
<polygon fill="white" stroke="#666666" points="1148,-224.5 1041,-224.5 1041,-205.5 1148,-205.5 1148,-224.5"/>
<text text-anchor="middle" x="1094.5" y="-212.5" font-family="Helvetica,sans-Serif" font-size="10.00">IConvoCoreRunner</text>
</a>
</g>
</g>
<!-- Node12&#45;&gt;Node11 -->
<g id="edge17_Node000011_Node000012" class="edge">
<title>Node12&#45;&gt;Node11</title>
<g id="a_edge17_Node000011_Node000012"><a xlink:title=" ">
<path fill="none" stroke="#63b8ff" d="M1158.18,-226.22C1169.8,-228.58 1181.8,-231.21 1193,-234 1260.41,-250.8 1337.13,-275.29 1384.18,-290.93"/>
<polygon fill="#63b8ff" stroke="#63b8ff" points="1158.58,-222.73 1148.09,-224.21 1157.22,-229.6 1158.58,-222.73"/>
</a>
</g>
</g>
<!-- Node13 -->
<g id="Node000013" class="node">
<title>Node13</title>
<g id="a_Node000013"><a xlink:href="interfaceWolfstagInteractive_1_1ConvoCore_1_1IConvoInput.html" target="_top" xlink:title=" ">
<polygon fill="white" stroke="#666666" points="1167.5,-381 1021.5,-381 1021.5,-351 1167.5,-351 1167.5,-381"/>
<text text-anchor="start" x="1029.5" y="-369" font-family="Helvetica,sans-Serif" font-size="10.00">WolfstagInteractive.Convo</text>
<text text-anchor="middle" x="1094.5" y="-358" font-family="Helvetica,sans-Serif" font-size="10.00">Core.IConvoInput</text>
</a>
</g>
</g>
<!-- Node13&#45;&gt;Node11 -->
<g id="edge19_Node000011_Node000013" class="edge">
<title>Node13&#45;&gt;Node11</title>
<g id="a_edge19_Node000011_Node000013"><a xlink:title=" ">
<path fill="none" stroke="#9a32cd" stroke-dasharray="5,2" d="M1177.78,-351.17C1232.56,-341.31 1303.84,-328.46 1356.38,-318.99"/>
<polygon fill="#9a32cd" stroke="#9a32cd" points="1176.98,-347.76 1167.76,-352.98 1178.22,-354.65 1176.98,-347.76"/>
</a>
</g>
<text text-anchor="middle" x="1261" y="-347" font-family="Helvetica,sans-Serif" font-size="10.00" fill="grey"> Input</text>
</g>
<!-- Node14&#45;&gt;Node11 -->
<g id="edge20_Node000011_Node000014" class="edge">
<title>Node14&#45;&gt;Node11</title>
<g id="a_edge20_Node000011_Node000014"><a xlink:title=" ">
<path fill="none" stroke="#9a32cd" stroke-dasharray="5,2" d="M1768.07,-232.78C1746.43,-238.8 1721.74,-245.2 1699,-250 1632.58,-264.02 1614.36,-258.68 1548,-273 1525.11,-277.94 1500.09,-284.76 1479.04,-290.92"/>
<polygon fill="#9a32cd" stroke="#9a32cd" points="1769.1,-236.13 1777.78,-230.05 1767.21,-229.39 1769.1,-236.13"/>
</a>
</g>
<text text-anchor="middle" x="1623.5" y="-276" font-family="Helvetica,sans-Serif" font-size="10.00" fill="grey"> ConversationUI</text>
</g>
<!-- Node15 -->
<g id="Node000015" class="node">
<title>Node15</title>
<g id="a_Node000015"><a xlink:href="interfaceWolfstagInteractive_1_1ConvoCore_1_1IUIFoundation.html" target="_top" xlink:title=" ">
<polygon fill="white" stroke="#666666" points="1471.5,-64.5 1387.5,-64.5 1387.5,-45.5 1471.5,-45.5 1471.5,-64.5"/>
<text text-anchor="middle" x="1429.5" y="-52.5" font-family="Helvetica,sans-Serif" font-size="10.00">IUIFoundation</text>
</a>
</g>
</g>
<!-- Node15&#45;&gt;Node14 -->
<g id="edge22_Node000014_Node000015" class="edge">
<title>Node15&#45;&gt;Node14</title>
<g id="a_edge22_Node000014_Node000015"><a xlink:title=" ">
<path fill="none" stroke="#63b8ff" d="M1481.97,-51.76C1538.13,-50.34 1629.33,-54.35 1699,-88 1753.05,-114.11 1798.26,-171.95 1817.73,-199.64"/>
<polygon fill="#63b8ff" stroke="#63b8ff" points="1481.79,-48.27 1471.9,-52.08 1482.01,-55.26 1481.79,-48.27"/>
</a>
</g>
</g>
<!-- Node16&#45;&gt;Node14 -->
<g id="edge24_Node000014_Node000016" class="edge">
<title>Node16&#45;&gt;Node14</title>
<g id="a_edge24_Node000014_Node000016"><a xlink:title=" ">
<path fill="none" stroke="#9a32cd" stroke-dasharray="5,2" d="M1540.08,-196.89C1606.2,-201.05 1688.93,-206.25 1748.72,-210.01"/>
<polygon fill="#9a32cd" stroke="#9a32cd" points="1540.24,-193.39 1530.04,-196.26 1539.8,-200.38 1540.24,-193.39"/>
</a>
</g>
<text text-anchor="middle" x="1623.5" y="-209" font-family="Helvetica,sans-Serif" font-size="10.00" fill="grey"> PrefabRepresentationSpawner</text>
</g>
<!-- Node17&#45;&gt;Node14 -->
<g id="edge26_Node000014_Node000017" class="edge">
<title>Node17&#45;&gt;Node14</title>
<g id="a_edge26_Node000014_Node000017"><a xlink:title=" ">
<path fill="none" stroke="#9a32cd" stroke-dasharray="5,2" d="M1532.31,-91.09C1583.78,-90.98 1646.34,-96.13 1699,-116 1747.34,-134.24 1792.49,-176.99 1814.31,-199.89"/>
<polygon fill="#9a32cd" stroke="#9a32cd" points="1532.13,-87.59 1522.16,-91.18 1532.19,-94.59 1532.13,-87.59"/>
</a>
</g>
<text text-anchor="middle" x="1623.5" y="-119" font-family="Helvetica,sans-Serif" font-size="10.00" fill="grey"> ConvoCoreDialogueHistoryUI</text>
</g>
<!-- Node18&#45;&gt;Node17 -->
<g id="edge28_Node000017_Node000018" class="edge">
<title>Node18&#45;&gt;Node17</title>
<g id="a_edge28_Node000017_Node000018"><a xlink:title=" ">
<path fill="none" stroke="#9a32cd" stroke-dasharray="5,2" d="M306.18,-294.47C464.92,-255.01 868.03,-159.16 1211,-114 1252.2,-108.57 1298.05,-104.86 1336.99,-102.39"/>
<polygon fill="#9a32cd" stroke="#9a32cd" points="304.94,-291.17 296.09,-296.99 306.64,-297.96 304.94,-291.17"/>
</a>
</g>
<text text-anchor="middle" x="875" y="-192" font-family="Helvetica,sans-Serif" font-size="10.00" fill="grey"> convoCoreSettings</text>
</g>
<!-- Node18&#45;&gt;Node18 -->
<g id="edge30_Node000018_Node000018" class="edge">
<title>Node18&#45;&gt;Node18</title>
<g id="a_edge30_Node000018_Node000018"><a xlink:title=" ">
<path fill="none" stroke="#9a32cd" stroke-dasharray="5,2" d="M215,-337.6C217.87,-341.97 224.87,-345 236,-345 254.75,-345 261.78,-336.41 257.09,-327.28"/>
<polygon fill="#9a32cd" stroke="#9a32cd" points="218.49,-337.24 214.91,-327.28 211.49,-337.31 218.49,-337.24"/>
</a>
</g>
<text text-anchor="middle" x="236" y="-348" font-family="Helvetica,sans-Serif" font-size="10.00" fill="grey"> _instance</text>
</g>
<!-- Node22 -->
<g id="Node000022" class="node">
<title>Node22</title>
<g id="a_Node000022"><a xlink:href="classWolfstagInteractive_1_1ConvoCore_1_1ConvoCoreLanguageManager.html" target="_top" xlink:title=" ">
<polygon fill="white" stroke="#666666" points="733.5,-327 548.5,-327 548.5,-297 733.5,-297 733.5,-327"/>
<text text-anchor="start" x="556.5" y="-315" font-family="Helvetica,sans-Serif" font-size="10.00">WolfstagInteractive.Convo</text>
<text text-anchor="middle" x="641" y="-304" font-family="Helvetica,sans-Serif" font-size="10.00">Core.ConvoCoreLanguageManager</text>
</a>
</g>
</g>
<!-- Node18&#45;&gt;Node22 -->
<g id="edge37_Node000022_Node000018" class="edge">
<title>Node18&#45;&gt;Node22</title>
<g id="a_edge37_Node000022_Node000018"><a xlink:title=" ">
<path fill="none" stroke="#9a32cd" stroke-dasharray="5,2" d="M319.08,-312C385.64,-312 479.41,-312 548.41,-312"/>
<polygon fill="#9a32cd" stroke="#9a32cd" points="319.05,-308.5 309.05,-312 319.05,-315.5 319.05,-308.5"/>
</a>
</g>
<text text-anchor="middle" x="433" y="-315" font-family="Helvetica,sans-Serif" font-size="10.00" fill="grey"> _convoCoreSettings</text>
</g>
<!-- Node19 -->
<g id="Node000019" class="node">
<title>Node19</title>
<g id="a_Node000019"><a xlink:href="interfaceWolfstagInteractive_1_1ConvoCore_1_1IConvoCoreHistoryRenderer.html" target="_top" xlink:title="Base contract for any dialogue history renderer.">
<polygon fill="white" stroke="#666666" points="1183.5,-30 1005.5,-30 1005.5,0 1183.5,0 1183.5,-30"/>
<text text-anchor="start" x="1013.5" y="-18" font-family="Helvetica,sans-Serif" font-size="10.00">WolfstagInteractive.Convo</text>
<text text-anchor="middle" x="1094.5" y="-7" font-family="Helvetica,sans-Serif" font-size="10.00">Core.IConvoCoreHistoryRenderer</text>
</a>
</g>
</g>
<!-- Node19&#45;&gt;Node17 -->
<g id="edge31_Node000017_Node000019" class="edge">
<title>Node19&#45;&gt;Node17</title>
<g id="a_edge31_Node000017_Node000019"><a xlink:title=" ">
<path fill="none" stroke="#9a32cd" stroke-dasharray="5,2" d="M1193.77,-8.32C1233.08,-10.14 1276.99,-18.27 1311,-41 1324.57,-50.07 1316.03,-63.1 1329,-73 1334.1,-76.89 1339.73,-80.18 1345.64,-82.97"/>
<polygon fill="#9a32cd" stroke="#9a32cd" points="1193.73,-4.81 1183.62,-7.98 1193.5,-11.81 1193.73,-4.81"/>
</a>
</g>
<text text-anchor="middle" x="1261" y="-44" font-family="Helvetica,sans-Serif" font-size="10.00" fill="grey"> _renderer</text>
</g>
<!-- Node20&#45;&gt;Node17 -->
<g id="edge32_Node000017_Node000020" class="edge">
<title>Node20&#45;&gt;Node17</title>
<g id="a_edge32_Node000017_Node000020"><a xlink:title=" ">
<path fill="none" stroke="#9a32cd" stroke-dasharray="5,2" d="M988.35,-68.94C1076.28,-71.05 1201.56,-75.36 1311,-84 1319.4,-84.66 1328.12,-85.47 1336.84,-86.37"/>
<polygon fill="#9a32cd" stroke="#9a32cd" points="988.17,-65.43 978.09,-68.7 988.01,-72.43 988.17,-65.43"/>
</a>
</g>
<text text-anchor="middle" x="1094.5" y="-80" font-family="Helvetica,sans-Serif" font-size="10.00" fill="grey"> _activeProfile</text>
</g>
<!-- Node21 -->
<g id="Node000021" class="node">
<title>Node21</title>
<g id="a_Node000021"><a xlink:href="classWolfstagInteractive_1_1ConvoCore_1_1ConvoCoreDialogueLocalizationHandler.html" target="_top" xlink:title=" ">
<polygon fill="white" stroke="#666666" points="1193,-332.5 996,-332.5 996,-291.5 1193,-291.5 1193,-332.5"/>
<text text-anchor="start" x="1004" y="-320.5" font-family="Helvetica,sans-Serif" font-size="10.00">WolfstagInteractive.Convo</text>
<text text-anchor="start" x="1004" y="-309.5" font-family="Helvetica,sans-Serif" font-size="10.00">Core.ConvoCoreDialogueLocalization</text>
<text text-anchor="middle" x="1094.5" y="-298.5" font-family="Helvetica,sans-Serif" font-size="10.00">Handler</text>
</a>
</g>
</g>
<!-- Node21&#45;&gt;Node11 -->
<g id="edge34_Node000011_Node000021" class="edge">
<title>Node21&#45;&gt;Node11</title>
<g id="a_edge34_Node000011_Node000021"><a xlink:title=" ">
<path fill="none" stroke="#9a32cd" stroke-dasharray="5,2" d="M1203.38,-310.06C1253.44,-309.15 1311.59,-308.11 1356.26,-307.3"/>
<polygon fill="#9a32cd" stroke="#9a32cd" points="1203.1,-306.56 1193.16,-310.24 1203.22,-313.56 1203.1,-306.56"/>
</a>
</g>
<text text-anchor="middle" x="1261" y="-312" font-family="Helvetica,sans-Serif" font-size="10.00" fill="grey"> LocalizationHandler</text>
</g>
<!-- Node22&#45;&gt;Node21 -->
<g id="edge35_Node000021_Node000022" class="edge">
<title>Node22&#45;&gt;Node21</title>
<g id="a_edge35_Node000021_Node000022"><a xlink:title=" ">
<path fill="none" stroke="#9a32cd" stroke-dasharray="5,2" d="M744.09,-312C819.46,-312 921.42,-312 995.74,-312"/>
<polygon fill="#9a32cd" stroke="#9a32cd" points="743.64,-308.5 733.64,-312 743.64,-315.5 743.64,-308.5"/>
</a>
</g>
<text text-anchor="middle" x="875" y="-315" font-family="Helvetica,sans-Serif" font-size="10.00" fill="grey"> _convoCoreLanguageManager</text>
</g>
<!-- Node22&#45;&gt;Node22 -->
<g id="edge36_Node000022_Node000022" class="edge">
<title>Node22&#45;&gt;Node22</title>
<g id="a_edge36_Node000022_Node000022"><a xlink:title=" ">
<path fill="none" stroke="#9a32cd" stroke-dasharray="5,2" d="M604.59,-337.6C609.57,-341.97 621.7,-345 641,-345 673.5,-345 685.69,-336.41 677.56,-327.28"/>
<polygon fill="#9a32cd" stroke="#9a32cd" points="608.09,-337.22 604.44,-327.28 601.09,-337.33 608.09,-337.22"/>
</a>
</g>
<text text-anchor="middle" x="641" y="-348" font-family="Helvetica,sans-Serif" font-size="10.00" fill="grey"> _instance</text>
</g>
<!-- Node23 -->
<g id="Node000023" class="node">
<title>Node23</title>
<g id="a_Node000023"><a xlink:href="interfaceWolfstagInteractive_1_1ConvoCore_1_1IConversationContext.html" target="_top" xlink:title="Provides optional runtime context for branch evaluation.">
<polygon fill="white" stroke="#666666" points="1168.5,-273 1020.5,-273 1020.5,-243 1168.5,-243 1168.5,-273"/>
<text text-anchor="start" x="1028.5" y="-261" font-family="Helvetica,sans-Serif" font-size="10.00">WolfstagInteractive.Convo</text>
<text text-anchor="middle" x="1094.5" y="-250" font-family="Helvetica,sans-Serif" font-size="10.00">Core.IConversationContext</text>
</a>
</g>
</g>
<!-- Node23&#45;&gt;Node11 -->
<g id="edge38_Node000011_Node000023" class="edge">
<title>Node23&#45;&gt;Node11</title>
<g id="a_edge38_Node000011_Node000023"><a xlink:title=" ">
<path fill="none" stroke="#9a32cd" stroke-dasharray="5,2" d="M1178.59,-269.98C1233.28,-277.86 1304.15,-288.08 1356.45,-295.61"/>
<polygon fill="#9a32cd" stroke="#9a32cd" points="1178.98,-266.5 1168.58,-268.53 1177.98,-273.42 1178.98,-266.5"/>
</a>
</g>
<text text-anchor="middle" x="1261" y="-290" font-family="Helvetica,sans-Serif" font-size="10.00" fill="grey"> _context</text>
</g>
<!-- Node24 -->
<g id="Node000024" class="node">
<title>Node24</title>
<g id="a_Node000024"><a xlink:href="structWolfstagInteractive_1_1ConvoCore_1_1ConvoStartContext.html" target="_top" xlink:title=" ">
<polygon fill="white" stroke="#666666" points="1502.5,-470 1356.5,-470 1356.5,-440 1502.5,-440 1502.5,-470"/>
<text text-anchor="start" x="1364.5" y="-458" font-family="Helvetica,sans-Serif" font-size="10.00">WolfstagInteractive.Convo</text>
<text text-anchor="middle" x="1429.5" y="-447" font-family="Helvetica,sans-Serif" font-size="10.00">Core.ConvoStartContext</text>
</a>
</g>
</g>
<!-- Node24&#45;&gt;Node1 -->
<g id="edge39_Node000001_Node000024" class="edge">
<title>Node24&#45;&gt;Node1</title>
<g id="a_edge39_Node000001_Node000024"><a xlink:title=" ">
<path fill="none" stroke="#9a32cd" stroke-dasharray="5,2" d="M1512.96,-450.44C1571.94,-447.17 1651.98,-442.74 1716.63,-439.16"/>
<polygon fill="#9a32cd" stroke="#9a32cd" points="1512.74,-446.94 1502.95,-450.99 1513.12,-453.93 1512.74,-446.94"/>
</a>
</g>
<text text-anchor="middle" x="1623.5" y="-450" font-family="Helvetica,sans-Serif" font-size="10.00" fill="grey"> _pendingContext</text>
</g>
</g>
</svg>
