<?xml version="1.0" encoding="UTF-8" standalone="no"?>
<!DOCTYPE svg PUBLIC "-//W3C//DTD SVG 1.1//EN"
 "http://www.w3.org/Graphics/SVG/1.1/DTD/svg11.dtd">
<!-- Generated by graphviz version 2.43.0 (0)
 -->
<!-- Title: WolfstagInteractive.ConvoCore.SimplePrefabRepresentationDisplay Pages: 1 -->
<svg width="947pt" height="162pt"
 viewBox="0.00 0.00 947.00 161.50" xmlns="http://www.w3.org/2000/svg" xmlns:xlink="http://www.w3.org/1999/xlink">
<g id="graph0" class="graph" transform="scale(1 1) rotate(0) translate(4 157.5)">
<title>WolfstagInteractive.ConvoCore.SimplePrefabRepresentationDisplay</title>
<!-- Node1 -->
<g id="Node000001" class="node">
<title>Node1</title>
<g id="a_Node000001"><a xlink:title=" ">
<polygon fill="#999999" stroke="#666666" points="939,-86.5 757,-86.5 757,-45.5 939,-45.5 939,-86.5"/>
<text text-anchor="start" x="765" y="-74.5" font-family="Helvetica,sans-Serif" font-size="10.00">WolfstagInteractive.Convo</text>
<text text-anchor="start" x="765" y="-63.5" font-family="Helvetica,sans-Serif" font-size="10.00">Core.SimplePrefabRepresentation</text>
<text text-anchor="middle" x="848" y="-52.5" font-family="Helvetica,sans-Serif" font-size="10.00">Display</text>
</a>
</g>
</g>
<!-- Node2 -->
<g id="Node000002" class="node">
<title>Node2</title>
<g id="a_Node000002"><a xlink:href="classWolfstagInteractive_1_1ConvoCore_1_1ConvoCoreCharacterDisplayBase.html" target="_top" xlink:title="Generic base class for all prefab&#45;based character displays.">
<polygon fill="white" stroke="#666666" points="642,-116.5 464,-116.5 464,-97.5 642,-97.5 642,-116.5"/>
<text text-anchor="middle" x="553" y="-104.5" font-family="Helvetica,sans-Serif" font-size="10.00">ConvoCoreCharacterDisplayBase</text>
</a>
</g>
</g>
<!-- Node2&#45;&gt;Node1 -->
<g id="edge1_Node000001_Node000002" class="edge">
<title>Node2&#45;&gt;Node1</title>
<g id="a_edge1_Node000001_Node000002"><a xlink:title=" ">
<path fill="none" stroke="#63b8ff" d="M632.05,-96.08C670.47,-90.7 717,-84.19 756.92,-78.6"/>
<polygon fill="#63b8ff" stroke="#63b8ff" points="631.37,-92.64 621.96,-97.49 632.35,-99.57 631.37,-92.64"/>
</a>
</g>
</g>
<!-- Node3 -->
<g id="Node000003" class="node">
<title>Node3</title>
<g id="a_Node000003"><a xlink:title=" ">
<polygon fill="white" stroke="#666666" points="359.5,-153.5 266.5,-153.5 266.5,-134.5 359.5,-134.5 359.5,-153.5"/>
<text text-anchor="middle" x="313" y="-141.5" font-family="Helvetica,sans-Serif" font-size="10.00">MonoBehaviour</text>
</a>
</g>
</g>
<!-- Node3&#45;&gt;Node2 -->
<g id="edge2_Node000002_Node000003" class="edge">
<title>Node3&#45;&gt;Node2</title>
<g id="a_edge2_Node000002_Node000003"><a xlink:title=" ">
<path fill="none" stroke="#63b8ff" d="M369.54,-135.37C405.88,-129.72 453.38,-122.33 490.8,-116.51"/>
<polygon fill="#63b8ff" stroke="#63b8ff" points="368.95,-131.92 359.61,-136.91 370.03,-138.83 368.95,-131.92"/>
</a>
</g>
</g>
<!-- Node4 -->
<g id="Node000004" class="node">
<title>Node4</title>
<g id="a_Node000004"><a xlink:href="interfaceWolfstagInteractive_1_1ConvoCore_1_1IConvoCoreCharacterDisplay.html" target="_top" xlink:title=" ">
<polygon fill="white" stroke="#666666" points="391.5,-116.5 234.5,-116.5 234.5,-97.5 391.5,-97.5 391.5,-116.5"/>
<text text-anchor="middle" x="313" y="-104.5" font-family="Helvetica,sans-Serif" font-size="10.00">IConvoCoreCharacterDisplay</text>
</a>
</g>
</g>
<!-- Node4&#45;&gt;Node2 -->
<g id="edge3_Node000002_Node000004" class="edge">
<title>Node4&#45;&gt;Node2</title>
<g id="a_edge3_Node000002_Node000004"><a xlink:title=" ">
<path fill="none" stroke="#63b8ff" d="M401.74,-107C421.98,-107 443.51,-107 463.78,-107"/>
<polygon fill="#63b8ff" stroke="#63b8ff" points="401.6,-103.5 391.6,-107 401.6,-110.5 401.6,-103.5"/>
</a>
</g>
</g>
<!-- Node5 -->
<g id="Node000005" class="node">
<title>Node5</title>
<g id="a_Node000005"><a xlink:href="classWolfstagInteractive_1_1ConvoCore_1_1CharacterRepresentationBase.html" target="_top" xlink:title="Abstract ScriptableObject base class for all character visual representations.">
<polygon fill="white" stroke="#666666" points="407,-79 219,-79 219,-49 407,-49 407,-79"/>
<text text-anchor="start" x="227" y="-67" font-family="Helvetica,sans-Serif" font-size="10.00">WolfstagInteractive.Convo</text>
<text text-anchor="middle" x="313" y="-56" font-family="Helvetica,sans-Serif" font-size="10.00">Core.CharacterRepresentationBase</text>
</a>
</g>
</g>
<!-- Node5&#45;&gt;Node1 -->
<g id="edge4_Node000001_Node000005" class="edge">
<title>Node5&#45;&gt;Node1</title>
<g id="a_edge4_Node000001_Node000005"><a xlink:title=" ">
<path fill="none" stroke="#9a32cd" stroke-dasharray="5,2" d="M417.42,-64.39C515.93,-64.76 662.74,-65.31 756.66,-65.66"/>
<polygon fill="#9a32cd" stroke="#9a32cd" points="417.16,-60.89 407.15,-64.35 417.13,-67.89 417.16,-60.89"/>
</a>
</g>
<text text-anchor="middle" x="553" y="-68" font-family="Helvetica,sans-Serif" font-size="10.00" fill="grey"> _representation</text>
</g>
<!-- Node6 -->
<g id="Node000006" class="node">
<title>Node6</title>
<g id="a_Node000006"><a xlink:title=" ">
<polygon fill="white" stroke="#666666" points="139.5,-69.5 42.5,-69.5 42.5,-50.5 139.5,-50.5 139.5,-69.5"/>
<text text-anchor="middle" x="91" y="-57.5" font-family="Helvetica,sans-Serif" font-size="10.00">ScriptableObject</text>
</a>
</g>
</g>
<!-- Node6&#45;&gt;Node5 -->
<g id="edge5_Node000005_Node000006" class="edge">
<title>Node6&#45;&gt;Node5</title>
<g id="a_edge5_Node000005_Node000006"><a xlink:title=" ">
<path fill="none" stroke="#63b8ff" d="M149.99,-61.08C166.17,-61.38 183.77,-61.7 200,-62 206.12,-62.11 212.44,-62.23 218.8,-62.34"/>
<polygon fill="#63b8ff" stroke="#63b8ff" points="149.64,-57.57 139.58,-60.89 149.51,-64.57 149.64,-57.57"/>
</a>
</g>
</g>
<!-- Node9 -->
<g id="Node000009" class="node">
<title>Node9</title>
<g id="a_Node000009"><a xlink:href="classWolfstagInteractive_1_1ConvoCore_1_1CharacterRepresentationBase.html" target="_top" xlink:title="Abstract ScriptableObject base class for all character visual representations.">
<polygon fill="white" stroke="#666666" points="394,-24.5 232,-24.5 232,-5.5 394,-5.5 394,-24.5"/>
<text text-anchor="middle" x="313" y="-12.5" font-family="Helvetica,sans-Serif" font-size="10.00">CharacterRepresentationBase</text>
</a>
</g>
</g>
<!-- Node6&#45;&gt;Node9 -->
<g id="edge9_Node000009_Node000006" class="edge">
<title>Node6&#45;&gt;Node9</title>
<g id="a_edge9_Node000009_Node000006"><a xlink:title=" ">
<path fill="none" stroke="#63b8ff" d="M148.59,-48.42C184.84,-41.01 231.3,-31.51 265.41,-24.53"/>
<polygon fill="#63b8ff" stroke="#63b8ff" points="147.75,-45.02 138.66,-50.46 149.15,-51.88 147.75,-45.02"/>
</a>
</g>
</g>
<!-- Node7 -->
<g id="Node000007" class="node">
<title>Node7</title>
<g id="a_Node000007"><a xlink:href="interfaceWolfstagInteractive_1_1ConvoCore_1_1IEditorPreviewableRepresentation.html" target="_top" xlink:title=" ">
<polygon fill="white" stroke="#666666" points="182,-26.5 0,-26.5 0,-7.5 182,-7.5 182,-26.5"/>
<text text-anchor="middle" x="91" y="-14.5" font-family="Helvetica,sans-Serif" font-size="10.00">IEditorPreviewableRepresentation</text>
</a>
</g>
</g>
<!-- Node7&#45;&gt;Node5 -->
<g id="edge6_Node000005_Node000007" class="edge">
<title>Node7&#45;&gt;Node5</title>
<g id="a_edge6_Node000005_Node000007"><a xlink:title=" ">
<path fill="none" stroke="#63b8ff" d="M146.38,-28.62C175.12,-34.76 210.73,-42.36 241.56,-48.95"/>
<polygon fill="#63b8ff" stroke="#63b8ff" points="147.03,-25.18 136.52,-26.51 145.57,-32.02 147.03,-25.18"/>
</a>
</g>
</g>
<!-- Node7&#45;&gt;Node9 -->
<g id="edge10_Node000009_Node000007" class="edge">
<title>Node7&#45;&gt;Node9</title>
<g id="a_edge10_Node000009_Node000007"><a xlink:title=" ">
<path fill="none" stroke="#63b8ff" d="M192.28,-15.08C194.88,-15.05 197.46,-15.02 200,-15 210.31,-14.9 221.14,-14.85 231.85,-14.82"/>
<polygon fill="#63b8ff" stroke="#63b8ff" points="192.12,-11.58 182.16,-15.21 192.2,-18.58 192.12,-11.58"/>
</a>
</g>
</g>
<!-- Node8 -->
<g id="Node000008" class="node">
<title>Node8</title>
<g id="a_Node000008"><a xlink:href="classWolfstagInteractive_1_1ConvoCore_1_1PrefabCharacterRepresentationData.html" target="_top" xlink:title="Defines how a prefab&#45;based character should be sourced and displayed by ConvoCore.">
<polygon fill="white" stroke="#666666" points="662,-30 444,-30 444,0 662,0 662,-30"/>
<text text-anchor="start" x="452" y="-18" font-family="Helvetica,sans-Serif" font-size="10.00">WolfstagInteractive.Convo</text>
<text text-anchor="middle" x="553" y="-7" font-family="Helvetica,sans-Serif" font-size="10.00">Core.PrefabCharacterRepresentationData</text>
</a>
</g>
</g>
<!-- Node8&#45;&gt;Node1 -->
<g id="edge7_Node000001_Node000008" class="edge">
<title>Node8&#45;&gt;Node1</title>
<g id="a_edge7_Node000001_Node000008"><a xlink:title=" ">
<path fill="none" stroke="#9a32cd" stroke-dasharray="5,2" d="M672.48,-30.07C694.64,-33.34 717.57,-37.02 739,-41 746.29,-42.35 753.82,-43.86 761.37,-45.45"/>
<polygon fill="#9a32cd" stroke="#9a32cd" points="672.75,-26.58 662.35,-28.6 671.75,-33.5 672.75,-26.58"/>
</a>
</g>
<text text-anchor="middle" x="709.5" y="-44" font-family="Helvetica,sans-Serif" font-size="10.00" fill="grey"> _prefabRep</text>
</g>
<!-- Node9&#45;&gt;Node8 -->
<g id="edge8_Node000008_Node000009" class="edge">
<title>Node9&#45;&gt;Node8</title>
<g id="a_edge8_Node000008_Node000009"><a xlink:title=" ">
<path fill="none" stroke="#63b8ff" d="M404.45,-15C417.31,-15 430.65,-15 443.81,-15"/>
<polygon fill="#63b8ff" stroke="#63b8ff" points="404.24,-11.5 394.24,-15 404.24,-18.5 404.24,-11.5"/>
</a>
</g>
</g>
</g>
</svg>
