<?xml version="1.0" encoding="UTF-8" standalone="no"?>
<!DOCTYPE svg PUBLIC "-//W3C//DTD SVG 1.1//EN"
 "http://www.w3.org/Graphics/SVG/1.1/DTD/svg11.dtd">
<!-- Generated by graphviz version 2.43.0 (0)
 -->
<!-- Title: WolfstagInteractive.ConvoCore.ConvoCoreAudioManifest.AudioEntry Pages: 1 -->
<svg width="230pt" height="171pt"
 viewBox="0.00 0.00 230.00 171.00" xmlns="http://www.w3.org/2000/svg" xmlns:xlink="http://www.w3.org/1999/xlink">
<g id="graph0" class="graph" transform="scale(1 1) rotate(0) translate(4 167)">
<title>WolfstagInteractive.ConvoCore.ConvoCoreAudioManifest.AudioEntry</title>
<!-- Node1 -->
<g id="Node000001" class="node">
<title>Node1</title>
<g id="a_Node000001"><a xlink:title=" ">
<polygon fill="#999999" stroke="#666666" points="222,-30 0,-30 0,0 222,0 222,-30"/>
<text text-anchor="start" x="8" y="-18" font-family="Helvetica,sans-Serif" font-size="10.00">WolfstagInteractive.Convo</text>
<text text-anchor="middle" x="111" y="-7" font-family="Helvetica,sans-Serif" font-size="10.00">Core.ConvoCoreAudioManifest.AudioEntry</text>
</a>
</g>
</g>
<!-- Node2 -->
<g id="Node000002" class="node">
<title>Node2</title>
<g id="a_Node000002"><a xlink:href="classWolfstagInteractive_1_1ConvoCore_1_1ConvoAudioReference.html" target="_top" xlink:title="Abstract base for audio references used in ConvoCore&#39;s audio manifest.">
<polygon fill="white" stroke="#666666" points="186,-107 36,-107 36,-77 186,-77 186,-107"/>
<text text-anchor="start" x="44" y="-95" font-family="Helvetica,sans-Serif" font-size="10.00">WolfstagInteractive.Convo</text>
<text text-anchor="middle" x="111" y="-84" font-family="Helvetica,sans-Serif" font-size="10.00">Core.ConvoAudioReference</text>
</a>
</g>
</g>
<!-- Node2&#45;&gt;Node1 -->
<g id="edge1_Node000001_Node000002" class="edge">
<title>Node2&#45;&gt;Node1</title>
<g id="a_edge1_Node000001_Node000002"><a xlink:title=" ">
<path fill="none" stroke="#9a32cd" stroke-dasharray="5,2" d="M111,-66.54C111,-54.45 111,-40.29 111,-30.04"/>
<polygon fill="#9a32cd" stroke="#9a32cd" points="107.5,-66.89 111,-76.89 114.5,-66.89 107.5,-66.89"/>
</a>
</g>
<text text-anchor="middle" x="137.5" y="-51" font-family="Helvetica,sans-Serif" font-size="10.00" fill="grey"> Reference</text>
</g>
<!-- Node3 -->
<g id="Node000003" class="node">
<title>Node3</title>
<g id="a_Node000003"><a xlink:title=" ">
<polygon fill="white" stroke="#666666" points="192,-163 30,-163 30,-144 192,-144 192,-163"/>
<text text-anchor="middle" x="111" y="-151" font-family="Helvetica,sans-Serif" font-size="10.00">UnityEngine::ScriptableObject</text>
</a>
</g>
</g>
<!-- Node3&#45;&gt;Node2 -->
<g id="edge2_Node000002_Node000003" class="edge">
<title>Node3&#45;&gt;Node2</title>
<g id="a_edge2_Node000002_Node000003"><a xlink:title=" ">
<path fill="none" stroke="#63b8ff" d="M111,-133.73C111,-125.09 111,-115 111,-107.02"/>
<polygon fill="#63b8ff" stroke="#63b8ff" points="107.5,-133.98 111,-143.98 114.5,-133.98 107.5,-133.98"/>
</a>
</g>
</g>
</g>
</svg>
