<?xml version="1.0" encoding="UTF-8" standalone="no"?>
<!DOCTYPE svg PUBLIC "-//W3C//DTD SVG 1.1//EN"
 "http://www.w3.org/Graphics/SVG/1.1/DTD/svg11.dtd">
<!-- Generated by graphviz version 2.43.0 (0)
 -->
<!-- Title: WolfstagInteractive.ConvoCore.ConvoCoreSampleUI Pages: 1 -->
<svg width="2140pt" height="468pt"
 viewBox="0.00 0.00 2140.00 467.97" xmlns="http://www.w3.org/2000/svg" xmlns:xlink="http://www.w3.org/1999/xlink">
<g id="graph0" class="graph" transform="scale(1 1) rotate(0) translate(4 463.97)">
<title>WolfstagInteractive.ConvoCore.ConvoCoreSampleUI</title>
<!-- Node1 -->
<g id="Node000001" class="node">
<title>Node1</title>
<g id="a_Node000001"><a xlink:title=" ">
<polygon fill="#999999" stroke="#666666" points="2132,-176.97 1986,-176.97 1986,-146.97 2132,-146.97 2132,-176.97"/>
<text text-anchor="start" x="1994" y="-164.97" font-family="Helvetica,sans-Serif" font-size="10.00">WolfstagInteractive.Convo</text>
<text text-anchor="middle" x="2059" y="-153.97" font-family="Helvetica,sans-Serif" font-size="10.00">Core.ConvoCoreSampleUI</text>
</a>
</g>
</g>
<!-- Node2 -->
<g id="Node000002" class="node">
<title>Node2</title>
<g id="a_Node000002"><a xlink:href="classWolfstagInteractive_1_1ConvoCore_1_1ConvoCoreUIFoundation.html" target="_top" xlink:title="Used as a basis of any UI that can be assigned in the inspector that includes all the base functions ...">
<polygon fill="white" stroke="#666666" points="1794,-151.47 1660,-151.47 1660,-132.47 1794,-132.47 1794,-151.47"/>
<text text-anchor="middle" x="1727" y="-139.47" font-family="Helvetica,sans-Serif" font-size="10.00">ConvoCoreUIFoundation</text>
</a>
</g>
</g>
<!-- Node2&#45;&gt;Node1 -->
<g id="edge1_Node000001_Node000002" class="edge">
<title>Node2&#45;&gt;Node1</title>
<g id="a_edge1_Node000001_Node000002"><a xlink:title=" ">
<path fill="none" stroke="#63b8ff" d="M1804.38,-146.6C1859.1,-149.91 1932.3,-154.35 1986,-157.6"/>
<polygon fill="#63b8ff" stroke="#63b8ff" points="1804.58,-143.1 1794.38,-145.99 1804.15,-150.09 1804.58,-143.1"/>
</a>
</g>
</g>
<!-- Node3 -->
<g id="Node000003" class="node">
<title>Node3</title>
<g id="a_Node000003"><a xlink:title=" ">
<polygon fill="white" stroke="#666666" points="1071,-218.47 978,-218.47 978,-199.47 1071,-199.47 1071,-218.47"/>
<text text-anchor="middle" x="1024.5" y="-206.47" font-family="Helvetica,sans-Serif" font-size="10.00">MonoBehaviour</text>
</a>
</g>
</g>
<!-- Node3&#45;&gt;Node2 -->
<g id="edge2_Node000002_Node000003" class="edge">
<title>Node3&#45;&gt;Node2</title>
<g id="a_edge2_Node000002_Node000003"><a xlink:title=" ">
<path fill="none" stroke="#63b8ff" d="M1061.9,-196.09C1137.95,-170.07 1319.78,-112.35 1478,-96.97 1544.8,-90.47 1563.47,-82.51 1629,-96.97 1659.82,-103.77 1692.48,-121.38 1710.95,-132.45"/>
<polygon fill="#63b8ff" stroke="#63b8ff" points="1060.62,-192.83 1052.31,-199.4 1062.9,-199.45 1060.62,-192.83"/>
</a>
</g>
</g>
<!-- Node5 -->
<g id="Node000005" class="node">
<title>Node5</title>
<g id="a_Node000005"><a xlink:href="classWolfstagInteractive_1_1ConvoCore_1_1ConvoCore.html" target="_top" xlink:title=" ">
<polygon fill="white" stroke="#666666" points="1432.5,-341.97 1286.5,-341.97 1286.5,-311.97 1432.5,-311.97 1432.5,-341.97"/>
<text text-anchor="start" x="1294.5" y="-329.97" font-family="Helvetica,sans-Serif" font-size="10.00">WolfstagInteractive.Convo</text>
<text text-anchor="middle" x="1359.5" y="-318.97" font-family="Helvetica,sans-Serif" font-size="10.00">Core.ConvoCore</text>
</a>
</g>
</g>
<!-- Node3&#45;&gt;Node5 -->
<g id="edge5_Node000005_Node000003" class="edge">
<title>Node3&#45;&gt;Node5</title>
<g id="a_edge5_Node000005_Node000003"><a xlink:title=" ">
<path fill="none" stroke="#63b8ff" d="M1080.85,-221.21C1095.04,-225.47 1109.97,-230.99 1123,-237.97 1132.18,-242.88 1131.83,-248.04 1141,-252.97 1181.87,-274.93 1197.03,-268.16 1241,-282.97 1267.73,-291.97 1297.49,-303.12 1320.37,-311.95"/>
<polygon fill="#63b8ff" stroke="#63b8ff" points="1081.75,-217.82 1071.17,-218.45 1079.83,-224.56 1081.75,-217.82"/>
</a>
</g>
</g>
<!-- Node10 -->
<g id="Node000010" class="node">
<title>Node10</title>
<g id="a_Node000010"><a xlink:href="classWolfstagInteractive_1_1ConvoCore_1_1ConvoCoreUIFoundation.html" target="_top" xlink:title="Used as a basis of any UI that can be assigned in the inspector that includes all the base functions ...">
<polygon fill="white" stroke="#666666" points="1807,-295.97 1647,-295.97 1647,-265.97 1807,-265.97 1807,-295.97"/>
<text text-anchor="start" x="1655" y="-283.97" font-family="Helvetica,sans-Serif" font-size="10.00">WolfstagInteractive.Convo</text>
<text text-anchor="middle" x="1727" y="-272.97" font-family="Helvetica,sans-Serif" font-size="10.00">Core.ConvoCoreUIFoundation</text>
</a>
</g>
</g>
<!-- Node3&#45;&gt;Node10 -->
<g id="edge11_Node000010_Node000003" class="edge">
<title>Node3&#45;&gt;Node10</title>
<g id="a_edge11_Node000010_Node000003"><a xlink:title=" ">
<path fill="none" stroke="#63b8ff" d="M1081.11,-220.48C1166.15,-237.46 1333.85,-268.43 1478,-279.97 1534.33,-284.47 1598.09,-284.62 1646.85,-283.7"/>
<polygon fill="#63b8ff" stroke="#63b8ff" points="1081.65,-217.02 1071.15,-218.48 1080.27,-223.88 1081.65,-217.02"/>
</a>
</g>
</g>
<!-- Node11 -->
<g id="Node000011" class="node">
<title>Node11</title>
<g id="a_Node000011"><a xlink:href="classWolfstagInteractive_1_1ConvoCore_1_1ConvoCorePrefabRepresentationSpawner.html" target="_top" xlink:title=" ">
<polygon fill="white" stroke="#666666" points="1460,-229.47 1259,-229.47 1259,-188.47 1460,-188.47 1460,-229.47"/>
<text text-anchor="start" x="1267" y="-217.47" font-family="Helvetica,sans-Serif" font-size="10.00">WolfstagInteractive.Convo</text>
<text text-anchor="start" x="1267" y="-206.47" font-family="Helvetica,sans-Serif" font-size="10.00">Core.ConvoCorePrefabRepresentation</text>
<text text-anchor="middle" x="1359.5" y="-195.47" font-family="Helvetica,sans-Serif" font-size="10.00">Spawner</text>
</a>
</g>
</g>
<!-- Node3&#45;&gt;Node11 -->
<g id="edge15_Node000011_Node000003" class="edge">
<title>Node3&#45;&gt;Node11</title>
<g id="a_edge15_Node000011_Node000003"><a xlink:title=" ">
<path fill="none" stroke="#63b8ff" d="M1081.36,-208.97C1129.7,-208.97 1200.75,-208.97 1258.81,-208.97"/>
<polygon fill="#63b8ff" stroke="#63b8ff" points="1081.1,-205.47 1071.1,-208.97 1081.1,-212.47 1081.1,-205.47"/>
</a>
</g>
</g>
<!-- Node12 -->
<g id="Node000012" class="node">
<title>Node12</title>
<g id="a_Node000012"><a xlink:href="classWolfstagInteractive_1_1ConvoCore_1_1ConvoCoreDialogueHistoryUI.html" target="_top" xlink:title=" ">
<polygon fill="white" stroke="#666666" points="1452,-72.97 1267,-72.97 1267,-42.97 1452,-42.97 1452,-72.97"/>
<text text-anchor="start" x="1275" y="-60.97" font-family="Helvetica,sans-Serif" font-size="10.00">WolfstagInteractive.Convo</text>
<text text-anchor="middle" x="1359.5" y="-49.97" font-family="Helvetica,sans-Serif" font-size="10.00">Core.ConvoCoreDialogueHistoryUI</text>
</a>
</g>
</g>
<!-- Node3&#45;&gt;Node12 -->
<g id="edge17_Node000012_Node000003" class="edge">
<title>Node3&#45;&gt;Node12</title>
<g id="a_edge17_Node000012_Node000003"><a xlink:title=" ">
<path fill="none" stroke="#63b8ff" d="M1041.51,-192.08C1062.43,-170.98 1101.14,-135.2 1141,-114.97 1148.19,-111.32 1236.73,-88.63 1298.59,-73"/>
<polygon fill="#63b8ff" stroke="#63b8ff" points="1038.86,-189.78 1034.39,-199.39 1043.88,-194.66 1038.86,-189.78"/>
</a>
</g>
</g>
<!-- Node4 -->
<g id="Node000004" class="node">
<title>Node4</title>
<g id="a_Node000004"><a xlink:href="interfaceWolfstagInteractive_1_1ConvoCore_1_1IUIFoundation.html" target="_top" xlink:title=" ">
<polygon fill="white" stroke="#666666" points="1401.5,-168.47 1317.5,-168.47 1317.5,-149.47 1401.5,-149.47 1401.5,-168.47"/>
<text text-anchor="middle" x="1359.5" y="-156.47" font-family="Helvetica,sans-Serif" font-size="10.00">IUIFoundation</text>
</a>
</g>
</g>
<!-- Node4&#45;&gt;Node2 -->
<g id="edge3_Node000002_Node000004" class="edge">
<title>Node4&#45;&gt;Node2</title>
<g id="a_edge3_Node000002_Node000004"><a xlink:title=" ">
<path fill="none" stroke="#63b8ff" d="M1411.72,-156.58C1476.64,-153.56 1588.67,-148.35 1659.96,-145.04"/>
<polygon fill="#63b8ff" stroke="#63b8ff" points="1411.54,-153.09 1401.72,-157.05 1411.87,-160.08 1411.54,-153.09"/>
</a>
</g>
</g>
<!-- Node4&#45;&gt;Node10 -->
<g id="edge12_Node000010_Node000004" class="edge">
<title>Node4&#45;&gt;Node10</title>
<g id="a_edge12_Node000010_Node000004"><a xlink:title=" ">
<path fill="none" stroke="#63b8ff" d="M1411.58,-168.08C1427.25,-171.33 1444.45,-175.34 1460,-179.97 1468.23,-182.42 1469.74,-184.62 1478,-186.97 1543.65,-205.64 1565.88,-188.99 1629,-214.97 1659.51,-227.52 1690.25,-250.62 1708.71,-265.88"/>
<polygon fill="#63b8ff" stroke="#63b8ff" points="1412.03,-164.61 1401.54,-166.07 1410.66,-171.47 1412.03,-164.61"/>
</a>
</g>
</g>
<!-- Node5&#45;&gt;Node2 -->
<g id="edge4_Node000002_Node000005" class="edge">
<title>Node5&#45;&gt;Node2</title>
<g id="a_edge4_Node000002_Node000005"><a xlink:title=" ">
<path fill="none" stroke="#9a32cd" stroke-dasharray="5,2" d="M1381.66,-304.76C1403.67,-283.05 1440.13,-250.73 1478,-232.97 1540.03,-203.87 1575.72,-245.03 1629,-201.97 1644.48,-189.46 1631.73,-173.73 1647,-160.97 1651.54,-157.16 1656.72,-154.1 1662.21,-151.63"/>
<polygon fill="#9a32cd" stroke="#9a32cd" points="1379.08,-302.4 1374.51,-311.96 1384.04,-307.34 1379.08,-302.4"/>
</a>
</g>
<text text-anchor="middle" x="1553.5" y="-235.97" font-family="Helvetica,sans-Serif" font-size="10.00" fill="grey"> ConvoCoreInstance</text>
</g>
<!-- Node5&#45;&gt;Node10 -->
<g id="edge13_Node000010_Node000005" class="edge">
<title>Node5&#45;&gt;Node10</title>
<g id="a_edge13_Node000010_Node000005"><a xlink:title=" ">
<path fill="none" stroke="#9a32cd" stroke-dasharray="5,2" d="M1442.89,-341.85C1496.73,-348.64 1568.1,-352.03 1629,-335.97 1658.2,-328.26 1687.83,-309.52 1706.53,-296.06"/>
<polygon fill="#9a32cd" stroke="#9a32cd" points="1443.08,-338.35 1432.7,-340.5 1442.16,-345.29 1443.08,-338.35"/>
</a>
</g>
<text text-anchor="middle" x="1553.5" y="-349.97" font-family="Helvetica,sans-Serif" font-size="10.00" fill="grey"> ConvoCoreInstance</text>
</g>
<!-- Node6 -->
<g id="Node000006" class="node">
<title>Node6</title>
<g id="a_Node000006"><a xlink:href="interfaceWolfstagInteractive_1_1ConvoCore_1_1IConvoCoreRunner.html" target="_top" xlink:title=" ">
<polygon fill="white" stroke="#666666" points="1078,-325.47 971,-325.47 971,-306.47 1078,-306.47 1078,-325.47"/>
<text text-anchor="middle" x="1024.5" y="-313.47" font-family="Helvetica,sans-Serif" font-size="10.00">IConvoCoreRunner</text>
</a>
</g>
</g>
<!-- Node6&#45;&gt;Node5 -->
<g id="edge6_Node000005_Node000006" class="edge">
<title>Node6&#45;&gt;Node5</title>
<g id="a_edge6_Node000005_Node000006"><a xlink:title=" ">
<path fill="none" stroke="#63b8ff" d="M1088.47,-318.05C1144.85,-319.91 1227.48,-322.64 1286.47,-324.59"/>
<polygon fill="#63b8ff" stroke="#63b8ff" points="1088.37,-314.54 1078.26,-317.71 1088.14,-321.54 1088.37,-314.54"/>
</a>
</g>
</g>
<!-- Node7 -->
<g id="Node000007" class="node">
<title>Node7</title>
<g id="a_Node000007"><a xlink:href="classWolfstagInteractive_1_1ConvoCore_1_1ConvoCoreConversationData.html" target="_top" xlink:title=" ">
<polygon fill="white" stroke="#666666" points="481,-278.97 298,-278.97 298,-248.97 481,-248.97 481,-278.97"/>
<text text-anchor="start" x="306" y="-266.97" font-family="Helvetica,sans-Serif" font-size="10.00">WolfstagInteractive.Convo</text>
<text text-anchor="middle" x="389.5" y="-255.97" font-family="Helvetica,sans-Serif" font-size="10.00">Core.ConvoCoreConversationData</text>
</a>
</g>
</g>
<!-- Node7&#45;&gt;Node5 -->
<g id="edge7_Node000005_Node000007" class="edge">
<title>Node7&#45;&gt;Node5</title>
<g id="a_edge7_Node000005_Node000007"><a xlink:title=" ">
<path fill="none" stroke="#9a32cd" stroke-dasharray="5,2" d="M450.58,-281.85C548.89,-310.07 750.73,-363.73 926,-382.97 1013.03,-392.52 1035.78,-390.67 1123,-382.97 1190.19,-377.03 1265.7,-356.53 1312.68,-342.05"/>
<polygon fill="#9a32cd" stroke="#9a32cd" points="451.41,-278.44 440.83,-279.03 449.46,-285.17 451.41,-278.44"/>
</a>
</g>
<text text-anchor="middle" x="805" y="-382.97" font-family="Helvetica,sans-Serif" font-size="10.00" fill="grey"> ConversationData</text>
</g>
<!-- Node8 -->
<g id="Node000008" class="node">
<title>Node8</title>
<g id="a_Node000008"><a xlink:title=" ">
<polygon fill="white" stroke="#666666" points="97,-151.47 0,-151.47 0,-132.47 97,-132.47 97,-151.47"/>
<text text-anchor="middle" x="48.5" y="-139.47" font-family="Helvetica,sans-Serif" font-size="10.00">ScriptableObject</text>
</a>
</g>
</g>
<!-- Node8&#45;&gt;Node7 -->
<g id="edge8_Node000007_Node000008" class="edge">
<title>Node8&#45;&gt;Node7</title>
<g id="a_edge8_Node000007_Node000008"><a xlink:title=" ">
<path fill="none" stroke="#63b8ff" d="M70.37,-157.51C86.9,-169.21 110.98,-184.89 134,-194.97 190.72,-219.79 258.55,-237.64 309.91,-248.96"/>
<polygon fill="#63b8ff" stroke="#63b8ff" points="72.17,-154.49 62.01,-151.48 68.07,-160.17 72.17,-154.49"/>
</a>
</g>
</g>
<!-- Node13 -->
<g id="Node000013" class="node">
<title>Node13</title>
<g id="a_Node000013"><a xlink:href="classWolfstagInteractive_1_1ConvoCore_1_1ConvoCoreSettings.html" target="_top" xlink:title=" ">
<polygon fill="white" stroke="#666666" points="280,-156.97 134,-156.97 134,-126.97 280,-126.97 280,-156.97"/>
<text text-anchor="start" x="142" y="-144.97" font-family="Helvetica,sans-Serif" font-size="10.00">WolfstagInteractive.Convo</text>
<text text-anchor="middle" x="207" y="-133.97" font-family="Helvetica,sans-Serif" font-size="10.00">Core.ConvoCoreSettings</text>
</a>
</g>
</g>
<!-- Node8&#45;&gt;Node13 -->
<g id="edge19_Node000013_Node000008" class="edge">
<title>Node8&#45;&gt;Node13</title>
<g id="a_edge19_Node000013_Node000008"><a xlink:title=" ">
<path fill="none" stroke="#63b8ff" d="M107.31,-141.97C116,-141.97 125.05,-141.97 133.99,-141.97"/>
<polygon fill="#63b8ff" stroke="#63b8ff" points="107.31,-138.47 97.31,-141.97 107.31,-145.47 107.31,-138.47"/>
</a>
</g>
</g>
<!-- Node15 -->
<g id="Node000015" class="node">
<title>Node15</title>
<g id="a_Node000015"><a xlink:href="classWolfstagInteractive_1_1ConvoCore_1_1ConvoCoreHistoryRendererProfile.html" target="_top" xlink:title=" ">
<polygon fill="white" stroke="#666666" points="908,-36.97 702,-36.97 702,-6.97 908,-6.97 908,-36.97"/>
<text text-anchor="start" x="710" y="-24.97" font-family="Helvetica,sans-Serif" font-size="10.00">WolfstagInteractive.Convo</text>
<text text-anchor="middle" x="805" y="-13.97" font-family="Helvetica,sans-Serif" font-size="10.00">Core.ConvoCoreHistoryRendererProfile</text>
</a>
</g>
</g>
<!-- Node8&#45;&gt;Node15 -->
<g id="edge23_Node000015_Node000008" class="edge">
<title>Node8&#45;&gt;Node15</title>
<g id="a_edge23_Node000015_Node000008"><a xlink:title=" ">
<path fill="none" stroke="#63b8ff" d="M85.93,-129.07C133.9,-112.64 221.18,-84.61 298,-69.97 436.47,-43.58 599.17,-31.43 701.93,-26.03"/>
<polygon fill="#63b8ff" stroke="#63b8ff" points="84.62,-125.82 76.31,-132.39 86.9,-132.44 84.62,-125.82"/>
</a>
</g>
</g>
<!-- Node9 -->
<g id="Node000009" class="node">
<title>Node9</title>
<g id="a_Node000009"><a xlink:href="interfaceWolfstagInteractive_1_1ConvoCore_1_1IConvoInput.html" target="_top" xlink:title=" ">
<polygon fill="white" stroke="#666666" points="1097.5,-459.97 951.5,-459.97 951.5,-429.97 1097.5,-429.97 1097.5,-459.97"/>
<text text-anchor="start" x="959.5" y="-447.97" font-family="Helvetica,sans-Serif" font-size="10.00">WolfstagInteractive.Convo</text>
<text text-anchor="middle" x="1024.5" y="-436.97" font-family="Helvetica,sans-Serif" font-size="10.00">Core.IConvoInput</text>
</a>
</g>
</g>
<!-- Node9&#45;&gt;Node5 -->
<g id="edge9_Node000005_Node000009" class="edge">
<title>Node9&#45;&gt;Node5</title>
<g id="a_edge9_Node000005_Node000009"><a xlink:title=" ">
<path fill="none" stroke="#9a32cd" stroke-dasharray="5,2" d="M1107.78,-443.73C1149.07,-440.69 1199.08,-433.25 1241,-415.97 1282.88,-398.7 1323.02,-362.77 1343.8,-342.23"/>
<polygon fill="#9a32cd" stroke="#9a32cd" points="1107.5,-440.24 1097.75,-444.4 1107.96,-447.23 1107.5,-440.24"/>
</a>
</g>
<text text-anchor="middle" x="1191" y="-442.97" font-family="Helvetica,sans-Serif" font-size="10.00" fill="grey"> Input</text>
</g>
<!-- Node10&#45;&gt;Node5 -->
<g id="edge10_Node000005_Node000010" class="edge">
<title>Node10&#45;&gt;Node5</title>
<g id="a_edge10_Node000005_Node000010"><a xlink:title=" ">
<path fill="none" stroke="#9a32cd" stroke-dasharray="5,2" d="M1662.01,-298.34C1651.06,-300.87 1639.75,-303.21 1629,-304.97 1563,-315.76 1486.95,-321.36 1432.68,-324.2"/>
<polygon fill="#9a32cd" stroke="#9a32cd" points="1663.02,-301.7 1671.94,-295.97 1661.4,-294.89 1663.02,-301.7"/>
</a>
</g>
<text text-anchor="middle" x="1553.5" y="-323.97" font-family="Helvetica,sans-Serif" font-size="10.00" fill="grey"> ConversationUI</text>
</g>
<!-- Node11&#45;&gt;Node2 -->
<g id="edge29_Node000002_Node000011" class="edge">
<title>Node11&#45;&gt;Node2</title>
<g id="a_edge29_Node000002_Node000011"><a xlink:title=" ">
<path fill="none" stroke="#9a32cd" stroke-dasharray="5,2" d="M1470.22,-188.85C1537.78,-176.47 1621.27,-161.16 1674.09,-151.48"/>
<polygon fill="#9a32cd" stroke="#9a32cd" points="1469.58,-185.41 1460.37,-190.66 1470.84,-192.3 1469.58,-185.41"/>
</a>
</g>
<text text-anchor="middle" x="1553.5" y="-189.97" font-family="Helvetica,sans-Serif" font-size="10.00" fill="grey"> PrefabRepresentationSpawner</text>
</g>
<!-- Node11&#45;&gt;Node10 -->
<g id="edge14_Node000010_Node000011" class="edge">
<title>Node11&#45;&gt;Node10</title>
<g id="a_edge14_Node000010_Node000011"><a xlink:title=" ">
<path fill="none" stroke="#9a32cd" stroke-dasharray="5,2" d="M1428.94,-232.6C1444.9,-237.53 1461.94,-242.33 1478,-245.97 1509.28,-253.05 1586.84,-263.59 1646.97,-271.25"/>
<polygon fill="#9a32cd" stroke="#9a32cd" points="1429.74,-229.19 1419.15,-229.52 1427.64,-235.86 1429.74,-229.19"/>
</a>
</g>
<text text-anchor="middle" x="1553.5" y="-270.97" font-family="Helvetica,sans-Serif" font-size="10.00" fill="grey"> PrefabRepresentationSpawner</text>
</g>
<!-- Node12&#45;&gt;Node2 -->
<g id="edge30_Node000002_Node000012" class="edge">
<title>Node12&#45;&gt;Node2</title>
<g id="a_edge30_Node000002_Node000012"><a xlink:title=" ">
<path fill="none" stroke="#9a32cd" stroke-dasharray="5,2" d="M1456.94,-41.94C1509.41,-37.14 1574.53,-37.66 1629,-57.97 1669.49,-73.06 1704.32,-113.52 1718.81,-132.23"/>
<polygon fill="#9a32cd" stroke="#9a32cd" points="1456.57,-38.46 1446.96,-42.93 1457.26,-45.43 1456.57,-38.46"/>
</a>
</g>
<text text-anchor="middle" x="1553.5" y="-60.97" font-family="Helvetica,sans-Serif" font-size="10.00" fill="grey"> ConvoCoreDialogueHistoryUI</text>
</g>
<!-- Node12&#45;&gt;Node10 -->
<g id="edge16_Node000010_Node000012" class="edge">
<title>Node12&#45;&gt;Node10</title>
<g id="a_edge16_Node000010_Node000012"><a xlink:title=" ">
<path fill="none" stroke="#9a32cd" stroke-dasharray="5,2" d="M1441.42,-75.37C1510.27,-91.68 1602.16,-117.44 1629,-143.97 1646.99,-161.75 1633.97,-176.28 1647,-197.97 1663.3,-225.08 1689.82,-250.53 1707.59,-265.92"/>
<polygon fill="#9a32cd" stroke="#9a32cd" points="1441.97,-71.91 1431.43,-73.04 1440.37,-78.72 1441.97,-71.91"/>
</a>
</g>
<text text-anchor="middle" x="1553.5" y="-146.97" font-family="Helvetica,sans-Serif" font-size="10.00" fill="grey"> ConvoCoreDialogueHistoryUI</text>
</g>
<!-- Node13&#45;&gt;Node12 -->
<g id="edge18_Node000012_Node000013" class="edge">
<title>Node13&#45;&gt;Node12</title>
<g id="a_edge18_Node000012_Node000013"><a xlink:title=" ">
<path fill="none" stroke="#9a32cd" stroke-dasharray="5,2" d="M290.39,-135.95C499.23,-120.7 1048.21,-80.62 1266.8,-64.66"/>
<polygon fill="#9a32cd" stroke="#9a32cd" points="290.12,-132.46 280.4,-136.68 290.63,-139.44 290.12,-132.46"/>
</a>
</g>
<text text-anchor="middle" x="805" y="-108.97" font-family="Helvetica,sans-Serif" font-size="10.00" fill="grey"> convoCoreSettings</text>
</g>
<!-- Node13&#45;&gt;Node13 -->
<g id="edge20_Node000013_Node000013" class="edge">
<title>Node13&#45;&gt;Node13</title>
<g id="a_edge20_Node000013_Node000013"><a xlink:title=" ">
<path fill="none" stroke="#9a32cd" stroke-dasharray="5,2" d="M191.25,-167.56C193.4,-171.94 198.65,-174.97 207,-174.97 221.06,-174.97 226.34,-166.37 222.82,-157.24"/>
<polygon fill="#9a32cd" stroke="#9a32cd" points="194.74,-167.22 191.18,-157.24 187.74,-167.26 194.74,-167.22"/>
</a>
</g>
<text text-anchor="middle" x="207" y="-177.97" font-family="Helvetica,sans-Serif" font-size="10.00" fill="grey"> _instance</text>
</g>
<!-- Node17 -->
<g id="Node000017" class="node">
<title>Node17</title>
<g id="a_Node000017"><a xlink:href="classWolfstagInteractive_1_1ConvoCore_1_1ConvoCoreLanguageManager.html" target="_top" xlink:title=" ">
<polygon fill="white" stroke="#666666" points="684,-236.97 499,-236.97 499,-206.97 684,-206.97 684,-236.97"/>
<text text-anchor="start" x="507" y="-224.97" font-family="Helvetica,sans-Serif" font-size="10.00">WolfstagInteractive.Convo</text>
<text text-anchor="middle" x="591.5" y="-213.97" font-family="Helvetica,sans-Serif" font-size="10.00">Core.ConvoCoreLanguageManager</text>
</a>
</g>
</g>
<!-- Node13&#45;&gt;Node17 -->
<g id="edge27_Node000017_Node000013" class="edge">
<title>Node13&#45;&gt;Node17</title>
<g id="a_edge27_Node000017_Node000013"><a xlink:title=" ">
<path fill="none" stroke="#9a32cd" stroke-dasharray="5,2" d="M289.76,-159.07C357.72,-173.28 453.48,-193.31 518.55,-206.92"/>
<polygon fill="#9a32cd" stroke="#9a32cd" points="290.45,-155.63 279.95,-157.01 289.02,-162.49 290.45,-155.63"/>
</a>
</g>
<text text-anchor="middle" x="389.5" y="-200.97" font-family="Helvetica,sans-Serif" font-size="10.00" fill="grey"> _convoCoreSettings</text>
</g>
<!-- Node14 -->
<g id="Node000014" class="node">
<title>Node14</title>
<g id="a_Node000014"><a xlink:href="interfaceWolfstagInteractive_1_1ConvoCore_1_1IConvoCoreHistoryRenderer.html" target="_top" xlink:title="Base contract for any dialogue history renderer.">
<polygon fill="white" stroke="#666666" points="1113.5,-55.97 935.5,-55.97 935.5,-25.97 1113.5,-25.97 1113.5,-55.97"/>
<text text-anchor="start" x="943.5" y="-43.97" font-family="Helvetica,sans-Serif" font-size="10.00">WolfstagInteractive.Convo</text>
<text text-anchor="middle" x="1024.5" y="-32.97" font-family="Helvetica,sans-Serif" font-size="10.00">Core.IConvoCoreHistoryRenderer</text>
</a>
</g>
</g>
<!-- Node14&#45;&gt;Node12 -->
<g id="edge21_Node000012_Node000014" class="edge">
<title>Node14&#45;&gt;Node12</title>
<g id="a_edge21_Node000012_Node000014"><a xlink:title=" ">
<path fill="none" stroke="#9a32cd" stroke-dasharray="5,2" d="M1123.81,-45.26C1160.58,-46.93 1202.71,-48.94 1241,-50.97 1249.37,-51.41 1258.07,-51.89 1266.78,-52.39"/>
<polygon fill="#9a32cd" stroke="#9a32cd" points="1123.73,-41.75 1113.59,-44.79 1123.42,-48.74 1123.73,-41.75"/>
</a>
</g>
<text text-anchor="middle" x="1191" y="-53.97" font-family="Helvetica,sans-Serif" font-size="10.00" fill="grey"> _renderer</text>
</g>
<!-- Node15&#45;&gt;Node12 -->
<g id="edge22_Node000012_Node000015" class="edge">
<title>Node15&#45;&gt;Node12</title>
<g id="a_edge22_Node000012_Node000015"><a xlink:title=" ">
<path fill="none" stroke="#9a32cd" stroke-dasharray="5,2" d="M918.21,-6.54C920.83,-6.33 923.43,-6.14 926,-5.97 1013.36,-0.17 1035.96,3.53 1123,-5.97 1186.68,-12.91 1258.36,-30.13 1305.74,-42.86"/>
<polygon fill="#9a32cd" stroke="#9a32cd" points="917.69,-3.07 908.03,-7.43 918.3,-10.04 917.69,-3.07"/>
</a>
</g>
<text text-anchor="middle" x="1024.5" y="-8.97" font-family="Helvetica,sans-Serif" font-size="10.00" fill="grey"> _activeProfile</text>
</g>
<!-- Node16 -->
<g id="Node000016" class="node">
<title>Node16</title>
<g id="a_Node000016"><a xlink:href="classWolfstagInteractive_1_1ConvoCore_1_1ConvoCoreDialogueLocalizationHandler.html" target="_top" xlink:title=" ">
<polygon fill="white" stroke="#666666" points="1123,-287.47 926,-287.47 926,-246.47 1123,-246.47 1123,-287.47"/>
<text text-anchor="start" x="934" y="-275.47" font-family="Helvetica,sans-Serif" font-size="10.00">WolfstagInteractive.Convo</text>
<text text-anchor="start" x="934" y="-264.47" font-family="Helvetica,sans-Serif" font-size="10.00">Core.ConvoCoreDialogueLocalization</text>
<text text-anchor="middle" x="1024.5" y="-253.47" font-family="Helvetica,sans-Serif" font-size="10.00">Handler</text>
</a>
</g>
</g>
<!-- Node16&#45;&gt;Node5 -->
<g id="edge24_Node000005_Node000016" class="edge">
<title>Node16&#45;&gt;Node5</title>
<g id="a_edge24_Node000005_Node000016"><a xlink:title=" ">
<path fill="none" stroke="#9a32cd" stroke-dasharray="5,2" d="M1133.29,-284.97C1167.73,-290.85 1206,-297.54 1241,-303.97 1255.72,-306.67 1271.45,-309.67 1286.47,-312.59"/>
<polygon fill="#9a32cd" stroke="#9a32cd" points="1133.65,-281.48 1123.21,-283.25 1132.48,-288.38 1133.65,-281.48"/>
</a>
</g>
<text text-anchor="middle" x="1191" y="-306.97" font-family="Helvetica,sans-Serif" font-size="10.00" fill="grey"> LocalizationHandler</text>
</g>
<!-- Node17&#45;&gt;Node16 -->
<g id="edge25_Node000016_Node000017" class="edge">
<title>Node17&#45;&gt;Node16</title>
<g id="a_edge25_Node000016_Node000017"><a xlink:title=" ">
<path fill="none" stroke="#9a32cd" stroke-dasharray="5,2" d="M694.33,-232.6C764.38,-239.91 856.88,-249.57 925.98,-256.78"/>
<polygon fill="#9a32cd" stroke="#9a32cd" points="694.48,-229.09 684.17,-231.54 693.75,-236.06 694.48,-229.09"/>
</a>
</g>
<text text-anchor="middle" x="805" y="-256.97" font-family="Helvetica,sans-Serif" font-size="10.00" fill="grey"> _convoCoreLanguageManager</text>
</g>
<!-- Node17&#45;&gt;Node17 -->
<g id="edge26_Node000017_Node000017" class="edge">
<title>Node17&#45;&gt;Node17</title>
<g id="a_edge26_Node000017_Node000017"><a xlink:title=" ">
<path fill="none" stroke="#9a32cd" stroke-dasharray="5,2" d="M556.14,-247.56C560.97,-251.94 572.76,-254.97 591.5,-254.97 623.06,-254.97 634.9,-246.37 627.01,-237.24"/>
<polygon fill="#9a32cd" stroke="#9a32cd" points="559.64,-247.19 555.99,-237.24 552.64,-247.29 559.64,-247.19"/>
</a>
</g>
<text text-anchor="middle" x="591.5" y="-257.97" font-family="Helvetica,sans-Serif" font-size="10.00" fill="grey"> _instance</text>
</g>
<!-- Node18 -->
<g id="Node000018" class="node">
<title>Node18</title>
<g id="a_Node000018"><a xlink:href="interfaceWolfstagInteractive_1_1ConvoCore_1_1IConversationContext.html" target="_top" xlink:title="Provides optional runtime context for branch evaluation.">
<polygon fill="white" stroke="#666666" points="1098.5,-373.97 950.5,-373.97 950.5,-343.97 1098.5,-343.97 1098.5,-373.97"/>
<text text-anchor="start" x="958.5" y="-361.97" font-family="Helvetica,sans-Serif" font-size="10.00">WolfstagInteractive.Convo</text>
<text text-anchor="middle" x="1024.5" y="-350.97" font-family="Helvetica,sans-Serif" font-size="10.00">Core.IConversationContext</text>
</a>
</g>
</g>
<!-- Node18&#45;&gt;Node5 -->
<g id="edge28_Node000005_Node000018" class="edge">
<title>Node18&#45;&gt;Node5</title>
<g id="a_edge28_Node000005_Node000018"><a xlink:title=" ">
<path fill="none" stroke="#9a32cd" stroke-dasharray="5,2" d="M1108.59,-350.98C1163.28,-345.73 1234.15,-338.92 1286.45,-333.89"/>
<polygon fill="#9a32cd" stroke="#9a32cd" points="1108.2,-347.5 1098.58,-351.94 1108.87,-354.47 1108.2,-347.5"/>
</a>
</g>
<text text-anchor="middle" x="1191" y="-349.97" font-family="Helvetica,sans-Serif" font-size="10.00" fill="grey"> _context</text>
</g>
<!-- Node19 -->
<g id="Node000019" class="node">
<title>Node19</title>
<g id="a_Node000019"><a xlink:title=" ">
<polygon fill="white" stroke="#666666" points="1765,-188.47 1689,-188.47 1689,-169.47 1765,-169.47 1765,-188.47"/>
<text text-anchor="middle" x="1727" y="-176.47" font-family="Helvetica,sans-Serif" font-size="10.00">UnityEngine</text>
</a>
</g>
</g>
<!-- Node19&#45;&gt;Node1 -->
<g id="edge31_Node000001_Node000019" class="edge">
<title>Node19&#45;&gt;Node1</title>
<g id="a_edge31_Node000001_Node000019"><a xlink:title=" ">
<path fill="none" stroke="#9a32cd" stroke-dasharray="5,2" d="M1775.39,-176.52C1830.47,-173.69 1921.96,-168.97 1985.87,-165.68"/>
<polygon fill="#9a32cd" stroke="#9a32cd" points="1775.02,-173.04 1765.21,-177.05 1775.38,-180.03 1775.02,-173.04"/>
</a>
</g>
<text text-anchor="middle" x="1896.5" y="-263.97" font-family="Helvetica,sans-Serif" font-size="10.00" fill="grey"> ContinueButton</text>
<text text-anchor="start" x="1825" y="-252.97" font-family="Helvetica,sans-Serif" font-size="10.00" fill="grey">DialogueHistoryContent</text>
<text text-anchor="middle" x="1896.5" y="-241.97" font-family="Helvetica,sans-Serif" font-size="10.00" fill="grey">Background</text>
<text text-anchor="middle" x="1896.5" y="-230.97" font-family="Helvetica,sans-Serif" font-size="10.00" fill="grey">FullBodyImageCenter</text>
<text text-anchor="middle" x="1896.5" y="-219.97" font-family="Helvetica,sans-Serif" font-size="10.00" fill="grey">FullBodyImageLeft</text>
<text text-anchor="middle" x="1896.5" y="-208.97" font-family="Helvetica,sans-Serif" font-size="10.00" fill="grey">FullBodyImageRight</text>
<text text-anchor="middle" x="1896.5" y="-197.97" font-family="Helvetica,sans-Serif" font-size="10.00" fill="grey">PreviousLineButton</text>
<text text-anchor="middle" x="1896.5" y="-186.97" font-family="Helvetica,sans-Serif" font-size="10.00" fill="grey">SpeakerPortraitImage</text>
<text text-anchor="middle" x="1896.5" y="-175.97" font-family="Helvetica,sans-Serif" font-size="10.00" fill="grey">ToggleDialogueHistoryButton</text>
</g>
</g>
</svg>
