<?xml version="1.0" encoding="UTF-8" standalone="no"?>
<!DOCTYPE svg PUBLIC "-//W3C//DTD SVG 1.1//EN"
 "http://www.w3.org/Graphics/SVG/1.1/DTD/svg11.dtd">
<!-- Generated by graphviz version 2.43.0 (0)
 -->
<!-- Title: WolfstagInteractive.ConvoCore.ConvoCoreSampleUI3D Pages: 1 -->
<svg width="2246pt" height="600pt"
 viewBox="0.00 0.00 2246.00 599.96" xmlns="http://www.w3.org/2000/svg" xmlns:xlink="http://www.w3.org/1999/xlink">
<g id="graph0" class="graph" transform="scale(1 1) rotate(0) translate(4 595.96)">
<title>WolfstagInteractive.ConvoCore.ConvoCoreSampleUI3D</title>
<!-- Node1 -->
<g id="Node000001" class="node">
<title>Node1</title>
<g id="a_Node000001"><a xlink:title="World&#45;space dialogue UI for 3D character conversations.">
<polygon fill="#999999" stroke="#666666" points="2238,-114.82 2082,-114.82 2082,-84.82 2238,-84.82 2238,-114.82"/>
<text text-anchor="start" x="2090" y="-102.82" font-family="Helvetica,sans-Serif" font-size="10.00">WolfstagInteractive.Convo</text>
<text text-anchor="middle" x="2160" y="-91.82" font-family="Helvetica,sans-Serif" font-size="10.00">Core.ConvoCoreSampleUI3D</text>
</a>
</g>
</g>
<!-- Node2 -->
<g id="Node000002" class="node">
<title>Node2</title>
<g id="a_Node000002"><a xlink:href="classWolfstagInteractive_1_1ConvoCore_1_1ConvoCoreUIFoundation.html" target="_top" xlink:title="Used as a basis of any UI that can be assigned in the inspector that includes all the base functions ...">
<polygon fill="white" stroke="#666666" points="1861.5,-466.32 1727.5,-466.32 1727.5,-447.32 1861.5,-447.32 1861.5,-466.32"/>
<text text-anchor="middle" x="1794.5" y="-454.32" font-family="Helvetica,sans-Serif" font-size="10.00">ConvoCoreUIFoundation</text>
</a>
</g>
</g>
<!-- Node2&#45;&gt;Node1 -->
<g id="edge1_Node000001_Node000002" class="edge">
<title>Node2&#45;&gt;Node1</title>
<g id="a_edge1_Node000001_Node000002"><a xlink:title=" ">
<path fill="none" stroke="#63b8ff" d="M1813.21,-440.36C1833.21,-421.7 1866.67,-390.31 1895,-362.82 1990.89,-269.79 2103.86,-155.72 2143.96,-115.08"/>
<polygon fill="#63b8ff" stroke="#63b8ff" points="1810.69,-437.92 1805.75,-447.3 1815.46,-443.04 1810.69,-437.92"/>
</a>
</g>
</g>
<!-- Node3 -->
<g id="Node000003" class="node">
<title>Node3</title>
<g id="a_Node000003"><a xlink:title=" ">
<polygon fill="white" stroke="#666666" points="1112,-512.32 1019,-512.32 1019,-493.32 1112,-493.32 1112,-512.32"/>
<text text-anchor="middle" x="1065.5" y="-500.32" font-family="Helvetica,sans-Serif" font-size="10.00">MonoBehaviour</text>
</a>
</g>
</g>
<!-- Node3&#45;&gt;Node2 -->
<g id="edge2_Node000002_Node000003" class="edge">
<title>Node3&#45;&gt;Node2</title>
<g id="a_edge2_Node000002_Node000003"><a xlink:title=" ">
<path fill="none" stroke="#63b8ff" d="M1122.35,-506.47C1230.14,-512.44 1474.06,-520.78 1676,-489.82 1707.63,-484.97 1742.82,-474.36 1766.38,-466.47"/>
<polygon fill="#63b8ff" stroke="#63b8ff" points="1122.53,-502.97 1112.35,-505.9 1122.13,-509.96 1122.53,-502.97"/>
</a>
</g>
</g>
<!-- Node5 -->
<g id="Node000005" class="node">
<title>Node5</title>
<g id="a_Node000005"><a xlink:href="classWolfstagInteractive_1_1ConvoCore_1_1ConvoCore.html" target="_top" xlink:title="Main conversation runner MonoBehaviour.">
<polygon fill="white" stroke="#666666" points="1479,-293.82 1333,-293.82 1333,-263.82 1479,-263.82 1479,-293.82"/>
<text text-anchor="start" x="1341" y="-281.82" font-family="Helvetica,sans-Serif" font-size="10.00">WolfstagInteractive.Convo</text>
<text text-anchor="middle" x="1406" y="-270.82" font-family="Helvetica,sans-Serif" font-size="10.00">Core.ConvoCore</text>
</a>
</g>
</g>
<!-- Node3&#45;&gt;Node5 -->
<g id="edge5_Node000005_Node000003" class="edge">
<title>Node3&#45;&gt;Node5</title>
<g id="a_edge5_Node000005_Node000003"><a xlink:title=" ">
<path fill="none" stroke="#63b8ff" d="M1088.05,-487.15C1108.45,-471.91 1139.51,-447.64 1164,-423.82 1172.81,-415.25 1172.48,-410.59 1182,-402.82 1241.7,-354.06 1323.27,-314.3 1369.39,-293.83"/>
<polygon fill="#63b8ff" stroke="#63b8ff" points="1085.7,-484.53 1079.74,-493.29 1089.87,-490.16 1085.7,-484.53"/>
</a>
</g>
</g>
<!-- Node10 -->
<g id="Node000010" class="node">
<title>Node10</title>
<g id="a_Node000010"><a xlink:href="classWolfstagInteractive_1_1ConvoCore_1_1ConvoCoreUIFoundation.html" target="_top" xlink:title="Used as a basis of any UI that can be assigned in the inspector that includes all the base functions ...">
<polygon fill="white" stroke="#666666" points="1874.5,-353.82 1714.5,-353.82 1714.5,-323.82 1874.5,-323.82 1874.5,-353.82"/>
<text text-anchor="start" x="1722.5" y="-341.82" font-family="Helvetica,sans-Serif" font-size="10.00">WolfstagInteractive.Convo</text>
<text text-anchor="middle" x="1794.5" y="-330.82" font-family="Helvetica,sans-Serif" font-size="10.00">Core.ConvoCoreUIFoundation</text>
</a>
</g>
</g>
<!-- Node3&#45;&gt;Node10 -->
<g id="edge11_Node000010_Node000003" class="edge">
<title>Node3&#45;&gt;Node10</title>
<g id="a_edge11_Node000010_Node000003"><a xlink:title=" ">
<path fill="none" stroke="#63b8ff" d="M1122.5,-503.62C1232.56,-503.36 1483.11,-493.65 1676,-417.82 1715.12,-402.44 1754.4,-372.36 1776.18,-354.08"/>
<polygon fill="#63b8ff" stroke="#63b8ff" points="1122.3,-500.12 1112.3,-503.62 1122.3,-507.12 1122.3,-500.12"/>
</a>
</g>
</g>
<!-- Node11 -->
<g id="Node000011" class="node">
<title>Node11</title>
<g id="a_Node000011"><a xlink:href="classWolfstagInteractive_1_1ConvoCore_1_1ConvoCoreDialogueHistoryUI.html" target="_top" xlink:title=" ">
<polygon fill="white" stroke="#666666" points="1498.5,-434.82 1313.5,-434.82 1313.5,-404.82 1498.5,-404.82 1498.5,-434.82"/>
<text text-anchor="start" x="1321.5" y="-422.82" font-family="Helvetica,sans-Serif" font-size="10.00">WolfstagInteractive.Convo</text>
<text text-anchor="middle" x="1406" y="-411.82" font-family="Helvetica,sans-Serif" font-size="10.00">Core.ConvoCoreDialogueHistoryUI</text>
</a>
</g>
</g>
<!-- Node3&#45;&gt;Node11 -->
<g id="edge15_Node000011_Node000003" class="edge">
<title>Node3&#45;&gt;Node11</title>
<g id="a_edge15_Node000011_Node000003"><a xlink:title=" ">
<path fill="none" stroke="#63b8ff" d="M1117.7,-491.04C1161.41,-480.9 1225.92,-465.75 1282,-451.82 1303.63,-446.45 1327.34,-440.33 1348.12,-434.9"/>
<polygon fill="#63b8ff" stroke="#63b8ff" points="1116.83,-487.65 1107.88,-493.31 1118.41,-494.47 1116.83,-487.65"/>
</a>
</g>
</g>
<!-- Node19 -->
<g id="Node000019" class="node">
<title>Node19</title>
<g id="a_Node000019"><a xlink:href="classWolfstagInteractive_1_1ConvoCore_1_1ConvoCorePrefabRepresentationSpawner.html" target="_top" xlink:title="Resolves, tracks, and releases prefab&#45;based character displays for a single UI instance.">
<polygon fill="white" stroke="#666666" points="1895,-579.32 1694,-579.32 1694,-538.32 1895,-538.32 1895,-579.32"/>
<text text-anchor="start" x="1702" y="-567.32" font-family="Helvetica,sans-Serif" font-size="10.00">WolfstagInteractive.Convo</text>
<text text-anchor="start" x="1702" y="-556.32" font-family="Helvetica,sans-Serif" font-size="10.00">Core.ConvoCorePrefabRepresentation</text>
<text text-anchor="middle" x="1794.5" y="-545.32" font-family="Helvetica,sans-Serif" font-size="10.00">Spawner</text>
</a>
</g>
</g>
<!-- Node3&#45;&gt;Node19 -->
<g id="edge31_Node000019_Node000003" class="edge">
<title>Node3&#45;&gt;Node19</title>
<g id="a_edge31_Node000019_Node000003"><a xlink:title=" ">
<path fill="none" stroke="#63b8ff" d="M1095.15,-516.79C1138.31,-536.86 1223.16,-572.58 1300,-582.82 1435.62,-600.88 1593.81,-587.12 1693.81,-574.18"/>
<polygon fill="#63b8ff" stroke="#63b8ff" points="1096.38,-513.5 1085.85,-512.4 1093.4,-519.83 1096.38,-513.5"/>
</a>
</g>
</g>
<!-- Node20 -->
<g id="Node000020" class="node">
<title>Node20</title>
<g id="a_Node000020"><a xlink:href="classWolfstagInteractive_1_1ConvoCore_1_1ConvoCoreSceneCharacterRegistry.html" target="_top" xlink:title="Scene&#45;level registry that maps developer&#45;assigned string IDs to IConvoCoreCharacterDisplay instances ...">
<polygon fill="white" stroke="#666666" points="1512,-573.82 1300,-573.82 1300,-543.82 1512,-543.82 1512,-573.82"/>
<text text-anchor="start" x="1308" y="-561.82" font-family="Helvetica,sans-Serif" font-size="10.00">WolfstagInteractive.Convo</text>
<text text-anchor="middle" x="1406" y="-550.82" font-family="Helvetica,sans-Serif" font-size="10.00">Core.ConvoCoreSceneCharacterRegistry</text>
</a>
</g>
</g>
<!-- Node3&#45;&gt;Node20 -->
<g id="edge33_Node000020_Node000003" class="edge">
<title>Node3&#45;&gt;Node20</title>
<g id="a_edge33_Node000020_Node000003"><a xlink:title=" ">
<path fill="none" stroke="#63b8ff" d="M1112.92,-514.79C1133.91,-519.92 1159.1,-525.66 1182,-529.82 1220.22,-536.75 1262.42,-542.68 1299.73,-547.33"/>
<polygon fill="#63b8ff" stroke="#63b8ff" points="1113.52,-511.34 1102.98,-512.33 1111.85,-518.13 1113.52,-511.34"/>
</a>
</g>
</g>
<!-- Node4 -->
<g id="Node000004" class="node">
<title>Node4</title>
<g id="a_Node000004"><a xlink:href="interfaceWolfstagInteractive_1_1ConvoCore_1_1IUIFoundation.html" target="_top" xlink:title="Contract between the ConvoCore runner and a dialogue UI implementation.">
<polygon fill="white" stroke="#666666" points="1448,-370.32 1364,-370.32 1364,-351.32 1448,-351.32 1448,-370.32"/>
<text text-anchor="middle" x="1406" y="-358.32" font-family="Helvetica,sans-Serif" font-size="10.00">IUIFoundation</text>
</a>
</g>
</g>
<!-- Node4&#45;&gt;Node2 -->
<g id="edge3_Node000002_Node000004" class="edge">
<title>Node4&#45;&gt;Node2</title>
<g id="a_edge3_Node000002_Node000004"><a xlink:title=" ">
<path fill="none" stroke="#63b8ff" d="M1457.83,-370.88C1476.12,-376.2 1496.12,-384.14 1512,-395.82 1523.03,-403.93 1518.27,-413.76 1530,-420.82 1589.85,-456.8 1670.96,-462.83 1727.31,-461.74"/>
<polygon fill="#63b8ff" stroke="#63b8ff" points="1458.75,-367.5 1448.18,-368.26 1456.91,-374.26 1458.75,-367.5"/>
</a>
</g>
</g>
<!-- Node4&#45;&gt;Node10 -->
<g id="edge12_Node000010_Node000004" class="edge">
<title>Node4&#45;&gt;Node10</title>
<g id="a_edge12_Node000010_Node000004"><a xlink:title=" ">
<path fill="none" stroke="#63b8ff" d="M1458.42,-357.34C1480.46,-355.88 1506.49,-354.21 1530,-352.82 1591.85,-349.16 1661.9,-345.46 1714.21,-342.79"/>
<polygon fill="#63b8ff" stroke="#63b8ff" points="1458.02,-353.86 1448.27,-358.01 1458.48,-360.84 1458.02,-353.86"/>
</a>
</g>
</g>
<!-- Node5&#45;&gt;Node2 -->
<g id="edge4_Node000002_Node000005" class="edge">
<title>Node5&#45;&gt;Node2</title>
<g id="a_edge4_Node000002_Node000005"><a xlink:title=" ">
<path fill="none" stroke="#9a32cd" stroke-dasharray="5,2" d="M1452.13,-298.52C1472.53,-309.24 1495.67,-324.14 1512,-342.82 1525.1,-357.8 1514.2,-371.72 1530,-383.82 1582.11,-423.71 1612.93,-387.71 1676,-405.82 1712.55,-416.31 1752.7,-435.54 1775.33,-447.15"/>
<polygon fill="#9a32cd" stroke="#9a32cd" points="1453.48,-295.29 1442.98,-293.9 1450.33,-301.53 1453.48,-295.29"/>
</a>
</g>
<text text-anchor="middle" x="1603" y="-408.82" font-family="Helvetica,sans-Serif" font-size="10.00" fill="grey"> ConvoCoreInstance</text>
</g>
<!-- Node5&#45;&gt;Node10 -->
<g id="edge13_Node000010_Node000005" class="edge">
<title>Node5&#45;&gt;Node10</title>
<g id="a_edge13_Node000010_Node000005"><a xlink:title=" ">
<path fill="none" stroke="#9a32cd" stroke-dasharray="5,2" d="M1489.26,-271.56C1543.08,-268.94 1614.56,-269.55 1676,-283.82 1710.01,-291.72 1745.91,-310.21 1768.94,-323.58"/>
<polygon fill="#9a32cd" stroke="#9a32cd" points="1488.88,-268.07 1479.08,-272.1 1489.25,-275.06 1488.88,-268.07"/>
</a>
</g>
<text text-anchor="middle" x="1603" y="-286.82" font-family="Helvetica,sans-Serif" font-size="10.00" fill="grey"> ConvoCoreInstance</text>
</g>
<!-- Node6 -->
<g id="Node000006" class="node">
<title>Node6</title>
<g id="a_Node000006"><a xlink:href="interfaceWolfstagInteractive_1_1ConvoCore_1_1IConvoCoreRunner.html" target="_top" xlink:title="Minimal interface implemented by ConvoCore.">
<polygon fill="white" stroke="#666666" points="1119,-173.32 1012,-173.32 1012,-154.32 1119,-154.32 1119,-173.32"/>
<text text-anchor="middle" x="1065.5" y="-161.32" font-family="Helvetica,sans-Serif" font-size="10.00">IConvoCoreRunner</text>
</a>
</g>
</g>
<!-- Node6&#45;&gt;Node5 -->
<g id="edge6_Node000005_Node000006" class="edge">
<title>Node6&#45;&gt;Node5</title>
<g id="a_edge6_Node000005_Node000006"><a xlink:title=" ">
<path fill="none" stroke="#63b8ff" d="M1129.2,-173.48C1140.86,-175.81 1152.88,-178.59 1164,-181.82 1241.31,-204.27 1327.98,-242.57 1373.37,-263.7"/>
<polygon fill="#63b8ff" stroke="#63b8ff" points="1129.55,-169.98 1119.07,-171.53 1128.23,-176.85 1129.55,-169.98"/>
</a>
</g>
</g>
<!-- Node7 -->
<g id="Node000007" class="node">
<title>Node7</title>
<g id="a_Node000007"><a xlink:href="classWolfstagInteractive_1_1ConvoCore_1_1ConvoCoreConversationData.html" target="_top" xlink:title=" ">
<polygon fill="white" stroke="#666666" points="541,-148.82 358,-148.82 358,-118.82 541,-118.82 541,-148.82"/>
<text text-anchor="start" x="366" y="-136.82" font-family="Helvetica,sans-Serif" font-size="10.00">WolfstagInteractive.Convo</text>
<text text-anchor="middle" x="449.5" y="-125.82" font-family="Helvetica,sans-Serif" font-size="10.00">Core.ConvoCoreConversationData</text>
</a>
</g>
</g>
<!-- Node7&#45;&gt;Node5 -->
<g id="edge7_Node000005_Node000007" class="edge">
<title>Node7&#45;&gt;Node5</title>
<g id="a_edge7_Node000005_Node000007"><a xlink:title=" ">
<path fill="none" stroke="#9a32cd" stroke-dasharray="5,2" d="M551.37,-125.6C690.42,-116.48 948.29,-107.54 1164,-144.82 1218.57,-154.25 1233.13,-158.77 1282,-184.82 1323.74,-207.07 1366.23,-243.15 1388.7,-263.53"/>
<polygon fill="#9a32cd" stroke="#9a32cd" points="550.9,-122.12 541.16,-126.28 551.37,-129.11 550.9,-122.12"/>
</a>
</g>
<text text-anchor="middle" x="855.5" y="-124.82" font-family="Helvetica,sans-Serif" font-size="10.00" fill="grey"> ConversationData</text>
</g>
<!-- Node8 -->
<g id="Node000008" class="node">
<title>Node8</title>
<g id="a_Node000008"><a xlink:title=" ">
<polygon fill="white" stroke="#666666" points="97,-170.32 0,-170.32 0,-151.32 97,-151.32 97,-170.32"/>
<text text-anchor="middle" x="48.5" y="-158.32" font-family="Helvetica,sans-Serif" font-size="10.00">ScriptableObject</text>
</a>
</g>
</g>
<!-- Node8&#45;&gt;Node7 -->
<g id="edge8_Node000007_Node000008" class="edge">
<title>Node8&#45;&gt;Node7</title>
<g id="a_edge8_Node000007_Node000008"><a xlink:title=" ">
<path fill="none" stroke="#63b8ff" d="M107.4,-156.9C173.1,-152.45 281.09,-145.15 357.95,-139.95"/>
<polygon fill="#63b8ff" stroke="#63b8ff" points="106.97,-153.42 97.23,-157.59 107.45,-160.41 106.97,-153.42"/>
</a>
</g>
</g>
<!-- Node12 -->
<g id="Node000012" class="node">
<title>Node12</title>
<g id="a_Node000012"><a xlink:href="classWolfstagInteractive_1_1ConvoCore_1_1ConvoCoreSettings.html" target="_top" xlink:title="Global runtime settings ScriptableObject for ConvoCore.">
<polygon fill="white" stroke="#666666" points="310,-226.82 164,-226.82 164,-196.82 310,-196.82 310,-226.82"/>
<text text-anchor="start" x="172" y="-214.82" font-family="Helvetica,sans-Serif" font-size="10.00">WolfstagInteractive.Convo</text>
<text text-anchor="middle" x="237" y="-203.82" font-family="Helvetica,sans-Serif" font-size="10.00">Core.ConvoCoreSettings</text>
</a>
</g>
</g>
<!-- Node8&#45;&gt;Node12 -->
<g id="edge17_Node000012_Node000008" class="edge">
<title>Node8&#45;&gt;Node12</title>
<g id="a_edge17_Node000012_Node000008"><a xlink:title=" ">
<path fill="none" stroke="#63b8ff" d="M94.53,-173.13C120.52,-180.24 153.4,-189.23 180.91,-196.75"/>
<polygon fill="#63b8ff" stroke="#63b8ff" points="95.15,-169.67 84.58,-170.41 93.3,-176.42 95.15,-169.67"/>
</a>
</g>
</g>
<!-- Node14 -->
<g id="Node000014" class="node">
<title>Node14</title>
<g id="a_Node000014"><a xlink:href="classWolfstagInteractive_1_1ConvoCore_1_1ConvoCoreHistoryRendererProfile.html" target="_top" xlink:title=" ">
<polygon fill="white" stroke="#666666" points="340,-380.82 134,-380.82 134,-350.82 340,-350.82 340,-380.82"/>
<text text-anchor="start" x="142" y="-368.82" font-family="Helvetica,sans-Serif" font-size="10.00">WolfstagInteractive.Convo</text>
<text text-anchor="middle" x="237" y="-357.82" font-family="Helvetica,sans-Serif" font-size="10.00">Core.ConvoCoreHistoryRendererProfile</text>
</a>
</g>
</g>
<!-- Node8&#45;&gt;Node14 -->
<g id="edge21_Node000014_Node000008" class="edge">
<title>Node8&#45;&gt;Node14</title>
<g id="a_edge21_Node000014_Node000008"><a xlink:title=" ">
<path fill="none" stroke="#63b8ff" d="M63.03,-178.64C79.27,-199.75 107.62,-235.71 134,-264.82 162.79,-296.58 198.94,-331.25 219.56,-350.59"/>
<polygon fill="#63b8ff" stroke="#63b8ff" points="65.71,-176.38 56.86,-170.57 60.15,-180.64 65.71,-176.38"/>
</a>
</g>
</g>
<!-- Node18 -->
<g id="Node000018" class="node">
<title>Node18</title>
<g id="a_Node000018"><a xlink:href="classWolfstagInteractive_1_1ConvoCore_1_1ConvoCoreCharacterPresence.html" target="_top" xlink:title="Abstract ScriptableObject base for all presence types.">
<polygon fill="white" stroke="#666666" points="949,-102.82 762,-102.82 762,-72.82 949,-72.82 949,-102.82"/>
<text text-anchor="start" x="770" y="-90.82" font-family="Helvetica,sans-Serif" font-size="10.00">WolfstagInteractive.Convo</text>
<text text-anchor="middle" x="855.5" y="-79.82" font-family="Helvetica,sans-Serif" font-size="10.00">Core.ConvoCoreCharacterPresence</text>
</a>
</g>
</g>
<!-- Node8&#45;&gt;Node18 -->
<g id="edge29_Node000018_Node000008" class="edge">
<title>Node8&#45;&gt;Node18</title>
<g id="a_edge29_Node000018_Node000008"><a xlink:title=" ">
<path fill="none" stroke="#63b8ff" d="M90.24,-148.48C104.04,-144.64 119.6,-140.66 134,-137.82 356.34,-93.89 623.89,-87.07 761.97,-86.85"/>
<polygon fill="#63b8ff" stroke="#63b8ff" points="89.21,-145.13 80.55,-151.24 91.13,-151.86 89.21,-145.13"/>
</a>
</g>
</g>
<!-- Node9 -->
<g id="Node000009" class="node">
<title>Node9</title>
<g id="a_Node000009"><a xlink:href="interfaceWolfstagInteractive_1_1ConvoCore_1_1IConvoInput.html" target="_top" xlink:title="Input strategy interface.">
<polygon fill="white" stroke="#666666" points="1138.5,-328.82 992.5,-328.82 992.5,-298.82 1138.5,-298.82 1138.5,-328.82"/>
<text text-anchor="start" x="1000.5" y="-316.82" font-family="Helvetica,sans-Serif" font-size="10.00">WolfstagInteractive.Convo</text>
<text text-anchor="middle" x="1065.5" y="-305.82" font-family="Helvetica,sans-Serif" font-size="10.00">Core.IConvoInput</text>
</a>
</g>
</g>
<!-- Node9&#45;&gt;Node5 -->
<g id="edge9_Node000005_Node000009" class="edge">
<title>Node9&#45;&gt;Node5</title>
<g id="a_edge9_Node000005_Node000009"><a xlink:title=" ">
<path fill="none" stroke="#9a32cd" stroke-dasharray="5,2" d="M1148.99,-305.29C1205.24,-299.47 1279.01,-291.84 1332.91,-286.27"/>
<polygon fill="#9a32cd" stroke="#9a32cd" points="1148.29,-301.84 1138.7,-306.35 1149.01,-308.81 1148.29,-301.84"/>
</a>
</g>
<text text-anchor="middle" x="1232" y="-304.82" font-family="Helvetica,sans-Serif" font-size="10.00" fill="grey"> Input</text>
</g>
<!-- Node10&#45;&gt;Node5 -->
<g id="edge10_Node000005_Node000010" class="edge">
<title>Node10&#45;&gt;Node5</title>
<g id="a_edge10_Node000005_Node000010"><a xlink:title=" ">
<path fill="none" stroke="#9a32cd" stroke-dasharray="5,2" d="M1704.39,-324.99C1636.07,-314.38 1542.97,-299.93 1479.24,-290.03"/>
<polygon fill="#9a32cd" stroke="#9a32cd" points="1703.87,-328.45 1714.29,-326.52 1704.94,-321.53 1703.87,-328.45"/>
</a>
</g>
<text text-anchor="middle" x="1603" y="-321.82" font-family="Helvetica,sans-Serif" font-size="10.00" fill="grey"> ConversationUI</text>
</g>
<!-- Node11&#45;&gt;Node2 -->
<g id="edge27_Node000002_Node000011" class="edge">
<title>Node11&#45;&gt;Node2</title>
<g id="a_edge27_Node000002_Node000011"><a xlink:title=" ">
<path fill="none" stroke="#9a32cd" stroke-dasharray="5,2" d="M1445.73,-439.23C1469.42,-450 1500.7,-462.3 1530,-467.82 1600.98,-481.18 1684.54,-473.9 1738.22,-466.34"/>
<polygon fill="#9a32cd" stroke="#9a32cd" points="1446.94,-435.93 1436.4,-434.89 1443.99,-442.28 1446.94,-435.93"/>
</a>
</g>
<text text-anchor="middle" x="1603" y="-477.82" font-family="Helvetica,sans-Serif" font-size="10.00" fill="grey"> ConvoCoreDialogueHistoryUI</text>
</g>
<!-- Node11&#45;&gt;Node10 -->
<g id="edge14_Node000010_Node000011" class="edge">
<title>Node11&#45;&gt;Node10</title>
<g id="a_edge14_Node000010_Node000011"><a xlink:title=" ">
<path fill="none" stroke="#9a32cd" stroke-dasharray="5,2" d="M1456.4,-401.08C1473.97,-394.4 1493.87,-386.8 1512,-379.82 1520.01,-376.73 1521.68,-374.94 1530,-372.82 1563.8,-364.2 1649.64,-353.9 1714.23,-346.91"/>
<polygon fill="#9a32cd" stroke="#9a32cd" points="1455.02,-397.86 1446.91,-404.69 1457.5,-404.4 1455.02,-397.86"/>
</a>
</g>
<text text-anchor="middle" x="1603" y="-375.82" font-family="Helvetica,sans-Serif" font-size="10.00" fill="grey"> ConvoCoreDialogueHistoryUI</text>
</g>
<!-- Node12&#45;&gt;Node11 -->
<g id="edge16_Node000011_Node000012" class="edge">
<title>Node12&#45;&gt;Node11</title>
<g id="a_edge16_Node000011_Node000012"><a xlink:title=" ">
<path fill="none" stroke="#9a32cd" stroke-dasharray="5,2" d="M319.93,-226.18C481.45,-254.52 852.36,-319.77 1164,-375.82 1217.06,-385.36 1276.66,-396.24 1323.31,-404.79"/>
<polygon fill="#9a32cd" stroke="#9a32cd" points="320.52,-222.73 310.06,-224.45 319.31,-229.62 320.52,-222.73"/>
</a>
</g>
<text text-anchor="middle" x="855.5" y="-337.82" font-family="Helvetica,sans-Serif" font-size="10.00" fill="grey"> convoCoreSettings</text>
</g>
<!-- Node12&#45;&gt;Node12 -->
<g id="edge18_Node000012_Node000012" class="edge">
<title>Node12&#45;&gt;Node12</title>
<g id="a_edge18_Node000012_Node000012"><a xlink:title=" ">
<path fill="none" stroke="#9a32cd" stroke-dasharray="5,2" d="M216,-237.42C218.87,-241.79 225.87,-244.82 237,-244.82 255.75,-244.82 262.78,-236.22 258.09,-227.09"/>
<polygon fill="#9a32cd" stroke="#9a32cd" points="219.49,-237.06 215.91,-227.09 212.49,-237.12 219.49,-237.06"/>
</a>
</g>
<text text-anchor="middle" x="237" y="-247.82" font-family="Helvetica,sans-Serif" font-size="10.00" fill="grey"> _instance</text>
</g>
<!-- Node16 -->
<g id="Node000016" class="node">
<title>Node16</title>
<g id="a_Node000016"><a xlink:href="classWolfstagInteractive_1_1ConvoCore_1_1ConvoCoreLanguageManager.html" target="_top" xlink:title=" ">
<polygon fill="white" stroke="#666666" points="744,-226.82 559,-226.82 559,-196.82 744,-196.82 744,-226.82"/>
<text text-anchor="start" x="567" y="-214.82" font-family="Helvetica,sans-Serif" font-size="10.00">WolfstagInteractive.Convo</text>
<text text-anchor="middle" x="651.5" y="-203.82" font-family="Helvetica,sans-Serif" font-size="10.00">Core.ConvoCoreLanguageManager</text>
</a>
</g>
</g>
<!-- Node12&#45;&gt;Node16 -->
<g id="edge25_Node000016_Node000012" class="edge">
<title>Node12&#45;&gt;Node16</title>
<g id="a_edge25_Node000016_Node000012"><a xlink:title=" ">
<path fill="none" stroke="#9a32cd" stroke-dasharray="5,2" d="M320.69,-211.82C389.54,-211.82 487.48,-211.82 558.73,-211.82"/>
<polygon fill="#9a32cd" stroke="#9a32cd" points="320.32,-208.32 310.32,-211.82 320.32,-215.32 320.32,-208.32"/>
</a>
</g>
<text text-anchor="middle" x="449.5" y="-214.82" font-family="Helvetica,sans-Serif" font-size="10.00" fill="grey"> _convoCoreSettings</text>
</g>
<!-- Node13 -->
<g id="Node000013" class="node">
<title>Node13</title>
<g id="a_Node000013"><a xlink:href="interfaceWolfstagInteractive_1_1ConvoCore_1_1IConvoCoreHistoryRenderer.html" target="_top" xlink:title="Base contract for any dialogue history renderer.">
<polygon fill="white" stroke="#666666" points="1154.5,-414.82 976.5,-414.82 976.5,-384.82 1154.5,-384.82 1154.5,-414.82"/>
<text text-anchor="start" x="984.5" y="-402.82" font-family="Helvetica,sans-Serif" font-size="10.00">WolfstagInteractive.Convo</text>
<text text-anchor="middle" x="1065.5" y="-391.82" font-family="Helvetica,sans-Serif" font-size="10.00">Core.IConvoCoreHistoryRenderer</text>
</a>
</g>
</g>
<!-- Node13&#45;&gt;Node11 -->
<g id="edge19_Node000011_Node000013" class="edge">
<title>Node13&#45;&gt;Node11</title>
<g id="a_edge19_Node000011_Node000013"><a xlink:title=" ">
<path fill="none" stroke="#9a32cd" stroke-dasharray="5,2" d="M1164.71,-405.62C1211.56,-408.39 1267.27,-411.68 1313.25,-414.4"/>
<polygon fill="#9a32cd" stroke="#9a32cd" points="1164.74,-402.12 1154.55,-405.02 1164.33,-409.1 1164.74,-402.12"/>
</a>
</g>
<text text-anchor="middle" x="1232" y="-414.82" font-family="Helvetica,sans-Serif" font-size="10.00" fill="grey"> _renderer</text>
</g>
<!-- Node14&#45;&gt;Node11 -->
<g id="edge20_Node000011_Node000014" class="edge">
<title>Node14&#45;&gt;Node11</title>
<g id="a_edge20_Node000011_Node000014"><a xlink:title=" ">
<path fill="none" stroke="#9a32cd" stroke-dasharray="5,2" d="M350.29,-377.05C493.33,-390.82 748.25,-413.6 967,-423.82 1062.46,-428.28 1086.44,-426.15 1182,-426.82 1226.44,-427.13 1237.57,-428.08 1282,-426.82 1292.16,-426.53 1302.78,-426.11 1313.34,-425.61"/>
<polygon fill="#9a32cd" stroke="#9a32cd" points="350.48,-373.55 340.19,-376.07 349.8,-380.52 350.48,-373.55"/>
</a>
</g>
<text text-anchor="middle" x="855.5" y="-424.82" font-family="Helvetica,sans-Serif" font-size="10.00" fill="grey"> _activeProfile</text>
</g>
<!-- Node15 -->
<g id="Node000015" class="node">
<title>Node15</title>
<g id="a_Node000015"><a xlink:href="classWolfstagInteractive_1_1ConvoCore_1_1ConvoCoreDialogueLocalizationHandler.html" target="_top" xlink:title=" ">
<polygon fill="white" stroke="#666666" points="1164,-232.32 967,-232.32 967,-191.32 1164,-191.32 1164,-232.32"/>
<text text-anchor="start" x="975" y="-220.32" font-family="Helvetica,sans-Serif" font-size="10.00">WolfstagInteractive.Convo</text>
<text text-anchor="start" x="975" y="-209.32" font-family="Helvetica,sans-Serif" font-size="10.00">Core.ConvoCoreDialogueLocalization</text>
<text text-anchor="middle" x="1065.5" y="-198.32" font-family="Helvetica,sans-Serif" font-size="10.00">Handler</text>
</a>
</g>
</g>
<!-- Node15&#45;&gt;Node5 -->
<g id="edge22_Node000005_Node000015" class="edge">
<title>Node15&#45;&gt;Node5</title>
<g id="a_edge22_Node000005_Node000015"><a xlink:title=" ">
<path fill="none" stroke="#9a32cd" stroke-dasharray="5,2" d="M1174.3,-233.16C1226.08,-243.4 1286.74,-255.41 1332.86,-264.54"/>
<polygon fill="#9a32cd" stroke="#9a32cd" points="1174.9,-229.71 1164.41,-231.2 1173.54,-236.57 1174.9,-229.71"/>
</a>
</g>
<text text-anchor="middle" x="1232" y="-256.82" font-family="Helvetica,sans-Serif" font-size="10.00" fill="grey"> LocalizationHandler</text>
</g>
<!-- Node16&#45;&gt;Node15 -->
<g id="edge23_Node000015_Node000016" class="edge">
<title>Node16&#45;&gt;Node15</title>
<g id="a_edge23_Node000015_Node000016"><a xlink:title=" ">
<path fill="none" stroke="#9a32cd" stroke-dasharray="5,2" d="M754.44,-211.82C819.35,-211.82 902.94,-211.82 966.97,-211.82"/>
<polygon fill="#9a32cd" stroke="#9a32cd" points="754.19,-208.32 744.19,-211.82 754.19,-215.32 754.19,-208.32"/>
</a>
</g>
<text text-anchor="middle" x="855.5" y="-214.82" font-family="Helvetica,sans-Serif" font-size="10.00" fill="grey"> _convoCoreLanguageManager</text>
</g>
<!-- Node16&#45;&gt;Node16 -->
<g id="edge24_Node000016_Node000016" class="edge">
<title>Node16&#45;&gt;Node16</title>
<g id="a_edge24_Node000016_Node000016"><a xlink:title=" ">
<path fill="none" stroke="#9a32cd" stroke-dasharray="5,2" d="M616.14,-237.42C620.97,-241.79 632.76,-244.82 651.5,-244.82 683.06,-244.82 694.9,-236.22 687.01,-227.09"/>
<polygon fill="#9a32cd" stroke="#9a32cd" points="619.64,-237.04 615.99,-227.09 612.64,-237.14 619.64,-237.04"/>
</a>
</g>
<text text-anchor="middle" x="651.5" y="-247.82" font-family="Helvetica,sans-Serif" font-size="10.00" fill="grey"> _instance</text>
</g>
<!-- Node17 -->
<g id="Node000017" class="node">
<title>Node17</title>
<g id="a_Node000017"><a xlink:href="interfaceWolfstagInteractive_1_1ConvoCore_1_1IConversationContext.html" target="_top" xlink:title="Provides optional runtime context for branch evaluation.">
<polygon fill="white" stroke="#666666" points="1139.5,-280.82 991.5,-280.82 991.5,-250.82 1139.5,-250.82 1139.5,-280.82"/>
<text text-anchor="start" x="999.5" y="-268.82" font-family="Helvetica,sans-Serif" font-size="10.00">WolfstagInteractive.Convo</text>
<text text-anchor="middle" x="1065.5" y="-257.82" font-family="Helvetica,sans-Serif" font-size="10.00">Core.IConversationContext</text>
</a>
</g>
</g>
<!-- Node17&#45;&gt;Node5 -->
<g id="edge26_Node000005_Node000017" class="edge">
<title>Node17&#45;&gt;Node5</title>
<g id="a_edge26_Node000005_Node000017"><a xlink:title=" ">
<path fill="none" stroke="#9a32cd" stroke-dasharray="5,2" d="M1149.81,-269.02C1205.98,-271.17 1279.33,-273.99 1332.97,-276.05"/>
<polygon fill="#9a32cd" stroke="#9a32cd" points="1149.66,-265.51 1139.53,-268.62 1149.39,-272.5 1149.66,-265.51"/>
</a>
</g>
<text text-anchor="middle" x="1232" y="-277.82" font-family="Helvetica,sans-Serif" font-size="10.00" fill="grey"> _context</text>
</g>
<!-- Node18&#45;&gt;Node1 -->
<g id="edge28_Node000001_Node000018" class="edge">
<title>Node18&#45;&gt;Node1</title>
<g id="a_edge28_Node000001_Node000018"><a xlink:title=" ">
<path fill="none" stroke="#9a32cd" stroke-dasharray="5,2" d="M959.64,-87.82C1034.86,-87.82 1139.25,-87.82 1231,-87.82 1231,-87.82 1231,-87.82 1795.5,-87.82 1894.32,-87.82 2008.16,-92.3 2081.73,-95.79"/>
<polygon fill="#9a32cd" stroke="#9a32cd" points="959.23,-84.32 949.23,-87.82 959.23,-91.32 959.23,-84.32"/>
</a>
</g>
<text text-anchor="middle" x="1406" y="-90.82" font-family="Helvetica,sans-Serif" font-size="10.00" fill="grey"> characterPresence</text>
</g>
<!-- Node19&#45;&gt;Node1 -->
<g id="edge30_Node000001_Node000019" class="edge">
<title>Node19&#45;&gt;Node1</title>
<g id="a_edge30_Node000001_Node000019"><a xlink:title=" ">
<path fill="none" stroke="#9a32cd" stroke-dasharray="5,2" d="M1830.67,-531.6C1850.22,-515.95 1874.64,-495.54 1895,-475.82 1976.17,-397.18 2000.22,-379.12 2064,-285.82 2104.51,-226.55 2139.19,-147.69 2152.82,-115.01"/>
<polygon fill="#9a32cd" stroke="#9a32cd" points="1828.26,-529.04 1822.61,-538 1832.62,-534.52 1828.26,-529.04"/>
</a>
</g>
<text text-anchor="middle" x="1988.5" y="-460.82" font-family="Helvetica,sans-Serif" font-size="10.00" fill="grey"> prefabRepresentationSpawner</text>
</g>
<!-- Node20&#45;&gt;Node19 -->
<g id="edge32_Node000019_Node000020" class="edge">
<title>Node20&#45;&gt;Node19</title>
<g id="a_edge32_Node000019_Node000020"><a xlink:title=" ">
<path fill="none" stroke="#9a32cd" stroke-dasharray="5,2" d="M1522.17,-558.82C1576.74,-558.82 1641.29,-558.82 1693.74,-558.82"/>
<polygon fill="#9a32cd" stroke="#9a32cd" points="1522.1,-555.32 1512.1,-558.82 1522.1,-562.32 1522.1,-555.32"/>
</a>
</g>
<text text-anchor="middle" x="1603" y="-561.82" font-family="Helvetica,sans-Serif" font-size="10.00" fill="grey"> sceneCharacterRegistry</text>
</g>
<!-- Node21 -->
<g id="Node000021" class="node">
<title>Node21</title>
<g id="a_Node000021"><a xlink:title=" ">
<polygon fill="white" stroke="#666666" points="1832.5,-27.32 1756.5,-27.32 1756.5,-8.32 1832.5,-8.32 1832.5,-27.32"/>
<text text-anchor="middle" x="1794.5" y="-15.32" font-family="Helvetica,sans-Serif" font-size="10.00">UnityEngine</text>
</a>
</g>
</g>
<!-- Node21&#45;&gt;Node1 -->
<g id="edge34_Node000001_Node000021" class="edge">
<title>Node21&#45;&gt;Node1</title>
<g id="a_edge34_Node000001_Node000021"><a xlink:title=" ">
<path fill="none" stroke="#9a32cd" stroke-dasharray="5,2" d="M1842.68,-8.47C1897.7,0.3 1990.5,8.42 2064,-18.82 2099.57,-32 2130.9,-65.01 2147.17,-84.58"/>
<polygon fill="#9a32cd" stroke="#9a32cd" points="1841.81,-5.07 1832.53,-10.17 1842.97,-11.97 1841.81,-5.07"/>
</a>
</g>
<text text-anchor="middle" x="1988.5" y="-65.82" font-family="Helvetica,sans-Serif" font-size="10.00" fill="grey"> ContinueButton</text>
<text text-anchor="start" x="1917" y="-54.82" font-family="Helvetica,sans-Serif" font-size="10.00" fill="grey">DialogueHistoryContent</text>
<text text-anchor="middle" x="1988.5" y="-43.82" font-family="Helvetica,sans-Serif" font-size="10.00" fill="grey">Background</text>
<text text-anchor="middle" x="1988.5" y="-32.82" font-family="Helvetica,sans-Serif" font-size="10.00" fill="grey">PreviousLineButton</text>
<text text-anchor="middle" x="1988.5" y="-21.82" font-family="Helvetica,sans-Serif" font-size="10.00" fill="grey">ToggleDialogueHistoryButton</text>
</g>
</g>
</svg>
