<?xml version="1.0" encoding="UTF-8" standalone="no"?>
<!DOCTYPE svg PUBLIC "-//W3C//DTD SVG 1.1//EN"
 "http://www.w3.org/Graphics/SVG/1.1/DTD/svg11.dtd">
<!-- Generated by graphviz version 2.43.0 (0)
 -->
<!-- Title: WolfstagInteractive.ConvoCore.SaveSystem.ConvoCoreSaveManager Pages: 1 -->
<svg width="677pt" height="153pt"
 viewBox="0.00 0.00 677.00 152.61" xmlns="http://www.w3.org/2000/svg" xmlns:xlink="http://www.w3.org/1999/xlink">
<g id="graph0" class="graph" transform="scale(1 1) rotate(0) translate(4 148.61)">
<title>WolfstagInteractive.ConvoCore.SaveSystem.ConvoCoreSaveManager</title>
<!-- Node1 -->
<g id="Node000001" class="node">
<title>Node1</title>
<g id="a_Node000001"><a xlink:title=" ">
<polygon fill="#999999" stroke="#666666" points="669,-109 443,-109 443,-79 669,-79 669,-109"/>
<text text-anchor="start" x="451" y="-97" font-family="Helvetica,sans-Serif" font-size="10.00">WolfstagInteractive.Convo</text>
<text text-anchor="middle" x="556" y="-86" font-family="Helvetica,sans-Serif" font-size="10.00">Core.SaveSystem.ConvoCoreSaveManager</text>
</a>
</g>
</g>
<!-- Node2 -->
<g id="Node000002" class="node">
<title>Node2</title>
<g id="a_Node000002"><a xlink:title=" ">
<polygon fill="white" stroke="#666666" points="97,-120.5 0,-120.5 0,-101.5 97,-101.5 97,-120.5"/>
<text text-anchor="middle" x="48.5" y="-108.5" font-family="Helvetica,sans-Serif" font-size="10.00">ScriptableObject</text>
</a>
</g>
</g>
<!-- Node2&#45;&gt;Node1 -->
<g id="edge1_Node000001_Node000002" class="edge">
<title>Node2&#45;&gt;Node1</title>
<g id="a_edge1_Node000001_Node000002"><a xlink:title=" ">
<path fill="none" stroke="#63b8ff" d="M85.86,-123.71C100.61,-128.24 117.92,-132.76 134,-135 262.29,-152.87 297.7,-142.95 425,-119 441.94,-115.81 460.11,-112.35 477.34,-109.04"/>
<polygon fill="#63b8ff" stroke="#63b8ff" points="86.7,-120.31 76.11,-120.61 84.58,-126.98 86.7,-120.31"/>
</a>
</g>
</g>
<!-- Node3 -->
<g id="Node000003" class="node">
<title>Node3</title>
<g id="a_Node000003"><a xlink:href="classWolfstagInteractive_1_1ConvoCore_1_1SaveSystem_1_1ConvoVariableStore.html" target="_top" xlink:title=" ">
<polygon fill="white" stroke="#666666" points="337,-126 135,-126 135,-96 337,-96 337,-126"/>
<text text-anchor="start" x="143" y="-114" font-family="Helvetica,sans-Serif" font-size="10.00">WolfstagInteractive.Convo</text>
<text text-anchor="middle" x="236" y="-103" font-family="Helvetica,sans-Serif" font-size="10.00">Core.SaveSystem.ConvoVariableStore</text>
</a>
</g>
</g>
<!-- Node2&#45;&gt;Node3 -->
<g id="edge3_Node000003_Node000002" class="edge">
<title>Node2&#45;&gt;Node3</title>
<g id="a_edge3_Node000003_Node000002"><a xlink:title=" ">
<path fill="none" stroke="#63b8ff" d="M107.32,-111C116.1,-111 125.36,-111 134.73,-111"/>
<polygon fill="#63b8ff" stroke="#63b8ff" points="107.27,-107.5 97.27,-111 107.27,-114.5 107.27,-107.5"/>
</a>
</g>
</g>
<!-- Node4 -->
<g id="Node000004" class="node">
<title>Node4</title>
<g id="a_Node000004"><a xlink:href="classWolfstagInteractive_1_1ConvoCore_1_1SaveSystem_1_1ConvoSettingsState.html" target="_top" xlink:title="ScriptableObject that bridges ConvoCoreLanguageManager with the save system.">
<polygon fill="white" stroke="#666666" points="337,-78 135,-78 135,-48 337,-48 337,-78"/>
<text text-anchor="start" x="143" y="-66" font-family="Helvetica,sans-Serif" font-size="10.00">WolfstagInteractive.Convo</text>
<text text-anchor="middle" x="236" y="-55" font-family="Helvetica,sans-Serif" font-size="10.00">Core.SaveSystem.ConvoSettingsState</text>
</a>
</g>
</g>
<!-- Node2&#45;&gt;Node4 -->
<g id="edge5_Node000004_Node000002" class="edge">
<title>Node2&#45;&gt;Node4</title>
<g id="a_edge5_Node000004_Node000002"><a xlink:title=" ">
<path fill="none" stroke="#63b8ff" d="M91.85,-98.58C105.3,-94.74 120.24,-90.59 134,-87 145.6,-83.98 157.99,-80.9 169.97,-78.01"/>
<polygon fill="#63b8ff" stroke="#63b8ff" points="90.56,-95.31 81.91,-101.44 92.49,-102.04 90.56,-95.31"/>
</a>
</g>
</g>
<!-- Node3&#45;&gt;Node1 -->
<g id="edge2_Node000001_Node000003" class="edge">
<title>Node3&#45;&gt;Node1</title>
<g id="a_edge2_Node000001_Node000003"><a xlink:title=" ">
<path fill="none" stroke="#9a32cd" stroke-dasharray="5,2" d="M347.53,-105.09C378.39,-103.44 411.93,-101.65 442.88,-99.99"/>
<polygon fill="#9a32cd" stroke="#9a32cd" points="346.98,-101.62 337.18,-105.64 347.35,-108.61 346.98,-101.62"/>
</a>
</g>
<text text-anchor="middle" x="390.5" y="-107" font-family="Helvetica,sans-Serif" font-size="10.00" fill="grey"> VariableStore</text>
</g>
<!-- Node4&#45;&gt;Node1 -->
<g id="edge4_Node000001_Node000004" class="edge">
<title>Node4&#45;&gt;Node1</title>
<g id="a_edge4_Node000001_Node000004"><a xlink:title=" ">
<path fill="none" stroke="#9a32cd" stroke-dasharray="5,2" d="M347.53,-73.78C378.39,-76.78 411.93,-80.05 442.88,-83.07"/>
<polygon fill="#9a32cd" stroke="#9a32cd" points="347.47,-70.25 337.18,-72.77 346.79,-77.22 347.47,-70.25"/>
</a>
</g>
<text text-anchor="middle" x="390.5" y="-84" font-family="Helvetica,sans-Serif" font-size="10.00" fill="grey"> SettingsState</text>
</g>
<!-- Node5 -->
<g id="Node000005" class="node">
<title>Node5</title>
<g id="a_Node000005"><a xlink:href="interfaceWolfstagInteractive_1_1ConvoCore_1_1SaveSystem_1_1IConvoSaveProvider.html" target="_top" xlink:title=" ">
<polygon fill="white" stroke="#666666" points="338,-30 134,-30 134,0 338,0 338,-30"/>
<text text-anchor="start" x="142" y="-18" font-family="Helvetica,sans-Serif" font-size="10.00">WolfstagInteractive.Convo</text>
<text text-anchor="middle" x="236" y="-7" font-family="Helvetica,sans-Serif" font-size="10.00">Core.SaveSystem.IConvoSaveProvider</text>
</a>
</g>
</g>
<!-- Node5&#45;&gt;Node1 -->
<g id="edge6_Node000001_Node000005" class="edge">
<title>Node5&#45;&gt;Node1</title>
<g id="a_edge6_Node000001_Node000005"><a xlink:title=" ">
<path fill="none" stroke="#9a32cd" stroke-dasharray="5,2" d="M313.6,-32.32C347.76,-40.2 388.46,-49.81 425,-59 449.93,-65.27 477.44,-72.62 500.71,-78.95"/>
<polygon fill="#9a32cd" stroke="#9a32cd" points="314.22,-28.87 303.69,-30.04 312.65,-35.7 314.22,-28.87"/>
</a>
</g>
<text text-anchor="middle" x="390.5" y="-62" font-family="Helvetica,sans-Serif" font-size="10.00" fill="grey"> _provider</text>
</g>
</g>
</svg>
