<?xml version="1.0" encoding="UTF-8" standalone="no"?>
<!DOCTYPE svg PUBLIC "-//W3C//DTD SVG 1.1//EN"
 "http://www.w3.org/Graphics/SVG/1.1/DTD/svg11.dtd">
<!-- Generated by graphviz version 2.43.0 (0)
 -->
<!-- Title: WolfstagInteractive.ConvoCore.ConvoCoreUIFoundation Pages: 1 -->
<svg width="1794pt" height="409pt"
 viewBox="0.00 0.00 1794.00 409.00" xmlns="http://www.w3.org/2000/svg" xmlns:xlink="http://www.w3.org/1999/xlink">
<g id="graph0" class="graph" transform="scale(1 1) rotate(0) translate(4 405)">
<title>WolfstagInteractive.ConvoCore.ConvoCoreUIFoundation</title>
<!-- Node1 -->
<g id="Node000001" class="node">
<title>Node1</title>
<g id="a_Node000001"><a xlink:title="Used as a basis of any UI that can be assigned in the inspector that includes all the base functions ...">
<polygon fill="#999999" stroke="#666666" points="1786,-151 1626,-151 1626,-121 1786,-121 1786,-151"/>
<text text-anchor="start" x="1634" y="-139" font-family="Helvetica,sans-Serif" font-size="10.00">WolfstagInteractive.Convo</text>
<text text-anchor="middle" x="1706" y="-128" font-family="Helvetica,sans-Serif" font-size="10.00">Core.ConvoCoreUIFoundation</text>
</a>
</g>
</g>
<!-- Node2 -->
<g id="Node000002" class="node">
<title>Node2</title>
<g id="a_Node000002"><a xlink:title=" ">
<polygon fill="white" stroke="#666666" points="1071,-162.5 978,-162.5 978,-143.5 1071,-143.5 1071,-162.5"/>
<text text-anchor="middle" x="1024.5" y="-150.5" font-family="Helvetica,sans-Serif" font-size="10.00">MonoBehaviour</text>
</a>
</g>
</g>
<!-- Node2&#45;&gt;Node1 -->
<g id="edge1_Node000001_Node000002" class="edge">
<title>Node2&#45;&gt;Node1</title>
<g id="a_edge1_Node000001_Node000002"><a xlink:title=" ">
<path fill="none" stroke="#63b8ff" d="M1081.18,-144.73C1184.93,-130.45 1414.8,-104.17 1608,-120 1613.87,-120.48 1619.92,-121.12 1625.99,-121.87"/>
<polygon fill="#63b8ff" stroke="#63b8ff" points="1080.66,-141.27 1071.24,-146.11 1081.63,-148.2 1080.66,-141.27"/>
</a>
</g>
</g>
<!-- Node4 -->
<g id="Node000004" class="node">
<title>Node4</title>
<g id="a_Node000004"><a xlink:href="classWolfstagInteractive_1_1ConvoCore_1_1ConvoCore.html" target="_top" xlink:title="Main conversation runner MonoBehaviour.">
<polygon fill="white" stroke="#666666" points="1424.5,-297 1278.5,-297 1278.5,-267 1424.5,-267 1424.5,-297"/>
<text text-anchor="start" x="1286.5" y="-285" font-family="Helvetica,sans-Serif" font-size="10.00">WolfstagInteractive.Convo</text>
<text text-anchor="middle" x="1351.5" y="-274" font-family="Helvetica,sans-Serif" font-size="10.00">Core.ConvoCore</text>
</a>
</g>
</g>
<!-- Node2&#45;&gt;Node4 -->
<g id="edge4_Node000004_Node000002" class="edge">
<title>Node2&#45;&gt;Node4</title>
<g id="a_edge4_Node000004_Node000002"><a xlink:title=" ">
<path fill="none" stroke="#63b8ff" d="M1081.01,-162.18C1095.33,-166.03 1110.28,-171.43 1123,-179 1133,-184.95 1131.04,-191.99 1141,-198 1180.52,-221.84 1198.02,-209.19 1241,-226 1243.09,-226.82 1289.59,-250.68 1321.32,-266.99"/>
<polygon fill="#63b8ff" stroke="#63b8ff" points="1081.79,-158.77 1071.24,-159.76 1080.1,-165.56 1081.79,-158.77"/>
</a>
</g>
</g>
<!-- Node9 -->
<g id="Node000009" class="node">
<title>Node9</title>
<g id="a_Node000009"><a xlink:href="classWolfstagInteractive_1_1ConvoCore_1_1ConvoCoreUIFoundation.html" target="_top" xlink:title="Used as a basis of any UI that can be assigned in the inspector that includes all the base functions ...">
<polygon fill="white" stroke="#666666" points="1786,-264 1626,-264 1626,-234 1786,-234 1786,-264"/>
<text text-anchor="start" x="1634" y="-252" font-family="Helvetica,sans-Serif" font-size="10.00">WolfstagInteractive.Convo</text>
<text text-anchor="middle" x="1706" y="-241" font-family="Helvetica,sans-Serif" font-size="10.00">Core.ConvoCoreUIFoundation</text>
</a>
</g>
</g>
<!-- Node2&#45;&gt;Node9 -->
<g id="edge10_Node000009_Node000002" class="edge">
<title>Node2&#45;&gt;Node9</title>
<g id="a_edge10_Node000009_Node000002"><a xlink:title=" ">
<path fill="none" stroke="#63b8ff" d="M1076.39,-164.76C1157.49,-183 1321.26,-217.8 1462,-235 1516.53,-241.66 1578.34,-245.17 1625.98,-247.01"/>
<polygon fill="#63b8ff" stroke="#63b8ff" points="1076.98,-161.3 1066.45,-162.51 1075.43,-168.13 1076.98,-161.3"/>
</a>
</g>
</g>
<!-- Node10 -->
<g id="Node000010" class="node">
<title>Node10</title>
<g id="a_Node000010"><a xlink:href="classWolfstagInteractive_1_1ConvoCore_1_1ConvoCoreDialogueHistoryUI.html" target="_top" xlink:title=" ">
<polygon fill="white" stroke="#666666" points="1444,-97 1259,-97 1259,-67 1444,-67 1444,-97"/>
<text text-anchor="start" x="1267" y="-85" font-family="Helvetica,sans-Serif" font-size="10.00">WolfstagInteractive.Convo</text>
<text text-anchor="middle" x="1351.5" y="-74" font-family="Helvetica,sans-Serif" font-size="10.00">Core.ConvoCoreDialogueHistoryUI</text>
</a>
</g>
</g>
<!-- Node2&#45;&gt;Node10 -->
<g id="edge14_Node000010_Node000002" class="edge">
<title>Node2&#45;&gt;Node10</title>
<g id="a_edge14_Node000010_Node000002"><a xlink:title=" ">
<path fill="none" stroke="#63b8ff" d="M1075.27,-141.11C1095.62,-136.31 1119.42,-130.79 1141,-126 1185.99,-116.02 1236.55,-105.38 1276.73,-97.07"/>
<polygon fill="#63b8ff" stroke="#63b8ff" points="1074.2,-137.76 1065.27,-143.47 1075.81,-144.57 1074.2,-137.76"/>
</a>
</g>
</g>
<!-- Node3 -->
<g id="Node000003" class="node">
<title>Node3</title>
<g id="a_Node000003"><a xlink:href="interfaceWolfstagInteractive_1_1ConvoCore_1_1IUIFoundation.html" target="_top" xlink:title="Contract between the ConvoCore runner and a dialogue UI implementation.">
<polygon fill="white" stroke="#666666" points="1393.5,-181.5 1309.5,-181.5 1309.5,-162.5 1393.5,-162.5 1393.5,-181.5"/>
<text text-anchor="middle" x="1351.5" y="-169.5" font-family="Helvetica,sans-Serif" font-size="10.00">IUIFoundation</text>
</a>
</g>
</g>
<!-- Node3&#45;&gt;Node1 -->
<g id="edge2_Node000001_Node000003" class="edge">
<title>Node3&#45;&gt;Node1</title>
<g id="a_edge2_Node000001_Node000003"><a xlink:title=" ">
<path fill="none" stroke="#63b8ff" d="M1403.98,-168.85C1455.66,-165.44 1537.5,-159.34 1608,-151 1613.84,-150.31 1619.86,-149.53 1625.92,-148.71"/>
<polygon fill="#63b8ff" stroke="#63b8ff" points="1403.5,-165.38 1393.74,-169.52 1403.95,-172.36 1403.5,-165.38"/>
</a>
</g>
</g>
<!-- Node3&#45;&gt;Node9 -->
<g id="edge11_Node000009_Node000003" class="edge">
<title>Node3&#45;&gt;Node9</title>
<g id="a_edge11_Node000009_Node000003"><a xlink:title=" ">
<path fill="none" stroke="#63b8ff" d="M1403.57,-173.76C1455.82,-176.63 1538.91,-184.17 1608,-204 1632.8,-211.12 1659.27,-223.77 1678.28,-233.85"/>
<polygon fill="#63b8ff" stroke="#63b8ff" points="1403.71,-170.26 1393.55,-173.24 1403.36,-177.25 1403.71,-170.26"/>
</a>
</g>
</g>
<!-- Node4&#45;&gt;Node1 -->
<g id="edge3_Node000001_Node000004" class="edge">
<title>Node4&#45;&gt;Node1</title>
<g id="a_edge3_Node000001_Node000004"><a xlink:title=" ">
<path fill="none" stroke="#9a32cd" stroke-dasharray="5,2" d="M1398.46,-262.96C1469.34,-233.61 1603.89,-177.88 1668.54,-151.1"/>
<polygon fill="#9a32cd" stroke="#9a32cd" points="1396.8,-259.87 1388.9,-266.93 1399.47,-266.33 1396.8,-259.87"/>
</a>
</g>
<text text-anchor="middle" x="1535" y="-238" font-family="Helvetica,sans-Serif" font-size="10.00" fill="grey"> ConvoCoreInstance</text>
</g>
<!-- Node4&#45;&gt;Node9 -->
<g id="edge12_Node000009_Node000004" class="edge">
<title>Node4&#45;&gt;Node9</title>
<g id="a_edge12_Node000009_Node000004"><a xlink:title=" ">
<path fill="none" stroke="#9a32cd" stroke-dasharray="5,2" d="M1434.81,-275.48C1484.91,-271.37 1550.18,-265.77 1608,-260 1613.82,-259.42 1619.83,-258.8 1625.88,-258.15"/>
<polygon fill="#9a32cd" stroke="#9a32cd" points="1434.37,-272.01 1424.68,-276.31 1434.94,-278.98 1434.37,-272.01"/>
</a>
</g>
<text text-anchor="middle" x="1535" y="-276" font-family="Helvetica,sans-Serif" font-size="10.00" fill="grey"> ConvoCoreInstance</text>
</g>
<!-- Node5 -->
<g id="Node000005" class="node">
<title>Node5</title>
<g id="a_Node000005"><a xlink:href="interfaceWolfstagInteractive_1_1ConvoCore_1_1IConvoCoreRunner.html" target="_top" xlink:title="Minimal interface implemented by ConvoCore.">
<polygon fill="white" stroke="#666666" points="1078,-314.5 971,-314.5 971,-295.5 1078,-295.5 1078,-314.5"/>
<text text-anchor="middle" x="1024.5" y="-302.5" font-family="Helvetica,sans-Serif" font-size="10.00">IConvoCoreRunner</text>
</a>
</g>
</g>
<!-- Node5&#45;&gt;Node4 -->
<g id="edge5_Node000004_Node000005" class="edge">
<title>Node5&#45;&gt;Node4</title>
<g id="a_edge5_Node000004_Node000005"><a xlink:title=" ">
<path fill="none" stroke="#63b8ff" d="M1088.25,-301.21C1131.25,-298.54 1189.6,-294.78 1241,-291 1253.08,-290.11 1265.9,-289.11 1278.36,-288.11"/>
<polygon fill="#63b8ff" stroke="#63b8ff" points="1087.98,-297.72 1078.21,-301.83 1088.41,-304.7 1087.98,-297.72"/>
</a>
</g>
</g>
<!-- Node6 -->
<g id="Node000006" class="node">
<title>Node6</title>
<g id="a_Node000006"><a xlink:href="classWolfstagInteractive_1_1ConvoCore_1_1ConvoCoreConversationData.html" target="_top" xlink:title=" ">
<polygon fill="white" stroke="#666666" points="481,-261 298,-261 298,-231 481,-231 481,-261"/>
<text text-anchor="start" x="306" y="-249" font-family="Helvetica,sans-Serif" font-size="10.00">WolfstagInteractive.Convo</text>
<text text-anchor="middle" x="389.5" y="-238" font-family="Helvetica,sans-Serif" font-size="10.00">Core.ConvoCoreConversationData</text>
</a>
</g>
</g>
<!-- Node6&#45;&gt;Node4 -->
<g id="edge6_Node000004_Node000006" class="edge">
<title>Node6&#45;&gt;Node4</title>
<g id="a_edge6_Node000004_Node000006"><a xlink:title=" ">
<path fill="none" stroke="#9a32cd" stroke-dasharray="5,2" d="M467.88,-263.13C601.32,-290.67 883.45,-340.17 1123,-324 1175.8,-320.44 1188.97,-317.68 1241,-308 1257.62,-304.91 1275.5,-300.94 1291.91,-297.03"/>
<polygon fill="#9a32cd" stroke="#9a32cd" points="468.26,-259.63 457.76,-261.02 466.84,-266.49 468.26,-259.63"/>
</a>
</g>
<text text-anchor="middle" x="805" y="-326" font-family="Helvetica,sans-Serif" font-size="10.00" fill="grey"> ConversationData</text>
</g>
<!-- Node7 -->
<g id="Node000007" class="node">
<title>Node7</title>
<g id="a_Node000007"><a xlink:title=" ">
<polygon fill="white" stroke="#666666" points="97,-135.5 0,-135.5 0,-116.5 97,-116.5 97,-135.5"/>
<text text-anchor="middle" x="48.5" y="-123.5" font-family="Helvetica,sans-Serif" font-size="10.00">ScriptableObject</text>
</a>
</g>
</g>
<!-- Node7&#45;&gt;Node6 -->
<g id="edge7_Node000006_Node000007" class="edge">
<title>Node7&#45;&gt;Node6</title>
<g id="a_edge7_Node000006_Node000007"><a xlink:title=" ">
<path fill="none" stroke="#63b8ff" d="M70.34,-141.59C86.87,-153.31 110.94,-169.01 134,-179 189.34,-202.97 255.27,-220.04 306.16,-230.94"/>
<polygon fill="#63b8ff" stroke="#63b8ff" points="72.15,-138.58 62,-135.55 68.04,-144.25 72.15,-138.58"/>
</a>
</g>
</g>
<!-- Node11 -->
<g id="Node000011" class="node">
<title>Node11</title>
<g id="a_Node000011"><a xlink:href="classWolfstagInteractive_1_1ConvoCore_1_1ConvoCoreSettings.html" target="_top" xlink:title="Global runtime settings ScriptableObject for ConvoCore.">
<polygon fill="white" stroke="#666666" points="280,-141 134,-141 134,-111 280,-111 280,-141"/>
<text text-anchor="start" x="142" y="-129" font-family="Helvetica,sans-Serif" font-size="10.00">WolfstagInteractive.Convo</text>
<text text-anchor="middle" x="207" y="-118" font-family="Helvetica,sans-Serif" font-size="10.00">Core.ConvoCoreSettings</text>
</a>
</g>
</g>
<!-- Node7&#45;&gt;Node11 -->
<g id="edge16_Node000011_Node000007" class="edge">
<title>Node7&#45;&gt;Node11</title>
<g id="a_edge16_Node000011_Node000007"><a xlink:title=" ">
<path fill="none" stroke="#63b8ff" d="M107.31,-126C116,-126 125.05,-126 133.99,-126"/>
<polygon fill="#63b8ff" stroke="#63b8ff" points="107.31,-122.5 97.31,-126 107.31,-129.5 107.31,-122.5"/>
</a>
</g>
</g>
<!-- Node13 -->
<g id="Node000013" class="node">
<title>Node13</title>
<g id="a_Node000013"><a xlink:href="classWolfstagInteractive_1_1ConvoCore_1_1ConvoCoreHistoryRendererProfile.html" target="_top" xlink:title=" ">
<polygon fill="white" stroke="#666666" points="908,-30 702,-30 702,0 908,0 908,-30"/>
<text text-anchor="start" x="710" y="-18" font-family="Helvetica,sans-Serif" font-size="10.00">WolfstagInteractive.Convo</text>
<text text-anchor="middle" x="805" y="-7" font-family="Helvetica,sans-Serif" font-size="10.00">Core.ConvoCoreHistoryRendererProfile</text>
</a>
</g>
</g>
<!-- Node7&#45;&gt;Node13 -->
<g id="edge20_Node000013_Node000007" class="edge">
<title>Node7&#45;&gt;Node13</title>
<g id="a_edge20_Node000013_Node000007"><a xlink:title=" ">
<path fill="none" stroke="#63b8ff" d="M79.57,-112.27C125.52,-92.02 216.49,-54.85 298,-39 435.91,-12.18 598.74,-9.49 701.69,-11.25"/>
<polygon fill="#63b8ff" stroke="#63b8ff" points="77.91,-109.17 70.2,-116.43 80.76,-115.57 77.91,-109.17"/>
</a>
</g>
</g>
<!-- Node8 -->
<g id="Node000008" class="node">
<title>Node8</title>
<g id="a_Node000008"><a xlink:href="interfaceWolfstagInteractive_1_1ConvoCore_1_1IConvoInput.html" target="_top" xlink:title="Input strategy interface.">
<polygon fill="white" stroke="#666666" points="1097.5,-218 951.5,-218 951.5,-188 1097.5,-188 1097.5,-218"/>
<text text-anchor="start" x="959.5" y="-206" font-family="Helvetica,sans-Serif" font-size="10.00">WolfstagInteractive.Convo</text>
<text text-anchor="middle" x="1024.5" y="-195" font-family="Helvetica,sans-Serif" font-size="10.00">Core.IConvoInput</text>
</a>
</g>
</g>
<!-- Node8&#45;&gt;Node4 -->
<g id="edge8_Node000004_Node000008" class="edge">
<title>Node8&#45;&gt;Node4</title>
<g id="a_edge8_Node000004_Node000008"><a xlink:title=" ">
<path fill="none" stroke="#9a32cd" stroke-dasharray="5,2" d="M1107.37,-220.09C1147.73,-228.81 1197.06,-239.9 1241,-251 1260.25,-255.86 1281.26,-261.69 1299.69,-266.97"/>
<polygon fill="#9a32cd" stroke="#9a32cd" points="1108.09,-216.67 1097.57,-217.98 1106.61,-223.51 1108.09,-216.67"/>
</a>
</g>
<text text-anchor="middle" x="1191" y="-254" font-family="Helvetica,sans-Serif" font-size="10.00" fill="grey"> Input</text>
</g>
<!-- Node9&#45;&gt;Node4 -->
<g id="edge9_Node000004_Node000009" class="edge">
<title>Node9&#45;&gt;Node4</title>
<g id="a_edge9_Node000004_Node000009"><a xlink:title=" ">
<path fill="none" stroke="#9a32cd" stroke-dasharray="5,2" d="M1671.17,-269.12C1653.1,-278.71 1630.08,-289.13 1608,-294 1547.18,-307.42 1476.32,-302.53 1424.67,-295.37"/>
<polygon fill="#9a32cd" stroke="#9a32cd" points="1673.04,-272.09 1680.14,-264.22 1669.69,-265.95 1673.04,-272.09"/>
</a>
</g>
<text text-anchor="middle" x="1535" y="-305" font-family="Helvetica,sans-Serif" font-size="10.00" fill="grey"> ConversationUI</text>
</g>
<!-- Node10&#45;&gt;Node1 -->
<g id="edge26_Node000001_Node000010" class="edge">
<title>Node10&#45;&gt;Node1</title>
<g id="a_edge26_Node000001_Node000010"><a xlink:title=" ">
<path fill="none" stroke="#9a32cd" stroke-dasharray="5,2" d="M1454.1,-69.62C1501.58,-66.86 1558.45,-67.93 1608,-81 1637.2,-88.7 1666.83,-107.44 1685.53,-120.91"/>
<polygon fill="#9a32cd" stroke="#9a32cd" points="1453.87,-66.13 1444.11,-70.27 1454.32,-73.11 1453.87,-66.13"/>
</a>
</g>
<text text-anchor="middle" x="1535" y="-84" font-family="Helvetica,sans-Serif" font-size="10.00" fill="grey"> ConvoCoreDialogueHistoryUI</text>
</g>
<!-- Node10&#45;&gt;Node9 -->
<g id="edge13_Node000009_Node000010" class="edge">
<title>Node10&#45;&gt;Node9</title>
<g id="a_edge13_Node000009_Node000010"><a xlink:title=" ">
<path fill="none" stroke="#9a32cd" stroke-dasharray="5,2" d="M1435.5,-99.48C1487.29,-112.56 1554.11,-133.5 1608,-164 1641.52,-182.97 1673.78,-214.82 1691.35,-233.68"/>
<polygon fill="#9a32cd" stroke="#9a32cd" points="1436.23,-96.06 1425.69,-97.05 1434.55,-102.85 1436.23,-96.06"/>
</a>
</g>
<text text-anchor="middle" x="1535" y="-167" font-family="Helvetica,sans-Serif" font-size="10.00" fill="grey"> ConvoCoreDialogueHistoryUI</text>
</g>
<!-- Node11&#45;&gt;Node10 -->
<g id="edge15_Node000010_Node000011" class="edge">
<title>Node11&#45;&gt;Node10</title>
<g id="a_edge15_Node000010_Node000011"><a xlink:title=" ">
<path fill="none" stroke="#9a32cd" stroke-dasharray="5,2" d="M290.13,-117.81C423.41,-104.96 695.14,-80.67 926,-72 1013.49,-68.71 1035.47,-70.08 1123,-72 1167.76,-72.98 1217.44,-75.05 1258.93,-77.06"/>
<polygon fill="#9a32cd" stroke="#9a32cd" points="289.62,-114.34 280,-118.79 290.29,-121.31 289.62,-114.34"/>
</a>
</g>
<text text-anchor="middle" x="805" y="-87" font-family="Helvetica,sans-Serif" font-size="10.00" fill="grey"> convoCoreSettings</text>
</g>
<!-- Node11&#45;&gt;Node11 -->
<g id="edge17_Node000011_Node000011" class="edge">
<title>Node11&#45;&gt;Node11</title>
<g id="a_edge17_Node000011_Node000011"><a xlink:title=" ">
<path fill="none" stroke="#9a32cd" stroke-dasharray="5,2" d="M191.25,-151.6C193.4,-155.97 198.65,-159 207,-159 221.06,-159 226.34,-150.41 222.82,-141.28"/>
<polygon fill="#9a32cd" stroke="#9a32cd" points="194.74,-151.25 191.18,-141.28 187.74,-151.3 194.74,-151.25"/>
</a>
</g>
<text text-anchor="middle" x="207" y="-162" font-family="Helvetica,sans-Serif" font-size="10.00" fill="grey"> _instance</text>
</g>
<!-- Node15 -->
<g id="Node000015" class="node">
<title>Node15</title>
<g id="a_Node000015"><a xlink:href="classWolfstagInteractive_1_1ConvoCore_1_1ConvoCoreLanguageManager.html" target="_top" xlink:title=" ">
<polygon fill="white" stroke="#666666" points="684,-208 499,-208 499,-178 684,-178 684,-208"/>
<text text-anchor="start" x="507" y="-196" font-family="Helvetica,sans-Serif" font-size="10.00">WolfstagInteractive.Convo</text>
<text text-anchor="middle" x="591.5" y="-185" font-family="Helvetica,sans-Serif" font-size="10.00">Core.ConvoCoreLanguageManager</text>
</a>
</g>
</g>
<!-- Node11&#45;&gt;Node15 -->
<g id="edge24_Node000015_Node000011" class="edge">
<title>Node11&#45;&gt;Node15</title>
<g id="a_edge24_Node000015_Node000011"><a xlink:title=" ">
<path fill="none" stroke="#9a32cd" stroke-dasharray="5,2" d="M290.33,-140.42C353.56,-151.5 440.61,-166.75 504.69,-177.97"/>
<polygon fill="#9a32cd" stroke="#9a32cd" points="290.85,-136.96 280.4,-138.68 289.64,-143.85 290.85,-136.96"/>
</a>
</g>
<text text-anchor="middle" x="389.5" y="-177" font-family="Helvetica,sans-Serif" font-size="10.00" fill="grey"> _convoCoreSettings</text>
</g>
<!-- Node12 -->
<g id="Node000012" class="node">
<title>Node12</title>
<g id="a_Node000012"><a xlink:href="interfaceWolfstagInteractive_1_1ConvoCore_1_1IConvoCoreHistoryRenderer.html" target="_top" xlink:title="Base contract for any dialogue history renderer.">
<polygon fill="white" stroke="#666666" points="1113.5,-111 935.5,-111 935.5,-81 1113.5,-81 1113.5,-111"/>
<text text-anchor="start" x="943.5" y="-99" font-family="Helvetica,sans-Serif" font-size="10.00">WolfstagInteractive.Convo</text>
<text text-anchor="middle" x="1024.5" y="-88" font-family="Helvetica,sans-Serif" font-size="10.00">Core.IConvoCoreHistoryRenderer</text>
</a>
</g>
</g>
<!-- Node12&#45;&gt;Node10 -->
<g id="edge18_Node000010_Node000012" class="edge">
<title>Node12&#45;&gt;Node10</title>
<g id="a_edge18_Node000010_Node000012"><a xlink:title=" ">
<path fill="none" stroke="#9a32cd" stroke-dasharray="5,2" d="M1124.09,-87.96C1129.81,-87.61 1135.48,-87.28 1141,-87 1179.61,-85.04 1222.25,-83.84 1258.94,-83.12"/>
<polygon fill="#9a32cd" stroke="#9a32cd" points="1123.51,-84.49 1113.75,-88.63 1123.96,-91.48 1123.51,-84.49"/>
</a>
</g>
<text text-anchor="middle" x="1191" y="-90" font-family="Helvetica,sans-Serif" font-size="10.00" fill="grey"> _renderer</text>
</g>
<!-- Node13&#45;&gt;Node10 -->
<g id="edge19_Node000010_Node000013" class="edge">
<title>Node13&#45;&gt;Node10</title>
<g id="a_edge19_Node000010_Node000013"><a xlink:title=" ">
<path fill="none" stroke="#9a32cd" stroke-dasharray="5,2" d="M918.2,-10.33C1006.99,-9.22 1133.48,-13.42 1241,-39 1268.22,-45.48 1297.67,-57.34 1319.16,-66.96"/>
<polygon fill="#9a32cd" stroke="#9a32cd" points="918.06,-6.83 908.11,-10.48 918.16,-13.83 918.06,-6.83"/>
</a>
</g>
<text text-anchor="middle" x="1024.5" y="-22" font-family="Helvetica,sans-Serif" font-size="10.00" fill="grey"> _activeProfile</text>
</g>
<!-- Node14 -->
<g id="Node000014" class="node">
<title>Node14</title>
<g id="a_Node000014"><a xlink:href="classWolfstagInteractive_1_1ConvoCore_1_1ConvoCoreDialogueLocalizationHandler.html" target="_top" xlink:title=" ">
<polygon fill="white" stroke="#666666" points="1123,-277.5 926,-277.5 926,-236.5 1123,-236.5 1123,-277.5"/>
<text text-anchor="start" x="934" y="-265.5" font-family="Helvetica,sans-Serif" font-size="10.00">WolfstagInteractive.Convo</text>
<text text-anchor="start" x="934" y="-254.5" font-family="Helvetica,sans-Serif" font-size="10.00">Core.ConvoCoreDialogueLocalization</text>
<text text-anchor="middle" x="1024.5" y="-243.5" font-family="Helvetica,sans-Serif" font-size="10.00">Handler</text>
</a>
</g>
</g>
<!-- Node14&#45;&gt;Node4 -->
<g id="edge21_Node000004_Node000014" class="edge">
<title>Node14&#45;&gt;Node4</title>
<g id="a_edge21_Node000004_Node000014"><a xlink:title=" ">
<path fill="none" stroke="#9a32cd" stroke-dasharray="5,2" d="M1133.08,-265.28C1180.8,-268.95 1235.69,-273.17 1278.38,-276.45"/>
<polygon fill="#9a32cd" stroke="#9a32cd" points="1133.25,-261.78 1123.01,-264.5 1132.71,-268.76 1133.25,-261.78"/>
</a>
</g>
<text text-anchor="middle" x="1191" y="-276" font-family="Helvetica,sans-Serif" font-size="10.00" fill="grey"> LocalizationHandler</text>
</g>
<!-- Node15&#45;&gt;Node14 -->
<g id="edge22_Node000014_Node000015" class="edge">
<title>Node15&#45;&gt;Node14</title>
<g id="a_edge22_Node000014_Node000015"><a xlink:title=" ">
<path fill="none" stroke="#9a32cd" stroke-dasharray="5,2" d="M694.33,-208.12C764.38,-218.52 856.88,-232.26 925.98,-242.52"/>
<polygon fill="#9a32cd" stroke="#9a32cd" points="694.57,-204.62 684.17,-206.61 693.55,-211.54 694.57,-204.62"/>
</a>
</g>
<text text-anchor="middle" x="805" y="-242" font-family="Helvetica,sans-Serif" font-size="10.00" fill="grey"> _convoCoreLanguageManager</text>
</g>
<!-- Node15&#45;&gt;Node15 -->
<g id="edge23_Node000015_Node000015" class="edge">
<title>Node15&#45;&gt;Node15</title>
<g id="a_edge23_Node000015_Node000015"><a xlink:title=" ">
<path fill="none" stroke="#9a32cd" stroke-dasharray="5,2" d="M556.14,-218.6C560.97,-222.97 572.76,-226 591.5,-226 623.06,-226 634.9,-217.41 627.01,-208.28"/>
<polygon fill="#9a32cd" stroke="#9a32cd" points="559.64,-218.22 555.99,-208.28 552.64,-218.33 559.64,-218.22"/>
</a>
</g>
<text text-anchor="middle" x="591.5" y="-229" font-family="Helvetica,sans-Serif" font-size="10.00" fill="grey"> _instance</text>
</g>
<!-- Node16 -->
<g id="Node000016" class="node">
<title>Node16</title>
<g id="a_Node000016"><a xlink:href="interfaceWolfstagInteractive_1_1ConvoCore_1_1IConversationContext.html" target="_top" xlink:title="Provides optional runtime context for branch evaluation.">
<polygon fill="white" stroke="#666666" points="1098.5,-401 950.5,-401 950.5,-371 1098.5,-371 1098.5,-401"/>
<text text-anchor="start" x="958.5" y="-389" font-family="Helvetica,sans-Serif" font-size="10.00">WolfstagInteractive.Convo</text>
<text text-anchor="middle" x="1024.5" y="-378" font-family="Helvetica,sans-Serif" font-size="10.00">Core.IConversationContext</text>
</a>
</g>
</g>
<!-- Node16&#45;&gt;Node4 -->
<g id="edge25_Node000004_Node000016" class="edge">
<title>Node16&#45;&gt;Node4</title>
<g id="a_edge25_Node000004_Node000016"><a xlink:title=" ">
<path fill="none" stroke="#9a32cd" stroke-dasharray="5,2" d="M1109.13,-383.78C1150.01,-380.46 1199.26,-373.05 1241,-357 1277.35,-343.02 1313.42,-314.81 1333.75,-297.26"/>
<polygon fill="#9a32cd" stroke="#9a32cd" points="1108.64,-380.31 1098.93,-384.54 1109.16,-387.29 1108.64,-380.31"/>
</a>
</g>
<text text-anchor="middle" x="1191" y="-383" font-family="Helvetica,sans-Serif" font-size="10.00" fill="grey"> _context</text>
</g>
</g>
</svg>
