<?xml version="1.0" encoding="UTF-8" standalone="no"?>
<!DOCTYPE svg PUBLIC "-//W3C//DTD SVG 1.1//EN"
 "http://www.w3.org/Graphics/SVG/1.1/DTD/svg11.dtd">
<!-- Generated by graphviz version 2.43.0 (0)
 -->
<!-- Title: WolfstagInteractive.ConvoCore.ConvoCoreAudioEventKeyReference Pages: 1 -->
<svg width="226pt" height="148pt"
 viewBox="0.00 0.00 226.00 148.00" xmlns="http://www.w3.org/2000/svg" xmlns:xlink="http://www.w3.org/1999/xlink">
<g id="graph0" class="graph" transform="scale(1 1) rotate(0) translate(4 144)">
<title>WolfstagInteractive.ConvoCore.ConvoCoreAudioEventKeyReference</title>
<!-- Node1 -->
<g id="Node000001" class="node">
<title>Node1</title>
<g id="a_Node000001"><a xlink:title="Passes a middleware event key (FMOD event path, Wwise event name, etc.) through the IConvoAudioProvid...">
<polygon fill="#999999" stroke="#666666" points="218,-30 0,-30 0,0 218,0 218,-30"/>
<text text-anchor="start" x="8" y="-18" font-family="Helvetica,sans-Serif" font-size="10.00">WolfstagInteractive.Convo</text>
<text text-anchor="middle" x="109" y="-7" font-family="Helvetica,sans-Serif" font-size="10.00">Core.ConvoCoreAudioEventKeyReference</text>
</a>
</g>
</g>
<!-- Node2 -->
<g id="Node000002" class="node">
<title>Node2</title>
<g id="a_Node000002"><a xlink:href="classWolfstagInteractive_1_1ConvoCore_1_1ConvoAudioReference.html" target="_top" xlink:title="Abstract base for audio references used in ConvoCore&#39;s audio manifest.">
<polygon fill="white" stroke="#666666" points="171.5,-85 46.5,-85 46.5,-66 171.5,-66 171.5,-85"/>
<text text-anchor="middle" x="109" y="-73" font-family="Helvetica,sans-Serif" font-size="10.00">ConvoAudioReference</text>
</a>
</g>
</g>
<!-- Node2&#45;&gt;Node1 -->
<g id="edge1_Node000001_Node000002" class="edge">
<title>Node2&#45;&gt;Node1</title>
<g id="a_edge1_Node000001_Node000002"><a xlink:title=" ">
<path fill="none" stroke="#63b8ff" d="M109,-55.65C109,-47.36 109,-37.78 109,-30.11"/>
<polygon fill="#63b8ff" stroke="#63b8ff" points="105.5,-55.87 109,-65.87 112.5,-55.87 105.5,-55.87"/>
</a>
</g>
</g>
<!-- Node3 -->
<g id="Node000003" class="node">
<title>Node3</title>
<g id="a_Node000003"><a xlink:title=" ">
<polygon fill="white" stroke="#666666" points="190,-140 28,-140 28,-121 190,-121 190,-140"/>
<text text-anchor="middle" x="109" y="-128" font-family="Helvetica,sans-Serif" font-size="10.00">UnityEngine::ScriptableObject</text>
</a>
</g>
</g>
<!-- Node3&#45;&gt;Node2 -->
<g id="edge2_Node000002_Node000003" class="edge">
<title>Node3&#45;&gt;Node2</title>
<g id="a_edge2_Node000002_Node000003"><a xlink:title=" ">
<path fill="none" stroke="#63b8ff" d="M109,-110.66C109,-101.93 109,-91.99 109,-85.09"/>
<polygon fill="#63b8ff" stroke="#63b8ff" points="105.5,-110.75 109,-120.75 112.5,-110.75 105.5,-110.75"/>
</a>
</g>
</g>
</g>
</svg>
