<?xml version="1.0" encoding="UTF-8" standalone="no"?>
<!DOCTYPE svg PUBLIC "-//W3C//DTD SVG 1.1//EN"
 "http://www.w3.org/Graphics/SVG/1.1/DTD/svg11.dtd">
<!-- Generated by graphviz version 2.43.0 (0)
 -->
<!-- Title: WolfstagInteractive.ConvoCore.ConvoCoreYamlUtilities Pages: 1 -->
<svg width="465pt" height="171pt"
 viewBox="0.00 0.00 464.50 171.00" xmlns="http://www.w3.org/2000/svg" xmlns:xlink="http://www.w3.org/1999/xlink">
<g id="graph0" class="graph" transform="scale(1 1) rotate(0) translate(4 167)">
<title>WolfstagInteractive.ConvoCore.ConvoCoreYamlUtilities</title>
<!-- Node1 -->
<g id="Node000001" class="node">
<title>Node1</title>
<g id="a_Node000001"><a xlink:title=" ">
<polygon fill="#999999" stroke="#666666" points="157,-30 0,-30 0,0 157,0 157,-30"/>
<text text-anchor="start" x="8" y="-18" font-family="Helvetica,sans-Serif" font-size="10.00">WolfstagInteractive.Convo</text>
<text text-anchor="middle" x="78.5" y="-7" font-family="Helvetica,sans-Serif" font-size="10.00">Core.ConvoCoreYamlUtilities</text>
</a>
</g>
</g>
<!-- Node2 -->
<g id="Node000002" class="node">
<title>Node2</title>
<g id="a_Node000002"><a xlink:href="classWolfstagInteractive_1_1ConvoCore_1_1ConvoCoreConversationData.html" target="_top" xlink:title=" ">
<polygon fill="white" stroke="#666666" points="388,-107 205,-107 205,-77 388,-77 388,-107"/>
<text text-anchor="start" x="213" y="-95" font-family="Helvetica,sans-Serif" font-size="10.00">WolfstagInteractive.Convo</text>
<text text-anchor="middle" x="296.5" y="-84" font-family="Helvetica,sans-Serif" font-size="10.00">Core.ConvoCoreConversationData</text>
</a>
</g>
</g>
<!-- Node2&#45;&gt;Node1 -->
<g id="edge1_Node000001_Node000002" class="edge">
<title>Node2&#45;&gt;Node1</title>
<g id="a_edge1_Node000001_Node000002"><a xlink:title=" ">
<path fill="none" stroke="#9a32cd" stroke-dasharray="5,2" d="M194.65,-85.42C150.99,-81 106.38,-73.11 90.5,-59 82.39,-51.79 79.56,-39.61 78.66,-30.05"/>
<polygon fill="#9a32cd" stroke="#9a32cd" points="194.54,-88.93 204.83,-86.39 195.2,-81.96 194.54,-88.93"/>
</a>
</g>
<text text-anchor="middle" x="164.5" y="-51" font-family="Helvetica,sans-Serif" font-size="10.00" fill="grey"> _convoCoreConversationData</text>
</g>
<!-- Node4 -->
<g id="Node000004" class="node">
<title>Node4</title>
<g id="a_Node000004"><a xlink:href="classWolfstagInteractive_1_1ConvoCore_1_1ConvoCoreAudioManifest.html" target="_top" xlink:title="Maps dialogue line IDs to audio clips or middleware references, supporting Unity AudioSource,...">
<polygon fill="white" stroke="#666666" points="456.5,-30 290.5,-30 290.5,0 456.5,0 456.5,-30"/>
<text text-anchor="start" x="298.5" y="-18" font-family="Helvetica,sans-Serif" font-size="10.00">WolfstagInteractive.Convo</text>
<text text-anchor="middle" x="373.5" y="-7" font-family="Helvetica,sans-Serif" font-size="10.00">Core.ConvoCoreAudioManifest</text>
</a>
</g>
</g>
<!-- Node2&#45;&gt;Node4 -->
<g id="edge5_Node000004_Node000002" class="edge">
<title>Node2&#45;&gt;Node4</title>
<g id="a_edge5_Node000004_Node000002"><a xlink:title=" ">
<path fill="none" stroke="#9a32cd" stroke-dasharray="5,2" d="M253.71,-71.24C244.83,-64.47 239.91,-56.45 246.5,-48 252.79,-39.93 270.35,-33.58 290.49,-28.74"/>
<polygon fill="#9a32cd" stroke="#9a32cd" points="252.05,-74.34 262.35,-76.85 255.87,-68.47 252.05,-74.34"/>
</a>
</g>
<text text-anchor="middle" x="297" y="-51" font-family="Helvetica,sans-Serif" font-size="10.00" fill="grey"> SourceConversation</text>
</g>
<!-- Node3 -->
<g id="Node000003" class="node">
<title>Node3</title>
<g id="a_Node000003"><a xlink:title=" ">
<polygon fill="white" stroke="#666666" points="451,-163 354,-163 354,-144 451,-144 451,-163"/>
<text text-anchor="middle" x="402.5" y="-151" font-family="Helvetica,sans-Serif" font-size="10.00">ScriptableObject</text>
</a>
</g>
</g>
<!-- Node3&#45;&gt;Node2 -->
<g id="edge2_Node000002_Node000003" class="edge">
<title>Node3&#45;&gt;Node2</title>
<g id="a_edge2_Node000002_Node000003"><a xlink:title=" ">
<path fill="none" stroke="#63b8ff" d="M378.52,-139.04C361.51,-129.49 338.72,-116.7 321.48,-107.02"/>
<polygon fill="#63b8ff" stroke="#63b8ff" points="376.88,-142.13 387.31,-143.98 380.31,-136.03 376.88,-142.13"/>
</a>
</g>
</g>
<!-- Node3&#45;&gt;Node4 -->
<g id="edge4_Node000004_Node000003" class="edge">
<title>Node3&#45;&gt;Node4</title>
<g id="a_edge4_Node000004_Node000003"><a xlink:title=" ">
<path fill="none" stroke="#63b8ff" d="M416.28,-135.63C432.1,-114.07 453.79,-76.17 436.5,-48 431.88,-40.47 424.88,-34.65 417.19,-30.16"/>
<polygon fill="#63b8ff" stroke="#63b8ff" points="413.32,-133.74 409.99,-143.8 418.86,-138.01 413.32,-133.74"/>
</a>
</g>
</g>
<!-- Node4&#45;&gt;Node2 -->
<g id="edge3_Node000002_Node000004" class="edge">
<title>Node4&#45;&gt;Node2</title>
<g id="a_edge3_Node000002_Node000004"><a xlink:title=" ">
<path fill="none" stroke="#9a32cd" stroke-dasharray="5,2" d="M364.45,-39.58C361.08,-46.37 356.77,-53.44 351.5,-59 344.81,-66.06 336.23,-72.04 327.83,-76.86"/>
<polygon fill="#9a32cd" stroke="#9a32cd" points="367.83,-40.59 368.7,-30.03 361.43,-37.74 367.83,-40.59"/>
</a>
</g>
<text text-anchor="middle" x="395.5" y="-51" font-family="Helvetica,sans-Serif" font-size="10.00" fill="grey"> AudioManifest</text>
</g>
</g>
</svg>
