<?xml version="1.0" encoding="UTF-8" standalone="no"?>
<!DOCTYPE svg PUBLIC "-//W3C//DTD SVG 1.1//EN"
 "http://www.w3.org/Graphics/SVG/1.1/DTD/svg11.dtd">
<!-- Generated by graphviz version 2.43.0 (0)
 -->
<!-- Title: WolfstagInteractive.ConvoCore.ConvoCoreSampleUI3D Pages: 1 -->
<svg width="2210pt" height="657pt"
 viewBox="0.00 0.00 2210.00 656.80" xmlns="http://www.w3.org/2000/svg" xmlns:xlink="http://www.w3.org/1999/xlink">
<g id="graph0" class="graph" transform="scale(1 1) rotate(0) translate(4 652.8)">
<title>WolfstagInteractive.ConvoCore.ConvoCoreSampleUI3D</title>
<!-- Node1 -->
<g id="Node000001" class="node">
<title>Node1</title>
<g id="a_Node000001"><a xlink:title="World&#45;space dialogue UI for 3D character conversations.">
<polygon fill="#999999" stroke="#666666" points="2202,-83.5 2046,-83.5 2046,-53.5 2202,-53.5 2202,-83.5"/>
<text text-anchor="start" x="2054" y="-71.5" font-family="Helvetica,sans-Serif" font-size="10.00">WolfstagInteractive.Convo</text>
<text text-anchor="middle" x="2124" y="-60.5" font-family="Helvetica,sans-Serif" font-size="10.00">Core.ConvoCoreSampleUI3D</text>
</a>
</g>
</g>
<!-- Node2 -->
<g id="Node000002" class="node">
<title>Node2</title>
<g id="a_Node000002"><a xlink:href="classWolfstagInteractive_1_1ConvoCore_1_1ConvoCoreUIFoundation.html" target="_top" xlink:title="Used as a basis of any UI that can be assigned in the inspector that includes all the base functions ...">
<polygon fill="white" stroke="#666666" points="1825.5,-148 1691.5,-148 1691.5,-129 1825.5,-129 1825.5,-148"/>
<text text-anchor="middle" x="1758.5" y="-136" font-family="Helvetica,sans-Serif" font-size="10.00">ConvoCoreUIFoundation</text>
</a>
</g>
</g>
<!-- Node2&#45;&gt;Node1 -->
<g id="edge1_Node000001_Node000002" class="edge">
<title>Node2&#45;&gt;Node1</title>
<g id="a_edge1_Node000001_Node000002"><a xlink:title=" ">
<path fill="none" stroke="#63b8ff" d="M1835.86,-144.07C1890.51,-145.77 1965.22,-143.4 2028,-124.5 2056.6,-115.89 2085.62,-96.98 2103.93,-83.52"/>
<polygon fill="#63b8ff" stroke="#63b8ff" points="1835.67,-140.56 1825.55,-143.69 1835.41,-147.55 1835.67,-140.56"/>
</a>
</g>
</g>
<!-- Node3 -->
<g id="Node000003" class="node">
<title>Node3</title>
<g id="a_Node000003"><a xlink:title=" ">
<polygon fill="white" stroke="#666666" points="1076,-113 983,-113 983,-94 1076,-94 1076,-113"/>
<text text-anchor="middle" x="1029.5" y="-101" font-family="Helvetica,sans-Serif" font-size="10.00">MonoBehaviour</text>
</a>
</g>
</g>
<!-- Node3&#45;&gt;Node2 -->
<g id="edge2_Node000002_Node000003" class="edge">
<title>Node3&#45;&gt;Node2</title>
<g id="a_edge2_Node000002_Node000003"><a xlink:title=" ">
<path fill="none" stroke="#63b8ff" d="M1086.43,-103.09C1129.93,-102.94 1191.81,-103.07 1246,-104.5 1421.25,-109.13 1465.36,-108.17 1640,-123.5 1656.7,-124.97 1674.67,-127.02 1691.42,-129.14"/>
<polygon fill="#63b8ff" stroke="#63b8ff" points="1086.32,-99.59 1076.33,-103.13 1086.35,-106.59 1086.32,-99.59"/>
</a>
</g>
</g>
<!-- Node5 -->
<g id="Node000005" class="node">
<title>Node5</title>
<g id="a_Node000005"><a xlink:href="classWolfstagInteractive_1_1ConvoCore_1_1ConvoCore.html" target="_top" xlink:title="Main conversation runner MonoBehaviour.">
<polygon fill="white" stroke="#666666" points="1443,-378.5 1297,-378.5 1297,-348.5 1443,-348.5 1443,-378.5"/>
<text text-anchor="start" x="1305" y="-366.5" font-family="Helvetica,sans-Serif" font-size="10.00">WolfstagInteractive.Convo</text>
<text text-anchor="middle" x="1370" y="-355.5" font-family="Helvetica,sans-Serif" font-size="10.00">Core.ConvoCore</text>
</a>
</g>
</g>
<!-- Node3&#45;&gt;Node5 -->
<g id="edge5_Node000005_Node000003" class="edge">
<title>Node3&#45;&gt;Node5</title>
<g id="a_edge5_Node000005_Node000003"><a xlink:title=" ">
<path fill="none" stroke="#63b8ff" d="M1061.77,-117.15C1084.88,-127.08 1117.2,-140.63 1146,-151.5 1189.92,-168.07 1213.41,-151.71 1246,-185.5 1265.33,-205.54 1250.43,-221.19 1264,-245.5 1287.53,-287.64 1328.34,-327.61 1351.54,-348.48"/>
<polygon fill="#63b8ff" stroke="#63b8ff" points="1063.04,-113.89 1052.47,-113.14 1060.26,-120.32 1063.04,-113.89"/>
</a>
</g>
</g>
<!-- Node11 -->
<g id="Node000011" class="node">
<title>Node11</title>
<g id="a_Node000011"><a xlink:href="classWolfstagInteractive_1_1ConvoCore_1_1ConvoCoreUIFoundation.html" target="_top" xlink:title="Used as a basis of any UI that can be assigned in the inspector that includes all the base functions ...">
<polygon fill="white" stroke="#666666" points="1838.5,-247.5 1678.5,-247.5 1678.5,-217.5 1838.5,-217.5 1838.5,-247.5"/>
<text text-anchor="start" x="1686.5" y="-235.5" font-family="Helvetica,sans-Serif" font-size="10.00">WolfstagInteractive.Convo</text>
<text text-anchor="middle" x="1758.5" y="-224.5" font-family="Helvetica,sans-Serif" font-size="10.00">Core.ConvoCoreUIFoundation</text>
</a>
</g>
</g>
<!-- Node3&#45;&gt;Node11 -->
<g id="edge14_Node000011_Node000003" class="edge">
<title>Node3&#45;&gt;Node11</title>
<g id="a_edge14_Node000011_Node000003"><a xlink:title=" ">
<path fill="none" stroke="#63b8ff" d="M1086.53,-105.31C1141.15,-107.95 1219.71,-114.32 1246,-129.5 1257.55,-136.17 1252.58,-146.61 1264,-153.5 1298.87,-174.54 1548.03,-207.21 1678.41,-223.14"/>
<polygon fill="#63b8ff" stroke="#63b8ff" points="1086.44,-101.8 1076.29,-104.85 1086.12,-108.8 1086.44,-101.8"/>
</a>
</g>
</g>
<!-- Node12 -->
<g id="Node000012" class="node">
<title>Node12</title>
<g id="a_Node000012"><a xlink:href="classWolfstagInteractive_1_1ConvoCore_1_1ConvoCoreDialogueHistoryUI.html" target="_top" xlink:title=" ">
<polygon fill="white" stroke="#666666" points="1462.5,-236.5 1277.5,-236.5 1277.5,-206.5 1462.5,-206.5 1462.5,-236.5"/>
<text text-anchor="start" x="1285.5" y="-224.5" font-family="Helvetica,sans-Serif" font-size="10.00">WolfstagInteractive.Convo</text>
<text text-anchor="middle" x="1370" y="-213.5" font-family="Helvetica,sans-Serif" font-size="10.00">Core.ConvoCoreDialogueHistoryUI</text>
</a>
</g>
</g>
<!-- Node3&#45;&gt;Node12 -->
<g id="edge18_Node000012_Node000003" class="edge">
<title>Node3&#45;&gt;Node12</title>
<g id="a_edge18_Node000012_Node000003"><a xlink:title=" ">
<path fill="none" stroke="#63b8ff" d="M1084.91,-115.17C1146.63,-128.59 1239.59,-149.43 1246,-154.5 1260.02,-165.61 1250.28,-179.02 1264,-190.5 1271.94,-197.15 1281.26,-202.37 1291.01,-206.48"/>
<polygon fill="#63b8ff" stroke="#63b8ff" points="1085.43,-111.71 1074.92,-113.01 1083.95,-118.55 1085.43,-111.71"/>
</a>
</g>
</g>
<!-- Node20 -->
<g id="Node000020" class="node">
<title>Node20</title>
<g id="a_Node000020"><a xlink:href="classWolfstagInteractive_1_1ConvoCore_1_1ConvoCorePrefabRepresentationSpawner.html" target="_top" xlink:title="Resolves, tracks, and releases prefab&#45;based character displays for a single UI instance.">
<polygon fill="white" stroke="#666666" points="1859,-41 1658,-41 1658,0 1859,0 1859,-41"/>
<text text-anchor="start" x="1666" y="-29" font-family="Helvetica,sans-Serif" font-size="10.00">WolfstagInteractive.Convo</text>
<text text-anchor="start" x="1666" y="-18" font-family="Helvetica,sans-Serif" font-size="10.00">Core.ConvoCorePrefabRepresentation</text>
<text text-anchor="middle" x="1758.5" y="-7" font-family="Helvetica,sans-Serif" font-size="10.00">Spawner</text>
</a>
</g>
</g>
<!-- Node3&#45;&gt;Node20 -->
<g id="edge33_Node000020_Node000003" class="edge">
<title>Node3&#45;&gt;Node20</title>
<g id="a_edge33_Node000020_Node000003"><a xlink:title=" ">
<path fill="none" stroke="#63b8ff" d="M1059.51,-89.59C1102.82,-69.76 1187.47,-34.54 1264,-23.5 1399.26,-3.98 1557.54,-7.62 1657.65,-13.14"/>
<polygon fill="#63b8ff" stroke="#63b8ff" points="1057.77,-86.54 1050.17,-93.93 1060.71,-92.89 1057.77,-86.54"/>
</a>
</g>
</g>
<!-- Node21 -->
<g id="Node000021" class="node">
<title>Node21</title>
<g id="a_Node000021"><a xlink:href="classWolfstagInteractive_1_1ConvoCore_1_1ConvoCoreSceneCharacterRegistry.html" target="_top" xlink:title="Scene&#45;level registry that maps developer&#45;assigned string IDs to IConvoCoreCharacterDisplay instances ...">
<polygon fill="white" stroke="#666666" points="1476,-62.5 1264,-62.5 1264,-32.5 1476,-32.5 1476,-62.5"/>
<text text-anchor="start" x="1272" y="-50.5" font-family="Helvetica,sans-Serif" font-size="10.00">WolfstagInteractive.Convo</text>
<text text-anchor="middle" x="1370" y="-39.5" font-family="Helvetica,sans-Serif" font-size="10.00">Core.ConvoCoreSceneCharacterRegistry</text>
</a>
</g>
</g>
<!-- Node3&#45;&gt;Node21 -->
<g id="edge35_Node000021_Node000003" class="edge">
<title>Node3&#45;&gt;Node21</title>
<g id="a_edge35_Node000021_Node000003"><a xlink:title=" ">
<path fill="none" stroke="#63b8ff" d="M1076.92,-91.53C1097.91,-86.4 1123.1,-80.65 1146,-76.5 1184.22,-69.57 1226.42,-63.64 1263.73,-58.99"/>
<polygon fill="#63b8ff" stroke="#63b8ff" points="1075.85,-88.19 1066.98,-93.98 1077.52,-94.98 1075.85,-88.19"/>
</a>
</g>
</g>
<!-- Node4 -->
<g id="Node000004" class="node">
<title>Node4</title>
<g id="a_Node000004"><a xlink:href="interfaceWolfstagInteractive_1_1ConvoCore_1_1IUIFoundation.html" target="_top" xlink:title="Contract between the ConvoCore runner and a dialogue UI implementation.">
<polygon fill="white" stroke="#666666" points="1412,-144 1328,-144 1328,-125 1412,-125 1412,-144"/>
<text text-anchor="middle" x="1370" y="-132" font-family="Helvetica,sans-Serif" font-size="10.00">IUIFoundation</text>
</a>
</g>
</g>
<!-- Node4&#45;&gt;Node2 -->
<g id="edge3_Node000002_Node000004" class="edge">
<title>Node4&#45;&gt;Node2</title>
<g id="a_edge3_Node000002_Node000004"><a xlink:title=" ">
<path fill="none" stroke="#63b8ff" d="M1422.06,-131.83C1476.18,-129.4 1564.14,-126.6 1640,-129.5 1656.66,-130.14 1674.62,-131.28 1691.37,-132.54"/>
<polygon fill="#63b8ff" stroke="#63b8ff" points="1421.86,-128.33 1412.03,-132.29 1422.18,-135.32 1421.86,-128.33"/>
</a>
</g>
</g>
<!-- Node4&#45;&gt;Node11 -->
<g id="edge15_Node000011_Node000004" class="edge">
<title>Node4&#45;&gt;Node11</title>
<g id="a_edge15_Node000011_Node000004"><a xlink:title=" ">
<path fill="none" stroke="#63b8ff" d="M1422.52,-132.69C1477.74,-132.3 1567.27,-136.15 1640,-160.5 1678.11,-173.26 1716.81,-200.28 1738.9,-217.35"/>
<polygon fill="#63b8ff" stroke="#63b8ff" points="1422.25,-129.19 1412.29,-132.82 1422.33,-136.19 1422.25,-129.19"/>
</a>
</g>
</g>
<!-- Node5&#45;&gt;Node2 -->
<g id="edge4_Node000002_Node000005" class="edge">
<title>Node5&#45;&gt;Node2</title>
<g id="a_edge4_Node000002_Node000005"><a xlink:title=" ">
<path fill="none" stroke="#9a32cd" stroke-dasharray="5,2" d="M1397.33,-342.14C1421.25,-323.7 1458.18,-297.55 1494,-281.5 1555.19,-254.08 1587.66,-285.41 1640,-243.5 1653.65,-232.57 1646.51,-221.69 1658,-208.5 1681.3,-181.74 1716.87,-159.96 1738.57,-148.14"/>
<polygon fill="#9a32cd" stroke="#9a32cd" points="1395.15,-339.4 1389.43,-348.32 1399.46,-344.92 1395.15,-339.4"/>
</a>
</g>
<text text-anchor="middle" x="1567" y="-284.5" font-family="Helvetica,sans-Serif" font-size="10.00" fill="grey"> ConvoCoreInstance</text>
</g>
<!-- Node5&#45;&gt;Node11 -->
<g id="edge16_Node000011_Node000005" class="edge">
<title>Node5&#45;&gt;Node11</title>
<g id="a_edge16_Node000011_Node000005"><a xlink:title=" ">
<path fill="none" stroke="#9a32cd" stroke-dasharray="5,2" d="M1453.24,-369.51C1508.31,-370.39 1581.2,-365.32 1640,-339.5 1686.73,-318.98 1727.28,-272.24 1746.18,-247.89"/>
<polygon fill="#9a32cd" stroke="#9a32cd" points="1453.25,-366.01 1443.18,-369.28 1453.09,-373.01 1453.25,-366.01"/>
</a>
</g>
<text text-anchor="middle" x="1567" y="-371.5" font-family="Helvetica,sans-Serif" font-size="10.00" fill="grey"> ConvoCoreInstance</text>
</g>
<!-- Node6 -->
<g id="Node000006" class="node">
<title>Node6</title>
<g id="a_Node000006"><a xlink:href="interfaceWolfstagInteractive_1_1ConvoCore_1_1IConvoCoreRunner.html" target="_top" xlink:title="Minimal interface implemented by ConvoCore.">
<polygon fill="white" stroke="#666666" points="1083,-514 976,-514 976,-495 1083,-495 1083,-514"/>
<text text-anchor="middle" x="1029.5" y="-502" font-family="Helvetica,sans-Serif" font-size="10.00">IConvoCoreRunner</text>
</a>
</g>
</g>
<!-- Node6&#45;&gt;Node5 -->
<g id="edge6_Node000005_Node000006" class="edge">
<title>Node6&#45;&gt;Node5</title>
<g id="a_edge6_Node000005_Node000006"><a xlink:title=" ">
<path fill="none" stroke="#63b8ff" d="M1093.14,-493.14C1104.77,-490.79 1116.78,-488.2 1128,-485.5 1181.06,-472.71 1196.87,-475.28 1246,-451.5 1287.12,-431.6 1329.17,-398.1 1351.88,-378.68"/>
<polygon fill="#63b8ff" stroke="#63b8ff" points="1092.18,-489.76 1083.06,-495.14 1093.54,-496.63 1092.18,-489.76"/>
</a>
</g>
</g>
<!-- Node7 -->
<g id="Node000007" class="node">
<title>Node7</title>
<g id="a_Node000007"><a xlink:href="classWolfstagInteractive_1_1ConvoCore_1_1ConvoCoreConversationData.html" target="_top" xlink:title=" ">
<polygon fill="white" stroke="#666666" points="317,-574.5 134,-574.5 134,-544.5 317,-544.5 317,-574.5"/>
<text text-anchor="start" x="142" y="-562.5" font-family="Helvetica,sans-Serif" font-size="10.00">WolfstagInteractive.Convo</text>
<text text-anchor="middle" x="225.5" y="-551.5" font-family="Helvetica,sans-Serif" font-size="10.00">Core.ConvoCoreConversationData</text>
</a>
</g>
</g>
<!-- Node7&#45;&gt;Node5 -->
<g id="edge7_Node000005_Node000007" class="edge">
<title>Node7&#45;&gt;Node5</title>
<g id="a_edge7_Node000005_Node000007"><a xlink:title=" ">
<path fill="none" stroke="#9a32cd" stroke-dasharray="5,2" d="M327.57,-556.32C554.83,-549.05 1089.39,-531.26 1128,-523.5 1182.87,-512.47 1198.47,-509.07 1246,-479.5 1292.11,-450.82 1335.81,-403.01 1356.5,-378.7"/>
<polygon fill="#9a32cd" stroke="#9a32cd" points="327.2,-552.83 317.32,-556.65 327.42,-559.83 327.2,-552.83"/>
</a>
</g>
<text text-anchor="middle" x="837.5" y="-543.5" font-family="Helvetica,sans-Serif" font-size="10.00" fill="grey"> ConversationData</text>
</g>
<!-- Node9 -->
<g id="Node000009" class="node">
<title>Node9</title>
<g id="a_Node000009"><a xlink:href="classWolfstagInteractive_1_1ConvoCore_1_1ConvoCoreAudioManifest.html" target="_top" xlink:title="Maps dialogue line IDs to audio clips or middleware references, supporting Unity AudioSource,...">
<polygon fill="white" stroke="#666666" points="734.5,-624.5 568.5,-624.5 568.5,-594.5 734.5,-594.5 734.5,-624.5"/>
<text text-anchor="start" x="576.5" y="-612.5" font-family="Helvetica,sans-Serif" font-size="10.00">WolfstagInteractive.Convo</text>
<text text-anchor="middle" x="651.5" y="-601.5" font-family="Helvetica,sans-Serif" font-size="10.00">Core.ConvoCoreAudioManifest</text>
</a>
</g>
</g>
<!-- Node7&#45;&gt;Node9 -->
<g id="edge11_Node000009_Node000007" class="edge">
<title>Node7&#45;&gt;Node9</title>
<g id="a_edge11_Node000009_Node000007"><a xlink:title=" ">
<path fill="none" stroke="#9a32cd" stroke-dasharray="5,2" d="M286.9,-577.17C302.45,-581.15 319.25,-584.94 335,-587.5 413.58,-600.27 504.37,-605.63 568.31,-607.88"/>
<polygon fill="#9a32cd" stroke="#9a32cd" points="287.44,-573.7 276.88,-574.54 285.66,-580.47 287.44,-573.7"/>
</a>
</g>
<text text-anchor="middle" x="438" y="-609.5" font-family="Helvetica,sans-Serif" font-size="10.00" fill="grey"> SourceConversation</text>
</g>
<!-- Node8 -->
<g id="Node000008" class="node">
<title>Node8</title>
<g id="a_Node000008"><a xlink:title=" ">
<polygon fill="white" stroke="#666666" points="97,-459 0,-459 0,-440 97,-440 97,-459"/>
<text text-anchor="middle" x="48.5" y="-447" font-family="Helvetica,sans-Serif" font-size="10.00">ScriptableObject</text>
</a>
</g>
</g>
<!-- Node8&#45;&gt;Node7 -->
<g id="edge8_Node000007_Node000008" class="edge">
<title>Node8&#45;&gt;Node7</title>
<g id="a_edge8_Node000007_Node000008"><a xlink:title=" ">
<path fill="none" stroke="#63b8ff" d="M73.37,-464.5C106.71,-485.46 166.88,-523.28 200.36,-544.32"/>
<polygon fill="#63b8ff" stroke="#63b8ff" points="75.05,-461.43 64.72,-459.07 71.33,-467.35 75.05,-461.43"/>
</a>
</g>
</g>
<!-- Node8&#45;&gt;Node9 -->
<g id="edge10_Node000009_Node000008" class="edge">
<title>Node8&#45;&gt;Node9</title>
<g id="a_edge10_Node000009_Node000008"><a xlink:title=" ">
<path fill="none" stroke="#63b8ff" d="M55.96,-468.84C66.96,-498.59 92.28,-555.11 134,-583.5 274.66,-679.22 490.09,-647.48 592.52,-624.53"/>
<polygon fill="#63b8ff" stroke="#63b8ff" points="59.18,-467.45 52.55,-459.19 52.58,-469.79 59.18,-467.45"/>
</a>
</g>
</g>
<!-- Node13 -->
<g id="Node000013" class="node">
<title>Node13</title>
<g id="a_Node000013"><a xlink:href="classWolfstagInteractive_1_1ConvoCore_1_1ConvoCoreSettings.html" target="_top" xlink:title="Global runtime settings ScriptableObject for ConvoCore.">
<polygon fill="white" stroke="#666666" points="298.5,-282.5 152.5,-282.5 152.5,-252.5 298.5,-252.5 298.5,-282.5"/>
<text text-anchor="start" x="160.5" y="-270.5" font-family="Helvetica,sans-Serif" font-size="10.00">WolfstagInteractive.Convo</text>
<text text-anchor="middle" x="225.5" y="-259.5" font-family="Helvetica,sans-Serif" font-size="10.00">Core.ConvoCoreSettings</text>
</a>
</g>
</g>
<!-- Node8&#45;&gt;Node13 -->
<g id="edge20_Node000013_Node000008" class="edge">
<title>Node8&#45;&gt;Node13</title>
<g id="a_edge20_Node000013_Node000008"><a xlink:title=" ">
<path fill="none" stroke="#63b8ff" d="M66.25,-432.08C100.39,-396.57 177.56,-316.32 209.85,-282.73"/>
<polygon fill="#63b8ff" stroke="#63b8ff" points="63.32,-430.08 58.91,-439.71 68.36,-434.93 63.32,-430.08"/>
</a>
</g>
</g>
<!-- Node15 -->
<g id="Node000015" class="node">
<title>Node15</title>
<g id="a_Node000015"><a xlink:href="classWolfstagInteractive_1_1ConvoCore_1_1ConvoCoreHistoryRendererProfile.html" target="_top" xlink:title=" ">
<polygon fill="white" stroke="#666666" points="541,-398.5 335,-398.5 335,-368.5 541,-368.5 541,-398.5"/>
<text text-anchor="start" x="343" y="-386.5" font-family="Helvetica,sans-Serif" font-size="10.00">WolfstagInteractive.Convo</text>
<text text-anchor="middle" x="438" y="-375.5" font-family="Helvetica,sans-Serif" font-size="10.00">Core.ConvoCoreHistoryRendererProfile</text>
</a>
</g>
</g>
<!-- Node8&#45;&gt;Node15 -->
<g id="edge24_Node000015_Node000008" class="edge">
<title>Node8&#45;&gt;Node15</title>
<g id="a_edge24_Node000015_Node000008"><a xlink:title=" ">
<path fill="none" stroke="#63b8ff" d="M106.91,-439.72C170.77,-428.85 274.69,-411.14 348.87,-398.51"/>
<polygon fill="#63b8ff" stroke="#63b8ff" points="106.29,-436.28 97.02,-441.41 107.46,-443.18 106.29,-436.28"/>
</a>
</g>
</g>
<!-- Node9&#45;&gt;Node7 -->
<g id="edge9_Node000007_Node000009" class="edge">
<title>Node9&#45;&gt;Node7</title>
<g id="a_edge9_Node000007_Node000009"><a xlink:title=" ">
<path fill="none" stroke="#9a32cd" stroke-dasharray="5,2" d="M599.41,-591.34C581.2,-585.61 560.4,-579.9 541,-576.5 466.4,-563.44 380.47,-559.53 317.3,-558.7"/>
<polygon fill="#9a32cd" stroke="#9a32cd" points="598.36,-594.68 608.95,-594.42 600.5,-588.02 598.36,-594.68"/>
</a>
</g>
<text text-anchor="middle" x="438" y="-579.5" font-family="Helvetica,sans-Serif" font-size="10.00" fill="grey"> AudioManifest</text>
</g>
<!-- Node10 -->
<g id="Node000010" class="node">
<title>Node10</title>
<g id="a_Node000010"><a xlink:href="interfaceWolfstagInteractive_1_1ConvoCore_1_1IConvoInput.html" target="_top" xlink:title="Input strategy interface.">
<polygon fill="white" stroke="#666666" points="1102.5,-476.5 956.5,-476.5 956.5,-446.5 1102.5,-446.5 1102.5,-476.5"/>
<text text-anchor="start" x="964.5" y="-464.5" font-family="Helvetica,sans-Serif" font-size="10.00">WolfstagInteractive.Convo</text>
<text text-anchor="middle" x="1029.5" y="-453.5" font-family="Helvetica,sans-Serif" font-size="10.00">Core.IConvoInput</text>
</a>
</g>
</g>
<!-- Node10&#45;&gt;Node5 -->
<g id="edge12_Node000005_Node000010" class="edge">
<title>Node10&#45;&gt;Node5</title>
<g id="a_edge12_Node000005_Node000010"><a xlink:title=" ">
<path fill="none" stroke="#9a32cd" stroke-dasharray="5,2" d="M1112.8,-444.71C1153.26,-435.78 1202.55,-423.88 1246,-410.5 1275.93,-401.28 1309.05,-388.47 1333.38,-378.55"/>
<polygon fill="#9a32cd" stroke="#9a32cd" points="1112,-441.3 1102.98,-446.86 1113.49,-448.14 1112,-441.3"/>
</a>
</g>
<text text-anchor="middle" x="1196" y="-439.5" font-family="Helvetica,sans-Serif" font-size="10.00" fill="grey"> Input</text>
</g>
<!-- Node11&#45;&gt;Node5 -->
<g id="edge13_Node000005_Node000011" class="edge">
<title>Node11&#45;&gt;Node5</title>
<g id="a_edge13_Node000005_Node000011"><a xlink:title=" ">
<path fill="none" stroke="#9a32cd" stroke-dasharray="5,2" d="M1725.94,-252.9C1702.92,-266.96 1670.55,-285.1 1640,-296.5 1577.77,-319.73 1558.42,-312.29 1494,-328.5 1469.89,-334.57 1443.33,-342.03 1421.08,-348.5"/>
<polygon fill="#9a32cd" stroke="#9a32cd" points="1727.92,-255.78 1734.58,-247.54 1724.24,-249.83 1727.92,-255.78"/>
</a>
</g>
<text text-anchor="middle" x="1567" y="-331.5" font-family="Helvetica,sans-Serif" font-size="10.00" fill="grey"> ConversationUI</text>
</g>
<!-- Node12&#45;&gt;Node2 -->
<g id="edge31_Node000002_Node000012" class="edge">
<title>Node12&#45;&gt;Node2</title>
<g id="a_edge31_Node000002_Node000012"><a xlink:title=" ">
<path fill="none" stroke="#9a32cd" stroke-dasharray="5,2" d="M1450.95,-204.33C1530.33,-187.28 1649.13,-161.77 1713.02,-148.05"/>
<polygon fill="#9a32cd" stroke="#9a32cd" points="1450.03,-200.95 1440.99,-206.47 1451.5,-207.79 1450.03,-200.95"/>
</a>
</g>
<text text-anchor="middle" x="1567" y="-197.5" font-family="Helvetica,sans-Serif" font-size="10.00" fill="grey"> ConvoCoreDialogueHistoryUI</text>
</g>
<!-- Node12&#45;&gt;Node11 -->
<g id="edge17_Node000011_Node000012" class="edge">
<title>Node12&#45;&gt;Node11</title>
<g id="a_edge17_Node000011_Node000012"><a xlink:title=" ">
<path fill="none" stroke="#9a32cd" stroke-dasharray="5,2" d="M1472.76,-224.4C1537.05,-226.23 1618.9,-228.56 1678.33,-230.25"/>
<polygon fill="#9a32cd" stroke="#9a32cd" points="1472.69,-220.89 1462.6,-224.11 1472.49,-227.89 1472.69,-220.89"/>
</a>
</g>
<text text-anchor="middle" x="1567" y="-231.5" font-family="Helvetica,sans-Serif" font-size="10.00" fill="grey"> ConvoCoreDialogueHistoryUI</text>
</g>
<!-- Node13&#45;&gt;Node12 -->
<g id="edge19_Node000012_Node000013" class="edge">
<title>Node13&#45;&gt;Node12</title>
<g id="a_edge19_Node000012_Node000013"><a xlink:title=" ">
<path fill="none" stroke="#9a32cd" stroke-dasharray="5,2" d="M308.93,-261.48C376.21,-256.58 473.75,-249.52 559,-243.5 649.21,-237.13 671.64,-233.21 762,-229.5 944.7,-222 1158.57,-220.99 1277.43,-221.12"/>
<polygon fill="#9a32cd" stroke="#9a32cd" points="308.53,-258 298.82,-262.21 309.04,-264.98 308.53,-258"/>
</a>
</g>
<text text-anchor="middle" x="837.5" y="-232.5" font-family="Helvetica,sans-Serif" font-size="10.00" fill="grey"> convoCoreSettings</text>
</g>
<!-- Node13&#45;&gt;Node13 -->
<g id="edge21_Node000013_Node000013" class="edge">
<title>Node13&#45;&gt;Node13</title>
<g id="a_edge21_Node000013_Node000013"><a xlink:title=" ">
<path fill="none" stroke="#9a32cd" stroke-dasharray="5,2" d="M206.25,-293.1C208.88,-297.47 215.29,-300.5 225.5,-300.5 242.69,-300.5 249.13,-291.91 244.84,-282.78"/>
<polygon fill="#9a32cd" stroke="#9a32cd" points="209.74,-292.75 206.16,-282.78 202.74,-292.8 209.74,-292.75"/>
</a>
</g>
<text text-anchor="middle" x="225.5" y="-303.5" font-family="Helvetica,sans-Serif" font-size="10.00" fill="grey"> _instance</text>
</g>
<!-- Node18 -->
<g id="Node000018" class="node">
<title>Node18</title>
<g id="a_Node000018"><a xlink:href="classWolfstagInteractive_1_1ConvoCore_1_1ConvoCoreLanguageManager.html" target="_top" xlink:title=" ">
<polygon fill="white" stroke="#666666" points="744,-282.5 559,-282.5 559,-252.5 744,-252.5 744,-282.5"/>
<text text-anchor="start" x="567" y="-270.5" font-family="Helvetica,sans-Serif" font-size="10.00">WolfstagInteractive.Convo</text>
<text text-anchor="middle" x="651.5" y="-259.5" font-family="Helvetica,sans-Serif" font-size="10.00">Core.ConvoCoreLanguageManager</text>
</a>
</g>
</g>
<!-- Node13&#45;&gt;Node18 -->
<g id="edge29_Node000018_Node000013" class="edge">
<title>Node13&#45;&gt;Node18</title>
<g id="a_edge29_Node000018_Node000013"><a xlink:title=" ">
<path fill="none" stroke="#9a32cd" stroke-dasharray="5,2" d="M309.25,-267.5C380.95,-267.5 484.56,-267.5 558.78,-267.5"/>
<polygon fill="#9a32cd" stroke="#9a32cd" points="308.91,-264 298.91,-267.5 308.91,-271 308.91,-264"/>
</a>
</g>
<text text-anchor="middle" x="438" y="-270.5" font-family="Helvetica,sans-Serif" font-size="10.00" fill="grey"> _convoCoreSettings</text>
</g>
<!-- Node14 -->
<g id="Node000014" class="node">
<title>Node14</title>
<g id="a_Node000014"><a xlink:href="interfaceWolfstagInteractive_1_1ConvoCore_1_1IConvoCoreHistoryRenderer.html" target="_top" xlink:title="Base contract for any dialogue history renderer.">
<polygon fill="white" stroke="#666666" points="1118.5,-196.5 940.5,-196.5 940.5,-166.5 1118.5,-166.5 1118.5,-196.5"/>
<text text-anchor="start" x="948.5" y="-184.5" font-family="Helvetica,sans-Serif" font-size="10.00">WolfstagInteractive.Convo</text>
<text text-anchor="middle" x="1029.5" y="-173.5" font-family="Helvetica,sans-Serif" font-size="10.00">Core.IConvoCoreHistoryRenderer</text>
</a>
</g>
</g>
<!-- Node14&#45;&gt;Node12 -->
<g id="edge22_Node000012_Node000014" class="edge">
<title>Node14&#45;&gt;Node12</title>
<g id="a_edge22_Node000012_Node000014"><a xlink:title=" ">
<path fill="none" stroke="#9a32cd" stroke-dasharray="5,2" d="M1128.76,-187.76C1165.61,-190.62 1207.8,-194.5 1246,-199.5 1260.73,-201.43 1276.39,-203.9 1291.42,-206.49"/>
<polygon fill="#9a32cd" stroke="#9a32cd" points="1128.75,-184.25 1118.51,-186.98 1128.22,-191.23 1128.75,-184.25"/>
</a>
</g>
<text text-anchor="middle" x="1196" y="-202.5" font-family="Helvetica,sans-Serif" font-size="10.00" fill="grey"> _renderer</text>
</g>
<!-- Node15&#45;&gt;Node12 -->
<g id="edge23_Node000012_Node000015" class="edge">
<title>Node15&#45;&gt;Node12</title>
<g id="a_edge23_Node000012_Node000015"><a xlink:title=" ">
<path fill="none" stroke="#9a32cd" stroke-dasharray="5,2" d="M551.43,-386.56C614.99,-382.42 691.91,-366.77 744,-320.5 762.91,-303.7 741.91,-281.88 762,-266.5 804.77,-233.75 1192.39,-243.75 1246,-238.5 1256.19,-237.5 1266.83,-236.29 1277.41,-234.98"/>
<polygon fill="#9a32cd" stroke="#9a32cd" points="551.13,-383.07 541.35,-387.13 551.53,-390.06 551.13,-383.07"/>
</a>
</g>
<text text-anchor="middle" x="837.5" y="-269.5" font-family="Helvetica,sans-Serif" font-size="10.00" fill="grey"> _activeProfile</text>
</g>
<!-- Node16 -->
<g id="Node000016" class="node">
<title>Node16</title>
<g id="a_Node000016"><a xlink:href="interfaceWolfstagInteractive_1_1ConvoCore_1_1IConvoAudioProvider.html" target="_top" xlink:title="Interface for audio playback backends.">
<polygon fill="white" stroke="#666666" points="1102.5,-428.5 956.5,-428.5 956.5,-398.5 1102.5,-398.5 1102.5,-428.5"/>
<text text-anchor="start" x="964.5" y="-416.5" font-family="Helvetica,sans-Serif" font-size="10.00">WolfstagInteractive.Convo</text>
<text text-anchor="middle" x="1029.5" y="-405.5" font-family="Helvetica,sans-Serif" font-size="10.00">Core.IConvoAudioProvider</text>
</a>
</g>
</g>
<!-- Node16&#45;&gt;Node5 -->
<g id="edge25_Node000005_Node000016" class="edge">
<title>Node16&#45;&gt;Node5</title>
<g id="a_edge25_Node000005_Node000016"><a xlink:title=" ">
<path fill="none" stroke="#9a32cd" stroke-dasharray="5,2" d="M1112.64,-401.37C1168.94,-393.05 1242.9,-382.13 1296.91,-374.15"/>
<polygon fill="#9a32cd" stroke="#9a32cd" points="1112.08,-397.91 1102.7,-402.84 1113.11,-404.84 1112.08,-397.91"/>
</a>
</g>
<text text-anchor="middle" x="1196" y="-398.5" font-family="Helvetica,sans-Serif" font-size="10.00" fill="grey"> _audioProvider</text>
</g>
<!-- Node17 -->
<g id="Node000017" class="node">
<title>Node17</title>
<g id="a_Node000017"><a xlink:href="classWolfstagInteractive_1_1ConvoCore_1_1ConvoCoreDialogueLocalizationHandler.html" target="_top" xlink:title=" ">
<polygon fill="white" stroke="#666666" points="1128,-332 931,-332 931,-291 1128,-291 1128,-332"/>
<text text-anchor="start" x="939" y="-320" font-family="Helvetica,sans-Serif" font-size="10.00">WolfstagInteractive.Convo</text>
<text text-anchor="start" x="939" y="-309" font-family="Helvetica,sans-Serif" font-size="10.00">Core.ConvoCoreDialogueLocalization</text>
<text text-anchor="middle" x="1029.5" y="-298" font-family="Helvetica,sans-Serif" font-size="10.00">Handler</text>
</a>
</g>
</g>
<!-- Node17&#45;&gt;Node5 -->
<g id="edge26_Node000005_Node000017" class="edge">
<title>Node17&#45;&gt;Node5</title>
<g id="a_edge26_Node000005_Node000017"><a xlink:title=" ">
<path fill="none" stroke="#9a32cd" stroke-dasharray="5,2" d="M1138.3,-328.06C1190.08,-336.01 1250.74,-345.33 1296.86,-352.42"/>
<polygon fill="#9a32cd" stroke="#9a32cd" points="1138.82,-324.6 1128.41,-326.54 1137.76,-331.52 1138.82,-324.6"/>
</a>
</g>
<text text-anchor="middle" x="1196" y="-346.5" font-family="Helvetica,sans-Serif" font-size="10.00" fill="grey"> LocalizationHandler</text>
</g>
<!-- Node18&#45;&gt;Node17 -->
<g id="edge27_Node000017_Node000018" class="edge">
<title>Node18&#45;&gt;Node17</title>
<g id="a_edge27_Node000017_Node000018"><a xlink:title=" ">
<path fill="none" stroke="#9a32cd" stroke-dasharray="5,2" d="M754.29,-280.57C756.89,-280.88 759.46,-281.19 762,-281.5 817.93,-288.22 880.53,-295.29 930.99,-300.88"/>
<polygon fill="#9a32cd" stroke="#9a32cd" points="754.55,-277.07 744.2,-279.33 753.7,-284.02 754.55,-277.07"/>
</a>
</g>
<text text-anchor="middle" x="837.5" y="-300.5" font-family="Helvetica,sans-Serif" font-size="10.00" fill="grey"> _convoCoreLanguageManager</text>
</g>
<!-- Node18&#45;&gt;Node18 -->
<g id="edge28_Node000018_Node000018" class="edge">
<title>Node18&#45;&gt;Node18</title>
<g id="a_edge28_Node000018_Node000018"><a xlink:title=" ">
<path fill="none" stroke="#9a32cd" stroke-dasharray="5,2" d="M618.94,-293.1C623.39,-297.47 634.24,-300.5 651.5,-300.5 680.56,-300.5 691.46,-291.91 684.2,-282.78"/>
<polygon fill="#9a32cd" stroke="#9a32cd" points="622.44,-292.73 618.8,-282.78 615.44,-292.82 622.44,-292.73"/>
</a>
</g>
<text text-anchor="middle" x="651.5" y="-303.5" font-family="Helvetica,sans-Serif" font-size="10.00" fill="grey"> _instance</text>
</g>
<!-- Node19 -->
<g id="Node000019" class="node">
<title>Node19</title>
<g id="a_Node000019"><a xlink:href="interfaceWolfstagInteractive_1_1ConvoCore_1_1IConversationContext.html" target="_top" xlink:title="Provides optional runtime context for branch evaluation.">
<polygon fill="white" stroke="#666666" points="1103.5,-380.5 955.5,-380.5 955.5,-350.5 1103.5,-350.5 1103.5,-380.5"/>
<text text-anchor="start" x="963.5" y="-368.5" font-family="Helvetica,sans-Serif" font-size="10.00">WolfstagInteractive.Convo</text>
<text text-anchor="middle" x="1029.5" y="-357.5" font-family="Helvetica,sans-Serif" font-size="10.00">Core.IConversationContext</text>
</a>
</g>
</g>
<!-- Node19&#45;&gt;Node5 -->
<g id="edge30_Node000005_Node000019" class="edge">
<title>Node19&#45;&gt;Node5</title>
<g id="a_edge30_Node000005_Node000019"><a xlink:title=" ">
<path fill="none" stroke="#9a32cd" stroke-dasharray="5,2" d="M1113.81,-365.01C1169.98,-364.68 1243.33,-364.24 1296.97,-363.93"/>
<polygon fill="#9a32cd" stroke="#9a32cd" points="1113.51,-361.51 1103.53,-365.07 1113.55,-368.51 1113.51,-361.51"/>
</a>
</g>
<text text-anchor="middle" x="1196" y="-367.5" font-family="Helvetica,sans-Serif" font-size="10.00" fill="grey"> _context</text>
</g>
<!-- Node20&#45;&gt;Node1 -->
<g id="edge32_Node000001_Node000020" class="edge">
<title>Node20&#45;&gt;Node1</title>
<g id="a_edge32_Node000001_Node000020"><a xlink:title=" ">
<path fill="none" stroke="#9a32cd" stroke-dasharray="5,2" d="M1869,-33.1C1917.73,-38.92 1975.79,-46.17 2028,-53.5 2033.79,-54.31 2039.77,-55.18 2045.78,-56.08"/>
<polygon fill="#9a32cd" stroke="#9a32cd" points="1869.41,-29.62 1859.07,-31.91 1868.58,-36.57 1869.41,-29.62"/>
</a>
</g>
<text text-anchor="middle" x="1952.5" y="-56.5" font-family="Helvetica,sans-Serif" font-size="10.00" fill="grey"> prefabRepresentationSpawner</text>
</g>
<!-- Node21&#45;&gt;Node20 -->
<g id="edge34_Node000020_Node000021" class="edge">
<title>Node21&#45;&gt;Node20</title>
<g id="a_edge34_Node000020_Node000021"><a xlink:title=" ">
<path fill="none" stroke="#9a32cd" stroke-dasharray="5,2" d="M1486.17,-39.45C1540.74,-35.64 1605.29,-31.13 1657.74,-27.47"/>
<polygon fill="#9a32cd" stroke="#9a32cd" points="1485.83,-35.97 1476.1,-40.16 1486.32,-42.95 1485.83,-35.97"/>
</a>
</g>
<text text-anchor="middle" x="1567" y="-41.5" font-family="Helvetica,sans-Serif" font-size="10.00" fill="grey"> sceneCharacterRegistry</text>
</g>
<!-- Node22 -->
<g id="Node000022" class="node">
<title>Node22</title>
<g id="a_Node000022"><a xlink:title=" ">
<polygon fill="white" stroke="#666666" points="1796.5,-78 1720.5,-78 1720.5,-59 1796.5,-59 1796.5,-78"/>
<text text-anchor="middle" x="1758.5" y="-66" font-family="Helvetica,sans-Serif" font-size="10.00">UnityEngine</text>
</a>
</g>
</g>
<!-- Node22&#45;&gt;Node1 -->
<g id="edge36_Node000001_Node000022" class="edge">
<title>Node22&#45;&gt;Node1</title>
<g id="a_edge36_Node000001_Node000022"><a xlink:title=" ">
<path fill="none" stroke="#9a32cd" stroke-dasharray="5,2" d="M1806.75,-68.5C1867.44,-68.5 1973.54,-68.5 2045.97,-68.5"/>
<polygon fill="#9a32cd" stroke="#9a32cd" points="1806.69,-65 1796.69,-68.5 1806.69,-72 1806.69,-65"/>
</a>
</g>
<text text-anchor="middle" x="1952.5" y="-115.5" font-family="Helvetica,sans-Serif" font-size="10.00" fill="grey"> ContinueButton</text>
<text text-anchor="start" x="1881" y="-104.5" font-family="Helvetica,sans-Serif" font-size="10.00" fill="grey">DialogueHistoryContent</text>
<text text-anchor="middle" x="1952.5" y="-93.5" font-family="Helvetica,sans-Serif" font-size="10.00" fill="grey">Background</text>
<text text-anchor="middle" x="1952.5" y="-82.5" font-family="Helvetica,sans-Serif" font-size="10.00" fill="grey">PreviousLineButton</text>
<text text-anchor="middle" x="1952.5" y="-71.5" font-family="Helvetica,sans-Serif" font-size="10.00" fill="grey">ToggleDialogueHistoryButton</text>
</g>
</g>
</svg>
