<?xml version="1.0" encoding="UTF-8" standalone="no"?>
<!DOCTYPE svg PUBLIC "-//W3C//DTD SVG 1.1//EN"
 "http://www.w3.org/Graphics/SVG/1.1/DTD/svg11.dtd">
<!-- Generated by graphviz version 2.43.0 (0)
 -->
<!-- Title: Graphical Class Hierarchy Pages: 1 -->
<svg width="958pt" height="1005pt"
 viewBox="0.00 0.00 958.00 1005.00" xmlns="http://www.w3.org/2000/svg" xmlns:xlink="http://www.w3.org/1999/xlink">
<g id="graph0" class="graph" transform="scale(1 1) rotate(0) translate(4 1001)">
<title>Graphical Class Hierarchy</title>
<!-- Node0 -->
<g id="Node000000" class="node">
<title>Node0</title>
<g id="a_Node000000"><a xlink:href="interfaceWolfstagInteractive_1_1ConvoCore_1_1IEditorPreviewableRepresentation.html" target="_top" xlink:title=" ">
<polygon fill="white" stroke="#666666" points="208,-949 0,-949 0,-919 208,-919 208,-949"/>
<text text-anchor="start" x="8" y="-937" font-family="Helvetica,sans-Serif" font-size="10.00">WolfstagInteractive.Convo</text>
<text text-anchor="middle" x="104" y="-926" font-family="Helvetica,sans-Serif" font-size="10.00">Core.IEditorPreviewableRepresentation</text>
</a>
</g>
</g>
<!-- Node1 -->
<g id="Node000001" class="node">
<title>Node1</title>
<g id="a_Node000001"><a xlink:href="classWolfstagInteractive_1_1ConvoCore_1_1CharacterRepresentationBase.html" target="_top" xlink:title="Abstract ScriptableObject base class for all character visual representations.">
<polygon fill="white" stroke="#666666" points="451,-949 263,-949 263,-919 451,-919 451,-949"/>
<text text-anchor="start" x="271" y="-937" font-family="Helvetica,sans-Serif" font-size="10.00">WolfstagInteractive.Convo</text>
<text text-anchor="middle" x="357" y="-926" font-family="Helvetica,sans-Serif" font-size="10.00">Core.CharacterRepresentationBase</text>
</a>
</g>
</g>
<!-- Node0&#45;&gt;Node1 -->
<g id="edge42_Node000000_Node000001" class="edge">
<title>Node0&#45;&gt;Node1</title>
<g id="a_edge42_Node000000_Node000001"><a xlink:title=" ">
<path fill="none" stroke="#63b8ff" d="M218.43,-934C233.3,-934 248.4,-934 262.88,-934"/>
<polygon fill="#63b8ff" stroke="#63b8ff" points="218.18,-930.5 208.18,-934 218.18,-937.5 218.18,-930.5"/>
</a>
</g>
</g>
<!-- Node2 -->
<g id="Node000002" class="node">
<title>Node2</title>
<g id="a_Node000002"><a xlink:href="classWolfstagInteractive_1_1ConvoCore_1_1PrefabCharacterRepresentationData.html" target="_top" xlink:title="Defines how a prefab&#45;based character is displayed in a ConvoCore conversation.">
<polygon fill="white" stroke="#666666" points="724,-997 506,-997 506,-967 724,-967 724,-997"/>
<text text-anchor="start" x="514" y="-985" font-family="Helvetica,sans-Serif" font-size="10.00">WolfstagInteractive.Convo</text>
<text text-anchor="middle" x="615" y="-974" font-family="Helvetica,sans-Serif" font-size="10.00">Core.PrefabCharacterRepresentationData</text>
</a>
</g>
</g>
<!-- Node1&#45;&gt;Node2 -->
<g id="edge43_Node000001_Node000002" class="edge">
<title>Node1&#45;&gt;Node2</title>
<g id="a_edge43_Node000001_Node000002"><a xlink:title=" ">
<path fill="none" stroke="#63b8ff" d="M448.45,-950.96C476.34,-956.19 506.85,-961.91 533.99,-967"/>
<polygon fill="#63b8ff" stroke="#63b8ff" points="448.77,-947.46 438.3,-949.06 447.48,-954.34 448.77,-947.46"/>
</a>
</g>
</g>
<!-- Node3 -->
<g id="Node000003" class="node">
<title>Node3</title>
<g id="a_Node000003"><a xlink:href="classWolfstagInteractive_1_1ConvoCore_1_1SpriteCharacterRepresentationData.html" target="_top" xlink:title=" ">
<polygon fill="white" stroke="#666666" points="722.5,-949 507.5,-949 507.5,-919 722.5,-919 722.5,-949"/>
<text text-anchor="start" x="515.5" y="-937" font-family="Helvetica,sans-Serif" font-size="10.00">WolfstagInteractive.Convo</text>
<text text-anchor="middle" x="615" y="-926" font-family="Helvetica,sans-Serif" font-size="10.00">Core.SpriteCharacterRepresentationData</text>
</a>
</g>
</g>
<!-- Node1&#45;&gt;Node3 -->
<g id="edge44_Node000001_Node000003" class="edge">
<title>Node1&#45;&gt;Node3</title>
<g id="a_edge44_Node000001_Node000003"><a xlink:title=" ">
<path fill="none" stroke="#63b8ff" d="M461.54,-934C476.67,-934 492.28,-934 507.47,-934"/>
<polygon fill="#63b8ff" stroke="#63b8ff" points="461.15,-930.5 451.15,-934 461.15,-937.5 461.15,-930.5"/>
</a>
</g>
</g>
<!-- Node4 -->
<g id="Node000004" class="node">
<title>Node4</title>
<g id="a_Node000004"><a xlink:title=" ">
<polygon fill="#e0e0e0" stroke="#999999" points="152.5,-339.5 55.5,-339.5 55.5,-320.5 152.5,-320.5 152.5,-339.5"/>
<text text-anchor="middle" x="104" y="-327.5" font-family="Helvetica,sans-Serif" font-size="10.00">ScriptableObject</text>
</a>
</g>
</g>
<!-- Node4&#45;&gt;Node1 -->
<g id="edge53_Node000004_Node000001" class="edge">
<title>Node4&#45;&gt;Node1</title>
<g id="a_edge53_Node000004_Node000001"><a xlink:title=" ">
<path fill="none" stroke="#63b8ff" d="M110.62,-349.5C127.71,-407.92 181.71,-586.14 244,-727 276.89,-801.37 326.32,-885.2 346.71,-918.84"/>
<polygon fill="#63b8ff" stroke="#63b8ff" points="113.94,-348.37 107.78,-339.74 107.21,-350.32 113.94,-348.37"/>
</a>
</g>
</g>
<!-- Node5 -->
<g id="Node000005" class="node">
<title>Node5</title>
<g id="a_Node000005"><a xlink:href="classWolfstagInteractive_1_1ConvoCore_1_1BaseDialogueLineAction.html" target="_top" xlink:title="Base ScriptableObject class for all ConvoCore dialogue line actions.">
<polygon fill="white" stroke="#666666" points="437.5,-718 276.5,-718 276.5,-688 437.5,-688 437.5,-718"/>
<text text-anchor="start" x="284.5" y="-706" font-family="Helvetica,sans-Serif" font-size="10.00">WolfstagInteractive.Convo</text>
<text text-anchor="middle" x="357" y="-695" font-family="Helvetica,sans-Serif" font-size="10.00">Core.BaseDialogueLineAction</text>
</a>
</g>
</g>
<!-- Node4&#45;&gt;Node5 -->
<g id="edge45_Node000004_Node000005" class="edge">
<title>Node4&#45;&gt;Node5</title>
<g id="a_edge45_Node000004_Node000005"><a xlink:title=" ">
<path fill="none" stroke="#63b8ff" d="M113.9,-349.27C134.16,-392.3 186.45,-498.7 244,-579 274.42,-621.44 317.43,-665.5 340.29,-687.92"/>
<polygon fill="#63b8ff" stroke="#63b8ff" points="116.96,-347.55 109.56,-339.97 110.62,-350.51 116.96,-347.55"/>
</a>
</g>
</g>
<!-- Node12 -->
<g id="Node000012" class="node">
<title>Node12</title>
<g id="a_Node000012"><a xlink:href="classWolfstagInteractive_1_1ConvoCore_1_1BaseExpressionAction.html" target="_top" xlink:title="Abstract base ScriptableObject for custom expression actions.">
<polygon fill="white" stroke="#666666" points="432,-570 282,-570 282,-540 432,-540 432,-570"/>
<text text-anchor="start" x="290" y="-558" font-family="Helvetica,sans-Serif" font-size="10.00">WolfstagInteractive.Convo</text>
<text text-anchor="middle" x="357" y="-547" font-family="Helvetica,sans-Serif" font-size="10.00">Core.BaseExpressionAction</text>
</a>
</g>
</g>
<!-- Node4&#45;&gt;Node12 -->
<g id="edge52_Node000004_Node000012" class="edge">
<title>Node4&#45;&gt;Node12</title>
<g id="a_edge52_Node000004_Node000012"><a xlink:title=" ">
<path fill="none" stroke="#63b8ff" d="M112.47,-349.23C129.28,-389.84 174.2,-484.42 244,-531 255.25,-538.51 268.42,-543.72 281.71,-547.32"/>
<polygon fill="#63b8ff" stroke="#63b8ff" points="115.7,-347.89 108.72,-339.92 109.21,-350.5 115.7,-347.89"/>
</a>
</g>
</g>
<!-- Node13 -->
<g id="Node000013" class="node">
<title>Node13</title>
<g id="a_Node000013"><a xlink:href="classWolfstagInteractive_1_1ConvoCore_1_1ConversationContainer.html" target="_top" xlink:title="ScriptableObject that groups one or more ConvoCoreConversationData assets into a single addressable u...">
<polygon fill="white" stroke="#666666" points="434,-522 280,-522 280,-492 434,-492 434,-522"/>
<text text-anchor="start" x="288" y="-510" font-family="Helvetica,sans-Serif" font-size="10.00">WolfstagInteractive.Convo</text>
<text text-anchor="middle" x="357" y="-499" font-family="Helvetica,sans-Serif" font-size="10.00">Core.ConversationContainer</text>
</a>
</g>
</g>
<!-- Node4&#45;&gt;Node13 -->
<g id="edge54_Node000004_Node000013" class="edge">
<title>Node4&#45;&gt;Node13</title>
<g id="a_edge54_Node000004_Node000013"><a xlink:title=" ">
<path fill="none" stroke="#63b8ff" d="M116.1,-348.37C136.85,-381.03 184.83,-448.95 244,-483 254.94,-489.3 267.35,-493.95 279.82,-497.38"/>
<polygon fill="#63b8ff" stroke="#63b8ff" points="119.02,-346.44 110.76,-339.79 113.07,-350.13 119.02,-346.44"/>
</a>
</g>
</g>
<!-- Node14 -->
<g id="Node000014" class="node">
<title>Node14</title>
<g id="a_Node000014"><a xlink:href="classWolfstagInteractive_1_1ConvoCore_1_1ConvoCoreCharacterBehaviour.html" target="_top" xlink:title="Abstract ScriptableObject base for all character behaviour types.">
<polygon fill="white" stroke="#666666" points="453,-474 261,-474 261,-444 453,-444 453,-474"/>
<text text-anchor="start" x="269" y="-462" font-family="Helvetica,sans-Serif" font-size="10.00">WolfstagInteractive.Convo</text>
<text text-anchor="middle" x="357" y="-451" font-family="Helvetica,sans-Serif" font-size="10.00">Core.ConvoCoreCharacterBehaviour</text>
</a>
</g>
</g>
<!-- Node4&#45;&gt;Node14 -->
<g id="edge55_Node000004_Node000014" class="edge">
<title>Node4&#45;&gt;Node14</title>
<g id="a_edge55_Node000004_Node000014"><a xlink:title=" ">
<path fill="none" stroke="#63b8ff" d="M121.89,-346.75C146.54,-370.22 194.83,-412.51 244,-435 251.5,-438.43 259.52,-441.38 267.68,-443.92"/>
<polygon fill="#63b8ff" stroke="#63b8ff" points="124.09,-344.01 114.46,-339.57 119.22,-349.04 124.09,-344.01"/>
</a>
</g>
</g>
<!-- Node22 -->
<g id="Node000022" class="node">
<title>Node22</title>
<g id="a_Node000022"><a xlink:href="classWolfstagInteractive_1_1ConvoCore_1_1ConvoCoreCharacterExpression.html" target="_top" xlink:title=" ">
<polygon fill="white" stroke="#666666" points="455,-426 259,-426 259,-396 455,-396 455,-426"/>
<text text-anchor="start" x="267" y="-414" font-family="Helvetica,sans-Serif" font-size="10.00">WolfstagInteractive.Convo</text>
<text text-anchor="middle" x="357" y="-403" font-family="Helvetica,sans-Serif" font-size="10.00">Core.ConvoCoreCharacterExpression</text>
</a>
</g>
</g>
<!-- Node4&#45;&gt;Node22 -->
<g id="edge63_Node000004_Node000022" class="edge">
<title>Node4&#45;&gt;Node22</title>
<g id="a_edge63_Node000004_Node000022"><a xlink:title=" ">
<path fill="none" stroke="#63b8ff" d="M134.45,-343.88C162.21,-356.52 205.22,-375 244,-387 254.64,-390.29 265.98,-393.29 277.21,-395.97"/>
<polygon fill="#63b8ff" stroke="#63b8ff" points="135.85,-340.67 125.3,-339.67 132.93,-347.03 135.85,-340.67"/>
</a>
</g>
</g>
<!-- Node23 -->
<g id="Node000023" class="node">
<title>Node23</title>
<g id="a_Node000023"><a xlink:href="classWolfstagInteractive_1_1ConvoCore_1_1ConvoCoreCharacterProfileBaseData.html" target="_top" xlink:title="ScriptableObject that defines a character&#39;s identity within ConvoCore: their display name,...">
<polygon fill="white" stroke="#666666" points="443.5,-377.5 270.5,-377.5 270.5,-336.5 443.5,-336.5 443.5,-377.5"/>
<text text-anchor="start" x="278.5" y="-365.5" font-family="Helvetica,sans-Serif" font-size="10.00">WolfstagInteractive.Convo</text>
<text text-anchor="start" x="278.5" y="-354.5" font-family="Helvetica,sans-Serif" font-size="10.00">Core.ConvoCoreCharacterProfile</text>
<text text-anchor="middle" x="357" y="-343.5" font-family="Helvetica,sans-Serif" font-size="10.00">BaseData</text>
</a>
</g>
</g>
<!-- Node4&#45;&gt;Node23 -->
<g id="edge64_Node000004_Node000023" class="edge">
<title>Node4&#45;&gt;Node23</title>
<g id="a_edge64_Node000004_Node000023"><a xlink:title=" ">
<path fill="none" stroke="#63b8ff" d="M162.56,-336.19C194.47,-339.62 234.78,-343.96 270.33,-347.78"/>
<polygon fill="#63b8ff" stroke="#63b8ff" points="162.82,-332.7 152.51,-335.11 162.07,-339.66 162.82,-332.7"/>
</a>
</g>
</g>
<!-- Node24 -->
<g id="Node000024" class="node">
<title>Node24</title>
<g id="a_Node000024"><a xlink:href="classWolfstagInteractive_1_1ConvoCore_1_1ConvoCoreConversationData.html" target="_top" xlink:title=" ">
<polygon fill="white" stroke="#666666" points="448.5,-318 265.5,-318 265.5,-288 448.5,-288 448.5,-318"/>
<text text-anchor="start" x="273.5" y="-306" font-family="Helvetica,sans-Serif" font-size="10.00">WolfstagInteractive.Convo</text>
<text text-anchor="middle" x="357" y="-295" font-family="Helvetica,sans-Serif" font-size="10.00">Core.ConvoCoreConversationData</text>
</a>
</g>
</g>
<!-- Node4&#45;&gt;Node24 -->
<g id="edge65_Node000004_Node000024" class="edge">
<title>Node4&#45;&gt;Node24</title>
<g id="a_edge65_Node000004_Node000024"><a xlink:title=" ">
<path fill="none" stroke="#63b8ff" d="M162.53,-323.81C193.01,-320.53 231.15,-316.43 265.49,-312.74"/>
<polygon fill="#63b8ff" stroke="#63b8ff" points="162.07,-320.34 152.51,-324.89 162.82,-327.3 162.07,-320.34"/>
</a>
</g>
</g>
<!-- Node25 -->
<g id="Node000025" class="node">
<title>Node25</title>
<g id="a_Node000025"><a xlink:href="classWolfstagInteractive_1_1ConvoCore_1_1ConvoCoreHistoryRendererProfile.html" target="_top" xlink:title=" ">
<polygon fill="white" stroke="#666666" points="460,-270 254,-270 254,-240 460,-240 460,-270"/>
<text text-anchor="start" x="262" y="-258" font-family="Helvetica,sans-Serif" font-size="10.00">WolfstagInteractive.Convo</text>
<text text-anchor="middle" x="357" y="-247" font-family="Helvetica,sans-Serif" font-size="10.00">Core.ConvoCoreHistoryRendererProfile</text>
</a>
</g>
</g>
<!-- Node4&#45;&gt;Node25 -->
<g id="edge66_Node000004_Node000025" class="edge">
<title>Node4&#45;&gt;Node25</title>
<g id="a_edge66_Node000004_Node000025"><a xlink:title=" ">
<path fill="none" stroke="#63b8ff" d="M137.92,-316.43C165.81,-305.3 207.05,-289.68 244,-279 255.18,-275.77 267.09,-272.76 278.83,-270.05"/>
<polygon fill="#63b8ff" stroke="#63b8ff" points="136.24,-313.33 128.28,-320.31 138.86,-319.83 136.24,-313.33"/>
</a>
</g>
</g>
<!-- Node26 -->
<g id="Node000026" class="node">
<title>Node26</title>
<g id="a_Node000026"><a xlink:href="classWolfstagInteractive_1_1ConvoCore_1_1ConvoCoreLanguageSettings.html" target="_top" xlink:title=" ">
<polygon fill="white" stroke="#666666" points="448,-222 266,-222 266,-192 448,-192 448,-222"/>
<text text-anchor="start" x="274" y="-210" font-family="Helvetica,sans-Serif" font-size="10.00">WolfstagInteractive.Convo</text>
<text text-anchor="middle" x="357" y="-199" font-family="Helvetica,sans-Serif" font-size="10.00">Core.ConvoCoreLanguageSettings</text>
</a>
</g>
</g>
<!-- Node4&#45;&gt;Node26 -->
<g id="edge67_Node000004_Node000026" class="edge">
<title>Node4&#45;&gt;Node26</title>
<g id="a_edge67_Node000004_Node000026"><a xlink:title=" ">
<path fill="none" stroke="#63b8ff" d="M122.83,-313.57C147.94,-291.37 196.01,-252.14 244,-231 251.83,-227.55 260.18,-224.59 268.67,-222.04"/>
<polygon fill="#63b8ff" stroke="#63b8ff" points="120.34,-311.11 115.24,-320.4 125.01,-316.32 120.34,-311.11"/>
</a>
</g>
</g>
<!-- Node27 -->
<g id="Node000027" class="node">
<title>Node27</title>
<g id="a_Node000027"><a xlink:href="classWolfstagInteractive_1_1ConvoCore_1_1ConvoCoreSettings.html" target="_top" xlink:title="Global runtime settings ScriptableObject for ConvoCore.">
<polygon fill="white" stroke="#666666" points="430,-174 284,-174 284,-144 430,-144 430,-174"/>
<text text-anchor="start" x="292" y="-162" font-family="Helvetica,sans-Serif" font-size="10.00">WolfstagInteractive.Convo</text>
<text text-anchor="middle" x="357" y="-151" font-family="Helvetica,sans-Serif" font-size="10.00">Core.ConvoCoreSettings</text>
</a>
</g>
</g>
<!-- Node4&#45;&gt;Node27 -->
<g id="edge68_Node000004_Node000027" class="edge">
<title>Node4&#45;&gt;Node27</title>
<g id="a_edge68_Node000004_Node000027"><a xlink:title=" ">
<path fill="none" stroke="#63b8ff" d="M116.86,-311.5C138.2,-279.81 186.29,-215.45 244,-183 256.13,-176.18 270.01,-171.29 283.76,-167.79"/>
<polygon fill="#63b8ff" stroke="#63b8ff" points="113.7,-309.94 111.11,-320.21 119.54,-313.79 113.7,-309.94"/>
</a>
</g>
</g>
<!-- Node28 -->
<g id="Node000028" class="node">
<title>Node28</title>
<g id="a_Node000028"><a xlink:href="classWolfstagInteractive_1_1ConvoCore_1_1SaveSystem_1_1ConvoCoreSaveManager.html" target="_top" xlink:title=" ">
<polygon fill="white" stroke="#666666" points="470,-126 244,-126 244,-96 470,-96 470,-126"/>
<text text-anchor="start" x="252" y="-114" font-family="Helvetica,sans-Serif" font-size="10.00">WolfstagInteractive.Convo</text>
<text text-anchor="middle" x="357" y="-103" font-family="Helvetica,sans-Serif" font-size="10.00">Core.SaveSystem.ConvoCoreSaveManager</text>
</a>
</g>
</g>
<!-- Node4&#45;&gt;Node28 -->
<g id="edge69_Node000004_Node000028" class="edge">
<title>Node4&#45;&gt;Node28</title>
<g id="a_edge69_Node000004_Node000028"><a xlink:title=" ">
<path fill="none" stroke="#63b8ff" d="M112.74,-311.09C129.97,-271.54 175.42,-180.06 244,-135 249.24,-131.56 254.88,-128.6 260.75,-126.06"/>
<polygon fill="#63b8ff" stroke="#63b8ff" points="109.49,-309.8 108.81,-320.37 115.93,-312.53 109.49,-309.8"/>
</a>
</g>
</g>
<!-- Node29 -->
<g id="Node000029" class="node">
<title>Node29</title>
<g id="a_Node000029"><a xlink:href="classWolfstagInteractive_1_1ConvoCore_1_1SaveSystem_1_1ConvoSettingsState.html" target="_top" xlink:title="ScriptableObject that bridges ConvoCoreLanguageManager with the save system.">
<polygon fill="white" stroke="#666666" points="458,-78 256,-78 256,-48 458,-48 458,-78"/>
<text text-anchor="start" x="264" y="-66" font-family="Helvetica,sans-Serif" font-size="10.00">WolfstagInteractive.Convo</text>
<text text-anchor="middle" x="357" y="-55" font-family="Helvetica,sans-Serif" font-size="10.00">Core.SaveSystem.ConvoSettingsState</text>
</a>
</g>
</g>
<!-- Node4&#45;&gt;Node29 -->
<g id="edge70_Node000004_Node000029" class="edge">
<title>Node4&#45;&gt;Node29</title>
<g id="a_edge70_Node000004_Node000029"><a xlink:title=" ">
<path fill="none" stroke="#63b8ff" d="M110.12,-310.7C123.53,-264.15 164.26,-145.28 244,-87 248.66,-83.6 253.69,-80.66 258.97,-78.12"/>
<polygon fill="#63b8ff" stroke="#63b8ff" points="106.72,-309.86 107.42,-320.43 113.47,-311.73 106.72,-309.86"/>
</a>
</g>
</g>
<!-- Node30 -->
<g id="Node000030" class="node">
<title>Node30</title>
<g id="a_Node000030"><a xlink:href="classWolfstagInteractive_1_1ConvoCore_1_1SaveSystem_1_1ConvoVariableStore.html" target="_top" xlink:title=" ">
<polygon fill="white" stroke="#666666" points="458,-30 256,-30 256,0 458,0 458,-30"/>
<text text-anchor="start" x="264" y="-18" font-family="Helvetica,sans-Serif" font-size="10.00">WolfstagInteractive.Convo</text>
<text text-anchor="middle" x="357" y="-7" font-family="Helvetica,sans-Serif" font-size="10.00">Core.SaveSystem.ConvoVariableStore</text>
</a>
</g>
</g>
<!-- Node4&#45;&gt;Node30 -->
<g id="edge71_Node000004_Node000030" class="edge">
<title>Node4&#45;&gt;Node30</title>
<g id="a_edge71_Node000004_Node000030"><a xlink:title=" ">
<path fill="none" stroke="#63b8ff" d="M108.29,-310.21C118.19,-257.16 152.9,-110.9 244,-39 248.29,-35.61 252.96,-32.68 257.86,-30.13"/>
<polygon fill="#63b8ff" stroke="#63b8ff" points="104.79,-309.86 106.49,-320.32 111.69,-311.08 104.79,-309.86"/>
</a>
</g>
</g>
<!-- Node6 -->
<g id="Node000006" class="node">
<title>Node6</title>
<g id="a_Node000006"><a xlink:href="classWolfstagInteractive_1_1ConvoCore_1_1ConvoCoreDialogueLineActionDialogueLineActionGroup.html" target="_top" xlink:title=" ">
<polygon fill="white" stroke="#666666" points="710,-900.5 520,-900.5 520,-859.5 710,-859.5 710,-900.5"/>
<text text-anchor="start" x="528" y="-888.5" font-family="Helvetica,sans-Serif" font-size="10.00">WolfstagInteractive.Convo</text>
<text text-anchor="start" x="528" y="-877.5" font-family="Helvetica,sans-Serif" font-size="10.00">Core.ConvoCoreDialogueLineAction</text>
<text text-anchor="middle" x="615" y="-866.5" font-family="Helvetica,sans-Serif" font-size="10.00">DialogueLineActionGroup</text>
</a>
</g>
</g>
<!-- Node5&#45;&gt;Node6 -->
<g id="edge46_Node000005_Node000006" class="edge">
<title>Node5&#45;&gt;Node6</title>
<g id="a_edge46_Node000005_Node000006"><a xlink:title=" ">
<path fill="none" stroke="#63b8ff" d="M374.83,-726.28C399.76,-759.07 449.68,-818.46 506,-851 511.38,-854.11 517.1,-856.89 523,-859.38"/>
<polygon fill="#63b8ff" stroke="#63b8ff" points="377.55,-724.08 368.75,-718.17 371.94,-728.27 377.55,-724.08"/>
</a>
</g>
</g>
<!-- Node7 -->
<g id="Node000007" class="node">
<title>Node7</title>
<g id="a_Node000007"><a xlink:href="classWolfstagInteractive_1_1ConvoCore_1_1ConvoCoreDialogueLineActionEnableDisableGameObject.html" target="_top" xlink:title=" ">
<polygon fill="white" stroke="#666666" points="710,-841.5 520,-841.5 520,-800.5 710,-800.5 710,-841.5"/>
<text text-anchor="start" x="528" y="-829.5" font-family="Helvetica,sans-Serif" font-size="10.00">WolfstagInteractive.Convo</text>
<text text-anchor="start" x="528" y="-818.5" font-family="Helvetica,sans-Serif" font-size="10.00">Core.ConvoCoreDialogueLineAction</text>
<text text-anchor="middle" x="615" y="-807.5" font-family="Helvetica,sans-Serif" font-size="10.00">EnableDisableGameObject</text>
</a>
</g>
</g>
<!-- Node5&#45;&gt;Node7 -->
<g id="edge47_Node000005_Node000007" class="edge">
<title>Node5&#45;&gt;Node7</title>
<g id="a_edge47_Node000005_Node000007"><a xlink:title=" ">
<path fill="none" stroke="#63b8ff" d="M387.47,-724.11C416.43,-744.03 462.49,-773.51 506,-792 513.24,-795.08 520.89,-797.9 528.64,-800.49"/>
<polygon fill="#63b8ff" stroke="#63b8ff" points="389.26,-721.1 379.05,-718.26 385.26,-726.84 389.26,-721.1"/>
</a>
</g>
</g>
<!-- Node8 -->
<g id="Node000008" class="node">
<title>Node8</title>
<g id="a_Node000008"><a xlink:href="classWolfstagInteractive_1_1ConvoCore_1_1ConvoCoreDialogueLineActionFadeInOutSpriteRenderer.html" target="_top" xlink:title=" ">
<polygon fill="white" stroke="#666666" points="710,-782.5 520,-782.5 520,-741.5 710,-741.5 710,-782.5"/>
<text text-anchor="start" x="528" y="-770.5" font-family="Helvetica,sans-Serif" font-size="10.00">WolfstagInteractive.Convo</text>
<text text-anchor="start" x="528" y="-759.5" font-family="Helvetica,sans-Serif" font-size="10.00">Core.ConvoCoreDialogueLineAction</text>
<text text-anchor="middle" x="615" y="-748.5" font-family="Helvetica,sans-Serif" font-size="10.00">FadeInOutSpriteRenderer</text>
</a>
</g>
</g>
<!-- Node5&#45;&gt;Node8 -->
<g id="edge48_Node000005_Node000008" class="edge">
<title>Node5&#45;&gt;Node8</title>
<g id="a_edge48_Node000005_Node000008"><a xlink:title=" ">
<path fill="none" stroke="#63b8ff" d="M433.21,-720.33C461.89,-726.94 494.85,-734.54 524.71,-741.42"/>
<polygon fill="#63b8ff" stroke="#63b8ff" points="433.79,-716.88 423.26,-718.04 432.22,-723.7 433.79,-716.88"/>
</a>
</g>
</g>
<!-- Node9 -->
<g id="Node000009" class="node">
<title>Node9</title>
<g id="a_Node000009"><a xlink:href="classWolfstagInteractive_1_1ConvoCore_1_1ConvoCoreDialogueLineActionInstantiatePrefab.html" target="_top" xlink:title=" ">
<polygon fill="white" stroke="#666666" points="710,-723.5 520,-723.5 520,-682.5 710,-682.5 710,-723.5"/>
<text text-anchor="start" x="528" y="-711.5" font-family="Helvetica,sans-Serif" font-size="10.00">WolfstagInteractive.Convo</text>
<text text-anchor="start" x="528" y="-700.5" font-family="Helvetica,sans-Serif" font-size="10.00">Core.ConvoCoreDialogueLineAction</text>
<text text-anchor="middle" x="615" y="-689.5" font-family="Helvetica,sans-Serif" font-size="10.00">InstantiatePrefab</text>
</a>
</g>
</g>
<!-- Node5&#45;&gt;Node9 -->
<g id="edge49_Node000005_Node000009" class="edge">
<title>Node5&#45;&gt;Node9</title>
<g id="a_edge49_Node000005_Node000009"><a xlink:title=" ">
<path fill="none" stroke="#63b8ff" d="M447.79,-703C471.04,-703 496.15,-703 519.63,-703"/>
<polygon fill="#63b8ff" stroke="#63b8ff" points="447.6,-699.5 437.6,-703 447.6,-706.5 447.6,-699.5"/>
</a>
</g>
</g>
<!-- Node10 -->
<g id="Node000010" class="node">
<title>Node10</title>
<g id="a_Node000010"><a xlink:href="classWolfstagInteractive_1_1ConvoCore_1_1ConvoCoreDialogueLineActionModifyTransform.html" target="_top" xlink:title=" ">
<polygon fill="white" stroke="#666666" points="710,-664.5 520,-664.5 520,-623.5 710,-623.5 710,-664.5"/>
<text text-anchor="start" x="528" y="-652.5" font-family="Helvetica,sans-Serif" font-size="10.00">WolfstagInteractive.Convo</text>
<text text-anchor="start" x="528" y="-641.5" font-family="Helvetica,sans-Serif" font-size="10.00">Core.ConvoCoreDialogueLineAction</text>
<text text-anchor="middle" x="615" y="-630.5" font-family="Helvetica,sans-Serif" font-size="10.00">ModifyTransform</text>
</a>
</g>
</g>
<!-- Node5&#45;&gt;Node10 -->
<g id="edge50_Node000005_Node000010" class="edge">
<title>Node5&#45;&gt;Node10</title>
<g id="a_edge50_Node000005_Node000010"><a xlink:title=" ">
<path fill="none" stroke="#63b8ff" d="M433.21,-685.67C461.89,-679.06 494.85,-671.46 524.71,-664.58"/>
<polygon fill="#63b8ff" stroke="#63b8ff" points="432.22,-682.3 423.26,-687.96 433.79,-689.12 432.22,-682.3"/>
</a>
</g>
</g>
<!-- Node11 -->
<g id="Node000011" class="node">
<title>Node11</title>
<g id="a_Node000011"><a xlink:href="classWolfstagInteractive_1_1ConvoCore_1_1ConvoCoreDialogueLineActionPlayAudioClip.html" target="_top" xlink:title=" ">
<polygon fill="white" stroke="#666666" points="710,-605.5 520,-605.5 520,-564.5 710,-564.5 710,-605.5"/>
<text text-anchor="start" x="528" y="-593.5" font-family="Helvetica,sans-Serif" font-size="10.00">WolfstagInteractive.Convo</text>
<text text-anchor="start" x="528" y="-582.5" font-family="Helvetica,sans-Serif" font-size="10.00">Core.ConvoCoreDialogueLineAction</text>
<text text-anchor="middle" x="615" y="-571.5" font-family="Helvetica,sans-Serif" font-size="10.00">PlayAudioClip</text>
</a>
</g>
</g>
<!-- Node5&#45;&gt;Node11 -->
<g id="edge51_Node000005_Node000011" class="edge">
<title>Node5&#45;&gt;Node11</title>
<g id="a_edge51_Node000005_Node000011"><a xlink:title=" ">
<path fill="none" stroke="#63b8ff" d="M387.54,-682.23C416.55,-662.61 462.65,-633.52 506,-615 514.05,-611.56 522.61,-608.4 531.25,-605.53"/>
<polygon fill="#63b8ff" stroke="#63b8ff" points="385.39,-679.46 379.1,-687.99 389.34,-685.24 385.39,-679.46"/>
</a>
</g>
</g>
<!-- Node15 -->
<g id="Node000015" class="node">
<title>Node15</title>
<g id="a_Node000015"><a xlink:href="classWolfstagInteractive_1_1ConvoCore_1_1CameraRelativeBehaviour.html" target="_top" xlink:title="Character behaviour type that places characters at authored offsets relative to the active camera.">
<polygon fill="white" stroke="#666666" points="700,-546 530,-546 530,-516 700,-516 700,-546"/>
<text text-anchor="start" x="538" y="-534" font-family="Helvetica,sans-Serif" font-size="10.00">WolfstagInteractive.Convo</text>
<text text-anchor="middle" x="615" y="-523" font-family="Helvetica,sans-Serif" font-size="10.00">Core.CameraRelativeBehaviour</text>
</a>
</g>
</g>
<!-- Node14&#45;&gt;Node15 -->
<g id="edge56_Node000014_Node000015" class="edge">
<title>Node14&#45;&gt;Node15</title>
<g id="a_edge56_Node000014_Node000015"><a xlink:title=" ">
<path fill="none" stroke="#63b8ff" d="M454.18,-477.08C459.59,-478.88 464.9,-480.85 470,-483 487.72,-490.48 488.31,-499.45 506,-507 514.04,-510.43 522.63,-513.4 531.33,-515.96"/>
<polygon fill="#63b8ff" stroke="#63b8ff" points="454.92,-473.65 444.33,-474.03 452.84,-480.33 454.92,-473.65"/>
</a>
</g>
</g>
<!-- Node16 -->
<g id="Node000016" class="node">
<title>Node16</title>
<g id="a_Node000016"><a xlink:href="classWolfstagInteractive_1_1ConvoCore_1_1ExternalBehaviour.html" target="_top" xlink:title="Character behaviour type for characters that are fully managed by the developer.">
<polygon fill="white" stroke="#666666" points="688,-498 542,-498 542,-468 688,-468 688,-498"/>
<text text-anchor="start" x="550" y="-486" font-family="Helvetica,sans-Serif" font-size="10.00">WolfstagInteractive.Convo</text>
<text text-anchor="middle" x="615" y="-475" font-family="Helvetica,sans-Serif" font-size="10.00">Core.ExternalBehaviour</text>
</a>
</g>
</g>
<!-- Node14&#45;&gt;Node16 -->
<g id="edge57_Node000014_Node000016" class="edge">
<title>Node14&#45;&gt;Node16</title>
<g id="a_edge57_Node000014_Node000016"><a xlink:title=" ">
<path fill="none" stroke="#63b8ff" d="M463.36,-468.88C489.74,-471.35 517.45,-473.95 541.81,-476.23"/>
<polygon fill="#63b8ff" stroke="#63b8ff" points="463.61,-465.39 453.32,-467.94 462.95,-472.35 463.61,-465.39"/>
</a>
</g>
</g>
<!-- Node18 -->
<g id="Node000018" class="node">
<title>Node18</title>
<g id="a_Node000018"><a xlink:href="classWolfstagInteractive_1_1ConvoCore_1_1FollowTargetBehaviour.html" target="_top" xlink:title="Character behaviour type that spawns characters and keeps them following a scene Transform during the...">
<polygon fill="white" stroke="#666666" points="691.5,-450 538.5,-450 538.5,-420 691.5,-420 691.5,-450"/>
<text text-anchor="start" x="546.5" y="-438" font-family="Helvetica,sans-Serif" font-size="10.00">WolfstagInteractive.Convo</text>
<text text-anchor="middle" x="615" y="-427" font-family="Helvetica,sans-Serif" font-size="10.00">Core.FollowTargetBehaviour</text>
</a>
</g>
</g>
<!-- Node14&#45;&gt;Node18 -->
<g id="edge59_Node000014_Node000018" class="edge">
<title>Node14&#45;&gt;Node18</title>
<g id="a_edge59_Node000014_Node000018"><a xlink:title=" ">
<path fill="none" stroke="#63b8ff" d="M463.59,-449.1C488.6,-446.76 514.79,-444.3 538.18,-442.11"/>
<polygon fill="#63b8ff" stroke="#63b8ff" points="462.95,-445.65 453.32,-450.06 463.61,-452.61 462.95,-445.65"/>
</a>
</g>
</g>
<!-- Node19 -->
<g id="Node000019" class="node">
<title>Node19</title>
<g id="a_Node000019"><a xlink:href="classWolfstagInteractive_1_1ConvoCore_1_1SequencedBehaviour.html" target="_top" xlink:title="Character behaviour type that wraps a list of other behaviour types and selects between them based on...">
<polygon fill="white" stroke="#666666" points="688,-402 542,-402 542,-372 688,-372 688,-402"/>
<text text-anchor="start" x="550" y="-390" font-family="Helvetica,sans-Serif" font-size="10.00">WolfstagInteractive.Convo</text>
<text text-anchor="middle" x="615" y="-379" font-family="Helvetica,sans-Serif" font-size="10.00">Core.SequencedBehaviour</text>
</a>
</g>
</g>
<!-- Node14&#45;&gt;Node19 -->
<g id="edge60_Node000014_Node000019" class="edge">
<title>Node14&#45;&gt;Node19</title>
<g id="a_edge60_Node000014_Node000019"><a xlink:title=" ">
<path fill="none" stroke="#63b8ff" d="M454.18,-440.92C459.59,-439.12 464.9,-437.15 470,-435 487.72,-427.52 488.31,-418.55 506,-411 517.31,-406.18 529.71,-402.26 541.95,-399.11"/>
<polygon fill="#63b8ff" stroke="#63b8ff" points="452.84,-437.67 444.33,-443.97 454.92,-444.35 452.84,-437.67"/>
</a>
</g>
</g>
<!-- Node20 -->
<g id="Node000020" class="node">
<title>Node20</title>
<g id="a_Node000020"><a xlink:href="classWolfstagInteractive_1_1ConvoCore_1_1TransformLerpBehaviour.html" target="_top" xlink:title="Character behaviour type for scene&#45;resident characters that move to an authored offset position when ...">
<polygon fill="white" stroke="#666666" points="695.5,-354 534.5,-354 534.5,-324 695.5,-324 695.5,-354"/>
<text text-anchor="start" x="542.5" y="-342" font-family="Helvetica,sans-Serif" font-size="10.00">WolfstagInteractive.Convo</text>
<text text-anchor="middle" x="615" y="-331" font-family="Helvetica,sans-Serif" font-size="10.00">Core.TransformLerpBehaviour</text>
</a>
</g>
</g>
<!-- Node14&#45;&gt;Node20 -->
<g id="edge61_Node000014_Node000020" class="edge">
<title>Node14&#45;&gt;Node20</title>
<g id="a_edge61_Node000014_Node000020"><a xlink:title=" ">
<path fill="none" stroke="#63b8ff" d="M462.12,-440.4C464.85,-438.74 467.49,-436.95 470,-435 498.28,-413.09 477.8,-385.02 506,-363 514.4,-356.44 524.24,-351.6 534.49,-348.03"/>
<polygon fill="#63b8ff" stroke="#63b8ff" points="460.25,-437.43 453.09,-445.24 463.55,-443.6 460.25,-437.43"/>
</a>
</g>
</g>
<!-- Node21 -->
<g id="Node000021" class="node">
<title>Node21</title>
<g id="a_Node000021"><a xlink:href="classWolfstagInteractive_1_1ConvoCore_1_1WorldPointBehaviour.html" target="_top" xlink:title="Character behaviour type that places characters at scene&#45;authored positions.">
<polygon fill="white" stroke="#666666" points="688,-306 542,-306 542,-276 688,-276 688,-306"/>
<text text-anchor="start" x="550" y="-294" font-family="Helvetica,sans-Serif" font-size="10.00">WolfstagInteractive.Convo</text>
<text text-anchor="middle" x="615" y="-283" font-family="Helvetica,sans-Serif" font-size="10.00">Core.WorldPointBehaviour</text>
</a>
</g>
</g>
<!-- Node14&#45;&gt;Node21 -->
<g id="edge62_Node000014_Node000021" class="edge">
<title>Node14&#45;&gt;Node21</title>
<g id="a_edge62_Node000014_Node000021"><a xlink:title=" ">
<path fill="none" stroke="#63b8ff" d="M461.96,-441.38C464.79,-439.45 467.48,-437.33 470,-435 510.92,-397.24 465.22,-352.91 506,-315 515.99,-305.71 528.74,-299.73 541.96,-295.94"/>
<polygon fill="#63b8ff" stroke="#63b8ff" points="459.93,-438.52 453.12,-446.64 463.51,-444.54 459.93,-438.52"/>
</a>
</g>
</g>
<!-- Node17 -->
<g id="Node000017" class="node">
<title>Node17</title>
<g id="a_Node000017"><a xlink:href="classWolfstagInteractive_1_1ConvoCore_1_1ConvoCoreAnimatorBehaviour.html" target="_top" xlink:title="Character behaviour type for scene&#45;resident characters that are driven by an Animator.">
<polygon fill="white" stroke="#666666" points="950,-498 760,-498 760,-468 950,-468 950,-498"/>
<text text-anchor="start" x="768" y="-486" font-family="Helvetica,sans-Serif" font-size="10.00">WolfstagInteractive.Convo</text>
<text text-anchor="middle" x="855" y="-475" font-family="Helvetica,sans-Serif" font-size="10.00">Core.ConvoCoreAnimatorBehaviour</text>
</a>
</g>
</g>
<!-- Node16&#45;&gt;Node17 -->
<g id="edge58_Node000016_Node000017" class="edge">
<title>Node16&#45;&gt;Node17</title>
<g id="a_edge58_Node000016_Node000017"><a xlink:title=" ">
<path fill="none" stroke="#63b8ff" d="M698.27,-483C718.1,-483 739.43,-483 759.76,-483"/>
<polygon fill="#63b8ff" stroke="#63b8ff" points="698.05,-479.5 688.05,-483 698.05,-486.5 698.05,-479.5"/>
</a>
</g>
</g>
</g>
</svg>
