<?xml version="1.0" encoding="UTF-8" standalone="no"?>
<!DOCTYPE svg PUBLIC "-//W3C//DTD SVG 1.1//EN"
 "http://www.w3.org/Graphics/SVG/1.1/DTD/svg11.dtd">
<!-- Generated by graphviz version 2.43.0 (0)
 -->
<!-- Title: Graphical Class Hierarchy Pages: 1 -->
<svg width="694pt" height="441pt"
 viewBox="0.00 0.00 694.00 440.50" xmlns="http://www.w3.org/2000/svg" xmlns:xlink="http://www.w3.org/1999/xlink">
<g id="graph0" class="graph" transform="scale(1 1) rotate(0) translate(4 436.5)">
<title>Graphical Class Hierarchy</title>
<!-- Node0 -->
<g id="Node000000" class="node">
<title>Node0</title>
<g id="a_Node000000"><a xlink:href="interfaceWolfstagInteractive_1_1ConvoCore_1_1IEditorPreviewableRepresentation.html" target="_top" xlink:title=" ">
<polygon fill="white" stroke="#666666" points="208,-384.5 0,-384.5 0,-354.5 208,-354.5 208,-384.5"/>
<text text-anchor="start" x="8" y="-372.5" font-family="Helvetica,sans-Serif" font-size="10.00">WolfstagInteractive.Convo</text>
<text text-anchor="middle" x="104" y="-361.5" font-family="Helvetica,sans-Serif" font-size="10.00">Core.IEditorPreviewableRepresentation</text>
</a>
</g>
</g>
<!-- Node1 -->
<g id="Node000001" class="node">
<title>Node1</title>
<g id="a_Node000001"><a xlink:href="classWolfstagInteractive_1_1ConvoCore_1_1CharacterRepresentationBase.html" target="_top" xlink:title="Abstract ScriptableObject base class for all character visual representations.">
<polygon fill="white" stroke="#666666" points="432,-384.5 244,-384.5 244,-354.5 432,-354.5 432,-384.5"/>
<text text-anchor="start" x="252" y="-372.5" font-family="Helvetica,sans-Serif" font-size="10.00">WolfstagInteractive.Convo</text>
<text text-anchor="middle" x="338" y="-361.5" font-family="Helvetica,sans-Serif" font-size="10.00">Core.CharacterRepresentationBase</text>
</a>
</g>
</g>
<!-- Node0&#45;&gt;Node1 -->
<g id="edge66_Node000000_Node000001" class="edge">
<title>Node0&#45;&gt;Node1</title>
<g id="a_edge66_Node000000_Node000001"><a xlink:title=" ">
<path fill="none" stroke="#63b8ff" d="M218.15,-369.5C226.72,-369.5 235.31,-369.5 243.73,-369.5"/>
<polygon fill="#63b8ff" stroke="#63b8ff" points="218.11,-366 208.11,-369.5 218.11,-373 218.11,-366"/>
</a>
</g>
</g>
<!-- Node2 -->
<g id="Node000002" class="node">
<title>Node2</title>
<g id="a_Node000002"><a xlink:href="classWolfstagInteractive_1_1ConvoCore_1_1PrefabCharacterRepresentationData.html" target="_top" xlink:title="Defines how a prefab&#45;based character is displayed in a ConvoCore conversation.">
<polygon fill="white" stroke="#666666" points="686,-432.5 468,-432.5 468,-402.5 686,-402.5 686,-432.5"/>
<text text-anchor="start" x="476" y="-420.5" font-family="Helvetica,sans-Serif" font-size="10.00">WolfstagInteractive.Convo</text>
<text text-anchor="middle" x="577" y="-409.5" font-family="Helvetica,sans-Serif" font-size="10.00">Core.PrefabCharacterRepresentationData</text>
</a>
</g>
</g>
<!-- Node1&#45;&gt;Node2 -->
<g id="edge67_Node000001_Node000002" class="edge">
<title>Node1&#45;&gt;Node2</title>
<g id="a_edge67_Node000001_Node000002"><a xlink:title=" ">
<path fill="none" stroke="#63b8ff" d="M423.41,-386.6C449.05,-391.79 477.02,-397.45 501.93,-402.5"/>
<polygon fill="#63b8ff" stroke="#63b8ff" points="423.83,-383.11 413.34,-384.56 422.44,-389.97 423.83,-383.11"/>
</a>
</g>
</g>
<!-- Node3 -->
<g id="Node000003" class="node">
<title>Node3</title>
<g id="a_Node000003"><a xlink:href="classWolfstagInteractive_1_1ConvoCore_1_1SpriteCharacterRepresentationData.html" target="_top" xlink:title=" ">
<polygon fill="white" stroke="#666666" points="684.5,-384.5 469.5,-384.5 469.5,-354.5 684.5,-354.5 684.5,-384.5"/>
<text text-anchor="start" x="477.5" y="-372.5" font-family="Helvetica,sans-Serif" font-size="10.00">WolfstagInteractive.Convo</text>
<text text-anchor="middle" x="577" y="-361.5" font-family="Helvetica,sans-Serif" font-size="10.00">Core.SpriteCharacterRepresentationData</text>
</a>
</g>
</g>
<!-- Node1&#45;&gt;Node3 -->
<g id="edge68_Node000001_Node000003" class="edge">
<title>Node1&#45;&gt;Node3</title>
<g id="a_edge68_Node000001_Node000003"><a xlink:title=" ">
<path fill="none" stroke="#63b8ff" d="M442.39,-369.5C451.35,-369.5 460.44,-369.5 469.43,-369.5"/>
<polygon fill="#63b8ff" stroke="#63b8ff" points="442.33,-366 432.33,-369.5 442.33,-373 442.33,-366"/>
</a>
</g>
</g>
<!-- Node4 -->
<g id="Node000004" class="node">
<title>Node4</title>
<g id="a_Node000004"><a xlink:title=" ">
<polygon fill="#e0e0e0" stroke="#999999" points="152.5,-183 55.5,-183 55.5,-164 152.5,-164 152.5,-183"/>
<text text-anchor="middle" x="104" y="-171" font-family="Helvetica,sans-Serif" font-size="10.00">ScriptableObject</text>
</a>
</g>
</g>
<!-- Node4&#45;&gt;Node1 -->
<g id="edge77_Node000004_Node000001" class="edge">
<title>Node4&#45;&gt;Node1</title>
<g id="a_edge77_Node000004_Node000001"><a xlink:title=" ">
<path fill="none" stroke="#63b8ff" d="M124.2,-189.72C168.26,-226.95 276.18,-318.11 319.03,-354.32"/>
<polygon fill="#63b8ff" stroke="#63b8ff" points="126.4,-187 116.5,-183.22 121.89,-192.35 126.4,-187"/>
</a>
</g>
</g>
<!-- Node5 -->
<g id="Node000005" class="node">
<title>Node5</title>
<g id="a_Node000005"><a xlink:href="classWolfstagInteractive_1_1ConvoCore_1_1BaseDialogueLineAction.html" target="_top" xlink:title="Base ScriptableObject class for all ConvoCore dialogue line actions.">
<polygon fill="white" stroke="#666666" points="418.5,-212.5 257.5,-212.5 257.5,-182.5 418.5,-182.5 418.5,-212.5"/>
<text text-anchor="start" x="265.5" y="-200.5" font-family="Helvetica,sans-Serif" font-size="10.00">WolfstagInteractive.Convo</text>
<text text-anchor="middle" x="338" y="-189.5" font-family="Helvetica,sans-Serif" font-size="10.00">Core.BaseDialogueLineAction</text>
</a>
</g>
</g>
<!-- Node4&#45;&gt;Node5 -->
<g id="edge69_Node000004_Node000005" class="edge">
<title>Node4&#45;&gt;Node5</title>
<g id="a_edge69_Node000004_Node000005"><a xlink:title=" ">
<path fill="none" stroke="#63b8ff" d="M162.71,-179.47C191.22,-182.42 226.09,-186.03 257.12,-189.24"/>
<polygon fill="#63b8ff" stroke="#63b8ff" points="162.82,-175.96 152.51,-178.41 162.1,-182.93 162.82,-175.96"/>
</a>
</g>
</g>
<!-- Node12 -->
<g id="Node000012" class="node">
<title>Node12</title>
<g id="a_Node000012"><a xlink:href="classWolfstagInteractive_1_1ConvoCore_1_1BaseExpressionAction.html" target="_top" xlink:title="Abstract base ScriptableObject for custom expression actions.">
<polygon fill="white" stroke="#666666" points="413,-164.5 263,-164.5 263,-134.5 413,-134.5 413,-164.5"/>
<text text-anchor="start" x="271" y="-152.5" font-family="Helvetica,sans-Serif" font-size="10.00">WolfstagInteractive.Convo</text>
<text text-anchor="middle" x="338" y="-141.5" font-family="Helvetica,sans-Serif" font-size="10.00">Core.BaseExpressionAction</text>
</a>
</g>
</g>
<!-- Node4&#45;&gt;Node12 -->
<g id="edge76_Node000004_Node000012" class="edge">
<title>Node4&#45;&gt;Node12</title>
<g id="a_edge76_Node000004_Node000012"><a xlink:title=" ">
<path fill="none" stroke="#63b8ff" d="M162.47,-167.55C192.72,-164.43 230.16,-160.55 262.6,-157.2"/>
<polygon fill="#63b8ff" stroke="#63b8ff" points="162.1,-164.07 152.51,-168.59 162.82,-171.04 162.1,-164.07"/>
</a>
</g>
</g>
<!-- Node13 -->
<g id="Node000013" class="node">
<title>Node13</title>
<g id="a_Node000013"><a xlink:href="classWolfstagInteractive_1_1ConvoCore_1_1ConversationContainer.html" target="_top" xlink:title="ScriptableObject that groups one or more ConvoCoreConversationData assets into a single addressable u...">
<polygon fill="white" stroke="#666666" points="415,-116.5 261,-116.5 261,-86.5 415,-86.5 415,-116.5"/>
<text text-anchor="start" x="269" y="-104.5" font-family="Helvetica,sans-Serif" font-size="10.00">WolfstagInteractive.Convo</text>
<text text-anchor="middle" x="338" y="-93.5" font-family="Helvetica,sans-Serif" font-size="10.00">Core.ConversationContainer</text>
</a>
</g>
</g>
<!-- Node4&#45;&gt;Node13 -->
<g id="edge78_Node000004_Node000013" class="edge">
<title>Node4&#45;&gt;Node13</title>
<g id="a_edge78_Node000004_Node000013"><a xlink:title=" ">
<path fill="none" stroke="#63b8ff" d="M140.39,-160.4C168.33,-150.28 208.4,-136.22 244,-125.5 254.22,-122.42 265.14,-119.38 275.77,-116.56"/>
<polygon fill="#63b8ff" stroke="#63b8ff" points="138.87,-157.23 130.67,-163.94 141.27,-163.81 138.87,-157.23"/>
</a>
</g>
</g>
<!-- Node6 -->
<g id="Node000006" class="node">
<title>Node6</title>
<g id="a_Node000006"><a xlink:href="classWolfstagInteractive_1_1ConvoCore_1_1ConvoCoreDialogueLineActionDialogueLineActionGroup.html" target="_top" xlink:title=" ">
<polygon fill="white" stroke="#666666" points="672,-336 482,-336 482,-295 672,-295 672,-336"/>
<text text-anchor="start" x="490" y="-324" font-family="Helvetica,sans-Serif" font-size="10.00">WolfstagInteractive.Convo</text>
<text text-anchor="start" x="490" y="-313" font-family="Helvetica,sans-Serif" font-size="10.00">Core.ConvoCoreDialogueLineAction</text>
<text text-anchor="middle" x="577" y="-302" font-family="Helvetica,sans-Serif" font-size="10.00">DialogueLineActionGroup</text>
</a>
</g>
</g>
<!-- Node5&#45;&gt;Node6 -->
<g id="edge70_Node000005_Node000006" class="edge">
<title>Node5&#45;&gt;Node6</title>
<g id="a_edge70_Node000005_Node000006"><a xlink:title=" ">
<path fill="none" stroke="#63b8ff" d="M364.45,-219C389.38,-239.07 429.17,-268.54 468,-286.5 474.7,-289.6 481.78,-292.41 489,-294.96"/>
<polygon fill="#63b8ff" stroke="#63b8ff" points="366.55,-216.2 356.59,-212.59 362.13,-221.62 366.55,-216.2"/>
</a>
</g>
</g>
<!-- Node7 -->
<g id="Node000007" class="node">
<title>Node7</title>
<g id="a_Node000007"><a xlink:href="classWolfstagInteractive_1_1ConvoCore_1_1ConvoCoreDialogueLineActionEnableDisableGameObject.html" target="_top" xlink:title=" ">
<polygon fill="white" stroke="#666666" points="672,-277 482,-277 482,-236 672,-236 672,-277"/>
<text text-anchor="start" x="490" y="-265" font-family="Helvetica,sans-Serif" font-size="10.00">WolfstagInteractive.Convo</text>
<text text-anchor="start" x="490" y="-254" font-family="Helvetica,sans-Serif" font-size="10.00">Core.ConvoCoreDialogueLineAction</text>
<text text-anchor="middle" x="577" y="-243" font-family="Helvetica,sans-Serif" font-size="10.00">EnableDisableGameObject</text>
</a>
</g>
</g>
<!-- Node5&#45;&gt;Node7 -->
<g id="edge71_Node000005_Node000007" class="edge">
<title>Node5&#45;&gt;Node7</title>
<g id="a_edge71_Node000005_Node000007"><a xlink:title=" ">
<path fill="none" stroke="#63b8ff" d="M409.33,-215.01C435.71,-221.58 465.94,-229.1 493.34,-235.92"/>
<polygon fill="#63b8ff" stroke="#63b8ff" points="409.97,-211.56 399.42,-212.54 408.28,-218.35 409.97,-211.56"/>
</a>
</g>
</g>
<!-- Node8 -->
<g id="Node000008" class="node">
<title>Node8</title>
<g id="a_Node000008"><a xlink:href="classWolfstagInteractive_1_1ConvoCore_1_1ConvoCoreDialogueLineActionFadeInOutSpriteRenderer.html" target="_top" xlink:title=" ">
<polygon fill="white" stroke="#666666" points="672,-218 482,-218 482,-177 672,-177 672,-218"/>
<text text-anchor="start" x="490" y="-206" font-family="Helvetica,sans-Serif" font-size="10.00">WolfstagInteractive.Convo</text>
<text text-anchor="start" x="490" y="-195" font-family="Helvetica,sans-Serif" font-size="10.00">Core.ConvoCoreDialogueLineAction</text>
<text text-anchor="middle" x="577" y="-184" font-family="Helvetica,sans-Serif" font-size="10.00">FadeInOutSpriteRenderer</text>
</a>
</g>
</g>
<!-- Node5&#45;&gt;Node8 -->
<g id="edge72_Node000005_Node000008" class="edge">
<title>Node5&#45;&gt;Node8</title>
<g id="a_edge72_Node000005_Node000008"><a xlink:title=" ">
<path fill="none" stroke="#63b8ff" d="M428.7,-197.5C446.08,-197.5 464.34,-197.5 481.86,-197.5"/>
<polygon fill="#63b8ff" stroke="#63b8ff" points="428.58,-194 418.58,-197.5 428.58,-201 428.58,-194"/>
</a>
</g>
</g>
<!-- Node9 -->
<g id="Node000009" class="node">
<title>Node9</title>
<g id="a_Node000009"><a xlink:href="classWolfstagInteractive_1_1ConvoCore_1_1ConvoCoreDialogueLineActionInstantiatePrefab.html" target="_top" xlink:title=" ">
<polygon fill="white" stroke="#666666" points="672,-159 482,-159 482,-118 672,-118 672,-159"/>
<text text-anchor="start" x="490" y="-147" font-family="Helvetica,sans-Serif" font-size="10.00">WolfstagInteractive.Convo</text>
<text text-anchor="start" x="490" y="-136" font-family="Helvetica,sans-Serif" font-size="10.00">Core.ConvoCoreDialogueLineAction</text>
<text text-anchor="middle" x="577" y="-125" font-family="Helvetica,sans-Serif" font-size="10.00">InstantiatePrefab</text>
</a>
</g>
</g>
<!-- Node5&#45;&gt;Node9 -->
<g id="edge73_Node000005_Node000009" class="edge">
<title>Node5&#45;&gt;Node9</title>
<g id="a_edge73_Node000005_Node000009"><a xlink:title=" ">
<path fill="none" stroke="#63b8ff" d="M409.33,-179.99C435.71,-173.42 465.94,-165.9 493.34,-159.08"/>
<polygon fill="#63b8ff" stroke="#63b8ff" points="408.28,-176.65 399.42,-182.46 409.97,-183.44 408.28,-176.65"/>
</a>
</g>
</g>
<!-- Node10 -->
<g id="Node000010" class="node">
<title>Node10</title>
<g id="a_Node000010"><a xlink:href="classWolfstagInteractive_1_1ConvoCore_1_1ConvoCoreDialogueLineActionModifyTransform.html" target="_top" xlink:title=" ">
<polygon fill="white" stroke="#666666" points="672,-100 482,-100 482,-59 672,-59 672,-100"/>
<text text-anchor="start" x="490" y="-88" font-family="Helvetica,sans-Serif" font-size="10.00">WolfstagInteractive.Convo</text>
<text text-anchor="start" x="490" y="-77" font-family="Helvetica,sans-Serif" font-size="10.00">Core.ConvoCoreDialogueLineAction</text>
<text text-anchor="middle" x="577" y="-66" font-family="Helvetica,sans-Serif" font-size="10.00">ModifyTransform</text>
</a>
</g>
</g>
<!-- Node5&#45;&gt;Node10 -->
<g id="edge74_Node000005_Node000010" class="edge">
<title>Node5&#45;&gt;Node10</title>
<g id="a_edge74_Node000005_Node000010"><a xlink:title=" ">
<path fill="none" stroke="#63b8ff" d="M426.31,-177.47C428.27,-176.23 430.17,-174.9 432,-173.5 457.87,-153.61 442.31,-129.63 468,-109.5 472.52,-105.96 477.43,-102.84 482.58,-100.08"/>
<polygon fill="#63b8ff" stroke="#63b8ff" points="424.41,-174.53 417.37,-182.45 427.81,-180.64 424.41,-174.53"/>
</a>
</g>
</g>
<!-- Node11 -->
<g id="Node000011" class="node">
<title>Node11</title>
<g id="a_Node000011"><a xlink:href="classWolfstagInteractive_1_1ConvoCore_1_1ConvoCoreDialogueLineActionPlayAudioClip.html" target="_top" xlink:title=" ">
<polygon fill="white" stroke="#666666" points="672,-41 482,-41 482,0 672,0 672,-41"/>
<text text-anchor="start" x="490" y="-29" font-family="Helvetica,sans-Serif" font-size="10.00">WolfstagInteractive.Convo</text>
<text text-anchor="start" x="490" y="-18" font-family="Helvetica,sans-Serif" font-size="10.00">Core.ConvoCoreDialogueLineAction</text>
<text text-anchor="middle" x="577" y="-7" font-family="Helvetica,sans-Serif" font-size="10.00">PlayAudioClip</text>
</a>
</g>
</g>
<!-- Node5&#45;&gt;Node11 -->
<g id="edge75_Node000005_Node000011" class="edge">
<title>Node5&#45;&gt;Node11</title>
<g id="a_edge75_Node000005_Node000011"><a xlink:title=" ">
<path fill="none" stroke="#63b8ff" d="M427.35,-177.57C428.96,-176.29 430.52,-174.94 432,-173.5 473.18,-133.53 427.01,-89.67 468,-49.5 472.16,-45.42 476.83,-41.9 481.83,-38.87"/>
<polygon fill="#63b8ff" stroke="#63b8ff" points="425.13,-174.84 418.77,-183.32 429.03,-180.65 425.13,-174.84"/>
</a>
</g>
</g>
</g>
</svg>
