<?xml version="1.0" encoding="UTF-8" standalone="no"?>
<!DOCTYPE svg PUBLIC "-//W3C//DTD SVG 1.1//EN"
 "http://www.w3.org/Graphics/SVG/1.1/DTD/svg11.dtd">
<!-- Generated by graphviz version 2.43.0 (0)
 -->
<!-- Title: Graphical Class Hierarchy Pages: 1 -->
<svg width="678pt" height="794pt"
 viewBox="0.00 0.00 678.00 794.00" xmlns="http://www.w3.org/2000/svg" xmlns:xlink="http://www.w3.org/1999/xlink">
<g id="graph0" class="graph" transform="scale(1 1) rotate(0) translate(4 790)">
<title>Graphical Class Hierarchy</title>
<!-- Node0 -->
<g id="Node000000" class="node">
<title>Node0</title>
<g id="a_Node000000"><a xlink:href="interfaceWolfstagInteractive_1_1ConvoCore_1_1IConvoCoreCharacterDisplay.html" target="_top" xlink:title=" ">
<polygon fill="white" stroke="#666666" points="182,-690 0,-690 0,-660 182,-660 182,-690"/>
<text text-anchor="start" x="8" y="-678" font-family="Helvetica,sans-Serif" font-size="10.00">WolfstagInteractive.Convo</text>
<text text-anchor="middle" x="91" y="-667" font-family="Helvetica,sans-Serif" font-size="10.00">Core.IConvoCoreCharacterDisplay</text>
</a>
</g>
</g>
<!-- Node1 -->
<g id="Node000001" class="node">
<title>Node1</title>
<g id="a_Node000001"><a xlink:href="classWolfstagInteractive_1_1ConvoCore_1_1ConvoCoreCharacterDisplayBase.html" target="_top" xlink:title="Generic base class for all prefab&#45;based character displays.">
<polygon fill="white" stroke="#666666" points="432.5,-690 229.5,-690 229.5,-660 432.5,-660 432.5,-690"/>
<text text-anchor="start" x="237.5" y="-678" font-family="Helvetica,sans-Serif" font-size="10.00">WolfstagInteractive.Convo</text>
<text text-anchor="middle" x="331" y="-667" font-family="Helvetica,sans-Serif" font-size="10.00">Core.ConvoCoreCharacterDisplayBase</text>
</a>
</g>
</g>
<!-- Node0&#45;&gt;Node1 -->
<g id="edge5_Node000000_Node000001" class="edge">
<title>Node0&#45;&gt;Node1</title>
<g id="a_edge5_Node000000_Node000001"><a xlink:title=" ">
<path fill="none" stroke="#63b8ff" d="M192.5,-675C204.71,-675 217.19,-675 229.4,-675"/>
<polygon fill="#63b8ff" stroke="#63b8ff" points="192.32,-671.5 182.32,-675 192.32,-678.5 192.32,-671.5"/>
</a>
</g>
</g>
<!-- Node2 -->
<g id="Node000002" class="node">
<title>Node2</title>
<g id="a_Node000002"><a xlink:href="classWolfstagInteractive_1_1ConvoCore_1_1ConvoCoreActionOnlyDisplay.html" target="_top" xlink:title="Minimal prefab display component.">
<polygon fill="white" stroke="#666666" points="667.5,-714 482.5,-714 482.5,-684 667.5,-684 667.5,-714"/>
<text text-anchor="start" x="490.5" y="-702" font-family="Helvetica,sans-Serif" font-size="10.00">WolfstagInteractive.Convo</text>
<text text-anchor="middle" x="575" y="-691" font-family="Helvetica,sans-Serif" font-size="10.00">Core.ConvoCoreActionOnlyDisplay</text>
</a>
</g>
</g>
<!-- Node1&#45;&gt;Node2 -->
<g id="edge6_Node000001_Node000002" class="edge">
<title>Node1&#45;&gt;Node2</title>
<g id="a_edge6_Node000001_Node000002"><a xlink:title=" ">
<path fill="none" stroke="#63b8ff" d="M442.63,-685.97C455.9,-687.29 469.34,-688.62 482.3,-689.91"/>
<polygon fill="#63b8ff" stroke="#63b8ff" points="442.82,-682.47 432.53,-684.97 442.13,-689.44 442.82,-682.47"/>
</a>
</g>
</g>
<!-- Node3 -->
<g id="Node000003" class="node">
<title>Node3</title>
<g id="a_Node000003"><a xlink:href="classWolfstagInteractive_1_1ConvoCore_1_1ConvoCoreAnimatorDisplay.html" target="_top" xlink:title="Prefab display component that maps expression display names to Animator parameters.">
<polygon fill="white" stroke="#666666" points="663.5,-666 486.5,-666 486.5,-636 663.5,-636 663.5,-666"/>
<text text-anchor="start" x="494.5" y="-654" font-family="Helvetica,sans-Serif" font-size="10.00">WolfstagInteractive.Convo</text>
<text text-anchor="middle" x="575" y="-643" font-family="Helvetica,sans-Serif" font-size="10.00">Core.ConvoCoreAnimatorDisplay</text>
</a>
</g>
</g>
<!-- Node1&#45;&gt;Node3 -->
<g id="edge7_Node000001_Node000003" class="edge">
<title>Node1&#45;&gt;Node3</title>
<g id="a_edge7_Node000001_Node000003"><a xlink:title=" ">
<path fill="none" stroke="#63b8ff" d="M442.59,-664.03C457.18,-662.59 471.98,-661.12 486.13,-659.71"/>
<polygon fill="#63b8ff" stroke="#63b8ff" points="442.13,-660.56 432.53,-665.03 442.82,-667.53 442.13,-660.56"/>
</a>
</g>
</g>
<!-- Node4 -->
<g id="Node000004" class="node">
<title>Node4</title>
<g id="a_Node000004"><a xlink:href="classWolfstagInteractive_1_1ConvoCore_1_1ConvoCoreBlendShapeDisplay.html" target="_top" xlink:title="Prefab display component that maps expression display names to SkinnedMeshRenderer blend shape indice...">
<polygon fill="white" stroke="#666666" points="670,-618 480,-618 480,-588 670,-588 670,-618"/>
<text text-anchor="start" x="488" y="-606" font-family="Helvetica,sans-Serif" font-size="10.00">WolfstagInteractive.Convo</text>
<text text-anchor="middle" x="575" y="-595" font-family="Helvetica,sans-Serif" font-size="10.00">Core.ConvoCoreBlendShapeDisplay</text>
</a>
</g>
</g>
<!-- Node1&#45;&gt;Node4 -->
<g id="edge8_Node000001_Node000004" class="edge">
<title>Node1&#45;&gt;Node4</title>
<g id="a_edge8_Node000001_Node000004"><a xlink:title=" ">
<path fill="none" stroke="#63b8ff" d="M428.18,-656.92C433.59,-655.12 438.9,-653.15 444,-651 461.72,-643.52 462.43,-634.82 480,-627 487.54,-623.64 495.64,-620.69 503.8,-618.11"/>
<polygon fill="#63b8ff" stroke="#63b8ff" points="426.84,-653.67 418.33,-659.97 428.92,-660.35 426.84,-653.67"/>
</a>
</g>
</g>
<!-- Node5 -->
<g id="Node000005" class="node">
<title>Node5</title>
<g id="a_Node000005"><a xlink:href="classWolfstagInteractive_1_1ConvoCore_1_1SimplePrefabRepresentationDisplay.html" target="_top" xlink:title=" ">
<polygon fill="white" stroke="#666666" points="666,-773.5 484,-773.5 484,-732.5 666,-732.5 666,-773.5"/>
<text text-anchor="start" x="492" y="-761.5" font-family="Helvetica,sans-Serif" font-size="10.00">WolfstagInteractive.Convo</text>
<text text-anchor="start" x="492" y="-750.5" font-family="Helvetica,sans-Serif" font-size="10.00">Core.SimplePrefabRepresentation</text>
<text text-anchor="middle" x="575" y="-739.5" font-family="Helvetica,sans-Serif" font-size="10.00">Display</text>
</a>
</g>
</g>
<!-- Node1&#45;&gt;Node5 -->
<g id="edge9_Node000001_Node000005" class="edge">
<title>Node1&#45;&gt;Node5</title>
<g id="a_edge9_Node000001_Node000005"><a xlink:title=" ">
<path fill="none" stroke="#63b8ff" d="M428.18,-693.08C433.59,-694.88 438.9,-696.85 444,-699 461.72,-706.48 462.67,-714.66 480,-723 487.1,-726.42 494.68,-729.57 502.35,-732.46"/>
<polygon fill="#63b8ff" stroke="#63b8ff" points="428.92,-689.65 418.33,-690.03 426.84,-696.33 428.92,-689.65"/>
</a>
</g>
</g>
<!-- Node17 -->
<g id="Node000017" class="node">
<title>Node17</title>
<g id="a_Node000017"><a xlink:href="interfaceWolfstagInteractive_1_1ConvoCore_1_1IConvoCoreFadeIn.html" target="_top" xlink:title=" ">
<polygon fill="white" stroke="#666666" points="164,-738 18,-738 18,-708 164,-708 164,-738"/>
<text text-anchor="start" x="26" y="-726" font-family="Helvetica,sans-Serif" font-size="10.00">WolfstagInteractive.Convo</text>
<text text-anchor="middle" x="91" y="-715" font-family="Helvetica,sans-Serif" font-size="10.00">Core.IConvoCoreFadeIn</text>
</a>
</g>
</g>
<!-- Node16 -->
<g id="Node000016" class="node">
<title>Node16</title>
<g id="a_Node000016"><a xlink:href="classWolfstagInteractive_1_1ConvoCore_1_1ConvoCoreSimpleFade.html" target="_top" xlink:title="Drop&#45;on component that implements both IConvoCoreFadeIn and IConvoCoreFadeOut by fading a CanvasGroup...">
<polygon fill="white" stroke="#666666" points="407,-738 255,-738 255,-708 407,-708 407,-738"/>
<text text-anchor="start" x="263" y="-726" font-family="Helvetica,sans-Serif" font-size="10.00">WolfstagInteractive.Convo</text>
<text text-anchor="middle" x="331" y="-715" font-family="Helvetica,sans-Serif" font-size="10.00">Core.ConvoCoreSimpleFade</text>
</a>
</g>
</g>
<!-- Node17&#45;&gt;Node16 -->
<g id="edge10_Node000017_Node000016" class="edge">
<title>Node17&#45;&gt;Node16</title>
<g id="a_edge10_Node000017_Node000016"><a xlink:title=" ">
<path fill="none" stroke="#63b8ff" d="M174.32,-723C200.48,-723 229.27,-723 254.89,-723"/>
<polygon fill="#63b8ff" stroke="#63b8ff" points="174.05,-719.5 164.05,-723 174.05,-726.5 174.05,-719.5"/>
</a>
</g>
</g>
<!-- Node18 -->
<g id="Node000018" class="node">
<title>Node18</title>
<g id="a_Node000018"><a xlink:href="interfaceWolfstagInteractive_1_1ConvoCore_1_1IConvoCoreFadeOut.html" target="_top" xlink:title=" ">
<polygon fill="white" stroke="#666666" points="164,-786 18,-786 18,-756 164,-756 164,-786"/>
<text text-anchor="start" x="26" y="-774" font-family="Helvetica,sans-Serif" font-size="10.00">WolfstagInteractive.Convo</text>
<text text-anchor="middle" x="91" y="-763" font-family="Helvetica,sans-Serif" font-size="10.00">Core.IConvoCoreFadeOut</text>
</a>
</g>
</g>
<!-- Node18&#45;&gt;Node16 -->
<g id="edge11_Node000018_Node000016" class="edge">
<title>Node18&#45;&gt;Node16</title>
<g id="a_edge11_Node000018_Node000016"><a xlink:title=" ">
<path fill="none" stroke="#63b8ff" d="M174.02,-754.46C200.4,-749.14 229.48,-743.27 255.31,-738.06"/>
<polygon fill="#63b8ff" stroke="#63b8ff" points="173.16,-751.06 164.05,-756.47 174.55,-757.92 173.16,-751.06"/>
</a>
</g>
</g>
<!-- Node8 -->
<g id="Node000008" class="node">
<title>Node8</title>
<g id="a_Node000008"><a xlink:href="interfaceWolfstagInteractive_1_1ConvoCore_1_1IConvoCoreRunner.html" target="_top" xlink:title="Minimal interface implemented by ConvoCore.">
<polygon fill="white" stroke="#666666" points="164,-642 18,-642 18,-612 164,-612 164,-642"/>
<text text-anchor="start" x="26" y="-630" font-family="Helvetica,sans-Serif" font-size="10.00">WolfstagInteractive.Convo</text>
<text text-anchor="middle" x="91" y="-619" font-family="Helvetica,sans-Serif" font-size="10.00">Core.IConvoCoreRunner</text>
</a>
</g>
</g>
<!-- Node7 -->
<g id="Node000007" class="node">
<title>Node7</title>
<g id="a_Node000007"><a xlink:href="classWolfstagInteractive_1_1ConvoCore_1_1ConvoCore.html" target="_top" xlink:title="Main conversation runner MonoBehaviour.">
<polygon fill="white" stroke="#666666" points="404,-642 258,-642 258,-612 404,-612 404,-642"/>
<text text-anchor="start" x="266" y="-630" font-family="Helvetica,sans-Serif" font-size="10.00">WolfstagInteractive.Convo</text>
<text text-anchor="middle" x="331" y="-619" font-family="Helvetica,sans-Serif" font-size="10.00">Core.ConvoCore</text>
</a>
</g>
</g>
<!-- Node8&#45;&gt;Node7 -->
<g id="edge12_Node000008_Node000007" class="edge">
<title>Node8&#45;&gt;Node7</title>
<g id="a_edge12_Node000008_Node000007"><a xlink:title=" ">
<path fill="none" stroke="#63b8ff" d="M174.31,-627C201.46,-627 231.44,-627 257.78,-627"/>
<polygon fill="#63b8ff" stroke="#63b8ff" points="174.05,-623.5 164.05,-627 174.05,-630.5 174.05,-623.5"/>
</a>
</g>
</g>
<!-- Node26 -->
<g id="Node000026" class="node">
<title>Node26</title>
<g id="a_Node000026"><a xlink:href="interfaceWolfstagInteractive_1_1ConvoCore_1_1IConvoStartContextProvider.html" target="_top" xlink:title="Implement on a component alongside ConvoCore to control how a conversation is started.">
<polygon fill="white" stroke="#666666" points="180,-588 2,-588 2,-558 180,-558 180,-588"/>
<text text-anchor="start" x="10" y="-576" font-family="Helvetica,sans-Serif" font-size="10.00">WolfstagInteractive.Convo</text>
<text text-anchor="middle" x="91" y="-565" font-family="Helvetica,sans-Serif" font-size="10.00">Core.IConvoStartContextProvider</text>
</a>
</g>
</g>
<!-- Node25 -->
<g id="Node000025" class="node">
<title>Node25</title>
<g id="a_Node000025"><a xlink:href="classWolfstagInteractive_1_1ConvoCore_1_1SaveSystem_1_1ConvoCoreConversationSaveManager.html" target="_top" xlink:title="Attach alongside a ConvoCore component to persist and restore conversation state (active line,...">
<polygon fill="white" stroke="#666666" points="443,-593.5 219,-593.5 219,-552.5 443,-552.5 443,-593.5"/>
<text text-anchor="start" x="227" y="-581.5" font-family="Helvetica,sans-Serif" font-size="10.00">WolfstagInteractive.Convo</text>
<text text-anchor="start" x="227" y="-570.5" font-family="Helvetica,sans-Serif" font-size="10.00">Core.SaveSystem.ConvoCoreConversation</text>
<text text-anchor="middle" x="331" y="-559.5" font-family="Helvetica,sans-Serif" font-size="10.00">SaveManager</text>
</a>
</g>
</g>
<!-- Node26&#45;&gt;Node25 -->
<g id="edge13_Node000026_Node000025" class="edge">
<title>Node26&#45;&gt;Node25</title>
<g id="a_edge13_Node000026_Node000025"><a xlink:title=" ">
<path fill="none" stroke="#63b8ff" d="M190.39,-573C199.78,-573 209.35,-573 218.84,-573"/>
<polygon fill="#63b8ff" stroke="#63b8ff" points="190.28,-569.5 180.28,-573 190.28,-576.5 190.28,-569.5"/>
</a>
</g>
</g>
<!-- Node24 -->
<g id="Node000024" class="node">
<title>Node24</title>
<g id="a_Node000024"><a xlink:href="interfaceWolfstagInteractive_1_1ConvoCore_1_1IUIFoundation.html" target="_top" xlink:title="Contract between the ConvoCore runner and a dialogue UI implementation.">
<polygon fill="white" stroke="#666666" points="164,-78 18,-78 18,-48 164,-48 164,-78"/>
<text text-anchor="start" x="26" y="-66" font-family="Helvetica,sans-Serif" font-size="10.00">WolfstagInteractive.Convo</text>
<text text-anchor="middle" x="91" y="-55" font-family="Helvetica,sans-Serif" font-size="10.00">Core.IUIFoundation</text>
</a>
</g>
</g>
<!-- Node20 -->
<g id="Node000020" class="node">
<title>Node20</title>
<g id="a_Node000020"><a xlink:href="classWolfstagInteractive_1_1ConvoCore_1_1ConvoCoreUIFoundation.html" target="_top" xlink:title="Used as a basis of any UI that can be assigned in the inspector that includes all the base functions ...">
<polygon fill="white" stroke="#666666" points="411,-78 251,-78 251,-48 411,-48 411,-78"/>
<text text-anchor="start" x="259" y="-66" font-family="Helvetica,sans-Serif" font-size="10.00">WolfstagInteractive.Convo</text>
<text text-anchor="middle" x="331" y="-55" font-family="Helvetica,sans-Serif" font-size="10.00">Core.ConvoCoreUIFoundation</text>
</a>
</g>
</g>
<!-- Node24&#45;&gt;Node20 -->
<g id="edge14_Node000024_Node000020" class="edge">
<title>Node24&#45;&gt;Node20</title>
<g id="a_edge14_Node000024_Node000020"><a xlink:title=" ">
<path fill="none" stroke="#63b8ff" d="M174.15,-63C198.95,-63 226.11,-63 250.72,-63"/>
<polygon fill="#63b8ff" stroke="#63b8ff" points="174.05,-59.5 164.05,-63 174.05,-66.5 174.05,-59.5"/>
</a>
</g>
</g>
<!-- Node21 -->
<g id="Node000021" class="node">
<title>Node21</title>
<g id="a_Node000021"><a xlink:href="classWolfstagInteractive_1_1ConvoCore_1_1ConvoCoreSampleUI.html" target="_top" xlink:title="Legacy monolithic sample UI.">
<polygon fill="white" stroke="#666666" points="648,-126 502,-126 502,-96 648,-96 648,-126"/>
<text text-anchor="start" x="510" y="-114" font-family="Helvetica,sans-Serif" font-size="10.00">WolfstagInteractive.Convo</text>
<text text-anchor="middle" x="575" y="-103" font-family="Helvetica,sans-Serif" font-size="10.00">Core.ConvoCoreSampleUI</text>
</a>
</g>
</g>
<!-- Node20&#45;&gt;Node21 -->
<g id="edge15_Node000020_Node000021" class="edge">
<title>Node20&#45;&gt;Node21</title>
<g id="a_edge15_Node000020_Node000021"><a xlink:title=" ">
<path fill="none" stroke="#63b8ff" d="M417.87,-80.03C445.28,-85.47 475.32,-91.43 501.67,-96.65"/>
<polygon fill="#63b8ff" stroke="#63b8ff" points="418.4,-76.57 407.91,-78.06 417.03,-83.43 418.4,-76.57"/>
</a>
</g>
</g>
<!-- Node22 -->
<g id="Node000022" class="node">
<title>Node22</title>
<g id="a_Node000022"><a xlink:href="classWolfstagInteractive_1_1ConvoCore_1_1ConvoCoreSampleUI3D.html" target="_top" xlink:title="World&#45;space dialogue UI for 3D character conversations.">
<polygon fill="white" stroke="#666666" points="653,-78 497,-78 497,-48 653,-48 653,-78"/>
<text text-anchor="start" x="505" y="-66" font-family="Helvetica,sans-Serif" font-size="10.00">WolfstagInteractive.Convo</text>
<text text-anchor="middle" x="575" y="-55" font-family="Helvetica,sans-Serif" font-size="10.00">Core.ConvoCoreSampleUI3D</text>
</a>
</g>
</g>
<!-- Node20&#45;&gt;Node22 -->
<g id="edge16_Node000020_Node000022" class="edge">
<title>Node20&#45;&gt;Node22</title>
<g id="a_edge16_Node000020_Node000022"><a xlink:title=" ">
<path fill="none" stroke="#63b8ff" d="M421.34,-63C446.06,-63 472.67,-63 496.64,-63"/>
<polygon fill="#63b8ff" stroke="#63b8ff" points="421.24,-59.5 411.24,-63 421.24,-66.5 421.24,-59.5"/>
</a>
</g>
</g>
<!-- Node23 -->
<g id="Node000023" class="node">
<title>Node23</title>
<g id="a_Node000023"><a xlink:href="classWolfstagInteractive_1_1ConvoCore_1_1ConvoCoreSampleUICanvas.html" target="_top" xlink:title="Canvas&#45;space dialogue UI supporting both sprite and prefab&#45;in&#45;canvas character representations.">
<polygon fill="white" stroke="#666666" points="664.5,-30 485.5,-30 485.5,0 664.5,0 664.5,-30"/>
<text text-anchor="start" x="493.5" y="-18" font-family="Helvetica,sans-Serif" font-size="10.00">WolfstagInteractive.Convo</text>
<text text-anchor="middle" x="575" y="-7" font-family="Helvetica,sans-Serif" font-size="10.00">Core.ConvoCoreSampleUICanvas</text>
</a>
</g>
</g>
<!-- Node20&#45;&gt;Node23 -->
<g id="edge17_Node000020_Node000023" class="edge">
<title>Node20&#45;&gt;Node23</title>
<g id="a_edge17_Node000020_Node000023"><a xlink:title=" ">
<path fill="none" stroke="#63b8ff" d="M417.85,-45.97C444.12,-40.76 472.82,-35.07 498.36,-30"/>
<polygon fill="#63b8ff" stroke="#63b8ff" points="417.03,-42.57 407.91,-47.94 418.4,-49.43 417.03,-42.57"/>
</a>
</g>
</g>
<!-- Node6 -->
<g id="Node000006" class="node">
<title>Node6</title>
<g id="a_Node000006"><a xlink:title=" ">
<polygon fill="#e0e0e0" stroke="#999999" points="137.5,-396.5 44.5,-396.5 44.5,-377.5 137.5,-377.5 137.5,-396.5"/>
<text text-anchor="middle" x="91" y="-384.5" font-family="Helvetica,sans-Serif" font-size="10.00">MonoBehaviour</text>
</a>
</g>
</g>
<!-- Node6&#45;&gt;Node1 -->
<g id="edge20_Node000006_Node000001" class="edge">
<title>Node6&#45;&gt;Node1</title>
<g id="a_edge20_Node000006_Node000001"><a xlink:title=" ">
<path fill="none" stroke="#63b8ff" d="M103.53,-405.34C121.76,-434.83 157.66,-494.97 182,-549 201.74,-592.83 181.9,-619.25 218,-651 221.88,-654.41 226.13,-657.38 230.63,-659.96"/>
<polygon fill="#63b8ff" stroke="#63b8ff" points="106.32,-403.21 98.07,-396.57 100.38,-406.91 106.32,-403.21"/>
</a>
</g>
</g>
<!-- Node6&#45;&gt;Node16 -->
<g id="edge27_Node000006_Node000016" class="edge">
<title>Node6&#45;&gt;Node16</title>
<g id="a_edge27_Node000006_Node000016"><a xlink:title=" ">
<path fill="none" stroke="#63b8ff" d="M104.23,-405.11C123.39,-434.23 160.51,-493.81 182,-549 206.88,-612.89 168.93,-651.12 218,-699 228.1,-708.86 241.22,-715.1 254.9,-718.96"/>
<polygon fill="#63b8ff" stroke="#63b8ff" points="107.14,-403.15 98.68,-396.77 101.31,-407.03 107.14,-403.15"/>
</a>
</g>
</g>
<!-- Node6&#45;&gt;Node7 -->
<g id="edge18_Node000006_Node000007" class="edge">
<title>Node6&#45;&gt;Node7</title>
<g id="a_edge18_Node000006_Node000007"><a xlink:title=" ">
<path fill="none" stroke="#63b8ff" d="M102.42,-405.79C130.95,-457.13 208.83,-596.36 218,-603 229.68,-611.46 243.72,-617.05 257.86,-620.72"/>
<polygon fill="#63b8ff" stroke="#63b8ff" points="105.32,-403.81 97.41,-396.76 99.2,-407.21 105.32,-403.81"/>
</a>
</g>
</g>
<!-- Node6&#45;&gt;Node25 -->
<g id="edge30_Node000006_Node000025" class="edge">
<title>Node6&#45;&gt;Node25</title>
<g id="a_edge30_Node000006_Node000025"><a xlink:title=" ">
<path fill="none" stroke="#63b8ff" d="M101.92,-405.88C120.27,-438.9 162.72,-507.05 218,-543 223.48,-546.57 229.38,-549.71 235.5,-552.48"/>
<polygon fill="#63b8ff" stroke="#63b8ff" points="104.86,-403.95 97.01,-396.83 98.7,-407.29 104.86,-403.95"/>
</a>
</g>
</g>
<!-- Node6&#45;&gt;Node20 -->
<g id="edge29_Node000006_Node000020" class="edge">
<title>Node6&#45;&gt;Node20</title>
<g id="a_edge29_Node000006_Node000020"><a xlink:title=" ">
<path fill="none" stroke="#63b8ff" d="M94.07,-367.37C100.85,-313.45 127.45,-162.06 218,-87 227.49,-79.13 238.96,-73.67 250.88,-69.9"/>
<polygon fill="#63b8ff" stroke="#63b8ff" points="90.59,-367 92.91,-377.34 97.54,-367.81 90.59,-367"/>
</a>
</g>
</g>
<!-- Node9 -->
<g id="Node000009" class="node">
<title>Node9</title>
<g id="a_Node000009"><a xlink:href="classWolfstagInteractive_1_1ConvoCore_1_1ConvoCoreCameraRelativePosition.html" target="_top" xlink:title="Added at runtime to spawned characters by CameraRelativePresence when using CameraRelativePresence....">
<polygon fill="white" stroke="#666666" points="437.5,-222 224.5,-222 224.5,-192 437.5,-192 437.5,-222"/>
<text text-anchor="start" x="232.5" y="-210" font-family="Helvetica,sans-Serif" font-size="10.00">WolfstagInteractive.Convo</text>
<text text-anchor="middle" x="331" y="-199" font-family="Helvetica,sans-Serif" font-size="10.00">Core.ConvoCoreCameraRelativePosition</text>
</a>
</g>
</g>
<!-- Node6&#45;&gt;Node9 -->
<g id="edge19_Node000006_Node000009" class="edge">
<title>Node6&#45;&gt;Node9</title>
<g id="a_edge19_Node000006_Node000009"><a xlink:title=" ">
<path fill="none" stroke="#63b8ff" d="M101.54,-368.48C119.56,-335.48 161.87,-266.72 218,-232 224.27,-228.12 231.07,-224.84 238.11,-222.07"/>
<polygon fill="#63b8ff" stroke="#63b8ff" points="98.35,-367.02 96.74,-377.5 104.53,-370.31 98.35,-367.02"/>
</a>
</g>
</g>
<!-- Node10 -->
<g id="Node000010" class="node">
<title>Node10</title>
<g id="a_Node000010"><a xlink:href="classWolfstagInteractive_1_1ConvoCore_1_1ConvoCoreDialogueHistoryUI.html" target="_top" xlink:title=" ">
<polygon fill="white" stroke="#666666" points="423.5,-174 238.5,-174 238.5,-144 423.5,-144 423.5,-174"/>
<text text-anchor="start" x="246.5" y="-162" font-family="Helvetica,sans-Serif" font-size="10.00">WolfstagInteractive.Convo</text>
<text text-anchor="middle" x="331" y="-151" font-family="Helvetica,sans-Serif" font-size="10.00">Core.ConvoCoreDialogueHistoryUI</text>
</a>
</g>
</g>
<!-- Node6&#45;&gt;Node10 -->
<g id="edge21_Node000006_Node000010" class="edge">
<title>Node6&#45;&gt;Node10</title>
<g id="a_edge21_Node000006_Node000010"><a xlink:title=" ">
<path fill="none" stroke="#63b8ff" d="M98.04,-367.82C112,-326.83 150.55,-230.57 218,-183 224.26,-178.59 231.16,-174.96 238.39,-171.98"/>
<polygon fill="#63b8ff" stroke="#63b8ff" points="94.69,-366.82 94.89,-377.41 101.34,-369.01 94.69,-366.82"/>
</a>
</g>
</g>
<!-- Node11 -->
<g id="Node000011" class="node">
<title>Node11</title>
<g id="a_Node000011"><a xlink:href="classWolfstagInteractive_1_1ConvoCore_1_1ConvoCoreFollowTarget.html" target="_top" xlink:title="Added at runtime to spawned characters by FollowTargetPresence.">
<polygon fill="white" stroke="#666666" points="409.5,-126 252.5,-126 252.5,-96 409.5,-96 409.5,-126"/>
<text text-anchor="start" x="260.5" y="-114" font-family="Helvetica,sans-Serif" font-size="10.00">WolfstagInteractive.Convo</text>
<text text-anchor="middle" x="331" y="-103" font-family="Helvetica,sans-Serif" font-size="10.00">Core.ConvoCoreFollowTarget</text>
</a>
</g>
</g>
<!-- Node6&#45;&gt;Node11 -->
<g id="edge22_Node000006_Node000011" class="edge">
<title>Node6&#45;&gt;Node11</title>
<g id="a_edge22_Node000006_Node000011"><a xlink:title=" ">
<path fill="none" stroke="#63b8ff" d="M95.77,-367.36C106.05,-319.45 139.24,-196.01 218,-135 228.06,-127.21 240.09,-121.81 252.48,-118.1"/>
<polygon fill="#63b8ff" stroke="#63b8ff" points="92.3,-366.86 93.73,-377.36 99.16,-368.26 92.3,-366.86"/>
</a>
</g>
</g>
<!-- Node12 -->
<g id="Node000012" class="node">
<title>Node12</title>
<g id="a_Node000012"><a xlink:href="classWolfstagInteractive_1_1ConvoCore_1_1ConvoCorePrefabPool.html" target="_top" xlink:title=" ">
<polygon fill="white" stroke="#666666" points="405,-534 257,-534 257,-504 405,-504 405,-534"/>
<text text-anchor="start" x="265" y="-522" font-family="Helvetica,sans-Serif" font-size="10.00">WolfstagInteractive.Convo</text>
<text text-anchor="middle" x="331" y="-511" font-family="Helvetica,sans-Serif" font-size="10.00">Core.ConvoCorePrefabPool</text>
</a>
</g>
</g>
<!-- Node6&#45;&gt;Node12 -->
<g id="edge23_Node000006_Node000012" class="edge">
<title>Node6&#45;&gt;Node12</title>
<g id="a_edge23_Node000006_Node000012"><a xlink:title=" ">
<path fill="none" stroke="#63b8ff" d="M106.83,-404.26C128.64,-428.47 171.81,-472.12 218,-495 230.03,-500.96 243.5,-505.44 256.82,-508.82"/>
<polygon fill="#63b8ff" stroke="#63b8ff" points="109.28,-401.75 100.04,-396.57 104.04,-406.38 109.28,-401.75"/>
</a>
</g>
</g>
<!-- Node13 -->
<g id="Node000013" class="node">
<title>Node13</title>
<g id="a_Node000013"><a xlink:href="classWolfstagInteractive_1_1ConvoCore_1_1ConvoCorePrefabRepresentationSpawner.html" target="_top" xlink:title="Resolves, tracks, and releases prefab&#45;based character displays for a single UI instance.">
<polygon fill="white" stroke="#666666" points="431.5,-485.5 230.5,-485.5 230.5,-444.5 431.5,-444.5 431.5,-485.5"/>
<text text-anchor="start" x="238.5" y="-473.5" font-family="Helvetica,sans-Serif" font-size="10.00">WolfstagInteractive.Convo</text>
<text text-anchor="start" x="238.5" y="-462.5" font-family="Helvetica,sans-Serif" font-size="10.00">Core.ConvoCorePrefabRepresentation</text>
<text text-anchor="middle" x="331" y="-451.5" font-family="Helvetica,sans-Serif" font-size="10.00">Spawner</text>
</a>
</g>
</g>
<!-- Node6&#45;&gt;Node13 -->
<g id="edge24_Node000006_Node000013" class="edge">
<title>Node6&#45;&gt;Node13</title>
<g id="a_edge24_Node000006_Node000013"><a xlink:title=" ">
<path fill="none" stroke="#63b8ff" d="M124.42,-400.4C149.68,-410.58 185.75,-424.57 218,-435 228.06,-438.25 238.7,-441.43 249.26,-444.43"/>
<polygon fill="#63b8ff" stroke="#63b8ff" points="125.55,-397.08 114.97,-396.56 122.92,-403.57 125.55,-397.08"/>
</a>
</g>
</g>
<!-- Node14 -->
<g id="Node000014" class="node">
<title>Node14</title>
<g id="a_Node000014"><a xlink:href="classWolfstagInteractive_1_1ConvoCore_1_1ConvoCoreSceneCharacterRegistrant.html" target="_top" xlink:title="Add this component to any scene GameObject that should be driven by ConvoCore as a scene&#45;resident cha...">
<polygon fill="white" stroke="#666666" points="442,-426 220,-426 220,-396 442,-396 442,-426"/>
<text text-anchor="start" x="228" y="-414" font-family="Helvetica,sans-Serif" font-size="10.00">WolfstagInteractive.Convo</text>
<text text-anchor="middle" x="331" y="-403" font-family="Helvetica,sans-Serif" font-size="10.00">Core.ConvoCoreSceneCharacterRegistrant</text>
</a>
</g>
</g>
<!-- Node6&#45;&gt;Node14 -->
<g id="edge25_Node000006_Node000014" class="edge">
<title>Node6&#45;&gt;Node14</title>
<g id="a_edge25_Node000006_Node000014"><a xlink:title=" ">
<path fill="none" stroke="#63b8ff" d="M147.57,-392.6C169.21,-394.79 194.81,-397.37 219.87,-399.89"/>
<polygon fill="#63b8ff" stroke="#63b8ff" points="147.91,-389.12 137.61,-391.6 147.21,-396.08 147.91,-389.12"/>
</a>
</g>
</g>
<!-- Node15 -->
<g id="Node000015" class="node">
<title>Node15</title>
<g id="a_Node000015"><a xlink:href="classWolfstagInteractive_1_1ConvoCore_1_1ConvoCoreSceneCharacterRegistry.html" target="_top" xlink:title="Scene&#45;level registry that maps developer&#45;assigned string IDs to IConvoCoreCharacterDisplay instances ...">
<polygon fill="white" stroke="#666666" points="437,-378 225,-378 225,-348 437,-348 437,-378"/>
<text text-anchor="start" x="233" y="-366" font-family="Helvetica,sans-Serif" font-size="10.00">WolfstagInteractive.Convo</text>
<text text-anchor="middle" x="331" y="-355" font-family="Helvetica,sans-Serif" font-size="10.00">Core.ConvoCoreSceneCharacterRegistry</text>
</a>
</g>
</g>
<!-- Node6&#45;&gt;Node15 -->
<g id="edge26_Node000006_Node000015" class="edge">
<title>Node6&#45;&gt;Node15</title>
<g id="a_edge26_Node000006_Node000015"><a xlink:title=" ">
<path fill="none" stroke="#63b8ff" d="M147.85,-381.37C170.88,-379.05 198.34,-376.28 224.87,-373.6"/>
<polygon fill="#63b8ff" stroke="#63b8ff" points="147.21,-377.92 137.61,-382.4 147.91,-384.88 147.21,-377.92"/>
</a>
</g>
</g>
<!-- Node19 -->
<g id="Node000019" class="node">
<title>Node19</title>
<g id="a_Node000019"><a xlink:href="classWolfstagInteractive_1_1ConvoCore_1_1ConvoCoreTransformLerp.html" target="_top" xlink:title="Added at runtime by TransformLerpPresence to smoothly move a character&#39;s Transform to a target positi...">
<polygon fill="white" stroke="#666666" points="413.5,-330 248.5,-330 248.5,-300 413.5,-300 413.5,-330"/>
<text text-anchor="start" x="256.5" y="-318" font-family="Helvetica,sans-Serif" font-size="10.00">WolfstagInteractive.Convo</text>
<text text-anchor="middle" x="331" y="-307" font-family="Helvetica,sans-Serif" font-size="10.00">Core.ConvoCoreTransformLerp</text>
</a>
</g>
</g>
<!-- Node6&#45;&gt;Node19 -->
<g id="edge28_Node000006_Node000019" class="edge">
<title>Node6&#45;&gt;Node19</title>
<g id="a_edge28_Node000006_Node000019"><a xlink:title=" ">
<path fill="none" stroke="#63b8ff" d="M123.36,-373.51C148.58,-363.05 185.1,-348.73 218,-339 228.96,-335.76 240.65,-332.76 252.19,-330.06"/>
<polygon fill="#63b8ff" stroke="#63b8ff" points="121.82,-370.37 113.95,-377.46 124.53,-376.82 121.82,-370.37"/>
</a>
</g>
</g>
<!-- Node27 -->
<g id="Node000027" class="node">
<title>Node27</title>
<g id="a_Node000027"><a xlink:href="classWolfstagInteractive_1_1ConvoCore_1_1SaveSystem_1_1ConvoCoreSaveManagerBootstrapper.html" target="_top" xlink:title=" ">
<polygon fill="white" stroke="#666666" points="444,-281.5 218,-281.5 218,-240.5 444,-240.5 444,-281.5"/>
<text text-anchor="start" x="226" y="-269.5" font-family="Helvetica,sans-Serif" font-size="10.00">WolfstagInteractive.Convo</text>
<text text-anchor="start" x="226" y="-258.5" font-family="Helvetica,sans-Serif" font-size="10.00">Core.SaveSystem.ConvoCoreSaveManager</text>
<text text-anchor="middle" x="331" y="-247.5" font-family="Helvetica,sans-Serif" font-size="10.00">Bootstrapper</text>
</a>
</g>
</g>
<!-- Node6&#45;&gt;Node27 -->
<g id="edge31_Node000006_Node000027" class="edge">
<title>Node6&#45;&gt;Node27</title>
<g id="a_edge31_Node000006_Node000027"><a xlink:title=" ">
<path fill="none" stroke="#63b8ff" d="M109.41,-370.13C132.44,-348.72 175.13,-312.05 218,-291 225.14,-287.5 232.74,-284.36 240.49,-281.56"/>
<polygon fill="#63b8ff" stroke="#63b8ff" points="106.72,-367.86 101.85,-377.27 111.53,-372.95 106.72,-367.86"/>
</a>
</g>
</g>
</g>
</svg>
