<?xml version="1.0" encoding="UTF-8" standalone="no"?>
<!DOCTYPE svg PUBLIC "-//W3C//DTD SVG 1.1//EN"
 "http://www.w3.org/Graphics/SVG/1.1/DTD/svg11.dtd">
<!-- Generated by graphviz version 2.43.0 (0)
 -->
<!-- Title: Graphical Class Hierarchy Pages: 1 -->
<svg width="732pt" height="798pt"
 viewBox="0.00 0.00 732.00 798.00" xmlns="http://www.w3.org/2000/svg" xmlns:xlink="http://www.w3.org/1999/xlink">
<g id="graph0" class="graph" transform="scale(1 1) rotate(0) translate(4 794)">
<title>Graphical Class Hierarchy</title>
<!-- Node0 -->
<g id="Node000000" class="node">
<title>Node0</title>
<g id="a_Node000000"><a xlink:href="interfaceWolfstagInteractive_1_1ConvoCore_1_1IEditorPreviewableRepresentation.html" target="_top" xlink:title=" ">
<polygon fill="white" stroke="#666666" points="208,-742 0,-742 0,-712 208,-712 208,-742"/>
<text text-anchor="start" x="8" y="-730" font-family="Helvetica,sans-Serif" font-size="10.00">WolfstagInteractive.Convo</text>
<text text-anchor="middle" x="104" y="-719" font-family="Helvetica,sans-Serif" font-size="10.00">Core.IEditorPreviewableRepresentation</text>
</a>
</g>
</g>
<!-- Node1 -->
<g id="Node000001" class="node">
<title>Node1</title>
<g id="a_Node000001"><a xlink:href="classWolfstagInteractive_1_1ConvoCore_1_1CharacterRepresentationBase.html" target="_top" xlink:title="Abstract ScriptableObject base class for all character visual representations.">
<polygon fill="white" stroke="#666666" points="451,-742 263,-742 263,-712 451,-712 451,-742"/>
<text text-anchor="start" x="271" y="-730" font-family="Helvetica,sans-Serif" font-size="10.00">WolfstagInteractive.Convo</text>
<text text-anchor="middle" x="357" y="-719" font-family="Helvetica,sans-Serif" font-size="10.00">Core.CharacterRepresentationBase</text>
</a>
</g>
</g>
<!-- Node0&#45;&gt;Node1 -->
<g id="edge28_Node000000_Node000001" class="edge">
<title>Node0&#45;&gt;Node1</title>
<g id="a_edge28_Node000000_Node000001"><a xlink:title=" ">
<path fill="none" stroke="#63b8ff" d="M218.43,-727C233.3,-727 248.4,-727 262.88,-727"/>
<polygon fill="#63b8ff" stroke="#63b8ff" points="218.18,-723.5 208.18,-727 218.18,-730.5 218.18,-723.5"/>
</a>
</g>
</g>
<!-- Node2 -->
<g id="Node000002" class="node">
<title>Node2</title>
<g id="a_Node000002"><a xlink:href="classWolfstagInteractive_1_1ConvoCore_1_1PrefabCharacterRepresentationData.html" target="_top" xlink:title=" ">
<polygon fill="white" stroke="#666666" points="724,-790 506,-790 506,-760 724,-760 724,-790"/>
<text text-anchor="start" x="514" y="-778" font-family="Helvetica,sans-Serif" font-size="10.00">WolfstagInteractive.Convo</text>
<text text-anchor="middle" x="615" y="-767" font-family="Helvetica,sans-Serif" font-size="10.00">Core.PrefabCharacterRepresentationData</text>
</a>
</g>
</g>
<!-- Node1&#45;&gt;Node2 -->
<g id="edge29_Node000001_Node000002" class="edge">
<title>Node1&#45;&gt;Node2</title>
<g id="a_edge29_Node000001_Node000002"><a xlink:title=" ">
<path fill="none" stroke="#63b8ff" d="M448.45,-743.96C476.34,-749.19 506.85,-754.91 533.99,-760"/>
<polygon fill="#63b8ff" stroke="#63b8ff" points="448.77,-740.46 438.3,-742.06 447.48,-747.34 448.77,-740.46"/>
</a>
</g>
</g>
<!-- Node3 -->
<g id="Node000003" class="node">
<title>Node3</title>
<g id="a_Node000003"><a xlink:href="classWolfstagInteractive_1_1ConvoCore_1_1SpriteCharacterRepresentationData.html" target="_top" xlink:title=" ">
<polygon fill="white" stroke="#666666" points="722.5,-742 507.5,-742 507.5,-712 722.5,-712 722.5,-742"/>
<text text-anchor="start" x="515.5" y="-730" font-family="Helvetica,sans-Serif" font-size="10.00">WolfstagInteractive.Convo</text>
<text text-anchor="middle" x="615" y="-719" font-family="Helvetica,sans-Serif" font-size="10.00">Core.SpriteCharacterRepresentationData</text>
</a>
</g>
</g>
<!-- Node1&#45;&gt;Node3 -->
<g id="edge30_Node000001_Node000003" class="edge">
<title>Node1&#45;&gt;Node3</title>
<g id="a_edge30_Node000001_Node000003"><a xlink:title=" ">
<path fill="none" stroke="#63b8ff" d="M461.54,-727C476.67,-727 492.28,-727 507.47,-727"/>
<polygon fill="#63b8ff" stroke="#63b8ff" points="461.15,-723.5 451.15,-727 461.15,-730.5 461.15,-723.5"/>
</a>
</g>
</g>
<!-- Node4 -->
<g id="Node000004" class="node">
<title>Node4</title>
<g id="a_Node000004"><a xlink:title=" ">
<polygon fill="#e0e0e0" stroke="#999999" points="152.5,-312.5 55.5,-312.5 55.5,-293.5 152.5,-293.5 152.5,-312.5"/>
<text text-anchor="middle" x="104" y="-300.5" font-family="Helvetica,sans-Serif" font-size="10.00">ScriptableObject</text>
</a>
</g>
</g>
<!-- Node4&#45;&gt;Node1 -->
<g id="edge39_Node000004_Node000001" class="edge">
<title>Node4&#45;&gt;Node1</title>
<g id="a_edge39_Node000004_Node000001"><a xlink:title=" ">
<path fill="none" stroke="#63b8ff" d="M113.22,-322.21C133.15,-368.06 186.62,-486.91 244,-579 275.86,-630.14 320.94,-685.54 342.92,-711.69"/>
<polygon fill="#63b8ff" stroke="#63b8ff" points="116.37,-320.67 109.19,-312.88 109.94,-323.44 116.37,-320.67"/>
</a>
</g>
</g>
<!-- Node5 -->
<g id="Node000005" class="node">
<title>Node5</title>
<g id="a_Node000005"><a xlink:href="classWolfstagInteractive_1_1ConvoCore_1_1BaseDialogueLineAction.html" target="_top" xlink:title="Base ScriptableObject class for all ConvoCore dialogue line actions.">
<polygon fill="white" stroke="#666666" points="437.5,-570 276.5,-570 276.5,-540 437.5,-540 437.5,-570"/>
<text text-anchor="start" x="284.5" y="-558" font-family="Helvetica,sans-Serif" font-size="10.00">WolfstagInteractive.Convo</text>
<text text-anchor="middle" x="357" y="-547" font-family="Helvetica,sans-Serif" font-size="10.00">Core.BaseDialogueLineAction</text>
</a>
</g>
</g>
<!-- Node4&#45;&gt;Node5 -->
<g id="edge31_Node000004_Node000005" class="edge">
<title>Node4&#45;&gt;Node5</title>
<g id="a_edge31_Node000004_Node000005"><a xlink:title=" ">
<path fill="none" stroke="#63b8ff" d="M110.88,-322.32C125.49,-366.84 167.86,-476.96 244,-531 253.65,-537.85 264.86,-542.81 276.39,-546.39"/>
<polygon fill="#63b8ff" stroke="#63b8ff" points="114.19,-321.18 107.83,-312.71 107.52,-323.3 114.19,-321.18"/>
</a>
</g>
</g>
<!-- Node12 -->
<g id="Node000012" class="node">
<title>Node12</title>
<g id="a_Node000012"><a xlink:href="classWolfstagInteractive_1_1ConvoCore_1_1BaseExpressionAction.html" target="_top" xlink:title="Abstract base ScriptableObject for custom expression actions.">
<polygon fill="white" stroke="#666666" points="432,-522 282,-522 282,-492 432,-492 432,-522"/>
<text text-anchor="start" x="290" y="-510" font-family="Helvetica,sans-Serif" font-size="10.00">WolfstagInteractive.Convo</text>
<text text-anchor="middle" x="357" y="-499" font-family="Helvetica,sans-Serif" font-size="10.00">Core.BaseExpressionAction</text>
</a>
</g>
</g>
<!-- Node4&#45;&gt;Node12 -->
<g id="edge38_Node000004_Node000012" class="edge">
<title>Node4&#45;&gt;Node12</title>
<g id="a_edge38_Node000004_Node000012"><a xlink:title=" ">
<path fill="none" stroke="#63b8ff" d="M113.91,-321.97C132.45,-359.26 178.96,-442.03 244,-483 255.36,-490.15 268.51,-495.2 281.73,-498.76"/>
<polygon fill="#63b8ff" stroke="#63b8ff" points="116.94,-320.21 109.42,-312.74 110.64,-323.26 116.94,-320.21"/>
</a>
</g>
</g>
<!-- Node13 -->
<g id="Node000013" class="node">
<title>Node13</title>
<g id="a_Node000013"><a xlink:href="classWolfstagInteractive_1_1ConvoCore_1_1ConversationContainer.html" target="_top" xlink:title="ScriptableObject that groups one or more ConvoCoreConversationData assets into a single addressable u...">
<polygon fill="white" stroke="#666666" points="434,-474 280,-474 280,-444 434,-444 434,-474"/>
<text text-anchor="start" x="288" y="-462" font-family="Helvetica,sans-Serif" font-size="10.00">WolfstagInteractive.Convo</text>
<text text-anchor="middle" x="357" y="-451" font-family="Helvetica,sans-Serif" font-size="10.00">Core.ConversationContainer</text>
</a>
</g>
</g>
<!-- Node4&#45;&gt;Node13 -->
<g id="edge40_Node000004_Node000013" class="edge">
<title>Node4&#45;&gt;Node13</title>
<g id="a_edge40_Node000004_Node000013"><a xlink:title=" ">
<path fill="none" stroke="#63b8ff" d="M118.29,-320.84C140.79,-349.66 189.31,-406.16 244,-435 255.08,-440.84 267.49,-445.27 279.91,-448.61"/>
<polygon fill="#63b8ff" stroke="#63b8ff" points="121.03,-318.65 112.17,-312.84 115.47,-322.91 121.03,-318.65"/>
</a>
</g>
</g>
<!-- Node14 -->
<g id="Node000014" class="node">
<title>Node14</title>
<g id="a_Node000014"><a xlink:href="classWolfstagInteractive_1_1ConvoCore_1_1ConvoCoreCharacterExpression.html" target="_top" xlink:title=" ">
<polygon fill="white" stroke="#666666" points="455,-426 259,-426 259,-396 455,-396 455,-426"/>
<text text-anchor="start" x="267" y="-414" font-family="Helvetica,sans-Serif" font-size="10.00">WolfstagInteractive.Convo</text>
<text text-anchor="middle" x="357" y="-403" font-family="Helvetica,sans-Serif" font-size="10.00">Core.ConvoCoreCharacterExpression</text>
</a>
</g>
</g>
<!-- Node4&#45;&gt;Node14 -->
<g id="edge41_Node000004_Node000014" class="edge">
<title>Node4&#45;&gt;Node14</title>
<g id="a_edge41_Node000004_Node000014"><a xlink:title=" ">
<path fill="none" stroke="#63b8ff" d="M126.51,-318.84C152.9,-337.54 199.62,-368.33 244,-386 253.62,-389.83 263.96,-393.14 274.32,-395.98"/>
<polygon fill="#63b8ff" stroke="#63b8ff" points="128.22,-315.76 118.06,-312.77 124.14,-321.44 128.22,-315.76"/>
</a>
</g>
</g>
<!-- Node15 -->
<g id="Node000015" class="node">
<title>Node15</title>
<g id="a_Node000015"><a xlink:href="classWolfstagInteractive_1_1ConvoCore_1_1ConvoCoreCharacterProfileBaseData.html" target="_top" xlink:title="ScriptableObject that defines a character&#39;s identity within ConvoCore: their display name,...">
<polygon fill="white" stroke="#666666" points="443.5,-377.5 270.5,-377.5 270.5,-336.5 443.5,-336.5 443.5,-377.5"/>
<text text-anchor="start" x="278.5" y="-365.5" font-family="Helvetica,sans-Serif" font-size="10.00">WolfstagInteractive.Convo</text>
<text text-anchor="start" x="278.5" y="-354.5" font-family="Helvetica,sans-Serif" font-size="10.00">Core.ConvoCoreCharacterProfile</text>
<text text-anchor="middle" x="357" y="-343.5" font-family="Helvetica,sans-Serif" font-size="10.00">BaseData</text>
</a>
</g>
</g>
<!-- Node4&#45;&gt;Node15 -->
<g id="edge42_Node000004_Node000015" class="edge">
<title>Node4&#45;&gt;Node15</title>
<g id="a_edge42_Node000004_Node000015"><a xlink:title=" ">
<path fill="none" stroke="#63b8ff" d="M159.46,-314.72C191.82,-321.68 233.59,-330.66 270.29,-338.56"/>
<polygon fill="#63b8ff" stroke="#63b8ff" points="159.81,-311.21 149.3,-312.53 158.34,-318.05 159.81,-311.21"/>
</a>
</g>
</g>
<!-- Node16 -->
<g id="Node000016" class="node">
<title>Node16</title>
<g id="a_Node000016"><a xlink:href="classWolfstagInteractive_1_1ConvoCore_1_1ConvoCoreConversationData.html" target="_top" xlink:title=" ">
<polygon fill="white" stroke="#666666" points="448.5,-318 265.5,-318 265.5,-288 448.5,-288 448.5,-318"/>
<text text-anchor="start" x="273.5" y="-306" font-family="Helvetica,sans-Serif" font-size="10.00">WolfstagInteractive.Convo</text>
<text text-anchor="middle" x="357" y="-295" font-family="Helvetica,sans-Serif" font-size="10.00">Core.ConvoCoreConversationData</text>
</a>
</g>
</g>
<!-- Node4&#45;&gt;Node16 -->
<g id="edge43_Node000004_Node000016" class="edge">
<title>Node4&#45;&gt;Node16</title>
<g id="a_edge43_Node000004_Node000016"><a xlink:title=" ">
<path fill="none" stroke="#63b8ff" d="M162.53,-303C193.01,-303 231.15,-303 265.49,-303"/>
<polygon fill="#63b8ff" stroke="#63b8ff" points="162.51,-299.5 152.51,-303 162.51,-306.5 162.51,-299.5"/>
</a>
</g>
</g>
<!-- Node17 -->
<g id="Node000017" class="node">
<title>Node17</title>
<g id="a_Node000017"><a xlink:href="classWolfstagInteractive_1_1ConvoCore_1_1ConvoCoreHistoryRendererProfile.html" target="_top" xlink:title=" ">
<polygon fill="white" stroke="#666666" points="460,-270 254,-270 254,-240 460,-240 460,-270"/>
<text text-anchor="start" x="262" y="-258" font-family="Helvetica,sans-Serif" font-size="10.00">WolfstagInteractive.Convo</text>
<text text-anchor="middle" x="357" y="-247" font-family="Helvetica,sans-Serif" font-size="10.00">Core.ConvoCoreHistoryRendererProfile</text>
</a>
</g>
</g>
<!-- Node4&#45;&gt;Node17 -->
<g id="edge44_Node000004_Node000017" class="edge">
<title>Node4&#45;&gt;Node17</title>
<g id="a_edge44_Node000004_Node000017"><a xlink:title=" ">
<path fill="none" stroke="#63b8ff" d="M162.72,-291.96C196.65,-285.47 240.04,-277.18 277.1,-270.09"/>
<polygon fill="#63b8ff" stroke="#63b8ff" points="161.67,-288.6 152.51,-293.92 162.99,-295.47 161.67,-288.6"/>
</a>
</g>
</g>
<!-- Node18 -->
<g id="Node000018" class="node">
<title>Node18</title>
<g id="a_Node000018"><a xlink:href="classWolfstagInteractive_1_1ConvoCore_1_1ConvoCoreLanguageSettings.html" target="_top" xlink:title=" ">
<polygon fill="white" stroke="#666666" points="448,-222 266,-222 266,-192 448,-192 448,-222"/>
<text text-anchor="start" x="274" y="-210" font-family="Helvetica,sans-Serif" font-size="10.00">WolfstagInteractive.Convo</text>
<text text-anchor="middle" x="357" y="-199" font-family="Helvetica,sans-Serif" font-size="10.00">Core.ConvoCoreLanguageSettings</text>
</a>
</g>
</g>
<!-- Node4&#45;&gt;Node18 -->
<g id="edge45_Node000004_Node000018" class="edge">
<title>Node4&#45;&gt;Node18</title>
<g id="a_edge45_Node000004_Node000018"><a xlink:title=" ">
<path fill="none" stroke="#63b8ff" d="M128.97,-288.06C155.98,-271.83 201.67,-246.19 244,-231 253.45,-227.61 263.53,-224.62 273.63,-222.01"/>
<polygon fill="#63b8ff" stroke="#63b8ff" points="126.95,-285.19 120.22,-293.38 130.59,-291.17 126.95,-285.19"/>
</a>
</g>
</g>
<!-- Node19 -->
<g id="Node000019" class="node">
<title>Node19</title>
<g id="a_Node000019"><a xlink:href="classWolfstagInteractive_1_1ConvoCore_1_1ConvoCoreSettings.html" target="_top" xlink:title="Global runtime settings ScriptableObject for ConvoCore.">
<polygon fill="white" stroke="#666666" points="430,-174 284,-174 284,-144 430,-144 430,-174"/>
<text text-anchor="start" x="292" y="-162" font-family="Helvetica,sans-Serif" font-size="10.00">WolfstagInteractive.Convo</text>
<text text-anchor="middle" x="357" y="-151" font-family="Helvetica,sans-Serif" font-size="10.00">Core.ConvoCoreSettings</text>
</a>
</g>
</g>
<!-- Node4&#45;&gt;Node19 -->
<g id="edge46_Node000004_Node000019" class="edge">
<title>Node4&#45;&gt;Node19</title>
<g id="a_edge46_Node000004_Node000019"><a xlink:title=" ">
<path fill="none" stroke="#63b8ff" d="M119.65,-285.71C143.09,-259.24 191.71,-209.01 244,-183 256.37,-176.84 270.28,-172.26 283.98,-168.85"/>
<polygon fill="#63b8ff" stroke="#63b8ff" points="116.88,-283.56 112.96,-293.41 122.16,-288.16 116.88,-283.56"/>
</a>
</g>
</g>
<!-- Node20 -->
<g id="Node000020" class="node">
<title>Node20</title>
<g id="a_Node000020"><a xlink:href="classWolfstagInteractive_1_1ConvoCore_1_1SaveSystem_1_1ConvoCoreSaveManager.html" target="_top" xlink:title=" ">
<polygon fill="white" stroke="#666666" points="470,-126 244,-126 244,-96 470,-96 470,-126"/>
<text text-anchor="start" x="252" y="-114" font-family="Helvetica,sans-Serif" font-size="10.00">WolfstagInteractive.Convo</text>
<text text-anchor="middle" x="357" y="-103" font-family="Helvetica,sans-Serif" font-size="10.00">Core.SaveSystem.ConvoCoreSaveManager</text>
</a>
</g>
</g>
<!-- Node4&#45;&gt;Node20 -->
<g id="edge47_Node000004_Node000020" class="edge">
<title>Node4&#45;&gt;Node20</title>
<g id="a_edge47_Node000004_Node000020"><a xlink:title=" ">
<path fill="none" stroke="#63b8ff" d="M115.05,-283.84C134.72,-248.38 181.85,-172.71 244,-135 249.7,-131.54 255.82,-128.58 262.16,-126.04"/>
<polygon fill="#63b8ff" stroke="#63b8ff" points="111.73,-282.63 110.04,-293.09 117.88,-285.97 111.73,-282.63"/>
</a>
</g>
</g>
<!-- Node21 -->
<g id="Node000021" class="node">
<title>Node21</title>
<g id="a_Node000021"><a xlink:href="classWolfstagInteractive_1_1ConvoCore_1_1SaveSystem_1_1ConvoSettingsState.html" target="_top" xlink:title="ScriptableObject that bridges ConvoCoreLanguageManager with the save system.">
<polygon fill="white" stroke="#666666" points="458,-78 256,-78 256,-48 458,-48 458,-78"/>
<text text-anchor="start" x="264" y="-66" font-family="Helvetica,sans-Serif" font-size="10.00">WolfstagInteractive.Convo</text>
<text text-anchor="middle" x="357" y="-55" font-family="Helvetica,sans-Serif" font-size="10.00">Core.SaveSystem.ConvoSettingsState</text>
</a>
</g>
</g>
<!-- Node4&#45;&gt;Node21 -->
<g id="edge48_Node000004_Node000021" class="edge">
<title>Node4&#45;&gt;Node21</title>
<g id="a_edge48_Node000004_Node000021"><a xlink:title=" ">
<path fill="none" stroke="#63b8ff" d="M111.5,-283.83C127.05,-241.08 170.63,-137.74 244,-87 248.99,-83.55 254.38,-80.58 260,-78.03"/>
<polygon fill="#63b8ff" stroke="#63b8ff" points="108.18,-282.73 108.15,-293.32 114.78,-285.05 108.18,-282.73"/>
</a>
</g>
</g>
<!-- Node22 -->
<g id="Node000022" class="node">
<title>Node22</title>
<g id="a_Node000022"><a xlink:href="classWolfstagInteractive_1_1ConvoCore_1_1SaveSystem_1_1ConvoVariableStore.html" target="_top" xlink:title=" ">
<polygon fill="white" stroke="#666666" points="458,-30 256,-30 256,0 458,0 458,-30"/>
<text text-anchor="start" x="264" y="-18" font-family="Helvetica,sans-Serif" font-size="10.00">WolfstagInteractive.Convo</text>
<text text-anchor="middle" x="357" y="-7" font-family="Helvetica,sans-Serif" font-size="10.00">Core.SaveSystem.ConvoVariableStore</text>
</a>
</g>
</g>
<!-- Node4&#45;&gt;Node22 -->
<g id="edge49_Node000004_Node000022" class="edge">
<title>Node4&#45;&gt;Node22</title>
<g id="a_edge49_Node000004_Node000022"><a xlink:title=" ">
<path fill="none" stroke="#63b8ff" d="M109.27,-283.4C121.14,-233.89 159.37,-103.16 244,-39 248.52,-35.58 253.42,-32.62 258.56,-30.06"/>
<polygon fill="#63b8ff" stroke="#63b8ff" points="105.8,-282.89 106.97,-293.42 112.62,-284.46 105.8,-282.89"/>
</a>
</g>
</g>
<!-- Node6 -->
<g id="Node000006" class="node">
<title>Node6</title>
<g id="a_Node000006"><a xlink:href="classWolfstagInteractive_1_1ConvoCore_1_1ConvoCoreDialogueLineActionDialogueLineActionGroup.html" target="_top" xlink:title=" ">
<polygon fill="white" stroke="#666666" points="710,-693.5 520,-693.5 520,-652.5 710,-652.5 710,-693.5"/>
<text text-anchor="start" x="528" y="-681.5" font-family="Helvetica,sans-Serif" font-size="10.00">WolfstagInteractive.Convo</text>
<text text-anchor="start" x="528" y="-670.5" font-family="Helvetica,sans-Serif" font-size="10.00">Core.ConvoCoreDialogueLineAction</text>
<text text-anchor="middle" x="615" y="-659.5" font-family="Helvetica,sans-Serif" font-size="10.00">DialogueLineActionGroup</text>
</a>
</g>
</g>
<!-- Node5&#45;&gt;Node6 -->
<g id="edge32_Node000005_Node000006" class="edge">
<title>Node5&#45;&gt;Node6</title>
<g id="a_edge32_Node000005_Node000006"><a xlink:title=" ">
<path fill="none" stroke="#63b8ff" d="M387.47,-576.11C416.43,-596.03 462.49,-625.51 506,-644 513.24,-647.08 520.89,-649.9 528.64,-652.49"/>
<polygon fill="#63b8ff" stroke="#63b8ff" points="389.26,-573.1 379.05,-570.26 385.26,-578.84 389.26,-573.1"/>
</a>
</g>
</g>
<!-- Node7 -->
<g id="Node000007" class="node">
<title>Node7</title>
<g id="a_Node000007"><a xlink:href="classWolfstagInteractive_1_1ConvoCore_1_1ConvoCoreDialogueLineActionEnableDisableGameObject.html" target="_top" xlink:title=" ">
<polygon fill="white" stroke="#666666" points="710,-634.5 520,-634.5 520,-593.5 710,-593.5 710,-634.5"/>
<text text-anchor="start" x="528" y="-622.5" font-family="Helvetica,sans-Serif" font-size="10.00">WolfstagInteractive.Convo</text>
<text text-anchor="start" x="528" y="-611.5" font-family="Helvetica,sans-Serif" font-size="10.00">Core.ConvoCoreDialogueLineAction</text>
<text text-anchor="middle" x="615" y="-600.5" font-family="Helvetica,sans-Serif" font-size="10.00">EnableDisableGameObject</text>
</a>
</g>
</g>
<!-- Node5&#45;&gt;Node7 -->
<g id="edge33_Node000005_Node000007" class="edge">
<title>Node5&#45;&gt;Node7</title>
<g id="a_edge33_Node000005_Node000007"><a xlink:title=" ">
<path fill="none" stroke="#63b8ff" d="M433.21,-572.33C461.89,-578.94 494.85,-586.54 524.71,-593.42"/>
<polygon fill="#63b8ff" stroke="#63b8ff" points="433.79,-568.88 423.26,-570.04 432.22,-575.7 433.79,-568.88"/>
</a>
</g>
</g>
<!-- Node8 -->
<g id="Node000008" class="node">
<title>Node8</title>
<g id="a_Node000008"><a xlink:href="classWolfstagInteractive_1_1ConvoCore_1_1ConvoCoreDialogueLineActionFadeInOutSpriteRenderer.html" target="_top" xlink:title=" ">
<polygon fill="white" stroke="#666666" points="710,-575.5 520,-575.5 520,-534.5 710,-534.5 710,-575.5"/>
<text text-anchor="start" x="528" y="-563.5" font-family="Helvetica,sans-Serif" font-size="10.00">WolfstagInteractive.Convo</text>
<text text-anchor="start" x="528" y="-552.5" font-family="Helvetica,sans-Serif" font-size="10.00">Core.ConvoCoreDialogueLineAction</text>
<text text-anchor="middle" x="615" y="-541.5" font-family="Helvetica,sans-Serif" font-size="10.00">FadeInOutSpriteRenderer</text>
</a>
</g>
</g>
<!-- Node5&#45;&gt;Node8 -->
<g id="edge34_Node000005_Node000008" class="edge">
<title>Node5&#45;&gt;Node8</title>
<g id="a_edge34_Node000005_Node000008"><a xlink:title=" ">
<path fill="none" stroke="#63b8ff" d="M447.79,-555C471.04,-555 496.15,-555 519.63,-555"/>
<polygon fill="#63b8ff" stroke="#63b8ff" points="447.6,-551.5 437.6,-555 447.6,-558.5 447.6,-551.5"/>
</a>
</g>
</g>
<!-- Node9 -->
<g id="Node000009" class="node">
<title>Node9</title>
<g id="a_Node000009"><a xlink:href="classWolfstagInteractive_1_1ConvoCore_1_1ConvoCoreDialogueLineActionInstantiatePrefab.html" target="_top" xlink:title=" ">
<polygon fill="white" stroke="#666666" points="710,-516.5 520,-516.5 520,-475.5 710,-475.5 710,-516.5"/>
<text text-anchor="start" x="528" y="-504.5" font-family="Helvetica,sans-Serif" font-size="10.00">WolfstagInteractive.Convo</text>
<text text-anchor="start" x="528" y="-493.5" font-family="Helvetica,sans-Serif" font-size="10.00">Core.ConvoCoreDialogueLineAction</text>
<text text-anchor="middle" x="615" y="-482.5" font-family="Helvetica,sans-Serif" font-size="10.00">InstantiatePrefab</text>
</a>
</g>
</g>
<!-- Node5&#45;&gt;Node9 -->
<g id="edge35_Node000005_Node000009" class="edge">
<title>Node5&#45;&gt;Node9</title>
<g id="a_edge35_Node000005_Node000009"><a xlink:title=" ">
<path fill="none" stroke="#63b8ff" d="M439.32,-537.85C449.66,-535.59 460.08,-533.27 470,-531 489.81,-526.47 511.11,-521.4 531.09,-516.56"/>
<polygon fill="#63b8ff" stroke="#63b8ff" points="438.49,-534.45 429.46,-539.99 439.98,-541.29 438.49,-534.45"/>
</a>
</g>
</g>
<!-- Node10 -->
<g id="Node000010" class="node">
<title>Node10</title>
<g id="a_Node000010"><a xlink:href="classWolfstagInteractive_1_1ConvoCore_1_1ConvoCoreDialogueLineActionModifyTransform.html" target="_top" xlink:title=" ">
<polygon fill="white" stroke="#666666" points="710,-457.5 520,-457.5 520,-416.5 710,-416.5 710,-457.5"/>
<text text-anchor="start" x="528" y="-445.5" font-family="Helvetica,sans-Serif" font-size="10.00">WolfstagInteractive.Convo</text>
<text text-anchor="start" x="528" y="-434.5" font-family="Helvetica,sans-Serif" font-size="10.00">Core.ConvoCoreDialogueLineAction</text>
<text text-anchor="middle" x="615" y="-423.5" font-family="Helvetica,sans-Serif" font-size="10.00">ModifyTransform</text>
</a>
</g>
</g>
<!-- Node5&#45;&gt;Node10 -->
<g id="edge36_Node000005_Node000010" class="edge">
<title>Node5&#45;&gt;Node10</title>
<g id="a_edge36_Node000005_Node000010"><a xlink:title=" ">
<path fill="none" stroke="#63b8ff" d="M447.21,-543.36C455.34,-540.14 463.09,-536.09 470,-531 496.28,-511.65 480.31,-487.13 506,-467 510.52,-463.46 515.43,-460.34 520.58,-457.58"/>
<polygon fill="#63b8ff" stroke="#63b8ff" points="445.8,-540.15 437.53,-546.78 448.13,-546.75 445.8,-540.15"/>
</a>
</g>
</g>
<!-- Node11 -->
<g id="Node000011" class="node">
<title>Node11</title>
<g id="a_Node000011"><a xlink:href="classWolfstagInteractive_1_1ConvoCore_1_1ConvoCoreDialogueLineActionPlayAudioClip.html" target="_top" xlink:title=" ">
<polygon fill="white" stroke="#666666" points="710,-398.5 520,-398.5 520,-357.5 710,-357.5 710,-398.5"/>
<text text-anchor="start" x="528" y="-386.5" font-family="Helvetica,sans-Serif" font-size="10.00">WolfstagInteractive.Convo</text>
<text text-anchor="start" x="528" y="-375.5" font-family="Helvetica,sans-Serif" font-size="10.00">Core.ConvoCoreDialogueLineAction</text>
<text text-anchor="middle" x="615" y="-364.5" font-family="Helvetica,sans-Serif" font-size="10.00">PlayAudioClip</text>
</a>
</g>
</g>
<!-- Node5&#45;&gt;Node11 -->
<g id="edge37_Node000005_Node000011" class="edge">
<title>Node5&#45;&gt;Node11</title>
<g id="a_edge37_Node000005_Node000011"><a xlink:title=" ">
<path fill="none" stroke="#63b8ff" d="M447.26,-545.49C455.6,-541.88 463.39,-537.15 470,-531 512,-491.9 465.01,-447.17 506,-407 510.16,-402.92 514.83,-399.4 519.83,-396.37"/>
<polygon fill="#63b8ff" stroke="#63b8ff" points="445.77,-542.31 437.64,-549.11 448.23,-548.86 445.77,-542.31"/>
</a>
</g>
</g>
</g>
</svg>
