<?xml version="1.0" encoding="UTF-8" standalone="no"?>
<!DOCTYPE svg PUBLIC "-//W3C//DTD SVG 1.1//EN"
 "http://www.w3.org/Graphics/SVG/1.1/DTD/svg11.dtd">
<!-- Generated by graphviz version 2.43.0 (0)
 -->
<!-- Title: Graphical Class Hierarchy Pages: 1 -->
<svg width="670pt" height="415pt"
 viewBox="0.00 0.00 670.00 414.50" xmlns="http://www.w3.org/2000/svg" xmlns:xlink="http://www.w3.org/1999/xlink">
<g id="graph0" class="graph" transform="scale(1 1) rotate(0) translate(4 410.5)">
<title>Graphical Class Hierarchy</title>
<!-- Node0 -->
<g id="Node000000" class="node">
<title>Node0</title>
<g id="a_Node000000"><a xlink:href="interfaceWolfstagInteractive_1_1ConvoCore_1_1IConvoCoreCharacterDisplay.html" target="_top" xlink:title=" ">
<polygon fill="white" stroke="#666666" points="182,-401 0,-401 0,-371 182,-371 182,-401"/>
<text text-anchor="start" x="8" y="-389" font-family="Helvetica,sans-Serif" font-size="10.00">WolfstagInteractive.Convo</text>
<text text-anchor="middle" x="91" y="-378" font-family="Helvetica,sans-Serif" font-size="10.00">Core.IConvoCoreCharacterDisplay</text>
</a>
</g>
</g>
<!-- Node1 -->
<g id="Node000001" class="node">
<title>Node1</title>
<g id="a_Node000001"><a xlink:href="classWolfstagInteractive_1_1ConvoCore_1_1ConvoCoreCharacterDisplayBase.html" target="_top" xlink:title="Generic base class for all prefab&#45;based character displays.">
<polygon fill="white" stroke="#666666" points="432.5,-401 229.5,-401 229.5,-371 432.5,-371 432.5,-401"/>
<text text-anchor="start" x="237.5" y="-389" font-family="Helvetica,sans-Serif" font-size="10.00">WolfstagInteractive.Convo</text>
<text text-anchor="middle" x="331" y="-378" font-family="Helvetica,sans-Serif" font-size="10.00">Core.ConvoCoreCharacterDisplayBase</text>
</a>
</g>
</g>
<!-- Node0&#45;&gt;Node1 -->
<g id="edge5_Node000000_Node000001" class="edge">
<title>Node0&#45;&gt;Node1</title>
<g id="a_edge5_Node000000_Node000001"><a xlink:title=" ">
<path fill="none" stroke="#63b8ff" d="M192.5,-386C204.71,-386 217.19,-386 229.4,-386"/>
<polygon fill="#63b8ff" stroke="#63b8ff" points="192.32,-382.5 182.32,-386 192.32,-389.5 192.32,-382.5"/>
</a>
</g>
</g>
<!-- Node2 -->
<g id="Node000002" class="node">
<title>Node2</title>
<g id="a_Node000002"><a xlink:href="classWolfstagInteractive_1_1ConvoCore_1_1SimplePrefabRepresentationDisplay.html" target="_top" xlink:title=" ">
<polygon fill="white" stroke="#666666" points="662,-406.5 480,-406.5 480,-365.5 662,-365.5 662,-406.5"/>
<text text-anchor="start" x="488" y="-394.5" font-family="Helvetica,sans-Serif" font-size="10.00">WolfstagInteractive.Convo</text>
<text text-anchor="start" x="488" y="-383.5" font-family="Helvetica,sans-Serif" font-size="10.00">Core.SimplePrefabRepresentation</text>
<text text-anchor="middle" x="571" y="-372.5" font-family="Helvetica,sans-Serif" font-size="10.00">Display</text>
</a>
</g>
</g>
<!-- Node1&#45;&gt;Node2 -->
<g id="edge6_Node000001_Node000002" class="edge">
<title>Node1&#45;&gt;Node2</title>
<g id="a_edge6_Node000001_Node000002"><a xlink:title=" ">
<path fill="none" stroke="#63b8ff" d="M442.59,-386C455.11,-386 467.76,-386 479.97,-386"/>
<polygon fill="#63b8ff" stroke="#63b8ff" points="442.59,-382.5 432.59,-386 442.59,-389.5 442.59,-382.5"/>
</a>
</g>
</g>
<!-- Node5 -->
<g id="Node000005" class="node">
<title>Node5</title>
<g id="a_Node000005"><a xlink:href="interfaceWolfstagInteractive_1_1ConvoCore_1_1IConvoCoreRunner.html" target="_top" xlink:title=" ">
<polygon fill="white" stroke="#666666" points="164,-353 18,-353 18,-323 164,-323 164,-353"/>
<text text-anchor="start" x="26" y="-341" font-family="Helvetica,sans-Serif" font-size="10.00">WolfstagInteractive.Convo</text>
<text text-anchor="middle" x="91" y="-330" font-family="Helvetica,sans-Serif" font-size="10.00">Core.IConvoCoreRunner</text>
</a>
</g>
</g>
<!-- Node4 -->
<g id="Node000004" class="node">
<title>Node4</title>
<g id="a_Node000004"><a xlink:href="classWolfstagInteractive_1_1ConvoCore_1_1ConvoCore.html" target="_top" xlink:title=" ">
<polygon fill="white" stroke="#666666" points="404,-353 258,-353 258,-323 404,-323 404,-353"/>
<text text-anchor="start" x="266" y="-341" font-family="Helvetica,sans-Serif" font-size="10.00">WolfstagInteractive.Convo</text>
<text text-anchor="middle" x="331" y="-330" font-family="Helvetica,sans-Serif" font-size="10.00">Core.ConvoCore</text>
</a>
</g>
</g>
<!-- Node5&#45;&gt;Node4 -->
<g id="edge7_Node000005_Node000004" class="edge">
<title>Node5&#45;&gt;Node4</title>
<g id="a_edge7_Node000005_Node000004"><a xlink:title=" ">
<path fill="none" stroke="#63b8ff" d="M174.31,-338C201.46,-338 231.44,-338 257.78,-338"/>
<polygon fill="#63b8ff" stroke="#63b8ff" points="174.05,-334.5 164.05,-338 174.05,-341.5 174.05,-334.5"/>
</a>
</g>
</g>
<!-- Node13 -->
<g id="Node000013" class="node">
<title>Node13</title>
<g id="a_Node000013"><a xlink:href="interfaceWolfstagInteractive_1_1ConvoCore_1_1IConvoStartContextProvider.html" target="_top" xlink:title="Implement on a component alongside ConvoCore to control how a conversation is started.">
<polygon fill="white" stroke="#666666" points="180,-299 2,-299 2,-269 180,-269 180,-299"/>
<text text-anchor="start" x="10" y="-287" font-family="Helvetica,sans-Serif" font-size="10.00">WolfstagInteractive.Convo</text>
<text text-anchor="middle" x="91" y="-276" font-family="Helvetica,sans-Serif" font-size="10.00">Core.IConvoStartContextProvider</text>
</a>
</g>
</g>
<!-- Node12 -->
<g id="Node000012" class="node">
<title>Node12</title>
<g id="a_Node000012"><a xlink:href="classWolfstagInteractive_1_1ConvoCore_1_1SaveSystem_1_1ConvoCoreConversationSaveManager.html" target="_top" xlink:title="Attach alongside a ConvoCore component to persist and restore conversation state (active line,...">
<polygon fill="white" stroke="#666666" points="443,-304.5 219,-304.5 219,-263.5 443,-263.5 443,-304.5"/>
<text text-anchor="start" x="227" y="-292.5" font-family="Helvetica,sans-Serif" font-size="10.00">WolfstagInteractive.Convo</text>
<text text-anchor="start" x="227" y="-281.5" font-family="Helvetica,sans-Serif" font-size="10.00">Core.SaveSystem.ConvoCoreConversation</text>
<text text-anchor="middle" x="331" y="-270.5" font-family="Helvetica,sans-Serif" font-size="10.00">SaveManager</text>
</a>
</g>
</g>
<!-- Node13&#45;&gt;Node12 -->
<g id="edge8_Node000013_Node000012" class="edge">
<title>Node13&#45;&gt;Node12</title>
<g id="a_edge8_Node000013_Node000012"><a xlink:title=" ">
<path fill="none" stroke="#63b8ff" d="M190.39,-284C199.78,-284 209.35,-284 218.84,-284"/>
<polygon fill="#63b8ff" stroke="#63b8ff" points="190.28,-280.5 180.28,-284 190.28,-287.5 190.28,-280.5"/>
</a>
</g>
</g>
<!-- Node11 -->
<g id="Node000011" class="node">
<title>Node11</title>
<g id="a_Node000011"><a xlink:href="interfaceWolfstagInteractive_1_1ConvoCore_1_1IUIFoundation.html" target="_top" xlink:title=" ">
<polygon fill="white" stroke="#666666" points="164,-30 18,-30 18,0 164,0 164,-30"/>
<text text-anchor="start" x="26" y="-18" font-family="Helvetica,sans-Serif" font-size="10.00">WolfstagInteractive.Convo</text>
<text text-anchor="middle" x="91" y="-7" font-family="Helvetica,sans-Serif" font-size="10.00">Core.IUIFoundation</text>
</a>
</g>
</g>
<!-- Node9 -->
<g id="Node000009" class="node">
<title>Node9</title>
<g id="a_Node000009"><a xlink:href="classWolfstagInteractive_1_1ConvoCore_1_1ConvoCoreUIFoundation.html" target="_top" xlink:title="Used as a basis of any UI that can be assigned in the inspector that includes all the base functions ...">
<polygon fill="white" stroke="#666666" points="411,-30 251,-30 251,0 411,0 411,-30"/>
<text text-anchor="start" x="259" y="-18" font-family="Helvetica,sans-Serif" font-size="10.00">WolfstagInteractive.Convo</text>
<text text-anchor="middle" x="331" y="-7" font-family="Helvetica,sans-Serif" font-size="10.00">Core.ConvoCoreUIFoundation</text>
</a>
</g>
</g>
<!-- Node11&#45;&gt;Node9 -->
<g id="edge9_Node000011_Node000009" class="edge">
<title>Node11&#45;&gt;Node9</title>
<g id="a_edge9_Node000011_Node000009"><a xlink:title=" ">
<path fill="none" stroke="#63b8ff" d="M174.15,-15C198.95,-15 226.11,-15 250.72,-15"/>
<polygon fill="#63b8ff" stroke="#63b8ff" points="174.05,-11.5 164.05,-15 174.05,-18.5 174.05,-11.5"/>
</a>
</g>
</g>
<!-- Node10 -->
<g id="Node000010" class="node">
<title>Node10</title>
<g id="a_Node000010"><a xlink:href="classWolfstagInteractive_1_1ConvoCore_1_1ConvoCoreSampleUI.html" target="_top" xlink:title=" ">
<polygon fill="white" stroke="#666666" points="644,-30 498,-30 498,0 644,0 644,-30"/>
<text text-anchor="start" x="506" y="-18" font-family="Helvetica,sans-Serif" font-size="10.00">WolfstagInteractive.Convo</text>
<text text-anchor="middle" x="571" y="-7" font-family="Helvetica,sans-Serif" font-size="10.00">Core.ConvoCoreSampleUI</text>
</a>
</g>
</g>
<!-- Node9&#45;&gt;Node10 -->
<g id="edge10_Node000009_Node000010" class="edge">
<title>Node9&#45;&gt;Node10</title>
<g id="a_edge10_Node000009_Node000010"><a xlink:title=" ">
<path fill="none" stroke="#63b8ff" d="M421.55,-15C446.77,-15 473.86,-15 497.91,-15"/>
<polygon fill="#63b8ff" stroke="#63b8ff" points="421.25,-11.5 411.25,-15 421.25,-18.5 421.25,-11.5"/>
</a>
</g>
</g>
<!-- Node3 -->
<g id="Node000003" class="node">
<title>Node3</title>
<g id="a_Node000003"><a xlink:title=" ">
<polygon fill="#e0e0e0" stroke="#999999" points="137.5,-215.5 44.5,-215.5 44.5,-196.5 137.5,-196.5 137.5,-215.5"/>
<text text-anchor="middle" x="91" y="-203.5" font-family="Helvetica,sans-Serif" font-size="10.00">MonoBehaviour</text>
</a>
</g>
</g>
<!-- Node3&#45;&gt;Node1 -->
<g id="edge12_Node000003_Node000001" class="edge">
<title>Node3&#45;&gt;Node1</title>
<g id="a_edge12_Node000003_Node000001"><a xlink:title=" ">
<path fill="none" stroke="#63b8ff" d="M126.55,-219.75C145.23,-228.73 167.41,-242.13 182,-260 212.41,-297.23 181.9,-330.25 218,-362 221.88,-365.41 226.13,-368.38 230.63,-370.96"/>
<polygon fill="#63b8ff" stroke="#63b8ff" points="127.98,-216.55 117.43,-215.57 125.07,-222.92 127.98,-216.55"/>
</a>
</g>
</g>
<!-- Node3&#45;&gt;Node4 -->
<g id="edge11_Node000003_Node000004" class="edge">
<title>Node3&#45;&gt;Node4</title>
<g id="a_edge11_Node000003_Node000004"><a xlink:title=" ">
<path fill="none" stroke="#63b8ff" d="M123,-220.24C141.51,-229.74 164.71,-243.51 182,-260 202.88,-279.91 194.14,-297.79 218,-314 229.84,-322.05 243.88,-327.47 257.95,-331.1"/>
<polygon fill="#63b8ff" stroke="#63b8ff" points="124.32,-216.98 113.81,-215.66 121.2,-223.25 124.32,-216.98"/>
</a>
</g>
</g>
<!-- Node3&#45;&gt;Node12 -->
<g id="edge17_Node000003_Node000012" class="edge">
<title>Node3&#45;&gt;Node12</title>
<g id="a_edge17_Node000003_Node000012"><a xlink:title=" ">
<path fill="none" stroke="#63b8ff" d="M124.42,-219.4C149.68,-229.58 185.75,-243.57 218,-254 228.06,-257.25 238.7,-260.43 249.26,-263.43"/>
<polygon fill="#63b8ff" stroke="#63b8ff" points="125.55,-216.08 114.97,-215.56 122.92,-222.57 125.55,-216.08"/>
</a>
</g>
</g>
<!-- Node3&#45;&gt;Node9 -->
<g id="edge16_Node000003_Node000009" class="edge">
<title>Node3&#45;&gt;Node9</title>
<g id="a_edge16_Node000003_Node000009"><a xlink:title=" ">
<path fill="none" stroke="#63b8ff" d="M100.65,-186.96C117.71,-151.72 159.19,-76.51 218,-39 227.98,-32.64 239.36,-27.94 250.97,-24.47"/>
<polygon fill="#63b8ff" stroke="#63b8ff" points="97.42,-185.62 96.32,-196.15 103.75,-188.6 97.42,-185.62"/>
</a>
</g>
</g>
<!-- Node6 -->
<g id="Node000006" class="node">
<title>Node6</title>
<g id="a_Node000006"><a xlink:href="classWolfstagInteractive_1_1ConvoCore_1_1ConvoCoreDialogueHistoryUI.html" target="_top" xlink:title=" ">
<polygon fill="white" stroke="#666666" points="423.5,-245 238.5,-245 238.5,-215 423.5,-215 423.5,-245"/>
<text text-anchor="start" x="246.5" y="-233" font-family="Helvetica,sans-Serif" font-size="10.00">WolfstagInteractive.Convo</text>
<text text-anchor="middle" x="331" y="-222" font-family="Helvetica,sans-Serif" font-size="10.00">Core.ConvoCoreDialogueHistoryUI</text>
</a>
</g>
</g>
<!-- Node3&#45;&gt;Node6 -->
<g id="edge13_Node000003_Node000006" class="edge">
<title>Node3&#45;&gt;Node6</title>
<g id="a_edge13_Node000003_Node000006"><a xlink:title=" ">
<path fill="none" stroke="#63b8ff" d="M147.62,-211.61C174.58,-214.33 207.67,-217.66 238.23,-220.75"/>
<polygon fill="#63b8ff" stroke="#63b8ff" points="147.91,-208.12 137.61,-210.6 147.21,-215.08 147.91,-208.12"/>
</a>
</g>
</g>
<!-- Node7 -->
<g id="Node000007" class="node">
<title>Node7</title>
<g id="a_Node000007"><a xlink:href="classWolfstagInteractive_1_1ConvoCore_1_1ConvoCorePrefabPool.html" target="_top" xlink:title=" ">
<polygon fill="white" stroke="#666666" points="405,-197 257,-197 257,-167 405,-167 405,-197"/>
<text text-anchor="start" x="265" y="-185" font-family="Helvetica,sans-Serif" font-size="10.00">WolfstagInteractive.Convo</text>
<text text-anchor="middle" x="331" y="-174" font-family="Helvetica,sans-Serif" font-size="10.00">Core.ConvoCorePrefabPool</text>
</a>
</g>
</g>
<!-- Node3&#45;&gt;Node7 -->
<g id="edge14_Node000003_Node000007" class="edge">
<title>Node3&#45;&gt;Node7</title>
<g id="a_edge14_Node000003_Node000007"><a xlink:title=" ">
<path fill="none" stroke="#63b8ff" d="M147.84,-200.37C180.39,-197.09 221.81,-192.91 256.93,-189.37"/>
<polygon fill="#63b8ff" stroke="#63b8ff" points="147.21,-196.92 137.61,-201.4 147.91,-203.88 147.21,-196.92"/>
</a>
</g>
</g>
<!-- Node8 -->
<g id="Node000008" class="node">
<title>Node8</title>
<g id="a_Node000008"><a xlink:href="classWolfstagInteractive_1_1ConvoCore_1_1ConvoCorePrefabRepresentationSpawner.html" target="_top" xlink:title=" ">
<polygon fill="white" stroke="#666666" points="431.5,-148.5 230.5,-148.5 230.5,-107.5 431.5,-107.5 431.5,-148.5"/>
<text text-anchor="start" x="238.5" y="-136.5" font-family="Helvetica,sans-Serif" font-size="10.00">WolfstagInteractive.Convo</text>
<text text-anchor="start" x="238.5" y="-125.5" font-family="Helvetica,sans-Serif" font-size="10.00">Core.ConvoCorePrefabRepresentation</text>
<text text-anchor="middle" x="331" y="-114.5" font-family="Helvetica,sans-Serif" font-size="10.00">Spawner</text>
</a>
</g>
</g>
<!-- Node3&#45;&gt;Node8 -->
<g id="edge15_Node000003_Node000008" class="edge">
<title>Node3&#45;&gt;Node8</title>
<g id="a_edge15_Node000003_Node000008"><a xlink:title=" ">
<path fill="none" stroke="#63b8ff" d="M124.42,-192.6C149.68,-182.42 185.75,-168.43 218,-158 228.06,-154.75 238.7,-151.57 249.26,-148.57"/>
<polygon fill="#63b8ff" stroke="#63b8ff" points="122.92,-189.43 114.97,-196.44 125.55,-195.92 122.92,-189.43"/>
</a>
</g>
</g>
<!-- Node14 -->
<g id="Node000014" class="node">
<title>Node14</title>
<g id="a_Node000014"><a xlink:href="classWolfstagInteractive_1_1ConvoCore_1_1SaveSystem_1_1ConvoCoreSaveManagerBootstrapper.html" target="_top" xlink:title=" ">
<polygon fill="white" stroke="#666666" points="444,-89.5 218,-89.5 218,-48.5 444,-48.5 444,-89.5"/>
<text text-anchor="start" x="226" y="-77.5" font-family="Helvetica,sans-Serif" font-size="10.00">WolfstagInteractive.Convo</text>
<text text-anchor="start" x="226" y="-66.5" font-family="Helvetica,sans-Serif" font-size="10.00">Core.SaveSystem.ConvoCoreSaveManager</text>
<text text-anchor="middle" x="331" y="-55.5" font-family="Helvetica,sans-Serif" font-size="10.00">Bootstrapper</text>
</a>
</g>
</g>
<!-- Node3&#45;&gt;Node14 -->
<g id="edge18_Node000003_Node000014" class="edge">
<title>Node3&#45;&gt;Node14</title>
<g id="a_edge18_Node000003_Node000014"><a xlink:title=" ">
<path fill="none" stroke="#63b8ff" d="M107.3,-188.64C129.37,-164.68 172.53,-121.73 218,-98 223.97,-94.89 230.29,-92.09 236.77,-89.59"/>
<polygon fill="#63b8ff" stroke="#63b8ff" points="104.51,-186.5 100.4,-196.27 109.7,-191.2 104.51,-186.5"/>
</a>
</g>
</g>
</g>
</svg>
