<?xml version="1.0" encoding="UTF-8" standalone="no"?>
<!DOCTYPE svg PUBLIC "-//W3C//DTD SVG 1.1//EN"
 "http://www.w3.org/Graphics/SVG/1.1/DTD/svg11.dtd">
<!-- Generated by graphviz version 2.43.0 (0)
 -->
<!-- Title: Graphical Class Hierarchy Pages: 1 -->
<svg width="953pt" height="957pt"
 viewBox="0.00 0.00 953.00 957.00" xmlns="http://www.w3.org/2000/svg" xmlns:xlink="http://www.w3.org/1999/xlink">
<g id="graph0" class="graph" transform="scale(1 1) rotate(0) translate(4 953)">
<title>Graphical Class Hierarchy</title>
<!-- Node0 -->
<g id="Node000000" class="node">
<title>Node0</title>
<g id="a_Node000000"><a xlink:href="interfaceWolfstagInteractive_1_1ConvoCore_1_1IEditorPreviewableRepresentation.html" target="_top" xlink:title=" ">
<polygon fill="white" stroke="#666666" points="208,-901 0,-901 0,-871 208,-871 208,-901"/>
<text text-anchor="start" x="8" y="-889" font-family="Helvetica,sans-Serif" font-size="10.00">WolfstagInteractive.Convo</text>
<text text-anchor="middle" x="104" y="-878" font-family="Helvetica,sans-Serif" font-size="10.00">Core.IEditorPreviewableRepresentation</text>
</a>
</g>
</g>
<!-- Node1 -->
<g id="Node000001" class="node">
<title>Node1</title>
<g id="a_Node000001"><a xlink:href="classWolfstagInteractive_1_1ConvoCore_1_1CharacterRepresentationBase.html" target="_top" xlink:title="Abstract ScriptableObject base class for all character visual representations.">
<polygon fill="white" stroke="#666666" points="451,-901 263,-901 263,-871 451,-871 451,-901"/>
<text text-anchor="start" x="271" y="-889" font-family="Helvetica,sans-Serif" font-size="10.00">WolfstagInteractive.Convo</text>
<text text-anchor="middle" x="357" y="-878" font-family="Helvetica,sans-Serif" font-size="10.00">Core.CharacterRepresentationBase</text>
</a>
</g>
</g>
<!-- Node0&#45;&gt;Node1 -->
<g id="edge41_Node000000_Node000001" class="edge">
<title>Node0&#45;&gt;Node1</title>
<g id="a_edge41_Node000000_Node000001"><a xlink:title=" ">
<path fill="none" stroke="#63b8ff" d="M218.43,-886C233.3,-886 248.4,-886 262.88,-886"/>
<polygon fill="#63b8ff" stroke="#63b8ff" points="218.18,-882.5 208.18,-886 218.18,-889.5 218.18,-882.5"/>
</a>
</g>
</g>
<!-- Node2 -->
<g id="Node000002" class="node">
<title>Node2</title>
<g id="a_Node000002"><a xlink:href="classWolfstagInteractive_1_1ConvoCore_1_1PrefabCharacterRepresentationData.html" target="_top" xlink:title="Defines how a prefab&#45;based character should be sourced and displayed by ConvoCore.">
<polygon fill="white" stroke="#666666" points="724,-949 506,-949 506,-919 724,-919 724,-949"/>
<text text-anchor="start" x="514" y="-937" font-family="Helvetica,sans-Serif" font-size="10.00">WolfstagInteractive.Convo</text>
<text text-anchor="middle" x="615" y="-926" font-family="Helvetica,sans-Serif" font-size="10.00">Core.PrefabCharacterRepresentationData</text>
</a>
</g>
</g>
<!-- Node1&#45;&gt;Node2 -->
<g id="edge42_Node000001_Node000002" class="edge">
<title>Node1&#45;&gt;Node2</title>
<g id="a_edge42_Node000001_Node000002"><a xlink:title=" ">
<path fill="none" stroke="#63b8ff" d="M448.45,-902.96C476.34,-908.19 506.85,-913.91 533.99,-919"/>
<polygon fill="#63b8ff" stroke="#63b8ff" points="448.77,-899.46 438.3,-901.06 447.48,-906.34 448.77,-899.46"/>
</a>
</g>
</g>
<!-- Node3 -->
<g id="Node000003" class="node">
<title>Node3</title>
<g id="a_Node000003"><a xlink:href="classWolfstagInteractive_1_1ConvoCore_1_1SpriteCharacterRepresentationData.html" target="_top" xlink:title=" ">
<polygon fill="white" stroke="#666666" points="722.5,-901 507.5,-901 507.5,-871 722.5,-871 722.5,-901"/>
<text text-anchor="start" x="515.5" y="-889" font-family="Helvetica,sans-Serif" font-size="10.00">WolfstagInteractive.Convo</text>
<text text-anchor="middle" x="615" y="-878" font-family="Helvetica,sans-Serif" font-size="10.00">Core.SpriteCharacterRepresentationData</text>
</a>
</g>
</g>
<!-- Node1&#45;&gt;Node3 -->
<g id="edge43_Node000001_Node000003" class="edge">
<title>Node1&#45;&gt;Node3</title>
<g id="a_edge43_Node000001_Node000003"><a xlink:title=" ">
<path fill="none" stroke="#63b8ff" d="M461.54,-886C476.67,-886 492.28,-886 507.47,-886"/>
<polygon fill="#63b8ff" stroke="#63b8ff" points="461.15,-882.5 451.15,-886 461.15,-889.5 461.15,-882.5"/>
</a>
</g>
</g>
<!-- Node4 -->
<g id="Node000004" class="node">
<title>Node4</title>
<g id="a_Node000004"><a xlink:title=" ">
<polygon fill="#e0e0e0" stroke="#999999" points="152.5,-339.5 55.5,-339.5 55.5,-320.5 152.5,-320.5 152.5,-339.5"/>
<text text-anchor="middle" x="104" y="-327.5" font-family="Helvetica,sans-Serif" font-size="10.00">ScriptableObject</text>
</a>
</g>
</g>
<!-- Node4&#45;&gt;Node1 -->
<g id="edge52_Node000004_Node000001" class="edge">
<title>Node4&#45;&gt;Node1</title>
<g id="a_edge52_Node000004_Node000001"><a xlink:title=" ">
<path fill="none" stroke="#63b8ff" d="M111.72,-349.13C130.6,-402.29 186.48,-556.03 244,-679 278.54,-752.84 327.26,-837.31 347.09,-870.99"/>
<polygon fill="#63b8ff" stroke="#63b8ff" points="114.99,-347.87 108.36,-339.61 108.39,-350.21 114.99,-347.87"/>
</a>
</g>
</g>
<!-- Node5 -->
<g id="Node000005" class="node">
<title>Node5</title>
<g id="a_Node000005"><a xlink:href="classWolfstagInteractive_1_1ConvoCore_1_1BaseDialogueLineAction.html" target="_top" xlink:title="Base ScriptableObject class for all ConvoCore dialogue line actions.">
<polygon fill="white" stroke="#666666" points="437.5,-670 276.5,-670 276.5,-640 437.5,-640 437.5,-670"/>
<text text-anchor="start" x="284.5" y="-658" font-family="Helvetica,sans-Serif" font-size="10.00">WolfstagInteractive.Convo</text>
<text text-anchor="middle" x="357" y="-647" font-family="Helvetica,sans-Serif" font-size="10.00">Core.BaseDialogueLineAction</text>
</a>
</g>
</g>
<!-- Node4&#45;&gt;Node5 -->
<g id="edge44_Node000004_Node000005" class="edge">
<title>Node4&#45;&gt;Node5</title>
<g id="a_edge44_Node000004_Node000005"><a xlink:title=" ">
<path fill="none" stroke="#63b8ff" d="M112.08,-349.12C129.23,-393.54 176.63,-505.49 244,-579 267.66,-604.81 301.72,-626.32 326.06,-639.8"/>
<polygon fill="#63b8ff" stroke="#63b8ff" points="115.28,-347.68 108.46,-339.57 108.73,-350.16 115.28,-347.68"/>
</a>
</g>
</g>
<!-- Node12 -->
<g id="Node000012" class="node">
<title>Node12</title>
<g id="a_Node000012"><a xlink:href="classWolfstagInteractive_1_1ConvoCore_1_1BaseExpressionAction.html" target="_top" xlink:title="Abstract base ScriptableObject for custom expression actions.">
<polygon fill="white" stroke="#666666" points="432,-570 282,-570 282,-540 432,-540 432,-570"/>
<text text-anchor="start" x="290" y="-558" font-family="Helvetica,sans-Serif" font-size="10.00">WolfstagInteractive.Convo</text>
<text text-anchor="middle" x="357" y="-547" font-family="Helvetica,sans-Serif" font-size="10.00">Core.BaseExpressionAction</text>
</a>
</g>
</g>
<!-- Node4&#45;&gt;Node12 -->
<g id="edge51_Node000004_Node000012" class="edge">
<title>Node4&#45;&gt;Node12</title>
<g id="a_edge51_Node000004_Node000012"><a xlink:title=" ">
<path fill="none" stroke="#63b8ff" d="M112.47,-349.23C129.28,-389.84 174.2,-484.42 244,-531 255.25,-538.51 268.42,-543.72 281.71,-547.32"/>
<polygon fill="#63b8ff" stroke="#63b8ff" points="115.7,-347.89 108.72,-339.92 109.21,-350.5 115.7,-347.89"/>
</a>
</g>
</g>
<!-- Node13 -->
<g id="Node000013" class="node">
<title>Node13</title>
<g id="a_Node000013"><a xlink:href="classWolfstagInteractive_1_1ConvoCore_1_1ConversationContainer.html" target="_top" xlink:title="ScriptableObject that groups one or more ConvoCoreConversationData assets into a single addressable u...">
<polygon fill="white" stroke="#666666" points="434,-522 280,-522 280,-492 434,-492 434,-522"/>
<text text-anchor="start" x="288" y="-510" font-family="Helvetica,sans-Serif" font-size="10.00">WolfstagInteractive.Convo</text>
<text text-anchor="middle" x="357" y="-499" font-family="Helvetica,sans-Serif" font-size="10.00">Core.ConversationContainer</text>
</a>
</g>
</g>
<!-- Node4&#45;&gt;Node13 -->
<g id="edge53_Node000004_Node000013" class="edge">
<title>Node4&#45;&gt;Node13</title>
<g id="a_edge53_Node000004_Node000013"><a xlink:title=" ">
<path fill="none" stroke="#63b8ff" d="M116.1,-348.37C136.85,-381.03 184.83,-448.95 244,-483 254.94,-489.3 267.35,-493.95 279.82,-497.38"/>
<polygon fill="#63b8ff" stroke="#63b8ff" points="119.02,-346.44 110.76,-339.79 113.07,-350.13 119.02,-346.44"/>
</a>
</g>
</g>
<!-- Node14 -->
<g id="Node000014" class="node">
<title>Node14</title>
<g id="a_Node000014"><a xlink:href="classWolfstagInteractive_1_1ConvoCore_1_1ConvoCoreCharacterExpression.html" target="_top" xlink:title=" ">
<polygon fill="white" stroke="#666666" points="455,-474 259,-474 259,-444 455,-444 455,-474"/>
<text text-anchor="start" x="267" y="-462" font-family="Helvetica,sans-Serif" font-size="10.00">WolfstagInteractive.Convo</text>
<text text-anchor="middle" x="357" y="-451" font-family="Helvetica,sans-Serif" font-size="10.00">Core.ConvoCoreCharacterExpression</text>
</a>
</g>
</g>
<!-- Node4&#45;&gt;Node14 -->
<g id="edge54_Node000004_Node000014" class="edge">
<title>Node4&#45;&gt;Node14</title>
<g id="a_edge54_Node000004_Node000014"><a xlink:title=" ">
<path fill="none" stroke="#63b8ff" d="M121.89,-346.75C146.54,-370.22 194.83,-412.51 244,-435 251.5,-438.43 259.52,-441.38 267.68,-443.92"/>
<polygon fill="#63b8ff" stroke="#63b8ff" points="124.09,-344.01 114.46,-339.57 119.22,-349.04 124.09,-344.01"/>
</a>
</g>
</g>
<!-- Node15 -->
<g id="Node000015" class="node">
<title>Node15</title>
<g id="a_Node000015"><a xlink:href="classWolfstagInteractive_1_1ConvoCore_1_1ConvoCoreCharacterPresence.html" target="_top" xlink:title="Abstract ScriptableObject base for all presence types.">
<polygon fill="white" stroke="#666666" points="450.5,-426 263.5,-426 263.5,-396 450.5,-396 450.5,-426"/>
<text text-anchor="start" x="271.5" y="-414" font-family="Helvetica,sans-Serif" font-size="10.00">WolfstagInteractive.Convo</text>
<text text-anchor="middle" x="357" y="-403" font-family="Helvetica,sans-Serif" font-size="10.00">Core.ConvoCoreCharacterPresence</text>
</a>
</g>
</g>
<!-- Node4&#45;&gt;Node15 -->
<g id="edge55_Node000004_Node000015" class="edge">
<title>Node4&#45;&gt;Node15</title>
<g id="a_edge55_Node000004_Node000015"><a xlink:title=" ">
<path fill="none" stroke="#63b8ff" d="M134.45,-343.88C162.21,-356.52 205.22,-375 244,-387 254.64,-390.29 265.98,-393.29 277.21,-395.97"/>
<polygon fill="#63b8ff" stroke="#63b8ff" points="135.85,-340.67 125.3,-339.67 132.93,-347.03 135.85,-340.67"/>
</a>
</g>
</g>
<!-- Node23 -->
<g id="Node000023" class="node">
<title>Node23</title>
<g id="a_Node000023"><a xlink:href="classWolfstagInteractive_1_1ConvoCore_1_1ConvoCoreCharacterProfileBaseData.html" target="_top" xlink:title="ScriptableObject that defines a character&#39;s identity within ConvoCore: their display name,...">
<polygon fill="white" stroke="#666666" points="443.5,-377.5 270.5,-377.5 270.5,-336.5 443.5,-336.5 443.5,-377.5"/>
<text text-anchor="start" x="278.5" y="-365.5" font-family="Helvetica,sans-Serif" font-size="10.00">WolfstagInteractive.Convo</text>
<text text-anchor="start" x="278.5" y="-354.5" font-family="Helvetica,sans-Serif" font-size="10.00">Core.ConvoCoreCharacterProfile</text>
<text text-anchor="middle" x="357" y="-343.5" font-family="Helvetica,sans-Serif" font-size="10.00">BaseData</text>
</a>
</g>
</g>
<!-- Node4&#45;&gt;Node23 -->
<g id="edge63_Node000004_Node000023" class="edge">
<title>Node4&#45;&gt;Node23</title>
<g id="a_edge63_Node000004_Node000023"><a xlink:title=" ">
<path fill="none" stroke="#63b8ff" d="M162.56,-336.19C194.47,-339.62 234.78,-343.96 270.33,-347.78"/>
<polygon fill="#63b8ff" stroke="#63b8ff" points="162.82,-332.7 152.51,-335.11 162.07,-339.66 162.82,-332.7"/>
</a>
</g>
</g>
<!-- Node24 -->
<g id="Node000024" class="node">
<title>Node24</title>
<g id="a_Node000024"><a xlink:href="classWolfstagInteractive_1_1ConvoCore_1_1ConvoCoreConversationData.html" target="_top" xlink:title=" ">
<polygon fill="white" stroke="#666666" points="448.5,-318 265.5,-318 265.5,-288 448.5,-288 448.5,-318"/>
<text text-anchor="start" x="273.5" y="-306" font-family="Helvetica,sans-Serif" font-size="10.00">WolfstagInteractive.Convo</text>
<text text-anchor="middle" x="357" y="-295" font-family="Helvetica,sans-Serif" font-size="10.00">Core.ConvoCoreConversationData</text>
</a>
</g>
</g>
<!-- Node4&#45;&gt;Node24 -->
<g id="edge64_Node000004_Node000024" class="edge">
<title>Node4&#45;&gt;Node24</title>
<g id="a_edge64_Node000004_Node000024"><a xlink:title=" ">
<path fill="none" stroke="#63b8ff" d="M162.53,-323.81C193.01,-320.53 231.15,-316.43 265.49,-312.74"/>
<polygon fill="#63b8ff" stroke="#63b8ff" points="162.07,-320.34 152.51,-324.89 162.82,-327.3 162.07,-320.34"/>
</a>
</g>
</g>
<!-- Node25 -->
<g id="Node000025" class="node">
<title>Node25</title>
<g id="a_Node000025"><a xlink:href="classWolfstagInteractive_1_1ConvoCore_1_1ConvoCoreHistoryRendererProfile.html" target="_top" xlink:title=" ">
<polygon fill="white" stroke="#666666" points="460,-270 254,-270 254,-240 460,-240 460,-270"/>
<text text-anchor="start" x="262" y="-258" font-family="Helvetica,sans-Serif" font-size="10.00">WolfstagInteractive.Convo</text>
<text text-anchor="middle" x="357" y="-247" font-family="Helvetica,sans-Serif" font-size="10.00">Core.ConvoCoreHistoryRendererProfile</text>
</a>
</g>
</g>
<!-- Node4&#45;&gt;Node25 -->
<g id="edge65_Node000004_Node000025" class="edge">
<title>Node4&#45;&gt;Node25</title>
<g id="a_edge65_Node000004_Node000025"><a xlink:title=" ">
<path fill="none" stroke="#63b8ff" d="M137.92,-316.43C165.81,-305.3 207.05,-289.68 244,-279 255.18,-275.77 267.09,-272.76 278.83,-270.05"/>
<polygon fill="#63b8ff" stroke="#63b8ff" points="136.24,-313.33 128.28,-320.31 138.86,-319.83 136.24,-313.33"/>
</a>
</g>
</g>
<!-- Node26 -->
<g id="Node000026" class="node">
<title>Node26</title>
<g id="a_Node000026"><a xlink:href="classWolfstagInteractive_1_1ConvoCore_1_1ConvoCoreLanguageSettings.html" target="_top" xlink:title=" ">
<polygon fill="white" stroke="#666666" points="448,-222 266,-222 266,-192 448,-192 448,-222"/>
<text text-anchor="start" x="274" y="-210" font-family="Helvetica,sans-Serif" font-size="10.00">WolfstagInteractive.Convo</text>
<text text-anchor="middle" x="357" y="-199" font-family="Helvetica,sans-Serif" font-size="10.00">Core.ConvoCoreLanguageSettings</text>
</a>
</g>
</g>
<!-- Node4&#45;&gt;Node26 -->
<g id="edge66_Node000004_Node000026" class="edge">
<title>Node4&#45;&gt;Node26</title>
<g id="a_edge66_Node000004_Node000026"><a xlink:title=" ">
<path fill="none" stroke="#63b8ff" d="M122.83,-313.57C147.94,-291.37 196.01,-252.14 244,-231 251.83,-227.55 260.18,-224.59 268.67,-222.04"/>
<polygon fill="#63b8ff" stroke="#63b8ff" points="120.34,-311.11 115.24,-320.4 125.01,-316.32 120.34,-311.11"/>
</a>
</g>
</g>
<!-- Node27 -->
<g id="Node000027" class="node">
<title>Node27</title>
<g id="a_Node000027"><a xlink:href="classWolfstagInteractive_1_1ConvoCore_1_1ConvoCoreSettings.html" target="_top" xlink:title="Global runtime settings ScriptableObject for ConvoCore.">
<polygon fill="white" stroke="#666666" points="430,-174 284,-174 284,-144 430,-144 430,-174"/>
<text text-anchor="start" x="292" y="-162" font-family="Helvetica,sans-Serif" font-size="10.00">WolfstagInteractive.Convo</text>
<text text-anchor="middle" x="357" y="-151" font-family="Helvetica,sans-Serif" font-size="10.00">Core.ConvoCoreSettings</text>
</a>
</g>
</g>
<!-- Node4&#45;&gt;Node27 -->
<g id="edge67_Node000004_Node000027" class="edge">
<title>Node4&#45;&gt;Node27</title>
<g id="a_edge67_Node000004_Node000027"><a xlink:title=" ">
<path fill="none" stroke="#63b8ff" d="M116.86,-311.5C138.2,-279.81 186.29,-215.45 244,-183 256.13,-176.18 270.01,-171.29 283.76,-167.79"/>
<polygon fill="#63b8ff" stroke="#63b8ff" points="113.7,-309.94 111.11,-320.21 119.54,-313.79 113.7,-309.94"/>
</a>
</g>
</g>
<!-- Node28 -->
<g id="Node000028" class="node">
<title>Node28</title>
<g id="a_Node000028"><a xlink:href="classWolfstagInteractive_1_1ConvoCore_1_1SaveSystem_1_1ConvoCoreSaveManager.html" target="_top" xlink:title=" ">
<polygon fill="white" stroke="#666666" points="470,-126 244,-126 244,-96 470,-96 470,-126"/>
<text text-anchor="start" x="252" y="-114" font-family="Helvetica,sans-Serif" font-size="10.00">WolfstagInteractive.Convo</text>
<text text-anchor="middle" x="357" y="-103" font-family="Helvetica,sans-Serif" font-size="10.00">Core.SaveSystem.ConvoCoreSaveManager</text>
</a>
</g>
</g>
<!-- Node4&#45;&gt;Node28 -->
<g id="edge68_Node000004_Node000028" class="edge">
<title>Node4&#45;&gt;Node28</title>
<g id="a_edge68_Node000004_Node000028"><a xlink:title=" ">
<path fill="none" stroke="#63b8ff" d="M112.74,-311.09C129.97,-271.54 175.42,-180.06 244,-135 249.24,-131.56 254.88,-128.6 260.75,-126.06"/>
<polygon fill="#63b8ff" stroke="#63b8ff" points="109.49,-309.8 108.81,-320.37 115.93,-312.53 109.49,-309.8"/>
</a>
</g>
</g>
<!-- Node29 -->
<g id="Node000029" class="node">
<title>Node29</title>
<g id="a_Node000029"><a xlink:href="classWolfstagInteractive_1_1ConvoCore_1_1SaveSystem_1_1ConvoSettingsState.html" target="_top" xlink:title="ScriptableObject that bridges ConvoCoreLanguageManager with the save system.">
<polygon fill="white" stroke="#666666" points="458,-78 256,-78 256,-48 458,-48 458,-78"/>
<text text-anchor="start" x="264" y="-66" font-family="Helvetica,sans-Serif" font-size="10.00">WolfstagInteractive.Convo</text>
<text text-anchor="middle" x="357" y="-55" font-family="Helvetica,sans-Serif" font-size="10.00">Core.SaveSystem.ConvoSettingsState</text>
</a>
</g>
</g>
<!-- Node4&#45;&gt;Node29 -->
<g id="edge69_Node000004_Node000029" class="edge">
<title>Node4&#45;&gt;Node29</title>
<g id="a_edge69_Node000004_Node000029"><a xlink:title=" ">
<path fill="none" stroke="#63b8ff" d="M110.12,-310.7C123.53,-264.15 164.26,-145.28 244,-87 248.66,-83.6 253.69,-80.66 258.97,-78.12"/>
<polygon fill="#63b8ff" stroke="#63b8ff" points="106.72,-309.86 107.42,-320.43 113.47,-311.73 106.72,-309.86"/>
</a>
</g>
</g>
<!-- Node30 -->
<g id="Node000030" class="node">
<title>Node30</title>
<g id="a_Node000030"><a xlink:href="classWolfstagInteractive_1_1ConvoCore_1_1SaveSystem_1_1ConvoVariableStore.html" target="_top" xlink:title=" ">
<polygon fill="white" stroke="#666666" points="458,-30 256,-30 256,0 458,0 458,-30"/>
<text text-anchor="start" x="264" y="-18" font-family="Helvetica,sans-Serif" font-size="10.00">WolfstagInteractive.Convo</text>
<text text-anchor="middle" x="357" y="-7" font-family="Helvetica,sans-Serif" font-size="10.00">Core.SaveSystem.ConvoVariableStore</text>
</a>
</g>
</g>
<!-- Node4&#45;&gt;Node30 -->
<g id="edge70_Node000004_Node000030" class="edge">
<title>Node4&#45;&gt;Node30</title>
<g id="a_edge70_Node000004_Node000030"><a xlink:title=" ">
<path fill="none" stroke="#63b8ff" d="M108.29,-310.21C118.19,-257.16 152.9,-110.9 244,-39 248.29,-35.61 252.96,-32.68 257.86,-30.13"/>
<polygon fill="#63b8ff" stroke="#63b8ff" points="104.79,-309.86 106.49,-320.32 111.69,-311.08 104.79,-309.86"/>
</a>
</g>
</g>
<!-- Node6 -->
<g id="Node000006" class="node">
<title>Node6</title>
<g id="a_Node000006"><a xlink:href="classWolfstagInteractive_1_1ConvoCore_1_1ConvoCoreDialogueLineActionDialogueLineActionGroup.html" target="_top" xlink:title=" ">
<polygon fill="white" stroke="#666666" points="710,-852.5 520,-852.5 520,-811.5 710,-811.5 710,-852.5"/>
<text text-anchor="start" x="528" y="-840.5" font-family="Helvetica,sans-Serif" font-size="10.00">WolfstagInteractive.Convo</text>
<text text-anchor="start" x="528" y="-829.5" font-family="Helvetica,sans-Serif" font-size="10.00">Core.ConvoCoreDialogueLineAction</text>
<text text-anchor="middle" x="615" y="-818.5" font-family="Helvetica,sans-Serif" font-size="10.00">DialogueLineActionGroup</text>
</a>
</g>
</g>
<!-- Node5&#45;&gt;Node6 -->
<g id="edge45_Node000005_Node000006" class="edge">
<title>Node5&#45;&gt;Node6</title>
<g id="a_edge45_Node000005_Node000006"><a xlink:title=" ">
<path fill="none" stroke="#63b8ff" d="M374.83,-678.28C399.76,-711.07 449.68,-770.46 506,-803 511.38,-806.11 517.1,-808.89 523,-811.38"/>
<polygon fill="#63b8ff" stroke="#63b8ff" points="377.55,-676.08 368.75,-670.17 371.94,-680.27 377.55,-676.08"/>
</a>
</g>
</g>
<!-- Node7 -->
<g id="Node000007" class="node">
<title>Node7</title>
<g id="a_Node000007"><a xlink:href="classWolfstagInteractive_1_1ConvoCore_1_1ConvoCoreDialogueLineActionEnableDisableGameObject.html" target="_top" xlink:title=" ">
<polygon fill="white" stroke="#666666" points="710,-793.5 520,-793.5 520,-752.5 710,-752.5 710,-793.5"/>
<text text-anchor="start" x="528" y="-781.5" font-family="Helvetica,sans-Serif" font-size="10.00">WolfstagInteractive.Convo</text>
<text text-anchor="start" x="528" y="-770.5" font-family="Helvetica,sans-Serif" font-size="10.00">Core.ConvoCoreDialogueLineAction</text>
<text text-anchor="middle" x="615" y="-759.5" font-family="Helvetica,sans-Serif" font-size="10.00">EnableDisableGameObject</text>
</a>
</g>
</g>
<!-- Node5&#45;&gt;Node7 -->
<g id="edge46_Node000005_Node000007" class="edge">
<title>Node5&#45;&gt;Node7</title>
<g id="a_edge46_Node000005_Node000007"><a xlink:title=" ">
<path fill="none" stroke="#63b8ff" d="M387.47,-676.11C416.43,-696.03 462.49,-725.51 506,-744 513.24,-747.08 520.89,-749.9 528.64,-752.49"/>
<polygon fill="#63b8ff" stroke="#63b8ff" points="389.26,-673.1 379.05,-670.26 385.26,-678.84 389.26,-673.1"/>
</a>
</g>
</g>
<!-- Node8 -->
<g id="Node000008" class="node">
<title>Node8</title>
<g id="a_Node000008"><a xlink:href="classWolfstagInteractive_1_1ConvoCore_1_1ConvoCoreDialogueLineActionFadeInOutSpriteRenderer.html" target="_top" xlink:title=" ">
<polygon fill="white" stroke="#666666" points="710,-734.5 520,-734.5 520,-693.5 710,-693.5 710,-734.5"/>
<text text-anchor="start" x="528" y="-722.5" font-family="Helvetica,sans-Serif" font-size="10.00">WolfstagInteractive.Convo</text>
<text text-anchor="start" x="528" y="-711.5" font-family="Helvetica,sans-Serif" font-size="10.00">Core.ConvoCoreDialogueLineAction</text>
<text text-anchor="middle" x="615" y="-700.5" font-family="Helvetica,sans-Serif" font-size="10.00">FadeInOutSpriteRenderer</text>
</a>
</g>
</g>
<!-- Node5&#45;&gt;Node8 -->
<g id="edge47_Node000005_Node000008" class="edge">
<title>Node5&#45;&gt;Node8</title>
<g id="a_edge47_Node000005_Node000008"><a xlink:title=" ">
<path fill="none" stroke="#63b8ff" d="M433.21,-672.33C461.89,-678.94 494.85,-686.54 524.71,-693.42"/>
<polygon fill="#63b8ff" stroke="#63b8ff" points="433.79,-668.88 423.26,-670.04 432.22,-675.7 433.79,-668.88"/>
</a>
</g>
</g>
<!-- Node9 -->
<g id="Node000009" class="node">
<title>Node9</title>
<g id="a_Node000009"><a xlink:href="classWolfstagInteractive_1_1ConvoCore_1_1ConvoCoreDialogueLineActionInstantiatePrefab.html" target="_top" xlink:title=" ">
<polygon fill="white" stroke="#666666" points="710,-675.5 520,-675.5 520,-634.5 710,-634.5 710,-675.5"/>
<text text-anchor="start" x="528" y="-663.5" font-family="Helvetica,sans-Serif" font-size="10.00">WolfstagInteractive.Convo</text>
<text text-anchor="start" x="528" y="-652.5" font-family="Helvetica,sans-Serif" font-size="10.00">Core.ConvoCoreDialogueLineAction</text>
<text text-anchor="middle" x="615" y="-641.5" font-family="Helvetica,sans-Serif" font-size="10.00">InstantiatePrefab</text>
</a>
</g>
</g>
<!-- Node5&#45;&gt;Node9 -->
<g id="edge48_Node000005_Node000009" class="edge">
<title>Node5&#45;&gt;Node9</title>
<g id="a_edge48_Node000005_Node000009"><a xlink:title=" ">
<path fill="none" stroke="#63b8ff" d="M447.79,-655C471.04,-655 496.15,-655 519.63,-655"/>
<polygon fill="#63b8ff" stroke="#63b8ff" points="447.6,-651.5 437.6,-655 447.6,-658.5 447.6,-651.5"/>
</a>
</g>
</g>
<!-- Node10 -->
<g id="Node000010" class="node">
<title>Node10</title>
<g id="a_Node000010"><a xlink:href="classWolfstagInteractive_1_1ConvoCore_1_1ConvoCoreDialogueLineActionModifyTransform.html" target="_top" xlink:title=" ">
<polygon fill="white" stroke="#666666" points="710,-616.5 520,-616.5 520,-575.5 710,-575.5 710,-616.5"/>
<text text-anchor="start" x="528" y="-604.5" font-family="Helvetica,sans-Serif" font-size="10.00">WolfstagInteractive.Convo</text>
<text text-anchor="start" x="528" y="-593.5" font-family="Helvetica,sans-Serif" font-size="10.00">Core.ConvoCoreDialogueLineAction</text>
<text text-anchor="middle" x="615" y="-582.5" font-family="Helvetica,sans-Serif" font-size="10.00">ModifyTransform</text>
</a>
</g>
</g>
<!-- Node5&#45;&gt;Node10 -->
<g id="edge49_Node000005_Node000010" class="edge">
<title>Node5&#45;&gt;Node10</title>
<g id="a_edge49_Node000005_Node000010"><a xlink:title=" ">
<path fill="none" stroke="#63b8ff" d="M433.21,-637.67C461.89,-631.06 494.85,-623.46 524.71,-616.58"/>
<polygon fill="#63b8ff" stroke="#63b8ff" points="432.22,-634.3 423.26,-639.96 433.79,-641.12 432.22,-634.3"/>
</a>
</g>
</g>
<!-- Node11 -->
<g id="Node000011" class="node">
<title>Node11</title>
<g id="a_Node000011"><a xlink:href="classWolfstagInteractive_1_1ConvoCore_1_1ConvoCoreDialogueLineActionPlayAudioClip.html" target="_top" xlink:title=" ">
<polygon fill="white" stroke="#666666" points="710,-557.5 520,-557.5 520,-516.5 710,-516.5 710,-557.5"/>
<text text-anchor="start" x="528" y="-545.5" font-family="Helvetica,sans-Serif" font-size="10.00">WolfstagInteractive.Convo</text>
<text text-anchor="start" x="528" y="-534.5" font-family="Helvetica,sans-Serif" font-size="10.00">Core.ConvoCoreDialogueLineAction</text>
<text text-anchor="middle" x="615" y="-523.5" font-family="Helvetica,sans-Serif" font-size="10.00">PlayAudioClip</text>
</a>
</g>
</g>
<!-- Node5&#45;&gt;Node11 -->
<g id="edge50_Node000005_Node000011" class="edge">
<title>Node5&#45;&gt;Node11</title>
<g id="a_edge50_Node000005_Node000011"><a xlink:title=" ">
<path fill="none" stroke="#63b8ff" d="M387.54,-634.23C416.55,-614.61 462.65,-585.52 506,-567 514.05,-563.56 522.61,-560.4 531.25,-557.53"/>
<polygon fill="#63b8ff" stroke="#63b8ff" points="385.39,-631.46 379.1,-639.99 389.34,-637.24 385.39,-631.46"/>
</a>
</g>
</g>
<!-- Node16 -->
<g id="Node000016" class="node">
<title>Node16</title>
<g id="a_Node000016"><a xlink:href="classWolfstagInteractive_1_1ConvoCore_1_1CameraRelativePresence.html" target="_top" xlink:title="Presence type that places characters at authored offsets relative to the active camera.">
<polygon fill="white" stroke="#666666" points="697.5,-498 532.5,-498 532.5,-468 697.5,-468 697.5,-498"/>
<text text-anchor="start" x="540.5" y="-486" font-family="Helvetica,sans-Serif" font-size="10.00">WolfstagInteractive.Convo</text>
<text text-anchor="middle" x="615" y="-475" font-family="Helvetica,sans-Serif" font-size="10.00">Core.CameraRelativePresence</text>
</a>
</g>
</g>
<!-- Node15&#45;&gt;Node16 -->
<g id="edge56_Node000015_Node000016" class="edge">
<title>Node15&#45;&gt;Node16</title>
<g id="a_edge56_Node000015_Node000016"><a xlink:title=" ">
<path fill="none" stroke="#63b8ff" d="M454.18,-429.08C459.59,-430.88 464.9,-432.85 470,-435 487.72,-442.48 488.31,-451.45 506,-459 514.39,-462.58 523.39,-465.66 532.47,-468.3"/>
<polygon fill="#63b8ff" stroke="#63b8ff" points="454.92,-425.65 444.33,-426.03 452.84,-432.33 454.92,-425.65"/>
</a>
</g>
</g>
<!-- Node17 -->
<g id="Node000017" class="node">
<title>Node17</title>
<g id="a_Node000017"><a xlink:href="classWolfstagInteractive_1_1ConvoCore_1_1ExternalPresence.html" target="_top" xlink:title="Presence type for characters that are fully managed by the developer.">
<polygon fill="white" stroke="#666666" points="688,-450 542,-450 542,-420 688,-420 688,-450"/>
<text text-anchor="start" x="550" y="-438" font-family="Helvetica,sans-Serif" font-size="10.00">WolfstagInteractive.Convo</text>
<text text-anchor="middle" x="615" y="-427" font-family="Helvetica,sans-Serif" font-size="10.00">Core.ExternalPresence</text>
</a>
</g>
</g>
<!-- Node15&#45;&gt;Node17 -->
<g id="edge57_Node000015_Node000017" class="edge">
<title>Node15&#45;&gt;Node17</title>
<g id="a_edge57_Node000015_Node000017"><a xlink:title=" ">
<path fill="none" stroke="#63b8ff" d="M461.09,-420.66C488.22,-423.21 516.9,-425.9 542,-428.25"/>
<polygon fill="#63b8ff" stroke="#63b8ff" points="461.07,-417.15 450.78,-419.7 460.41,-424.12 461.07,-417.15"/>
</a>
</g>
</g>
<!-- Node19 -->
<g id="Node000019" class="node">
<title>Node19</title>
<g id="a_Node000019"><a xlink:href="classWolfstagInteractive_1_1ConvoCore_1_1FollowTargetPresence.html" target="_top" xlink:title="Presence type that spawns characters and keeps them following a scene Transform during the conversati...">
<polygon fill="white" stroke="#666666" points="689,-402 541,-402 541,-372 689,-372 689,-402"/>
<text text-anchor="start" x="549" y="-390" font-family="Helvetica,sans-Serif" font-size="10.00">WolfstagInteractive.Convo</text>
<text text-anchor="middle" x="615" y="-379" font-family="Helvetica,sans-Serif" font-size="10.00">Core.FollowTargetPresence</text>
</a>
</g>
</g>
<!-- Node15&#45;&gt;Node19 -->
<g id="edge59_Node000015_Node000019" class="edge">
<title>Node15&#45;&gt;Node19</title>
<g id="a_edge59_Node000015_Node000019"><a xlink:title=" ">
<path fill="none" stroke="#63b8ff" d="M460.94,-401.35C487.68,-398.84 515.93,-396.19 540.78,-393.86"/>
<polygon fill="#63b8ff" stroke="#63b8ff" points="460.41,-397.88 450.78,-402.3 461.07,-404.85 460.41,-397.88"/>
</a>
</g>
</g>
<!-- Node20 -->
<g id="Node000020" class="node">
<title>Node20</title>
<g id="a_Node000020"><a xlink:href="classWolfstagInteractive_1_1ConvoCore_1_1SequencedPresence.html" target="_top" xlink:title="Presence type that wraps a list of other presence types and selects between them based on a conversat...">
<polygon fill="white" stroke="#666666" points="688,-354 542,-354 542,-324 688,-324 688,-354"/>
<text text-anchor="start" x="550" y="-342" font-family="Helvetica,sans-Serif" font-size="10.00">WolfstagInteractive.Convo</text>
<text text-anchor="middle" x="615" y="-331" font-family="Helvetica,sans-Serif" font-size="10.00">Core.SequencedPresence</text>
</a>
</g>
</g>
<!-- Node15&#45;&gt;Node20 -->
<g id="edge60_Node000015_Node000020" class="edge">
<title>Node15&#45;&gt;Node20</title>
<g id="a_edge60_Node000015_Node000020"><a xlink:title=" ">
<path fill="none" stroke="#63b8ff" d="M454.18,-392.92C459.59,-391.12 464.9,-389.15 470,-387 487.72,-379.52 488.31,-370.55 506,-363 517.31,-358.18 529.71,-354.26 541.95,-351.11"/>
<polygon fill="#63b8ff" stroke="#63b8ff" points="452.84,-389.67 444.33,-395.97 454.92,-396.35 452.84,-389.67"/>
</a>
</g>
</g>
<!-- Node21 -->
<g id="Node000021" class="node">
<title>Node21</title>
<g id="a_Node000021"><a xlink:href="classWolfstagInteractive_1_1ConvoCore_1_1TransformLerpPresence.html" target="_top" xlink:title="Presence type for scene&#45;resident characters that move to an authored offset position when a conversat...">
<polygon fill="white" stroke="#666666" points="693,-306 537,-306 537,-276 693,-276 693,-306"/>
<text text-anchor="start" x="545" y="-294" font-family="Helvetica,sans-Serif" font-size="10.00">WolfstagInteractive.Convo</text>
<text text-anchor="middle" x="615" y="-283" font-family="Helvetica,sans-Serif" font-size="10.00">Core.TransformLerpPresence</text>
</a>
</g>
</g>
<!-- Node15&#45;&gt;Node21 -->
<g id="edge61_Node000015_Node000021" class="edge">
<title>Node15&#45;&gt;Node21</title>
<g id="a_edge61_Node000015_Node000021"><a xlink:title=" ">
<path fill="none" stroke="#63b8ff" d="M459.77,-393.78C463.35,-391.75 466.78,-389.5 470,-387 498.28,-365.09 477.8,-337.02 506,-315 515.08,-307.91 525.84,-302.82 536.99,-299.19"/>
<polygon fill="#63b8ff" stroke="#63b8ff" points="457.98,-390.76 450.61,-398.38 461.12,-397.02 457.98,-390.76"/>
</a>
</g>
</g>
<!-- Node22 -->
<g id="Node000022" class="node">
<title>Node22</title>
<g id="a_Node000022"><a xlink:href="classWolfstagInteractive_1_1ConvoCore_1_1WorldPointPresence.html" target="_top" xlink:title="Presence type that places characters at authored world positions.">
<polygon fill="white" stroke="#666666" points="688,-258 542,-258 542,-228 688,-228 688,-258"/>
<text text-anchor="start" x="550" y="-246" font-family="Helvetica,sans-Serif" font-size="10.00">WolfstagInteractive.Convo</text>
<text text-anchor="middle" x="615" y="-235" font-family="Helvetica,sans-Serif" font-size="10.00">Core.WorldPointPresence</text>
</a>
</g>
</g>
<!-- Node15&#45;&gt;Node22 -->
<g id="edge62_Node000015_Node000022" class="edge">
<title>Node15&#45;&gt;Node22</title>
<g id="a_edge62_Node000015_Node000022"><a xlink:title=" ">
<path fill="none" stroke="#63b8ff" d="M459.63,-394.92C463.31,-392.59 466.79,-389.96 470,-387 510.92,-349.24 465.22,-304.91 506,-267 515.99,-257.71 528.74,-251.73 541.96,-247.94"/>
<polygon fill="#63b8ff" stroke="#63b8ff" points="457.78,-391.95 450.71,-399.84 461.15,-398.08 457.78,-391.95"/>
</a>
</g>
</g>
<!-- Node18 -->
<g id="Node000018" class="node">
<title>Node18</title>
<g id="a_Node000018"><a xlink:href="classWolfstagInteractive_1_1ConvoCore_1_1ConvoCoreAnimatorPresence.html" target="_top" xlink:title="Presence type for scene&#45;resident characters that are driven by an Animator.">
<polygon fill="white" stroke="#666666" points="945,-450 760,-450 760,-420 945,-420 945,-450"/>
<text text-anchor="start" x="768" y="-438" font-family="Helvetica,sans-Serif" font-size="10.00">WolfstagInteractive.Convo</text>
<text text-anchor="middle" x="852.5" y="-427" font-family="Helvetica,sans-Serif" font-size="10.00">Core.ConvoCoreAnimatorPresence</text>
</a>
</g>
</g>
<!-- Node17&#45;&gt;Node18 -->
<g id="edge58_Node000017_Node000018" class="edge">
<title>Node17&#45;&gt;Node18</title>
<g id="a_edge58_Node000017_Node000018"><a xlink:title=" ">
<path fill="none" stroke="#63b8ff" d="M698.47,-435C718.29,-435 739.58,-435 759.79,-435"/>
<polygon fill="#63b8ff" stroke="#63b8ff" points="698.26,-431.5 688.26,-435 698.26,-438.5 698.26,-431.5"/>
</a>
</g>
</g>
</g>
</svg>
