<?xml version="1.0" encoding="UTF-8" standalone="no"?>
<!DOCTYPE svg PUBLIC "-//W3C//DTD SVG 1.1//EN"
 "http://www.w3.org/Graphics/SVG/1.1/DTD/svg11.dtd">
<!-- Generated by graphviz version 2.43.0 (0)
 -->
<!-- Title: Graphical Class Hierarchy Pages: 1 -->
<svg width="678pt" height="866pt"
 viewBox="0.00 0.00 678.00 866.00" xmlns="http://www.w3.org/2000/svg" xmlns:xlink="http://www.w3.org/1999/xlink">
<g id="graph0" class="graph" transform="scale(1 1) rotate(0) translate(4 862)">
<title>Graphical Class Hierarchy</title>
<!-- Node0 -->
<g id="Node000000" class="node">
<title>Node0</title>
<g id="a_Node000000"><a xlink:href="interfaceWolfstagInteractive_1_1ConvoCore_1_1IConvoCoreCharacterDisplay.html" target="_top" xlink:title=" ">
<polygon fill="white" stroke="#666666" points="182,-762 0,-762 0,-732 182,-732 182,-762"/>
<text text-anchor="start" x="8" y="-750" font-family="Helvetica,sans-Serif" font-size="10.00">WolfstagInteractive.Convo</text>
<text text-anchor="middle" x="91" y="-739" font-family="Helvetica,sans-Serif" font-size="10.00">Core.IConvoCoreCharacterDisplay</text>
</a>
</g>
</g>
<!-- Node1 -->
<g id="Node000001" class="node">
<title>Node1</title>
<g id="a_Node000001"><a xlink:href="classWolfstagInteractive_1_1ConvoCore_1_1ConvoCoreCharacterDisplayBase.html" target="_top" xlink:title="Generic base class for all prefab&#45;based character displays.">
<polygon fill="white" stroke="#666666" points="432.5,-762 229.5,-762 229.5,-732 432.5,-732 432.5,-762"/>
<text text-anchor="start" x="237.5" y="-750" font-family="Helvetica,sans-Serif" font-size="10.00">WolfstagInteractive.Convo</text>
<text text-anchor="middle" x="331" y="-739" font-family="Helvetica,sans-Serif" font-size="10.00">Core.ConvoCoreCharacterDisplayBase</text>
</a>
</g>
</g>
<!-- Node0&#45;&gt;Node1 -->
<g id="edge5_Node000000_Node000001" class="edge">
<title>Node0&#45;&gt;Node1</title>
<g id="a_edge5_Node000000_Node000001"><a xlink:title=" ">
<path fill="none" stroke="#63b8ff" d="M192.5,-747C204.71,-747 217.19,-747 229.4,-747"/>
<polygon fill="#63b8ff" stroke="#63b8ff" points="192.32,-743.5 182.32,-747 192.32,-750.5 192.32,-743.5"/>
</a>
</g>
</g>
<!-- Node2 -->
<g id="Node000002" class="node">
<title>Node2</title>
<g id="a_Node000002"><a xlink:href="classWolfstagInteractive_1_1ConvoCore_1_1ConvoCoreActionOnlyDisplay.html" target="_top" xlink:title="Minimal prefab display component.">
<polygon fill="white" stroke="#666666" points="667.5,-735 482.5,-735 482.5,-705 667.5,-705 667.5,-735"/>
<text text-anchor="start" x="490.5" y="-723" font-family="Helvetica,sans-Serif" font-size="10.00">WolfstagInteractive.Convo</text>
<text text-anchor="middle" x="575" y="-712" font-family="Helvetica,sans-Serif" font-size="10.00">Core.ConvoCoreActionOnlyDisplay</text>
</a>
</g>
</g>
<!-- Node1&#45;&gt;Node2 -->
<g id="edge6_Node000001_Node000002" class="edge">
<title>Node1&#45;&gt;Node2</title>
<g id="a_edge6_Node000001_Node000002"><a xlink:title=" ">
<path fill="none" stroke="#63b8ff" d="M442.63,-734.66C455.9,-733.18 469.34,-731.68 482.3,-730.23"/>
<polygon fill="#63b8ff" stroke="#63b8ff" points="442.08,-731.2 432.53,-735.78 442.85,-738.15 442.08,-731.2"/>
</a>
</g>
</g>
<!-- Node3 -->
<g id="Node000003" class="node">
<title>Node3</title>
<g id="a_Node000003"><a xlink:href="classWolfstagInteractive_1_1ConvoCore_1_1ConvoCoreAnimatorDisplay.html" target="_top" xlink:title="Prefab display component that maps expression display names to Animator parameters.">
<polygon fill="white" stroke="#666666" points="663.5,-687 486.5,-687 486.5,-657 663.5,-657 663.5,-687"/>
<text text-anchor="start" x="494.5" y="-675" font-family="Helvetica,sans-Serif" font-size="10.00">WolfstagInteractive.Convo</text>
<text text-anchor="middle" x="575" y="-664" font-family="Helvetica,sans-Serif" font-size="10.00">Core.ConvoCoreAnimatorDisplay</text>
</a>
</g>
</g>
<!-- Node1&#45;&gt;Node3 -->
<g id="edge7_Node000001_Node000003" class="edge">
<title>Node1&#45;&gt;Node3</title>
<g id="a_edge7_Node000001_Node000003"><a xlink:title=" ">
<path fill="none" stroke="#63b8ff" d="M429.61,-728.8C434.54,-727.04 439.37,-725.11 444,-723 462.2,-714.71 461.96,-704.64 480,-696 487.14,-692.58 494.83,-689.61 502.62,-687.03"/>
<polygon fill="#63b8ff" stroke="#63b8ff" points="428.4,-725.51 420.01,-731.98 430.6,-732.15 428.4,-725.51"/>
</a>
</g>
</g>
<!-- Node4 -->
<g id="Node000004" class="node">
<title>Node4</title>
<g id="a_Node000004"><a xlink:href="classWolfstagInteractive_1_1ConvoCore_1_1ConvoCoreBlendShapeDisplay.html" target="_top" xlink:title="Prefab display component that maps expression display names to SkinnedMeshRenderer blend shape indice...">
<polygon fill="white" stroke="#666666" points="670,-843 480,-843 480,-813 670,-813 670,-843"/>
<text text-anchor="start" x="488" y="-831" font-family="Helvetica,sans-Serif" font-size="10.00">WolfstagInteractive.Convo</text>
<text text-anchor="middle" x="575" y="-820" font-family="Helvetica,sans-Serif" font-size="10.00">Core.ConvoCoreBlendShapeDisplay</text>
</a>
</g>
</g>
<!-- Node1&#45;&gt;Node4 -->
<g id="edge8_Node000001_Node000004" class="edge">
<title>Node1&#45;&gt;Node4</title>
<g id="a_edge8_Node000001_Node000004"><a xlink:title=" ">
<path fill="none" stroke="#63b8ff" d="M432.27,-765.61C436.3,-767.26 440.22,-769.05 444,-771 463.29,-780.96 460.91,-793.67 480,-804 486.37,-807.45 493.25,-810.41 500.29,-812.96"/>
<polygon fill="#63b8ff" stroke="#63b8ff" points="433.31,-762.27 422.72,-762.03 430.85,-768.82 433.31,-762.27"/>
</a>
</g>
</g>
<!-- Node5 -->
<g id="Node000005" class="node">
<title>Node5</title>
<g id="a_Node000005"><a xlink:href="classWolfstagInteractive_1_1ConvoCore_1_1SimplePrefabRepresentationDisplay.html" target="_top" xlink:title=" ">
<polygon fill="white" stroke="#666666" points="666,-794.5 484,-794.5 484,-753.5 666,-753.5 666,-794.5"/>
<text text-anchor="start" x="492" y="-782.5" font-family="Helvetica,sans-Serif" font-size="10.00">WolfstagInteractive.Convo</text>
<text text-anchor="start" x="492" y="-771.5" font-family="Helvetica,sans-Serif" font-size="10.00">Core.SimplePrefabRepresentation</text>
<text text-anchor="middle" x="575" y="-760.5" font-family="Helvetica,sans-Serif" font-size="10.00">Display</text>
</a>
</g>
</g>
<!-- Node1&#45;&gt;Node5 -->
<g id="edge9_Node000001_Node000005" class="edge">
<title>Node1&#45;&gt;Node5</title>
<g id="a_edge9_Node000001_Node000005"><a xlink:title=" ">
<path fill="none" stroke="#63b8ff" d="M442.55,-759.33C456.37,-760.88 470.37,-762.44 483.83,-763.94"/>
<polygon fill="#63b8ff" stroke="#63b8ff" points="442.85,-755.85 432.53,-758.22 442.08,-762.8 442.85,-755.85"/>
</a>
</g>
</g>
<!-- Node17 -->
<g id="Node000017" class="node">
<title>Node17</title>
<g id="a_Node000017"><a xlink:href="interfaceWolfstagInteractive_1_1ConvoCore_1_1IConvoCoreFadeIn.html" target="_top" xlink:title=" ">
<polygon fill="white" stroke="#666666" points="164,-810 18,-810 18,-780 164,-780 164,-810"/>
<text text-anchor="start" x="26" y="-798" font-family="Helvetica,sans-Serif" font-size="10.00">WolfstagInteractive.Convo</text>
<text text-anchor="middle" x="91" y="-787" font-family="Helvetica,sans-Serif" font-size="10.00">Core.IConvoCoreFadeIn</text>
</a>
</g>
</g>
<!-- Node16 -->
<g id="Node000016" class="node">
<title>Node16</title>
<g id="a_Node000016"><a xlink:href="classWolfstagInteractive_1_1ConvoCore_1_1ConvoCoreSimpleFade.html" target="_top" xlink:title="Drop&#45;on component that implements both IConvoCoreFadeIn and IConvoCoreFadeOut by fading a CanvasGroup...">
<polygon fill="white" stroke="#666666" points="407,-810 255,-810 255,-780 407,-780 407,-810"/>
<text text-anchor="start" x="263" y="-798" font-family="Helvetica,sans-Serif" font-size="10.00">WolfstagInteractive.Convo</text>
<text text-anchor="middle" x="331" y="-787" font-family="Helvetica,sans-Serif" font-size="10.00">Core.ConvoCoreSimpleFade</text>
</a>
</g>
</g>
<!-- Node17&#45;&gt;Node16 -->
<g id="edge10_Node000017_Node000016" class="edge">
<title>Node17&#45;&gt;Node16</title>
<g id="a_edge10_Node000017_Node000016"><a xlink:title=" ">
<path fill="none" stroke="#63b8ff" d="M174.32,-795C200.48,-795 229.27,-795 254.89,-795"/>
<polygon fill="#63b8ff" stroke="#63b8ff" points="174.05,-791.5 164.05,-795 174.05,-798.5 174.05,-791.5"/>
</a>
</g>
</g>
<!-- Node18 -->
<g id="Node000018" class="node">
<title>Node18</title>
<g id="a_Node000018"><a xlink:href="interfaceWolfstagInteractive_1_1ConvoCore_1_1IConvoCoreFadeOut.html" target="_top" xlink:title=" ">
<polygon fill="white" stroke="#666666" points="164,-858 18,-858 18,-828 164,-828 164,-858"/>
<text text-anchor="start" x="26" y="-846" font-family="Helvetica,sans-Serif" font-size="10.00">WolfstagInteractive.Convo</text>
<text text-anchor="middle" x="91" y="-835" font-family="Helvetica,sans-Serif" font-size="10.00">Core.IConvoCoreFadeOut</text>
</a>
</g>
</g>
<!-- Node18&#45;&gt;Node16 -->
<g id="edge11_Node000018_Node000016" class="edge">
<title>Node18&#45;&gt;Node16</title>
<g id="a_edge11_Node000018_Node000016"><a xlink:title=" ">
<path fill="none" stroke="#63b8ff" d="M174.02,-826.46C200.4,-821.14 229.48,-815.27 255.31,-810.06"/>
<polygon fill="#63b8ff" stroke="#63b8ff" points="173.16,-823.06 164.05,-828.47 174.55,-829.92 173.16,-823.06"/>
</a>
</g>
</g>
<!-- Node8 -->
<g id="Node000008" class="node">
<title>Node8</title>
<g id="a_Node000008"><a xlink:href="interfaceWolfstagInteractive_1_1ConvoCore_1_1IConvoCoreRunner.html" target="_top" xlink:title="Minimal interface implemented by ConvoCore.">
<polygon fill="white" stroke="#666666" points="164,-714 18,-714 18,-684 164,-684 164,-714"/>
<text text-anchor="start" x="26" y="-702" font-family="Helvetica,sans-Serif" font-size="10.00">WolfstagInteractive.Convo</text>
<text text-anchor="middle" x="91" y="-691" font-family="Helvetica,sans-Serif" font-size="10.00">Core.IConvoCoreRunner</text>
</a>
</g>
</g>
<!-- Node7 -->
<g id="Node000007" class="node">
<title>Node7</title>
<g id="a_Node000007"><a xlink:href="classWolfstagInteractive_1_1ConvoCore_1_1ConvoCore.html" target="_top" xlink:title="Main conversation runner MonoBehaviour.">
<polygon fill="white" stroke="#666666" points="404,-714 258,-714 258,-684 404,-684 404,-714"/>
<text text-anchor="start" x="266" y="-702" font-family="Helvetica,sans-Serif" font-size="10.00">WolfstagInteractive.Convo</text>
<text text-anchor="middle" x="331" y="-691" font-family="Helvetica,sans-Serif" font-size="10.00">Core.ConvoCore</text>
</a>
</g>
</g>
<!-- Node8&#45;&gt;Node7 -->
<g id="edge12_Node000008_Node000007" class="edge">
<title>Node8&#45;&gt;Node7</title>
<g id="a_edge12_Node000008_Node000007"><a xlink:title=" ">
<path fill="none" stroke="#63b8ff" d="M174.31,-699C201.46,-699 231.44,-699 257.78,-699"/>
<polygon fill="#63b8ff" stroke="#63b8ff" points="174.05,-695.5 164.05,-699 174.05,-702.5 174.05,-695.5"/>
</a>
</g>
</g>
<!-- Node27 -->
<g id="Node000027" class="node">
<title>Node27</title>
<g id="a_Node000027"><a xlink:href="interfaceWolfstagInteractive_1_1ConvoCore_1_1IConvoStartContextProvider.html" target="_top" xlink:title="Implement on a component alongside ConvoCore to control how a conversation is started.">
<polygon fill="white" stroke="#666666" points="180,-660 2,-660 2,-630 180,-630 180,-660"/>
<text text-anchor="start" x="10" y="-648" font-family="Helvetica,sans-Serif" font-size="10.00">WolfstagInteractive.Convo</text>
<text text-anchor="middle" x="91" y="-637" font-family="Helvetica,sans-Serif" font-size="10.00">Core.IConvoStartContextProvider</text>
</a>
</g>
</g>
<!-- Node26 -->
<g id="Node000026" class="node">
<title>Node26</title>
<g id="a_Node000026"><a xlink:href="classWolfstagInteractive_1_1ConvoCore_1_1SaveSystem_1_1ConvoCoreConversationSaveManager.html" target="_top" xlink:title="Attach alongside a ConvoCore component to persist and restore conversation state (active line,...">
<polygon fill="white" stroke="#666666" points="443,-665.5 219,-665.5 219,-624.5 443,-624.5 443,-665.5"/>
<text text-anchor="start" x="227" y="-653.5" font-family="Helvetica,sans-Serif" font-size="10.00">WolfstagInteractive.Convo</text>
<text text-anchor="start" x="227" y="-642.5" font-family="Helvetica,sans-Serif" font-size="10.00">Core.SaveSystem.ConvoCoreConversation</text>
<text text-anchor="middle" x="331" y="-631.5" font-family="Helvetica,sans-Serif" font-size="10.00">SaveManager</text>
</a>
</g>
</g>
<!-- Node27&#45;&gt;Node26 -->
<g id="edge13_Node000027_Node000026" class="edge">
<title>Node27&#45;&gt;Node26</title>
<g id="a_edge13_Node000027_Node000026"><a xlink:title=" ">
<path fill="none" stroke="#63b8ff" d="M190.39,-645C199.78,-645 209.35,-645 218.84,-645"/>
<polygon fill="#63b8ff" stroke="#63b8ff" points="190.28,-641.5 180.28,-645 190.28,-648.5 190.28,-641.5"/>
</a>
</g>
</g>
<!-- Node25 -->
<g id="Node000025" class="node">
<title>Node25</title>
<g id="a_Node000025"><a xlink:href="interfaceWolfstagInteractive_1_1ConvoCore_1_1IUIFoundation.html" target="_top" xlink:title="Contract between the ConvoCore runner and a dialogue UI implementation.">
<polygon fill="white" stroke="#666666" points="164,-54 18,-54 18,-24 164,-24 164,-54"/>
<text text-anchor="start" x="26" y="-42" font-family="Helvetica,sans-Serif" font-size="10.00">WolfstagInteractive.Convo</text>
<text text-anchor="middle" x="91" y="-31" font-family="Helvetica,sans-Serif" font-size="10.00">Core.IUIFoundation</text>
</a>
</g>
</g>
<!-- Node22 -->
<g id="Node000022" class="node">
<title>Node22</title>
<g id="a_Node000022"><a xlink:href="classWolfstagInteractive_1_1ConvoCore_1_1ConvoCoreUIFoundation.html" target="_top" xlink:title="Used as a basis of any UI that can be assigned in the inspector that includes all the base functions ...">
<polygon fill="white" stroke="#666666" points="411,-54 251,-54 251,-24 411,-24 411,-54"/>
<text text-anchor="start" x="259" y="-42" font-family="Helvetica,sans-Serif" font-size="10.00">WolfstagInteractive.Convo</text>
<text text-anchor="middle" x="331" y="-31" font-family="Helvetica,sans-Serif" font-size="10.00">Core.ConvoCoreUIFoundation</text>
</a>
</g>
</g>
<!-- Node25&#45;&gt;Node22 -->
<g id="edge14_Node000025_Node000022" class="edge">
<title>Node25&#45;&gt;Node22</title>
<g id="a_edge14_Node000025_Node000022"><a xlink:title=" ">
<path fill="none" stroke="#63b8ff" d="M174.15,-39C198.95,-39 226.11,-39 250.72,-39"/>
<polygon fill="#63b8ff" stroke="#63b8ff" points="174.05,-35.5 164.05,-39 174.05,-42.5 174.05,-35.5"/>
</a>
</g>
</g>
<!-- Node23 -->
<g id="Node000023" class="node">
<title>Node23</title>
<g id="a_Node000023"><a xlink:href="classWolfstagInteractive_1_1ConvoCore_1_1ConvoCoreSampleUI3D.html" target="_top" xlink:title="World&#45;space dialogue UI for 3D character conversations.">
<polygon fill="white" stroke="#666666" points="653,-78 497,-78 497,-48 653,-48 653,-78"/>
<text text-anchor="start" x="505" y="-66" font-family="Helvetica,sans-Serif" font-size="10.00">WolfstagInteractive.Convo</text>
<text text-anchor="middle" x="575" y="-55" font-family="Helvetica,sans-Serif" font-size="10.00">Core.ConvoCoreSampleUI3D</text>
</a>
</g>
</g>
<!-- Node22&#45;&gt;Node23 -->
<g id="edge15_Node000022_Node000023" class="edge">
<title>Node22&#45;&gt;Node23</title>
<g id="a_edge15_Node000022_Node000023"><a xlink:title=" ">
<path fill="none" stroke="#63b8ff" d="M421.34,-47.86C446.06,-50.31 472.67,-52.95 496.64,-55.33"/>
<polygon fill="#63b8ff" stroke="#63b8ff" points="421.54,-44.36 411.24,-46.86 420.85,-51.33 421.54,-44.36"/>
</a>
</g>
</g>
<!-- Node24 -->
<g id="Node000024" class="node">
<title>Node24</title>
<g id="a_Node000024"><a xlink:href="classWolfstagInteractive_1_1ConvoCore_1_1ConvoCoreSampleUICanvas.html" target="_top" xlink:title="Canvas&#45;space dialogue UI supporting both sprite and prefab&#45;in&#45;canvas character representations.">
<polygon fill="white" stroke="#666666" points="664.5,-30 485.5,-30 485.5,0 664.5,0 664.5,-30"/>
<text text-anchor="start" x="493.5" y="-18" font-family="Helvetica,sans-Serif" font-size="10.00">WolfstagInteractive.Convo</text>
<text text-anchor="middle" x="575" y="-7" font-family="Helvetica,sans-Serif" font-size="10.00">Core.ConvoCoreSampleUICanvas</text>
</a>
</g>
</g>
<!-- Node22&#45;&gt;Node24 -->
<g id="edge16_Node000022_Node000024" class="edge">
<title>Node22&#45;&gt;Node24</title>
<g id="a_edge16_Node000022_Node000024"><a xlink:title=" ">
<path fill="none" stroke="#63b8ff" d="M421.37,-30.14C442.27,-28.06 464.51,-25.86 485.37,-23.79"/>
<polygon fill="#63b8ff" stroke="#63b8ff" points="420.85,-26.67 411.24,-31.14 421.54,-33.64 420.85,-26.67"/>
</a>
</g>
</g>
<!-- Node6 -->
<g id="Node000006" class="node">
<title>Node6</title>
<g id="a_Node000006"><a xlink:title=" ">
<polygon fill="#e0e0e0" stroke="#999999" points="137.5,-423.5 44.5,-423.5 44.5,-404.5 137.5,-404.5 137.5,-423.5"/>
<text text-anchor="middle" x="91" y="-411.5" font-family="Helvetica,sans-Serif" font-size="10.00">MonoBehaviour</text>
</a>
</g>
</g>
<!-- Node6&#45;&gt;Node1 -->
<g id="edge19_Node000006_Node000001" class="edge">
<title>Node6&#45;&gt;Node1</title>
<g id="a_edge19_Node000006_Node000001"><a xlink:title=" ">
<path fill="none" stroke="#63b8ff" d="M100.89,-433.19C117.59,-469.52 154.46,-550.97 182,-621 199.6,-665.74 181.9,-691.25 218,-723 221.88,-726.41 226.13,-729.38 230.63,-731.96"/>
<polygon fill="#63b8ff" stroke="#63b8ff" points="103.93,-431.42 96.56,-423.81 97.57,-434.35 103.93,-431.42"/>
</a>
</g>
</g>
<!-- Node6&#45;&gt;Node16 -->
<g id="edge26_Node000006_Node000016" class="edge">
<title>Node6&#45;&gt;Node16</title>
<g id="a_edge26_Node000006_Node000016"><a xlink:title=" ">
<path fill="none" stroke="#63b8ff" d="M101.57,-432.94C119.42,-468.85 158.12,-549.63 182,-621 203.75,-686.02 168.93,-723.12 218,-771 228.1,-780.86 241.22,-787.1 254.9,-790.96"/>
<polygon fill="#63b8ff" stroke="#63b8ff" points="104.54,-431.05 96.93,-423.67 98.28,-434.18 104.54,-431.05"/>
</a>
</g>
</g>
<!-- Node6&#45;&gt;Node7 -->
<g id="edge17_Node000006_Node000007" class="edge">
<title>Node6&#45;&gt;Node7</title>
<g id="a_edge17_Node000006_Node000007"><a xlink:title=" ">
<path fill="none" stroke="#63b8ff" d="M100.09,-433.17C124.51,-490.64 197.05,-658.54 218,-675 229.49,-684.03 243.62,-689.85 257.92,-693.57"/>
<polygon fill="#63b8ff" stroke="#63b8ff" points="103.24,-431.63 96.12,-423.79 96.79,-434.36 103.24,-431.63"/>
</a>
</g>
</g>
<!-- Node6&#45;&gt;Node26 -->
<g id="edge31_Node000006_Node000026" class="edge">
<title>Node6&#45;&gt;Node26</title>
<g id="a_edge31_Node000006_Node000026"><a xlink:title=" ">
<path fill="none" stroke="#63b8ff" d="M98.51,-433.2C113.16,-473.41 152.62,-566.7 218,-615 222.78,-618.53 227.94,-621.64 233.34,-624.39"/>
<polygon fill="#63b8ff" stroke="#63b8ff" points="101.81,-432.03 95.18,-423.77 95.21,-434.36 101.81,-432.03"/>
</a>
</g>
</g>
<!-- Node6&#45;&gt;Node22 -->
<g id="edge30_Node000006_Node000022" class="edge">
<title>Node6&#45;&gt;Node22</title>
<g id="a_edge30_Node000006_Node000022"><a xlink:title=" ">
<path fill="none" stroke="#63b8ff" d="M92.74,-394.34C96.1,-334.51 114.76,-153.3 218,-63 227.36,-54.82 238.82,-49.2 250.8,-45.38"/>
<polygon fill="#63b8ff" stroke="#63b8ff" points="89.24,-394.18 92.26,-404.33 96.23,-394.51 89.24,-394.18"/>
</a>
</g>
</g>
<!-- Node9 -->
<g id="Node000009" class="node">
<title>Node9</title>
<g id="a_Node000009"><a xlink:href="classWolfstagInteractive_1_1ConvoCore_1_1ConvoCoreCameraRelativePosition.html" target="_top" xlink:title="Added at runtime to spawned characters by CameraRelativeBehaviour when using CameraRelativeBehaviour....">
<polygon fill="white" stroke="#666666" points="437.5,-402 224.5,-402 224.5,-372 437.5,-372 437.5,-402"/>
<text text-anchor="start" x="232.5" y="-390" font-family="Helvetica,sans-Serif" font-size="10.00">WolfstagInteractive.Convo</text>
<text text-anchor="middle" x="331" y="-379" font-family="Helvetica,sans-Serif" font-size="10.00">Core.ConvoCoreCameraRelativePosition</text>
</a>
</g>
</g>
<!-- Node6&#45;&gt;Node9 -->
<g id="edge18_Node000006_Node000009" class="edge">
<title>Node6&#45;&gt;Node9</title>
<g id="a_edge18_Node000006_Node000009"><a xlink:title=" ">
<path fill="none" stroke="#63b8ff" d="M147.8,-407.67C170.69,-405.07 197.97,-401.98 224.37,-398.98"/>
<polygon fill="#63b8ff" stroke="#63b8ff" points="147.15,-404.22 137.61,-408.83 147.94,-411.18 147.15,-404.22"/>
</a>
</g>
</g>
<!-- Node10 -->
<g id="Node000010" class="node">
<title>Node10</title>
<g id="a_Node000010"><a xlink:href="classWolfstagInteractive_1_1ConvoCore_1_1ConvoCoreDialogueHistoryUI.html" target="_top" xlink:title=" ">
<polygon fill="white" stroke="#666666" points="423.5,-354 238.5,-354 238.5,-324 423.5,-324 423.5,-354"/>
<text text-anchor="start" x="246.5" y="-342" font-family="Helvetica,sans-Serif" font-size="10.00">WolfstagInteractive.Convo</text>
<text text-anchor="middle" x="331" y="-331" font-family="Helvetica,sans-Serif" font-size="10.00">Core.ConvoCoreDialogueHistoryUI</text>
</a>
</g>
</g>
<!-- Node6&#45;&gt;Node10 -->
<g id="edge20_Node000006_Node000010" class="edge">
<title>Node6&#45;&gt;Node10</title>
<g id="a_edge20_Node000006_Node000010"><a xlink:title=" ">
<path fill="none" stroke="#63b8ff" d="M121.92,-400.17C147.12,-388.94 184.34,-373.33 218,-363 228.74,-359.7 240.2,-356.69 251.53,-354"/>
<polygon fill="#63b8ff" stroke="#63b8ff" points="120.24,-397.09 112.56,-404.39 123.11,-403.47 120.24,-397.09"/>
</a>
</g>
</g>
<!-- Node11 -->
<g id="Node000011" class="node">
<title>Node11</title>
<g id="a_Node000011"><a xlink:href="classWolfstagInteractive_1_1ConvoCore_1_1ConvoCoreFollowTarget.html" target="_top" xlink:title="Added at runtime to spawned characters by FollowTargetBehaviour.">
<polygon fill="white" stroke="#666666" points="409.5,-306 252.5,-306 252.5,-276 409.5,-276 409.5,-306"/>
<text text-anchor="start" x="260.5" y="-294" font-family="Helvetica,sans-Serif" font-size="10.00">WolfstagInteractive.Convo</text>
<text text-anchor="middle" x="331" y="-283" font-family="Helvetica,sans-Serif" font-size="10.00">Core.ConvoCoreFollowTarget</text>
</a>
</g>
</g>
<!-- Node6&#45;&gt;Node11 -->
<g id="edge21_Node000006_Node000011" class="edge">
<title>Node6&#45;&gt;Node11</title>
<g id="a_edge21_Node000006_Node000011"><a xlink:title=" ">
<path fill="none" stroke="#63b8ff" d="M108.15,-397.21C130.63,-374.89 173.61,-335.82 218,-315 228.71,-309.98 240.5,-305.99 252.27,-302.83"/>
<polygon fill="#63b8ff" stroke="#63b8ff" points="105.63,-394.79 101.09,-404.36 110.61,-399.71 105.63,-394.79"/>
</a>
</g>
</g>
<!-- Node12 -->
<g id="Node000012" class="node">
<title>Node12</title>
<g id="a_Node000012"><a xlink:href="classWolfstagInteractive_1_1ConvoCore_1_1ConvoCorePrefabPool.html" target="_top" xlink:title=" ">
<polygon fill="white" stroke="#666666" points="405,-258 257,-258 257,-228 405,-228 405,-258"/>
<text text-anchor="start" x="265" y="-246" font-family="Helvetica,sans-Serif" font-size="10.00">WolfstagInteractive.Convo</text>
<text text-anchor="middle" x="331" y="-235" font-family="Helvetica,sans-Serif" font-size="10.00">Core.ConvoCorePrefabPool</text>
</a>
</g>
</g>
<!-- Node6&#45;&gt;Node12 -->
<g id="edge22_Node000006_Node000012" class="edge">
<title>Node6&#45;&gt;Node12</title>
<g id="a_edge22_Node000006_Node000012"><a xlink:title=" ">
<path fill="none" stroke="#63b8ff" d="M102.3,-395.49C120.97,-363.78 163.55,-299.39 218,-267 229.79,-259.99 243.36,-255.01 256.9,-251.48"/>
<polygon fill="#63b8ff" stroke="#63b8ff" points="99.24,-393.79 97.29,-404.2 105.31,-397.28 99.24,-393.79"/>
</a>
</g>
</g>
<!-- Node13 -->
<g id="Node000013" class="node">
<title>Node13</title>
<g id="a_Node000013"><a xlink:href="classWolfstagInteractive_1_1ConvoCore_1_1ConvoCorePrefabRepresentationSpawner.html" target="_top" xlink:title="Resolves, tracks, and releases prefab&#45;based character displays for a single UI instance.">
<polygon fill="white" stroke="#666666" points="431.5,-209.5 230.5,-209.5 230.5,-168.5 431.5,-168.5 431.5,-209.5"/>
<text text-anchor="start" x="238.5" y="-197.5" font-family="Helvetica,sans-Serif" font-size="10.00">WolfstagInteractive.Convo</text>
<text text-anchor="start" x="238.5" y="-186.5" font-family="Helvetica,sans-Serif" font-size="10.00">Core.ConvoCorePrefabRepresentation</text>
<text text-anchor="middle" x="331" y="-175.5" font-family="Helvetica,sans-Serif" font-size="10.00">Spawner</text>
</a>
</g>
</g>
<!-- Node6&#45;&gt;Node13 -->
<g id="edge23_Node000006_Node000013" class="edge">
<title>Node6&#45;&gt;Node13</title>
<g id="a_edge23_Node000006_Node000013"><a xlink:title=" ">
<path fill="none" stroke="#63b8ff" d="M98.99,-394.57C114.19,-355.13 154.13,-265.51 218,-219 222.88,-215.44 228.16,-212.31 233.67,-209.55"/>
<polygon fill="#63b8ff" stroke="#63b8ff" points="95.66,-393.48 95.43,-404.08 102.21,-395.94 95.66,-393.48"/>
</a>
</g>
</g>
<!-- Node14 -->
<g id="Node000014" class="node">
<title>Node14</title>
<g id="a_Node000014"><a xlink:href="classWolfstagInteractive_1_1ConvoCore_1_1ConvoCoreSceneCharacterRegistrant.html" target="_top" xlink:title="Add this component to any scene GameObject that should be driven by ConvoCore as a scene&#45;resident cha...">
<polygon fill="white" stroke="#666666" points="442,-150 220,-150 220,-120 442,-120 442,-150"/>
<text text-anchor="start" x="228" y="-138" font-family="Helvetica,sans-Serif" font-size="10.00">WolfstagInteractive.Convo</text>
<text text-anchor="middle" x="331" y="-127" font-family="Helvetica,sans-Serif" font-size="10.00">Core.ConvoCoreSceneCharacterRegistrant</text>
</a>
</g>
</g>
<!-- Node6&#45;&gt;Node14 -->
<g id="edge24_Node000006_Node000014" class="edge">
<title>Node6&#45;&gt;Node14</title>
<g id="a_edge24_Node000006_Node000014"><a xlink:title=" ">
<path fill="none" stroke="#63b8ff" d="M95.75,-394.25C105.99,-346.06 139.1,-221.86 218,-160 222.94,-156.13 228.36,-152.83 234.06,-150.02"/>
<polygon fill="#63b8ff" stroke="#63b8ff" points="92.27,-393.81 93.72,-404.31 99.13,-395.2 92.27,-393.81"/>
</a>
</g>
</g>
<!-- Node15 -->
<g id="Node000015" class="node">
<title>Node15</title>
<g id="a_Node000015"><a xlink:href="classWolfstagInteractive_1_1ConvoCore_1_1ConvoCoreSceneCharacterRegistry.html" target="_top" xlink:title="Scene&#45;level registry that maps developer&#45;assigned string IDs to IConvoCoreCharacterDisplay instances ...">
<polygon fill="white" stroke="#666666" points="437,-102 225,-102 225,-72 437,-72 437,-102"/>
<text text-anchor="start" x="233" y="-90" font-family="Helvetica,sans-Serif" font-size="10.00">WolfstagInteractive.Convo</text>
<text text-anchor="middle" x="331" y="-79" font-family="Helvetica,sans-Serif" font-size="10.00">Core.ConvoCoreSceneCharacterRegistry</text>
</a>
</g>
</g>
<!-- Node6&#45;&gt;Node15 -->
<g id="edge25_Node000006_Node000015" class="edge">
<title>Node6&#45;&gt;Node15</title>
<g id="a_edge25_Node000006_Node000015"><a xlink:title=" ">
<path fill="none" stroke="#63b8ff" d="M94,-394.18C100.61,-339.73 126.82,-186.86 218,-111 222.13,-107.57 226.63,-104.59 231.38,-102.01"/>
<polygon fill="#63b8ff" stroke="#63b8ff" points="90.51,-393.92 92.87,-404.24 97.47,-394.7 90.51,-393.92"/>
</a>
</g>
</g>
<!-- Node19 -->
<g id="Node000019" class="node">
<title>Node19</title>
<g id="a_Node000019"><a xlink:href="classWolfstagInteractive_1_1ConvoCore_1_1ConvoCoreSpawnPoint.html" target="_top" xlink:title="Lightweight scene marker used by WorldPointBehaviour to define named spawn positions.">
<polygon fill="white" stroke="#666666" points="407,-606 255,-606 255,-576 407,-576 407,-606"/>
<text text-anchor="start" x="263" y="-594" font-family="Helvetica,sans-Serif" font-size="10.00">WolfstagInteractive.Convo</text>
<text text-anchor="middle" x="331" y="-583" font-family="Helvetica,sans-Serif" font-size="10.00">Core.ConvoCoreSpawnPoint</text>
</a>
</g>
</g>
<!-- Node6&#45;&gt;Node19 -->
<g id="edge27_Node000006_Node000019" class="edge">
<title>Node6&#45;&gt;Node19</title>
<g id="a_edge27_Node000006_Node000019"><a xlink:title=" ">
<path fill="none" stroke="#63b8ff" d="M101.84,-432.8C120.06,-465.63 162.32,-533.13 218,-567 229.13,-573.77 241.89,-578.65 254.73,-582.15"/>
<polygon fill="#63b8ff" stroke="#63b8ff" points="104.81,-430.93 96.97,-423.8 98.65,-434.26 104.81,-430.93"/>
</a>
</g>
</g>
<!-- Node20 -->
<g id="Node000020" class="node">
<title>Node20</title>
<g id="a_Node000020"><a xlink:href="classWolfstagInteractive_1_1ConvoCore_1_1ConvoCoreSpawnPointRegistry.html" target="_top" xlink:title="Scene singleton that tracks all ConvoCoreSpawnPoint instances by their ID.">
<polygon fill="white" stroke="#666666" points="427.5,-558 234.5,-558 234.5,-528 427.5,-528 427.5,-558"/>
<text text-anchor="start" x="242.5" y="-546" font-family="Helvetica,sans-Serif" font-size="10.00">WolfstagInteractive.Convo</text>
<text text-anchor="middle" x="331" y="-535" font-family="Helvetica,sans-Serif" font-size="10.00">Core.ConvoCoreSpawnPointRegistry</text>
</a>
</g>
</g>
<!-- Node6&#45;&gt;Node20 -->
<g id="edge28_Node000006_Node000020" class="edge">
<title>Node6&#45;&gt;Node20</title>
<g id="a_edge28_Node000006_Node000020"><a xlink:title=" ">
<path fill="none" stroke="#63b8ff" d="M107.27,-431.12C129.31,-454.72 172.42,-496.82 218,-519 225.06,-522.44 232.61,-525.39 240.33,-527.91"/>
<polygon fill="#63b8ff" stroke="#63b8ff" points="109.72,-428.62 100.38,-423.61 104.56,-433.35 109.72,-428.62"/>
</a>
</g>
</g>
<!-- Node21 -->
<g id="Node000021" class="node">
<title>Node21</title>
<g id="a_Node000021"><a xlink:href="classWolfstagInteractive_1_1ConvoCore_1_1ConvoCoreTransformLerp.html" target="_top" xlink:title="Added at runtime by TransformLerpBehaviour to smoothly move a character&#39;s Transform to a target posit...">
<polygon fill="white" stroke="#666666" points="413.5,-510 248.5,-510 248.5,-480 413.5,-480 413.5,-510"/>
<text text-anchor="start" x="256.5" y="-498" font-family="Helvetica,sans-Serif" font-size="10.00">WolfstagInteractive.Convo</text>
<text text-anchor="middle" x="331" y="-487" font-family="Helvetica,sans-Serif" font-size="10.00">Core.ConvoCoreTransformLerp</text>
</a>
</g>
</g>
<!-- Node6&#45;&gt;Node21 -->
<g id="edge29_Node000006_Node000021" class="edge">
<title>Node6&#45;&gt;Node21</title>
<g id="a_edge29_Node000006_Node000021"><a xlink:title=" ">
<path fill="none" stroke="#63b8ff" d="M118.77,-428.14C143.83,-440.88 182.61,-459.35 218,-471 228.11,-474.33 238.88,-477.31 249.6,-479.95"/>
<polygon fill="#63b8ff" stroke="#63b8ff" points="120.37,-425.03 109.87,-423.56 117.16,-431.25 120.37,-425.03"/>
</a>
</g>
</g>
<!-- Node28 -->
<g id="Node000028" class="node">
<title>Node28</title>
<g id="a_Node000028"><a xlink:href="classWolfstagInteractive_1_1ConvoCore_1_1SaveSystem_1_1ConvoCoreSaveManagerBootstrapper.html" target="_top" xlink:title=" ">
<polygon fill="white" stroke="#666666" points="444,-461.5 218,-461.5 218,-420.5 444,-420.5 444,-461.5"/>
<text text-anchor="start" x="226" y="-449.5" font-family="Helvetica,sans-Serif" font-size="10.00">WolfstagInteractive.Convo</text>
<text text-anchor="start" x="226" y="-438.5" font-family="Helvetica,sans-Serif" font-size="10.00">Core.SaveSystem.ConvoCoreSaveManager</text>
<text text-anchor="middle" x="331" y="-427.5" font-family="Helvetica,sans-Serif" font-size="10.00">Bootstrapper</text>
</a>
</g>
</g>
<!-- Node6&#45;&gt;Node28 -->
<g id="edge32_Node000006_Node000028" class="edge">
<title>Node6&#45;&gt;Node28</title>
<g id="a_edge32_Node000006_Node000028"><a xlink:title=" ">
<path fill="none" stroke="#63b8ff" d="M147.62,-420.31C168.68,-422.7 193.46,-425.51 217.87,-428.28"/>
<polygon fill="#63b8ff" stroke="#63b8ff" points="147.94,-416.82 137.61,-419.17 147.15,-423.78 147.94,-416.82"/>
</a>
</g>
</g>
</g>
</svg>
