<?xml version="1.0" encoding="UTF-8" standalone="no"?>
<!DOCTYPE svg PUBLIC "-//W3C//DTD SVG 1.1//EN"
 "http://www.w3.org/Graphics/SVG/1.1/DTD/svg11.dtd">
<!-- Generated by graphviz version 2.43.0 (0)
 -->
<!-- Title: Graphical Class Hierarchy Pages: 1 -->
<svg width="712pt" height="606pt"
 viewBox="0.00 0.00 712.00 606.00" xmlns="http://www.w3.org/2000/svg" xmlns:xlink="http://www.w3.org/1999/xlink">
<g id="graph0" class="graph" transform="scale(1 1) rotate(0) translate(4 602)">
<title>Graphical Class Hierarchy</title>
<!-- Node0 -->
<g id="Node000000" class="node">
<title>Node0</title>
<g id="a_Node000000"><a xlink:href="interfaceWolfstagInteractive_1_1ConvoCore_1_1IEditorPreviewableRepresentation.html" target="_top" xlink:title=" ">
<polygon fill="white" stroke="#666666" points="208,-550 0,-550 0,-520 208,-520 208,-550"/>
<text text-anchor="start" x="8" y="-538" font-family="Helvetica,sans-Serif" font-size="10.00">WolfstagInteractive.Convo</text>
<text text-anchor="middle" x="104" y="-527" font-family="Helvetica,sans-Serif" font-size="10.00">Core.IEditorPreviewableRepresentation</text>
</a>
</g>
</g>
<!-- Node1 -->
<g id="Node000001" class="node">
<title>Node1</title>
<g id="a_Node000001"><a xlink:href="classWolfstagInteractive_1_1ConvoCore_1_1CharacterRepresentationBase.html" target="_top" xlink:title=" ">
<polygon fill="white" stroke="#666666" points="441,-550 253,-550 253,-520 441,-520 441,-550"/>
<text text-anchor="start" x="261" y="-538" font-family="Helvetica,sans-Serif" font-size="10.00">WolfstagInteractive.Convo</text>
<text text-anchor="middle" x="347" y="-527" font-family="Helvetica,sans-Serif" font-size="10.00">Core.CharacterRepresentationBase</text>
</a>
</g>
</g>
<!-- Node0&#45;&gt;Node1 -->
<g id="edge25_Node000000_Node000001" class="edge">
<title>Node0&#45;&gt;Node1</title>
<g id="a_edge25_Node000000_Node000001"><a xlink:title=" ">
<path fill="none" stroke="#63b8ff" d="M218.37,-535C229.92,-535 241.56,-535 252.86,-535"/>
<polygon fill="#63b8ff" stroke="#63b8ff" points="218.25,-531.5 208.25,-535 218.25,-538.5 218.25,-531.5"/>
</a>
</g>
</g>
<!-- Node2 -->
<g id="Node000002" class="node">
<title>Node2</title>
<g id="a_Node000002"><a xlink:href="classWolfstagInteractive_1_1ConvoCore_1_1PrefabCharacterRepresentationData.html" target="_top" xlink:title=" ">
<polygon fill="white" stroke="#666666" points="704,-598 486,-598 486,-568 704,-568 704,-598"/>
<text text-anchor="start" x="494" y="-586" font-family="Helvetica,sans-Serif" font-size="10.00">WolfstagInteractive.Convo</text>
<text text-anchor="middle" x="595" y="-575" font-family="Helvetica,sans-Serif" font-size="10.00">Core.PrefabCharacterRepresentationData</text>
</a>
</g>
</g>
<!-- Node1&#45;&gt;Node2 -->
<g id="edge26_Node000001_Node000002" class="edge">
<title>Node1&#45;&gt;Node2</title>
<g id="a_edge26_Node000001_Node000002"><a xlink:title=" ">
<path fill="none" stroke="#63b8ff" d="M435.27,-552.03C461.98,-557.24 491.15,-562.93 517.11,-568"/>
<polygon fill="#63b8ff" stroke="#63b8ff" points="435.65,-548.54 425.16,-550.06 434.31,-555.41 435.65,-548.54"/>
</a>
</g>
</g>
<!-- Node3 -->
<g id="Node000003" class="node">
<title>Node3</title>
<g id="a_Node000003"><a xlink:href="classWolfstagInteractive_1_1ConvoCore_1_1SpriteCharacterRepresentationData.html" target="_top" xlink:title=" ">
<polygon fill="white" stroke="#666666" points="702.5,-550 487.5,-550 487.5,-520 702.5,-520 702.5,-550"/>
<text text-anchor="start" x="495.5" y="-538" font-family="Helvetica,sans-Serif" font-size="10.00">WolfstagInteractive.Convo</text>
<text text-anchor="middle" x="595" y="-527" font-family="Helvetica,sans-Serif" font-size="10.00">Core.SpriteCharacterRepresentationData</text>
</a>
</g>
</g>
<!-- Node1&#45;&gt;Node3 -->
<g id="edge27_Node000001_Node000003" class="edge">
<title>Node1&#45;&gt;Node3</title>
<g id="a_edge27_Node000001_Node000003"><a xlink:title=" ">
<path fill="none" stroke="#63b8ff" d="M451.35,-535C463.22,-535 475.34,-535 487.25,-535"/>
<polygon fill="#63b8ff" stroke="#63b8ff" points="451,-531.5 441,-535 451,-538.5 451,-531.5"/>
</a>
</g>
</g>
<!-- Node4 -->
<g id="Node000004" class="node">
<title>Node4</title>
<g id="a_Node000004"><a xlink:title=" ">
<polygon fill="#e0e0e0" stroke="#999999" points="152.5,-249.5 55.5,-249.5 55.5,-230.5 152.5,-230.5 152.5,-249.5"/>
<text text-anchor="middle" x="104" y="-237.5" font-family="Helvetica,sans-Serif" font-size="10.00">ScriptableObject</text>
</a>
</g>
</g>
<!-- Node4&#45;&gt;Node1 -->
<g id="edge36_Node000004_Node000001" class="edge">
<title>Node4&#45;&gt;Node1</title>
<g id="a_edge36_Node000004_Node000001"><a xlink:title=" ">
<path fill="none" stroke="#63b8ff" d="M117.46,-257.83C141.11,-291.38 194.56,-365.82 244,-425 273.39,-460.18 310.58,-498.98 330.95,-519.79"/>
<polygon fill="#63b8ff" stroke="#63b8ff" points="120.22,-255.67 111.61,-249.5 114.5,-259.7 120.22,-255.67"/>
</a>
</g>
</g>
<!-- Node5 -->
<g id="Node000005" class="node">
<title>Node5</title>
<g id="a_Node000005"><a xlink:href="classBaseExpressionAction.html" target="_top" xlink:title=" ">
<polygon fill="white" stroke="#666666" points="409.5,-415.5 284.5,-415.5 284.5,-396.5 409.5,-396.5 409.5,-415.5"/>
<text text-anchor="middle" x="347" y="-403.5" font-family="Helvetica,sans-Serif" font-size="10.00">BaseExpressionAction</text>
</a>
</g>
</g>
<!-- Node4&#45;&gt;Node5 -->
<g id="edge28_Node000004_Node000005" class="edge">
<title>Node4&#45;&gt;Node5</title>
<g id="a_edge28_Node000004_Node000005"><a xlink:title=" ">
<path fill="none" stroke="#63b8ff" d="M116.77,-258.66C137.98,-290.6 185.86,-355.33 244,-387 256.26,-393.68 270.44,-398.05 284.27,-400.91"/>
<polygon fill="#63b8ff" stroke="#63b8ff" points="119.44,-256.36 111.06,-249.88 113.57,-260.17 119.44,-256.36"/>
</a>
</g>
</g>
<!-- Node6 -->
<g id="Node000006" class="node">
<title>Node6</title>
<g id="a_Node000006"><a xlink:href="classWolfstagInteractive_1_1ConvoCore_1_1BaseDialogueLineAction.html" target="_top" xlink:title=" ">
<polygon fill="white" stroke="#666666" points="427.5,-378 266.5,-378 266.5,-348 427.5,-348 427.5,-378"/>
<text text-anchor="start" x="274.5" y="-366" font-family="Helvetica,sans-Serif" font-size="10.00">WolfstagInteractive.Convo</text>
<text text-anchor="middle" x="347" y="-355" font-family="Helvetica,sans-Serif" font-size="10.00">Core.BaseDialogueLineAction</text>
</a>
</g>
</g>
<!-- Node4&#45;&gt;Node6 -->
<g id="edge29_Node000004_Node000006" class="edge">
<title>Node4&#45;&gt;Node6</title>
<g id="a_edge29_Node000004_Node000006"><a xlink:title=" ">
<path fill="none" stroke="#63b8ff" d="M122.9,-256.29C148.07,-278.33 196.23,-317.38 244,-339 251.54,-342.41 259.62,-345.37 267.82,-347.93"/>
<polygon fill="#63b8ff" stroke="#63b8ff" points="125.07,-253.54 115.27,-249.52 120.42,-258.78 125.07,-253.54"/>
</a>
</g>
</g>
<!-- Node13 -->
<g id="Node000013" class="node">
<title>Node13</title>
<g id="a_Node000013"><a xlink:href="classWolfstagInteractive_1_1ConvoCore_1_1ConversationContainer.html" target="_top" xlink:title=" ">
<polygon fill="white" stroke="#666666" points="424,-330 270,-330 270,-300 424,-300 424,-330"/>
<text text-anchor="start" x="278" y="-318" font-family="Helvetica,sans-Serif" font-size="10.00">WolfstagInteractive.Convo</text>
<text text-anchor="middle" x="347" y="-307" font-family="Helvetica,sans-Serif" font-size="10.00">Core.ConversationContainer</text>
</a>
</g>
</g>
<!-- Node4&#45;&gt;Node13 -->
<g id="edge37_Node000004_Node000013" class="edge">
<title>Node4&#45;&gt;Node13</title>
<g id="a_edge37_Node000004_Node000013"><a xlink:title=" ">
<path fill="none" stroke="#63b8ff" d="M137.97,-253.38C165.9,-264.4 207.16,-279.95 244,-291 254.63,-294.19 265.98,-297.22 277.12,-299.99"/>
<polygon fill="#63b8ff" stroke="#63b8ff" points="138.9,-249.98 128.32,-249.54 136.32,-256.49 138.9,-249.98"/>
</a>
</g>
</g>
<!-- Node14 -->
<g id="Node000014" class="node">
<title>Node14</title>
<g id="a_Node000014"><a xlink:href="classWolfstagInteractive_1_1ConvoCore_1_1ConvoCoreCharacterExpression.html" target="_top" xlink:title=" ">
<polygon fill="white" stroke="#666666" points="445,-282 249,-282 249,-252 445,-252 445,-282"/>
<text text-anchor="start" x="257" y="-270" font-family="Helvetica,sans-Serif" font-size="10.00">WolfstagInteractive.Convo</text>
<text text-anchor="middle" x="347" y="-259" font-family="Helvetica,sans-Serif" font-size="10.00">Core.ConvoCoreCharacterExpression</text>
</a>
</g>
</g>
<!-- Node4&#45;&gt;Node14 -->
<g id="edge38_Node000004_Node000014" class="edge">
<title>Node4&#45;&gt;Node14</title>
<g id="a_edge38_Node000004_Node000014"><a xlink:title=" ">
<path fill="none" stroke="#63b8ff" d="M162.57,-246.45C188.34,-249.34 219.44,-252.82 248.65,-256.09"/>
<polygon fill="#63b8ff" stroke="#63b8ff" points="162.94,-242.97 152.61,-245.33 162.16,-249.93 162.94,-242.97"/>
</a>
</g>
</g>
<!-- Node15 -->
<g id="Node000015" class="node">
<title>Node15</title>
<g id="a_Node000015"><a xlink:href="classWolfstagInteractive_1_1ConvoCore_1_1ConvoCoreCharacterProfileBaseData.html" target="_top" xlink:title=" ">
<polygon fill="white" stroke="#666666" points="433.5,-233.5 260.5,-233.5 260.5,-192.5 433.5,-192.5 433.5,-233.5"/>
<text text-anchor="start" x="268.5" y="-221.5" font-family="Helvetica,sans-Serif" font-size="10.00">WolfstagInteractive.Convo</text>
<text text-anchor="start" x="268.5" y="-210.5" font-family="Helvetica,sans-Serif" font-size="10.00">Core.ConvoCoreCharacterProfile</text>
<text text-anchor="middle" x="347" y="-199.5" font-family="Helvetica,sans-Serif" font-size="10.00">BaseData</text>
</a>
</g>
</g>
<!-- Node4&#45;&gt;Node15 -->
<g id="edge39_Node000004_Node000015" class="edge">
<title>Node4&#45;&gt;Node15</title>
<g id="a_edge39_Node000004_Node000015"><a xlink:title=" ">
<path fill="none" stroke="#63b8ff" d="M162.66,-233.54C191.91,-230.26 228.02,-226.22 260.44,-222.59"/>
<polygon fill="#63b8ff" stroke="#63b8ff" points="162.16,-230.07 152.61,-234.67 162.94,-237.03 162.16,-230.07"/>
</a>
</g>
</g>
<!-- Node16 -->
<g id="Node000016" class="node">
<title>Node16</title>
<g id="a_Node000016"><a xlink:href="classWolfstagInteractive_1_1ConvoCore_1_1ConvoCoreConversationData.html" target="_top" xlink:title=" ">
<polygon fill="white" stroke="#666666" points="438.5,-174 255.5,-174 255.5,-144 438.5,-144 438.5,-174"/>
<text text-anchor="start" x="263.5" y="-162" font-family="Helvetica,sans-Serif" font-size="10.00">WolfstagInteractive.Convo</text>
<text text-anchor="middle" x="347" y="-151" font-family="Helvetica,sans-Serif" font-size="10.00">Core.ConvoCoreConversationData</text>
</a>
</g>
</g>
<!-- Node4&#45;&gt;Node16 -->
<g id="edge40_Node000004_Node000016" class="edge">
<title>Node4&#45;&gt;Node16</title>
<g id="a_edge40_Node000004_Node000016"><a xlink:title=" ">
<path fill="none" stroke="#63b8ff" d="M134.51,-226.3C162.31,-213.78 205.34,-195.39 244,-183 254.13,-179.75 264.96,-176.74 275.64,-174.01"/>
<polygon fill="#63b8ff" stroke="#63b8ff" points="133,-223.14 125.35,-230.46 135.9,-229.52 133,-223.14"/>
</a>
</g>
</g>
<!-- Node17 -->
<g id="Node000017" class="node">
<title>Node17</title>
<g id="a_Node000017"><a xlink:href="classWolfstagInteractive_1_1ConvoCore_1_1ConvoCoreHistoryRendererProfile.html" target="_top" xlink:title=" ">
<polygon fill="white" stroke="#666666" points="450,-126 244,-126 244,-96 450,-96 450,-126"/>
<text text-anchor="start" x="252" y="-114" font-family="Helvetica,sans-Serif" font-size="10.00">WolfstagInteractive.Convo</text>
<text text-anchor="middle" x="347" y="-103" font-family="Helvetica,sans-Serif" font-size="10.00">Core.ConvoCoreHistoryRendererProfile</text>
</a>
</g>
</g>
<!-- Node4&#45;&gt;Node17 -->
<g id="edge41_Node000004_Node000017" class="edge">
<title>Node4&#45;&gt;Node17</title>
<g id="a_edge41_Node000004_Node000017"><a xlink:title=" ">
<path fill="none" stroke="#63b8ff" d="M122.32,-223.03C147.16,-199.66 195.3,-157.87 244,-135 251.33,-131.56 259.19,-128.59 267.18,-126.03"/>
<polygon fill="#63b8ff" stroke="#63b8ff" points="119.64,-220.75 114.83,-230.19 124.47,-225.81 119.64,-220.75"/>
</a>
</g>
</g>
<!-- Node18 -->
<g id="Node000018" class="node">
<title>Node18</title>
<g id="a_Node000018"><a xlink:href="classWolfstagInteractive_1_1ConvoCore_1_1ConvoCoreLanguageSettings.html" target="_top" xlink:title=" ">
<polygon fill="white" stroke="#666666" points="438,-78 256,-78 256,-48 438,-48 438,-78"/>
<text text-anchor="start" x="264" y="-66" font-family="Helvetica,sans-Serif" font-size="10.00">WolfstagInteractive.Convo</text>
<text text-anchor="middle" x="347" y="-55" font-family="Helvetica,sans-Serif" font-size="10.00">Core.ConvoCoreLanguageSettings</text>
</a>
</g>
</g>
<!-- Node4&#45;&gt;Node18 -->
<g id="edge42_Node000004_Node000018" class="edge">
<title>Node4&#45;&gt;Node18</title>
<g id="a_edge42_Node000004_Node000018"><a xlink:title=" ">
<path fill="none" stroke="#63b8ff" d="M116.16,-221.75C137.02,-189.28 185.18,-121.64 244,-87 249.88,-83.54 256.22,-80.58 262.77,-78.04"/>
<polygon fill="#63b8ff" stroke="#63b8ff" points="113.16,-219.94 110.8,-230.27 119.09,-223.67 113.16,-219.94"/>
</a>
</g>
</g>
<!-- Node19 -->
<g id="Node000019" class="node">
<title>Node19</title>
<g id="a_Node000019"><a xlink:href="classWolfstagInteractive_1_1ConvoCore_1_1ConvoCoreSettings.html" target="_top" xlink:title=" ">
<polygon fill="white" stroke="#666666" points="420,-30 274,-30 274,0 420,0 420,-30"/>
<text text-anchor="start" x="282" y="-18" font-family="Helvetica,sans-Serif" font-size="10.00">WolfstagInteractive.Convo</text>
<text text-anchor="middle" x="347" y="-7" font-family="Helvetica,sans-Serif" font-size="10.00">Core.ConvoCoreSettings</text>
</a>
</g>
</g>
<!-- Node4&#45;&gt;Node19 -->
<g id="edge43_Node000004_Node000019" class="edge">
<title>Node4&#45;&gt;Node19</title>
<g id="a_edge43_Node000004_Node000019"><a xlink:title=" ">
<path fill="none" stroke="#63b8ff" d="M112.54,-220.88C129.5,-180.48 174.67,-86.27 244,-39 252.94,-32.9 263.24,-28.34 273.78,-24.94"/>
<polygon fill="#63b8ff" stroke="#63b8ff" points="109.3,-219.56 108.75,-230.14 115.78,-222.21 109.3,-219.56"/>
</a>
</g>
</g>
<!-- Node7 -->
<g id="Node000007" class="node">
<title>Node7</title>
<g id="a_Node000007"><a xlink:href="classWolfstagInteractive_1_1ConvoCore_1_1ConvoCoreDialogueLineActionDialogueLineActionGroup.html" target="_top" xlink:title=" ">
<polygon fill="white" stroke="#666666" points="690,-501.5 500,-501.5 500,-460.5 690,-460.5 690,-501.5"/>
<text text-anchor="start" x="508" y="-489.5" font-family="Helvetica,sans-Serif" font-size="10.00">WolfstagInteractive.Convo</text>
<text text-anchor="start" x="508" y="-478.5" font-family="Helvetica,sans-Serif" font-size="10.00">Core.ConvoCoreDialogueLineAction</text>
<text text-anchor="middle" x="595" y="-467.5" font-family="Helvetica,sans-Serif" font-size="10.00">DialogueLineActionGroup</text>
</a>
</g>
</g>
<!-- Node6&#45;&gt;Node7 -->
<g id="edge30_Node000006_Node000007" class="edge">
<title>Node6&#45;&gt;Node7</title>
<g id="a_edge30_Node000006_Node000007"><a xlink:title=" ">
<path fill="none" stroke="#63b8ff" d="M436.76,-379.74C441.43,-382.14 445.89,-384.88 450,-388 475.99,-407.73 460.23,-431.98 486,-452 490.29,-455.33 494.94,-458.29 499.81,-460.9"/>
<polygon fill="#63b8ff" stroke="#63b8ff" points="438.11,-376.5 427.56,-375.52 435.2,-382.87 438.11,-376.5"/>
</a>
</g>
</g>
<!-- Node8 -->
<g id="Node000008" class="node">
<title>Node8</title>
<g id="a_Node000008"><a xlink:href="classWolfstagInteractive_1_1ConvoCore_1_1ConvoCoreDialogueLineActionEnableDisableGameObject.html" target="_top" xlink:title=" ">
<polygon fill="white" stroke="#666666" points="690,-442.5 500,-442.5 500,-401.5 690,-401.5 690,-442.5"/>
<text text-anchor="start" x="508" y="-430.5" font-family="Helvetica,sans-Serif" font-size="10.00">WolfstagInteractive.Convo</text>
<text text-anchor="start" x="508" y="-419.5" font-family="Helvetica,sans-Serif" font-size="10.00">Core.ConvoCoreDialogueLineAction</text>
<text text-anchor="middle" x="595" y="-408.5" font-family="Helvetica,sans-Serif" font-size="10.00">EnableDisableGameObject</text>
</a>
</g>
</g>
<!-- Node6&#45;&gt;Node8 -->
<g id="edge31_Node000006_Node000008" class="edge">
<title>Node6&#45;&gt;Node8</title>
<g id="a_edge31_Node000006_Node000008"><a xlink:title=" ">
<path fill="none" stroke="#63b8ff" d="M420.64,-380.42C448.11,-387.01 479.63,-394.57 508.2,-401.42"/>
<polygon fill="#63b8ff" stroke="#63b8ff" points="421.25,-376.97 410.71,-378.04 419.62,-383.78 421.25,-376.97"/>
</a>
</g>
</g>
<!-- Node9 -->
<g id="Node000009" class="node">
<title>Node9</title>
<g id="a_Node000009"><a xlink:href="classWolfstagInteractive_1_1ConvoCore_1_1ConvoCoreDialogueLineActionFadeInOutSpriteRenderer.html" target="_top" xlink:title=" ">
<polygon fill="white" stroke="#666666" points="690,-383.5 500,-383.5 500,-342.5 690,-342.5 690,-383.5"/>
<text text-anchor="start" x="508" y="-371.5" font-family="Helvetica,sans-Serif" font-size="10.00">WolfstagInteractive.Convo</text>
<text text-anchor="start" x="508" y="-360.5" font-family="Helvetica,sans-Serif" font-size="10.00">Core.ConvoCoreDialogueLineAction</text>
<text text-anchor="middle" x="595" y="-349.5" font-family="Helvetica,sans-Serif" font-size="10.00">FadeInOutSpriteRenderer</text>
</a>
</g>
</g>
<!-- Node6&#45;&gt;Node9 -->
<g id="edge32_Node000006_Node000009" class="edge">
<title>Node6&#45;&gt;Node9</title>
<g id="a_edge32_Node000006_Node000009"><a xlink:title=" ">
<path fill="none" stroke="#63b8ff" d="M437.65,-363C457.85,-363 479.35,-363 499.73,-363"/>
<polygon fill="#63b8ff" stroke="#63b8ff" points="437.53,-359.5 427.53,-363 437.53,-366.5 437.53,-359.5"/>
</a>
</g>
</g>
<!-- Node10 -->
<g id="Node000010" class="node">
<title>Node10</title>
<g id="a_Node000010"><a xlink:href="classWolfstagInteractive_1_1ConvoCore_1_1ConvoCoreDialogueLineActionInstantiatePrefab.html" target="_top" xlink:title=" ">
<polygon fill="white" stroke="#666666" points="690,-324.5 500,-324.5 500,-283.5 690,-283.5 690,-324.5"/>
<text text-anchor="start" x="508" y="-312.5" font-family="Helvetica,sans-Serif" font-size="10.00">WolfstagInteractive.Convo</text>
<text text-anchor="start" x="508" y="-301.5" font-family="Helvetica,sans-Serif" font-size="10.00">Core.ConvoCoreDialogueLineAction</text>
<text text-anchor="middle" x="595" y="-290.5" font-family="Helvetica,sans-Serif" font-size="10.00">InstantiatePrefab</text>
</a>
</g>
</g>
<!-- Node6&#45;&gt;Node10 -->
<g id="edge33_Node000006_Node000010" class="edge">
<title>Node6&#45;&gt;Node10</title>
<g id="a_edge33_Node000006_Node000010"><a xlink:title=" ">
<path fill="none" stroke="#63b8ff" d="M421.99,-345.66C431.42,-343.43 440.94,-341.17 450,-339 469.39,-334.36 490.24,-329.32 509.89,-324.55"/>
<polygon fill="#63b8ff" stroke="#63b8ff" points="421.15,-342.26 412.22,-347.96 422.76,-349.07 421.15,-342.26"/>
</a>
</g>
</g>
<!-- Node11 -->
<g id="Node000011" class="node">
<title>Node11</title>
<g id="a_Node000011"><a xlink:href="classWolfstagInteractive_1_1ConvoCore_1_1ConvoCoreDialogueLineActionModifyTransform.html" target="_top" xlink:title=" ">
<polygon fill="white" stroke="#666666" points="690,-265.5 500,-265.5 500,-224.5 690,-224.5 690,-265.5"/>
<text text-anchor="start" x="508" y="-253.5" font-family="Helvetica,sans-Serif" font-size="10.00">WolfstagInteractive.Convo</text>
<text text-anchor="start" x="508" y="-242.5" font-family="Helvetica,sans-Serif" font-size="10.00">Core.ConvoCoreDialogueLineAction</text>
<text text-anchor="middle" x="595" y="-231.5" font-family="Helvetica,sans-Serif" font-size="10.00">ModifyTransform</text>
</a>
</g>
</g>
<!-- Node6&#45;&gt;Node11 -->
<g id="edge34_Node000006_Node000011" class="edge">
<title>Node6&#45;&gt;Node11</title>
<g id="a_edge34_Node000006_Node000011"><a xlink:title=" ">
<path fill="none" stroke="#63b8ff" d="M436.75,-347.17C441.42,-344.8 445.88,-342.1 450,-339 476.08,-319.39 460.31,-295.13 486,-275 490.52,-271.46 495.43,-268.34 500.58,-265.58"/>
<polygon fill="#63b8ff" stroke="#63b8ff" points="435.23,-344.01 427.54,-351.3 438.1,-350.4 435.23,-344.01"/>
</a>
</g>
</g>
<!-- Node12 -->
<g id="Node000012" class="node">
<title>Node12</title>
<g id="a_Node000012"><a xlink:href="classWolfstagInteractive_1_1ConvoCore_1_1ConvoCoreDialogueLineActionPlayAudioClip.html" target="_top" xlink:title=" ">
<polygon fill="white" stroke="#666666" points="690,-206.5 500,-206.5 500,-165.5 690,-165.5 690,-206.5"/>
<text text-anchor="start" x="508" y="-194.5" font-family="Helvetica,sans-Serif" font-size="10.00">WolfstagInteractive.Convo</text>
<text text-anchor="start" x="508" y="-183.5" font-family="Helvetica,sans-Serif" font-size="10.00">Core.ConvoCoreDialogueLineAction</text>
<text text-anchor="middle" x="595" y="-172.5" font-family="Helvetica,sans-Serif" font-size="10.00">PlayAudioClip</text>
</a>
</g>
</g>
<!-- Node6&#45;&gt;Node12 -->
<g id="edge35_Node000006_Node000012" class="edge">
<title>Node6&#45;&gt;Node12</title>
<g id="a_edge35_Node000006_Node000012"><a xlink:title=" ">
<path fill="none" stroke="#63b8ff" d="M436.58,-348.87C441.43,-346.1 445.96,-342.84 450,-339 491.61,-299.48 445.01,-255.17 486,-215 490.16,-210.92 494.83,-207.4 499.83,-204.37"/>
<polygon fill="#63b8ff" stroke="#63b8ff" points="434.95,-345.77 427.54,-353.34 438.06,-352.04 434.95,-345.77"/>
</a>
</g>
</g>
</g>
</svg>
