<?xml version="1.0" encoding="UTF-8" standalone="no"?>
<!DOCTYPE svg PUBLIC "-//W3C//DTD SVG 1.1//EN"
 "http://www.w3.org/Graphics/SVG/1.1/DTD/svg11.dtd">
<!-- Generated by graphviz version 2.43.0 (0)
 -->
<!-- Title: WolfstagInteractive.ConvoCore.IConvoCoreCharacterDisplay Pages: 1 -->
<svg width="655pt" height="194pt"
 viewBox="0.00 0.00 655.00 193.50" xmlns="http://www.w3.org/2000/svg" xmlns:xlink="http://www.w3.org/1999/xlink">
<g id="graph0" class="graph" transform="scale(1 1) rotate(0) translate(4 189.5)">
<title>WolfstagInteractive.ConvoCore.IConvoCoreCharacterDisplay</title>
<!-- Node1 -->
<g id="Node000001" class="node">
<title>Node1</title>
<g id="a_Node000001"><a xlink:title=" ">
<polygon fill="#999999" stroke="#666666" points="182,-113.5 0,-113.5 0,-83.5 182,-83.5 182,-113.5"/>
<text text-anchor="start" x="8" y="-101.5" font-family="Helvetica,sans-Serif" font-size="10.00">WolfstagInteractive.Convo</text>
<text text-anchor="middle" x="91" y="-90.5" font-family="Helvetica,sans-Serif" font-size="10.00">Core.IConvoCoreCharacterDisplay</text>
</a>
</g>
</g>
<!-- Node2 -->
<g id="Node000002" class="node">
<title>Node2</title>
<g id="a_Node000002"><a xlink:href="classWolfstagInteractive_1_1ConvoCore_1_1ConvoCoreCharacterDisplayBase.html" target="_top" xlink:title="Generic base class for all prefab&#45;based character displays.">
<polygon fill="white" stroke="#666666" points="421,-113.5 218,-113.5 218,-83.5 421,-83.5 421,-113.5"/>
<text text-anchor="start" x="226" y="-101.5" font-family="Helvetica,sans-Serif" font-size="10.00">WolfstagInteractive.Convo</text>
<text text-anchor="middle" x="319.5" y="-90.5" font-family="Helvetica,sans-Serif" font-size="10.00">Core.ConvoCoreCharacterDisplayBase</text>
</a>
</g>
</g>
<!-- Node1&#45;&gt;Node2 -->
<g id="edge1_Node000001_Node000002" class="edge">
<title>Node1&#45;&gt;Node2</title>
<g id="a_edge1_Node000001_Node000002"><a xlink:title=" ">
<path fill="none" stroke="#63b8ff" d="M192.41,-98.5C200.85,-98.5 209.39,-98.5 217.83,-98.5"/>
<polygon fill="#63b8ff" stroke="#63b8ff" points="192.17,-95 182.17,-98.5 192.17,-102 192.17,-95"/>
</a>
</g>
</g>
<!-- Node3 -->
<g id="Node000003" class="node">
<title>Node3</title>
<g id="a_Node000003"><a xlink:href="classWolfstagInteractive_1_1ConvoCore_1_1ConvoCoreActionOnlyDisplay.html" target="_top" xlink:title="Minimal prefab display component.">
<polygon fill="white" stroke="#666666" points="644.5,-185.5 459.5,-185.5 459.5,-155.5 644.5,-155.5 644.5,-185.5"/>
<text text-anchor="start" x="467.5" y="-173.5" font-family="Helvetica,sans-Serif" font-size="10.00">WolfstagInteractive.Convo</text>
<text text-anchor="middle" x="552" y="-162.5" font-family="Helvetica,sans-Serif" font-size="10.00">Core.ConvoCoreActionOnlyDisplay</text>
</a>
</g>
</g>
<!-- Node2&#45;&gt;Node3 -->
<g id="edge2_Node000002_Node000003" class="edge">
<title>Node2&#45;&gt;Node3</title>
<g id="a_edge2_Node000002_Node000003"><a xlink:title=" ">
<path fill="none" stroke="#63b8ff" d="M369.77,-117.01C395.57,-126.4 427.79,-137.66 457,-146.5 467.24,-149.6 478.18,-152.64 488.85,-155.46"/>
<polygon fill="#63b8ff" stroke="#63b8ff" points="370.81,-113.66 360.21,-113.51 368.4,-120.23 370.81,-113.66"/>
</a>
</g>
</g>
<!-- Node4 -->
<g id="Node000004" class="node">
<title>Node4</title>
<g id="a_Node000004"><a xlink:href="classWolfstagInteractive_1_1ConvoCore_1_1ConvoCoreAnimatorDisplay.html" target="_top" xlink:title="Prefab display component that maps expression display names to Animator parameters.">
<polygon fill="white" stroke="#666666" points="640.5,-137.5 463.5,-137.5 463.5,-107.5 640.5,-107.5 640.5,-137.5"/>
<text text-anchor="start" x="471.5" y="-125.5" font-family="Helvetica,sans-Serif" font-size="10.00">WolfstagInteractive.Convo</text>
<text text-anchor="middle" x="552" y="-114.5" font-family="Helvetica,sans-Serif" font-size="10.00">Core.ConvoCoreAnimatorDisplay</text>
</a>
</g>
</g>
<!-- Node2&#45;&gt;Node4 -->
<g id="edge3_Node000002_Node000004" class="edge">
<title>Node2&#45;&gt;Node4</title>
<g id="a_edge3_Node000002_Node000004"><a xlink:title=" ">
<path fill="none" stroke="#63b8ff" d="M431.51,-110.06C442.23,-111.17 453,-112.3 463.44,-113.38"/>
<polygon fill="#63b8ff" stroke="#63b8ff" points="431.57,-106.55 421.27,-108.99 430.85,-113.51 431.57,-106.55"/>
</a>
</g>
</g>
<!-- Node5 -->
<g id="Node000005" class="node">
<title>Node5</title>
<g id="a_Node000005"><a xlink:href="classWolfstagInteractive_1_1ConvoCore_1_1ConvoCoreBlendShapeDisplay.html" target="_top" xlink:title="Prefab display component that maps expression display names to SkinnedMeshRenderer blend shape indice...">
<polygon fill="white" stroke="#666666" points="647,-89.5 457,-89.5 457,-59.5 647,-59.5 647,-89.5"/>
<text text-anchor="start" x="465" y="-77.5" font-family="Helvetica,sans-Serif" font-size="10.00">WolfstagInteractive.Convo</text>
<text text-anchor="middle" x="552" y="-66.5" font-family="Helvetica,sans-Serif" font-size="10.00">Core.ConvoCoreBlendShapeDisplay</text>
</a>
</g>
</g>
<!-- Node2&#45;&gt;Node5 -->
<g id="edge4_Node000002_Node000005" class="edge">
<title>Node2&#45;&gt;Node5</title>
<g id="a_edge4_Node000002_Node000005"><a xlink:title=" ">
<path fill="none" stroke="#63b8ff" d="M431.32,-86.96C439.91,-86.07 448.53,-85.17 456.99,-84.29"/>
<polygon fill="#63b8ff" stroke="#63b8ff" points="430.85,-83.49 421.27,-88.01 431.57,-90.45 430.85,-83.49"/>
</a>
</g>
</g>
<!-- Node6 -->
<g id="Node000006" class="node">
<title>Node6</title>
<g id="a_Node000006"><a xlink:href="classWolfstagInteractive_1_1ConvoCore_1_1SimplePrefabRepresentationDisplay.html" target="_top" xlink:title=" ">
<polygon fill="white" stroke="#666666" points="643,-41 461,-41 461,0 643,0 643,-41"/>
<text text-anchor="start" x="469" y="-29" font-family="Helvetica,sans-Serif" font-size="10.00">WolfstagInteractive.Convo</text>
<text text-anchor="start" x="469" y="-18" font-family="Helvetica,sans-Serif" font-size="10.00">Core.SimplePrefabRepresentation</text>
<text text-anchor="middle" x="552" y="-7" font-family="Helvetica,sans-Serif" font-size="10.00">Display</text>
</a>
</g>
</g>
<!-- Node2&#45;&gt;Node6 -->
<g id="edge5_Node000002_Node000006" class="edge">
<title>Node2&#45;&gt;Node6</title>
<g id="a_edge5_Node000002_Node000006"><a xlink:title=" ">
<path fill="none" stroke="#63b8ff" d="M371.7,-80.1C397.27,-71.01 428.7,-59.99 457,-50.5 466.26,-47.4 476.05,-44.19 485.69,-41.07"/>
<polygon fill="#63b8ff" stroke="#63b8ff" points="370.46,-76.83 362.21,-83.48 372.8,-83.42 370.46,-76.83"/>
</a>
</g>
</g>
</g>
</svg>
