<?xml version="1.0" encoding="UTF-8" standalone="no"?>
<!DOCTYPE svg PUBLIC "-//W3C//DTD SVG 1.1//EN"
 "http://www.w3.org/Graphics/SVG/1.1/DTD/svg11.dtd">
<!-- Generated by graphviz version 2.43.0 (0)
 -->
<!-- Title: WolfstagInteractive.ConvoCore.IUIFoundation Pages: 1 -->
<svg width="565pt" height="134pt"
 viewBox="0.00 0.00 565.00 134.00" xmlns="http://www.w3.org/2000/svg" xmlns:xlink="http://www.w3.org/1999/xlink">
<g id="graph0" class="graph" transform="scale(1 1) rotate(0) translate(4 130)">
<title>WolfstagInteractive.ConvoCore.IUIFoundation</title>
<!-- Node1 -->
<g id="Node000001" class="node">
<title>Node1</title>
<g id="a_Node000001"><a xlink:title="Contract between the ConvoCore runner and a dialogue UI implementation.">
<polygon fill="#999999" stroke="#666666" points="146,-78 0,-78 0,-48 146,-48 146,-78"/>
<text text-anchor="start" x="8" y="-66" font-family="Helvetica,sans-Serif" font-size="10.00">WolfstagInteractive.Convo</text>
<text text-anchor="middle" x="73" y="-55" font-family="Helvetica,sans-Serif" font-size="10.00">Core.IUIFoundation</text>
</a>
</g>
</g>
<!-- Node2 -->
<g id="Node000002" class="node">
<title>Node2</title>
<g id="a_Node000002"><a xlink:href="classWolfstagInteractive_1_1ConvoCore_1_1ConvoCoreUIFoundation.html" target="_top" xlink:title="Used as a basis of any UI that can be assigned in the inspector that includes all the base functions ...">
<polygon fill="white" stroke="#666666" points="342,-78 182,-78 182,-48 342,-48 342,-78"/>
<text text-anchor="start" x="190" y="-66" font-family="Helvetica,sans-Serif" font-size="10.00">WolfstagInteractive.Convo</text>
<text text-anchor="middle" x="262" y="-55" font-family="Helvetica,sans-Serif" font-size="10.00">Core.ConvoCoreUIFoundation</text>
</a>
</g>
</g>
<!-- Node1&#45;&gt;Node2 -->
<g id="edge1_Node000001_Node000002" class="edge">
<title>Node1&#45;&gt;Node2</title>
<g id="a_edge1_Node000001_Node000002"><a xlink:title=" ">
<path fill="none" stroke="#63b8ff" d="M156.3,-63C164.79,-63 173.4,-63 181.86,-63"/>
<polygon fill="#63b8ff" stroke="#63b8ff" points="156.03,-59.5 146.03,-63 156.03,-66.5 156.03,-59.5"/>
</a>
</g>
</g>
<!-- Node3 -->
<g id="Node000003" class="node">
<title>Node3</title>
<g id="a_Node000003"><a xlink:href="classWolfstagInteractive_1_1ConvoCore_1_1ConvoCoreSampleUI.html" target="_top" xlink:title="Legacy monolithic sample UI.">
<polygon fill="white" stroke="#666666" points="540.5,-126 394.5,-126 394.5,-96 540.5,-96 540.5,-126"/>
<text text-anchor="start" x="402.5" y="-114" font-family="Helvetica,sans-Serif" font-size="10.00">WolfstagInteractive.Convo</text>
<text text-anchor="middle" x="467.5" y="-103" font-family="Helvetica,sans-Serif" font-size="10.00">Core.ConvoCoreSampleUI</text>
</a>
</g>
</g>
<!-- Node2&#45;&gt;Node3 -->
<g id="edge2_Node000002_Node000003" class="edge">
<title>Node2&#45;&gt;Node3</title>
<g id="a_edge2_Node000002_Node000003"><a xlink:title=" ">
<path fill="none" stroke="#63b8ff" d="M336.65,-80.37C358.35,-85.49 381.89,-91.04 402.9,-96"/>
<polygon fill="#63b8ff" stroke="#63b8ff" points="337.37,-76.95 326.83,-78.06 335.76,-83.76 337.37,-76.95"/>
</a>
</g>
</g>
<!-- Node4 -->
<g id="Node000004" class="node">
<title>Node4</title>
<g id="a_Node000004"><a xlink:href="classWolfstagInteractive_1_1ConvoCore_1_1ConvoCoreSampleUI3D.html" target="_top" xlink:title="World&#45;space dialogue UI for 3D character conversations.">
<polygon fill="white" stroke="#666666" points="545.5,-78 389.5,-78 389.5,-48 545.5,-48 545.5,-78"/>
<text text-anchor="start" x="397.5" y="-66" font-family="Helvetica,sans-Serif" font-size="10.00">WolfstagInteractive.Convo</text>
<text text-anchor="middle" x="467.5" y="-55" font-family="Helvetica,sans-Serif" font-size="10.00">Core.ConvoCoreSampleUI3D</text>
</a>
</g>
</g>
<!-- Node2&#45;&gt;Node4 -->
<g id="edge3_Node000002_Node000004" class="edge">
<title>Node2&#45;&gt;Node4</title>
<g id="a_edge3_Node000002_Node000004"><a xlink:title=" ">
<path fill="none" stroke="#63b8ff" d="M352.53,-63C364.84,-63 377.4,-63 389.46,-63"/>
<polygon fill="#63b8ff" stroke="#63b8ff" points="352.26,-59.5 342.26,-63 352.26,-66.5 352.26,-59.5"/>
</a>
</g>
</g>
<!-- Node5 -->
<g id="Node000005" class="node">
<title>Node5</title>
<g id="a_Node000005"><a xlink:href="classWolfstagInteractive_1_1ConvoCore_1_1ConvoCoreSampleUICanvas.html" target="_top" xlink:title="Canvas&#45;space dialogue UI supporting both sprite and prefab&#45;in&#45;canvas character representations.">
<polygon fill="white" stroke="#666666" points="557,-30 378,-30 378,0 557,0 557,-30"/>
<text text-anchor="start" x="386" y="-18" font-family="Helvetica,sans-Serif" font-size="10.00">WolfstagInteractive.Convo</text>
<text text-anchor="middle" x="467.5" y="-7" font-family="Helvetica,sans-Serif" font-size="10.00">Core.ConvoCoreSampleUICanvas</text>
</a>
</g>
</g>
<!-- Node2&#45;&gt;Node5 -->
<g id="edge4_Node000002_Node000005" class="edge">
<title>Node2&#45;&gt;Node5</title>
<g id="a_edge4_Node000002_Node000005"><a xlink:title=" ">
<path fill="none" stroke="#63b8ff" d="M336.65,-45.63C358.35,-40.51 381.89,-34.96 402.9,-30"/>
<polygon fill="#63b8ff" stroke="#63b8ff" points="335.76,-42.24 326.83,-47.94 337.37,-49.05 335.76,-42.24"/>
</a>
</g>
</g>
</g>
</svg>
