<?xml version="1.0" encoding="UTF-8" standalone="no"?>
<!DOCTYPE svg PUBLIC "-//W3C//DTD SVG 1.1//EN"
 "http://www.w3.org/Graphics/SVG/1.1/DTD/svg11.dtd">
<!-- Generated by graphviz version 2.43.0 (0)
 -->
<!-- Title: WolfstagInteractive.ConvoCore.IUIFoundation Pages: 1 -->
<svg width="565pt" height="86pt"
 viewBox="0.00 0.00 565.00 86.00" xmlns="http://www.w3.org/2000/svg" xmlns:xlink="http://www.w3.org/1999/xlink">
<g id="graph0" class="graph" transform="scale(1 1) rotate(0) translate(4 82)">
<title>WolfstagInteractive.ConvoCore.IUIFoundation</title>
<!-- Node1 -->
<g id="Node000001" class="node">
<title>Node1</title>
<g id="a_Node000001"><a xlink:title="Contract between the ConvoCore runner and a dialogue UI implementation.">
<polygon fill="#999999" stroke="#666666" points="146,-54 0,-54 0,-24 146,-24 146,-54"/>
<text text-anchor="start" x="8" y="-42" font-family="Helvetica,sans-Serif" font-size="10.00">WolfstagInteractive.Convo</text>
<text text-anchor="middle" x="73" y="-31" font-family="Helvetica,sans-Serif" font-size="10.00">Core.IUIFoundation</text>
</a>
</g>
</g>
<!-- Node2 -->
<g id="Node000002" class="node">
<title>Node2</title>
<g id="a_Node000002"><a xlink:href="classWolfstagInteractive_1_1ConvoCore_1_1ConvoCoreUIFoundation.html" target="_top" xlink:title="Used as a basis of any UI that can be assigned in the inspector that includes all the base functions ...">
<polygon fill="white" stroke="#666666" points="342,-54 182,-54 182,-24 342,-24 342,-54"/>
<text text-anchor="start" x="190" y="-42" font-family="Helvetica,sans-Serif" font-size="10.00">WolfstagInteractive.Convo</text>
<text text-anchor="middle" x="262" y="-31" font-family="Helvetica,sans-Serif" font-size="10.00">Core.ConvoCoreUIFoundation</text>
</a>
</g>
</g>
<!-- Node1&#45;&gt;Node2 -->
<g id="edge1_Node000001_Node000002" class="edge">
<title>Node1&#45;&gt;Node2</title>
<g id="a_edge1_Node000001_Node000002"><a xlink:title=" ">
<path fill="none" stroke="#63b8ff" d="M156.3,-39C164.79,-39 173.4,-39 181.86,-39"/>
<polygon fill="#63b8ff" stroke="#63b8ff" points="156.03,-35.5 146.03,-39 156.03,-42.5 156.03,-35.5"/>
</a>
</g>
</g>
<!-- Node3 -->
<g id="Node000003" class="node">
<title>Node3</title>
<g id="a_Node000003"><a xlink:href="classWolfstagInteractive_1_1ConvoCore_1_1ConvoCoreSampleUI3D.html" target="_top" xlink:title="World&#45;space dialogue UI for 3D character conversations.">
<polygon fill="white" stroke="#666666" points="545.5,-78 389.5,-78 389.5,-48 545.5,-48 545.5,-78"/>
<text text-anchor="start" x="397.5" y="-66" font-family="Helvetica,sans-Serif" font-size="10.00">WolfstagInteractive.Convo</text>
<text text-anchor="middle" x="467.5" y="-55" font-family="Helvetica,sans-Serif" font-size="10.00">Core.ConvoCoreSampleUI3D</text>
</a>
</g>
</g>
<!-- Node2&#45;&gt;Node3 -->
<g id="edge2_Node000002_Node000003" class="edge">
<title>Node2&#45;&gt;Node3</title>
<g id="a_edge2_Node000002_Node000003"><a xlink:title=" ">
<path fill="none" stroke="#63b8ff" d="M352.53,-49.56C364.84,-51.01 377.4,-52.49 389.46,-53.91"/>
<polygon fill="#63b8ff" stroke="#63b8ff" points="352.6,-46.04 342.26,-48.35 351.78,-52.99 352.6,-46.04"/>
</a>
</g>
</g>
<!-- Node4 -->
<g id="Node000004" class="node">
<title>Node4</title>
<g id="a_Node000004"><a xlink:href="classWolfstagInteractive_1_1ConvoCore_1_1ConvoCoreSampleUICanvas.html" target="_top" xlink:title="Canvas&#45;space dialogue UI supporting both sprite and prefab&#45;in&#45;canvas character representations.">
<polygon fill="white" stroke="#666666" points="557,-30 378,-30 378,0 557,0 557,-30"/>
<text text-anchor="start" x="386" y="-18" font-family="Helvetica,sans-Serif" font-size="10.00">WolfstagInteractive.Convo</text>
<text text-anchor="middle" x="467.5" y="-7" font-family="Helvetica,sans-Serif" font-size="10.00">Core.ConvoCoreSampleUICanvas</text>
</a>
</g>
</g>
<!-- Node2&#45;&gt;Node4 -->
<g id="edge3_Node000002_Node000004" class="edge">
<title>Node2&#45;&gt;Node4</title>
<g id="a_edge3_Node000002_Node000004"><a xlink:title=" ">
<path fill="none" stroke="#63b8ff" d="M352.41,-28.45C360.8,-27.47 369.29,-26.46 377.67,-25.48"/>
<polygon fill="#63b8ff" stroke="#63b8ff" points="351.78,-25.01 342.26,-29.65 352.6,-31.96 351.78,-25.01"/>
</a>
</g>
</g>
</g>
</svg>
