<?xml version="1.0" encoding="UTF-8" standalone="no"?>
<!DOCTYPE svg PUBLIC "-//W3C//DTD SVG 1.1//EN"
 "http://www.w3.org/Graphics/SVG/1.1/DTD/svg11.dtd">
<!-- Generated by graphviz version 2.43.0 (0)
 -->
<!-- Title: WolfstagInteractive.ConvoCore.ExpressionActionContext Pages: 1 -->
<svg width="1893pt" height="564pt"
 viewBox="0.00 0.00 1893.00 564.00" xmlns="http://www.w3.org/2000/svg" xmlns:xlink="http://www.w3.org/1999/xlink">
<g id="graph0" class="graph" transform="scale(1 1) rotate(0) translate(4 560)">
<title>WolfstagInteractive.ConvoCore.ExpressionActionContext</title>
<!-- Node1 -->
<g id="Node000001" class="node">
<title>Node1</title>
<g id="a_Node000001"><a xlink:title="Context passed to BaseExpressionAction when a character expression is applied.">
<polygon fill="#999999" stroke="#666666" points="1885,-495 1721,-495 1721,-465 1885,-465 1885,-495"/>
<text text-anchor="start" x="1729" y="-483" font-family="Helvetica,sans-Serif" font-size="10.00">WolfstagInteractive.Convo</text>
<text text-anchor="middle" x="1803" y="-472" font-family="Helvetica,sans-Serif" font-size="10.00">Core.ExpressionActionContext</text>
</a>
</g>
</g>
<!-- Node2 -->
<g id="Node000002" class="node">
<title>Node2</title>
<g id="a_Node000002"><a xlink:href="classWolfstagInteractive_1_1ConvoCore_1_1ConvoCore.html" target="_top" xlink:title="Main conversation runner MonoBehaviour.">
<polygon fill="white" stroke="#666666" points="1519.5,-278 1373.5,-278 1373.5,-248 1519.5,-248 1519.5,-278"/>
<text text-anchor="start" x="1381.5" y="-266" font-family="Helvetica,sans-Serif" font-size="10.00">WolfstagInteractive.Convo</text>
<text text-anchor="middle" x="1446.5" y="-255" font-family="Helvetica,sans-Serif" font-size="10.00">Core.ConvoCore</text>
</a>
</g>
</g>
<!-- Node2&#45;&gt;Node1 -->
<g id="edge1_Node000001_Node000002" class="edge">
<title>Node2&#45;&gt;Node1</title>
<g id="a_edge1_Node000001_Node000002"><a xlink:title=" ">
<path fill="none" stroke="#9a32cd" stroke-dasharray="5,2" d="M1481.1,-283.57C1551.82,-326.86 1714.65,-426.53 1777.05,-464.72"/>
<polygon fill="#9a32cd" stroke="#9a32cd" points="1482.5,-280.32 1472.15,-278.09 1478.85,-286.29 1482.5,-280.32"/>
</a>
</g>
<text text-anchor="middle" x="1630" y="-418" font-family="Helvetica,sans-Serif" font-size="10.00" fill="grey"> Runtime</text>
</g>
<!-- Node9 -->
<g id="Node000009" class="node">
<title>Node9</title>
<g id="a_Node000009"><a xlink:href="classWolfstagInteractive_1_1ConvoCore_1_1ConvoCoreUIFoundation.html" target="_top" xlink:title="Used as a basis of any UI that can be assigned in the inspector that includes all the base functions ...">
<polygon fill="white" stroke="#666666" points="1883,-161 1723,-161 1723,-131 1883,-131 1883,-161"/>
<text text-anchor="start" x="1731" y="-149" font-family="Helvetica,sans-Serif" font-size="10.00">WolfstagInteractive.Convo</text>
<text text-anchor="middle" x="1803" y="-138" font-family="Helvetica,sans-Serif" font-size="10.00">Core.ConvoCoreUIFoundation</text>
</a>
</g>
</g>
<!-- Node2&#45;&gt;Node9 -->
<g id="edge13_Node000009_Node000002" class="edge">
<title>Node2&#45;&gt;Node9</title>
<g id="a_edge13_Node000009_Node000002"><a xlink:title=" ">
<path fill="none" stroke="#9a32cd" stroke-dasharray="5,2" d="M1477.28,-242.11C1498.59,-228.04 1528.45,-210.11 1557,-199 1610.54,-178.17 1674,-164.73 1722.92,-156.6"/>
<polygon fill="#9a32cd" stroke="#9a32cd" points="1475.05,-239.39 1468.7,-247.86 1478.95,-245.2 1475.05,-239.39"/>
</a>
</g>
<text text-anchor="middle" x="1630" y="-202" font-family="Helvetica,sans-Serif" font-size="10.00" fill="grey"> ConvoCoreInstance</text>
</g>
<!-- Node3 -->
<g id="Node000003" class="node">
<title>Node3</title>
<g id="a_Node000003"><a xlink:title=" ">
<polygon fill="white" stroke="#666666" points="1166,-143.5 1073,-143.5 1073,-124.5 1166,-124.5 1166,-143.5"/>
<text text-anchor="middle" x="1119.5" y="-131.5" font-family="Helvetica,sans-Serif" font-size="10.00">MonoBehaviour</text>
</a>
</g>
</g>
<!-- Node3&#45;&gt;Node2 -->
<g id="edge2_Node000002_Node000003" class="edge">
<title>Node3&#45;&gt;Node2</title>
<g id="a_edge2_Node000002_Node000003"><a xlink:title=" ">
<path fill="none" stroke="#63b8ff" d="M1175.97,-142.95C1189.82,-145.69 1204.55,-149.05 1218,-153 1272.16,-168.91 1285.18,-175.42 1336,-200 1366.4,-214.71 1399.85,-234.52 1421.68,-247.97"/>
<polygon fill="#63b8ff" stroke="#63b8ff" points="1176.55,-139.5 1166.07,-141.06 1175.23,-146.37 1176.55,-139.5"/>
</a>
</g>
</g>
<!-- Node3&#45;&gt;Node9 -->
<g id="edge11_Node000009_Node000003" class="edge">
<title>Node3&#45;&gt;Node9</title>
<g id="a_edge11_Node000009_Node000003"><a xlink:title=" ">
<path fill="none" stroke="#63b8ff" d="M1176.14,-134.98C1296.92,-137.11 1583.45,-142.15 1722.95,-144.61"/>
<polygon fill="#63b8ff" stroke="#63b8ff" points="1176.07,-131.48 1166.01,-134.8 1175.94,-138.48 1176.07,-131.48"/>
</a>
</g>
</g>
<!-- Node11 -->
<g id="Node000011" class="node">
<title>Node11</title>
<g id="a_Node000011"><a xlink:href="classWolfstagInteractive_1_1ConvoCore_1_1ConvoCoreDialogueHistoryUI.html" target="_top" xlink:title=" ">
<polygon fill="white" stroke="#666666" points="1539,-115 1354,-115 1354,-85 1539,-85 1539,-115"/>
<text text-anchor="start" x="1362" y="-103" font-family="Helvetica,sans-Serif" font-size="10.00">WolfstagInteractive.Convo</text>
<text text-anchor="middle" x="1446.5" y="-92" font-family="Helvetica,sans-Serif" font-size="10.00">Core.ConvoCoreDialogueHistoryUI</text>
</a>
</g>
</g>
<!-- Node3&#45;&gt;Node11 -->
<g id="edge15_Node000011_Node000003" class="edge">
<title>Node3&#45;&gt;Node11</title>
<g id="a_edge15_Node000011_Node000003"><a xlink:title=" ">
<path fill="none" stroke="#63b8ff" d="M1176.07,-128.19C1224.8,-123.09 1296.6,-115.58 1353.84,-109.59"/>
<polygon fill="#63b8ff" stroke="#63b8ff" points="1175.61,-124.72 1166.03,-129.24 1176.34,-131.68 1175.61,-124.72"/>
</a>
</g>
</g>
<!-- Node4 -->
<g id="Node000004" class="node">
<title>Node4</title>
<g id="a_Node000004"><a xlink:href="interfaceWolfstagInteractive_1_1ConvoCore_1_1IConvoCoreRunner.html" target="_top" xlink:title="Minimal interface implemented by ConvoCore.">
<polygon fill="white" stroke="#666666" points="1173,-288.5 1066,-288.5 1066,-269.5 1173,-269.5 1173,-288.5"/>
<text text-anchor="middle" x="1119.5" y="-276.5" font-family="Helvetica,sans-Serif" font-size="10.00">IConvoCoreRunner</text>
</a>
</g>
</g>
<!-- Node4&#45;&gt;Node2 -->
<g id="edge3_Node000002_Node000004" class="edge">
<title>Node4&#45;&gt;Node2</title>
<g id="a_edge3_Node000002_Node000004"><a xlink:title=" ">
<path fill="none" stroke="#63b8ff" d="M1183.28,-275.91C1237.65,-273.23 1316.32,-269.36 1373.29,-266.55"/>
<polygon fill="#63b8ff" stroke="#63b8ff" points="1182.89,-272.42 1173.08,-276.41 1183.24,-279.42 1182.89,-272.42"/>
</a>
</g>
</g>
<!-- Node5 -->
<g id="Node000005" class="node">
<title>Node5</title>
<g id="a_Node000005"><a xlink:href="classWolfstagInteractive_1_1ConvoCore_1_1ConvoCoreConversationData.html" target="_top" xlink:title=" ">
<polygon fill="white" stroke="#666666" points="404.5,-354 221.5,-354 221.5,-324 404.5,-324 404.5,-354"/>
<text text-anchor="start" x="229.5" y="-342" font-family="Helvetica,sans-Serif" font-size="10.00">WolfstagInteractive.Convo</text>
<text text-anchor="middle" x="313" y="-331" font-family="Helvetica,sans-Serif" font-size="10.00">Core.ConvoCoreConversationData</text>
</a>
</g>
</g>
<!-- Node5&#45;&gt;Node1 -->
<g id="edge28_Node000001_Node000005" class="edge">
<title>Node5&#45;&gt;Node1</title>
<g id="a_edge28_Node000001_Node000005"><a xlink:title=" ">
<path fill="none" stroke="#9a32cd" stroke-dasharray="5,2" d="M365.84,-357.42C462.33,-391.05 666.41,-459 740.5,-459 740.5,-459 740.5,-459 1447.5,-459 1541.37,-459 1648.97,-466.43 1720.77,-472.45"/>
<polygon fill="#9a32cd" stroke="#9a32cd" points="366.88,-354.07 356.29,-354.08 364.57,-360.68 366.88,-354.07"/>
</a>
</g>
<text text-anchor="middle" x="1119.5" y="-462" font-family="Helvetica,sans-Serif" font-size="10.00" fill="grey"> Conversation</text>
</g>
<!-- Node5&#45;&gt;Node2 -->
<g id="edge4_Node000002_Node000005" class="edge">
<title>Node5&#45;&gt;Node2</title>
<g id="a_edge4_Node000002_Node000005"><a xlink:title=" ">
<path fill="none" stroke="#9a32cd" stroke-dasharray="5,2" d="M414.62,-348.25C582.05,-361.75 928.14,-381.6 1218,-346 1271.6,-339.42 1285.26,-335.5 1336,-317 1365.27,-306.33 1397.03,-290.11 1418.77,-278.23"/>
<polygon fill="#9a32cd" stroke="#9a32cd" points="414.83,-344.76 404.58,-347.43 414.26,-351.73 414.83,-344.76"/>
</a>
</g>
<text text-anchor="middle" x="927.5" y="-369" font-family="Helvetica,sans-Serif" font-size="10.00" fill="grey"> ConversationData</text>
</g>
<!-- Node7 -->
<g id="Node000007" class="node">
<title>Node7</title>
<g id="a_Node000007"><a xlink:href="classWolfstagInteractive_1_1ConvoCore_1_1ConvoCoreAudioManifest.html" target="_top" xlink:title="Maps dialogue line IDs to audio clips or middleware references, supporting Unity AudioSource,...">
<polygon fill="white" stroke="#666666" points="824.5,-320 658.5,-320 658.5,-290 824.5,-290 824.5,-320"/>
<text text-anchor="start" x="666.5" y="-308" font-family="Helvetica,sans-Serif" font-size="10.00">WolfstagInteractive.Convo</text>
<text text-anchor="middle" x="741.5" y="-297" font-family="Helvetica,sans-Serif" font-size="10.00">Core.ConvoCoreAudioManifest</text>
</a>
</g>
</g>
<!-- Node5&#45;&gt;Node7 -->
<g id="edge8_Node000007_Node000005" class="edge">
<title>Node5&#45;&gt;Node7</title>
<g id="a_edge8_Node000007_Node000005"><a xlink:title=" ">
<path fill="none" stroke="#9a32cd" stroke-dasharray="5,2" d="M414.83,-333.03C477.16,-329.09 558.78,-323.46 631,-317 639.86,-316.21 649.11,-315.31 658.32,-314.36"/>
<polygon fill="#9a32cd" stroke="#9a32cd" points="414.36,-329.55 404.6,-333.67 414.8,-336.54 414.36,-329.55"/>
</a>
</g>
<text text-anchor="middle" x="528" y="-336" font-family="Helvetica,sans-Serif" font-size="10.00" fill="grey"> SourceConversation</text>
</g>
<!-- Node6 -->
<g id="Node000006" class="node">
<title>Node6</title>
<g id="a_Node000006"><a xlink:title=" ">
<polygon fill="white" stroke="#666666" points="139.5,-281.5 42.5,-281.5 42.5,-262.5 139.5,-262.5 139.5,-281.5"/>
<text text-anchor="middle" x="91" y="-269.5" font-family="Helvetica,sans-Serif" font-size="10.00">ScriptableObject</text>
</a>
</g>
</g>
<!-- Node6&#45;&gt;Node5 -->
<g id="edge5_Node000005_Node000006" class="edge">
<title>Node6&#45;&gt;Node5</title>
<g id="a_edge5_Node000005_Node000006"><a xlink:title=" ">
<path fill="none" stroke="#63b8ff" d="M133.4,-284.61C170.1,-295.78 223.76,-312.13 262.67,-323.98"/>
<polygon fill="#63b8ff" stroke="#63b8ff" points="134.11,-281.16 123.52,-281.6 132.07,-287.86 134.11,-281.16"/>
</a>
</g>
</g>
<!-- Node6&#45;&gt;Node7 -->
<g id="edge7_Node000007_Node000006" class="edge">
<title>Node6&#45;&gt;Node7</title>
<g id="a_edge7_Node000007_Node000006"><a xlink:title=" ">
<path fill="none" stroke="#63b8ff" d="M149.72,-272.92C248.44,-274.79 456.01,-280.02 631,-293 639.87,-293.66 649.13,-294.47 658.34,-295.37"/>
<polygon fill="#63b8ff" stroke="#63b8ff" points="149.71,-269.42 139.65,-272.73 149.58,-276.42 149.71,-269.42"/>
</a>
</g>
</g>
<!-- Node12 -->
<g id="Node000012" class="node">
<title>Node12</title>
<g id="a_Node000012"><a xlink:href="classWolfstagInteractive_1_1ConvoCore_1_1ConvoCoreSettings.html" target="_top" xlink:title="Global runtime settings ScriptableObject for ConvoCore.">
<polygon fill="white" stroke="#666666" points="386,-215 240,-215 240,-185 386,-185 386,-215"/>
<text text-anchor="start" x="248" y="-203" font-family="Helvetica,sans-Serif" font-size="10.00">WolfstagInteractive.Convo</text>
<text text-anchor="middle" x="313" y="-192" font-family="Helvetica,sans-Serif" font-size="10.00">Core.ConvoCoreSettings</text>
</a>
</g>
</g>
<!-- Node6&#45;&gt;Node12 -->
<g id="edge17_Node000012_Node000006" class="edge">
<title>Node6&#45;&gt;Node12</title>
<g id="a_edge17_Node000012_Node000006"><a xlink:title=" ">
<path fill="none" stroke="#63b8ff" d="M130.82,-259.29C168.51,-246.96 225.74,-228.23 265.77,-215.13"/>
<polygon fill="#63b8ff" stroke="#63b8ff" points="129.63,-256 121.21,-262.44 131.81,-262.65 129.63,-256"/>
</a>
</g>
</g>
<!-- Node14 -->
<g id="Node000014" class="node">
<title>Node14</title>
<g id="a_Node000014"><a xlink:href="classWolfstagInteractive_1_1ConvoCore_1_1ConvoCoreHistoryRendererProfile.html" target="_top" xlink:title=" ">
<polygon fill="white" stroke="#666666" points="631,-77 425,-77 425,-47 631,-47 631,-77"/>
<text text-anchor="start" x="433" y="-65" font-family="Helvetica,sans-Serif" font-size="10.00">WolfstagInteractive.Convo</text>
<text text-anchor="middle" x="528" y="-54" font-family="Helvetica,sans-Serif" font-size="10.00">Core.ConvoCoreHistoryRendererProfile</text>
</a>
</g>
</g>
<!-- Node6&#45;&gt;Node14 -->
<g id="edge21_Node000014_Node000006" class="edge">
<title>Node6&#45;&gt;Node14</title>
<g id="a_edge21_Node000014_Node000006"><a xlink:title=" ">
<path fill="none" stroke="#63b8ff" d="M110.59,-255.87C134.55,-235.58 178.02,-200.44 219,-176 305.44,-124.46 329.19,-112.78 425,-82 430.58,-80.21 436.39,-78.55 442.28,-77.01"/>
<polygon fill="#63b8ff" stroke="#63b8ff" points="108.29,-253.23 102.96,-262.38 112.84,-258.55 108.29,-253.23"/>
</a>
</g>
</g>
<!-- Node19 -->
<g id="Node000019" class="node">
<title>Node19</title>
<g id="a_Node000019"><a xlink:href="classWolfstagInteractive_1_1ConvoCore_1_1CharacterRepresentationBase.html" target="_top" xlink:title="Abstract ScriptableObject base class for all character visual representations.">
<polygon fill="white" stroke="#666666" points="407,-418 219,-418 219,-388 407,-388 407,-418"/>
<text text-anchor="start" x="227" y="-406" font-family="Helvetica,sans-Serif" font-size="10.00">WolfstagInteractive.Convo</text>
<text text-anchor="middle" x="313" y="-395" font-family="Helvetica,sans-Serif" font-size="10.00">Core.CharacterRepresentationBase</text>
</a>
</g>
</g>
<!-- Node6&#45;&gt;Node19 -->
<g id="edge30_Node000019_Node000006" class="edge">
<title>Node6&#45;&gt;Node19</title>
<g id="a_edge30_Node000019_Node000006"><a xlink:title=" ">
<path fill="none" stroke="#63b8ff" d="M111.73,-288.2C135.96,-307.6 178.82,-340.32 219,-363 235.68,-372.42 255.02,-381.07 271.72,-387.9"/>
<polygon fill="#63b8ff" stroke="#63b8ff" points="113.66,-285.26 103.68,-281.69 109.26,-290.7 113.66,-285.26"/>
</a>
</g>
</g>
<!-- Node7&#45;&gt;Node5 -->
<g id="edge6_Node000005_Node000007" class="edge">
<title>Node7&#45;&gt;Node5</title>
<g id="a_edge6_Node000005_Node000007"><a xlink:title=" ">
<path fill="none" stroke="#9a32cd" stroke-dasharray="5,2" d="M647.97,-298.39C584.82,-295.56 499.43,-295.05 425,-306 401.13,-309.51 375.25,-316.98 354.49,-323.93"/>
<polygon fill="#9a32cd" stroke="#9a32cd" points="648.16,-301.9 658.31,-298.88 648.49,-294.91 648.16,-301.9"/>
</a>
</g>
<text text-anchor="middle" x="528" y="-309" font-family="Helvetica,sans-Serif" font-size="10.00" fill="grey"> AudioManifest</text>
</g>
<!-- Node8 -->
<g id="Node000008" class="node">
<title>Node8</title>
<g id="a_Node000008"><a xlink:href="interfaceWolfstagInteractive_1_1ConvoCore_1_1IConvoInput.html" target="_top" xlink:title="Input strategy interface.">
<polygon fill="white" stroke="#666666" points="1192.5,-192 1046.5,-192 1046.5,-162 1192.5,-162 1192.5,-192"/>
<text text-anchor="start" x="1054.5" y="-180" font-family="Helvetica,sans-Serif" font-size="10.00">WolfstagInteractive.Convo</text>
<text text-anchor="middle" x="1119.5" y="-169" font-family="Helvetica,sans-Serif" font-size="10.00">Core.IConvoInput</text>
</a>
</g>
</g>
<!-- Node8&#45;&gt;Node2 -->
<g id="edge9_Node000002_Node000008" class="edge">
<title>Node8&#45;&gt;Node2</title>
<g id="a_edge9_Node000002_Node000008"><a xlink:title=" ">
<path fill="none" stroke="#9a32cd" stroke-dasharray="5,2" d="M1197.74,-194.37C1238.94,-203.95 1290.41,-216.44 1336,-229 1356.92,-234.76 1379.87,-241.78 1399.34,-247.95"/>
<polygon fill="#9a32cd" stroke="#9a32cd" points="1198.3,-190.91 1187.76,-192.06 1196.72,-197.73 1198.3,-190.91"/>
</a>
</g>
<text text-anchor="middle" x="1286" y="-232" font-family="Helvetica,sans-Serif" font-size="10.00" fill="grey"> Input</text>
</g>
<!-- Node9&#45;&gt;Node2 -->
<g id="edge10_Node000002_Node000009" class="edge">
<title>Node9&#45;&gt;Node2</title>
<g id="a_edge10_Node000002_Node000009"><a xlink:title=" ">
<path fill="none" stroke="#9a32cd" stroke-dasharray="5,2" d="M1776.84,-167.66C1757.79,-182.92 1730.32,-202.59 1703,-214 1644.03,-238.63 1572.19,-251 1519.72,-257.14"/>
<polygon fill="#9a32cd" stroke="#9a32cd" points="1779.19,-170.26 1784.71,-161.22 1774.76,-164.84 1779.19,-170.26"/>
</a>
</g>
<text text-anchor="middle" x="1630" y="-255" font-family="Helvetica,sans-Serif" font-size="10.00" fill="grey"> ConversationUI</text>
</g>
<!-- Node10 -->
<g id="Node000010" class="node">
<title>Node10</title>
<g id="a_Node000010"><a xlink:href="interfaceWolfstagInteractive_1_1ConvoCore_1_1IUIFoundation.html" target="_top" xlink:title="Contract between the ConvoCore runner and a dialogue UI implementation.">
<polygon fill="white" stroke="#666666" points="1488.5,-66.5 1404.5,-66.5 1404.5,-47.5 1488.5,-47.5 1488.5,-66.5"/>
<text text-anchor="middle" x="1446.5" y="-54.5" font-family="Helvetica,sans-Serif" font-size="10.00">IUIFoundation</text>
</a>
</g>
</g>
<!-- Node10&#45;&gt;Node9 -->
<g id="edge12_Node000009_Node000010" class="edge">
<title>Node10&#45;&gt;Node9</title>
<g id="a_edge12_Node000009_Node000010"><a xlink:title=" ">
<path fill="none" stroke="#63b8ff" d="M1498.96,-62.33C1551.18,-68.59 1633.94,-80.92 1703,-102 1727.47,-109.47 1753.88,-121.42 1773.26,-130.98"/>
<polygon fill="#63b8ff" stroke="#63b8ff" points="1499.27,-58.84 1488.93,-61.15 1498.46,-65.79 1499.27,-58.84"/>
</a>
</g>
</g>
<!-- Node11&#45;&gt;Node9 -->
<g id="edge14_Node000009_Node000011" class="edge">
<title>Node11&#45;&gt;Node9</title>
<g id="a_edge14_Node000009_Node000011"><a xlink:title=" ">
<path fill="none" stroke="#9a32cd" stroke-dasharray="5,2" d="M1549.2,-104.49C1596.22,-107.56 1652.69,-112.64 1703,-121 1718.13,-123.51 1734.33,-127.18 1749.16,-130.94"/>
<polygon fill="#9a32cd" stroke="#9a32cd" points="1549.2,-100.98 1539,-103.85 1548.76,-107.97 1549.2,-100.98"/>
</a>
</g>
<text text-anchor="middle" x="1630" y="-124" font-family="Helvetica,sans-Serif" font-size="10.00" fill="grey"> ConvoCoreDialogueHistoryUI</text>
</g>
<!-- Node12&#45;&gt;Node11 -->
<g id="edge16_Node000011_Node000012" class="edge">
<title>Node12&#45;&gt;Node11</title>
<g id="a_edge16_Node000011_Node000012"><a xlink:title=" ">
<path fill="none" stroke="#9a32cd" stroke-dasharray="5,2" d="M396.07,-187.85C527.61,-168.9 793.96,-132.63 1021,-115 1135.51,-106.11 1267.81,-102.48 1353.87,-101.01"/>
<polygon fill="#9a32cd" stroke="#9a32cd" points="395.46,-184.4 386.06,-189.3 396.46,-191.33 395.46,-184.4"/>
</a>
</g>
<text text-anchor="middle" x="927.5" y="-134" font-family="Helvetica,sans-Serif" font-size="10.00" fill="grey"> convoCoreSettings</text>
</g>
<!-- Node12&#45;&gt;Node12 -->
<g id="edge18_Node000012_Node000012" class="edge">
<title>Node12&#45;&gt;Node12</title>
<g id="a_edge18_Node000012_Node000012"><a xlink:title=" ">
<path fill="none" stroke="#9a32cd" stroke-dasharray="5,2" d="M293.4,-225.6C296.07,-229.97 302.61,-233 313,-233 330.5,-233 337.06,-224.41 332.69,-215.28"/>
<polygon fill="#9a32cd" stroke="#9a32cd" points="296.89,-225.25 293.31,-215.28 289.89,-225.3 296.89,-225.25"/>
</a>
</g>
<text text-anchor="middle" x="313" y="-236" font-family="Helvetica,sans-Serif" font-size="10.00" fill="grey"> _instance</text>
</g>
<!-- Node17 -->
<g id="Node000017" class="node">
<title>Node17</title>
<g id="a_Node000017"><a xlink:href="classWolfstagInteractive_1_1ConvoCore_1_1ConvoCoreLanguageManager.html" target="_top" xlink:title=" ">
<polygon fill="white" stroke="#666666" points="834,-236 649,-236 649,-206 834,-206 834,-236"/>
<text text-anchor="start" x="657" y="-224" font-family="Helvetica,sans-Serif" font-size="10.00">WolfstagInteractive.Convo</text>
<text text-anchor="middle" x="741.5" y="-213" font-family="Helvetica,sans-Serif" font-size="10.00">Core.ConvoCoreLanguageManager</text>
</a>
</g>
</g>
<!-- Node12&#45;&gt;Node17 -->
<g id="edge26_Node000017_Node000012" class="edge">
<title>Node12&#45;&gt;Node17</title>
<g id="a_edge26_Node000017_Node000012"><a xlink:title=" ">
<path fill="none" stroke="#9a32cd" stroke-dasharray="5,2" d="M396.78,-204.08C469.1,-207.64 573.95,-212.8 648.8,-216.48"/>
<polygon fill="#9a32cd" stroke="#9a32cd" points="396.51,-200.56 386.35,-203.56 396.17,-207.55 396.51,-200.56"/>
</a>
</g>
<text text-anchor="middle" x="528" y="-219" font-family="Helvetica,sans-Serif" font-size="10.00" fill="grey"> _convoCoreSettings</text>
</g>
<!-- Node13 -->
<g id="Node000013" class="node">
<title>Node13</title>
<g id="a_Node000013"><a xlink:href="interfaceWolfstagInteractive_1_1ConvoCore_1_1IConvoCoreHistoryRenderer.html" target="_top" xlink:title="Base contract for any dialogue history renderer.">
<polygon fill="white" stroke="#666666" points="1208.5,-30 1030.5,-30 1030.5,0 1208.5,0 1208.5,-30"/>
<text text-anchor="start" x="1038.5" y="-18" font-family="Helvetica,sans-Serif" font-size="10.00">WolfstagInteractive.Convo</text>
<text text-anchor="middle" x="1119.5" y="-7" font-family="Helvetica,sans-Serif" font-size="10.00">Core.IConvoCoreHistoryRenderer</text>
</a>
</g>
</g>
<!-- Node13&#45;&gt;Node11 -->
<g id="edge19_Node000011_Node000013" class="edge">
<title>Node13&#45;&gt;Node11</title>
<g id="a_edge19_Node000011_Node000013"><a xlink:title=" ">
<path fill="none" stroke="#9a32cd" stroke-dasharray="5,2" d="M1218.97,-2.32C1258.61,-2.22 1302.73,-9.02 1336,-33 1352.47,-44.88 1338.68,-61.67 1354,-75 1358.47,-78.89 1363.49,-82.18 1368.83,-84.97"/>
<polygon fill="#9a32cd" stroke="#9a32cd" points="1218.66,1.18 1208.72,-2.49 1218.78,-5.82 1218.66,1.18"/>
</a>
</g>
<text text-anchor="middle" x="1286" y="-36" font-family="Helvetica,sans-Serif" font-size="10.00" fill="grey"> _renderer</text>
</g>
<!-- Node14&#45;&gt;Node11 -->
<g id="edge20_Node000011_Node000014" class="edge">
<title>Node14&#45;&gt;Node11</title>
<g id="a_edge20_Node000011_Node000014"><a xlink:title=" ">
<path fill="none" stroke="#9a32cd" stroke-dasharray="5,2" d="M641.39,-58.77C797.68,-55.64 1089.28,-54.76 1336,-82 1343.66,-82.85 1351.6,-83.87 1359.54,-84.99"/>
<polygon fill="#9a32cd" stroke="#9a32cd" points="641.21,-55.27 631.29,-58.98 641.36,-62.27 641.21,-55.27"/>
</a>
</g>
<text text-anchor="middle" x="927.5" y="-64" font-family="Helvetica,sans-Serif" font-size="10.00" fill="grey"> _activeProfile</text>
</g>
<!-- Node15 -->
<g id="Node000015" class="node">
<title>Node15</title>
<g id="a_Node000015"><a xlink:href="interfaceWolfstagInteractive_1_1ConvoCore_1_1IConvoAudioProvider.html" target="_top" xlink:title="Interface for audio playback backends.">
<polygon fill="white" stroke="#666666" points="1192.5,-423 1046.5,-423 1046.5,-393 1192.5,-393 1192.5,-423"/>
<text text-anchor="start" x="1054.5" y="-411" font-family="Helvetica,sans-Serif" font-size="10.00">WolfstagInteractive.Convo</text>
<text text-anchor="middle" x="1119.5" y="-400" font-family="Helvetica,sans-Serif" font-size="10.00">Core.IConvoAudioProvider</text>
</a>
</g>
</g>
<!-- Node15&#45;&gt;Node2 -->
<g id="edge22_Node000002_Node000015" class="edge">
<title>Node15&#45;&gt;Node2</title>
<g id="a_edge22_Node000002_Node000015"><a xlink:title=" ">
<path fill="none" stroke="#9a32cd" stroke-dasharray="5,2" d="M1203.15,-409.71C1244.97,-407.47 1295.35,-399.85 1336,-379 1382.33,-355.24 1419.66,-303.82 1436.23,-278.18"/>
<polygon fill="#9a32cd" stroke="#9a32cd" points="1202.83,-406.22 1192.99,-410.15 1203.14,-413.21 1202.83,-406.22"/>
</a>
</g>
<text text-anchor="middle" x="1286" y="-409" font-family="Helvetica,sans-Serif" font-size="10.00" fill="grey"> _audioProvider</text>
</g>
<!-- Node16 -->
<g id="Node000016" class="node">
<title>Node16</title>
<g id="a_Node000016"><a xlink:href="classWolfstagInteractive_1_1ConvoCore_1_1ConvoCoreDialogueLocalizationHandler.html" target="_top" xlink:title=" ">
<polygon fill="white" stroke="#666666" points="1218,-251.5 1021,-251.5 1021,-210.5 1218,-210.5 1218,-251.5"/>
<text text-anchor="start" x="1029" y="-239.5" font-family="Helvetica,sans-Serif" font-size="10.00">WolfstagInteractive.Convo</text>
<text text-anchor="start" x="1029" y="-228.5" font-family="Helvetica,sans-Serif" font-size="10.00">Core.ConvoCoreDialogueLocalization</text>
<text text-anchor="middle" x="1119.5" y="-217.5" font-family="Helvetica,sans-Serif" font-size="10.00">Handler</text>
</a>
</g>
</g>
<!-- Node16&#45;&gt;Node2 -->
<g id="edge23_Node000002_Node000016" class="edge">
<title>Node16&#45;&gt;Node2</title>
<g id="a_edge23_Node000002_Node000016"><a xlink:title=" ">
<path fill="none" stroke="#9a32cd" stroke-dasharray="5,2" d="M1228.08,-241.59C1275.8,-246.29 1330.69,-251.7 1373.38,-255.9"/>
<polygon fill="#9a32cd" stroke="#9a32cd" points="1228.31,-238.1 1218.01,-240.6 1227.62,-245.06 1228.31,-238.1"/>
</a>
</g>
<text text-anchor="middle" x="1286" y="-255" font-family="Helvetica,sans-Serif" font-size="10.00" fill="grey"> LocalizationHandler</text>
</g>
<!-- Node17&#45;&gt;Node16 -->
<g id="edge24_Node000016_Node000017" class="edge">
<title>Node17&#45;&gt;Node16</title>
<g id="a_edge24_Node000016_Node000017"><a xlink:title=" ">
<path fill="none" stroke="#9a32cd" stroke-dasharray="5,2" d="M844.57,-223.71C899.44,-225.17 966.74,-226.96 1020.9,-228.4"/>
<polygon fill="#9a32cd" stroke="#9a32cd" points="844.57,-220.21 834.48,-223.45 844.38,-227.21 844.57,-220.21"/>
</a>
</g>
<text text-anchor="middle" x="927.5" y="-231" font-family="Helvetica,sans-Serif" font-size="10.00" fill="grey"> _convoCoreLanguageManager</text>
</g>
<!-- Node17&#45;&gt;Node17 -->
<g id="edge25_Node000017_Node000017" class="edge">
<title>Node17&#45;&gt;Node17</title>
<g id="a_edge25_Node000017_Node000017"><a xlink:title=" ">
<path fill="none" stroke="#9a32cd" stroke-dasharray="5,2" d="M708.94,-246.6C713.39,-250.97 724.24,-254 741.5,-254 770.56,-254 781.46,-245.41 774.2,-236.28"/>
<polygon fill="#9a32cd" stroke="#9a32cd" points="712.44,-246.23 708.8,-236.28 705.44,-246.32 712.44,-246.23"/>
</a>
</g>
<text text-anchor="middle" x="741.5" y="-257" font-family="Helvetica,sans-Serif" font-size="10.00" fill="grey"> _instance</text>
</g>
<!-- Node18 -->
<g id="Node000018" class="node">
<title>Node18</title>
<g id="a_Node000018"><a xlink:href="interfaceWolfstagInteractive_1_1ConvoCore_1_1IConversationContext.html" target="_top" xlink:title="Provides optional runtime context for branch evaluation.">
<polygon fill="white" stroke="#666666" points="1193.5,-337 1045.5,-337 1045.5,-307 1193.5,-307 1193.5,-337"/>
<text text-anchor="start" x="1053.5" y="-325" font-family="Helvetica,sans-Serif" font-size="10.00">WolfstagInteractive.Convo</text>
<text text-anchor="middle" x="1119.5" y="-314" font-family="Helvetica,sans-Serif" font-size="10.00">Core.IConversationContext</text>
</a>
</g>
</g>
<!-- Node18&#45;&gt;Node2 -->
<g id="edge27_Node000002_Node000018" class="edge">
<title>Node18&#45;&gt;Node2</title>
<g id="a_edge27_Node000002_Node000018"><a xlink:title=" ">
<path fill="none" stroke="#9a32cd" stroke-dasharray="5,2" d="M1203.88,-308.25C1243.89,-301.51 1292.48,-293.11 1336,-285 1348.1,-282.75 1360.94,-280.26 1373.4,-277.79"/>
<polygon fill="#9a32cd" stroke="#9a32cd" points="1203.18,-304.82 1193.9,-309.93 1204.34,-311.72 1203.18,-304.82"/>
</a>
</g>
<text text-anchor="middle" x="1286" y="-305" font-family="Helvetica,sans-Serif" font-size="10.00" fill="grey"> _context</text>
</g>
<!-- Node19&#45;&gt;Node1 -->
<g id="edge29_Node000001_Node000019" class="edge">
<title>Node19&#45;&gt;Node1</title>
<g id="a_edge29_Node000001_Node000019"><a xlink:title=" ">
<path fill="none" stroke="#9a32cd" stroke-dasharray="5,2" d="M341.4,-424C363.03,-439.62 394.54,-460.35 425,-473 557.83,-528.15 596.67,-545 740.5,-545 740.5,-545 740.5,-545 1447.5,-545 1562.18,-545 1590.9,-533.18 1703,-509 1720.33,-505.26 1739.06,-500.08 1755.52,-495.12"/>
<polygon fill="#9a32cd" stroke="#9a32cd" points="343.47,-421.17 333.33,-418.07 339.32,-426.81 343.47,-421.17"/>
</a>
</g>
<text text-anchor="middle" x="1119.5" y="-548" font-family="Helvetica,sans-Serif" font-size="10.00" fill="grey"> Representation</text>
</g>
<!-- Node20 -->
<g id="Node000020" class="node">
<title>Node20</title>
<g id="a_Node000020"><a xlink:href="interfaceWolfstagInteractive_1_1ConvoCore_1_1IEditorPreviewableRepresentation.html" target="_top" xlink:title=" ">
<polygon fill="white" stroke="#666666" points="182,-412.5 0,-412.5 0,-393.5 182,-393.5 182,-412.5"/>
<text text-anchor="middle" x="91" y="-400.5" font-family="Helvetica,sans-Serif" font-size="10.00">IEditorPreviewableRepresentation</text>
</a>
</g>
</g>
<!-- Node20&#45;&gt;Node19 -->
<g id="edge31_Node000019_Node000020" class="edge">
<title>Node20&#45;&gt;Node19</title>
<g id="a_edge31_Node000019_Node000020"><a xlink:title=" ">
<path fill="none" stroke="#63b8ff" d="M192.39,-403C201.19,-403 210.08,-403 218.81,-403"/>
<polygon fill="#63b8ff" stroke="#63b8ff" points="192.12,-399.5 182.12,-403 192.12,-406.5 192.12,-399.5"/>
</a>
</g>
</g>
<!-- Node21 -->
<g id="Node000021" class="node">
<title>Node21</title>
<g id="a_Node000021"><a xlink:href="interfaceWolfstagInteractive_1_1ConvoCore_1_1IConvoCoreCharacterDisplay.html" target="_top" xlink:title=" ">
<polygon fill="white" stroke="#666666" points="1537.5,-517 1355.5,-517 1355.5,-487 1537.5,-487 1537.5,-517"/>
<text text-anchor="start" x="1363.5" y="-505" font-family="Helvetica,sans-Serif" font-size="10.00">WolfstagInteractive.Convo</text>
<text text-anchor="middle" x="1446.5" y="-494" font-family="Helvetica,sans-Serif" font-size="10.00">Core.IConvoCoreCharacterDisplay</text>
</a>
</g>
</g>
<!-- Node21&#45;&gt;Node1 -->
<g id="edge32_Node000001_Node000021" class="edge">
<title>Node21&#45;&gt;Node1</title>
<g id="a_edge32_Node000001_Node000021"><a xlink:title=" ">
<path fill="none" stroke="#9a32cd" stroke-dasharray="5,2" d="M1547.94,-495.77C1602.66,-492.37 1669.49,-488.22 1720.87,-485.03"/>
<polygon fill="#9a32cd" stroke="#9a32cd" points="1547.64,-492.28 1537.87,-496.39 1548.07,-499.27 1547.64,-492.28"/>
</a>
</g>
<text text-anchor="middle" x="1630" y="-497" font-family="Helvetica,sans-Serif" font-size="10.00" fill="grey"> Display</text>
</g>
</g>
</svg>
