<?xml version="1.0" encoding="UTF-8" standalone="no"?>
<!DOCTYPE svg PUBLIC "-//W3C//DTD SVG 1.1//EN"
 "http://www.w3.org/Graphics/SVG/1.1/DTD/svg11.dtd">
<!-- Generated by graphviz version 2.43.0 (0)
 -->
<!-- Title: WolfstagInteractive.ConvoCore.ExpressionActionContext Pages: 1 -->
<svg width="1893pt" height="465pt"
 viewBox="0.00 0.00 1893.00 465.00" xmlns="http://www.w3.org/2000/svg" xmlns:xlink="http://www.w3.org/1999/xlink">
<g id="graph0" class="graph" transform="scale(1 1) rotate(0) translate(4 461)">
<title>WolfstagInteractive.ConvoCore.ExpressionActionContext</title>
<!-- Node1 -->
<g id="Node000001" class="node">
<title>Node1</title>
<g id="a_Node000001"><a xlink:title="Context passed to BaseExpressionAction when a character expression is applied.">
<polygon fill="#999999" stroke="#666666" points="1885,-396 1721,-396 1721,-366 1885,-366 1885,-396"/>
<text text-anchor="start" x="1729" y="-384" font-family="Helvetica,sans-Serif" font-size="10.00">WolfstagInteractive.Convo</text>
<text text-anchor="middle" x="1803" y="-373" font-family="Helvetica,sans-Serif" font-size="10.00">Core.ExpressionActionContext</text>
</a>
</g>
</g>
<!-- Node2 -->
<g id="Node000002" class="node">
<title>Node2</title>
<g id="a_Node000002"><a xlink:href="classWolfstagInteractive_1_1ConvoCore_1_1ConvoCore.html" target="_top" xlink:title="Main conversation runner MonoBehaviour.">
<polygon fill="white" stroke="#666666" points="1519.5,-253 1373.5,-253 1373.5,-223 1519.5,-223 1519.5,-253"/>
<text text-anchor="start" x="1381.5" y="-241" font-family="Helvetica,sans-Serif" font-size="10.00">WolfstagInteractive.Convo</text>
<text text-anchor="middle" x="1446.5" y="-230" font-family="Helvetica,sans-Serif" font-size="10.00">Core.ConvoCore</text>
</a>
</g>
</g>
<!-- Node2&#45;&gt;Node1 -->
<g id="edge1_Node000001_Node000002" class="edge">
<title>Node2&#45;&gt;Node1</title>
<g id="a_edge1_Node000001_Node000002"><a xlink:title=" ">
<path fill="none" stroke="#9a32cd" stroke-dasharray="5,2" d="M1500.57,-256.47C1552.6,-274.93 1633.95,-304.7 1703,-334 1726.47,-343.96 1752.49,-356.37 1771.97,-365.94"/>
<polygon fill="#9a32cd" stroke="#9a32cd" points="1501.48,-253.08 1490.88,-253.05 1499.14,-259.68 1501.48,-253.08"/>
</a>
</g>
<text text-anchor="middle" x="1630" y="-337" font-family="Helvetica,sans-Serif" font-size="10.00" fill="grey"> Runtime</text>
</g>
<!-- Node8 -->
<g id="Node000008" class="node">
<title>Node8</title>
<g id="a_Node000008"><a xlink:href="classWolfstagInteractive_1_1ConvoCore_1_1ConvoCoreUIFoundation.html" target="_top" xlink:title="Used as a basis of any UI that can be assigned in the inspector that includes all the base functions ...">
<polygon fill="white" stroke="#666666" points="1883,-161 1723,-161 1723,-131 1883,-131 1883,-161"/>
<text text-anchor="start" x="1731" y="-149" font-family="Helvetica,sans-Serif" font-size="10.00">WolfstagInteractive.Convo</text>
<text text-anchor="middle" x="1803" y="-138" font-family="Helvetica,sans-Serif" font-size="10.00">Core.ConvoCoreUIFoundation</text>
</a>
</g>
</g>
<!-- Node2&#45;&gt;Node8 -->
<g id="edge10_Node000008_Node000002" class="edge">
<title>Node2&#45;&gt;Node8</title>
<g id="a_edge10_Node000008_Node000002"><a xlink:title=" ">
<path fill="none" stroke="#9a32cd" stroke-dasharray="5,2" d="M1482.94,-218.03C1503.89,-207.04 1531.28,-194.03 1557,-186 1572.76,-181.08 1657.45,-167.72 1722.89,-157.78"/>
<polygon fill="#9a32cd" stroke="#9a32cd" points="1481.26,-214.96 1474.09,-222.76 1484.56,-221.14 1481.26,-214.96"/>
</a>
</g>
<text text-anchor="middle" x="1630" y="-189" font-family="Helvetica,sans-Serif" font-size="10.00" fill="grey"> ConvoCoreInstance</text>
</g>
<!-- Node3 -->
<g id="Node000003" class="node">
<title>Node3</title>
<g id="a_Node000003"><a xlink:title=" ">
<polygon fill="white" stroke="#666666" points="1166,-143.5 1073,-143.5 1073,-124.5 1166,-124.5 1166,-143.5"/>
<text text-anchor="middle" x="1119.5" y="-131.5" font-family="Helvetica,sans-Serif" font-size="10.00">MonoBehaviour</text>
</a>
</g>
</g>
<!-- Node3&#45;&gt;Node2 -->
<g id="edge2_Node000002_Node000003" class="edge">
<title>Node3&#45;&gt;Node2</title>
<g id="a_edge2_Node000002_Node000003"><a xlink:title=" ">
<path fill="none" stroke="#63b8ff" d="M1176.66,-143.53C1190.28,-146.23 1204.73,-149.42 1218,-153 1288.43,-171.99 1367.56,-204.13 1411.47,-222.98"/>
<polygon fill="#63b8ff" stroke="#63b8ff" points="1176.92,-140.02 1166.44,-141.56 1175.6,-146.89 1176.92,-140.02"/>
</a>
</g>
</g>
<!-- Node3&#45;&gt;Node8 -->
<g id="edge8_Node000008_Node000003" class="edge">
<title>Node3&#45;&gt;Node8</title>
<g id="a_edge8_Node000008_Node000003"><a xlink:title=" ">
<path fill="none" stroke="#63b8ff" d="M1176.14,-134.98C1296.92,-137.11 1583.45,-142.15 1722.95,-144.61"/>
<polygon fill="#63b8ff" stroke="#63b8ff" points="1176.07,-131.48 1166.01,-134.8 1175.94,-138.48 1176.07,-131.48"/>
</a>
</g>
</g>
<!-- Node10 -->
<g id="Node000010" class="node">
<title>Node10</title>
<g id="a_Node000010"><a xlink:href="classWolfstagInteractive_1_1ConvoCore_1_1ConvoCoreDialogueHistoryUI.html" target="_top" xlink:title=" ">
<polygon fill="white" stroke="#666666" points="1539,-115 1354,-115 1354,-85 1539,-85 1539,-115"/>
<text text-anchor="start" x="1362" y="-103" font-family="Helvetica,sans-Serif" font-size="10.00">WolfstagInteractive.Convo</text>
<text text-anchor="middle" x="1446.5" y="-92" font-family="Helvetica,sans-Serif" font-size="10.00">Core.ConvoCoreDialogueHistoryUI</text>
</a>
</g>
</g>
<!-- Node3&#45;&gt;Node10 -->
<g id="edge12_Node000010_Node000003" class="edge">
<title>Node3&#45;&gt;Node10</title>
<g id="a_edge12_Node000010_Node000003"><a xlink:title=" ">
<path fill="none" stroke="#63b8ff" d="M1176.07,-128.19C1224.8,-123.09 1296.6,-115.58 1353.84,-109.59"/>
<polygon fill="#63b8ff" stroke="#63b8ff" points="1175.61,-124.72 1166.03,-129.24 1176.34,-131.68 1175.61,-124.72"/>
</a>
</g>
</g>
<!-- Node4 -->
<g id="Node000004" class="node">
<title>Node4</title>
<g id="a_Node000004"><a xlink:href="interfaceWolfstagInteractive_1_1ConvoCore_1_1IConvoCoreRunner.html" target="_top" xlink:title="Minimal interface implemented by ConvoCore.">
<polygon fill="white" stroke="#666666" points="1173,-277.5 1066,-277.5 1066,-258.5 1173,-258.5 1173,-277.5"/>
<text text-anchor="middle" x="1119.5" y="-265.5" font-family="Helvetica,sans-Serif" font-size="10.00">IConvoCoreRunner</text>
</a>
</g>
</g>
<!-- Node4&#45;&gt;Node2 -->
<g id="edge3_Node000002_Node000004" class="edge">
<title>Node4&#45;&gt;Node2</title>
<g id="a_edge3_Node000002_Node000004"><a xlink:title=" ">
<path fill="none" stroke="#63b8ff" d="M1183.28,-262.21C1237.65,-257.19 1316.32,-249.92 1373.29,-244.67"/>
<polygon fill="#63b8ff" stroke="#63b8ff" points="1182.71,-258.74 1173.08,-263.15 1183.36,-265.71 1182.71,-258.74"/>
</a>
</g>
</g>
<!-- Node5 -->
<g id="Node000005" class="node">
<title>Node5</title>
<g id="a_Node000005"><a xlink:href="classWolfstagInteractive_1_1ConvoCore_1_1ConvoCoreConversationData.html" target="_top" xlink:title=" ">
<polygon fill="white" stroke="#666666" points="1211,-385 1028,-385 1028,-355 1211,-355 1211,-385"/>
<text text-anchor="start" x="1036" y="-373" font-family="Helvetica,sans-Serif" font-size="10.00">WolfstagInteractive.Convo</text>
<text text-anchor="middle" x="1119.5" y="-362" font-family="Helvetica,sans-Serif" font-size="10.00">Core.ConvoCoreConversationData</text>
</a>
</g>
</g>
<!-- Node5&#45;&gt;Node1 -->
<g id="edge24_Node000001_Node000005" class="edge">
<title>Node5&#45;&gt;Node1</title>
<g id="a_edge24_Node000001_Node000005"><a xlink:title=" ">
<path fill="none" stroke="#9a32cd" stroke-dasharray="5,2" d="M1221.19,-368.95C1262.36,-368.57 1310.46,-368.19 1354,-368 1436.22,-367.65 1456.8,-365.97 1539,-368 1600.01,-369.51 1668.91,-372.98 1720.88,-375.95"/>
<polygon fill="#9a32cd" stroke="#9a32cd" points="1221.12,-365.45 1211.15,-369.04 1221.18,-372.45 1221.12,-365.45"/>
</a>
</g>
<text text-anchor="middle" x="1446.5" y="-371" font-family="Helvetica,sans-Serif" font-size="10.00" fill="grey"> Conversation</text>
</g>
<!-- Node5&#45;&gt;Node2 -->
<g id="edge4_Node000002_Node000005" class="edge">
<title>Node5&#45;&gt;Node2</title>
<g id="a_edge4_Node000002_Node000005"><a xlink:title=" ">
<path fill="none" stroke="#9a32cd" stroke-dasharray="5,2" d="M1203.33,-351.76C1208.36,-349.99 1213.28,-348.08 1218,-346 1226.8,-342.13 1227.32,-338.13 1236,-334 1278.01,-314 1293.48,-321.9 1336,-303 1367.92,-288.82 1402.15,-267.38 1423.68,-253.05"/>
<polygon fill="#9a32cd" stroke="#9a32cd" points="1201.98,-348.52 1193.58,-354.97 1204.17,-355.17 1201.98,-348.52"/>
</a>
</g>
<text text-anchor="middle" x="1286" y="-337" font-family="Helvetica,sans-Serif" font-size="10.00" fill="grey"> ConversationData</text>
</g>
<!-- Node6 -->
<g id="Node000006" class="node">
<title>Node6</title>
<g id="a_Node000006"><a xlink:title=" ">
<polygon fill="white" stroke="#666666" points="139.5,-367.5 42.5,-367.5 42.5,-348.5 139.5,-348.5 139.5,-367.5"/>
<text text-anchor="middle" x="91" y="-355.5" font-family="Helvetica,sans-Serif" font-size="10.00">ScriptableObject</text>
</a>
</g>
</g>
<!-- Node6&#45;&gt;Node5 -->
<g id="edge5_Node000005_Node000006" class="edge">
<title>Node6&#45;&gt;Node5</title>
<g id="a_edge5_Node000005_Node000006"><a xlink:title=" ">
<path fill="none" stroke="#63b8ff" d="M149.82,-358.68C320.21,-360.67 821.39,-366.53 1027.94,-368.94"/>
<polygon fill="#63b8ff" stroke="#63b8ff" points="149.83,-355.18 139.79,-358.56 149.75,-362.18 149.83,-355.18"/>
</a>
</g>
</g>
<!-- Node11 -->
<g id="Node000011" class="node">
<title>Node11</title>
<g id="a_Node000011"><a xlink:href="classWolfstagInteractive_1_1ConvoCore_1_1ConvoCoreSettings.html" target="_top" xlink:title="Global runtime settings ScriptableObject for ConvoCore.">
<polygon fill="white" stroke="#666666" points="386,-313 240,-313 240,-283 386,-283 386,-313"/>
<text text-anchor="start" x="248" y="-301" font-family="Helvetica,sans-Serif" font-size="10.00">WolfstagInteractive.Convo</text>
<text text-anchor="middle" x="313" y="-290" font-family="Helvetica,sans-Serif" font-size="10.00">Core.ConvoCoreSettings</text>
</a>
</g>
</g>
<!-- Node6&#45;&gt;Node11 -->
<g id="edge14_Node000011_Node000006" class="edge">
<title>Node6&#45;&gt;Node11</title>
<g id="a_edge14_Node000011_Node000006"><a xlink:title=" ">
<path fill="none" stroke="#63b8ff" d="M136.71,-345.81C171.39,-336.35 219.63,-323.19 256.73,-313.07"/>
<polygon fill="#63b8ff" stroke="#63b8ff" points="135.59,-342.48 126.86,-348.49 137.43,-349.24 135.59,-342.48"/>
</a>
</g>
</g>
<!-- Node13 -->
<g id="Node000013" class="node">
<title>Node13</title>
<g id="a_Node000013"><a xlink:href="classWolfstagInteractive_1_1ConvoCore_1_1ConvoCoreHistoryRendererProfile.html" target="_top" xlink:title=" ">
<polygon fill="white" stroke="#666666" points="631,-77 425,-77 425,-47 631,-47 631,-77"/>
<text text-anchor="start" x="433" y="-65" font-family="Helvetica,sans-Serif" font-size="10.00">WolfstagInteractive.Convo</text>
<text text-anchor="middle" x="528" y="-54" font-family="Helvetica,sans-Serif" font-size="10.00">Core.ConvoCoreHistoryRendererProfile</text>
</a>
</g>
</g>
<!-- Node6&#45;&gt;Node13 -->
<g id="edge18_Node000013_Node000006" class="edge">
<title>Node6&#45;&gt;Node13</title>
<g id="a_edge18_Node000013_Node000006"><a xlink:title=" ">
<path fill="none" stroke="#63b8ff" d="M106.68,-340.91C149.9,-291.82 282.62,-149.53 425,-82 428.83,-80.18 432.82,-78.53 436.9,-77.03"/>
<polygon fill="#63b8ff" stroke="#63b8ff" points="104.03,-338.63 100.09,-348.47 109.3,-343.23 104.03,-338.63"/>
</a>
</g>
</g>
<!-- Node17 -->
<g id="Node000017" class="node">
<title>Node17</title>
<g id="a_Node000017"><a xlink:href="classWolfstagInteractive_1_1ConvoCore_1_1CharacterRepresentationBase.html" target="_top" xlink:title="Abstract ScriptableObject base class for all character visual representations.">
<polygon fill="white" stroke="#666666" points="407,-454 219,-454 219,-424 407,-424 407,-454"/>
<text text-anchor="start" x="227" y="-442" font-family="Helvetica,sans-Serif" font-size="10.00">WolfstagInteractive.Convo</text>
<text text-anchor="middle" x="313" y="-431" font-family="Helvetica,sans-Serif" font-size="10.00">Core.CharacterRepresentationBase</text>
</a>
</g>
</g>
<!-- Node6&#45;&gt;Node17 -->
<g id="edge26_Node000017_Node000006" class="edge">
<title>Node6&#45;&gt;Node17</title>
<g id="a_edge26_Node000017_Node000006"><a xlink:title=" ">
<path fill="none" stroke="#63b8ff" d="M127.53,-371.08C166.72,-385.51 229.7,-408.7 270.97,-423.89"/>
<polygon fill="#63b8ff" stroke="#63b8ff" points="128.69,-367.78 118.1,-367.61 126.28,-374.35 128.69,-367.78"/>
</a>
</g>
</g>
<!-- Node7 -->
<g id="Node000007" class="node">
<title>Node7</title>
<g id="a_Node000007"><a xlink:href="interfaceWolfstagInteractive_1_1ConvoCore_1_1IConvoInput.html" target="_top" xlink:title="Input strategy interface.">
<polygon fill="white" stroke="#666666" points="1192.5,-240 1046.5,-240 1046.5,-210 1192.5,-210 1192.5,-240"/>
<text text-anchor="start" x="1054.5" y="-228" font-family="Helvetica,sans-Serif" font-size="10.00">WolfstagInteractive.Convo</text>
<text text-anchor="middle" x="1119.5" y="-217" font-family="Helvetica,sans-Serif" font-size="10.00">Core.IConvoInput</text>
</a>
</g>
</g>
<!-- Node7&#45;&gt;Node2 -->
<g id="edge6_Node000002_Node000007" class="edge">
<title>Node7&#45;&gt;Node2</title>
<g id="a_edge6_Node000002_Node000007"><a xlink:title=" ">
<path fill="none" stroke="#9a32cd" stroke-dasharray="5,2" d="M1202.93,-228.3C1255.46,-230.4 1322.87,-233.09 1373.29,-235.11"/>
<polygon fill="#9a32cd" stroke="#9a32cd" points="1202.76,-224.79 1192.63,-227.89 1202.48,-231.78 1202.76,-224.79"/>
</a>
</g>
<text text-anchor="middle" x="1286" y="-236" font-family="Helvetica,sans-Serif" font-size="10.00" fill="grey"> Input</text>
</g>
<!-- Node8&#45;&gt;Node2 -->
<g id="edge7_Node000002_Node000008" class="edge">
<title>Node8&#45;&gt;Node2</title>
<g id="a_edge7_Node000002_Node000008"><a xlink:title=" ">
<path fill="none" stroke="#9a32cd" stroke-dasharray="5,2" d="M1771.79,-166.58C1752.84,-178.51 1727.45,-192.75 1703,-201 1643.12,-221.21 1571.69,-230.38 1519.6,-234.54"/>
<polygon fill="#9a32cd" stroke="#9a32cd" points="1773.76,-169.48 1780.28,-161.13 1769.97,-163.59 1773.76,-169.48"/>
</a>
</g>
<text text-anchor="middle" x="1630" y="-234" font-family="Helvetica,sans-Serif" font-size="10.00" fill="grey"> ConversationUI</text>
</g>
<!-- Node9 -->
<g id="Node000009" class="node">
<title>Node9</title>
<g id="a_Node000009"><a xlink:href="interfaceWolfstagInteractive_1_1ConvoCore_1_1IUIFoundation.html" target="_top" xlink:title="Contract between the ConvoCore runner and a dialogue UI implementation.">
<polygon fill="white" stroke="#666666" points="1488.5,-66.5 1404.5,-66.5 1404.5,-47.5 1488.5,-47.5 1488.5,-66.5"/>
<text text-anchor="middle" x="1446.5" y="-54.5" font-family="Helvetica,sans-Serif" font-size="10.00">IUIFoundation</text>
</a>
</g>
</g>
<!-- Node9&#45;&gt;Node8 -->
<g id="edge9_Node000008_Node000009" class="edge">
<title>Node9&#45;&gt;Node8</title>
<g id="a_edge9_Node000008_Node000009"><a xlink:title=" ">
<path fill="none" stroke="#63b8ff" d="M1498.96,-62.33C1551.18,-68.59 1633.94,-80.92 1703,-102 1727.47,-109.47 1753.88,-121.42 1773.26,-130.98"/>
<polygon fill="#63b8ff" stroke="#63b8ff" points="1499.27,-58.84 1488.93,-61.15 1498.46,-65.79 1499.27,-58.84"/>
</a>
</g>
</g>
<!-- Node10&#45;&gt;Node8 -->
<g id="edge11_Node000008_Node000010" class="edge">
<title>Node10&#45;&gt;Node8</title>
<g id="a_edge11_Node000008_Node000010"><a xlink:title=" ">
<path fill="none" stroke="#9a32cd" stroke-dasharray="5,2" d="M1549.2,-104.49C1596.22,-107.56 1652.69,-112.64 1703,-121 1718.13,-123.51 1734.33,-127.18 1749.16,-130.94"/>
<polygon fill="#9a32cd" stroke="#9a32cd" points="1549.2,-100.98 1539,-103.85 1548.76,-107.97 1549.2,-100.98"/>
</a>
</g>
<text text-anchor="middle" x="1630" y="-124" font-family="Helvetica,sans-Serif" font-size="10.00" fill="grey"> ConvoCoreDialogueHistoryUI</text>
</g>
<!-- Node11&#45;&gt;Node10 -->
<g id="edge13_Node000010_Node000011" class="edge">
<title>Node11&#45;&gt;Node10</title>
<g id="a_edge13_Node000010_Node000011"><a xlink:title=" ">
<path fill="none" stroke="#9a32cd" stroke-dasharray="5,2" d="M368.21,-279.62C485.56,-240.81 772.59,-151.1 1021,-115 1134.84,-98.46 1267.57,-96.51 1353.9,-97.51"/>
<polygon fill="#9a32cd" stroke="#9a32cd" points="366.77,-276.41 358.38,-282.88 368.98,-283.06 366.77,-276.41"/>
</a>
</g>
<text text-anchor="middle" x="927.5" y="-149" font-family="Helvetica,sans-Serif" font-size="10.00" fill="grey"> convoCoreSettings</text>
</g>
<!-- Node11&#45;&gt;Node11 -->
<g id="edge15_Node000011_Node000011" class="edge">
<title>Node11&#45;&gt;Node11</title>
<g id="a_edge15_Node000011_Node000011"><a xlink:title=" ">
<path fill="none" stroke="#9a32cd" stroke-dasharray="5,2" d="M293.4,-323.6C296.07,-327.97 302.61,-331 313,-331 330.5,-331 337.06,-322.41 332.69,-313.28"/>
<polygon fill="#9a32cd" stroke="#9a32cd" points="296.89,-323.25 293.31,-313.28 289.89,-323.3 296.89,-323.25"/>
</a>
</g>
<text text-anchor="middle" x="313" y="-334" font-family="Helvetica,sans-Serif" font-size="10.00" fill="grey"> _instance</text>
</g>
<!-- Node15 -->
<g id="Node000015" class="node">
<title>Node15</title>
<g id="a_Node000015"><a xlink:href="classWolfstagInteractive_1_1ConvoCore_1_1ConvoCoreLanguageManager.html" target="_top" xlink:title=" ">
<polygon fill="white" stroke="#666666" points="834,-313 649,-313 649,-283 834,-283 834,-313"/>
<text text-anchor="start" x="657" y="-301" font-family="Helvetica,sans-Serif" font-size="10.00">WolfstagInteractive.Convo</text>
<text text-anchor="middle" x="741.5" y="-290" font-family="Helvetica,sans-Serif" font-size="10.00">Core.ConvoCoreLanguageManager</text>
</a>
</g>
</g>
<!-- Node11&#45;&gt;Node15 -->
<g id="edge22_Node000015_Node000011" class="edge">
<title>Node11&#45;&gt;Node15</title>
<g id="a_edge22_Node000015_Node000011"><a xlink:title=" ">
<path fill="none" stroke="#9a32cd" stroke-dasharray="5,2" d="M396.78,-298C469.1,-298 573.95,-298 648.8,-298"/>
<polygon fill="#9a32cd" stroke="#9a32cd" points="396.35,-294.5 386.35,-298 396.35,-301.5 396.35,-294.5"/>
</a>
</g>
<text text-anchor="middle" x="528" y="-301" font-family="Helvetica,sans-Serif" font-size="10.00" fill="grey"> _convoCoreSettings</text>
</g>
<!-- Node12 -->
<g id="Node000012" class="node">
<title>Node12</title>
<g id="a_Node000012"><a xlink:href="interfaceWolfstagInteractive_1_1ConvoCore_1_1IConvoCoreHistoryRenderer.html" target="_top" xlink:title="Base contract for any dialogue history renderer.">
<polygon fill="white" stroke="#666666" points="1208.5,-30 1030.5,-30 1030.5,0 1208.5,0 1208.5,-30"/>
<text text-anchor="start" x="1038.5" y="-18" font-family="Helvetica,sans-Serif" font-size="10.00">WolfstagInteractive.Convo</text>
<text text-anchor="middle" x="1119.5" y="-7" font-family="Helvetica,sans-Serif" font-size="10.00">Core.IConvoCoreHistoryRenderer</text>
</a>
</g>
</g>
<!-- Node12&#45;&gt;Node10 -->
<g id="edge16_Node000010_Node000012" class="edge">
<title>Node12&#45;&gt;Node10</title>
<g id="a_edge16_Node000010_Node000012"><a xlink:title=" ">
<path fill="none" stroke="#9a32cd" stroke-dasharray="5,2" d="M1218.97,-2.32C1258.61,-2.22 1302.73,-9.02 1336,-33 1352.47,-44.88 1338.68,-61.67 1354,-75 1358.47,-78.89 1363.49,-82.18 1368.83,-84.97"/>
<polygon fill="#9a32cd" stroke="#9a32cd" points="1218.66,1.18 1208.72,-2.49 1218.78,-5.82 1218.66,1.18"/>
</a>
</g>
<text text-anchor="middle" x="1286" y="-36" font-family="Helvetica,sans-Serif" font-size="10.00" fill="grey"> _renderer</text>
</g>
<!-- Node13&#45;&gt;Node10 -->
<g id="edge17_Node000010_Node000013" class="edge">
<title>Node13&#45;&gt;Node10</title>
<g id="a_edge17_Node000010_Node000013"><a xlink:title=" ">
<path fill="none" stroke="#9a32cd" stroke-dasharray="5,2" d="M641.39,-58.77C797.68,-55.64 1089.28,-54.76 1336,-82 1343.66,-82.85 1351.6,-83.87 1359.54,-84.99"/>
<polygon fill="#9a32cd" stroke="#9a32cd" points="641.21,-55.27 631.29,-58.98 641.36,-62.27 641.21,-55.27"/>
</a>
</g>
<text text-anchor="middle" x="927.5" y="-64" font-family="Helvetica,sans-Serif" font-size="10.00" fill="grey"> _activeProfile</text>
</g>
<!-- Node14 -->
<g id="Node000014" class="node">
<title>Node14</title>
<g id="a_Node000014"><a xlink:href="classWolfstagInteractive_1_1ConvoCore_1_1ConvoCoreDialogueLocalizationHandler.html" target="_top" xlink:title=" ">
<polygon fill="white" stroke="#666666" points="1218,-336.5 1021,-336.5 1021,-295.5 1218,-295.5 1218,-336.5"/>
<text text-anchor="start" x="1029" y="-324.5" font-family="Helvetica,sans-Serif" font-size="10.00">WolfstagInteractive.Convo</text>
<text text-anchor="start" x="1029" y="-313.5" font-family="Helvetica,sans-Serif" font-size="10.00">Core.ConvoCoreDialogueLocalization</text>
<text text-anchor="middle" x="1119.5" y="-302.5" font-family="Helvetica,sans-Serif" font-size="10.00">Handler</text>
</a>
</g>
</g>
<!-- Node14&#45;&gt;Node2 -->
<g id="edge19_Node000002_Node000014" class="edge">
<title>Node14&#45;&gt;Node2</title>
<g id="a_edge19_Node000002_Node000014"><a xlink:title=" ">
<path fill="none" stroke="#9a32cd" stroke-dasharray="5,2" d="M1221.13,-293.14C1257.38,-284.78 1298.57,-275.13 1336,-266 1352.78,-261.91 1370.96,-257.32 1387.6,-253.06"/>
<polygon fill="#9a32cd" stroke="#9a32cd" points="1220,-289.81 1211.04,-295.47 1221.57,-296.63 1220,-289.81"/>
</a>
</g>
<text text-anchor="middle" x="1286" y="-291" font-family="Helvetica,sans-Serif" font-size="10.00" fill="grey"> LocalizationHandler</text>
</g>
<!-- Node15&#45;&gt;Node14 -->
<g id="edge20_Node000014_Node000015" class="edge">
<title>Node15&#45;&gt;Node14</title>
<g id="a_edge20_Node000014_Node000015"><a xlink:title=" ">
<path fill="none" stroke="#9a32cd" stroke-dasharray="5,2" d="M844.57,-302.89C899.44,-305.51 966.74,-308.73 1020.9,-311.33"/>
<polygon fill="#9a32cd" stroke="#9a32cd" points="844.64,-299.39 834.48,-302.4 844.3,-306.38 844.64,-299.39"/>
</a>
</g>
<text text-anchor="middle" x="927.5" y="-313" font-family="Helvetica,sans-Serif" font-size="10.00" fill="grey"> _convoCoreLanguageManager</text>
</g>
<!-- Node15&#45;&gt;Node15 -->
<g id="edge21_Node000015_Node000015" class="edge">
<title>Node15&#45;&gt;Node15</title>
<g id="a_edge21_Node000015_Node000015"><a xlink:title=" ">
<path fill="none" stroke="#9a32cd" stroke-dasharray="5,2" d="M708.94,-323.6C713.39,-327.97 724.24,-331 741.5,-331 770.56,-331 781.46,-322.41 774.2,-313.28"/>
<polygon fill="#9a32cd" stroke="#9a32cd" points="712.44,-323.23 708.8,-313.28 705.44,-323.32 712.44,-323.23"/>
</a>
</g>
<text text-anchor="middle" x="741.5" y="-334" font-family="Helvetica,sans-Serif" font-size="10.00" fill="grey"> _instance</text>
</g>
<!-- Node16 -->
<g id="Node000016" class="node">
<title>Node16</title>
<g id="a_Node000016"><a xlink:href="interfaceWolfstagInteractive_1_1ConvoCore_1_1IConversationContext.html" target="_top" xlink:title="Provides optional runtime context for branch evaluation.">
<polygon fill="white" stroke="#666666" points="1193.5,-192 1045.5,-192 1045.5,-162 1193.5,-162 1193.5,-192"/>
<text text-anchor="start" x="1053.5" y="-180" font-family="Helvetica,sans-Serif" font-size="10.00">WolfstagInteractive.Convo</text>
<text text-anchor="middle" x="1119.5" y="-169" font-family="Helvetica,sans-Serif" font-size="10.00">Core.IConversationContext</text>
</a>
</g>
</g>
<!-- Node16&#45;&gt;Node2 -->
<g id="edge23_Node000002_Node000016" class="edge">
<title>Node16&#45;&gt;Node2</title>
<g id="a_edge23_Node000002_Node000016"><a xlink:title=" ">
<path fill="none" stroke="#9a32cd" stroke-dasharray="5,2" d="M1203.9,-191.06C1243.91,-197.97 1292.5,-206.6 1336,-215 1348.87,-217.49 1362.57,-220.26 1375.76,-223"/>
<polygon fill="#9a32cd" stroke="#9a32cd" points="1204.37,-187.59 1193.92,-189.34 1203.18,-194.48 1204.37,-187.59"/>
</a>
</g>
<text text-anchor="middle" x="1286" y="-218" font-family="Helvetica,sans-Serif" font-size="10.00" fill="grey"> _context</text>
</g>
<!-- Node17&#45;&gt;Node1 -->
<g id="edge25_Node000001_Node000017" class="edge">
<title>Node17&#45;&gt;Node1</title>
<g id="a_edge25_Node000001_Node000017"><a xlink:title=" ">
<path fill="none" stroke="#9a32cd" stroke-dasharray="5,2" d="M417.24,-441.64C503.62,-443.63 630.09,-446 740.5,-446 740.5,-446 740.5,-446 1447.5,-446 1562.18,-446 1590.9,-434.18 1703,-410 1720.33,-406.26 1739.06,-401.08 1755.52,-396.12"/>
<polygon fill="#9a32cd" stroke="#9a32cd" points="417.25,-438.14 407.18,-441.41 417.09,-445.14 417.25,-438.14"/>
</a>
</g>
<text text-anchor="middle" x="1119.5" y="-449" font-family="Helvetica,sans-Serif" font-size="10.00" fill="grey"> Representation</text>
</g>
<!-- Node18 -->
<g id="Node000018" class="node">
<title>Node18</title>
<g id="a_Node000018"><a xlink:href="interfaceWolfstagInteractive_1_1ConvoCore_1_1IEditorPreviewableRepresentation.html" target="_top" xlink:title=" ">
<polygon fill="white" stroke="#666666" points="182,-448.5 0,-448.5 0,-429.5 182,-429.5 182,-448.5"/>
<text text-anchor="middle" x="91" y="-436.5" font-family="Helvetica,sans-Serif" font-size="10.00">IEditorPreviewableRepresentation</text>
</a>
</g>
</g>
<!-- Node18&#45;&gt;Node17 -->
<g id="edge27_Node000017_Node000018" class="edge">
<title>Node18&#45;&gt;Node17</title>
<g id="a_edge27_Node000017_Node000018"><a xlink:title=" ">
<path fill="none" stroke="#63b8ff" d="M192.39,-439C201.19,-439 210.08,-439 218.81,-439"/>
<polygon fill="#63b8ff" stroke="#63b8ff" points="192.12,-435.5 182.12,-439 192.12,-442.5 192.12,-435.5"/>
</a>
</g>
</g>
<!-- Node19 -->
<g id="Node000019" class="node">
<title>Node19</title>
<g id="a_Node000019"><a xlink:href="interfaceWolfstagInteractive_1_1ConvoCore_1_1IConvoCoreCharacterDisplay.html" target="_top" xlink:title=" ">
<polygon fill="white" stroke="#666666" points="1537.5,-418 1355.5,-418 1355.5,-388 1537.5,-388 1537.5,-418"/>
<text text-anchor="start" x="1363.5" y="-406" font-family="Helvetica,sans-Serif" font-size="10.00">WolfstagInteractive.Convo</text>
<text text-anchor="middle" x="1446.5" y="-395" font-family="Helvetica,sans-Serif" font-size="10.00">Core.IConvoCoreCharacterDisplay</text>
</a>
</g>
</g>
<!-- Node19&#45;&gt;Node1 -->
<g id="edge28_Node000001_Node000019" class="edge">
<title>Node19&#45;&gt;Node1</title>
<g id="a_edge28_Node000001_Node000019"><a xlink:title=" ">
<path fill="none" stroke="#9a32cd" stroke-dasharray="5,2" d="M1547.94,-396.77C1602.66,-393.37 1669.49,-389.22 1720.87,-386.03"/>
<polygon fill="#9a32cd" stroke="#9a32cd" points="1547.64,-393.28 1537.87,-397.39 1548.07,-400.27 1547.64,-393.28"/>
</a>
</g>
<text text-anchor="middle" x="1630" y="-398" font-family="Helvetica,sans-Serif" font-size="10.00" fill="grey"> Display</text>
</g>
</g>
</svg>
