<?xml version="1.0" encoding="UTF-8" standalone="no"?>
<!DOCTYPE svg PUBLIC "-//W3C//DTD SVG 1.1//EN"
 "http://www.w3.org/Graphics/SVG/1.1/DTD/svg11.dtd">
<!-- Generated by graphviz version 2.43.0 (0)
 -->
<!-- Title: WolfstagInteractive.ConvoCore.ExpressionActionContext Pages: 1 -->
<svg width="1840pt" height="545pt"
 viewBox="0.00 0.00 1840.00 545.04" xmlns="http://www.w3.org/2000/svg" xmlns:xlink="http://www.w3.org/1999/xlink">
<g id="graph0" class="graph" transform="scale(1 1) rotate(0) translate(4 541.04)">
<title>WolfstagInteractive.ConvoCore.ExpressionActionContext</title>
<!-- Node1 -->
<g id="Node000001" class="node">
<title>Node1</title>
<g id="a_Node000001"><a xlink:title="Context passed to BaseExpressionAction when a character expression is applied.">
<polygon fill="#999999" stroke="#666666" points="1832,-457 1668,-457 1668,-427 1832,-427 1832,-457"/>
<text text-anchor="start" x="1676" y="-445" font-family="Helvetica,sans-Serif" font-size="10.00">WolfstagInteractive.Convo</text>
<text text-anchor="middle" x="1750" y="-434" font-family="Helvetica,sans-Serif" font-size="10.00">Core.ExpressionActionContext</text>
</a>
</g>
</g>
<!-- Node2 -->
<g id="Node000002" class="node">
<title>Node2</title>
<g id="a_Node000002"><a xlink:href="classWolfstagInteractive_1_1ConvoCore_1_1ConvoCore.html" target="_top" xlink:title="Main conversation runner MonoBehaviour.">
<polygon fill="white" stroke="#666666" points="1466.5,-285 1320.5,-285 1320.5,-255 1466.5,-255 1466.5,-285"/>
<text text-anchor="start" x="1328.5" y="-273" font-family="Helvetica,sans-Serif" font-size="10.00">WolfstagInteractive.Convo</text>
<text text-anchor="middle" x="1393.5" y="-262" font-family="Helvetica,sans-Serif" font-size="10.00">Core.ConvoCore</text>
</a>
</g>
</g>
<!-- Node2&#45;&gt;Node1 -->
<g id="edge1_Node000001_Node000002" class="edge">
<title>Node2&#45;&gt;Node1</title>
<g id="a_edge1_Node000001_Node000002"><a xlink:title=" ">
<path fill="none" stroke="#9a32cd" stroke-dasharray="5,2" d="M1434.81,-289.56C1506.31,-324.25 1653.86,-395.84 1718.05,-426.98"/>
<polygon fill="#9a32cd" stroke="#9a32cd" points="1436.17,-286.33 1425.65,-285.11 1433.12,-292.63 1436.17,-286.33"/>
</a>
</g>
<text text-anchor="middle" x="1577" y="-394" font-family="Helvetica,sans-Serif" font-size="10.00" fill="grey"> Runtime</text>
</g>
<!-- Node9 -->
<g id="Node000009" class="node">
<title>Node9</title>
<g id="a_Node000009"><a xlink:href="classWolfstagInteractive_1_1ConvoCore_1_1ConvoCoreUIFoundation.html" target="_top" xlink:title="Used as a basis of any UI that can be assigned in the inspector that includes all the base functions ...">
<polygon fill="white" stroke="#666666" points="1830,-180 1670,-180 1670,-150 1830,-150 1830,-180"/>
<text text-anchor="start" x="1678" y="-168" font-family="Helvetica,sans-Serif" font-size="10.00">WolfstagInteractive.Convo</text>
<text text-anchor="middle" x="1750" y="-157" font-family="Helvetica,sans-Serif" font-size="10.00">Core.ConvoCoreUIFoundation</text>
</a>
</g>
</g>
<!-- Node2&#45;&gt;Node9 -->
<g id="edge13_Node000009_Node000002" class="edge">
<title>Node2&#45;&gt;Node9</title>
<g id="a_edge13_Node000009_Node000002"><a xlink:title=" ">
<path fill="none" stroke="#9a32cd" stroke-dasharray="5,2" d="M1476.58,-269.17C1527.98,-266.23 1594.71,-257.9 1650,-236 1682.84,-222.99 1714.96,-196.74 1733.33,-180.06"/>
<polygon fill="#9a32cd" stroke="#9a32cd" points="1476.31,-265.68 1466.51,-269.69 1476.67,-272.67 1476.31,-265.68"/>
</a>
</g>
<text text-anchor="middle" x="1577" y="-270" font-family="Helvetica,sans-Serif" font-size="10.00" fill="grey"> ConvoCoreInstance</text>
</g>
<!-- Node3 -->
<g id="Node000003" class="node">
<title>Node3</title>
<g id="a_Node000003"><a xlink:title=" ">
<polygon fill="white" stroke="#666666" points="1113,-148.5 1020,-148.5 1020,-129.5 1113,-129.5 1113,-148.5"/>
<text text-anchor="middle" x="1066.5" y="-136.5" font-family="Helvetica,sans-Serif" font-size="10.00">MonoBehaviour</text>
</a>
</g>
</g>
<!-- Node3&#45;&gt;Node2 -->
<g id="edge2_Node000002_Node000003" class="edge">
<title>Node3&#45;&gt;Node2</title>
<g id="a_edge2_Node000002_Node000003"><a xlink:title=" ">
<path fill="none" stroke="#63b8ff" d="M1123.35,-143.14C1137.54,-145.82 1152.34,-150.13 1165,-157 1175.22,-162.55 1173.21,-169.72 1183,-176 1222.52,-201.34 1240.03,-191.09 1283,-210 1313.16,-223.27 1346.11,-241.93 1367.9,-254.91"/>
<polygon fill="#63b8ff" stroke="#63b8ff" points="1123.6,-139.64 1113.16,-141.47 1122.46,-146.54 1123.6,-139.64"/>
</a>
</g>
</g>
<!-- Node3&#45;&gt;Node9 -->
<g id="edge11_Node000009_Node000003" class="edge">
<title>Node3&#45;&gt;Node9</title>
<g id="a_edge11_Node000009_Node000003"><a xlink:title=" ">
<path fill="none" stroke="#63b8ff" d="M1123.14,-141.12C1243.92,-145.73 1530.45,-156.66 1669.95,-161.98"/>
<polygon fill="#63b8ff" stroke="#63b8ff" points="1123.13,-137.62 1113.01,-140.74 1122.87,-144.61 1123.13,-137.62"/>
</a>
</g>
</g>
<!-- Node11 -->
<g id="Node000011" class="node">
<title>Node11</title>
<g id="a_Node000011"><a xlink:href="classWolfstagInteractive_1_1ConvoCore_1_1ConvoCoreDialogueHistoryUI.html" target="_top" xlink:title=" ">
<polygon fill="white" stroke="#666666" points="1486,-99 1301,-99 1301,-69 1486,-69 1486,-99"/>
<text text-anchor="start" x="1309" y="-87" font-family="Helvetica,sans-Serif" font-size="10.00">WolfstagInteractive.Convo</text>
<text text-anchor="middle" x="1393.5" y="-76" font-family="Helvetica,sans-Serif" font-size="10.00">Core.ConvoCoreDialogueHistoryUI</text>
</a>
</g>
</g>
<!-- Node3&#45;&gt;Node11 -->
<g id="edge15_Node000011_Node000003" class="edge">
<title>Node3&#45;&gt;Node11</title>
<g id="a_edge15_Node000011_Node000003"><a xlink:title=" ">
<path fill="none" stroke="#63b8ff" d="M1123.15,-131.67C1166.75,-125.69 1228.89,-116.69 1283,-107 1296.29,-104.62 1310.43,-101.84 1323.99,-99.05"/>
<polygon fill="#63b8ff" stroke="#63b8ff" points="1122.47,-128.23 1113.03,-133.04 1123.41,-135.16 1122.47,-128.23"/>
</a>
</g>
</g>
<!-- Node4 -->
<g id="Node000004" class="node">
<title>Node4</title>
<g id="a_Node000004"><a xlink:href="interfaceWolfstagInteractive_1_1ConvoCore_1_1IConvoCoreRunner.html" target="_top" xlink:title="Minimal interface implemented by ConvoCore.">
<polygon fill="white" stroke="#666666" points="1120,-293.5 1013,-293.5 1013,-274.5 1120,-274.5 1120,-293.5"/>
<text text-anchor="middle" x="1066.5" y="-281.5" font-family="Helvetica,sans-Serif" font-size="10.00">IConvoCoreRunner</text>
</a>
</g>
</g>
<!-- Node4&#45;&gt;Node2 -->
<g id="edge3_Node000002_Node000004" class="edge">
<title>Node4&#45;&gt;Node2</title>
<g id="a_edge3_Node000002_Node000004"><a xlink:title=" ">
<path fill="none" stroke="#63b8ff" d="M1130.28,-281.3C1184.65,-278.95 1263.32,-275.56 1320.29,-273.11"/>
<polygon fill="#63b8ff" stroke="#63b8ff" points="1129.92,-277.81 1120.08,-281.74 1130.22,-284.8 1129.92,-277.81"/>
</a>
</g>
</g>
<!-- Node5 -->
<g id="Node000005" class="node">
<title>Node5</title>
<g id="a_Node000005"><a xlink:href="classWolfstagInteractive_1_1ConvoCore_1_1ConvoCoreConversationData.html" target="_top" xlink:title=" ">
<polygon fill="white" stroke="#666666" points="317,-435 134,-435 134,-405 317,-405 317,-435"/>
<text text-anchor="start" x="142" y="-423" font-family="Helvetica,sans-Serif" font-size="10.00">WolfstagInteractive.Convo</text>
<text text-anchor="middle" x="225.5" y="-412" font-family="Helvetica,sans-Serif" font-size="10.00">Core.ConvoCoreConversationData</text>
</a>
</g>
</g>
<!-- Node5&#45;&gt;Node1 -->
<g id="edge28_Node000001_Node000005" class="edge">
<title>Node5&#45;&gt;Node1</title>
<g id="a_edge28_Node000001_Node000005"><a xlink:title=" ">
<path fill="none" stroke="#9a32cd" stroke-dasharray="5,2" d="M327.21,-434.21C329.83,-434.48 332.43,-434.75 335,-435 561.41,-457.04 618.52,-464 846,-464 846,-464 846,-464 1394.5,-464 1488.38,-464 1595.98,-456.22 1667.78,-449.91"/>
<polygon fill="#9a32cd" stroke="#9a32cd" points="327.34,-430.7 317.02,-433.07 326.57,-437.66 327.34,-430.7"/>
</a>
</g>
<text text-anchor="middle" x="1066.5" y="-467" font-family="Helvetica,sans-Serif" font-size="10.00" fill="grey"> Conversation</text>
</g>
<!-- Node5&#45;&gt;Node2 -->
<g id="edge4_Node000002_Node000005" class="edge">
<title>Node5&#45;&gt;Node2</title>
<g id="a_edge4_Node000002_Node000005"><a xlink:title=" ">
<path fill="none" stroke="#9a32cd" stroke-dasharray="5,2" d="M296.3,-402.8C309.11,-400.15 322.41,-397.72 335,-396 701.02,-345.94 799.58,-405.32 1165,-351 1218.42,-343.06 1232.13,-340.12 1283,-322 1311.75,-311.76 1343.06,-296.44 1364.81,-285.08"/>
<polygon fill="#9a32cd" stroke="#9a32cd" points="295.21,-399.46 286.16,-404.97 296.67,-406.3 295.21,-399.46"/>
</a>
</g>
<text text-anchor="middle" x="847" y="-378" font-family="Helvetica,sans-Serif" font-size="10.00" fill="grey"> ConversationData</text>
</g>
<!-- Node7 -->
<g id="Node000007" class="node">
<title>Node7</title>
<g id="a_Node000007"><a xlink:href="classWolfstagInteractive_1_1ConvoCore_1_1ConvoCoreAudioManifest.html" target="_top" xlink:title="Maps dialogue line IDs to audio clips or middleware references, supporting Unity AudioSource,...">
<polygon fill="white" stroke="#666666" points="716.5,-436 550.5,-436 550.5,-406 716.5,-406 716.5,-436"/>
<text text-anchor="start" x="558.5" y="-424" font-family="Helvetica,sans-Serif" font-size="10.00">WolfstagInteractive.Convo</text>
<text text-anchor="middle" x="633.5" y="-413" font-family="Helvetica,sans-Serif" font-size="10.00">Core.ConvoCoreAudioManifest</text>
</a>
</g>
</g>
<!-- Node5&#45;&gt;Node7 -->
<g id="edge8_Node000007_Node000005" class="edge">
<title>Node5&#45;&gt;Node7</title>
<g id="a_edge8_Node000007_Node000005"><a xlink:title=" ">
<path fill="none" stroke="#9a32cd" stroke-dasharray="5,2" d="M327.32,-405.59C329.91,-405.37 332.47,-405.17 335,-405 418.36,-399.27 439.66,-398.94 523,-405 531.91,-405.65 541.2,-406.59 550.43,-407.69"/>
<polygon fill="#9a32cd" stroke="#9a32cd" points="326.91,-402.11 317.28,-406.51 327.56,-409.08 326.91,-402.11"/>
</a>
</g>
<text text-anchor="middle" x="429" y="-408" font-family="Helvetica,sans-Serif" font-size="10.00" fill="grey"> SourceConversation</text>
</g>
<!-- Node6 -->
<g id="Node000006" class="node">
<title>Node6</title>
<g id="a_Node000006"><a xlink:title=" ">
<polygon fill="white" stroke="#666666" points="97,-429.5 0,-429.5 0,-410.5 97,-410.5 97,-429.5"/>
<text text-anchor="middle" x="48.5" y="-417.5" font-family="Helvetica,sans-Serif" font-size="10.00">ScriptableObject</text>
</a>
</g>
</g>
<!-- Node6&#45;&gt;Node5 -->
<g id="edge5_Node000005_Node000006" class="edge">
<title>Node6&#45;&gt;Node5</title>
<g id="a_edge5_Node000005_Node000006"><a xlink:title=" ">
<path fill="none" stroke="#63b8ff" d="M107.41,-420C115.87,-420 124.74,-420 133.67,-420"/>
<polygon fill="#63b8ff" stroke="#63b8ff" points="107.32,-416.5 97.32,-420 107.32,-423.5 107.32,-416.5"/>
</a>
</g>
</g>
<!-- Node6&#45;&gt;Node7 -->
<g id="edge7_Node000007_Node000006" class="edge">
<title>Node6&#45;&gt;Node7</title>
<g id="a_edge7_Node000007_Node000006"><a xlink:title=" ">
<path fill="none" stroke="#63b8ff" d="M85.86,-432.71C100.61,-437.24 117.92,-441.76 134,-444 305.28,-467.85 350.7,-449.75 523,-435 531.88,-434.24 541.15,-433.29 550.37,-432.25"/>
<polygon fill="#63b8ff" stroke="#63b8ff" points="86.7,-429.31 76.11,-429.61 84.58,-435.98 86.7,-429.31"/>
</a>
</g>
</g>
<!-- Node12 -->
<g id="Node000012" class="node">
<title>Node12</title>
<g id="a_Node000012"><a xlink:href="classWolfstagInteractive_1_1ConvoCore_1_1ConvoCoreSettings.html" target="_top" xlink:title="Global runtime settings ScriptableObject for ConvoCore.">
<polygon fill="white" stroke="#666666" points="298.5,-202 152.5,-202 152.5,-172 298.5,-172 298.5,-202"/>
<text text-anchor="start" x="160.5" y="-190" font-family="Helvetica,sans-Serif" font-size="10.00">WolfstagInteractive.Convo</text>
<text text-anchor="middle" x="225.5" y="-179" font-family="Helvetica,sans-Serif" font-size="10.00">Core.ConvoCoreSettings</text>
</a>
</g>
</g>
<!-- Node6&#45;&gt;Node12 -->
<g id="edge17_Node000012_Node000006" class="edge">
<title>Node6&#45;&gt;Node12</title>
<g id="a_edge17_Node000012_Node000006"><a xlink:title=" ">
<path fill="none" stroke="#63b8ff" d="M62.88,-402.18C96.12,-357.92 182.01,-243.58 213.07,-202.22"/>
<polygon fill="#63b8ff" stroke="#63b8ff" points="60,-400.19 56.8,-410.28 65.6,-404.39 60,-400.19"/>
</a>
</g>
</g>
<!-- Node14 -->
<g id="Node000014" class="node">
<title>Node14</title>
<g id="a_Node000014"><a xlink:href="classWolfstagInteractive_1_1ConvoCore_1_1ConvoCoreHistoryRendererProfile.html" target="_top" xlink:title=" ">
<polygon fill="white" stroke="#666666" points="950,-30 744,-30 744,0 950,0 950,-30"/>
<text text-anchor="start" x="752" y="-18" font-family="Helvetica,sans-Serif" font-size="10.00">WolfstagInteractive.Convo</text>
<text text-anchor="middle" x="847" y="-7" font-family="Helvetica,sans-Serif" font-size="10.00">Core.ConvoCoreHistoryRendererProfile</text>
</a>
</g>
</g>
<!-- Node6&#45;&gt;Node14 -->
<g id="edge21_Node000014_Node000006" class="edge">
<title>Node6&#45;&gt;Node14</title>
<g id="a_edge21_Node000014_Node000006"><a xlink:title=" ">
<path fill="none" stroke="#63b8ff" d="M51.4,-400.07C56.71,-353.78 75.41,-237.28 134,-163 199,-80.59 234.72,-70 335,-39 471.61,3.24 638.5,1.84 743.56,-5.01"/>
<polygon fill="#63b8ff" stroke="#63b8ff" points="47.89,-399.95 50.32,-410.26 54.85,-400.68 47.89,-399.95"/>
</a>
</g>
</g>
<!-- Node19 -->
<g id="Node000019" class="node">
<title>Node19</title>
<g id="a_Node000019"><a xlink:href="classWolfstagInteractive_1_1ConvoCore_1_1CharacterRepresentationBase.html" target="_top" xlink:title="Abstract ScriptableObject base class for all character visual representations.">
<polygon fill="white" stroke="#666666" points="523,-537 335,-537 335,-507 523,-507 523,-537"/>
<text text-anchor="start" x="343" y="-525" font-family="Helvetica,sans-Serif" font-size="10.00">WolfstagInteractive.Convo</text>
<text text-anchor="middle" x="429" y="-514" font-family="Helvetica,sans-Serif" font-size="10.00">Core.CharacterRepresentationBase</text>
</a>
</g>
</g>
<!-- Node6&#45;&gt;Node19 -->
<g id="edge30_Node000019_Node000006" class="edge">
<title>Node6&#45;&gt;Node19</title>
<g id="a_edge30_Node000019_Node000006"><a xlink:title=" ">
<path fill="none" stroke="#63b8ff" d="M58.32,-438.41C68.81,-458.02 88.32,-488.1 115,-502 182.49,-537.16 269.57,-539.89 334.74,-535.12"/>
<polygon fill="#63b8ff" stroke="#63b8ff" points="61.44,-436.83 53.78,-429.5 55.2,-440 61.44,-436.83"/>
</a>
</g>
</g>
<!-- Node7&#45;&gt;Node5 -->
<g id="edge6_Node000005_Node000007" class="edge">
<title>Node7&#45;&gt;Node5</title>
<g id="a_edge6_Node000005_Node000007"><a xlink:title=" ">
<path fill="none" stroke="#9a32cd" stroke-dasharray="5,2" d="M540.34,-420.77C473.51,-420.61 383.58,-420.39 317.11,-420.22"/>
<polygon fill="#9a32cd" stroke="#9a32cd" points="540.44,-424.27 550.44,-420.8 540.45,-417.27 540.44,-424.27"/>
</a>
</g>
<text text-anchor="middle" x="429" y="-423" font-family="Helvetica,sans-Serif" font-size="10.00" fill="grey"> AudioManifest</text>
</g>
<!-- Node8 -->
<g id="Node000008" class="node">
<title>Node8</title>
<g id="a_Node000008"><a xlink:href="interfaceWolfstagInteractive_1_1ConvoCore_1_1IConvoInput.html" target="_top" xlink:title="Input strategy interface.">
<polygon fill="white" stroke="#666666" points="1139.5,-256 993.5,-256 993.5,-226 1139.5,-226 1139.5,-256"/>
<text text-anchor="start" x="1001.5" y="-244" font-family="Helvetica,sans-Serif" font-size="10.00">WolfstagInteractive.Convo</text>
<text text-anchor="middle" x="1066.5" y="-233" font-family="Helvetica,sans-Serif" font-size="10.00">Core.IConvoInput</text>
</a>
</g>
</g>
<!-- Node8&#45;&gt;Node2 -->
<g id="edge9_Node000002_Node000008" class="edge">
<title>Node8&#45;&gt;Node2</title>
<g id="a_edge9_Node000002_Node000008"><a xlink:title=" ">
<path fill="none" stroke="#9a32cd" stroke-dasharray="5,2" d="M1149.84,-248.2C1190.01,-251.73 1239.03,-256.05 1283,-260 1295.07,-261.08 1307.89,-262.24 1320.35,-263.38"/>
<polygon fill="#9a32cd" stroke="#9a32cd" points="1150.1,-244.71 1139.83,-247.32 1149.49,-251.68 1150.1,-244.71"/>
</a>
</g>
<text text-anchor="middle" x="1233" y="-263" font-family="Helvetica,sans-Serif" font-size="10.00" fill="grey"> Input</text>
</g>
<!-- Node9&#45;&gt;Node2 -->
<g id="edge10_Node000002_Node000009" class="edge">
<title>Node9&#45;&gt;Node2</title>
<g id="a_edge10_Node000002_Node000009"><a xlink:title=" ">
<path fill="none" stroke="#9a32cd" stroke-dasharray="5,2" d="M1665.31,-182.23C1617.56,-192.87 1556.87,-207.77 1504,-225 1477.81,-233.53 1449.04,-245.46 1427.56,-254.9"/>
<polygon fill="#9a32cd" stroke="#9a32cd" points="1666.29,-185.6 1675.3,-180.03 1664.78,-178.77 1666.29,-185.6"/>
</a>
</g>
<text text-anchor="middle" x="1577" y="-228" font-family="Helvetica,sans-Serif" font-size="10.00" fill="grey"> ConversationUI</text>
</g>
<!-- Node10 -->
<g id="Node000010" class="node">
<title>Node10</title>
<g id="a_Node000010"><a xlink:href="interfaceWolfstagInteractive_1_1ConvoCore_1_1IUIFoundation.html" target="_top" xlink:title="Contract between the ConvoCore runner and a dialogue UI implementation.">
<polygon fill="white" stroke="#666666" points="1435.5,-136.5 1351.5,-136.5 1351.5,-117.5 1435.5,-117.5 1435.5,-136.5"/>
<text text-anchor="middle" x="1393.5" y="-124.5" font-family="Helvetica,sans-Serif" font-size="10.00">IUIFoundation</text>
</a>
</g>
</g>
<!-- Node10&#45;&gt;Node9 -->
<g id="edge12_Node000009_Node000010" class="edge">
<title>Node10&#45;&gt;Node9</title>
<g id="a_edge12_Node000009_Node000010"><a xlink:title=" ">
<path fill="none" stroke="#63b8ff" d="M1445.95,-131.12C1497.6,-135.42 1579.42,-142.7 1650,-151 1656.46,-151.76 1663.16,-152.6 1669.88,-153.47"/>
<polygon fill="#63b8ff" stroke="#63b8ff" points="1445.97,-127.61 1435.72,-130.27 1445.39,-134.59 1445.97,-127.61"/>
</a>
</g>
</g>
<!-- Node11&#45;&gt;Node9 -->
<g id="edge14_Node000009_Node000011" class="edge">
<title>Node11&#45;&gt;Node9</title>
<g id="a_edge14_Node000009_Node000011"><a xlink:title=" ">
<path fill="none" stroke="#9a32cd" stroke-dasharray="5,2" d="M1496.15,-92.93C1543.53,-98.66 1600.29,-107.78 1650,-122 1674.32,-128.96 1700.52,-140.54 1719.86,-149.93"/>
<polygon fill="#9a32cd" stroke="#9a32cd" points="1496.53,-89.45 1486.19,-91.76 1495.71,-96.4 1496.53,-89.45"/>
</a>
</g>
<text text-anchor="middle" x="1577" y="-125" font-family="Helvetica,sans-Serif" font-size="10.00" fill="grey"> ConvoCoreDialogueHistoryUI</text>
</g>
<!-- Node12&#45;&gt;Node11 -->
<g id="edge16_Node000011_Node000012" class="edge">
<title>Node12&#45;&gt;Node11</title>
<g id="a_edge16_Node000011_Node000012"><a xlink:title=" ">
<path fill="none" stroke="#9a32cd" stroke-dasharray="5,2" d="M308.64,-170.02C444.91,-142.81 726.61,-90.61 968,-72 1055.3,-65.27 1077.47,-69.69 1165,-72 1209.78,-73.18 1259.46,-75.66 1300.94,-78.07"/>
<polygon fill="#9a32cd" stroke="#9a32cd" points="307.81,-166.62 298.69,-172.01 309.18,-173.48 307.81,-166.62"/>
</a>
</g>
<text text-anchor="middle" x="847" y="-99" font-family="Helvetica,sans-Serif" font-size="10.00" fill="grey"> convoCoreSettings</text>
</g>
<!-- Node12&#45;&gt;Node12 -->
<g id="edge18_Node000012_Node000012" class="edge">
<title>Node12&#45;&gt;Node12</title>
<g id="a_edge18_Node000012_Node000012"><a xlink:title=" ">
<path fill="none" stroke="#9a32cd" stroke-dasharray="5,2" d="M206.25,-212.6C208.88,-216.97 215.29,-220 225.5,-220 242.69,-220 249.13,-211.41 244.84,-202.28"/>
<polygon fill="#9a32cd" stroke="#9a32cd" points="209.74,-212.25 206.16,-202.28 202.74,-212.3 209.74,-212.25"/>
</a>
</g>
<text text-anchor="middle" x="225.5" y="-223" font-family="Helvetica,sans-Serif" font-size="10.00" fill="grey"> _instance</text>
</g>
<!-- Node17 -->
<g id="Node000017" class="node">
<title>Node17</title>
<g id="a_Node000017"><a xlink:href="classWolfstagInteractive_1_1ConvoCore_1_1ConvoCoreLanguageManager.html" target="_top" xlink:title=" ">
<polygon fill="white" stroke="#666666" points="726,-202 541,-202 541,-172 726,-172 726,-202"/>
<text text-anchor="start" x="549" y="-190" font-family="Helvetica,sans-Serif" font-size="10.00">WolfstagInteractive.Convo</text>
<text text-anchor="middle" x="633.5" y="-179" font-family="Helvetica,sans-Serif" font-size="10.00">Core.ConvoCoreLanguageManager</text>
</a>
</g>
</g>
<!-- Node12&#45;&gt;Node17 -->
<g id="edge26_Node000017_Node000012" class="edge">
<title>Node12&#45;&gt;Node17</title>
<g id="a_edge26_Node000017_Node000012"><a xlink:title=" ">
<path fill="none" stroke="#9a32cd" stroke-dasharray="5,2" d="M308.75,-187C376,-187 471.04,-187 540.75,-187"/>
<polygon fill="#9a32cd" stroke="#9a32cd" points="308.62,-183.5 298.62,-187 308.62,-190.5 308.62,-183.5"/>
</a>
</g>
<text text-anchor="middle" x="429" y="-190" font-family="Helvetica,sans-Serif" font-size="10.00" fill="grey"> _convoCoreSettings</text>
</g>
<!-- Node13 -->
<g id="Node000013" class="node">
<title>Node13</title>
<g id="a_Node000013"><a xlink:href="interfaceWolfstagInteractive_1_1ConvoCore_1_1IConvoCoreHistoryRenderer.html" target="_top" xlink:title="Base contract for any dialogue history renderer.">
<polygon fill="white" stroke="#666666" points="1155.5,-111 977.5,-111 977.5,-81 1155.5,-81 1155.5,-111"/>
<text text-anchor="start" x="985.5" y="-99" font-family="Helvetica,sans-Serif" font-size="10.00">WolfstagInteractive.Convo</text>
<text text-anchor="middle" x="1066.5" y="-88" font-family="Helvetica,sans-Serif" font-size="10.00">Core.IConvoCoreHistoryRenderer</text>
</a>
</g>
</g>
<!-- Node13&#45;&gt;Node11 -->
<g id="edge19_Node000011_Node000013" class="edge">
<title>Node13&#45;&gt;Node11</title>
<g id="a_edge19_Node000011_Node000013"><a xlink:title=" ">
<path fill="none" stroke="#9a32cd" stroke-dasharray="5,2" d="M1166.03,-92.36C1208.85,-90.78 1258.71,-88.94 1300.74,-87.39"/>
<polygon fill="#9a32cd" stroke="#9a32cd" points="1165.74,-88.87 1155.88,-92.74 1166,-95.87 1165.74,-88.87"/>
</a>
</g>
<text text-anchor="middle" x="1233" y="-95" font-family="Helvetica,sans-Serif" font-size="10.00" fill="grey"> _renderer</text>
</g>
<!-- Node14&#45;&gt;Node11 -->
<g id="edge20_Node000011_Node000014" class="edge">
<title>Node14&#45;&gt;Node11</title>
<g id="a_edge20_Node000011_Node000014"><a xlink:title=" ">
<path fill="none" stroke="#9a32cd" stroke-dasharray="5,2" d="M960.32,-9.86C1049.16,-8.5 1175.69,-12.58 1283,-39 1310.94,-45.88 1341.07,-58.69 1362.64,-68.89"/>
<polygon fill="#9a32cd" stroke="#9a32cd" points="960.15,-6.37 950.21,-10.05 960.28,-13.37 960.15,-6.37"/>
</a>
</g>
<text text-anchor="middle" x="1066.5" y="-21" font-family="Helvetica,sans-Serif" font-size="10.00" fill="grey"> _activeProfile</text>
</g>
<!-- Node15 -->
<g id="Node000015" class="node">
<title>Node15</title>
<g id="a_Node000015"><a xlink:href="interfaceWolfstagInteractive_1_1ConvoCore_1_1IConvoAudioProvider.html" target="_top" xlink:title="Interface for audio playback backends.">
<polygon fill="white" stroke="#666666" points="1139.5,-428 993.5,-428 993.5,-398 1139.5,-398 1139.5,-428"/>
<text text-anchor="start" x="1001.5" y="-416" font-family="Helvetica,sans-Serif" font-size="10.00">WolfstagInteractive.Convo</text>
<text text-anchor="middle" x="1066.5" y="-405" font-family="Helvetica,sans-Serif" font-size="10.00">Core.IConvoAudioProvider</text>
</a>
</g>
</g>
<!-- Node15&#45;&gt;Node2 -->
<g id="edge22_Node000002_Node000015" class="edge">
<title>Node15&#45;&gt;Node2</title>
<g id="a_edge22_Node000002_Node000015"><a xlink:title=" ">
<path fill="none" stroke="#9a32cd" stroke-dasharray="5,2" d="M1150.08,-414.56C1191.88,-412.28 1242.26,-404.68 1283,-384 1328.76,-360.77 1366.1,-310.65 1382.9,-285.32"/>
<polygon fill="#9a32cd" stroke="#9a32cd" points="1149.75,-411.07 1139.92,-415.02 1150.07,-418.06 1149.75,-411.07"/>
</a>
</g>
<text text-anchor="middle" x="1233" y="-414" font-family="Helvetica,sans-Serif" font-size="10.00" fill="grey"> _audioProvider</text>
</g>
<!-- Node16 -->
<g id="Node000016" class="node">
<title>Node16</title>
<g id="a_Node000016"><a xlink:href="classWolfstagInteractive_1_1ConvoCore_1_1ConvoCoreDialogueLocalizationHandler.html" target="_top" xlink:title=" ">
<polygon fill="white" stroke="#666666" points="1165,-207.5 968,-207.5 968,-166.5 1165,-166.5 1165,-207.5"/>
<text text-anchor="start" x="976" y="-195.5" font-family="Helvetica,sans-Serif" font-size="10.00">WolfstagInteractive.Convo</text>
<text text-anchor="start" x="976" y="-184.5" font-family="Helvetica,sans-Serif" font-size="10.00">Core.ConvoCoreDialogueLocalization</text>
<text text-anchor="middle" x="1066.5" y="-173.5" font-family="Helvetica,sans-Serif" font-size="10.00">Handler</text>
</a>
</g>
</g>
<!-- Node16&#45;&gt;Node2 -->
<g id="edge23_Node000002_Node000016" class="edge">
<title>Node16&#45;&gt;Node2</title>
<g id="a_edge23_Node000002_Node000016"><a xlink:title=" ">
<path fill="none" stroke="#9a32cd" stroke-dasharray="5,2" d="M1171.84,-209.78C1207.25,-217.89 1246.96,-227.4 1283,-237 1303.43,-242.44 1325.82,-249.07 1344.99,-254.95"/>
<polygon fill="#9a32cd" stroke="#9a32cd" points="1172.5,-206.34 1161.97,-207.53 1170.94,-213.16 1172.5,-206.34"/>
</a>
</g>
<text text-anchor="middle" x="1233" y="-240" font-family="Helvetica,sans-Serif" font-size="10.00" fill="grey"> LocalizationHandler</text>
</g>
<!-- Node17&#45;&gt;Node16 -->
<g id="edge24_Node000016_Node000017" class="edge">
<title>Node17&#45;&gt;Node16</title>
<g id="a_edge24_Node000016_Node000017"><a xlink:title=" ">
<path fill="none" stroke="#9a32cd" stroke-dasharray="5,2" d="M736.33,-187C806.38,-187 898.88,-187 967.98,-187"/>
<polygon fill="#9a32cd" stroke="#9a32cd" points="736.17,-183.5 726.17,-187 736.17,-190.5 736.17,-183.5"/>
</a>
</g>
<text text-anchor="middle" x="847" y="-190" font-family="Helvetica,sans-Serif" font-size="10.00" fill="grey"> _convoCoreLanguageManager</text>
</g>
<!-- Node17&#45;&gt;Node17 -->
<g id="edge25_Node000017_Node000017" class="edge">
<title>Node17&#45;&gt;Node17</title>
<g id="a_edge25_Node000017_Node000017"><a xlink:title=" ">
<path fill="none" stroke="#9a32cd" stroke-dasharray="5,2" d="M597.79,-212.6C602.67,-216.97 614.57,-220 633.5,-220 665.38,-220 677.33,-211.41 669.36,-202.28"/>
<polygon fill="#9a32cd" stroke="#9a32cd" points="601.29,-212.22 597.64,-202.28 594.29,-212.33 601.29,-212.22"/>
</a>
</g>
<text text-anchor="middle" x="633.5" y="-223" font-family="Helvetica,sans-Serif" font-size="10.00" fill="grey"> _instance</text>
</g>
<!-- Node18 -->
<g id="Node000018" class="node">
<title>Node18</title>
<g id="a_Node000018"><a xlink:href="interfaceWolfstagInteractive_1_1ConvoCore_1_1IConversationContext.html" target="_top" xlink:title="Provides optional runtime context for branch evaluation.">
<polygon fill="white" stroke="#666666" points="1140.5,-342 992.5,-342 992.5,-312 1140.5,-312 1140.5,-342"/>
<text text-anchor="start" x="1000.5" y="-330" font-family="Helvetica,sans-Serif" font-size="10.00">WolfstagInteractive.Convo</text>
<text text-anchor="middle" x="1066.5" y="-319" font-family="Helvetica,sans-Serif" font-size="10.00">Core.IConversationContext</text>
</a>
</g>
</g>
<!-- Node18&#45;&gt;Node2 -->
<g id="edge27_Node000002_Node000018" class="edge">
<title>Node18&#45;&gt;Node2</title>
<g id="a_edge27_Node000002_Node000018"><a xlink:title=" ">
<path fill="none" stroke="#9a32cd" stroke-dasharray="5,2" d="M1150.86,-313.55C1190.87,-306.98 1239.46,-298.81 1283,-291 1295.1,-288.83 1307.93,-286.44 1320.39,-284.08"/>
<polygon fill="#9a32cd" stroke="#9a32cd" points="1150.19,-310.12 1140.89,-315.19 1151.32,-317.02 1150.19,-310.12"/>
</a>
</g>
<text text-anchor="middle" x="1233" y="-310" font-family="Helvetica,sans-Serif" font-size="10.00" fill="grey"> _context</text>
</g>
<!-- Node19&#45;&gt;Node1 -->
<g id="edge29_Node000001_Node000019" class="edge">
<title>Node19&#45;&gt;Node1</title>
<g id="a_edge29_Node000001_Node000019"><a xlink:title=" ">
<path fill="none" stroke="#9a32cd" stroke-dasharray="5,2" d="M533.42,-520.07C617.59,-518.66 739.46,-517 846,-517 846,-517 846,-517 1394.5,-517 1509.37,-517 1538.7,-506.43 1650,-478 1671.26,-472.57 1694.35,-464.32 1712.87,-457.09"/>
<polygon fill="#9a32cd" stroke="#9a32cd" points="533.28,-516.57 523.34,-520.24 533.4,-523.57 533.28,-516.57"/>
</a>
</g>
<text text-anchor="middle" x="1066.5" y="-520" font-family="Helvetica,sans-Serif" font-size="10.00" fill="grey"> Representation</text>
</g>
<!-- Node20 -->
<g id="Node000020" class="node">
<title>Node20</title>
<g id="a_Node000020"><a xlink:href="interfaceWolfstagInteractive_1_1ConvoCore_1_1IConvoCoreCharacterDisplay.html" target="_top" xlink:title=" ">
<polygon fill="white" stroke="#666666" points="1484.5,-436 1302.5,-436 1302.5,-406 1484.5,-406 1484.5,-436"/>
<text text-anchor="start" x="1310.5" y="-424" font-family="Helvetica,sans-Serif" font-size="10.00">WolfstagInteractive.Convo</text>
<text text-anchor="middle" x="1393.5" y="-413" font-family="Helvetica,sans-Serif" font-size="10.00">Core.IConvoCoreCharacterDisplay</text>
</a>
</g>
</g>
<!-- Node20&#45;&gt;Node1 -->
<g id="edge31_Node000001_Node000020" class="edge">
<title>Node20&#45;&gt;Node1</title>
<g id="a_edge31_Node000001_Node000020"><a xlink:title=" ">
<path fill="none" stroke="#9a32cd" stroke-dasharray="5,2" d="M1494.94,-426.95C1549.66,-430.19 1616.49,-434.15 1667.87,-437.19"/>
<polygon fill="#9a32cd" stroke="#9a32cd" points="1495.06,-423.45 1484.87,-426.35 1494.65,-430.44 1495.06,-423.45"/>
</a>
</g>
<text text-anchor="middle" x="1577" y="-438" font-family="Helvetica,sans-Serif" font-size="10.00" fill="grey"> Display</text>
</g>
</g>
</svg>
