<?xml version="1.0" encoding="UTF-8" standalone="no"?>
<!DOCTYPE svg PUBLIC "-//W3C//DTD SVG 1.1//EN"
 "http://www.w3.org/Graphics/SVG/1.1/DTD/svg11.dtd">
<!-- Generated by graphviz version 2.43.0 (0)
 -->
<!-- Title: ExpressionActionContext Pages: 1 -->
<svg width="1910pt" height="486pt"
 viewBox="0.00 0.00 1910.00 486.00" xmlns="http://www.w3.org/2000/svg" xmlns:xlink="http://www.w3.org/1999/xlink">
<g id="graph0" class="graph" transform="scale(1 1) rotate(0) translate(4 482)">
<title>ExpressionActionContext</title>
<!-- Node1 -->
<g id="Node000001" class="node">
<title>Node1</title>
<g id="a_Node000001"><a xlink:title="Context passed to BaseExpressionAction when a character expression is applied.">
<polygon fill="#999999" stroke="#666666" points="1891.5,-409.5 1752.5,-409.5 1752.5,-390.5 1891.5,-390.5 1891.5,-409.5"/>
<text text-anchor="middle" x="1822" y="-397.5" font-family="Helvetica,sans-Serif" font-size="10.00">ExpressionActionContext</text>
</a>
</g>
</g>
<!-- Node2 -->
<g id="Node000002" class="node">
<title>Node2</title>
<g id="a_Node000002"><a xlink:href="classWolfstagInteractive_1_1ConvoCore_1_1ConvoCore.html" target="_top" xlink:title=" ">
<polygon fill="white" stroke="#666666" points="1527.5,-291 1381.5,-291 1381.5,-261 1527.5,-261 1527.5,-291"/>
<text text-anchor="start" x="1389.5" y="-279" font-family="Helvetica,sans-Serif" font-size="10.00">WolfstagInteractive.Convo</text>
<text text-anchor="middle" x="1454.5" y="-268" font-family="Helvetica,sans-Serif" font-size="10.00">Core.ConvoCore</text>
</a>
</g>
</g>
<!-- Node2&#45;&gt;Node1 -->
<g id="edge1_Node000001_Node000002" class="edge">
<title>Node2&#45;&gt;Node1</title>
<g id="a_edge1_Node000001_Node000002"><a xlink:title=" ">
<path fill="none" stroke="#9a32cd" stroke-dasharray="5,2" d="M1524.34,-293.73C1579.09,-308.49 1657.3,-331.07 1724,-356 1751.71,-366.36 1782.68,-380.96 1802,-390.45"/>
<polygon fill="#9a32cd" stroke="#9a32cd" points="1524.96,-290.27 1514.4,-291.06 1523.15,-297.03 1524.96,-290.27"/>
</a>
</g>
<text text-anchor="middle" x="1648.5" y="-359" font-family="Helvetica,sans-Serif" font-size="10.00" fill="grey"> Runtime</text>
</g>
<!-- Node8 -->
<g id="Node000008" class="node">
<title>Node8</title>
<g id="a_Node000008"><a xlink:href="classWolfstagInteractive_1_1ConvoCore_1_1ConvoCoreUIFoundation.html" target="_top" xlink:title="Used as a basis of any UI that can be assigned in the inspector that includes all the base functions ...">
<polygon fill="white" stroke="#666666" points="1902,-211 1742,-211 1742,-181 1902,-181 1902,-211"/>
<text text-anchor="start" x="1750" y="-199" font-family="Helvetica,sans-Serif" font-size="10.00">WolfstagInteractive.Convo</text>
<text text-anchor="middle" x="1822" y="-188" font-family="Helvetica,sans-Serif" font-size="10.00">Core.ConvoCoreUIFoundation</text>
</a>
</g>
</g>
<!-- Node2&#45;&gt;Node8 -->
<g id="edge10_Node000008_Node000002" class="edge">
<title>Node2&#45;&gt;Node8</title>
<g id="a_edge10_Node000008_Node000002"><a xlink:title=" ">
<path fill="none" stroke="#9a32cd" stroke-dasharray="5,2" d="M1530.61,-258.17C1538.92,-255.67 1547.19,-252.94 1555,-250 1563.37,-246.85 1564.46,-243.65 1573,-241 1637.71,-220.92 1657.47,-232.82 1724,-220 1737.2,-217.46 1751.3,-214.25 1764.54,-211.02"/>
<polygon fill="#9a32cd" stroke="#9a32cd" points="1529.5,-254.85 1520.87,-261 1531.45,-261.57 1529.5,-254.85"/>
</a>
</g>
<text text-anchor="middle" x="1648.5" y="-244" font-family="Helvetica,sans-Serif" font-size="10.00" fill="grey"> ConvoCoreInstance</text>
</g>
<!-- Node3 -->
<g id="Node000003" class="node">
<title>Node3</title>
<g id="a_Node000003"><a xlink:title=" ">
<polygon fill="white" stroke="#666666" points="1166,-143.5 1073,-143.5 1073,-124.5 1166,-124.5 1166,-143.5"/>
<text text-anchor="middle" x="1119.5" y="-131.5" font-family="Helvetica,sans-Serif" font-size="10.00">MonoBehaviour</text>
</a>
</g>
</g>
<!-- Node3&#45;&gt;Node2 -->
<g id="edge2_Node000002_Node000003" class="edge">
<title>Node3&#45;&gt;Node2</title>
<g id="a_edge2_Node000002_Node000003"><a xlink:title=" ">
<path fill="none" stroke="#63b8ff" d="M1176.22,-138.38C1190.42,-141.05 1205.25,-145.3 1218,-152 1228.01,-157.26 1226.23,-164.29 1236,-170 1275.84,-193.3 1302.4,-166.36 1336,-198 1353.81,-214.76 1336.05,-233.39 1354,-250 1361.8,-257.21 1371.35,-262.48 1381.41,-266.31"/>
<polygon fill="#63b8ff" stroke="#63b8ff" points="1176.48,-134.87 1166.04,-136.69 1175.34,-141.78 1176.48,-134.87"/>
</a>
</g>
</g>
<!-- Node3&#45;&gt;Node8 -->
<g id="edge8_Node000008_Node000003" class="edge">
<title>Node3&#45;&gt;Node8</title>
<g id="a_edge8_Node000008_Node000003"><a xlink:title=" ">
<path fill="none" stroke="#63b8ff" d="M1176.46,-134.71C1259.32,-136.15 1419.45,-140.44 1555,-153 1630.54,-160 1649.19,-164.37 1724,-177 1731.28,-178.23 1738.84,-179.58 1746.4,-180.98"/>
<polygon fill="#63b8ff" stroke="#63b8ff" points="1176.32,-131.2 1166.27,-134.54 1176.21,-138.2 1176.32,-131.2"/>
</a>
</g>
</g>
<!-- Node10 -->
<g id="Node000010" class="node">
<title>Node10</title>
<g id="a_Node000010"><a xlink:href="classWolfstagInteractive_1_1ConvoCore_1_1ConvoCorePrefabRepresentationSpawner.html" target="_top" xlink:title=" ">
<polygon fill="white" stroke="#666666" points="1555,-203.5 1354,-203.5 1354,-162.5 1555,-162.5 1555,-203.5"/>
<text text-anchor="start" x="1362" y="-191.5" font-family="Helvetica,sans-Serif" font-size="10.00">WolfstagInteractive.Convo</text>
<text text-anchor="start" x="1362" y="-180.5" font-family="Helvetica,sans-Serif" font-size="10.00">Core.ConvoCorePrefabRepresentation</text>
<text text-anchor="middle" x="1454.5" y="-169.5" font-family="Helvetica,sans-Serif" font-size="10.00">Spawner</text>
</a>
</g>
</g>
<!-- Node3&#45;&gt;Node10 -->
<g id="edge12_Node000010_Node000003" class="edge">
<title>Node3&#45;&gt;Node10</title>
<g id="a_edge12_Node000010_Node000003"><a xlink:title=" ">
<path fill="none" stroke="#63b8ff" d="M1176.06,-142.18C1224.4,-149.29 1295.63,-159.77 1353.81,-168.33"/>
<polygon fill="#63b8ff" stroke="#63b8ff" points="1176.51,-138.7 1166.1,-140.71 1175.49,-145.63 1176.51,-138.7"/>
</a>
</g>
</g>
<!-- Node11 -->
<g id="Node000011" class="node">
<title>Node11</title>
<g id="a_Node000011"><a xlink:href="classWolfstagInteractive_1_1ConvoCore_1_1ConvoCoreDialogueHistoryUI.html" target="_top" xlink:title=" ">
<polygon fill="white" stroke="#666666" points="1547,-99 1362,-99 1362,-69 1547,-69 1547,-99"/>
<text text-anchor="start" x="1370" y="-87" font-family="Helvetica,sans-Serif" font-size="10.00">WolfstagInteractive.Convo</text>
<text text-anchor="middle" x="1454.5" y="-76" font-family="Helvetica,sans-Serif" font-size="10.00">Core.ConvoCoreDialogueHistoryUI</text>
</a>
</g>
</g>
<!-- Node3&#45;&gt;Node11 -->
<g id="edge14_Node000011_Node000003" class="edge">
<title>Node3&#45;&gt;Node11</title>
<g id="a_edge14_Node000011_Node000003"><a xlink:title=" ">
<path fill="none" stroke="#63b8ff" d="M1176.18,-125.64C1226.73,-118.05 1302.22,-106.71 1361.69,-97.79"/>
<polygon fill="#63b8ff" stroke="#63b8ff" points="1175.47,-122.21 1166.1,-127.15 1176.51,-129.13 1175.47,-122.21"/>
</a>
</g>
</g>
<!-- Node4 -->
<g id="Node000004" class="node">
<title>Node4</title>
<g id="a_Node000004"><a xlink:href="interfaceWolfstagInteractive_1_1ConvoCore_1_1IConvoCoreRunner.html" target="_top" xlink:title=" ">
<polygon fill="white" stroke="#666666" points="1173,-239.5 1066,-239.5 1066,-220.5 1173,-220.5 1173,-239.5"/>
<text text-anchor="middle" x="1119.5" y="-227.5" font-family="Helvetica,sans-Serif" font-size="10.00">IConvoCoreRunner</text>
</a>
</g>
</g>
<!-- Node4&#45;&gt;Node2 -->
<g id="edge3_Node000002_Node000004" class="edge">
<title>Node4&#45;&gt;Node2</title>
<g id="a_edge3_Node000002_Node000004"><a xlink:title=" ">
<path fill="none" stroke="#63b8ff" d="M1183.47,-238.7C1239.85,-246.49 1322.48,-257.9 1381.47,-266.05"/>
<polygon fill="#63b8ff" stroke="#63b8ff" points="1183.65,-235.19 1173.26,-237.29 1182.69,-242.12 1183.65,-235.19"/>
</a>
</g>
</g>
<!-- Node5 -->
<g id="Node000005" class="node">
<title>Node5</title>
<g id="a_Node000005"><a xlink:href="classWolfstagInteractive_1_1ConvoCore_1_1ConvoCoreConversationData.html" target="_top" xlink:title=" ">
<polygon fill="white" stroke="#666666" points="1211,-384 1028,-384 1028,-354 1211,-354 1211,-384"/>
<text text-anchor="start" x="1036" y="-372" font-family="Helvetica,sans-Serif" font-size="10.00">WolfstagInteractive.Convo</text>
<text text-anchor="middle" x="1119.5" y="-361" font-family="Helvetica,sans-Serif" font-size="10.00">Core.ConvoCoreConversationData</text>
</a>
</g>
</g>
<!-- Node5&#45;&gt;Node1 -->
<g id="edge26_Node000001_Node000005" class="edge">
<title>Node5&#45;&gt;Node1</title>
<g id="a_edge26_Node000001_Node000005"><a xlink:title=" ">
<path fill="none" stroke="#9a32cd" stroke-dasharray="5,2" d="M1221.2,-373.46C1365.7,-379.85 1628.12,-391.46 1752.32,-396.96"/>
<polygon fill="#9a32cd" stroke="#9a32cd" points="1221.15,-369.95 1211,-373.01 1220.84,-376.94 1221.15,-369.95"/>
</a>
</g>
<text text-anchor="middle" x="1454.5" y="-391" font-family="Helvetica,sans-Serif" font-size="10.00" fill="grey"> Conversation</text>
</g>
<!-- Node5&#45;&gt;Node2 -->
<g id="edge4_Node000002_Node000005" class="edge">
<title>Node5&#45;&gt;Node2</title>
<g id="a_edge4_Node000002_Node000005"><a xlink:title=" ">
<path fill="none" stroke="#9a32cd" stroke-dasharray="5,2" d="M1208.06,-351.89C1247.48,-343.47 1294.41,-332.45 1336,-320 1363.65,-311.72 1394.15,-300.22 1417.15,-291.06"/>
<polygon fill="#9a32cd" stroke="#9a32cd" points="1207.26,-348.48 1198.2,-353.97 1208.71,-355.33 1207.26,-348.48"/>
</a>
</g>
<text text-anchor="middle" x="1286" y="-348" font-family="Helvetica,sans-Serif" font-size="10.00" fill="grey"> ConversationData</text>
</g>
<!-- Node6 -->
<g id="Node000006" class="node">
<title>Node6</title>
<g id="a_Node000006"><a xlink:title=" ">
<polygon fill="white" stroke="#666666" points="139.5,-261.5 42.5,-261.5 42.5,-242.5 139.5,-242.5 139.5,-261.5"/>
<text text-anchor="middle" x="91" y="-249.5" font-family="Helvetica,sans-Serif" font-size="10.00">ScriptableObject</text>
</a>
</g>
</g>
<!-- Node6&#45;&gt;Node5 -->
<g id="edge5_Node000005_Node000006" class="edge">
<title>Node6&#45;&gt;Node5</title>
<g id="a_edge5_Node000005_Node000006"><a xlink:title=" ">
<path fill="none" stroke="#63b8ff" d="M149.82,-258.59C320.21,-278.01 821.39,-335.14 1027.94,-358.68"/>
<polygon fill="#63b8ff" stroke="#63b8ff" points="150.12,-255.1 139.79,-257.45 149.33,-262.06 150.12,-255.1"/>
</a>
</g>
</g>
<!-- Node12 -->
<g id="Node000012" class="node">
<title>Node12</title>
<g id="a_Node000012"><a xlink:href="classWolfstagInteractive_1_1ConvoCore_1_1ConvoCoreSettings.html" target="_top" xlink:title=" ">
<polygon fill="white" stroke="#666666" points="386,-116 240,-116 240,-86 386,-86 386,-116"/>
<text text-anchor="start" x="248" y="-104" font-family="Helvetica,sans-Serif" font-size="10.00">WolfstagInteractive.Convo</text>
<text text-anchor="middle" x="313" y="-93" font-family="Helvetica,sans-Serif" font-size="10.00">Core.ConvoCoreSettings</text>
</a>
</g>
</g>
<!-- Node6&#45;&gt;Node12 -->
<g id="edge16_Node000012_Node000006" class="edge">
<title>Node6&#45;&gt;Node12</title>
<g id="a_edge16_Node000012_Node000006"><a xlink:title=" ">
<path fill="none" stroke="#63b8ff" d="M114.6,-236.49C156.96,-207.41 247.82,-145.05 289.84,-116.21"/>
<polygon fill="#63b8ff" stroke="#63b8ff" points="112.36,-233.78 106.1,-242.32 116.32,-239.55 112.36,-233.78"/>
</a>
</g>
</g>
<!-- Node14 -->
<g id="Node000014" class="node">
<title>Node14</title>
<g id="a_Node000014"><a xlink:href="classWolfstagInteractive_1_1ConvoCore_1_1ConvoCoreHistoryRendererProfile.html" target="_top" xlink:title=" ">
<polygon fill="white" stroke="#666666" points="631,-208 425,-208 425,-178 631,-178 631,-208"/>
<text text-anchor="start" x="433" y="-196" font-family="Helvetica,sans-Serif" font-size="10.00">WolfstagInteractive.Convo</text>
<text text-anchor="middle" x="528" y="-185" font-family="Helvetica,sans-Serif" font-size="10.00">Core.ConvoCoreHistoryRendererProfile</text>
</a>
</g>
</g>
<!-- Node6&#45;&gt;Node14 -->
<g id="edge20_Node000014_Node000006" class="edge">
<title>Node6&#45;&gt;Node14</title>
<g id="a_edge20_Node000014_Node000006"><a xlink:title=" ">
<path fill="none" stroke="#63b8ff" d="M149.76,-244.17C219.81,-234.66 339.12,-218.48 424.82,-206.86"/>
<polygon fill="#63b8ff" stroke="#63b8ff" points="149.24,-240.7 139.8,-245.52 150.18,-247.64 149.24,-240.7"/>
</a>
</g>
</g>
<!-- Node18 -->
<g id="Node000018" class="node">
<title>Node18</title>
<g id="a_Node000018"><a xlink:href="classWolfstagInteractive_1_1ConvoCore_1_1CharacterRepresentationBase.html" target="_top" xlink:title=" ">
<polygon fill="white" stroke="#666666" points="407,-415 219,-415 219,-385 407,-385 407,-415"/>
<text text-anchor="start" x="227" y="-403" font-family="Helvetica,sans-Serif" font-size="10.00">WolfstagInteractive.Convo</text>
<text text-anchor="middle" x="313" y="-392" font-family="Helvetica,sans-Serif" font-size="10.00">Core.CharacterRepresentationBase</text>
</a>
</g>
</g>
<!-- Node6&#45;&gt;Node18 -->
<g id="edge28_Node000018_Node000006" class="edge">
<title>Node6&#45;&gt;Node18</title>
<g id="a_edge28_Node000018_Node000006"><a xlink:title=" ">
<path fill="none" stroke="#63b8ff" d="M114.97,-267.45C157.4,-296 247.58,-356.66 289.59,-384.93"/>
<polygon fill="#63b8ff" stroke="#63b8ff" points="116.69,-264.39 106.43,-261.71 112.78,-270.2 116.69,-264.39"/>
</a>
</g>
</g>
<!-- Node7 -->
<g id="Node000007" class="node">
<title>Node7</title>
<g id="a_Node000007"><a xlink:href="interfaceWolfstagInteractive_1_1ConvoCore_1_1IConvoInput.html" target="_top" xlink:title=" ">
<polygon fill="white" stroke="#666666" points="1192.5,-336 1046.5,-336 1046.5,-306 1192.5,-306 1192.5,-336"/>
<text text-anchor="start" x="1054.5" y="-324" font-family="Helvetica,sans-Serif" font-size="10.00">WolfstagInteractive.Convo</text>
<text text-anchor="middle" x="1119.5" y="-313" font-family="Helvetica,sans-Serif" font-size="10.00">Core.IConvoInput</text>
</a>
</g>
</g>
<!-- Node7&#45;&gt;Node2 -->
<g id="edge6_Node000002_Node000007" class="edge">
<title>Node7&#45;&gt;Node2</title>
<g id="a_edge6_Node000002_Node000007"><a xlink:title=" ">
<path fill="none" stroke="#9a32cd" stroke-dasharray="5,2" d="M1202.78,-309.88C1257.56,-302.48 1328.84,-292.85 1381.38,-285.75"/>
<polygon fill="#9a32cd" stroke="#9a32cd" points="1202.2,-306.43 1192.76,-311.24 1203.13,-313.36 1202.2,-306.43"/>
</a>
</g>
<text text-anchor="middle" x="1286" y="-308" font-family="Helvetica,sans-Serif" font-size="10.00" fill="grey"> Input</text>
</g>
<!-- Node8&#45;&gt;Node2 -->
<g id="edge7_Node000002_Node000008" class="edge">
<title>Node8&#45;&gt;Node2</title>
<g id="a_edge7_Node000002_Node000008"><a xlink:title=" ">
<path fill="none" stroke="#9a32cd" stroke-dasharray="5,2" d="M1793.6,-217.05C1775.02,-230.1 1749.32,-245.88 1724,-254 1659.76,-274.6 1582.66,-278.97 1527.6,-278.86"/>
<polygon fill="#9a32cd" stroke="#9a32cd" points="1795.8,-219.78 1801.86,-211.09 1791.7,-214.1 1795.8,-219.78"/>
</a>
</g>
<text text-anchor="middle" x="1648.5" y="-280" font-family="Helvetica,sans-Serif" font-size="10.00" fill="grey"> ConversationUI</text>
</g>
<!-- Node9 -->
<g id="Node000009" class="node">
<title>Node9</title>
<g id="a_Node000009"><a xlink:href="interfaceWolfstagInteractive_1_1ConvoCore_1_1IUIFoundation.html" target="_top" xlink:title=" ">
<polygon fill="white" stroke="#666666" points="1496.5,-240.5 1412.5,-240.5 1412.5,-221.5 1496.5,-221.5 1496.5,-240.5"/>
<text text-anchor="middle" x="1454.5" y="-228.5" font-family="Helvetica,sans-Serif" font-size="10.00">IUIFoundation</text>
</a>
</g>
</g>
<!-- Node9&#45;&gt;Node8 -->
<g id="edge9_Node000008_Node000009" class="edge">
<title>Node9&#45;&gt;Node8</title>
<g id="a_edge9_Node000008_Node000009"><a xlink:title=" ">
<path fill="none" stroke="#63b8ff" d="M1506.89,-226.08C1567.97,-220.23 1670.58,-210.4 1741.82,-203.58"/>
<polygon fill="#63b8ff" stroke="#63b8ff" points="1506.34,-222.62 1496.72,-227.05 1507.01,-229.58 1506.34,-222.62"/>
</a>
</g>
</g>
<!-- Node10&#45;&gt;Node8 -->
<g id="edge11_Node000008_Node000010" class="edge">
<title>Node10&#45;&gt;Node8</title>
<g id="a_edge11_Node000008_Node000010"><a xlink:title=" ">
<path fill="none" stroke="#9a32cd" stroke-dasharray="5,2" d="M1565.29,-180.45C1613.96,-180.09 1671.88,-180.69 1724,-184 1729.84,-184.37 1735.87,-184.86 1741.93,-185.43"/>
<polygon fill="#9a32cd" stroke="#9a32cd" points="1565.02,-176.96 1555.05,-180.55 1565.08,-183.96 1565.02,-176.96"/>
</a>
</g>
<text text-anchor="middle" x="1648.5" y="-187" font-family="Helvetica,sans-Serif" font-size="10.00" fill="grey"> PrefabRepresentationSpawner</text>
</g>
<!-- Node11&#45;&gt;Node8 -->
<g id="edge13_Node000008_Node000011" class="edge">
<title>Node11&#45;&gt;Node8</title>
<g id="a_edge13_Node000008_Node000011"><a xlink:title=" ">
<path fill="none" stroke="#9a32cd" stroke-dasharray="5,2" d="M1557.23,-78.6C1609.09,-79.47 1672.02,-86.29 1724,-109 1760.69,-125.03 1793.01,-160.48 1809.47,-180.84"/>
<polygon fill="#9a32cd" stroke="#9a32cd" points="1557.04,-75.1 1547.01,-78.5 1556.97,-82.09 1557.04,-75.1"/>
</a>
</g>
<text text-anchor="middle" x="1648.5" y="-112" font-family="Helvetica,sans-Serif" font-size="10.00" fill="grey"> ConvoCoreDialogueHistoryUI</text>
</g>
<!-- Node12&#45;&gt;Node11 -->
<g id="edge15_Node000011_Node000012" class="edge">
<title>Node12&#45;&gt;Node11</title>
<g id="a_edge15_Node000011_Node000012"><a xlink:title=" ">
<path fill="none" stroke="#9a32cd" stroke-dasharray="5,2" d="M396.33,-93.91C464.1,-88.36 562.71,-80.94 649,-77 907.13,-65.22 1212.32,-74.12 1361.75,-79.96"/>
<polygon fill="#9a32cd" stroke="#9a32cd" points="395.83,-90.44 386.15,-94.75 396.4,-97.41 395.83,-90.44"/>
</a>
</g>
<text text-anchor="middle" x="927.5" y="-75" font-family="Helvetica,sans-Serif" font-size="10.00" fill="grey"> convoCoreSettings</text>
</g>
<!-- Node12&#45;&gt;Node12 -->
<g id="edge17_Node000012_Node000012" class="edge">
<title>Node12&#45;&gt;Node12</title>
<g id="a_edge17_Node000012_Node000012"><a xlink:title=" ">
<path fill="none" stroke="#9a32cd" stroke-dasharray="5,2" d="M293.4,-126.6C296.07,-130.97 302.61,-134 313,-134 330.5,-134 337.06,-125.41 332.69,-116.28"/>
<polygon fill="#9a32cd" stroke="#9a32cd" points="296.89,-126.25 293.31,-116.28 289.89,-126.3 296.89,-126.25"/>
</a>
</g>
<text text-anchor="middle" x="313" y="-137" font-family="Helvetica,sans-Serif" font-size="10.00" fill="grey"> _instance</text>
</g>
<!-- Node16 -->
<g id="Node000016" class="node">
<title>Node16</title>
<g id="a_Node000016"><a xlink:href="classWolfstagInteractive_1_1ConvoCore_1_1ConvoCoreLanguageManager.html" target="_top" xlink:title=" ">
<polygon fill="white" stroke="#666666" points="834,-116 649,-116 649,-86 834,-86 834,-116"/>
<text text-anchor="start" x="657" y="-104" font-family="Helvetica,sans-Serif" font-size="10.00">WolfstagInteractive.Convo</text>
<text text-anchor="middle" x="741.5" y="-93" font-family="Helvetica,sans-Serif" font-size="10.00">Core.ConvoCoreLanguageManager</text>
</a>
</g>
</g>
<!-- Node12&#45;&gt;Node16 -->
<g id="edge24_Node000016_Node000012" class="edge">
<title>Node12&#45;&gt;Node16</title>
<g id="a_edge24_Node000016_Node000012"><a xlink:title=" ">
<path fill="none" stroke="#9a32cd" stroke-dasharray="5,2" d="M396.78,-101C469.1,-101 573.95,-101 648.8,-101"/>
<polygon fill="#9a32cd" stroke="#9a32cd" points="396.35,-97.5 386.35,-101 396.35,-104.5 396.35,-97.5"/>
</a>
</g>
<text text-anchor="middle" x="528" y="-104" font-family="Helvetica,sans-Serif" font-size="10.00" fill="grey"> _convoCoreSettings</text>
</g>
<!-- Node13 -->
<g id="Node000013" class="node">
<title>Node13</title>
<g id="a_Node000013"><a xlink:href="interfaceWolfstagInteractive_1_1ConvoCore_1_1IConvoCoreHistoryRenderer.html" target="_top" xlink:title="Base contract for any dialogue history renderer.">
<polygon fill="white" stroke="#666666" points="1208.5,-30 1030.5,-30 1030.5,0 1208.5,0 1208.5,-30"/>
<text text-anchor="start" x="1038.5" y="-18" font-family="Helvetica,sans-Serif" font-size="10.00">WolfstagInteractive.Convo</text>
<text text-anchor="middle" x="1119.5" y="-7" font-family="Helvetica,sans-Serif" font-size="10.00">Core.IConvoCoreHistoryRenderer</text>
</a>
</g>
</g>
<!-- Node13&#45;&gt;Node11 -->
<g id="edge18_Node000011_Node000013" class="edge">
<title>Node13&#45;&gt;Node11</title>
<g id="a_edge18_Node000011_Node000013"><a xlink:title=" ">
<path fill="none" stroke="#9a32cd" stroke-dasharray="5,2" d="M1218.92,-16.48C1256.05,-18.78 1298.39,-23.54 1336,-33 1368.13,-41.08 1402.67,-57.03 1425.92,-68.96"/>
<polygon fill="#9a32cd" stroke="#9a32cd" points="1218.77,-12.96 1208.59,-15.89 1218.38,-19.95 1218.77,-12.96"/>
</a>
</g>
<text text-anchor="middle" x="1286" y="-36" font-family="Helvetica,sans-Serif" font-size="10.00" fill="grey"> _renderer</text>
</g>
<!-- Node14&#45;&gt;Node11 -->
<g id="edge19_Node000011_Node000014" class="edge">
<title>Node14&#45;&gt;Node11</title>
<g id="a_edge19_Node000011_Node000014"><a xlink:title=" ">
<path fill="none" stroke="#9a32cd" stroke-dasharray="5,2" d="M641.38,-204.72C703.98,-205.31 779.95,-195.5 834,-154 850.76,-141.13 834.72,-122.15 852,-110 892.59,-81.46 1203.86,-80.95 1361.96,-82.6"/>
<polygon fill="#9a32cd" stroke="#9a32cd" points="641.12,-201.21 631.05,-204.52 640.98,-208.21 641.12,-201.21"/>
</a>
</g>
<text text-anchor="middle" x="927.5" y="-113" font-family="Helvetica,sans-Serif" font-size="10.00" fill="grey"> _activeProfile</text>
</g>
<!-- Node15 -->
<g id="Node000015" class="node">
<title>Node15</title>
<g id="a_Node000015"><a xlink:href="classWolfstagInteractive_1_1ConvoCore_1_1ConvoCoreDialogueLocalizationHandler.html" target="_top" xlink:title=" ">
<polygon fill="white" stroke="#666666" points="1218,-202.5 1021,-202.5 1021,-161.5 1218,-161.5 1218,-202.5"/>
<text text-anchor="start" x="1029" y="-190.5" font-family="Helvetica,sans-Serif" font-size="10.00">WolfstagInteractive.Convo</text>
<text text-anchor="start" x="1029" y="-179.5" font-family="Helvetica,sans-Serif" font-size="10.00">Core.ConvoCoreDialogueLocalization</text>
<text text-anchor="middle" x="1119.5" y="-168.5" font-family="Helvetica,sans-Serif" font-size="10.00">Handler</text>
</a>
</g>
</g>
<!-- Node15&#45;&gt;Node2 -->
<g id="edge21_Node000002_Node000015" class="edge">
<title>Node15&#45;&gt;Node2</title>
<g id="a_edge21_Node000002_Node000015"><a xlink:title=" ">
<path fill="none" stroke="#9a32cd" stroke-dasharray="5,2" d="M1228.07,-193.67C1264.07,-200.83 1303.32,-212.38 1336,-231 1346.11,-236.76 1343.99,-244.08 1354,-250 1362.45,-255 1371.87,-259.05 1381.44,-262.33"/>
<polygon fill="#9a32cd" stroke="#9a32cd" points="1228.49,-190.19 1218.01,-191.77 1227.18,-197.07 1228.49,-190.19"/>
</a>
</g>
<text text-anchor="middle" x="1286" y="-234" font-family="Helvetica,sans-Serif" font-size="10.00" fill="grey"> LocalizationHandler</text>
</g>
<!-- Node16&#45;&gt;Node15 -->
<g id="edge22_Node000015_Node000016" class="edge">
<title>Node16&#45;&gt;Node15</title>
<g id="a_edge22_Node000015_Node000016"><a xlink:title=" ">
<path fill="none" stroke="#9a32cd" stroke-dasharray="5,2" d="M822.31,-118.19C881.02,-130.84 961.08,-148.09 1023.16,-161.46"/>
<polygon fill="#9a32cd" stroke="#9a32cd" points="822.85,-114.73 812.34,-116.05 821.38,-121.57 822.85,-114.73"/>
</a>
</g>
<text text-anchor="middle" x="927.5" y="-159" font-family="Helvetica,sans-Serif" font-size="10.00" fill="grey"> _convoCoreLanguageManager</text>
</g>
<!-- Node16&#45;&gt;Node16 -->
<g id="edge23_Node000016_Node000016" class="edge">
<title>Node16&#45;&gt;Node16</title>
<g id="a_edge23_Node000016_Node000016"><a xlink:title=" ">
<path fill="none" stroke="#9a32cd" stroke-dasharray="5,2" d="M708.94,-126.6C713.39,-130.97 724.24,-134 741.5,-134 770.56,-134 781.46,-125.41 774.2,-116.28"/>
<polygon fill="#9a32cd" stroke="#9a32cd" points="712.44,-126.23 708.8,-116.28 705.44,-126.32 712.44,-126.23"/>
</a>
</g>
<text text-anchor="middle" x="741.5" y="-137" font-family="Helvetica,sans-Serif" font-size="10.00" fill="grey"> _instance</text>
</g>
<!-- Node17 -->
<g id="Node000017" class="node">
<title>Node17</title>
<g id="a_Node000017"><a xlink:href="interfaceWolfstagInteractive_1_1ConvoCore_1_1IConversationContext.html" target="_top" xlink:title="Provides optional runtime context for branch evaluation.">
<polygon fill="white" stroke="#666666" points="1193.5,-288 1045.5,-288 1045.5,-258 1193.5,-258 1193.5,-288"/>
<text text-anchor="start" x="1053.5" y="-276" font-family="Helvetica,sans-Serif" font-size="10.00">WolfstagInteractive.Convo</text>
<text text-anchor="middle" x="1119.5" y="-265" font-family="Helvetica,sans-Serif" font-size="10.00">Core.IConversationContext</text>
</a>
</g>
</g>
<!-- Node17&#45;&gt;Node2 -->
<g id="edge25_Node000002_Node000017" class="edge">
<title>Node17&#45;&gt;Node2</title>
<g id="a_edge25_Node000002_Node000017"><a xlink:title=" ">
<path fill="none" stroke="#9a32cd" stroke-dasharray="5,2" d="M1203.59,-273.75C1258.28,-274.24 1329.15,-274.88 1381.45,-275.35"/>
<polygon fill="#9a32cd" stroke="#9a32cd" points="1203.61,-270.25 1193.58,-273.66 1203.55,-277.25 1203.61,-270.25"/>
</a>
</g>
<text text-anchor="middle" x="1286" y="-277" font-family="Helvetica,sans-Serif" font-size="10.00" fill="grey"> _context</text>
</g>
<!-- Node18&#45;&gt;Node1 -->
<g id="edge27_Node000001_Node000018" class="edge">
<title>Node18&#45;&gt;Node1</title>
<g id="a_edge27_Node000001_Node000018"><a xlink:title=" ">
<path fill="none" stroke="#9a32cd" stroke-dasharray="5,2" d="M417.19,-407.55C503.53,-413.22 629.98,-420 740.5,-420 740.5,-420 740.5,-420 1455.5,-420 1559.09,-420 1678.94,-411.89 1752.35,-406"/>
<polygon fill="#9a32cd" stroke="#9a32cd" points="417.33,-404.05 407.12,-406.88 416.87,-411.04 417.33,-404.05"/>
</a>
</g>
<text text-anchor="middle" x="1119.5" y="-423" font-family="Helvetica,sans-Serif" font-size="10.00" fill="grey"> Representation</text>
</g>
<!-- Node19 -->
<g id="Node000019" class="node">
<title>Node19</title>
<g id="a_Node000019"><a xlink:href="interfaceWolfstagInteractive_1_1ConvoCore_1_1IEditorPreviewableRepresentation.html" target="_top" xlink:title=" ">
<polygon fill="white" stroke="#666666" points="182,-409.5 0,-409.5 0,-390.5 182,-390.5 182,-409.5"/>
<text text-anchor="middle" x="91" y="-397.5" font-family="Helvetica,sans-Serif" font-size="10.00">IEditorPreviewableRepresentation</text>
</a>
</g>
</g>
<!-- Node19&#45;&gt;Node18 -->
<g id="edge29_Node000018_Node000019" class="edge">
<title>Node19&#45;&gt;Node18</title>
<g id="a_edge29_Node000018_Node000019"><a xlink:title=" ">
<path fill="none" stroke="#63b8ff" d="M192.39,-400C201.19,-400 210.08,-400 218.81,-400"/>
<polygon fill="#63b8ff" stroke="#63b8ff" points="192.12,-396.5 182.12,-400 192.12,-403.5 192.12,-396.5"/>
</a>
</g>
</g>
<!-- Node20 -->
<g id="Node000020" class="node">
<title>Node20</title>
<g id="a_Node000020"><a xlink:href="interfaceWolfstagInteractive_1_1ConvoCore_1_1IConvoCoreCharacterDisplay.html" target="_top" xlink:title=" ">
<polygon fill="white" stroke="#666666" points="1545.5,-478 1363.5,-478 1363.5,-448 1545.5,-448 1545.5,-478"/>
<text text-anchor="start" x="1371.5" y="-466" font-family="Helvetica,sans-Serif" font-size="10.00">WolfstagInteractive.Convo</text>
<text text-anchor="middle" x="1454.5" y="-455" font-family="Helvetica,sans-Serif" font-size="10.00">Core.IConvoCoreCharacterDisplay</text>
</a>
</g>
</g>
<!-- Node20&#45;&gt;Node1 -->
<g id="edge30_Node000001_Node000020" class="edge">
<title>Node20&#45;&gt;Node1</title>
<g id="a_edge30_Node000001_Node000020"><a xlink:title=" ">
<path fill="none" stroke="#9a32cd" stroke-dasharray="5,2" d="M1555.56,-457.67C1606.45,-453.58 1669.02,-446.43 1724,-434 1750.11,-428.1 1778.92,-417.44 1798.31,-409.62"/>
<polygon fill="#9a32cd" stroke="#9a32cd" points="1555.24,-454.19 1545.54,-458.45 1555.78,-461.16 1555.24,-454.19"/>
</a>
</g>
<text text-anchor="middle" x="1648.5" y="-458" font-family="Helvetica,sans-Serif" font-size="10.00" fill="grey"> Display</text>
</g>
</g>
</svg>
